<?xml version="1.0" encoding="utf-8"?>
<!-- Generator: Adobe Illustrator 16.0.0, SVG Export Plug-In . SVG Version: 6.00 Build 0)  -->
<!DOCTYPE svg PUBLIC "-//W3C//DTD SVG 1.1//EN" "http://www.w3.org/Graphics/SVG/1.1/DTD/svg11.dtd">
<svg version="1.1" id="Layer_1" xmlns="http://www.w3.org/2000/svg" xmlns:xlink="http://www.w3.org/1999/xlink" x="0px" y="0px"
	 width="512px" height="512px" viewBox="0 0 512 512" enable-background="new 0 0 512 512" xml:space="preserve">
<path d="M472.885,141.496l-320.379-17.876l-13.474-61.554c-0.775-6.432-5.36-11.681-11.438-13.432
	c-0.143-0.042-0.289-0.073-0.434-0.111c-0.315-0.081-0.63-0.164-0.953-0.227c-0.416-0.083-0.836-0.142-1.26-0.192
	c-0.061-0.006-0.12-0.017-0.181-0.023c-0.722-0.077-1.453-0.08-2.192-0.08H38.16c-8.836,0-16,7.164-16,16s7.164,16,16,16h72.039
	l9.144,41.77l-4.895-0.273c-9.364,0-16.956,7.591-16.956,16.956l43.911,195.542c0,9.365,7.591,17.007,16.956,17.007h41.346
	l-5.709,32.325c-20.169,2.314-35.835,19.409-35.835,40.198c0,22.367,18.132,40.488,40.5,40.488
	c20.501,0,37.433-15.012,40.118-35.012h113.763c2.686,20,19.619,34.999,40.119,34.999c22.367,0,40.5-18.134,40.5-40.501
	s-18.133-40.499-40.5-40.499c-18.734,0-34.492,13.001-39.117,30.001H237.777c-3.151-12-11.468-21.363-22.373-26.324l6.3-35.676
	h217.269c9.365,0,16.957-7.642,16.957-17.007l33.91-175.517C489.84,149.112,482.25,141.496,472.885,141.496z M190.825,295.368
	l-20-99.191c0-4.916,3.985-8.901,8.902-8.901h0c4.916,0,8.902,3.985,8.902,8.901l20,99.191h-0.001c0,4.916-3.985,8.901-8.901,8.901
	C194.81,304.27,190.825,300.284,190.825,295.368z M264.582,295.368c0,4.916-3.986,8.901-8.903,8.901c-4.916,0-8.9-3.985-8.9-8.901
	l-20-99.191c0-4.916,3.985-8.901,8.901-8.901h0.001c4.915,0,8.902,3.985,8.902,8.901L264.582,295.368L264.582,295.368z
	 M317.145,295.368c0,4.916-3.986,8.901-8.902,8.901s-8.902-3.985-8.902-8.901l-20-99.191c0-4.916,3.986-8.901,8.902-8.901
	s8.902,3.985,8.902,8.901L317.145,295.368L317.145,295.368z M363.348,304.27c-4.916,0-8.902-3.985-8.902-8.901l-20-99.191
	c0-4.916,3.986-8.901,8.902-8.901s8.902,3.985,8.902,8.901l20,99.191C372.25,300.284,368.264,304.27,363.348,304.27z
	 M418.453,304.27c-4.916,0-8.9-3.985-8.9-8.901l-20-99.191c0-4.916,3.984-8.901,8.9-8.901s8.902,3.985,8.902,8.901l20,99.191
	C427.355,300.284,423.369,304.27,418.453,304.27z"/>
</svg>
