<?xml version="1.0" encoding="utf-8"?>
<!-- Generator: Adobe Illustrator 19.0.0, SVG Export Plug-In . SVG Version: 6.00 Build 0)  -->
<svg version="1.1" id="Layer_1" xmlns="http://www.w3.org/2000/svg" xmlns:xlink="http://www.w3.org/1999/xlink" x="0px" y="0px"
	 viewBox="0 0 24 32" style="enable-background:new 0 0 24 32;" xml:space="preserve">
<style type="text/css">
	.st0{fill:#008080;}
</style>
<path id="XMLID_767_" class="st0" d="M22.3,16.1c0-0.1-0.1-0.3-0.2-0.3c-1-0.6-2.3-0.5-3.2,0.3c-1.1,0.9-1.4,1.9-1.3,2.6
	c-2.3,1.4-4,3.6-4.9,6.2v-6.2c0.5,0,1-0.2,1.6-0.4c2.7-1,4.3-3.7,4-6.7L18,9.4c0-0.4-0.1-0.8-0.1-1.1c-0.2-1.9-0.3-2.3,1.2-4.1
	c0.1-0.1,0.1-0.3,0-0.5c-0.1-0.2-0.2-0.2-0.4-0.2c-0.1,0-0.7,0.2-1.8,0.4c-0.1,0-0.1,0-0.1,0c0-1.2-0.7-2.2-1.8-2.6
	c-0.1,0-0.2,0-0.3,0.1c-0.2,0.1-0.2,0.4-0.2,0.4c-0.1,1-0.9,1.9-2,2.1c-1.2-0.5-2.3-1.2-3.1-1.8C8.6,1.5,8,1.1,7.5,1.4
	C7.1,1.6,7,2.3,7.1,3.8c-0.3,0-0.6-0.1-0.9-0.2c-0.4-0.1-0.8-0.1-1,0.2c-0.2,0.3,0,0.6,0.2,0.9c0.4,0.6,1.2,1.8,1,4l-0.3,2.8
	c-0.2,2.1,0.5,4,1.9,5.4c0.9,0.9,2.6,1.5,3.7,1.7v3.7C11.2,21,10.2,20,9,19.3c-1.7-1-3.9-1.3-6.2-0.9c-0.2,0-0.3,0.2-0.3,0.4
	c0,0.2,0.1,0.4,0.2,0.4c4.7,2.2,8.2,6.4,9.1,11c0,0.2,0.2,0.3,0.4,0.3c0,0,0,0,0,0c0.2,0,0.3-0.2,0.3-0.4v-0.8c0-4.1,2-7.8,5.3-9.9
	c0.3,0.4,0.7,0.6,1.3,0.6c0.5,0,1.1-0.2,1.8-0.7C22,18.6,22.4,17.3,22.3,16.1z M17.8,4.5c-1,1.4-0.9,2.1-0.7,3.9
	c0,0.3,0.1,0.7,0.1,1.1l0.2,2.2c0.3,2.6-1.1,4.9-3.5,5.8c0,0,0,0,0,0c-0.7,0.3-1.3,0.4-1.7,0.4c2.3-1.5,3.9-3.9,4.3-6.6
	c0-0.1-0.1-0.3-0.2-0.3c-0.1,0-0.3,0.1-0.3,0.2c-0.4,2.7-2.1,5.1-4.5,6.4c-0.4-0.2-0.7-0.6-0.9-1.2c-0.4-0.8-0.6-1.8-0.7-2.7
	c0.7-2.6,2.6-4.9,5-5.9c0.1-0.1,0.2-0.2,0.1-0.3c0-0.1-0.2-0.2-0.3-0.1c-1.3,0.6-2.5,1.5-3.5,2.7c-0.5,0.7-1,1.4-1.3,2.2
	c0.3-3.5,3.2-6.8,6.7-7.5C16.7,4.8,17.5,4.6,17.8,4.5z M15.1,2.3c0.6,0.4,0.9,1,0.9,1.7c-0.3,0.1-0.5,0.2-0.7,0.2
	c-0.5,0.1-1,0-1.5,0C14.4,3.8,14.9,3.1,15.1,2.3z M7.9,2.1C8.1,2.2,8.6,2.5,9,2.8c0.8,0.6,1.9,1.4,3.3,1.9c0,0,0.1,0,0.1,0
	c0.4,0.1,0.8,0.2,1.3,0.3c-0.9,0.5-1.7,1.3-2.3,2.1c-0.2,0.2-0.3,0.4-0.5,0.7l-0.1-0.5C10.6,5.6,9.6,4.4,7.9,4l0-0.1
	C7.8,2.6,7.9,2.2,7.9,2.1z M7,11.6l0.3-2.8c0.2-2.2-0.4-3.6-0.9-4.3C7,4.6,7.6,4.8,7.7,4.8C9.1,5.1,9.8,6,10,7.5L10.2,9
	c-0.6,1.3-1,2.6-1,4c0,1,0.2,2.6,0.8,3.8c0.1,0.2,0.2,0.3,0.2,0.4c-0.6-0.3-1.2-0.6-1.6-1C7.4,15.1,6.8,13.4,7,11.6z M4.3,19.1
	c3.4-0.1,6.9,1.5,7.5,5.7v0.6c-0.6-1.7-1.5-3.4-3.4-4.6c-0.1-0.1-0.3,0-0.3,0.1c-0.1,0.1,0,0.3,0.1,0.4c2.3,1.5,3.1,3.8,3.6,6v0.3
	C10.5,24.1,7.8,21.1,4.3,19.1z M20.5,18.6c-1,0.8-1.8,0.7-2.1,0.2c-0.3-0.5-0.1-1.4,0.9-2.1c0.2-0.2,0.5-0.3,0.7-0.4
	c-0.1,0.6-0.2,1.1-0.5,1.7c-0.1,0.1,0,0.3,0.1,0.4c0,0,0.1,0,0.1,0c0.1,0,0.2,0,0.2-0.1c0.3-0.6,0.5-1.3,0.6-2c0.1,0,0.1,0,0.2,0
	c0.3,0,0.6,0.1,0.9,0.2C21.6,17.3,21.2,18.1,20.5,18.6z"/>
</svg>
