<?xml version="1.0" encoding="utf-8"?>
<!-- Generator: Adobe Illustrator 19.0.0, SVG Export Plug-In . SVG Version: 6.00 Build 0)  -->
<svg version="1.1" id="Layer_1" xmlns="http://www.w3.org/2000/svg" xmlns:xlink="http://www.w3.org/1999/xlink" x="0px" y="0px"
	 viewBox="0 0 600 900" style="enable-background:new 0 0 600 900;" xml:space="preserve">
<style type="text/css">
	.st0{fill:#EAEAEA;}
	.st1{fill:#EB6C00;}
	.st2{fill:#1D2F7B;stroke:#004ED4;stroke-miterlimit:10;}
	.st3{fill:#5B5B5B;}
	.st4{font-family:'Calibri-Light';}
	.st5{font-size:15.0604px;}
	.st6{fill:#4B4C4C;}
	.st7{font-family:'Calibri-Bold';}
	.st8{font-size:33px;}
	.st9{fill:#444444;}
	.st10{font-size:72px;}
</style>
<rect id="XMLID_5_" class="st0" width="600" height="900"/>
<path id="XMLID_8_" class="st1" d="M296.6,332.5l-1.1,0.6c-6.8,3.9-15.6,1.5-19.5-5.3l-34.9-61c-3.9-6.8-1.5-15.6,5.3-19.5l1.1-0.6
	c6.8-3.9,15.6-1.5,19.5,5.3l34.9,61C305.8,319.8,303.4,328.6,296.6,332.5z"/>
<path id="XMLID_7_" class="st2" d="M303.8,281.5c35.3,2.2,63.3,31.8,63.3,67c0,37-30,67.1-67.1,67.1c-47.9,0-67.2-51.5-67.1-67.1
	c0.1-10.8,3.4-20.3,3.4-20.3c1.9-5.5,4.3-10.1,5.6-12.5c2.7-5.1,6.5-9.2,4.9-15.3c-1.2-4.7-4.8-9.3-9.5-10.8
	c-4.9-1.6-10.8-0.4-14.9,3.4c-0.1,0.1-0.2,0.2-0.2,0.3c-10.8,15.2-17.3,33.8-17.6,53.8c-0.8,53.5,43.3,97.7,96.8,97
	c52.1-0.7,94.1-43.2,94.1-95.5c0-0.8,0-1.7,0-2.5c-0.3-12.5-3.1-24.9-8.2-36.3c-4.9-11-11.9-21.1-20.6-29.5
	c-8.6-8.4-19.1-14.8-30.1-19.9c-6.3-2.9-12.9-5.2-19.7-6.6c-3.3-0.6-6.7-1.1-10-1.1c-5.6-0.1-10.7,0.4-14,5.5
	c-1.7,2.7-3.1,6.5-2.8,9.7c0.8,8.5,5.5,13,14.9,13.9"/>
<text id="XMLID_2_" transform="matrix(1.0347 0 0 1 78.0907 823.1351)"><tspan x="0" y="0" class="st3 st4 st5">              India’s Most Updated And Accurate Local Search Engine </tspan><tspan x="0" y="18.1" class="st3 st4 st5">              </tspan></text>
<text id="XMLID_4_" transform="matrix(0.7586 0 0 1 78.0905 607.3551)" class="st6 st7 st8">Your Choice Our Information Better decision</text>
<text id="XMLID_1_" transform="matrix(1 0 0 1 191.5691 538.0839)" class="st9 st7 st10">CityAPL</text>
</svg>
