<?xml version="1.0" encoding="utf-8"?>
<!-- Generator: Adobe Illustrator 19.0.0, SVG Export Plug-In . SVG Version: 6.00 Build 0)  -->
<svg version="1.1" id="Layer_1" xmlns="http://www.w3.org/2000/svg" xmlns:xlink="http://www.w3.org/1999/xlink" x="0px" y="0px"
	 viewBox="0 0 32 32" style="enable-background:new 0 0 32 32;" xml:space="preserve">
<style type="text/css">
	.st0{fill:#009999;}
</style>
<g id="XMLID_2_">
	<g id="XMLID_3_">
		<path id="XMLID_4_" class="st0" d="M20.2,8.1l-0.7,0.1l-3.4-6.6c-0.2-0.4-0.7-0.7-1-0.4l-0.8,0.3C14,1.6,13.9,2.1,14,2.4
			c-1.1,4.1-4.3,7-6,7.9l-5.7,2.9c-0.7,0.3-1,1.1-0.9,2l-0.4,0.3c-0.6,0.2-0.7,1-0.3,1.7l2.5,4.8c0.3,0.7,1,1,1.6,0.7l0.4-0.2
			c0.7,0.6,1.5,0.8,2.1,0.4h0.1l6.2,8.2c-0.1,0.1-0.2,0.3-0.1,0.6c0.1,0.2,0.3,0.3,0.6,0.2l4.4-2.2c0.2-0.1,0.2-0.3,0.1-0.6
			c-0.1-0.2-0.3-0.3-0.6-0.2h-0.1l-6.2-8.2l1.2-0.7c1.9-1,6-1.8,10.1-0.3c0.2,0.3,0.7,0.4,0.9,0.2l0.7-0.3c0.3-0.2,0.4-0.7,0.2-1.1
			l-3.4-6.6l0.4-0.4c0.3-0.3,0.4-1,0.1-1.6l-0.6-1.1C21.2,8.4,20.6,8,20.2,8.1z M4.6,21.9L4.3,22c-0.2,0.1-0.4,0-0.6-0.2L1.3,17
			c-0.1-0.2-0.1-0.6,0.1-0.6l0.3-0.2l0,0L4.6,21.9L4.6,21.9z M17.2,29.2l-3,1.6L8,22.6l3-1.6L17.2,29.2z M11.9,19.7l-5,2.6
			c-0.6,0.3-1.3,0-1.7-0.7l-2.9-5.7c-0.3-0.7-0.2-1.5,0.3-1.8l5-2.6L11.9,19.7z M22.4,18.8c-1.6-0.6-3.4-0.7-5.3-0.6
			c-1.8,0.1-3.5,0.6-4.7,1.1l0,0l-4.1-8.2l0,0C9.6,10.5,10.9,9.4,12,8c1.1-1.5,2-3,2.6-4.6L22.4,18.8z M24.2,18.9
			C24.2,18.9,24.2,19,24.2,18.9l-0.7,0.3l0,0L14.8,2.3l0,0L15.5,2l0,0L24.2,18.9z M21.4,10.4c0.1,0.2,0.1,0.4,0,0.6l-0.3,0.3L20,9
			l0.6-0.1c0.2,0,0.3,0.1,0.4,0.2L21.4,10.4z"/>
	</g>
</g>
<g id="XMLID_18_">
	<g id="XMLID_19_">
		<path id="XMLID_20_" class="st0" d="M29.4,5.2c-0.2-0.4-0.8-0.6-1.2-0.3l-4.6,2C23,7.1,22.8,7.7,23,8c0.2,0.4,0.8,0.6,1.2,0.3
			l4.6-2C29.3,6.1,29.6,5.6,29.4,5.2z"/>
	</g>
</g>
<g id="XMLID_15_">
	<g id="XMLID_16_">
		<path id="XMLID_17_" class="st0" d="M31.4,9.5C31.3,9.1,30.9,9,30.5,9l0,0l-5.3,0.7l0,0l0,0c-0.1,0-0.2,0-0.3,0.1
			c-0.6,0.2-0.8,0.8-0.6,1.1c0.1,0.3,0.4,0.4,0.9,0.4l0,0l5.3-0.7l0,0l0,0l0,0c0.1,0,0.2,0,0.3-0.1C31.3,10.5,31.5,9.9,31.4,9.5z"/>
	</g>
</g>
<g id="XMLID_12_">
	<g id="XMLID_13_">
		<path id="XMLID_14_" class="st0" d="M27.4,0.9c-0.2-0.4-0.8-0.6-1.2-0.3c-0.1,0-0.2,0.1-0.3,0.2l0,0l0,0l0,0l-3.9,3.5
			c-0.3,0.2-0.4,0.7-0.2,0.9c0.2,0.4,0.8,0.6,1.2,0.3c0.1,0,0.2-0.1,0.3-0.2l0,0l0,0l0,0l3.9-3.5C27.4,1.5,27.5,1.2,27.4,0.9z"/>
	</g>
</g>
</svg>
