<svg id="Layer_1" xmlns="http://www.w3.org/2000/svg" viewBox="0 0 32 32"><style>.st0{fill:none;stroke:#008080;stroke-miterlimit:10;}</style><path class="st0" d="M24.1 7.9c.3.4.9.5 1.3.2l3-2.2c.4-.3.5-.9.2-1.3s-.9-.5-1.3-.2l-3 2.2c-.4.3-.5.9-.2 1.3zm1-6.7c-.4-.3-1-.2-1.3.3l-2 3.2c-.3.4-.1.9.2 1.2.4.3 1 .2 1.3-.3l2-3.2c.3-.4.2-1-.2-1.2zm1.4 9.8l3.7-1c.5-.1.8-.7.6-1.2-.2-.5-.6-.7-1.1-.6l-3.7 1c-.5.1-.8.7-.6 1.2.2.5.6.7 1.1.6zM13.9 2.5c-.5.3-.7 1-.3 1.5-.8 4.5-3.9 8.3-5.9 10.4-.5-.4-1.2-.4-1.7 0l-3 2.2c-1.7 1.2-2 3.6-.8 5.3l-.2-.4-.5.5c-.3.3-.4.8-.2 1.1l1.8 2.4c.3.3.8.4 1.1.2l.6-.4-.3-.4c1.1 1.4 3 1.9 4.5 1.2l6 5c.2.1.4.2.6 0l.2-.2 2.3-1.7.9-.7c.2-.2.2-.5 0-.7l-1.3-1c-.2-.2-.5-.2-.8 0-.6.4-1.3.4-1.8 0l-3.3-2.7.8-.6c.5-.4.7-1 .5-1.6 2.6-1.3 7.1-3.2 11.6-2.7.4.4 1.1.5 1.5.1.4-.4.4-1 .1-1.4l-3.6-4.8c.8-1.2.8-2.8-.1-4-.9-1.2-2.4-1.7-3.8-1.3L15.2 3c-.2-.6-.8-.7-1.3-.5zm-5.7 21c-.6.4-1.4.3-1.8-.3l-2.1-2.9c-.5-.5-.3-1.3.2-1.8L6.6 17l3.7 5-2.1 1.5z"/></svg>