<?xml version="1.0" encoding="utf-8"?>
<!-- Generator: Adobe Illustrator 19.0.0, SVG Export Plug-In . SVG Version: 6.00 Build 0)  -->
<svg version="1.1" id="Layer_1" xmlns="http://www.w3.org/2000/svg" xmlns:xlink="http://www.w3.org/1999/xlink" x="0px" y="0px"
	 viewBox="0 0 32 32" style="enable-background:new 0 0 32 32;" xml:space="preserve">
<style type="text/css">
	.st0{fill:none;stroke:#008080;stroke-miterlimit:10;}
</style>
<path class="st0" d="M24.4,7.7c0.3,0.4,0.9,0.5,1.3,0.2l3-2.2c0.4-0.3,0.5-0.9,0.2-1.3c-0.3-0.4-0.9-0.5-1.3-0.2l-3,2.2
	C24.1,6.7,24,7.3,24.4,7.7z M25.4,0.9c-0.4-0.3-1-0.2-1.3,0.3l-2,3.2c-0.3,0.4-0.1,0.9,0.2,1.2c0.4,0.3,1,0.2,1.3-0.3l2-3.2
	C25.9,1.7,25.8,1.1,25.4,0.9z M26.8,10.8l3.7-1c0.5-0.1,0.8-0.7,0.6-1.2C30.9,8.1,30.5,7.9,30,8l-3.7,1c-0.5,0.1-0.8,0.7-0.6,1.2
	S26.3,10.9,26.8,10.8z M14,2.2c-0.5,0.3-0.7,1-0.3,1.5c-0.8,4.5-3.9,8.4-6,10.5c-0.5-0.4-1.2-0.4-1.7,0l-3,2.2
	c-1.7,1.2-2,3.6-0.8,5.3L2,21.4l-0.5,0.5c-0.3,0.3-0.4,0.8-0.2,1.1l1.8,2.4c0.3,0.3,0.8,0.4,1.1,0.2l0.6-0.4l-0.3-0.4
	c1.1,1.4,3,1.9,4.5,1.2l6.1,5c0.2,0.1,0.4,0.2,0.6,0l0.2-0.2l2.3-1.7l0.9-0.7c0.2-0.2,0.2-0.5,0-0.7l-1.3-1c-0.2-0.2-0.5-0.2-0.8,0
	c-0.6,0.4-1.3,0.4-1.8,0L11.9,24l0.8-0.6c0.5-0.4,0.7-1,0.5-1.6c2.6-1.3,7.2-3.2,11.7-2.7c0.4,0.4,1.1,0.5,1.5,0.1
	c0.4-0.4,0.4-1,0.1-1.4l-3.6-4.8c0.8-1.2,0.8-2.8-0.1-4S20.4,7.2,19,7.6l-3.6-4.8C15.2,2.1,14.5,2,14,2.2z M8.3,23.4
	c-0.6,0.4-1.4,0.3-1.8-0.3l-2.1-2.9c-0.5-0.5-0.3-1.3,0.2-1.8l2.1-1.5l3.7,5C10.4,21.9,8.3,23.4,8.3,23.4z"/>
</svg>
