<?xml version="1.0" encoding="utf-8"?>
<!-- Generator: Adobe Illustrator 19.0.0, SVG Export Plug-In . SVG Version: 6.00 Build 0)  -->
<svg version="1.1" id="Capa_1" xmlns="http://www.w3.org/2000/svg" xmlns:xlink="http://www.w3.org/1999/xlink" x="0px" y="0px"
	 viewBox="7 -6.3 45.3 45.3" style="enable-background:new 7 -6.3 45.3 45.3;" xml:space="preserve">
<style type="text/css">
	.st0{fill:none;stroke:#008080;stroke-miterlimit:10;}
</style>
<ellipse class="st0" cx="40.8" cy="-0.9" rx="4.5" ry="4.3"/>
<path class="st0" d="M50.8,18.9l-4-12.4c-0.5-1.2-1.5-2.2-2.7-2.4c-1.4-0.4-2,0.2-2.8,0.7L32.8,12l-13-14.8c-0.3-0.5-1-0.5-1.3-0.2
	c-0.4,0.4-0.5,1,0,1.3l0.6,0.8l-4.8,4.5c0,0.2-0.2,0.6,0,1l0.4,1.1C14.9,6.2,15.5,6.4,16,6l5.3-4.2l10,11.4
	c-0.4,0.8-0.4,1.9,0.3,2.7c0.5,0.7,1.2,1,2,1c0.2,0,0.5,0,0.8-0.2l1.2,1.3c0.2,0.2,0.5,0.4,0.8,0.4c0.2,0,0.5,0,0.6-0.2
	c0.4-0.4,0.5-1,0-1.3l-1-1.2l5.8-4.8l3,9.5v14.5c0,1.4,1,2.7,2.4,2.9c2,0.5,3.6-1,3.6-2.7V19.6C50.9,19.6,50.9,19.2,50.8,18.9z
	 M27.8,32.5h-1V32h0.6c0.7,0.3,1.7,0.4,1.7,0.2l-1-0.6h0.3c1-0.6,2.4-1.3,2.3-1.6c0-0.3-1.3,0-2.3,0.4v-0.2c1-1.3,1.7-3.2,1.4-3.4
	c-0.3-0.2-1.3,1-2,2.1c0-1.9-0.5-4.1-1-4.1s-0.8,2.3-1,4.1c-0.7-1.1-1.7-2.3-2-2.1c-0.3,0.2,0.5,2.1,1.3,3.4v0.2
	c-1-0.4-2-0.7-2.2-0.5c0,0.2,1.2,1,2.3,1.4h0.3l-1,0.7c0,0.2,1,0,1.7,0l0.5-0.3v0.7c-1.5,0.2-2.8,0.7-3.6,1.3
	c-1.2-1-3.5-1.9-6.2-1.9h-0.6v-1h0.5c0.8,0.3,2,0.5,2,0.3c0-0.2-0.6-0.5-1.3-0.8h0.4c1.4-0.7,3-1.7,3-1.9c-0.2-0.4-1.8,0-3,0.5v-0.3
	c1-1.6,2.2-4.1,1.7-4.3c-0.4-0.2-1.7,1.2-2.7,2.7c0-2.3-0.5-5.2-1-5.2s-1.2,2.9-1.2,5.2c-1-1.4-2.3-2.9-2.7-2.7
	c-0.4,0.3,0.6,2.7,1.6,4.3c0,0,0,0.2,0.2,0.3c-1.3-0.5-2.8-1-3-0.6c0,0.3,1.6,1.3,3,1.9h0.3c-0.7,0.3-1.4,0.7-1.3,1c0,0,1.2,0,2-0.3
	h0.6v1c-3.2,0.4-5.8,2.2-5.8,3.8c0,1.9,24.7,1.9,24.7,0c-0.3-1.9-3-3.4-6.5-3.4V32.5z"/>
</svg>
