<svg xmlns="http://www.w3.org/2000/svg" id="Capa_1" viewBox="8 -7.3 45.3 45.3"><style>.st0{fill:none;stroke:#008080;stroke-width:0.9;stroke-miterlimit:10;}</style><circle cx="39.8" cy="-2.7" r="4.5" class="st0"/><path d="M49.8 18.1l-4-13c-.5-1.3-1.5-2.3-2.7-2.5-1.4-.4-2 .2-2.8.7l-8.5 7.5-13-15.5c-.3-.5-1-.5-1.3-.2-.4.4-.5 1 0 1.4l.6.8L13.3 2c0 .2-.2.6 0 1l.4 1.2c.2.5.8.7 1.3.3L20.3.1l10 12c-.4.8-.4 2 .3 2.8.5.7 1.2 1 2 1 .2 0 .5 0 .8-.2l1.2 1.4c.2.2.5.4.8.4.2 0 .5 0 .6-.2.4-.4.5-1 0-1.4l-1-1.3 5.8-5 3 10v15.2c0 1.5 1 2.8 2.4 3 2 .5 3.6-1 3.6-2.8V18.8c.1 0 .1-.4 0-.7zm-23 14.3h-1v-.6h.6c.7.3 1.7.4 1.7.2l-1-.6h.3c1-.6 2.4-1.4 2.3-1.7 0-.3-1.3 0-2.3.4v-.2c1-1.4 1.7-3.4 1.4-3.6-.3-.2-1.3 1-2 2.2 0-2-.5-4.3-1-4.3s-.8 2.4-1 4.3c-.7-1.2-1.7-2.4-2-2.2-.3.2.5 2.2 1.3 3.6v.2c-1-.4-2-.7-2.2-.5 0 .2 1.2 1 2.3 1.5h.3l-1 .7c0 .2 1 0 1.7 0l.5-.3v.7c-1.5.2-2.8.7-3.6 1.4-1.2-1-3.5-2-6.2-2h-.6v-1h.5c.8.3 2 .5 2 .3s-.6-.5-1.3-.8h.4c1.4-.7 3-1.8 3-2-.2-.4-1.8 0-3 .5v-.3c1-1.7 2.2-4.3 1.7-4.5-.4-.2-1.7 1.3-2.7 2.8 0-2.4-.5-5.5-1-5.5s-1.2 3-1.2 5.5c-1-1.5-2.3-3-2.7-2.8-.4.3.6 2.8 1.6 4.5 0 0 0 .2.2.3-1.3-.5-2.8-1-3-.6 0 .3 1.6 1.4 3 2h.3c-.7.3-1.4.7-1.3 1 0 0 1.2 0 2-.3h.6v1.1c-3.2.4-5.8 2.3-5.8 4 0 2 24.7 2 24.7 0-.3-2-3-3.6-6.5-3.6v.2z" class="st0"/></svg>