<?xml version="1.0" encoding="utf-8"?>
<!-- Generator: Adobe Illustrator 19.0.0, SVG Export Plug-In . SVG Version: 6.00 Build 0)  -->
<svg version="1.1" id="Layer_1" xmlns="http://www.w3.org/2000/svg" xmlns:xlink="http://www.w3.org/1999/xlink" x="0px" y="0px"
	 viewBox="0 0 32 32" style="enable-background:new 0 0 32 32;" xml:space="preserve">
<style type="text/css">
	.st0{fill:none;stroke:#008080;stroke-width:0.7;stroke-miterlimit:10;}
	.st1{fill:none;stroke:#008080;stroke-width:0.5;stroke-miterlimit:10;}
</style>
<ellipse id="XMLID_6_" class="st0" cx="23.2" cy="3.1" rx="3" ry="3.1"/>
<path id="XMLID_5_" class="st0" d="M29.8,17.5l-2.7-9c-0.2-0.8-0.9-1.5-1.7-1.8c-0.9-0.3-1.3,0.1-1.8,0.5c-0.1,0.1-5.8,5.1-5.8,5.1
	L9.3,1.7C9,1.4,8.6,1.3,8.3,1.6C8.1,1.8,8,2.3,8.3,2.6l0.5,0.6L5.6,6.4C5.5,6.5,5.4,6.8,5.5,7l0.3,0.9C6,8.3,6.4,8.4,6.7,8.1L10.3,5
	l6.7,8.2c-0.4,0.6-0.3,1.4,0.2,2c0.3,0.4,0.8,0.6,1.3,0.6c0.2,0,0.4,0,0.6-0.1l0.8,0.9c0.1,0.2,0.3,0.2,0.5,0.2
	c0.2,0,0.3-0.1,0.4-0.2c0.3-0.2,0.3-0.7,0.1-1L20,14.9l3.8-3.4l2,6.8v10.7c0,1,0.6,1.9,1.6,2.1c1.3,0.3,2.4-0.7,2.4-2V18
	C29.9,17.8,29.9,17.6,29.8,17.5z"/>
<path id="XMLID_4_" class="st1" d="M14.6,27.3c-0.2,0-0.4,0-0.6,0v-0.5c0.1,0,0.2,0.1,0.3,0.1c0.4,0.1,1,0.2,1.1,0.1
	c0-0.1-0.3-0.3-0.7-0.4c0.1,0,0.1,0,0.2-0.1c0.7-0.3,1.6-0.9,1.5-1.1c-0.1-0.2-0.9,0-1.5,0.3c0,0,0.1-0.1,0.1-0.1
	c0.5-0.9,1.1-2.3,0.9-2.5c-0.2-0.1-0.9,0.7-1.4,1.5c0-1.3-0.3-3-0.6-3s-0.5,1.7-0.6,3c-0.5-0.8-1.2-1.7-1.4-1.5
	c-0.2,0.1,0.3,1.5,0.9,2.5c0,0.1,0.1,0.1,0.1,0.1c-0.7-0.3-1.5-0.5-1.5-0.3c-0.1,0.2,0.8,0.8,1.5,1.1c0.1,0,0.1,0.1,0.2,0.1
	c-0.4,0.1-0.7,0.3-0.7,0.4c0,0.1,0.6,0,1.1-0.1c0.1,0,0.2-0.1,0.3-0.1v0.6c-1,0.1-1.8,0.5-2.4,1c-0.8-0.9-2.3-1.4-4.1-1.4
	c-0.1,0-0.3,0-0.3,0v-0.9c0.1,0.1,0.2,0.1,0.4,0.2c0.6,0.2,1.3,0.3,1.3,0.1c0-0.1-0.4-0.3-0.9-0.5c0.1,0,0.2-0.1,0.2-0.1
	c0.9-0.4,2-1.1,1.9-1.4c-0.1-0.2-1.1,0.1-2,0.4c0-0.1,0.1-0.1,0.1-0.2c0.7-1.2,1.4-3,1.1-3.1c-0.2-0.1-1.1,0.9-1.8,2
	c0-1.7-0.3-3.8-0.7-3.8c-0.4,0-0.7,2.1-0.7,3.8c-0.7-1.1-1.5-2.1-1.8-2c-0.3,0.2,0.4,1.9,1.1,3.1c0,0.1,0.1,0.1,0.1,0.2
	c-0.9-0.4-1.9-0.6-2-0.4c-0.1,0.2,1,1,1.9,1.4c0.1,0,0.2,0.1,0.2,0.1c-0.5,0.2-0.9,0.4-0.9,0.5c0,0.1,0.8,0,1.4-0.1
	c0.2-0.1,0.3-0.1,0.4-0.2V27c-2.2,0.3-3.9,1.6-3.9,2.8c0,1.4,16.4,1.4,16.4,0C18.7,28.4,16.8,27.3,14.6,27.3z"/>
</svg>
