<svg xmlns="http://www.w3.org/2000/svg" id="Layer_1" viewBox="-2 4 24 24"><style>.st0{fill:#009999;}</style><path d="M9 15.6v-3h1.2c1 0 1.2.3 1.8 1l2 2H9zm-1-3H5.8c-.7 0-1 .2-1.4.6L3 14.9c1.6.6 4 .7 5 .7v-3zm14 5.2c0-2.8-2-3.4-2.8-3.6l-3-.8-2.4-2.4c-.8-.8-1.5-1.4-3.3-1.4H3c-.6 0-1 .5-.4 1-.5.4-2 1.6-2.3 2C-1 14.1-2 15.1-2 17.3c0 2.5 1.4 4.3 3.2 4.3.4 1.2 1.5 2 2.8 2s2.4-.8 2.8-2h6.4c.4 1.2 1.5 2 2.8 2 1.3 0 2.4-.8 2.8-2 2 0 3.2-1.5 3.2-3.8zm-18 4c-.7 0-1.2-.5-1.2-1.2s.5-1.2 1.2-1.2 1.2.5 1.2 1.2-.5 1.2-1.2 1.2zm12 0c-.7 0-1.2-.5-1.2-1.2s.5-1.2 1.2-1.2 1.2.5 1.2 1.2-.5 1.2-1.2 1.2zm2.8-2.2c-.4-1.2-1.5-2-2.8-2s-2.4 1-2.8 2H6.8c-.4-1-1.5-2-2.8-2s-2.4 1-2.8 2c-.6 0-1.2-1-1.2-2.3s.5-2 1.7-3.2l2.3-2c.3-.4.8-.5 1.2-.5h5.2c1.2 0 1.6.4 2 1 .5.3 2.8 2.6 2.8 2.6l3.5 1c.8 0 1.4.4 1.4 1.6s-.2 1.8-1 1.8h-.3z" class="st0"/></svg>