<?xml version="1.0" encoding="utf-8"?>
<!-- Generator: Adobe Illustrator 19.0.0, SVG Export Plug-In . SVG Version: 6.00 Build 0)  -->
<svg version="1.1" id="Layer_1" xmlns="http://www.w3.org/2000/svg" xmlns:xlink="http://www.w3.org/1999/xlink" x="0px" y="0px"
	 viewBox="0 2 30 30" style="enable-background:new 0 2 30 30;" xml:space="preserve">
<style type="text/css">
	.st0{fill:none;stroke:#009999;stroke-miterlimit:10;}
	.st1{fill:#009999;}
	.st2{fill:#FFFFFF;}
	.st3{fill:none;stroke:#009999;stroke-width:0.7;stroke-miterlimit:10;}
	.st4{fill:#008080;}
</style>
<path id="XMLID_1_" class="st0" d="M1.8,13l12.2-9.3c0.3-0.2,0.4-0.2,0.7,0L27.3,13c0.3,0.2,0.2,0.8-0.2,0.8h-25
	C1.8,13.8,1.5,13.3,1.8,13L1.8,13z"/>
<path id="XMLID_2_" class="st1" d="M4.7,15.3h2.4v11.4H4.7V15.3z"/>
<path id="XMLID_3_" class="st1" d="M3.5,14.7h5.2v0.8H3.5V14.7z"/>
<path id="XMLID_5_" class="st1" d="M13.4,15.3h2.4v11.4h-2.4V15.3z"/>
<path id="XMLID_4_" class="st1" d="M11.9,14.7h5.3v0.8h-5.5L11.9,14.7z"/>
<path id="XMLID_7_" class="st1" d="M21.8,15.3h2.6v11.4h-2.6V15.3z"/>
<path id="XMLID_6_" class="st1" d="M20.6,14.7h5.1v0.8h-5.1V14.7z"/>
<ellipse id="XMLID_8_" class="st2" cx="14.4" cy="9.3" rx="3.1" ry="2.9"/>
<path id="XMLID_9_" class="st3" d="M3.9,28h21.2v1.1H3.9V28z"/>
<path id="XMLID_10_" class="st3" d="M2.2,30.6h25.2V32H2L2.2,30.6z"/>
<path class="st4" d="M15.3,7.9h0.9l0.5-0.6h-3.9l-0.3,0.6h1.1c0.5,0,0.9,0.1,1.1,0.4h-1.9l-0.3,0.6H15c0,0.4-0.5,0.8-1.3,0.8h-1.1
	v0.6c0.6,0,0.3-0.1,1.7,1.8h1.1L14,10.2c0.6-0.1,1.6-0.4,1.7-1.4h0.6l0.3-0.6h-1.1C15.6,8.2,15.4,8,15.3,7.9z"/>
</svg>
