<?xml version="1.0" encoding="utf-8"?>
<!-- Generator: Adobe Illustrator 19.0.0, SVG Export Plug-In . SVG Version: 6.00 Build 0)  -->
<svg version="1.1" id="Layer_1" xmlns="http://www.w3.org/2000/svg" xmlns:xlink="http://www.w3.org/1999/xlink" x="0px" y="0px"
	 viewBox="0 2 30 30" style="enable-background:new 0 2 30 30;" xml:space="preserve">
<style type="text/css">
	.st0{fill:#009999;}
	.st1{fill:#F2F9F9;}
	.st2{fill:#008080;}
</style>
<path id="XMLID_1_" class="st0" d="M2,12.3l12.2-9c0.3-0.2,0.4-0.2,0.7,0l12.7,9c0.3,0.2,0.2,0.8-0.2,0.8h-25
	C2.1,13.1,1.8,12.6,2,12.3L2,12.3z"/>
<path id="XMLID_2_" class="st0" d="M4.9,14.6h2.4v11.1H4.9V14.6z"/>
<path id="XMLID_3_" class="st0" d="M3.7,14h5.2v0.8H3.7V14z"/>
<path id="XMLID_5_" class="st0" d="M13.6,14.6H16v11.1h-2.4V14.6z"/>
<path id="XMLID_4_" class="st0" d="M12.2,14h5.3v0.8H12L12.2,14z"/>
<path id="XMLID_7_" class="st0" d="M22,14.6h2.6v11.1H22V14.6z"/>
<path id="XMLID_6_" class="st0" d="M20.9,14H26v0.8h-5.1V14z"/>
<ellipse id="XMLID_8_" class="st1" cx="14.6" cy="8" rx="2.5" ry="2.1"/>
<path id="XMLID_9_" class="st0" d="M4.2,26.9h21.2V28H4.2V26.9z"/>
<path id="XMLID_10_" class="st0" d="M2.4,29.4h25.2v1.4H2.3C2.3,30.8,2.4,29.4,2.4,29.4z"/>
<path class="st2" d="M15.1,6.9h0.6L16,6.5h-2.5l-0.2,0.4H14c0.3,0,0.6,0.1,0.7,0.3h-1.2l-0.2,0.4h1.6c0,0.3-0.3,0.6-0.8,0.6h-0.7
	v0.4c0.4,0,0.2-0.1,1.1,1.3h0.7l-0.9-1.3c0.4-0.1,1-0.3,1.1-1h0.4L16,7.2h-0.7C15.3,7.1,15.2,7,15.1,6.9z"/>
</svg>
