<?xml version="1.0" encoding="utf-8"?>
<!-- Generator: Adobe Illustrator 19.0.0, SVG Export Plug-In . SVG Version: 6.00 Build 0)  -->
<svg version="1.1" id="Layer_1" xmlns="http://www.w3.org/2000/svg" xmlns:xlink="http://www.w3.org/1999/xlink" x="0px" y="0px"
	 viewBox="0 2 30 30" style="enable-background:new 0 2 30 30;" xml:space="preserve">
<style type="text/css">
	.st0{fill:none;stroke:#009999;stroke-miterlimit:10;}
	.st1{fill:#009999;}
	.st2{fill:#FFFFFF;}
	.st3{fill:none;stroke:#009999;stroke-width:0.7;stroke-miterlimit:10;}
	.st4{fill:#008080;}
</style>
<path id="XMLID_1_" class="st0" d="M2.2,11.9l12.2-9.3c0.3-0.2,0.4-0.2,0.7,0l12.6,9.3c0.3,0.2,0.2,0.8-0.2,0.8h-25
	C2.2,12.7,1.9,12.2,2.2,11.9L2.2,11.9z"/>
<path id="XMLID_2_" class="st1" d="M5.1,14.2h2.4v11.4H5.1V14.2z"/>
<path id="XMLID_3_" class="st1" d="M3.9,13.6h5.2v0.8H3.9V13.6z"/>
<path id="XMLID_5_" class="st1" d="M13.8,14.2h2.4v11.4h-2.4V14.2z"/>
<path id="XMLID_4_" class="st1" d="M12.3,13.6h5.3v0.8h-5.5L12.3,13.6z"/>
<path id="XMLID_7_" class="st1" d="M22.2,14.2h2.6v11.4h-2.6V14.2z"/>
<path id="XMLID_6_" class="st1" d="M21,13.6h5.1v0.8H21V13.6z"/>
<ellipse id="XMLID_8_" class="st2" cx="14.8" cy="8.2" rx="3.1" ry="2.9"/>
<path id="XMLID_9_" class="st3" d="M4.3,26.9h21.2V28H4.3V26.9z"/>
<path id="XMLID_10_" class="st3" d="M2.6,29.5h25.2v1.4H2.4L2.6,29.5z"/>
<path class="st4" d="M15.7,6.8h0.9l0.5-0.6h-3.9l-0.3,0.6H14c0.5,0,0.9,0.1,1.1,0.4h-1.9l-0.3,0.6h2.5c0,0.4-0.5,0.8-1.3,0.8H13v0.6
	c0.6,0,0.3-0.1,1.7,1.8h1.1l-1.4-1.9C15,9,16,8.7,16.1,7.7h0.6L17,7.1h-1.1C16,7.1,15.8,6.9,15.7,6.8z"/>
</svg>
