<?xml version="1.0" encoding="utf-8"?>
<!-- Generator: Adobe Illustrator 19.0.0, SVG Export Plug-In . SVG Version: 6.00 Build 0)  -->
<svg version="1.1" id="Layer_1" xmlns="http://www.w3.org/2000/svg" xmlns:xlink="http://www.w3.org/1999/xlink" x="0px" y="0px"
	 viewBox="1 -1 32 32" style="enable-background:new 1 -1 32 32;" xml:space="preserve">
<style type="text/css">
	.st0{fill:#009999;}
</style>
<g id="XMLID_2_">
	<path id="XMLID_8_" class="st0" d="M11.1,14h-0.4v-2.9c0-0.4-0.3-0.7-0.6-0.7V4.6c0-0.3,0-0.4-0.4-0.6L4.9,1.7H4.3L4,2.3v8.3
		c-0.4,0-0.6,0.3-0.6,0.6V14H3c-0.4,0-0.6,0-0.6,0.4v15.9c0,0.4,0.3,0.7,0.6,0.7h7.9c0.4,0,0.6-0.3,0.6-0.6V14.6
		c0-0.6-0.4-0.7-0.6-0.7L11.1,14z M5.3,3l3.4,1.7v5.5H5.3V3z M4.6,11.4h4.8V14H4.6v-2.5V11.4z M10.4,30H3.7V15h6.8V30z"/>
	<path id="XMLID_7_" class="st0" d="M32.4,23.9H12.6c-0.4,0-0.6,0.3-0.6,0.6s0.3,0.6,0.6,0.6h18.9v0.3c-0.9,1.4-2.6,2.6-4.3,2.6
		H12.7c-0.4,0-0.6,0.3-0.6,0.6c0,0.3,0.3,0.6,0.6,0.6H27c2.3,0,4.5-1.4,5.4-3.3l0.5-1v-0.6L32.4,23.9z"/>
	<path id="XMLID_6_" class="st0" d="M11.2,3.5c2.3-2.2,5.1-3.3,8.3-3.3c6.9,0,12.4,5.5,12.4,12.3c0,3.5-1.7,6.9-4.5,9.4
		c-0.3,0.3-0.3,0.6,0,0.9c0,0.3,0,0.4,0.4,0.4h0.4c3.1-2.9,4.8-6.5,4.8-10.6C33,5.1,27-1,19.5-1c-3.4,0-6.6,1.4-9.2,3.6
		c-0.3,0.4-0.3,0.7,0,1c0.4,0.3,0.8,0.3,1,0L11.2,3.5z"/>
	<path id="XMLID_5_" class="st0" d="M19.4,2.7c5.5,0,9.8,4.3,9.8,9.8s-4.3,9.8-9.7,9.8c-2.3,0-4.6-0.9-6.4-2.5h-0.9
		c-0.3,0.4-0.3,0.7,0,1c2,1.9,4.6,2.9,7.4,2.9c6.1,0,11.1-4.9,11.1-11S25.6,2,19.7,2c-3.3,0-6.6,1.7-8.7,4.3c-0.3,0.4,0,0.9,0,1h1
		C13.9,4.5,16.8,3,19.7,3L19.4,2.7z"/>
	<path id="XMLID_4_" class="st0" d="M26.2,7.7L15.1,18.8c-0.3,0.3-0.3,0.6,0,0.9h0.8L27,8.2c0.3-0.3,0.3-0.6,0-0.9h-0.8V7.7z"/>
	<path id="XMLID_3_" class="st0" d="M18.5,19c-0.3,0.3-0.3,0.6,0,0.9h0.8l8.3-8.4c0.3-0.3,0.3-0.6,0-0.9c-0.3-0.3-0.6-0.3-0.9,0
		L18.3,19H18.5z"/>
</g>
</svg>
