<?xml version="1.0" encoding="utf-8"?>
<!-- Generator: Adobe Illustrator 19.0.0, SVG Export Plug-In . SVG Version: 6.00 Build 0)  -->
<svg version="1.1" id="Layer_1" xmlns="http://www.w3.org/2000/svg" xmlns:xlink="http://www.w3.org/1999/xlink" x="0px" y="0px"
	 viewBox="1 -1 32 32" style="enable-background:new 1 -1 32 32;" xml:space="preserve">
<style type="text/css">
	.st0{fill:#009999;}
</style>
<g id="XMLID_2_">
	<g id="XMLID_3_">
		<path id="XMLID_7_" class="st0" d="M33.3,18.9v-0.2H33l-0.6-0.5l-7.6-3.9c-0.3,0-0.6-0.6-0.6-0.8V1.7c0-0.3,0-0.6-0.5-0.8
			c-0.3,0-0.6-0.2-0.9,0L8.3,4.3H7.2L6.3,4C6,4,6,3.7,6.3,3.6l12.1-2.9c0.6,0,0.9-0.6,0.6-1.1C18.7-1,18.3-1,17.8-0.9L2.4,2.8H2.1V3
			H1.8v15.2H1.5v0.2H1.2v4.9c0,0.2,0,0.5,0.5,0.6l11.8,7.1h0.8l18.2-7.7c0.5,0,0.6-0.5,0.6-0.7v-3.7v-0.3L33.3,18.9z M8.7,6.2
			C8.7,6,9,5.8,9.3,5.7l12.1-2.9c0.5,0,0.8,0,0.8,0.3v9.2c0,0.3-0.3,0.3-0.6,0.2l-1.1-0.5h-0.9L9,15.8c0,0-0.5,0-0.5-0.3V6.2H8.7z
			 M19.3,13.9h1.5l9.1,4.9v0.6l-14.8,6.1h-0.9l-9.5-5.7c-0.3-0.2-0.3-0.5,0-0.6l14.8-5.3L19.3,13.9z M3.9,5.3C3.9,5,4.3,4.9,4.6,5
			l1.5,0.5c0.5,0,0.8,0.5,0.8,0.8v1.5c-1.2,0-2.3-0.6-3-1.1V5.4V5.3z M3.6,7.4c0.9,0.5,2,0.8,3,0.8v4.9c-1.1,0-2.1-0.7-3-1.1V7.4z
			 M3.6,12.7c0.9,0.5,2,0.8,3,0.8V16c0,0.3,0,0.6-0.5,0.7l-1.5,0.7c-0.5,0-0.8,0-0.8-0.3v-4.2L3.6,12.7z M31.3,21.8
			c0,0.2-0.3,0.6-0.6,0.7L14,29.6h-0.9l-9.5-6.2c-0.5,0-0.8-0.5-0.8-0.7v-1.6c0-0.2,0.3-0.2,0.6,0l10,6h1.1l15.9-6.5
			c0.3,0,0.6,0,0.6,0.2v0.9L31.3,21.8z"/>
		<path id="XMLID_4_" class="st0" d="M23.3,20.5h0.3l3.8-1.6v-0.2v-0.2l-7.1-3.9h-0.3l-4.2,1.1v0.6C15.7,16.2,23.3,20.5,23.3,20.5z
			 M20.2,15.1l6.7,3.4l-3,1.5l-7.1-3.8C16.8,16.2,20.2,15.1,20.2,15.1z"/>
	</g>
</g>
</svg>
