<?xml version="1.0" encoding="utf-8"?>
<!-- Generator: Adobe Illustrator 19.0.0, SVG Export Plug-In . SVG Version: 6.00 Build 0)  -->
<svg version="1.1" id="Layer_1" xmlns="http://www.w3.org/2000/svg" xmlns:xlink="http://www.w3.org/1999/xlink" x="0px" y="0px"
	 viewBox="-2 4 24 24" style="enable-background:new -2 4 24 24;" xml:space="preserve">
<style type="text/css">
	.st0{fill:#009999;}
</style>
<path class="st0" d="M12.4,11.4l1.5-1.4l1.5,1.4l-1.5,1.4L12.4,11.4z M15.5,28H22V15h-6.5V28z M14.8,9.2l1.5,1.4l1.5-1.4l-1.5-1.4
	L14.8,9.2z M15.5,5.2l5.2,4.8L22,4C22,4,15.5,5.2,15.5,5.2z M6.7,28h6.5v-9H6.7V28z M-2,28h6.5v-6H-2V28z M12.9,13.7l-1.5-1.4
	L10,13.7l-3.3-3L-2,18.5l1.5,1.5l7-6.5l3.3,3l3.3-2.8H12.9z"/>
</svg>
