<svg xmlns="http://www.w3.org/2000/svg" id="Layer_1" viewBox="0 0 32 32"><style>.st0{fill:#008080;}</style><path id="XMLID_11_" d="M13.7 25.6v-7.3l6.2 3.6-6.2 3.7zM31 6.6l-1.3-5.3L3.6 6.4C2.3 6.6 1.3 7.7 1.3 9v17.7c0 2 1.7 3.6 3.7 3.6h22.2c2 0 3.7-1.6 3.7-3.6v-17H15.3L31 6.6zm-4.8-3.2l3 1.9-3.7.7-3-2c0 .1 3.7-.6 3.7-.6zm-7.3 1.4l3 2-3.7.7-3-2 3.7-.7zm-7.3 1.4l3 2-3.7.7-3-2 3.7-.7zm3.1 4.8l-2.5 2.4H8.5L11 11h3.7zm11.1 0h3.8l-2.5 2.4h-3.8l2.5-2.4zm-7.4 0h3.8l-2.5 2.4h-3.8l2.5-2.4zm10.1 4.8v10.6c0 .8-.7 1.5-1.5 1.5H5.4c-.9 0-1.5-.7-1.5-1.5V15.8h24.6z" class="st0"/></svg>