<?xml version="1.0" encoding="utf-8"?>
<!-- Generator: Adobe Illustrator 19.0.0, SVG Export Plug-In . SVG Version: 6.00 Build 0)  -->
<svg version="1.1" id="Layer_1" xmlns="http://www.w3.org/2000/svg" xmlns:xlink="http://www.w3.org/1999/xlink" x="0px" y="0px"
	 viewBox="0 0 32 32" style="enable-background:new 0 0 32 32;" xml:space="preserve">
<style type="text/css">
	.st0{fill:#008080;}
</style>
<g id="XMLID_2_">
	<g id="XMLID_3_">
		<path id="XMLID_4_" class="st0" d="M31.1,30.8c0,0-0.3-2.9-1.1-6.5c-1.4-6-3.2-9.7-4.6-11.8v-1.8L26.9,4c0-0.1,0-0.1,0-0.2l0,0
			l-0.5-2.5c0-0.2-0.2-0.4-0.5-0.4h-1.6c-0.3,0-0.5,0.2-0.5,0.5v2.4c-0.7,0.3-1.5,0.8-2.1,1.7c0,0,0,0,0,0c0,0,0,0,0,0
			c-0.6-0.9-1.4-1.4-2.1-1.7V1.4c0-0.3-0.2-0.5-0.5-0.5h-1.6c-0.2,0-0.4,0.2-0.5,0.4l-0.5,2.5l0,0c0,0.1,0,0.1,0,0.2l1.5,6.5l0,1.8
			c-1.3,2.1-3.2,5.8-4.6,11.8c-0.8,3.7-1.1,6.5-1.1,6.5c0,0.1,0,0.3,0.1,0.4c0.1,0.1,0.2,0.2,0.4,0.2h17.6c0.1,0,0.3-0.1,0.4-0.2
			C31,31,31.1,30.9,31.1,30.8z M24.8,1.9h0.7l0.3,1.6c-0.3,0-0.6,0-1,0.1L24.8,1.9L24.8,1.9z M18,1.9h0.7v1.7
			c-0.4-0.1-0.7-0.1-1-0.1L18,1.9z M17.7,4.4c0.8,0,2.2,0.3,3.2,1.7c0.2,0.3,0.5,0.4,0.8,0.4s0.6-0.2,0.8-0.4c1-1.4,2.5-1.7,3.2-1.7
			L24.5,10h-5.4L17.7,4.4z M24.4,11v1.1h-5.2V11H24.4z M13.5,30.3c0.3-2.2,1.6-11.2,5.4-17.3h0.7l-0.9,6c0,0.3,0.1,0.5,0.4,0.5
			c0,0,0,0,0.1,0c0.2,0,0.4-0.2,0.5-0.4l1-6.2h0.7v9.7c0,0.3,0.2,0.5,0.5,0.5c0.3,0,0.5-0.2,0.5-0.5V13h0.7l1,6.2
			c0,0.2,0.2,0.4,0.5,0.4c0,0,0,0,0.1,0c0.3,0,0.4-0.3,0.4-0.5l-0.9-6h0.7c3.9,6.1,5.1,15.1,5.4,17.3L13.5,30.3L13.5,30.3z"/>
	</g>
</g>
<g id="XMLID_11_">
	<g id="XMLID_12_">
		<path id="XMLID_13_" class="st0" d="M14.8,9.9C14.7,9.9,14.7,9.9,14.8,9.9l-0.5-0.3c-0.3-0.2-0.6-0.3-0.9-0.3
			c-0.3,0-0.6,0.2-0.8,0.4c0,0,0,0,0,0c-0.9,1.2-2.8,3.3-4.8,4l-0.2-0.2c-0.1-0.1-0.2-0.2-0.3-0.1L3.7,14C3.3,14.1,3,14.4,3,14.8
			c0,0.8-0.2,2.5-1.7,4.6c-0.3,0.4-0.2,0.9,0.2,1.2l2.3,1.8c0,0.1,0,0.1,0,0.2c0,0.2,0.1,0.3,0.2,0.4l1.5,1.2
			c0.3,0.2,0.6,0.2,0.8-0.1l2.8-3.6c0.2-0.2,0.1-0.6-0.1-0.8L9,19.6c0.2-0.2,0.5-0.4,0.7-0.6c1.4-1.2,2.7-2.4,4-4.1
			c1.4-1.8,2.1-3.3,2.3-3.8c0.1-0.2,0-0.5-0.2-0.7l-0.5-0.4C15.1,9.9,14.9,9.9,14.8,9.9z M8.2,14.3c0.9-0.4,2.7-1.3,4.9-4.1
			c0,0,0.1-0.1,0.1-0.1c0,0,0,0,0,0c0.1-0.1,0.2-0.2,0.4-0.2c0.2,0,0.3,0,0.5,0.1l0.4,0.3c-0.3,0.7-0.9,1.9-2.1,3.4
			c-1.3,1.6-2.6,2.8-4,4c-0.4,0.4-0.8,0.7-1.2,1.1C7,18.7,7,18.4,7,18.1c0-0.9,0.5-1.8,1.2-2.5c0.3-0.3,0.3-0.7,0.1-1L8.2,14.3z
			 M1.8,19.7c1.6-2.2,1.8-4,1.8-4.9c0-0.1,0.1-0.2,0.2-0.3l0.4-0.1l0.1,0.6c0,0.2,0.2,0.3,0.3,0.3c0.1,0,0.1,0,0.2-0.1
			c0-0.1,0.1-0.1,0.1-0.2l-0.1-0.7l0.5-0.1l0.1,0.6c0,0.2,0.2,0.3,0.3,0.3c0.1,0,0.1,0,0.2-0.1c0-0.1,0.1-0.1,0.1-0.2l-0.1-0.7
			l0.5-0.1l0.1,0.6c0,0.2,0.2,0.3,0.3,0.3c0.1,0,0.1,0,0.2-0.1s0.1-0.1,0.1-0.2l-0.1-0.6L7.3,14l0.5,0.8c0.1,0.1,0.1,0.3,0,0.4
			c-1.1,1.1-1.4,2.2-1.4,2.9c0,0.6,0.1,1,0.2,1.2c-0.3,0.3-0.6,0.6-0.9,0.9c-1.1-0.8-2.6-0.7-3.5,0.2l-0.3-0.2
			C1.7,20.1,1.7,19.9,1.8,19.7z M5.3,20.6c-0.4,0.4-0.8,0.8-1.2,1.3l-1.5-1.2C3.3,20.1,4.4,20.1,5.3,20.6z M15.4,10.8L15.4,10.8
			C15.4,10.8,15.4,10.9,15.4,10.8c-0.2,0.5-0.8,2-2.2,3.7c-1.3,1.6-2.6,2.8-4,4c-0.3,0.3-0.6,0.5-0.9,0.8c0,0,0,0,0,0
			c0,0-0.1,0.1-0.1,0.2c0,0.1,0,0.2,0.1,0.2l0.4,0.3c0,0,0,0,0,0l-2.8,3.6c0,0,0,0,0,0l-1.5-1.2c0,0,0,0,0,0c0,0,0,0,0,0
			c1.5-1.8,2.9-3.1,4.3-4.3c1.4-1.2,2.7-2.4,4-4.1c1.3-1.6,2-3,2.3-3.7c0,0,0,0,0,0c0,0,0,0,0,0L15.4,10.8z"/>
	</g>
</g>
</svg>
