<svg xmlns="http://www.w3.org/2000/svg" id="Layer_1" viewBox="-3 4 25 25"><style>.st0{fill:none;stroke:#008080;stroke-width:0.5;stroke-miterlimit:10;} .st1{fill:#008080;}</style><path id="XMLID_7_" d="M7.9 7l.7.7s.7.2 1.1.2c.4 0 1.3.2 1.6.9s.9 4.6.9 4.9-.9.9-1.8.7l-.2-.2s0 .5-.2.9c-.2.2-.7 1.2-.4 1.8 0 .7 0 3 .2 3.7.2.9.7 4.6.7 5.3 0 .2-.2.7-.9.7-.4.2-3.6.5-4.9.2-1.3.2-3.1-.5-3.1-.5s.2-2.5.2-3c0-.7.4-1.6.4-2.3.2-.5.4-2.3.4-2.8s-.4-2.1-.7-2.5c0-.5-.2-1.4-.2-2.1v-.9l-.2.9s-1.6.2-2-.5c.2-1.4.7-3.7.9-4.2 0-.5.4-.7.9-1.2.4 0 .9 0 1.1-.2.4 0 .7 0 .9-.2.2-.2.4-.7.4-.7S4.6 8 4.8 8.4c.2.4.9.9 1.6.7s1.1-.7 1.3-.9c.2-.5.2-1.2.2-1.2z" class="st0"/><path id="XMLID_48_" d="M18.7 25v-.3s-.1-.1-.3-.1c-.2 0-.8-.1-.8-.1s.4-.3.6-.7c.2-.3.3-.6.3-.7 0-.1-.1-.3-.5-.3-.3 0-1 .2-1 .2l-.2-.2c.4-.3 1-.9 1.1-1.1.1-.2 0-.6-.2-.8-.2-.2-1-.1-1.4 0-.4.1-1.1.4-1.5.6-.1-.4.2-2.1.2-2.9 0-.8-.1-2.1-.6-2.8-.6-.8-1.3-.9-1.4-.8-.1 0-.1.3-.1.5s.1.8 0 1c0 .3-.4.7-.5 1-.2.3-1.6 1.8-1.6 1.8l.5.4s.6-.8.8-1c.2-.3 1-1 1.4-1.2.5-.3.7.2.8.5.1.3.2 1.2.2 1.6 0 .5-.1 1.7-.1 2.3 0 .6.4 1.1 1.1 2 .8.8 2.3 1.2 2.5 1.2h.6s.1.1.1-.1zm-3.1-1.7s-.7-.5-.8-1.2c.3-.2 1-.5 1.1-.6.1.3.1.8.4 1.2-.3.4-.7.6-.7.6zm1.1-.8c-.2-.3-.3-.7-.3-1.1.2 0 .8-.2 1-.1.2.1.3.3.1.5-.2.3-.8.7-.8.7zm-.7 1.2l-.1-.1.6-.5s0 .1.1.2c-.2 0-.6.4-.6.4zm1.3.7s-.6-.2-.8-.4c0-.1.3-.4.6-.6.2-.1.4-.2.7-.2.2 0 .3.1.2.2-.1.3-.2.6-.7 1z" class="st1"/></svg>