<svg xmlns="http://www.w3.org/2000/svg" id="Layer_1" viewBox="0 0 40 40"><style>.st0{fill:#008080;}</style><g id="XMLID_2_"><g id="XMLID_3_"><path id="XMLID_8_" d="M8.7 21.9l-.2 6.6s6.1-2.4 11.5-2.3 11.4 2.9 11.4 2.9l.2-6.6s-5.7-3.3-11.5-3.5c-5.7-.2-11.4 2.9-11.4 2.9z" class="st0"/><path id="XMLID_4_" d="M38.1 21.2l2.3-1.2-2.2-1.4V18s.7-3.3-3-1.7c-.2.1-.3.2-.3.3L20.1 7.5 0 18.7l7.4 3.7v-1.1s6.4-3.5 12.8-3.3c6.4.2 12.8 3.9 12.8 3.9l-.1 2 4.2-2.2c-.1 2.6-.3 8.3-.3 9.3h-1.4l-.1 3.3 1.9-1.3 2 1.4.1-3.3h-1.5l.3-9.9zm-.9-3.8v.6l-1.2-.7c.4-.3 1.2-.7 1.2.1zm-.5 3.6c-.5 0-1-.5-.9-1 0-.6.5-1 1-1s1 .5.9 1c-.1.6-.5 1-1 1z" class="st0"/></g></g></svg>