<?xml version="1.0" encoding="utf-8"?>
<!-- Generator: Adobe Illustrator 19.0.0, SVG Export Plug-In . SVG Version: 6.00 Build 0)  -->
<svg version="1.1" id="Layer_1" xmlns="http://www.w3.org/2000/svg" xmlns:xlink="http://www.w3.org/1999/xlink" x="0px" y="0px"
	 viewBox="0 0 32 32" style="enable-background:new 0 0 32 32;" xml:space="preserve">
<style type="text/css">
	.st0{fill:#008080;}
</style>
<g id="XMLID_2_">
	<path id="XMLID_20_" class="st0" d="M16,29.2h-2.5v-1.6c0-0.3-0.2-0.5-0.5-0.5s-0.5,0.2-0.5,0.5v1.6H9.2v-1.6
		c0-0.3-0.2-0.5-0.5-0.5s-0.5,0.2-0.5,0.5v1.6H5.7c-0.3,0-0.5,0.2-0.5,0.5s0.2,0.5,0.5,0.5H16c0.3,0,0.5-0.2,0.5-0.5
		S16.3,29.2,16,29.2z"/>
	<path id="XMLID_19_" class="st0" d="M17.5,22.3H4.1c-0.3,0-0.5,0.2-0.5,0.5s0.2,0.5,0.5,0.5h13.4c0.3,0,0.5-0.2,0.5-0.5
		S17.7,22.3,17.5,22.3z"/>
	<path id="XMLID_16_" class="st0" d="M18.1,13.1H3.6c-1,0-1.7,0.8-1.7,1.9v9.2c0,1,0.8,1.9,1.7,1.9h14.5c1,0,1.7-0.8,1.7-1.9V15
		C19.8,14,19.1,13.1,18.1,13.1z M18.9,24.2c0,0.5-0.4,0.9-0.8,0.9H3.6c-0.4,0-0.8-0.4-0.8-0.9V15c0-0.5,0.4-0.9,0.8-0.9h14.5
		c0.4,0,0.8,0.4,0.8,0.9V24.2z"/>
	<path id="XMLID_13_" class="st0" d="M25.9,24.8c-0.8,0-1.4,0.7-1.4,1.5s0.6,1.5,1.4,1.5s1.4-0.7,1.4-1.5
		C27.4,25.5,26.7,24.8,25.9,24.8z M25.9,26.9c-0.3,0-0.5-0.2-0.5-0.5s0.2-0.5,0.5-0.5s0.5,0.2,0.5,0.5
		C26.4,26.6,26.2,26.9,25.9,26.9z"/>
	<path id="XMLID_12_" class="st0" d="M28.1,20.7c-0.3,0-0.5,0.2-0.5,0.5s0.2,0.5,0.5,0.5s0.5-0.2,0.5-0.5S28.4,20.7,28.1,20.7z"/>
	<path id="XMLID_8_" class="st0" d="M30,13.2h-0.8V11c0-0.3-0.2-0.5-0.5-0.5h-5.6c-0.3,0-0.5,0.2-0.5,0.5v0.5h-0.3V8.2
		c0-0.3-0.2-0.5-0.5-0.5s-0.5,0.2-0.5,0.5V12c0,0.3,0.2,0.5,0.5,0.5h0.8v0.7h-0.8c-0.3,0-0.5,0.2-0.5,0.5v16c0,0.3,0.2,0.5,0.5,0.5
		H30c0.3,0,0.5-0.2,0.5-0.5v-16C30.5,13.4,30.3,13.2,30,13.2z M23.6,11.5h4.7v1.7h-4.7C23.6,13.2,23.6,11.5,23.6,11.5z M29.5,29.2
		h-7.2v-15h7.2V29.2z"/>
	<path id="XMLID_7_" class="st0" d="M28.1,15.9h-4.3c-0.3,0-0.5,0.2-0.5,0.5s0.2,0.5,0.5,0.5h4.3c0.3,0,0.5-0.2,0.5-0.5
		S28.4,15.9,28.1,15.9z"/>
	<path id="XMLID_6_" class="st0" d="M28.1,18.6h-4.3c-0.3,0-0.5,0.2-0.5,0.5s0.2,0.5,0.5,0.5h4.3c0.3,0,0.5-0.2,0.5-0.5
		S28.4,18.6,28.1,18.6z"/>
	<path id="XMLID_5_" class="st0" d="M18.9,4.9c-0.2,0.2-0.2,0.5,0,0.7c0.1,0.1,0.2,0.2,0.3,0.2c0.1,0,0.2-0.1,0.3-0.2
		c0.6-0.7,1.5-1,2.3-1c0.9,0,1.7,0.4,2.3,1c0.2,0.2,0.5,0.2,0.7,0s0.2-0.5,0-0.7c-0.8-0.9-1.9-1.4-3-1.4C20.8,3.6,19.7,4.1,18.9,4.9
		z"/>
	<path id="XMLID_4_" class="st0" d="M18.2,4.2c2-2.2,5.3-2.2,7.3,0c0.1,0.1,0.2,0.2,0.3,0.2c0.1,0,0.2-0.1,0.3-0.2
		c0.2-0.2,0.2-0.5,0-0.7c-2.4-2.6-6.3-2.6-8.7,0c-0.2,0.2-0.2,0.5,0,0.7C17.7,4.4,18,4.4,18.2,4.2z"/>
	<path id="XMLID_3_" class="st0" d="M22.9,7.1c0.1,0.1,0.2,0.2,0.3,0.2c0.1,0,0.2-0.1,0.3-0.2c0.2-0.2,0.2-0.5,0-0.7
		c-0.9-1-2.4-1-3.3,0c-0.2,0.2-0.2,0.5,0,0.7s0.5,0.2,0.7,0c0.3-0.3,0.6-0.5,1-0.5S22.6,6.8,22.9,7.1z"/>
</g>
</svg>
