<?xml version="1.0" encoding="utf-8"?>
<!-- Generator: Adobe Illustrator 19.0.0, SVG Export Plug-In . SVG Version: 6.00 Build 0)  -->
<svg version="1.1" id="Layer_1" xmlns="http://www.w3.org/2000/svg" xmlns:xlink="http://www.w3.org/1999/xlink" x="0px" y="0px"
	 viewBox="0 0 32 32" style="enable-background:new 0 0 32 32;" xml:space="preserve">
<style type="text/css">
	.st0{fill:none;stroke:#009999;stroke-miterlimit:10;}
</style>
<g id="XMLID_2_">
	<g id="XMLID_3_">
		<path id="XMLID_13_" class="st0" d="M22.3,20.9v6.9c0,0.2,0.2,0.4,0.4,0.4S23,28,23,27.8v-6.9c0-0.2-0.2-0.4-0.4-0.4
			S22.3,20.7,22.3,20.9z"/>
		<path id="XMLID_12_" class="st0" d="M17.9,20.9v6.9c0,0.2,0.2,0.4,0.4,0.4s0.4-0.1,0.4-0.4v-6.9c0-0.2-0.2-0.4-0.4-0.4
			C18,20.6,17.9,20.7,17.9,20.9z"/>
		<path id="XMLID_11_" class="st0" d="M13.4,20.9v6.9c0,0.2,0.2,0.4,0.4,0.4s0.4-0.1,0.4-0.4v-6.9c0-0.2-0.2-0.4-0.4-0.4
			S13.4,20.7,13.4,20.9z"/>
		<path id="XMLID_10_" class="st0" d="M9.1,20.9v6.9c0,0.2,0.2,0.4,0.4,0.4s0.4-0.1,0.4-0.4v-6.9c0-0.2-0.2-0.4-0.4-0.4
			S9.1,20.7,9.1,20.9z"/>
		<path id="XMLID_4_" class="st0" d="M1,15v4.1h2.2L7,31.3H26L28.9,19H31v-4.1h-2.6l1.8-1.6c0.2-0.1,0.3-0.4,0.3-0.6
			c0-0.2-0.1-0.4-0.3-0.6L29,11c-0.2-0.1-0.4-0.2-0.6-0.2s-0.5,0.1-0.6,0.2l-2.3,1.9l-4.9-3.4l-5.2,5.1V7.6c0-0.1,0-0.2-1.6-4V3.4
			h0.1c0.3-0.1,0.5-0.4,0.5-0.7S14,2,13.6,2H9.2C8.8,2,8.4,2.4,8.4,2.7v0.1c0,0.2,0.2,0.6,0.5,0.6H9v0.1c-1.6,3.7-1.6,3.9-1.6,4v6.7
			l-3.3-2.9c-0.2-0.1-0.4-0.2-0.6-0.2S3.1,11.2,3,11.3l-1.2,1.1c-0.4,0.2-0.4,0.7-0.1,1.1L3.5,15H1z M7.5,30.6L4,19.1H28l-2.8,11.4
			H7.5V30.6z M30.3,18.4H1.8v-2.6h3.6l-3.3-2.9l1.3-1.2l4.6,4h15.8l4.6-4l1.3,1.2l-3.2,2.8h3.8C30.2,15.7,30.2,18.4,30.3,18.4z
			 M9.1,2.6h4.6v0.2h-0.9l0.2,0.5c1,2.4,1.7,4.1,1.7,4.3v7.3c0,0.1-0.1,0.1-0.2,0.1H8.4l-0.2-0.2V7.4c0-0.1,0.6-1.7,1.7-4.3l0.2-0.4
			L9.1,2.6C9.2,2.7,9.2,2.6,9.1,2.6z M23.3,15h-7l4.2-4.3l4.2,2.9C24.9,13.6,23.4,15,23.3,15z"/>
	</g>
</g>
</svg>
