<svg xmlns="http://www.w3.org/2000/svg" id="Layer_1" viewBox="1 -1 32 32"><style>.st0{fill:none;stroke:#009999;stroke-miterlimit:10;}</style><g id="XMLID_2_"><g id="XMLID_3_"><path id="XMLID_13_" d="M23.5 19.4v6.9c0 .2.2.4.4.4s.4-.1.4-.4v-6.9c0-.2-.2-.4-.4-.4s-.4.2-.4.4z" class="st0"/><path id="XMLID_12_" d="M19.1 19.4v6.9c0 .2.2.4.4.4s.4-.1.4-.4v-6.9c0-.2-.2-.4-.4-.4-.3.1-.4.2-.4.4z" class="st0"/><path id="XMLID_11_" d="M14.6 19.4v6.9c0 .2.2.4.4.4s.4-.1.4-.4v-6.9c0-.2-.2-.4-.4-.4s-.4.2-.4.4z" class="st0"/><path id="XMLID_10_" d="M10.3 19.4v6.9c0 .2.2.4.4.4s.4-.1.4-.4v-6.9c0-.2-.2-.4-.4-.4s-.4.2-.4.4z" class="st0"/><path id="XMLID_4_" d="M2.2 13.5v4.1h2.2l3.8 12.2h19.1l2.9-12.2h2.1v-4.1h-2.6l1.8-1.6c.2-.1.3-.4.3-.6 0-.2-.1-.4-.3-.6l-1.2-1.1c-.2-.1-.4-.2-.6-.2-.2 0-.5.1-.6.2l-2.3 1.9-4.9-3.4-5.2 5.1V6.1c0-.1 0-.2-1.6-4v-.2h.1c.3-.1.5-.4.5-.7s-.4-.7-.8-.7h-4.4c-.4 0-.8.4-.8.7v.1c0 .2.2.6.5.6h.1V2C8.7 5.7 8.7 5.9 8.7 6v6.7L5.4 9.8c-.2-.1-.4-.2-.6-.2-.2 0-.5.1-.6.2L3 10.9c-.4.2-.4.7-.1 1.1l1.8 1.5H2.2zm6.5 15.6L5.2 17.6h24.1L26.5 29H8.7zm22.8-12.2H3v-2.6h3.6l-3.3-2.9 1.3-1.2 4.6 4H25l4.6-4 1.3 1.2-3.2 2.8h3.8v2.7zM10.4 1.1H15v.2h-.9l.2.5c1 2.4 1.7 4.1 1.7 4.3v7.3c0 .1-.1.1-.2.1H9.6l-.2-.2V5.9c0-.1.6-1.7 1.7-4.3l.2-.4h-.9v-.1zm14.2 12.4h-7l4.2-4.3 4.2 2.9c.1 0-1.4 1.4-1.4 1.4z" class="st0"/></g></g></svg>