<svg xmlns="http://www.w3.org/2000/svg" id="Layer_1" viewBox="0 0 32 32">
  <style>
    .st0{fill:#008080;}
  </style>
  <g id="XMLID_15_">
    <g id="XMLID_16_">
      <path id="XMLID_17_" d="M27.5 2.6c-.2-.2-.5-.2-.7 0l-5.5 6c-.2.2-.2.6 0 .8l.4.2s.3 0 .4-.2l5.6-6v-.8z" class="st0"/>
    </g>
  </g>
  <g id="XMLID_12_">
    <g id="XMLID_13_">
      <path id="XMLID_14_" d="M29 4.3c-.3-.2-.6-.2-.8 0l-5.5 6c-.2.2-.2.6 0 .8 0 .2.2.3.4.3s.4 0 .5-.2L29 5c.2 0 .2-.5 0-.7z" class="st0"/>
    </g>
  </g>
  <g id="XMLID_7_">
    <g id="XMLID_8_">
      <path id="XMLID_9_" d="M23.8 14.4L30.6 7c.2-.2.2-.6 0-.8-.2-.2-.5-.2-.7 0l-7 7.5c-.7 1-2 1.2-3 .6h-.7l-2.3 3L7 29.5c-.8.8-1.8.8-2.5 0-.3-.3-.5-.7-.5-1.2s.2-1 .5-1.3l6.3-6c.2-.3.2-.7 0-1-.2 0-.5-.2-.7 0l-6 6c0 .2 0 .2-.2.3-.5.5-.8 1.3-.8 2 0 1 .3 1.7.8 2.2.5.6 1.2 1 2 1 .6 0 1.3-.4 1.8-1v-.2l7.7-9.4 7.6 9.3v.2c.5.6 1.2 1 2 1 .6 0 1.3-.4 1.8-1 1-1.2 1-3 0-4.3l-.2-.2-8.7-8.5 1.6-2c1.6.5 3.2 0 4.2-1zM26 27h.2c.7.8.7 2 0 2.7-.7.7-1.7.7-2.4 0L16 20l1.4-1.6L26 27z" class="st0"/>
    </g>
  </g>
  <g id="XMLID_2_">
    <g id="XMLID_3_">
      <path id="XMLID_4_" d="M26 1c-.3-.2-.6-.2-.8 0l-6.8 7.5c-1 1.2-1.4 3-1 4.4l-2 2-2-2c1-2.3.7-5-1-7C10.8 4.4 9 3 7 2.6c-1.8-.5-3.4 0-4.4 1s-1.4 3-1 5c.6 2 1.7 4 3.3 6 1.5 1.7 4 2 6 1l2 2.5.5.2h.3l4.7-4.7c.2-.2.2-.5 0-.7-.4-1.2-.2-2.6.6-3.5l7-7.5V1zM13.4 16.8l-2-2.4c0-.2-.4-.3-.6 0-1.8 1-4 .8-5.3-.8-1.5-1.7-2.5-3.5-3-5.3-.4-1.7-.2-3 .6-4 .8-.8 2-1 3.5-.6C8.4 4 10 5.3 11.6 7c1.4 1.5 1.7 4 .6 5.8v.7l2.3 2.2-1 1z" class="st0"/>
    </g>
  </g>
</svg>
