<?xml version="1.0" encoding="utf-8"?>
<!-- Generator: Adobe Illustrator 19.0.0, SVG Export Plug-In . SVG Version: 6.00 Build 0)  -->
<svg version="1.1" id="Layer_1" xmlns="http://www.w3.org/2000/svg" xmlns:xlink="http://www.w3.org/1999/xlink" x="0px" y="0px"
	 viewBox="1 -1 32 32" style="enable-background:new 1 -1 32 32;" xml:space="preserve">
<style type="text/css">
	.st0{fill:#009999;}
</style>
<g id="XMLID_2_">
	<g id="XMLID_11_">
		<path id="XMLID_12_" class="st0" d="M23.8,4.5H2.3C1.6,4.5,1.1,5,1.1,5.7v14c0,0.3,0.1,0.6,0.2,0.7c0.2,0.4,0.6,0.7,1.2,0.7h7.7
			v1.9H8.7c-0.4,0-0.6,0.3-0.6,0.7s0.2,0.7,0.6,0.7h8.7c0.4,0,0.6-0.7,0.6-0.7s-0.2-0.7-0.6-0.7h-1.5v-1.9h7.7c0.5,0,1-0.3,1.2-0.7
			c0.1-0.3,0.2-0.4,0.2-0.7v-14C25.1,5,24.5,4.6,23.8,4.5z M19.6,19.9H2.4c-0.1,0-0.1,0-0.1-0.1v-14h21.5v14c0,0.1,0,0.1-0.1,0.1
			H19.6"/>
		<path id="XMLID_3_" class="st0" d="M25.8,12.4L26,22.8c0,0.8,0.6,1.4,1.4,1.4h4.2c0.7,0,1.4-0.7,1.4-1.4l-0.1-10.4
			c0-0.8-0.6-1.4-1.4-1.4h-4.2C26.5,11,25.8,11.7,25.8,12.4z M26.3,12.4c0-0.6,0.4-1,0.9-1h4.2c0.5,0,0.9,0.4,0.9,1l0.1,10.4
			c0,0.6-0.4,1-0.9,1h-4.2c-0.5,0-0.9-0.4-0.9-1C26.5,22.8,26.3,12.4,26.3,12.4z M26.7,12.5l0.1,9.2c0,0,0,0.1,0.1,0.1h5.2
			c0.1,0,0.1,0,0.1-0.1l-0.1-9.2c0,0,0-0.1-0.1-0.1L26.7,12.5C26.7,12.4,26.7,12.4,26.7,12.5z M26.8,12.7h5l0.1,8.9h-5
			C27,21.6,26.8,12.7,26.8,12.7z M28.8,22.7c0,0.4,0.4,0.7,0.7,0.7s0.7-0.3,0.6-0.7S29.8,22,29.4,22S28.8,22.4,28.8,22.7z
			 M28.9,22.7c0-0.3,0.2-0.6,0.5-0.6s0.5,0.3,0.5,0.4c0,0.3-0.2,0.6-0.5,0.6C29.2,23.2,28.9,23,28.9,22.7z M29.9,12h-1.2
			c0,0-0.1,0-0.1-0.1c0,0,0-0.1,0.1-0.1h1.2C30.1,11.8,30.1,11.8,29.9,12C30.1,12,30.1,12,29.9,12z"/>
	</g>
</g>
</svg>
