<svg id="Layer_1" xmlns="http://www.w3.org/2000/svg" viewBox="0 0 24 32">
  <style>
    .st0{fill:#008080;}
  </style>
  <path id="XMLID_767_" class="st0" d="M22.3 16s0-.2-.2-.2c-1-.6-2.2-.5-3 .3-1.2 1-1.5 2-1.4 2.7-2.3 1.4-4 3.6-5 6.2v-6.3c.6 0 1-.2 1.7-.4 2.7-1 4.3-3.7 4-6.7L18 9.4v-1c-.3-2-.4-2.4 1-4.2.2 0 .2-.3 0-.5 0-.2 0-.2-.3-.2L17 4h-.2c0-1.3-.7-2.3-1.8-2.7h-.3c-.2.2-.2.5-.2.5 0 1-1 2-2 2-1.2-.4-2.3-1-3-1.7-1-.5-1.5-1-2-.6-.4.2-.5 1-.4 2.4-.2 0-.5 0-.8-.2-.4 0-.8 0-1 .2-.2.3 0 .6.2 1 .4.5 1.2 1.7 1 4L6 11.4c0 2 .6 4 2 5.4 1 .8 2.6 1.4 3.7 1.6v3.7c-.5-1.3-1.5-2.3-2.7-3-1.7-1-4-1.3-6.2-1-.2 0-.3.3-.3.5s0 .4.2.4c4.7 2.2 8.2 6.4 9 11 0 .2.3.3.5.3s.3-.2.3-.4v-.7c0-4 2-7.8 5.3-10 .3.5.7.7 1.3.7.6 0 1.2-.2 2-.7 1-.7 1.4-2 1.3-3.2zM17.8 4.6c-1 1.4-1 2-.7 4l.2 1 .2 2.2c.3 2.6-1 5-3.5 5.8-.8.3-1.4.4-1.8.4 2.3-1.6 4-4 4.3-6.7 0 0 0-.3-.2-.3 0 0-.3 0-.3.2-.4 2.7-2 5-4.5 6.4-.4-.2-.7-.6-1-1.2-.3-.8-.5-1.8-.6-2.7.6-2.6 2.5-5 5-6v-.2s-.2-.2-.3 0c-1.3.5-2.5 1.4-3.5 2.6-.5.8-1 1.5-1.3 2.3.2-3.5 3-6.8 6.6-7.5l1.2-.3zM15 2.3c.7.4 1 1 1 1.7l-.7.2h-1.5c.6-.4 1-1 1.3-2zM8 2c0 .2.6.5 1 .8.8.6 2 1.4 3.3 2 .5 0 1 0 1.4.2-1 .5-1.7 1.3-2.3 2L11 8l-.2-.5c-.2-1.7-1.2-3-3-3.3V2zm-1 9.6l.3-2.8c.2-2.2-.4-3.6-1-4.3.7 0 1.3.3 1.4.3C9 5 9.7 6 10 7.5l.2 1.5c-.6 1.3-1 2.6-1 4 0 1 .2 2.6.8 3.8l.2.4c-.6-.3-1.2-.6-1.6-1-1.2-1-1.8-2.8-1.6-4.6zM4.3 19c3.4 0 7 1.6 7.5 5.8v.6c-.6-1.7-1.5-3.4-3.4-4.6H8c0 .2 0 .4.2.5 2.3 1.5 3 3.8 3.6 6v.3C10.5 24 7.8 21 4.3 19zm16.2-.4c-1 .8-1.8.7-2 .2-.4-.5-.2-1.4.8-2 .2-.3.5-.4.7-.5 0 .6-.2 1-.5 1.7v.4h.4l.5-2h1.2c0 1-.5 1.7-1.2 2.2z"/>
</svg>
