<svg xmlns="http://www.w3.org/2000/svg" id="Layer_1" viewBox="0 0 32 32"><style>.st0{fill:#008080;}</style><path id="XMLID_767_" d="M24.9 16.2s0-.2-.2-.2c-.9-.7-2-.6-2.8.3-1.1 1.1-1.4 2.2-1.3 3-2.1 1.5-3.7 4-4.7 6.9v-7c.6 0 .9-.2 1.6-.4 2.5-1.1 4-4.1 3.7-7.4L20.8 9V7.8c-.3-2.2-.4-2.7.9-4.6.2 0 .2-.3 0-.6 0-.2 0-.2-.3-.2l-1.4.5h-.2c0-1.4-.7-2.5-1.7-3h-.3c-.2.2-.2.6-.2.6 0 1.1-.9 2.2-1.9 2.2-1.1-.4-2.1-1.1-2.8-1.9C12 .2 11.5-.3 11 .1c-.4.2-.5 1.1-.4 2.7-.2 0-.5 0-.7-.2-.4 0-.7 0-.9.2-.2.3 0 .7.2 1.1.4.6 1.1 1.9.9 4.4l-.5 2.8c0 2.2.6 4.4 1.9 6 .9.9 2.4 1.5 3.4 1.8V23c-.5-1.4-1.4-2.5-2.5-3.3-1.6-1.1-3.7-1.4-5.8-1.1-.2 0-.3.3-.3.6 0 .2 0 .4.2.4 4.4 2.4 7.6 7.1 8.4 12.2 0 .2.3.3.5.3s.3-.2.3-.4v-.8c0-4.4 1.9-8.6 4.9-11.1.3.6.7.8 1.2.8.6 0 1.1-.2 1.9-.8 1.1-.8 1.4-2.3 1.2-3.6zM20.8 3.6c-.9 1.5-.9 2.2-.7 4.4l.2 1.1.2 2.4c.3 2.9-.9 5.5-3.3 6.4-.7.3-1.3.4-1.7.4 2.1-1.8 3.7-4.4 4-7.4 0 0 0-.3-.2-.3 0 0-.3 0-.3.2-.4 3-1.9 5.5-4.2 7.1-.4-.2-.7-.7-.9-1.3-.3-.9-.5-2-.6-3C14 10.8 15.7 8.1 18 7v-.2s-.2-.2-.3 0c-1.2.6-2.3 1.5-3.3 2.9-.5.9-.9 1.7-1.2 2.5.2-3.9 2.8-7.5 6.1-8.3l1.1-.3h.4zm-2.7-2.5c.7.4.9 1.1.9 1.9l-.7.2H17c.6-.4.9-1.1 1.2-2.2l-.1.1zM11.6.7c0 .2.6.6.9.9.7.7 1.9 1.5 3.1 2.2.5 0 .9 0 1.3.2-.9.6-1.6 1.4-2.1 2.2l-.4 1.1-.2-.6c-.2-1.9-1.1-3.3-2.8-3.6V.7h.2zm-.9 10.6l.3-3.1c.2-2.4-.4-4-.9-4.8.7 0 1.2.3 1.3.3 1.2.2 1.9 1.3 2.1 3l.2 1.7c-.6 1.4-.9 2.9-.9 4.4 0 1.1.2 2.9.7 4.2l.2.4c-.6-.3-1.1-.7-1.5-1.1-1.1-1-1.7-3-1.5-5zm-2.5 8.2c3.2 0 6.5 1.8 7 6.4v.7c-.6-1.9-1.4-3.8-3.2-5.1h-.4c0 .2 0 .4.2.6 2.1 1.7 2.8 4.2 3.4 6.6v.3c-1.2-4-3.8-7.3-7-9.5zm15.1-.4c-.9.9-1.7.8-1.9.2-.4-.6-.2-1.5.7-2.2.2-.3.5-.4.7-.6 0 .7-.2 1.1-.5 1.9v.4h.4l.5-2.2h1.1c0 1.1-.5 1.9-1 2.5z" class="st0"/></svg>