<svg xmlns="http://www.w3.org/2000/svg" id="Layer_1" viewBox="0 0 32 32"><style>.st0{fill:none;stroke:#009999;stroke-width:0.5;stroke-miterlimit:10;}</style><g id="XMLID_2_"><g id="XMLID_3_"><path id="XMLID_7_" d="M28.3 29.7v-9.3V1.2h-.5s-4 2-4 16c0 .2.2.3.3.3 2.7.8 1.7 3.4 1.4 4v8.2c0 .7.7 1.3 1.5 1.2.7 0 1.3-.6 1.3-1.3z" class="st0"/><path id="XMLID_6_" d="M21.5 1.7h-.8l.2 7.6-.4.2H20s-.2 0-.2-.2V1.7H19v7.6s0 .2-.2.2h-.3s-.3 0-.3-.2V1.7h-.8v7.6s0 .2-.3.2h-.4s-.3 0-.3-.2l.3-7.6H16l-1 6.6v.3c0 1 .5 2 1.4 2.5 2.8 3 1 5.7 1 6.3v12.2c0 .7.5 1.3 1.3 1.3s1.4-.6 1.4-1.3v-12c0-1-1.5-4 1.2-6.5.7-.5 1-1.3 1-2v-.3l-.7-7z" class="st0"/><path id="XMLID_4_" d="M8.7 1c-3.2 0-5 2.7-5 5.5s2 5 3.7 5.4c1 1.2.4 3.8-.3 5.4V30c0 .7.8 1.3 1.6 1.3h.2c.8 0 1.5-.5 1.5-1.2V17.5C9.7 15.7 9 13 10 12c1.7-.6 3.6-2.6 3.6-5.5 0-2.8-1.8-5.4-5-5.5z" class="st0"/></g></g></svg>