<?xml version="1.0" encoding="utf-8"?>
<!-- Generator: Adobe Illustrator 19.0.0, SVG Export Plug-In . SVG Version: 6.00 Build 0)  -->
<svg version="1.1" id="Layer_1" xmlns="http://www.w3.org/2000/svg" xmlns:xlink="http://www.w3.org/1999/xlink" x="0px" y="0px"
	 viewBox="0 0 32 32" style="enable-background:new 0 0 32 32;" xml:space="preserve">
<style type="text/css">
	.st0{fill:#008080;stroke:#008080;stroke-width:0.6;stroke-miterlimit:10;}
</style>
<g id="XMLID_8_">
	<g id="XMLID_9_">
		<path id="XMLID_10_" class="st0" d="M7.4,7.5c-3.3,0-6,3.1-6,6.9c0,3.7,2.5,6.7,5.6,6.9v10.1c0,0.2,0.1,0.4,0.3,0.4
			c0.2,0,0.3-0.2,0.3-0.4V21.3c3.1-0.2,5.6-3.2,5.6-6.9C13.4,10.6,10.7,7.5,7.4,7.5z M7.7,20.5v-1.9l2.5-2.9c0.1-0.2,0.1-0.4,0-0.6
			c-0.1-0.2-0.3-0.2-0.5,0l-2,2.3v-4.2c0-0.2-0.1-0.4-0.3-0.4S7,13,7,13.3v4.2l-2-2.3c-0.1-0.2-0.3-0.2-0.5,0
			c-0.1,0.2-0.1,0.4,0,0.6L7,18.5v1.9c-2.8-0.2-5-2.9-5-6.1C2,11,4.4,8.2,7.3,8.2s5.3,2.7,5.3,6.1C12.7,17.7,10.5,20.3,7.7,20.5z"/>
	</g>
</g>
<g id="XMLID_2_">
	<g id="XMLID_3_">
		<path id="XMLID_4_" class="st0" d="M21.8,1c-4.2,0-7.6,3.9-7.6,8.7c0,2,0.6,3.9,1.7,5.4c-1.9,0.4-3.3,2.4-3.3,4.7
			c0,2.5,1.7,4.6,3.8,4.8v6.7c0,0.2,0.1,0.4,0.3,0.4s0.3-0.2,0.3-0.4v-6.7c2.1-0.2,3.8-2.3,3.8-4.8c0-0.6-0.1-1.1-0.2-1.6
			c0.3,0,0.6,0.1,0.8,0.1v13c0,0.2,0.1,0.4,0.3,0.4c0.2,0,0.3-0.2,0.3-0.4v-13c4-0.2,7.2-4,7.2-8.7C29.4,4.9,26,1,21.8,1z
			 M17.1,23.8v-1.1l1.7-1.9c0.1-0.2,0.1-0.4,0-0.6s-0.3-0.2-0.5,0l-1.2,1.3V19c0-0.2-0.1-0.4-0.3-0.4c-0.2,0-0.3,0.2-0.3,0.4v2.5
			l-1.2-1.3c-0.1-0.2-0.3-0.2-0.5,0c-0.1,0.2-0.1,0.4,0,0.6l1.7,1.9v1.1c-1.8-0.2-3.1-1.9-3.1-4c-0.1-2.2,1.4-4,3.3-4h0.1
			c1.9,0,3.5,1.8,3.5,4C20.2,21.9,18.8,23.7,17.1,23.8z M22.2,17.6v-2.7l3.2-3.7c0.1-0.2,0.1-0.4,0-0.6c-0.1-0.2-0.3-0.2-0.5,0
			l-2.8,3.2V8.2c0-0.2-0.1-0.4-0.3-0.4c-0.2,0-0.3,0.2-0.3,0.4v5.6l-2.8-3.2c-0.1-0.2-0.3-0.2-0.5,0c-0.1,0.2-0.1,0.4,0,0.6l3.2,3.7
			v2.7c-0.4,0-0.8-0.1-1.2-0.2c-0.7-1.4-2-2.3-3.5-2.3c-1.2-1.5-1.8-3.4-1.8-5.3c0-4.4,3.1-7.9,6.9-7.9s6.9,3.6,6.9,7.9
			C28.7,13.9,25.8,17.4,22.2,17.6z"/>
	</g>
</g>
</svg>
