<svg xmlns="http://www.w3.org/2000/svg" id="Layer_1" viewBox="0 0 32 32"><style>.st0{fill:#008080;}</style><g id="XMLID_8_"><g id="XMLID_9_"><path id="XMLID_10_" d="M7.4 7.5c-3.3 0-6 3.1-6 6.9 0 3.7 2.5 6.7 5.6 6.9v10.1c0 .2.1.4.3.4.2 0 .3-.2.3-.4V21.3c3.1-.2 5.6-3.2 5.6-6.9.2-3.8-2.5-6.9-5.8-6.9zm.3 13v-1.9l2.5-2.9c.1-.2.1-.4 0-.6-.1-.2-.3-.2-.5 0l-2 2.3v-4.2c0-.2-.1-.4-.3-.4s-.4.2-.4.5v4.2l-2-2.3c-.1-.2-.3-.2-.5 0-.1.2-.1.4 0 .6L7 18.5v1.9c-2.8-.2-5-2.9-5-6.1C2 11 4.4 8.2 7.3 8.2s5.3 2.7 5.3 6.1c.1 3.4-2.1 6-4.9 6.2z" class="st0"/></g></g><g id="XMLID_2_"><g id="XMLID_3_"><path id="XMLID_4_" d="M21.8 1c-4.2 0-7.6 3.9-7.6 8.7 0 2 .6 3.9 1.7 5.4-1.9.4-3.3 2.4-3.3 4.7 0 2.5 1.7 4.6 3.8 4.8v6.7c0 .2.1.4.3.4s.3-.2.3-.4v-6.7c2.1-.2 3.8-2.3 3.8-4.8 0-.6-.1-1.1-.2-1.6.3 0 .6.1.8.1v13c0 .2.1.4.3.4.2 0 .3-.2.3-.4v-13c4-.2 7.2-4 7.2-8.7C29.4 4.9 26 1 21.8 1zm-4.7 22.8v-1.1l1.7-1.9c.1-.2.1-.4 0-.6-.1-.2-.3-.2-.5 0l-1.2 1.3V19c0-.2-.1-.4-.3-.4-.2 0-.3.2-.3.4v2.5l-1.2-1.3c-.1-.2-.3-.2-.5 0-.1.2-.1.4 0 .6l1.7 1.9v1.1c-1.8-.2-3.1-1.9-3.1-4-.1-2.2 1.4-4 3.3-4h.1c1.9 0 3.5 1.8 3.5 4-.1 2.1-1.5 3.9-3.2 4zm5.1-6.2v-2.7l3.2-3.7c.1-.2.1-.4 0-.6-.1-.2-.3-.2-.5 0l-2.8 3.2V8.2c0-.2-.1-.4-.3-.4-.2 0-.3.2-.3.4v5.6l-2.8-3.2c-.1-.2-.3-.2-.5 0-.1.2-.1.4 0 .6l3.2 3.7v2.7c-.4 0-.8-.1-1.2-.2-.7-1.4-2-2.3-3.5-2.3-1.2-1.5-1.8-3.4-1.8-5.3 0-4.4 3.1-7.9 6.9-7.9s6.9 3.6 6.9 7.9c0 4.1-2.9 7.6-6.5 7.8z" class="st0"/></g></g></svg>