<svg xmlns="http://www.w3.org/2000/svg" viewBox="0 0 32 32"><style>.st0{fill:none;stroke:#008080;stroke-width:0.8;stroke-miterlimit:10;}</style><g id="Layer_1"><g id="XMLID_1_"><path id="XMLID_2_" d="M13.5 12v-1.5L14.8 4h2.4l1.3 6.5V12c0 1.4-1.2 2.7-2.5 2.7s-2.5-1.3-2.5-2.7zm6.3 0c0 1.4 1.2 2.7 2.5 2.7s2.5-1.1 2.5-2.5v-1.5L21.1 4h-2.5l1.2 6.5V12zm-12.6.1c0 1.4 1.2 2.6 2.5 2.6s2.5-1.2 2.5-2.6v-1.5L13.4 4h-2.5l-3.8 6.6v1.5zM2.1 16h27.8v16H2.1V16zm2.5 10.7h22.8v-8H4.6v8zm1.3-14.6v-1.5L9.5 4H7L.8 10.6v1.5c0 1.4 1.2 2.6 2.5 2.6s2.6-1.2 2.6-2.6zM25 4h-2.5l3.6 6.5V12c0 1.4 1.2 2.7 2.5 2.7s2.5-1.2 2.5-2.6v-1.5C31.2 10.6 25 4 25 4zm-.2-4H7.2v2.7h17.7V0z" class="st0"/></g></g></svg>