<?xml version="1.0" encoding="utf-8"?>
<!-- Generator: Adobe Illustrator 19.0.0, SVG Export Plug-In . SVG Version: 6.00 Build 0)  -->
<svg version="1.1" id="Layer_1" xmlns="http://www.w3.org/2000/svg" xmlns:xlink="http://www.w3.org/1999/xlink" x="0px" y="0px"
	 viewBox="0 0 32 32" style="enable-background:new 0 0 32 32;" xml:space="preserve">
<style type="text/css">
	.st0{fill:#009999;}
</style>
<g id="XMLID_2_">
	<path id="XMLID_3_" class="st0" d="M14.9,13.7h1.9v3.9h3.7v2h-3.7v3.9h-1.9v-3.9h-3.7v-2h3.7V13.7z M15.8,10.3
		c4.4,0,7.9,3.8,7.9,8.4s-3.5,8.4-7.9,8.4s-7.9-3.8-7.9-8.4S11.4,10.3,15.8,10.3z M15.8,25.7c3.6,0,6.7-3.2,6.7-7.1s-3-7.1-6.7-7.1
		c-3.6,0-6.7,3.2-6.7,7.1C9.1,22.6,12.1,25.7,15.8,25.7z M1.9,7.2h1.5V6.3h3.7v0.9h3.3V4.7c0-1.1,0.8-1.9,1.8-1.9h6.9
		c1,0,1.8,0.8,1.8,1.9v2.6h3.3V6.2H28v1.1h1.5c1,0,1.9,0.9,1.9,2v18.9c0,1.1-0.8,2-1.9,2H1.9c-1,0-1.9-0.9-1.9-2V9.2
		C0,8.2,0.9,7.2,1.9,7.2z M18.5,5.5h-5.6v1.8h5.6V5.5z M1.9,28.8h27.7c0.3,0,0.7-0.4,0.7-0.7V9.1c0-0.4-0.2-0.7-0.7-0.7H1.9
		c-0.3,0-0.7,0.4-0.7,0.7v18.9C1.2,28.5,1.6,28.8,1.9,28.8z"/>
</g>
</svg>
