<svg xmlns="http://www.w3.org/2000/svg" id="Layer_1" viewBox="0 0 32 32"><style>.st0{fill:#009999;}</style><g id="XMLID_2_"><g id="XMLID_3_"><path id="XMLID_4_" d="M25.5 14c-.5-.7-1-.8-1.3-1h-1c-1.6-3.8-5.3-6.3-9.6-6.3-4 0-7.8 2.6-9.3 6.4-.4 0-1 0-1.3.2-.3 0-1 .2-1.3.8 0 0-1 1-.7 2.5C1 18 2.2 18.7 3 19h1c.2 0 .5 1-.2 5v.5C4.3 26 5 26.7 6 26.8v2c0 .4.3.6.5.6.3 0 .5-.2.5-.6v-2h13.3v2c0 .4.3.6.5.6.3 0 .5-.2.5-.6v-2c1 0 1.7-1 2-2.4V24c-.6-4-.3-4.8-.2-5h1.2c.8-.3 1.8-1.2 2-2.6.2-1.4-.5-2.4-.7-2.5zm-12-6c4 0 7.4 2.2 8.6 5.5l-.4.4c-.5.3-1 .8-1.2 1.4l-.7 1.5c-.4 1.3-.5 3-.5 4H8c0-1 0-2.7-.5-4 0-.6-.4-1-.7-1.6L5.6 14c0-.2-.3-.2-.3-.3C6.6 10.2 10 8 13.6 8zm11.6 8c0 1-.7 1.3-1 1.5h-.6-.8c-1 .5-1 2.4-.4 6.3-.4 1.2-.8 1.2-1 1.4H5.8c-.4 0-1 0-1.2-1.4.7-4 .5-5.8-.4-6.3H3c-.3 0-1-.6-1-1.4-.2-.6.3-1.3.3-1.3.3-.4.7-.4.8-.5h1c.3 0 .4.2.8.5.4.2.7.7 1 1l.5 1.3c.4 1.5.5 3.3.5 4.2 0 .4.3.6.5.6h12.2c.3 0 .5-.2.5-.6 0-1 0-2.8.5-4.2 0-.4.3-.7.5-1 .3-.6.5-1 1-1.2.2-.2.4-.5.8-.5h1c.2 0 .4 0 .7.5.2 0 .8.6.6 1.3z" class="st0"/></g></g><path id="XMLID_8_" d="M30.3 8.7l-.5-7c0-.6-.3-.8-.5-.8h-4c-.4 0-.6.3-.6.6l-.5 7v.5c0 .2 0 .2.3.2H27v16h-1c-.5 0-.8.3-1 1v1.4h4.6v-1.4c-.2-.7-.5-1-1-1h-1V9h1.2v5.3s-.3.4-.3.7c0 .5.3 1 .5 1s.5-.5.5-1c0-.2 0-.6-.3-.7V9.2h1.2v-.5zm-1.6 17.6v.6h-3.3v-.7c0-.2.2-.4.4-.4h2.5c.3 0 .4 0 .4.3zM25 1.8s0-.2 0 0h.7l-.3 6.6h-1l.6-6.6zm1 6.5l.2-6.6h.7v6.6h-1zm1.4-6.7h.6l.3 6.6h-1V1.6zm1.4 6.7l-.3-6.6h.7l.5 6.6h-1z" class="st0"/><path id="XMLID_1_" d="M28.8 16.3c-.4 0-.8-.4-.8-.7V15c0-.4.4-.7.8-.7s.8.4.8.7v.6c0 .4-.4.7-.8.7z" class="st0"/></svg>