<svg xmlns="http://www.w3.org/2000/svg" id="Layer_1" viewBox="240 -240 512 512">
  <style>
    .st0{fill:#008080;}
  </style>
  <path d="M403.5 136h-52.4c-4.8 0-8.7 3.8-8.7 8.5v51c0 4.7 3.9 8.5 8.7 8.5h52.4c4.8 0 8.7-3.8 8.7-8.5v-51c0-4.7-3.9-8.5-8.7-8.5zm-8.7 51h-34.9v-34h34.9v34zM595.5 119h52.4c4.8 0 8.7-3.8 8.7-8.5v-51c0-4.7-3.9-8.5-8.7-8.5h-52.4c-4.8 0-8.7 3.8-8.7 8.5v51c0 4.7 3.9 8.5 8.7 8.5zm8.8-51h34.9v34h-34.9V68zM595.5 34h52.4c4.8 0 8.7-3.8 8.7-8.5v-51c0-4.7-3.9-8.5-8.7-8.5h-52.4c-4.8 0-8.7 3.8-8.7 8.5v51c0 4.7 3.9 8.5 8.7 8.5zm8.8-51h34.9v34h-34.9v-34zM595.5 204h52.4c4.8 0 8.7-3.8 8.7-8.5v-51c0-4.7-3.9-8.5-8.7-8.5h-52.4c-4.8 0-8.7 3.8-8.7 8.5v51c0 4.7 3.9 8.5 8.7 8.5zm8.8-51h34.9v34h-34.9v-34z" class="st0"/>
  <path d="M700.3-51c4.8 0 8.7-3.8 8.7-8.5v-34c0-4.7-3.9-8.5-8.7-8.5h-43.6v-25.5c0-4.7-3.9-8.5-8.7-8.5H351.1c-4.8 0-8.7 3.8-8.7 8.5v25.5h-43.6c-4.8 0-8.7 3.8-8.7 8.5v34c0 4.7 3.9 8.5 8.7 8.5h8.7v272h-8.7c-4.8 0-8.7 3.8-8.7 8.5v34c0 4.7 3.9 8.5 8.7 8.5h401.5c4.8 0 8.7-3.8 8.7-8.5v-34c0-4.7-3.9-8.5-8.7-8.5h-8.7V-51h8.7zm-340.5-68h279.3v17H359.8v-17zm331.7 374h-384v-17h384.1l-.1 17zM525.7 136h-52.4c-4.8 0-8.7 3.8-8.7 8.5V221H324.9V-51h349.2v272H534.4v-76.5c0-4.7-3.9-8.5-8.7-8.5zm-8.7 17v68h-35v-68h35zM307.5-68v-17h384.1v17H307.5z" class="st0"/>
  <path d="M534.4 59.5c0-4.7-3.9-8.5-8.7-8.5h-52.4c-4.8 0-8.7 3.8-8.7 8.5v51c0 4.7 3.9 8.5 8.7 8.5h52.4c4.8 0 8.7-3.8 8.7-8.5v-51zM517 102h-35V68h35v34zM473.3 34h52.4c4.8 0 8.7-3.8 8.7-8.5v-51c0-4.7-3.9-8.5-8.7-8.5h-52.4c-4.8 0-8.7 3.8-8.7 8.5v51c0 4.7 3.9 8.5 8.7 8.5zm8.7-51h35v34h-35v-34zM403.5-34h-52.4c-4.8 0-8.7 3.8-8.7 8.5v51c0 4.7 3.9 8.5 8.7 8.5h52.4c4.8 0 8.7-3.8 8.7-8.5v-51c0-4.7-3.9-8.5-8.7-8.5zm-8.7 51h-34.9v-34h34.9v34zM403.5 51h-52.4c-4.8 0-8.7 3.8-8.7 8.5v51c0 4.7 3.9 8.5 8.7 8.5h52.4c4.8 0 8.7-3.8 8.7-8.5v-51c0-4.7-3.9-8.5-8.7-8.5zm-8.7 51h-34.9V68h34.9v34z" class="st0"/>
  <path id="XMLID_18_" d="M533.5-235.9l8 31.9H568l-21.2 21.3 8 31.9-21.2-19.5-21.2 19.5 8-31.9-21.4-19.6h26.5l8-33.6z" class="st0"/>
  <path id="XMLID_16_" d="M605.2-235.9l8 31.9h26.5l-21.2 21.3 8 31.9-21.2-19.5-21.2 19.5 8-31.9-21.2-19.5h26.5c-.2-.1 7.8-33.7 7.8-33.7z" class="st0"/>
  <path id="XMLID_19_" d="M460.5-235.9l8 31.9H495l-22.6 21.3 8 31.9-21.2-19.5-19.9 19.5 8-31.9L426-204h26.5l8-31.9z" class="st0"/>
  <path id="XMLID_21_" d="M384.8-235.9l8 31.9h26.5l-21.2 21.3 8 31.9-21.2-19.5-21.2 19.5 8-31.9-21.4-21.3h26.5l8-31.9z" class="st0"/>
</svg>
