<?xml version="1.0" encoding="utf-8"?>
<!-- Generator: Adobe Illustrator 19.0.0, SVG Export Plug-In . SVG Version: 6.00 Build 0)  -->
<svg version="1.1" id="Layer_1" xmlns="http://www.w3.org/2000/svg" xmlns:xlink="http://www.w3.org/1999/xlink" x="0px" y="0px"
	 viewBox="240 -240 512 512" style="enable-background:new 240 -240 512 512;" xml:space="preserve">
<style type="text/css">
	.st0{fill:#008080;}
</style>
<g>
	<g>
		<path class="st0" d="M663.9-166.5h-20.1c0.3-1,0.5-2.2,0.5-3.4c0-3.6-1.6-7.2-4.8-7.2h-24.1v-58c0-3.5-4.1-5-8.3-5s-8.3,1.5-8.3,5
			v67.3c0,0.5,0.1,0.9,0.2,1.3h-7.9c0.3-1,0.5-2.2,0.5-3.3c0-3.9-1.8-7.3-5-7.3h-28.4v-18h15.9c3.5,0,5-3.4,5-6.2
			c0-3.4-1.8-6.5-5-6.5h-15.9v-17.9h28.4c3.2,0,5-3.4,5-7.3c0-3.4-1.5-7.1-5-7.1H549c-3.6,0-7.2,1.7-7.2,5.1v67.2
			c0,0.5,0.1,0.9,0.2,1.3h-26.5c0.1-0.4,0.2-0.8,0.2-1.3v-57.5h14.6c3.2,0,5-3.5,5-7.5c0-3.5-1.5-7.3-5-7.3h-45.7
			c-3.5,0-5,3.8-5,7.3c0,4,1.8,7.5,5,7.5h14.6v57.5c0,0.5,0.1,0.9,0.2,1.3h-33.5c5.6-3.9,9.1-10.4,9.1-20.5v-28
			c0-18.2-11.4-25-26-25c-14.6,0-25.9,6.8-25.9,25v28c0,10.1,3.5,16.7,9.1,20.5h-19.9c0.1-0.4,0.2-0.8,0.2-1.3V-235
			c0-3.5-4.1-5-8.3-5c-4.1,0-8.3,1.5-8.3,5v25.9H375V-235c0-3.5-4.1-5-8.3-5c-4.1,0-8.3,1.5-8.3,5v67.3c0,0.5,0.1,0.9,0.2,1.3h-30.5
			c-11.5,0-20.8,9.3-20.8,20.8v27.4c0,7.7,4.2,14.4,10.4,18v362c0,5.6,4.6,10.2,10.2,10.2h336c5.6,0,10.2-4.6,10.2-10.2v-362
			c6.2-3.6,10.4-10.3,10.4-18v-27.4C684.6-157.1,675.3-166.5,663.9-166.5z M439.6-215c0-7.3,3.5-10.6,9.4-10.6s9.5,3.3,9.5,10.6v28
			c0,7.3-3.6,10.6-9.5,10.6s-9.4-3.3-9.4-10.6V-215z M375-167.7v-28.7H396v28.7c0,0.5,0.1,0.9,0.2,1.3h-21.5
			C374.9-166.9,375-167.3,375-167.7z M534.7,251.6h-28.5v-24.3c0-5.6-4.6-10.2-10.2-10.2c-5.6,0-10.2,4.6-10.2,10.2v24.3h-28.5V173
			h77.5L534.7,251.6L534.7,251.6z M653.8,251.6h-98.6v-88.7c0-5.6-4.6-10.2-10.2-10.2H447c-5.6,0-10.2,4.6-10.2,10.2v88.7h-98.6
			v-349h315.6V251.6z M664.2-118.2c0,0.2-0.2,0.4-0.4,0.4H328.1c-0.2,0-0.4-0.2-0.4-0.4v-27.4c0-0.2,0.2-0.4,0.4-0.4h335.7
			c0.2,0,0.4,0.2,0.4,0.4V-118.2z"/>
	</g>
</g>
<g>
	<g>
		<path class="st0" d="M467.7-75h-84.4c-5.6,0-10.2,4.6-10.2,10.2V6.8c0,5.6,4.6,10.2,10.2,10.2h84.4c5.6,0,10.2-4.6,10.2-10.2
			v-71.5C477.9-70.4,473.4-75,467.7-75z M457.5-3.4h-63.9v-51.1h63.9V-3.4z"/>
	</g>
</g>
<g>
	<g>
		<path class="st0" d="M608.6-75h-84.4c-5.6,0-10.2,4.6-10.2,10.2V6.8c0,5.6,4.6,10.2,10.2,10.2h84.4c5.6,0,10.2-4.6,10.2-10.2
			v-71.5C618.8-70.4,614.3-75,608.6-75z M598.4-3.4h-63.9v-51.1h63.9V-3.4z"/>
	</g>
</g>
<g>
	<g>
		<path class="st0" d="M467.7,35.6h-84.4c-5.6,0-10.2,4.6-10.2,10.2v71.5c0,5.6,4.6,10.2,10.2,10.2h84.4c5.6,0,10.2-4.6,10.2-10.2
			V45.9C477.9,40.2,473.4,35.6,467.7,35.6z M457.5,107.1h-63.9V56.1h63.9V107.1z"/>
	</g>
</g>
<g>
	<g>
		<path class="st0" d="M608.6,35.6h-84.4c-5.6,0-10.2,4.6-10.2,10.2v71.5c0,5.6,4.6,10.2,10.2,10.2h84.4c5.6,0,10.2-4.6,10.2-10.2
			V45.9C618.8,40.2,614.3,35.6,608.6,35.6z M598.4,107.1h-63.9V56.1h63.9V107.1z"/>
	</g>
</g>
<g>
	<g>
		<path class="st0" d="M496,183.8c-5.6,0-10.2,4.6-10.2,10.2v3.1c0,5.6,4.6,10.2,10.2,10.2c5.6,0,10.2-4.6,10.2-10.2V194
			C506.2,188.4,501.6,183.8,496,183.8z"/>
	</g>
</g>
</svg>
