<?xml version="1.0" encoding="utf-8"?>
<!-- Generator: Adobe Illustrator 19.0.0, SVG Export Plug-In . SVG Version: 6.00 Build 0)  -->
<svg version="1.1" id="Layer_1" xmlns="http://www.w3.org/2000/svg" xmlns:xlink="http://www.w3.org/1999/xlink" x="0px" y="0px"
	 viewBox="0 0 32 32" style="enable-background:new 0 0 32 32;" xml:space="preserve">
<style type="text/css">
	.st0{fill:none;stroke:#008080;stroke-miterlimit:10;}
</style>
<g id="XMLID_2_">
	<path id="XMLID_3_" class="st0" d="M29.5,31.8h-2.2v-4.6H4.7v4.6H2.5v-17c0-0.7,0.5-1.2,1-1.2c0.7,0,1.2,0.6,1.2,1.2v10h25v7H29.5z
		 M7,23c-0.4,0-1-0.4-1-1s0.5-1,1-1h4.2v-3.4c0-0.6,0.4-1,1-1L28,18.2c0.8,0,1.6,0.8,1.6,1.7v3L7,23L7,23z M6,17.5
		c0-1.2,1-2.2,2-2.2s2,1,2,2.2s-1,2.2-2,2.2S6,18.7,6,17.5z M29.4,10.7L16,3.4L2.7,10.7L1.5,8L16,0l14.5,8l-1,2.7H29.4z"/>
</g>
</svg>
