<svg xmlns="http://www.w3.org/2000/svg" id="Layer_1" viewBox="0 0 32 32"><style>.st0{fill:#009999;}</style><g id="XMLID_2_"><g id="XMLID_3_"><g id="XMLID_4_"><path id="XMLID_12_" d="M13.3 7.8c1 1.7 2.6 1.7 2.9 1.7h1.4v10.2c0 .3.1.5.3.5.2 0 .3-.2.3-.5V6.4c0-.1.1-2.8-1.2-4.6C16 .2 14.6.1 14.1.1h-1.7c-.2 0-.3.2-.3.5v2.6c.1.1 0 2.8 1.2 4.6zm-.4-4.6V1h1.4c.2 0 1.5.1 2.4 1.4.9 1.5.9 3.9.9 3.9v1.4l-3.5-5.5c-.1-.2-.3-.2-.5 0-.1.2-.1.5 0 .8l3.5 5.5h-.9c-.2 0-1.5-.1-2.4-1.4-1-1.6-.9-3.8-.9-3.9z" class="st0"/><path id="XMLID_9_" d="M19 13.3v.2s0 .1.1.1c0 0 0 .1.1.1h1.9c.3 0 1.9-.1 2.9-1.7 1.2-1.8 1.2-4.5 1.2-4.6V4.8c0-.3-.1-.5-.3-.5H23c-.3 0-1.9.1-2.9 1.7C19 7.8 19 10.5 19 10.6v2.7zm1.6-6.5c.9-1.4 2.2-1.4 2.4-1.4h1.4v2.2s0 2.4-.9 3.9c-.9 1.3-2.2 1.3-2.4 1.3h-.9l3.5-5.5c.1-.2.1-.5 0-.8-.1-.2-.3-.2-.5 0L19.7 12v-1.4s-.1-2.2.9-3.8z" class="st0"/><path id="XMLID_8_" d="M24.1 21.4c-.3-.1-.7-.1-1 .2l-3.8 3c-.6.4-1.2.4-2.6.4-1.3 0-3.4-.5-3.4-.5-.2 0-.3.1-.3.4s.1.5.2.6c.1 0 2.1.5 3.5.5s2.1 0 2.9-.5l3.9-3c.1-.1.3-.2.5-.1s.3.2.5.5c.2.5.1 1.2-.2 1.5l-4.5 4.5s-.9 1-3.2 1c-2 0-4.9-2.6-4.9-2.6s-1-.3-2.4-.3c-.2 0-.3.2-.3.5s.1.5.3.5c1.3 0 1.9.4 1.9.4.1.1 3.1 2.7 5.2 2.7 2.4 0 3.5-1.1 3.6-1.2l4.5-4.4c.7-.5.8-1.9.5-2.9-.3-.6-.6-1-.9-1.2z" class="st0"/><path id="XMLID_7_" d="M6.4 28.6c0-.4-.2-.8-.5-.8s-.5.3-.5.8.2.8.5.8.5-.4.5-.8z" class="st0"/><path id="XMLID_6_" d="M7.1 17.1H5c-.2 0-.3.2-.3.5s.2.5.3.5h2.1c.2 0 .3.2.3.5v11.8c0 .3-.1.5-.3.5H5c-.2 0-.3.2-.3.5s.1.5.3.5h2.1c.6 0 1-.8 1-1.6V18.7c.1-.8-.4-1.6-1-1.6z" class="st0"/><path id="XMLID_5_" d="M9.1 20.4h2.7c.3 0 1 .8 1.6 1.5.7.9 1.4 1.7 2.1 1.7h2.1c.5 0 .8.3.8.3.1.1.1.1.2.1s.1 0 .2-.1c.1-.2.1-.5 0-.8 0-.1-.5-.6-1.3-.6h-2.1c-.3 0-1-.8-1.6-1.5-.7-.9-1.4-1.7-2.1-1.7H9.1c-.2 0-.3.2-.3.5.1.2.2.6.3.6z" class="st0"/></g></g></g></svg>