<svg xmlns="http://www.w3.org/2000/svg" id="Layer_1" viewBox="0 0 32 32"><style>.st0{fill:#009999;}</style><path id="XMLID_8_" d="M21.3 16.9c-.8 0-1.4.6-2 1.3v1.7c.6-.4 1.2-.7 2-.7 1.1 0 2 .5 2.8 1.4l.3-.6c-.7-1.3-1.7-3.1-3.1-3.1z" class="st0"/><path id="XMLID_26_" d="M21.8 0c-1.9-.1-3.7 1.1-5.1 3.3.3.7.4 1.5.4 2.2 1.2-2.2 2.8-3.5 4.6-3.4 3.3.2 5.7 5.4 5.4 11.5-.3 6.1-3.2 10.9-6.5 10.7-.8-.1-1.5-.4-2.1-.9.2.9.3 1.7.2 2.6.6.3 1.2.5 1.8.6 3.9.3 7.5-5.5 7.8-12.8S25.7.3 21.8 0z" class="st0"/><ellipse id="XMLID_20_" cx="15" cy="13" class="st0" rx="1" ry="1.8"/><ellipse id="XMLID_21_" cx="10.3" cy="13" class="st0" rx="1" ry="1.8"/><path id="XMLID_22_" d="M12.6 20.8c-1.6 0-2.7-.9-3.7-2.4l-.3.6c.8 2.1 2.1 4.4 4 4.4s3.3-2.3 4-4.4l-.3-.6c-1 1.5-2.1 2.4-3.7 2.4z" class="st0"/><path id="XMLID_27_" d="M12.6 1.3c-4.4 0-8 6.6-8 14.7s3.6 14.7 8.1 14.7 8.1-6.6 8.1-14.7-3.7-14.7-8.2-14.7zm6.5 17.5c-.7 5.4-3.4 9.5-6.5 9.5-3.7 0-6.7-5.5-6.7-12.3s3-12.3 6.7-12.3 6.7 5.5 6.7 12.3v1.2c0 .6-.1 1.1-.2 1.6z" class="st0"/><ellipse id="XMLID_2_" cx="19.5" cy="9.5" class="st0" rx="1" ry="1.8"/><path id="XMLID_1_" d="M25 9.8c0-1-.4-1.8-1-1.8s-1 .8-1 1.8.4 1.8 1 1.8 1-.8 1-1.8" class="st0"/></svg>