<?xml version="1.0" encoding="utf-8"?>
<!-- Generator: Adobe Illustrator 19.0.0, SVG Export Plug-In . SVG Version: 6.00 Build 0)  -->
<svg version="1.1" id="Layer_1" xmlns="http://www.w3.org/2000/svg" xmlns:xlink="http://www.w3.org/1999/xlink" x="0px" y="0px"
	 viewBox="0 0 32 32" style="enable-background:new 0 0 32 32;" xml:space="preserve">
<style type="text/css">
	.st0{fill:#008080;}
</style>
<g id="XMLID_25_">
	<g id="XMLID_26_">
		<path id="XMLID_27_" class="st0" d="M8.4,17.3c-1.1-1-5.3-1.4-6.6-1.4c-0.2,0-0.3,0.1-0.5,0.2c-0.1,0.1-0.2,0.3-0.2,0.5V28
			c0,0.4,0.3,0.6,0.6,0.6h3.7c0.3,0,0.5-0.2,0.6-0.4c0.1-0.3,2.2-7,2.5-10.3C8.6,17.7,8.5,17.5,8.4,17.3z M5,27.3H2.4V17.2
			c2,0.2,4.1,0.5,4.9,0.9C7,20.9,5.5,25.8,5,27.3z"/>
	</g>
</g>
<g id="XMLID_22_">
	<g id="XMLID_23_">
		<path id="XMLID_24_" class="st0" d="M30.8,25.1c-0.9-1.8-2.8-2.7-4.6-2.2l-4.7,1.2c-0.3,0.1-0.5,0.4-0.5,0.8
			c0.1,0.3,0.4,0.5,0.7,0.5l4.7-1.2c1.1-0.3,2.2,0.1,2.9,1L23.2,28c-5.2,2.2-5.4,2.1-7.6,1.3l-9.3-3.2C6,26,5.6,26.2,5.5,26.5
			c-0.1,0.3,0.1,0.7,0.4,0.8l9.3,3.2c1,0.4,1.8,0.6,2.6,0.6c1.3,0,2.7-0.6,6-1.9l6.8-3.2c0.2-0.1,0.3-0.2,0.3-0.4
			C30.9,25.5,30.9,25.3,30.8,25.1z"/>
	</g>
</g>
<g id="XMLID_19_">
	<g id="XMLID_20_">
		<path id="XMLID_21_" class="st0" d="M19.2,21L8.1,18.5c-0.3-0.1-0.7,0.1-0.7,0.5c-0.1,0.3,0.1,0.7,0.5,0.8l11.1,2.5
			c1.4,0.4,1.9,0.9,2,2.1l-1.2,0.3c-0.4,0.1-0.9,0.1-1.4,0L13,23.5c-0.3-0.1-0.7,0.2-0.7,0.5c-0.1,0.3,0.1,0.7,0.5,0.7l5.4,1.1
			c0.3,0.1,0.6,0.1,0.8,0.1c0.4,0,0.7,0,1-0.1l1.7-0.4c0.3-0.1,0.5-0.3,0.5-0.6v-0.2C22.2,22.6,21.3,21.5,19.2,21z"/>
	</g>
</g>
<g id="XMLID_16_">
	<g id="XMLID_17_">
		<path id="XMLID_18_" class="st0" d="M22.1,8.5c-0.1-0.1-0.3-0.2-0.5-0.2h-4.9c-0.2,0-0.4,0.1-0.5,0.2c-0.2,0.3-5.6,6.8-6.9,10.3
			c-0.1,0.3,0,0.7,0.4,0.8c0.3,0.1,0.7,0,0.8-0.4c1.1-3,5.6-8.6,6.5-9.7h4.4c2.1,2.7,7.1,9.5,7.1,12.1c0,0.6-0.1,1.2-0.2,1.8
			c-0.1,0.3,0.1,0.7,0.5,0.8c0,0,0.1,0,0.1,0c0.3,0,0.5-0.2,0.6-0.5c0.1-0.7,0.2-1.4,0.2-2.1C29.6,18,22.8,9.5,22.1,8.5z"/>
	</g>
</g>
<g id="XMLID_13_">
	<g id="XMLID_14_">
		<path id="XMLID_15_" class="st0" d="M24,8.3h-9.9c-0.3,0-0.6,0.3-0.6,0.6s0.3,0.6,0.6,0.6H24c0.3,0,0.6-0.3,0.6-0.6
			S24.4,8.3,24,8.3z"/>
	</g>
</g>
<g id="XMLID_8_">
	<g id="XMLID_9_">
		<path id="XMLID_10_" class="st0" d="M27,1.5c-0.2-0.2-0.5-0.4-1.1-0.4c-1.2,0-3.2,1.2-4.2,1.9c-0.7-1-1.8-2.3-2.6-2.3
			s-1.9,1.3-2.6,2.3c-1-0.7-2.9-1.9-4.2-1.9c-0.6,0-0.9,0.2-1.1,0.4c-0.3,0.3-0.4,0.8-0.4,1.2C11,5.1,15.7,9,16.2,9.4
			c0.1,0.1,0.2,0.1,0.4,0.1h4.9c0.1,0,0.3,0,0.4-0.1c0.5-0.4,5.2-4.3,5.4-6.7C27.4,2.3,27.3,1.8,27,1.5z M26.1,2.6
			c-0.1,1.3-2.9,4.1-4.8,5.7h-4.5c-1.9-1.5-4.7-4.3-4.8-5.7c0-0.2,0-0.2,0.1-0.3c0,0,0.1,0,0.2,0c0.9,0,2.9,1.2,4,2
			c0.1,0.1,0.3,0.1,0.5,0.1c0.2,0,0.3-0.1,0.4-0.3c0.7-1.1,1.6-2.2,1.9-2.3c0.3,0.1,1.3,1.1,2,2.3c0.1,0.1,0.2,0.2,0.4,0.3
			c0.2,0,0.3,0,0.5-0.1c1.1-0.8,3.1-2,4-2c0.1,0,0.1,0,0.1,0C26.1,2.4,26.1,2.4,26.1,2.6z"/>
	</g>
</g>
<g id="XMLID_5_">
	<g id="XMLID_6_">
		<path id="XMLID_7_" class="st0" d="M19.2,18.5l-0.1,0c-1.3-0.2-1.8-0.6-1.8-1.3c0-0.7,0.8-1.3,1.9-1.3c1,0,1.8,0.5,1.9,1.2
			c0,0.3,0.3,0.6,0.7,0.6c0.3,0,0.6-0.3,0.6-0.7c-0.1-1.3-1.4-2.4-3.1-2.4c-1.7,0-3.1,1.1-3.1,2.5c0,1.3,1,2.1,3,2.5l0.1,0
			C20.4,20,21,20.4,21,21c0,0.4-0.2,0.6-0.4,0.8c-0.3,0.2-0.3,0.6-0.1,0.9c0.1,0.1,0.3,0.2,0.5,0.2c0.1,0,0.3,0,0.4-0.1
			c0.5-0.5,0.9-1.1,0.9-1.8C22.2,19.7,21.2,18.8,19.2,18.5z"/>
	</g>
</g>
<g id="XMLID_2_">
	<g id="XMLID_3_">
		<path id="XMLID_4_" class="st0" d="M19.1,13.4c-0.3,0-0.6,0.3-0.6,0.6v7c0,0.4,0.3,0.6,0.6,0.6c0.3,0,0.6-0.3,0.6-0.6v-7
			C19.7,13.6,19.4,13.4,19.1,13.4z"/>
	</g>
</g>
</svg>
