<svg xmlns="http://www.w3.org/2000/svg" id="Layer_1" viewBox="-3 5 24 24"><style>.st0{fill:none;stroke:#009999;stroke-miterlimit:10;}</style><path d="M14 17.6v-2.3c-1.2-.4-1.9-.5-2.3-1.4-.4-.9.1-1.5.6-2.6l-1.6-1.6c-1.1.5-1.7 1-2.6.6-.9-.4-1-1.1-1.5-2.3H4.4C4 9.2 3.9 9.9 3 10.3c-1 .4-1.6-.1-2.7-.6l-1.6 1.6c.5 1.1 1 1.7.6 2.6-.4.9-1.1 1-2.3 1.4v2.3c1.2.4 1.9.5 2.3 1.4.4.9-.1 1.5-.6 2.6l1.6 1.6c1.1-.5 1.7-1 2.6-.6.9.4 1 1.1 1.4 2.3h2.3c.4-1.2.5-1.9 1.4-2.3.9-.4 1.5.1 2.6.6l1.6-1.6c-.5-1.1-1-1.7-.6-2.6.5-.8 1.2-.9 2.4-1.4zm-8.5 1.7c-1.6 0-2.8-1.3-2.8-2.8s1.3-2.8 2.8-2.8 2.8 1.3 2.8 2.8-1.2 2.8-2.8 2.8zM21 23.5v-1.1c-.5-.2-.9-.3-1.1-.7-.2-.4 0-.7.3-1.2l-.8-.8c-.5.2-.8.5-1.2.3s-.5-.5-.7-1.1h-1.1c-.2.5-.3.9-.7 1.1s-.7 0-1.2-.3l-.8.8c.2.5.5.8.3 1.2s-.5.5-1.1.7v1.1c.5.2.9.3 1.1.7.2.4 0 .7-.3 1.2l.8.8c.5-.2.8-.5 1.2-.3.4.2.5.5.7 1.1h1.1c.2-.5.3-.9.7-1.1.4-.2.7 0 1.2.3l.8-.8c-.2-.5-.5-.8-.3-1.2s.6-.5 1.1-.7zm-4 .8c-.7 0-1.3-.6-1.3-1.3s.6-1.3 1.3-1.3 1.3.6 1.3 1.3-.6 1.3-1.3 1.3z" class="st0"/></svg>