<svg xmlns="http://www.w3.org/2000/svg" id="Layer_1" viewBox="0 0 32 32"><style>.st0{fill:#008080;} .st1{font-family:&apos;CalisMTBol&apos;;} .st2{font-size:9.7808px;}</style><g id="XMLID_1_"><path id="XMLID_12_" d="M31 15.3s0 .3-.1.9c0 .3-.1.6-.2 1-.2.4-.3.9-.6 1.3-.5.9-1.3 2-2.5 2.9-1.2 1-2.6 1.8-4.4 2.5-1.7.7-3.7 1.2-5.8 1.4-.5 0-1.1.1-1.6.1h-1.6c-1.1-.1-2.3-.2-3.5-.4-1.2-.2-2.3-.6-3.5-1-1.1-.5-2.3-1.1-3.3-1.8-1-.8-2-1.7-2.7-2.9-.7-1.2-1.2-2.5-1.2-4l.1-1c.1-.3.2-.7.2-1.1.2-.7.5-1.3.9-1.9.7-1.2 1.7-2.1 2.7-2.9 1-.8 2.2-1.4 3.3-1.8 1.2-.4 2.3-.8 3.5-1 2.3-.5 4.6-.6 6.7-.4 2.2.2 4.1.7 5.9 1.4 1.7.7 3.2 1.5 4.4 2.5 1.2 1 2 2 2.5 2.9.3.5.4.9.6 1.3.1.4.2.7.2 1-.1.7 0 1 0 1zm0 0s0-.3-.1-.9c0-.3-.1-.6-.2-1-.2-.4-.3-.8-.6-1.3-.5-.9-1.3-2-2.5-2.8-1.2-.9-2.7-1.7-4.4-2.2-1.7-.5-3.7-.9-5.7-.9-2.1 0-4.2.2-6.4.8-2.1.6-4.2 1.6-6 3-1.7 1.4-3 3.3-3 5.4 0 1 .3 2.1.8 3 .5.8 1.3 1.6 2.1 2.3 1.8 1.4 3.8 2.4 6 3 1.1.3 2.2.5 3.2.6.5.1 1.1.1 1.6.1h1.6c2.1 0 4-.4 5.7-.9 1.7-.5 3.2-1.3 4.4-2.2 1.2-.9 2-1.9 2.5-2.8.3-.4.4-.9.6-1.3.1-.4.2-.7.2-1 .1-.6.2-.9.2-.9z" class="st0"/></g><text id="XMLID_2_" transform="matrix(.727 0 0 1 3.377 18.89)" class="st0 st1 st2">OTHER</text></svg>