<svg xmlns="http://www.w3.org/2000/svg" id="Layer_1" viewBox="0 0 32 32"><style>.st0{fill:#009999;}</style><g id="XMLID_2_"><g id="XMLID_3_"><g id="XMLID_4_"><path id="XMLID_7_" d="M28.9 9.8c-.9-1.6-2.2-3-3-3.8-1.9-1.7-3.4-1.7-4.2-1.5-.3.1-.6.2-.9.4-1.3-1-2.9-1.5-4.9-1.5s-3.6.5-4.9 1.5c-.3-.2-.5-.3-.9-.4-.6-.2-2.1-.2-4 1.4-.9.8-2.1 2.3-3 3.9-1.2 2.1-1.5 3.8-.8 5.1.8 1.5 2.1 1.9 3.1 2-.2 1-.4 2.1-.4 3.4 0 1.8.4 3.3 1.2 4.5.7 1.1 1.7 2 2.9 2.6 2.3 1.2 5.1 1.3 6.9 1.3s4.6-.1 6.9-1.3c1.2-.6 2.2-1.5 2.9-2.6.8-1.2 1.2-2.8 1.2-4.5 0-1.3-.2-2.4-.4-3.4 1-.1 2.3-.5 3.1-2 .7-1.3.4-3-.8-5.1zm-23 5.3c-.9 0-1.6-.2-2.1-1.1-.3-.6-.1-1.8.8-3.3.8-1.4 1.9-2.7 2.7-3.4 1.2-1.1 2.1-1.2 2.5-1.1-1.3 1.6-2 3.6-2.7 5.6-.3.8-.5 1.5-.8 2.2-.1.4-.2.8-.4 1.1zm9 5.8c-.4-.5-.7-.9-.7-1.2 0-.2 0-.2.2-.3.4-.2 1.1-.2 1.6-.2s1.3 0 1.6.2c.1.1.2.1.2.3 0 .2-.2.7-.7 1.2-.4.5-.9.7-1.1.7-.2 0-.7-.2-1.1-.7zm7.3 4.9c-1.3.7-3.1 1-5.3 1.1v-3.6c.7-.3 1.2-.8 1.5-1 .4-.4 1.2-1.3 1.2-2.4 0-.9-.4-1.6-1.2-1.9-.5-.2-1.2-.3-2.3-.3s-1.8.1-2.3.3c-.8.3-1.2 1-1.2 1.9 0 1.1.8 2.1 1.2 2.4.3.3.8.8 1.5 1v3.6c-2.3-.1-4-.4-5.3-1.1-2.1-1.1-3.1-2.9-3.1-5.5 0-2.3.5-3.7 1.2-5.6.2-.7.5-1.4.8-2.3 1.5-4.7 3.1-7.3 7.3-7.3s5.8 2.6 7.3 7.3c.3.9.6 1.6.8 2.3.7 1.9 1.2 3.3 1.2 5.6-.2 2.6-1.2 4.4-3.3 5.5zm6-11.8c-.5.9-1.2 1.1-2.1 1.1-.1-.3-.2-.7-.4-1.1-.2-.7-.5-1.4-.8-2.2-.6-2-1.4-4.1-2.7-5.6.4-.1 1.3 0 2.5 1.1.7.7 1.9 2 2.7 3.4.9 1.4 1.1 2.6.8 3.3z" class="st0"/><path id="XMLID_6_" d="M13.1 12.8c-.6 0-1.1.5-1.1 1.2s.5 1.2 1.1 1.2c.6 0 1.1-.5 1.1-1.2.1-.7-.4-1.2-1.1-1.2z" class="st0"/><path id="XMLID_5_" d="M18.9 12.8c-.6 0-1.1.5-1.1 1.2s.5 1.2 1.1 1.2c.6 0 1.1-.5 1.1-1.2s-.5-1.2-1.1-1.2z" class="st0"/></g></g></g></svg>