<svg xmlns="http://www.w3.org/2000/svg" id="Layer_1" viewBox="0 0 32 32"><style>.st0{fill:none;stroke:#009999;stroke-miterlimit:10;} .st1{fill:#009999;}</style><path id="XMLID_1_" d="M6.1 22.8c-.5-2.1.5-5.6.5-5.6s.4-1.1 1.1-2.9c1.2-3.2 1.4-3.7 1.8-4.3.8-1.5 1.3-2.4 2.3-3.2.3-.2 1.3-.9 2.7-1.1h1.3c1.8.1 2.7.1 3.2.3 1.2.4 1.9 1.3 2.8 2.4.7.9 1.1 2 2 4.1.8 2 1.3 3.2 1.8 5 .4 1.5.5 2.5.5 2.8.1 1.4.2 2.3-.1 3.3-.5 2-1.9 3.1-2.2 3.3-1.2 1-2.4 1.2-4.1 1.5-1.5.3-2.6.2-4.3.2-2.2-.1-3.3-.1-4.5-.6-.7-.3-2-.8-3.2-2.2-1.2-1.2-1.5-2.5-1.6-3z" class="st0"/><path id="XMLID_4_" d="M12.5 6.5C7.1.4-2.5 17.4 7.3 16.4" class="st0"/><path id="XMLID_5_" d="M20 6.7c3.4-4.9 15.6 8.1 4.8 9.7" class="st0"/><ellipse id="XMLID_2_" cx="12.4" cy="13.8" class="st1" rx="1.2" ry="1.1"/><ellipse id="XMLID_3_" cx="19.4" cy="13.8" class="st1" rx="1.2" ry="1.1"/><path id="XMLID_7_" d="M16 19.3c-.9 0-2.1-.1-2.4.6-.2.5.2 1.2.5 1.6.3.4.9 1.3 1.8 1.3.7 0 1.2-.6 1.6-1.1.4-.5.9-1.1.7-1.6-.2-.8-1.3-.8-2.2-.8z" class="st0"/><path id="XMLID_6_" d="M15.9 22.3l.1 6" class="st0"/></svg>