<?xml version="1.0" encoding="utf-8"?>
<!-- Generator: Adobe Illustrator 19.0.0, SVG Export Plug-In . SVG Version: 6.00 Build 0)  -->
<svg version="1.1" id="Layer_1" xmlns="http://www.w3.org/2000/svg" xmlns:xlink="http://www.w3.org/1999/xlink" x="0px" y="0px"
	 viewBox="0 0 32 32" style="enable-background:new 0 0 32 32;" xml:space="preserve">
<style type="text/css">
	.st0{fill:#008080;}
</style>
<path id="XMLID_6_" class="st0" d="M15.8,20.4L14.4,20l0.8-3.5c0-0.2,0-0.3-0.1-0.4c-0.1-0.1-0.3,0-0.4,0.1l-3,4.4
	c-0.1,0.2-0.1,0.4,0.1,0.5c0,0.1,0.1,0.1,0.1,0.1l1.3,0.5l-1.2,4c0,0.2,0,0.3,0.1,0.4c0.1,0.1,0.3,0.1,0.4-0.1L16,21
	c0.1-0.2,0.1-0.4,0-0.5C15.9,20.5,15.8,20.5,15.8,20.4L15.8,20.4z M18.7,3.3H9C8.7,3.3,8.4,3.6,8.4,4v8.7c0,0.4,0.2,0.7,0.5,0.7h9.8
	c0.3,0,0.5-0.3,0.5-0.7V4C19.2,3.6,19,3.3,18.7,3.3L18.7,3.3z M18.2,12H9.5V4.6h8.7L18.2,12L18.2,12z M23,30.7H4.6
	c-0.3,0-0.5,0.3-0.5,0.7S4.3,32,4.6,32H23c0.3,0,0.6-0.3,0.6-0.7S23.3,30.7,23,30.7L23,30.7z"/>
<path id="XMLID_2_" class="st0" d="M27.1,7.8l-1.7-2.4c-0.1-0.1-0.2-0.2-0.3-0.1c-0.6,0-0.8,0.7-0.5,1.1l1.6,2.2
	c0.4,0.5,0.6,0.8,0.6,1.3h-1.5c-0.4,0-0.6,0.4-0.6,0.8V14c0,0.7,0.5,1.3,1.1,1.3h1.1v10c0,0.4-0.2,0.7-0.5,0.7h-1.2
	c-0.3,0-0.4-0.4-0.4-0.7v-8.7c0-1.2-0.9-2-1.7-2h-1V3.3c0-1.8-1.2-3.3-2.7-3.3H8.4C6.9,0,5.7,1.5,5.7,3.3v26C5.7,30,6.2,30,6.9,30
	h13.9c0.7,0,1.2,0,1.2-0.7V16h1c0.3,0,0.7,0.3,0.7,0.6v8.7c0,1.1,0.6,2,1.5,2h1.2c0.9,0,1.6-0.9,1.6-2V10C27.9,9,27.4,8.4,27.1,7.8z
	 M20.9,28.7H6.8V3.3c0-1.1,0.7-2,1.6-2h10.8c0.9,0,1.6,0.9,1.6,2L20.9,28.7L20.9,28.7z M26.8,14h-1.1v-2.7h1.1L26.8,14L26.8,14z"/>
</svg>
