<?xml version="1.0" encoding="utf-8"?>
<!-- Generator: Adobe Illustrator 19.0.0, SVG Export Plug-In . SVG Version: 6.00 Build 0)  -->
<svg version="1.1" id="Layer_1" xmlns="http://www.w3.org/2000/svg" xmlns:xlink="http://www.w3.org/1999/xlink" x="0px" y="0px"
	 viewBox="0 0 32 32" style="enable-background:new 0 0 32 32;" xml:space="preserve">
<style type="text/css">
	.st0{fill:#009999;}
</style>
<g id="XMLID_5_">
	<g id="XMLID_6_">
		<path id="XMLID_7_" class="st0" d="M26.8,30.9c-0.2-0.5-2-4.2-3.9-8.4c0.2-0.3,0.2-0.5,0-0.8c0-0.1,0-0.3-2-4.1
			c-0.2-0.3-0.4-0.5-0.8-0.5c-1.6-3.3-2.9-6.2-3.5-7.5H17c0.4,0,0.6-0.3,0.6-0.7V8.5h3.1c0.4,0,0.6-0.3,0.6-0.7V1.6
			c0-0.4-0.4-0.7-0.6-0.7h-3.3L17,0.3c-0.2-0.1-0.4-0.3-0.6-0.3h-2.2c-0.2,0-0.4,0.1-0.6,0.3l-0.4,0.5h-1c-0.2-0.3-0.4-0.4-0.6-0.4
			h-0.8c-0.2,0-0.4,0.1-0.6,0.4h-0.2c-0.4,0-0.6,0.3-0.6,0.7v6.3c0,0.4,0.4,0.7,0.6,0.7h3.1v0.3c0,0.4,0.4,0.7,0.6,0.7h0.4
			c-0.6,1.4-2.2,4.4-3.5,7.5c-0.4,0.1-0.6,0.3-0.8,0.5c-1.8,3.8-2,4-2,4.1v0.8c-2,4.2-3.7,7.9-3.9,8.4c-0.2,0.4,0,0.7,0.4,0.8
			s0.8-0.1,0.8-0.4c0.2-0.4,1.8-3.8,3.7-8.2c0.4,0,0.8-0.3,1-0.7c0.2-0.3,1-2.2,1.8-3.8c0.2-0.4,0.2-0.7,0-1.1
			c1-1.9,1.8-3.7,2.5-5.5v8.6c0,0.4,0.4,0.7,0.6,0.7c0.4,0,0.6-0.3,0.6-0.7v-8.8c0.8,1.8,1.8,3.8,2.7,5.8c-0.2,0.3-0.2,0.7,0,1.1
			c0.8,1.6,1.8,3.6,1.8,3.8c0.2,0.4,0.6,0.7,1,0.7c2,4.4,3.5,7.7,3.7,8.2c0,0.3,0.4,0.4,0.6,0.4h0.2C26.6,31.7,26.8,31.3,26.8,30.9z
			 M10.9,7.2V2.2h2.9c0.2,0,0.4-0.1,0.6-0.3l0.4-0.5h1.4L16.6,2c0.2,0.1,0.4,0.3,0.6,0.3h2.9v4.9C20.1,7.2,10.9,7.2,10.9,7.2z"/>
	</g>
</g>
<path id="XMLID_2_" class="st0" d="M15.6,2.7c-1.2,0-2.2,1-2.2,2.1s1,2.1,2.2,2.1s2.2-0.8,2.2-2.1S16.8,2.7,15.6,2.7z M15.6,5.9
	c-0.6,0-1.2-0.5-1.2-1.2s0.6-1.2,1.2-1.2c0.6,0,1.2,0.5,1.2,1.2C16.8,5.4,16.2,5.9,15.6,5.9z"/>
</svg>
