<svg xmlns="http://www.w3.org/2000/svg" id="Layer_1" viewBox="0 0 32 32"><style>.st0{fill:#008080;}</style><g id="XMLID_2_"><g id="XMLID_3_"><path id="XMLID_9_" d="M8.3 9.4V19h2V8L16 3.6 21.6 8v13.6l1.4-1.4.5-.5V9.3l1 1 1.2-1.8-9.2-7L16 1l-.6.4-4.2 3.2V3H8.8v3.4l-2.5 2 1 1.6 1-.6z" class="st0"/><path id="XMLID_8_" d="M16.3 18.7v-1.2c1-.3 1.8-1 1.8-2.3 0-1-.5-1.8-1.8-2.4-1-.4-1.2-.6-1.2-1 0-.3.3-.5.8-.5.6 0 1 .2 1.3.3h.4l.4-1.4h-.2c-.4-.3-1-.5-1.4-.5v-1H15V10c-1.2.2-1.8 1-1.8 2 0 1.4 1 2 2 2.4 1 .4 1 .7 1 1 0 .4-.4.7-1 .7-.4 0-1 0-1.5-.4l-.2-.2-.2 1.6c.5.4 1 .6 1.7.6v1.2h1.3z" class="st0"/><path id="XMLID_4_" d="M29 23.6c0-.7-.5-1.2-1.2-1.8-.5-.4-1.4-1-2.4-1s-2 .4-3 2c-1 1.4-2.2 2-3.2 2.2v-1c0-2.2-1.5-3.8-3.8-4h-8c-.8 0-1.5.3-2 .8v-1.2H1.5v12h3.7v-1.3l.3.2c.6.4 1.6 1 2.7 1h7.4c6.4 0 10.7-4 12.3-6 .5-.6 1-1.2 1-2zM4 22.2H3v-1.4H4v1.4zm23 2.3c-1.4 1.8-5.4 5.4-11.3 5.4H8.4c-1.2 0-2.6-1.2-2.6-1.2h-.4v-6.5h.4V22c.5-.3 1-.5 1.7-.5h8c1.3 0 2.6.8 2.6 2.5 0 1-.5 1-.5 1h-6c-.3 0-.6.3-.6.7s.2.7.6.7H18c1 0 3.5-.3 5.3-2.7.6-1 1.3-1.4 2-1.4.8 0 1.4.4 1.7.6.7.5.7.7.7.7l-.6.8z" class="st0"/></g></g></svg>