<?xml version="1.0" encoding="utf-8"?>
<!-- Generator: Adobe Illustrator 19.0.0, SVG Export Plug-In . SVG Version: 6.00 Build 0)  -->
<svg version="1.1" id="Layer_1" xmlns="http://www.w3.org/2000/svg" xmlns:xlink="http://www.w3.org/1999/xlink" x="0px" y="0px"
	 viewBox="-3 5 24 24" style="enable-background:new -3 5 24 24;" xml:space="preserve">
<style type="text/css">
	.st0{fill:none;stroke:#009999;stroke-miterlimit:10;}
</style>
<path class="st0" d="M10.8,15.4l1.3-2c0.4-0.5,1.1-0.7,1.5-0.3c0.5,0.4,0.7,1,0.3,1.5l-1.3,2c-0.4,0.5-1.1,0.7-1.5,0.3
	C10.6,16.5,10.4,15.8,10.8,15.4z M9,14.7c0.5,0.4,1.1,0.2,1.5-0.3l1.3-2c0.4-0.5,0.2-1.1-0.3-1.5c-0.5-0.4-1.1-0.2-1.5,0.3l-1.3,2
	C8.3,13.8,8.5,14.4,9,14.7z M15.7,18.5l-1.1,1.7c-0.3,0.5-0.2,1,0.3,1.4c0.5,0.4,1.1,0.2,1.4-0.3l1.1-1.7c0.3-0.5,0.2-1-0.3-1.4
	C16.6,17.9,15.9,18,15.7,18.5z M12.7,17.6c-0.4,0.5-0.2,1.1,0.3,1.5c0.5,0.3,1.1,0.2,1.5-0.3l1.2-1.9c0.4-0.5,0.2-1.1-0.3-1.5
	c-0.5-0.3-1.1-0.2-1.5,0.3C14,15.8,12.7,17.6,12.7,17.6z M18.1,27.9c-0.6,0-1.1-0.2-1.6-0.7l-6.7-6.7c1.1-1.1,0.6-3.1-1.1-3.4
	l-2.9-0.6l-1.1-0.9c-0.6-0.6-1.3-0.8-2.2-0.8c-1.3,0.1-2.7-0.4-3.6-1.4c-1-0.9-1.4-2.2-1.4-3.4c0-0.6,0.1-1,0.3-1.6l3.1,3
	c1.2,0.1,3.1-1.8,3-2.9L0.7,5.7c0.5-0.2,1.1-0.3,1.5-0.3c1.2,0,2.5,0.5,3.4,1.4c1.1,1,1.4,2.3,1.4,3.6C7,11.3,7.4,12,8,12.6
	c-1.1,2,0.4,3.3,1.7,3.3c-0.2,1.1,1,2.2,2,2.2c-0.3,0.9,0.5,2,1.7,2.3c-0.5,1.7,2.2,3.6,3.7,1.2l2.7,2.6c0.5,0.5,0.7,1,0.7,1.6
	C20.4,26.9,19.4,27.9,18.1,27.9z M19,25.6c0-0.6-0.4-0.9-1-0.9c-0.6,0-1,0.4-1,0.9s0.4,0.9,1,0.9C18.6,26.5,19,26.2,19,25.6z
	 M9.8,21.9c-0.7-0.7-1.6-0.7-3.4-0.8c-0.3,0-0.5,0.2-0.5,0.4l-0.5,3.9c0,0,2.7,1.8,3.7,2.5c1.1-1.8,2.6-1.9,3.7-2.8
	C13,25.1,9.8,21.9,9.8,21.9z M8.2,20.3c1.4,0,1.6-2,0.3-2.2c-5-0.8-4.7-0.8-4.9-0.8c-0.6,0-1.1,0.5-1.2,1L2,22
	c-0.1,0.6,0.1,1.1,0.6,1.4c0.5,0.4,1.9,1.3,1.9,1.3l0.4-3.5c0.1-0.8,0.6-1.3,1.3-1.2C6.4,20.2,8.1,20.3,8.2,20.3z"/>
</svg>
