<?xml version="1.0" encoding="utf-8"?>
<!-- Generator: Adobe Illustrator 19.0.0, SVG Export Plug-In . SVG Version: 6.00 Build 0)  -->
<svg version="1.1" id="Layer_1" xmlns="http://www.w3.org/2000/svg" xmlns:xlink="http://www.w3.org/1999/xlink" x="0px" y="0px"
	 viewBox="0 0 32 32" style="enable-background:new 0 0 32 32;" xml:space="preserve">
<style type="text/css">
	.st0{fill:#008080;}
</style>
<g id="XMLID_8_">
	<g id="XMLID_9_">
		<path id="XMLID_10_" class="st0" d="M29.6,3.2l-1.8-1.9c-1.1-1.2-3.1-1.3-4.3-0.2l-3.1,2.8c0,0-0.1,0.1-0.1,0.1l-3,5.3l-1.9,0.7
			c-0.2,0.1-0.3,0.2-0.3,0.4c0,0.2,0,0.4,0.1,0.5l5.3,5.6c0.1,0.1,0.2,0.2,0.4,0.2c0,0,0.1,0,0.1,0c0.2,0,0.3-0.2,0.4-0.3l0.6-2
			l5.1-3.2c0,0,0.1-0.1,0.1-0.1l2.6-3.2C30.9,6.5,30.8,4.5,29.6,3.2z M29,7.1l-2.6,3.1l-5.2,3.3c-0.1,0.1-0.2,0.2-0.2,0.3l-0.4,1.4
			L19.4,14c0,0,0,0,0,0l-1.8-1.9c0,0,0,0,0,0l-1.2-1.3l1.3-0.5c0.1,0,0.2-0.1,0.3-0.2l3.1-5.4l3-2.8c0.8-0.8,2.2-0.7,3,0.1L28.9,4
			C29.7,4.8,29.8,6.2,29,7.1z"/>
	</g>
</g>
<g id="XMLID_2_">
	<g id="XMLID_3_">
		<path id="XMLID_4_" class="st0" d="M28.2,21.5c-1.5-1.5-3.6-2.1-5.6-1.4L12.1,9c0.6-2.1,0.1-4.3-1.3-5.9C9.2,1.5,6.9,1,4.9,1.8
			C4.7,1.9,4.6,2,4.6,2.2c0,0.2,0,0.4,0.1,0.5L7.9,6L5.8,8.2L2.6,4.9C2.5,4.8,2.3,4.7,2.2,4.7C2,4.8,1.9,4.9,1.8,5.1
			C1,7.2,1.5,9.6,3,11.3c1.5,1.5,3.6,2.1,5.6,1.4l4,4.2L7.6,22l-3.1,1.8c-0.1,0.1-0.2,0.1-0.2,0.2l-1.4,3c-0.1,0.2-0.1,0.4,0.1,0.6
			l1.8,1.9c0.1,0.1,0.2,0.2,0.4,0.2c0.1,0,0.2,0,0.2-0.1l2.8-1.5c0.1,0,0.2-0.1,0.2-0.2l1.8-3.3l4.9-5.2l4.2,4.4
			c-0.6,2.1-0.1,4.3,1.3,5.9c1,1.1,2.4,1.7,3.9,1.7c0.7,0,1.3-0.1,2-0.4c0.2-0.1,0.3-0.2,0.3-0.4c0-0.2,0-0.4-0.1-0.5l-3.2-3.3
			l2.1-2.2l3.2,3.3c0.1,0.1,0.3,0.2,0.5,0.1c0.2,0,0.3-0.2,0.4-0.3C30.3,25.6,29.8,23.1,28.2,21.5z M9.3,23.9c0,0-0.1,0.1-0.1,0.1
			l-1.7,3.2l-2.4,1.2l-1.3-1.3l1.2-2.5l3.1-1.8c0,0,0.1-0.1,0.1-0.1l5-5.2l1.1,1.1L9.3,23.9z M28.8,26.5l-2.9-3.1
			c-0.2-0.2-0.5-0.2-0.7,0l-2.8,3c-0.1,0.1-0.1,0.2-0.1,0.4s0.1,0.3,0.1,0.4l2.9,3.1c-1.5,0.3-3-0.2-4-1.3c-1.3-1.3-1.7-3.3-1-5.1
			c0.1-0.2,0-0.4-0.1-0.6l-11-11.6c-0.1-0.1-0.2-0.2-0.4-0.2c-0.1,0-0.1,0-0.2,0c-1.7,0.7-3.5,0.3-4.8-1.1C2.7,9.4,2.2,7.8,2.5,6.3
			l2.9,3.1c0.2,0.2,0.5,0.2,0.7,0l2.8-3c0.2-0.2,0.2-0.5,0-0.7L6,2.5c1.5-0.3,3,0.2,4,1.3c1.3,1.3,1.7,3.3,1,5.1
			c-0.1,0.2,0,0.4,0.1,0.6l11,11.6c0.1,0.1,0.3,0.2,0.5,0.1c1.7-0.7,3.5-0.3,4.8,1.1C28.6,23.4,29,25,28.8,26.5z"/>
	</g>
</g>
</svg>
