<?xml version="1.0" encoding="utf-8"?>
<!-- Generator: Adobe Illustrator 19.0.0, SVG Export Plug-In . SVG Version: 6.00 Build 0)  -->
<svg version="1.1" id="Layer_1" xmlns="http://www.w3.org/2000/svg" xmlns:xlink="http://www.w3.org/1999/xlink" x="0px" y="0px"
	 viewBox="-3 5 24 24" style="enable-background:new -3 5 24 24;" xml:space="preserve">
<style type="text/css">
	.st0{fill:none;stroke:#009999;stroke-miterlimit:10;}
</style>
<path class="st0" d="M10.9,15.6l1.4-2.1c0.4-0.5,1.1-0.7,1.6-0.3s0.7,1.1,0.3,1.6l-1.4,2.1c-0.4,0.5-1.1,0.7-1.6,0.3
	S10.5,16.1,10.9,15.6z M9,14.9c0.5,0.4,1.2,0.2,1.6-0.3l1.4-2.1c0.4-0.5,0.2-1.2-0.3-1.6c-0.5-0.4-1.2-0.2-1.6,0.3l-1.4,2.1
	C8.3,13.9,8.5,14.6,9,14.9z M16,18.9l-1.2,1.8c-0.3,0.5-0.2,1.1,0.3,1.5s1.1,0.2,1.5-0.3l1.2-1.8c0.3-0.5,0.2-1.1-0.3-1.5
	C17,18.3,16.3,18.4,16,18.9z M12.9,18c-0.4,0.5-0.2,1.2,0.3,1.6c0.5,0.3,1.2,0.2,1.6-0.3l1.3-2c0.4-0.5,0.2-1.2-0.3-1.6
	c-0.5-0.3-1.2-0.2-1.6,0.3C14.3,16.1,12.9,18,12.9,18z M18.6,29c-0.6,0-1.2-0.2-1.7-0.7l-7-7.1c1.1-1.2,0.6-3.3-1.2-3.6l-3-0.6
	l-1.1-1c-0.6-0.6-1.4-0.9-2.3-0.9c-1.4,0.1-2.8-0.4-3.8-1.5c-1-1-1.5-2.3-1.5-3.6c0-0.6,0.1-1.1,0.3-1.7l3.2,3.2
	c1.3,0.1,3.2-1.9,3.1-3.1L0.4,5.3C0.9,5.1,1.5,5,2,5c1.3,0,2.6,0.5,3.6,1.5C6.7,7.6,7.1,9,7.1,10.3C7,11.2,7.4,12,8,12.6
	c-1.2,2.1,0.4,3.5,1.8,3.5c-0.2,1.2,1,2.4,2.1,2.4c-0.3,1,0.5,2.1,1.8,2.4c-0.5,1.8,2.3,3.8,3.9,1.3l2.8,2.8
	c0.5,0.5,0.7,1.1,0.7,1.7C21,27.9,19.9,29,18.6,29z M19.5,26.5c0-0.6-0.4-1-1-1s-1,0.4-1,1s0.4,1,1,1S19.5,27.1,19.5,26.5z
	 M9.9,22.6c-0.7-0.7-1.7-0.7-3.6-0.9c-0.3,0-0.5,0.2-0.5,0.4l-0.5,4.2c0,0,2.8,1.9,3.9,2.7c1.1-1.9,2.7-2,3.9-3
	C13.2,26,9.9,22.6,9.9,22.6z M8.2,20.9c1.5,0,1.7-2.1,0.3-2.3c-5.2-0.9-4.9-0.9-5.1-0.9c-0.6,0-1.2,0.5-1.3,1.1l-0.4,3.9
	c-0.1,0.6,0.1,1.2,0.6,1.5c0.5,0.4,2,1.4,2,1.4l0.4-3.7c0.1-0.8,0.6-1.4,1.4-1.3C6.3,20.7,8.1,20.9,8.2,20.9z"/>
</svg>
