<?xml version="1.0" encoding="utf-8"?>
<!-- Generator: Adobe Illustrator 19.0.0, SVG Export Plug-In . SVG Version: 6.00 Build 0)  -->
<svg version="1.1" id="Layer_1" xmlns="http://www.w3.org/2000/svg" xmlns:xlink="http://www.w3.org/1999/xlink" x="0px" y="0px"
	 viewBox="0 0 32 32" style="enable-background:new 0 0 32 32;" xml:space="preserve">
<style type="text/css">
	.st0{fill:#008080;}
</style>
<g id="XMLID_7_">
	<g id="XMLID_8_">
		<path id="XMLID_9_" class="st0" d="M21.4,10.5l-7.8-2.9c-0.7-0.3-1.6-0.2-2.3,0.1L11,7.9C10.4,8.2,9.8,8.3,9.3,8L8.6,7.8
			c0,0-0.1,0-0.1-0.1l-4-1.5c-0.1,0-0.2,0-0.3,0C4.1,6.3,4.1,6.4,4,6.5L0.7,17c-0.1,0.2,0,0.4,0.2,0.5l4,1.5C5,19,5,19,5,19
			c0.1,0,0.1,0,0.2,0c0.1,0,0.2-0.1,0.2-0.2L8.6,8.7L9,8.8c0.7,0.3,1.6,0.2,2.3-0.1l0.4-0.2c0.5-0.3,1.1-0.3,1.7-0.1l7.5,2.8
			c-0.1,0.4-0.2,0.9-0.6,1.2c-0.4,0.3-0.9,0.3-1.6,0l-3.3-1.2c-0.1,0-0.2,0-0.3,0c-0.1,0.1-0.2,0.1-0.2,0.3c0,0-0.5,1.9-2,2.8
			c-1,0.6-2.1,0.6-3.5,0.1c-0.2-0.1-0.4,0-0.5,0.3c-0.1,0.2,0,0.4,0.2,0.5c0.7,0.3,1.4,0.4,2.1,0.4c0.7,0,1.4-0.2,2-0.5
			c1.3-0.8,2-2.2,2.2-2.9l2.9,1.1c0.9,0.3,1.7,0.3,2.2-0.1c0.9-0.7,1-2.1,1-2.2C21.7,10.7,21.5,10.5,21.4,10.5z M4.8,18.1l-3.3-1.2
			l3.1-9.7l3.2,1.2c0,0,0.1,0,0.1,0l0,0L4.8,18.1z"/>
	</g>
</g>
<g id="XMLID_2_">
	<g id="XMLID_3_">
		<path id="XMLID_4_" class="st0" d="M31.4,16.5l-4.5-9.9c0-0.1-0.1-0.2-0.2-0.2s-0.2,0-0.3,0l-3.8,2c-0.2,0.1-0.3,0.3-0.2,0.5
			l4.4,9.7L25.3,20c-1.3,1.2-2.7,2.3-4.2,3.1l-7.2,3.8c-0.2,0.1-0.4,0.1-0.6,0c-0.2-0.1-0.4-0.2-0.5-0.5c-0.1-0.2-0.1-0.5,0-0.7
			c0.1-0.2,0.2-0.4,0.4-0.5l4-2.1c0.2-0.1,0.3-0.3,0.2-0.5c-0.1-0.2-0.3-0.3-0.5-0.2l-4,2.1l-2,1c-0.4,0.2-0.9,0-1.1-0.4
			c-0.2-0.4,0-1,0.4-1.2l5.8-3.1c0.2-0.1,0.3-0.3,0.2-0.5c-0.1-0.2-0.3-0.3-0.5-0.2l-4.3,2.3l-1.5,0.8l-0.7,0.4
			c-0.4,0.2-0.9,0-1.1-0.4c-0.2-0.4,0-1,0.4-1.2l0.7-0.4l5.2-2.7c0.2-0.1,0.3-0.3,0.2-0.5c-0.1-0.2-0.3-0.3-0.5-0.2l-3.3,1.8l-1.9,1
			c-0.2,0.1-0.4,0.1-0.6,0c-0.2-0.1-0.4-0.2-0.5-0.5c-0.1-0.2-0.1-0.5,0-0.7c0.1-0.2,0.2-0.4,0.4-0.5l2.8-1.5
			c0.2-0.1,0.3-0.3,0.2-0.5c-0.1-0.2-0.3-0.3-0.5-0.2l-2.8,1.5c-0.4,0.2-0.7,0.6-0.8,1S6.8,20.4,7,20.8c0.1,0.3,0.4,0.6,0.7,0.8
			c-0.5,0.5-0.6,1.3-0.3,2c0.3,0.6,0.8,1,1.4,1c0.1,0,0.1,0,0.2,0c-0.1,0.3,0,0.7,0.1,1c0.3,0.6,0.8,1,1.4,1c0.2,0,0.5-0.1,0.7-0.2
			l0.7-0.4c0,0.3,0,0.6,0.2,0.9c0.2,0.4,0.5,0.7,0.9,0.9c0.2,0.1,0.3,0.1,0.5,0.1c0.2,0,0.5-0.1,0.7-0.2l7.2-3.8
			c1.6-0.8,3.1-1.9,4.4-3.2l1.6-1.6l3.7-2C31.4,16.9,31.5,16.7,31.4,16.5z M27.4,18.1l-4.2-9.2l3.1-1.6l4.2,9.2L27.4,18.1z"/>
	</g>
</g>
</svg>
