<svg xmlns="http://www.w3.org/2000/svg" id="Layer_1" viewBox="-3 5 24 24"><style>.st0{fill:#009999;}</style><path d="M-3 18.1l1.9-11 3.5 1.3-2 11c.1 0-3.4-1.3-3.4-1.3zm18.4 1.3c.1.4.2.9.2 1.3-.1 1.2-.7 2-1.5 2.3-.3.7-.7 1.3-1.3 1.4-.2.7-.7 1.3-1.3 1.4-.3 1-1 1.4-1.7 1.4-.5 0-1-.3-1.4-.7-.9.6-1.9 0-2.2-1.3-.6-.1-1.1-.7-1.3-1.4-.6-.1-1.1-.7-1.3-1.4-1.2-.1-1.8-2-1.2-3.6-.2-.1-.5-.1-.8-.1l.4-2.2c.5.1 1 .3 1.5.6.9-1 2.2-.4 2.5 1 .6.1 1.1.7 1.3 1.4.6.1 1.1.7 1.3 1.4.7.1 1.4 1 1.4 2v.3l.4.6c.3.4.7.4 1 .1.3-.3.3-.9.1-1.3L10 20.8c-.2-.1.1-.6.2-.3l1.5 1.9c.3.4.7.4 1 .1.3-.3.3-.9.1-1.3L11 18.8c-.2-.1 0-.6.2-.3l1.9 2.5c.2.4.7.4 1 .1s.3-.9 0-1.4c-1.2-1.6-2.7-3.5-4.1-5.5-.4.7-2.2 2.2-3.3 2.2s-1.8-1-2-1.9c-.2-.9.1-1.6.5-2 .5-.4 1.1-1.2 1.6-1.9-.8-.9-1.2-.6-2.1-.1-.5.3-1.1.7-1.9.9l.4-2.5c1.3-.7 2.5-2.3 4.5-.1l.5-.9c.6-.4 1.1-.9 1.7-.9.4 0 .9.3 1.4.6 1.5 1.2 2.3 1.9 3.4 1.9l.4 2.2c-1.8 0-2.7-.7-4.5-2.2-.5-.4-.9-.4-1.1 0-1 1.6-2 3.3-3.2 4.5.6.7 2-.7 2.6-1.3.3-.3.6-.7 1.1-.7.6 0 1 .4 1.2.9.7 1 2.6 3.5 3.4 4.5.4-.3.9-.6 1.3-.9l.4 2.2c-.3.1-.6.4-.9.7zm-11 1.1l.6-1c.3-.4.2-1-.1-1.3-.3-.3-.7-.3-1 .1l-.6 1c-.3.4-.2 1 .1 1.3.3.3.7.3 1-.1zM5.7 22l.6-1.2c.2-.4.2-1-.1-1.3-.3-.3-.7-.3-1 .1l-.6 1.2c-.3.4-.2 1 .1 1.3.3.4.8.3 1-.1zM7 23.4l.6-1c.3-.4.2-1-.1-1.3-.3-.3-.7-.3-1 .1l-.5 1c-.3.4-.2 1 .1 1.3.3.5.7.3.9-.1zm1.9-1c-.3-.3-.7-.3-1 .1l-.6 1.2c-.2.4-.2 1 .1 1.3.3.3.7.3 1-.1l.6-1c.2-.5.2-1.1-.1-1.5zm1.4 1.7l-.2-.3-.3.9-.4.6c.1.1.3.3.4.3.1 0 .3 0 .4-.1.4-.4.4-.9.1-1.4zm5.2-15.7l2 11 3.5-1.3-1.9-11-3.6 1.3z" class="st0"/></svg>