<svg xmlns="http://www.w3.org/2000/svg" id="Layer_1" viewBox="0 0 32 32"><style>.st0{fill:#008080;}</style><g id="XMLID_2_"><g id="XMLID_3_"><g id="XMLID_4_"><path id="XMLID_10_" d="M29.1 10.1l-.3-2c-.3-1.5-1.6-2.5-3.2-2.5-.2 0-.4 0-.6.1L4.1 9.4c-1.8.3-3.1 2-2.8 3.7v11.1c0 1.8 1.6 3.3 3.5 3.3h22.5c1.9 0 3.5-1.5 3.5-3.3V12.9c.2-1.2-.6-2.3-1.7-2.8zm-3.8-2.7h.3c.7 0 1.3.4 1.4 1l.2 1.3H13l12.3-2.3zm3.8 16.8c0 .8-.8 1.4-1.7 1.4H4.9c-.9 0-1.7-.6-1.7-1.4V12.9c0-.8.8-1.4 1.7-1.4h22.5c.9 0 1.7.6 1.7 1.4v11.3z" class="st0"/><path id="XMLID_9_" d="M9.4 19.4h1.8V21H9.4z" class="st0"/><path id="XMLID_8_" d="M9.4 22.6h1.8v1.6H9.4z" class="st0"/><path id="XMLID_7_" d="M9.4 13h1.8v1.6H9.4z" class="st0"/><path id="XMLID_6_" d="M9.4 16.2h1.8v1.6H9.4z" class="st0"/><path id="XMLID_5_" d="M23.2 15.1l-1.3 1.4-4.2-1.3-.7.8c-.1.1-.1.2 0 .3l3.4 1.9-1.7 1.8-1.3-.3-.4.5c-.1.1-.1.2 0 .2l2.5 2.5c.1.1.2.1.2 0l.4-.5-.3-1.4 1.7-1.7 1.9 3.5c.1.1.2.1.3 0l.7-.7-1.3-4.3 1.4-1.3c.4-.4.4-1 0-1.4-.3-.4-.9-.4-1.3 0z" class="st0"/></g></g></g></svg>