<?xml version="1.0" encoding="utf-8"?>
<!-- Generator: Adobe Illustrator 19.0.0, SVG Export Plug-In . SVG Version: 6.00 Build 0)  -->
<svg version="1.1" id="Layer_1" xmlns="http://www.w3.org/2000/svg" xmlns:xlink="http://www.w3.org/1999/xlink" x="0px" y="0px"
	 viewBox="0 0 32 32" style="enable-background:new 0 0 32 32;" xml:space="preserve">
<style type="text/css">
	.st0{fill:none;stroke:#008080;stroke-miterlimit:10;}
</style>
<g id="XMLID_2_">
	<path id="XMLID_3_" class="st0" d="M2,18.9V5c0-0.8,0.6-1.4,1.4-1.4h13.8c0.8,0,1.4,0.6,1.4,1.4v13.9c0,0.3-0.2,0.5-0.4,0.5H2.4
		C2.1,19.3,2,19.1,2,18.9z M13.1,23.6c0,1.6-1.3,2.9-2.9,2.9s-2.9-1.3-2.9-2.9s1.3-2.9,2.9-2.9S13.1,22,13.1,23.6z M11.6,23.6
		c0-0.8-0.6-1.4-1.4-1.4s-1.4,0.6-1.4,1.4S9.4,25,10.2,25S11.6,24.4,11.6,23.6z M7.7,20.7H1.3c-0.2,0-0.4,0.2-0.4,0.5v1.4
		c0,0.3,0.2,0.5,0.4,0.5h5.2C6.5,22.1,7.1,21.3,7.7,20.7z M28,23.6c0,1.6-1.3,2.9-2.9,2.9s-2.9-1.3-2.9-2.9s1.3-2.9,2.9-2.9
		S28,22,28,23.6z M26.6,23.6c0-0.8-0.6-1.4-1.4-1.4s-1.4,0.6-1.4,1.4s0.6,1.4,1.4,1.4C26,25.1,26.6,24.4,26.6,23.6z M33.1,21.2v1.4
		c0,0.3-0.2,0.5-0.4,0.5h-3.8c-0.2-1.8-1.8-3.3-3.8-3.3s-3.4,1.4-3.8,3.3h-7.5c-0.1-0.9-0.6-1.8-1.3-2.3h7.1V7.4
		c0-0.5,0.4-0.9,1-0.9h4.3c1.2,0,2.4,0.6,3,1.6l2.8,4.2c0.4,0.6,0.6,1.3,0.6,2.1v6.3h1.1C32.9,20.7,33.1,20.9,33.1,21.2z M28.5,12.4
		l-2.3-3.2C26.1,9.1,26,9,25.8,9h-3.4C22.2,9,22,9.2,22,9.5v3.2c0,0.3,0.2,0.5,0.4,0.5H28C28.4,13.2,28.7,12.7,28.5,12.4z"/>
</g>
</svg>
