<svg id="Layer_1" xmlns="http://www.w3.org/2000/svg" viewBox="0 0 32 32"><style>.st0{fill:#008080;}</style><g id="XMLID_2_"><path id="XMLID_15_" class="st0" d="M17.2 10.3H.5V17h16.7v-6.7zm-1.4 5.1H1.9v-3.6h13.9v3.6z"/><path id="XMLID_3_" class="st0" d="M17.2 1.8H9.7v6.9h7.5V1.8zm-1.4 5.3h-4.7V3.4h4.7v3.7zM8 1.8H.5v6.9H8V1.8zM6.6 7.1H1.9V3.4h4.7v3.7zM24 8h-3v5.3h7.7L24 8zm-1.8 1.5h1.2l2.1 2.4h-3.3V9.5zM.5 23.7v.1h3.7c-.4.7-.7 1.5-.7 2.4 0 2.2 1.5 3.9 3.5 3.9 1.9 0 3.5-1.8 3.5-3.9 0-.9-.3-1.7-.7-2.4h12.1c-.4.7-.7 1.5-.7 2.4 0 2.2 1.5 3.9 3.5 3.9 1.9 0 3.5-1.8 3.5-3.9 0-.9-.3-1.7-.7-2.4H32V12.7l-7.1-7.9h-6.4v13.5H.5m6.4 10.3c-1.1 0-2.1-1.1-2.1-2.4s.9-2.4 2.1-2.4C8 23.8 9 24.9 9 26.2c0 1.4-.9 2.4-2.1 2.4zm11.6-6.3H1.8v-2.6h16.7v2.6zm6.1 6.3c-1.1 0-2.1-1.1-2.1-2.4s.9-2.4 2.1-2.4c1.1 0 2.1 1.1 2.1 2.4 0 1.4-1 2.4-2.1 2.4zm6-6.3H19.9v-16h4.4l6.4 6.9v9.1z"/></g></svg>