<?xml version="1.0" encoding="utf-8"?>
<!-- Generator: Adobe Illustrator 19.0.0, SVG Export Plug-In . SVG Version: 6.00 Build 0)  -->
<svg version="1.1" id="Layer_1" xmlns="http://www.w3.org/2000/svg" xmlns:xlink="http://www.w3.org/1999/xlink" x="0px" y="0px"
	 viewBox="0 0 32 32" style="enable-background:new 0 0 32 32;" xml:space="preserve">
<style type="text/css">
	.st0{fill:#008080;}
</style>
<g id="XMLID_2_">
	<g id="XMLID_3_">
		<path id="XMLID_4_" class="st0" d="M30.4,2.9c-1.4-1.7-3.9-1.8-5.5-0.3c0,0,0,0,0,0l-5.3,5.6l-3.8-1.4c0.3-0.3,0.4-0.7,0.5-1.1
			c0-0.5-0.1-0.9-0.4-1.2c-0.6-0.7-1.6-0.8-2.3-0.1l-1.2,1.1l-1.3-0.5l0,0c0.7-0.6,0.7-1.7,0.1-2.4c-0.6-0.7-1.6-0.8-2.3-0.1
			L7.6,3.7L5.3,2.9C4,2.4,2.7,3.1,2.2,4.4c-0.4,1,0,2.1,0.8,2.8l10.1,8.1l-4.7,5l-4.3,0.2c-0.4,0-0.8,0.2-0.9,0.6
			C3,21.5,3.1,22,3.4,22.4l1.5,1.7C4.5,25,4.8,26,5.6,26.5c0.4,0.2,1,0.3,1.4,0.1l1.5,1.7c0.2,0.3,0.5,0.4,0.8,0.4
			c0.1,0,0.3,0,0.4,0c0.4-0.1,0.7-0.4,0.7-0.8l0.7-4.4l5.4-4.2l6.6,11.3c0.4,0.6,1,1.1,1.7,1.2c0.1,0,0.1,0,0.2,0
			c1.3,0.1,2.5-1,2.5-2.3c0-0.2,0-0.5-0.1-0.7L27,26.2l1.4-1.2c0.7-0.6,0.7-1.7,0.1-2.4c-0.3-0.3-0.7-0.5-1.1-0.6
			c-0.4,0-0.9,0.1-1.2,0.4l0,0l-0.3-1.4l1.2-1.1c0.7-0.6,0.7-1.7,0.1-2.4c-0.3-0.3-0.7-0.5-1.1-0.6c-0.4,0-0.8,0.1-1.1,0.4l-0.9-4
			l6-4.7c0,0,0,0,0,0C31.7,7.1,31.9,4.6,30.4,2.9z M14.3,5.2C14.6,5,14.9,5,15.2,5.3c0.1,0.1,0.2,0.3,0.1,0.5c0,0.2-0.1,0.3-0.2,0.4
			l-0.3,0.3L13.5,6L14.3,5.2z M9.6,3.3c0.3-0.2,0.6-0.2,0.9,0.1c0.1,0.1,0.2,0.3,0.1,0.5c0,0.2-0.1,0.3-0.2,0.4L10,4.6L8.7,4.2
			L9.6,3.3z M3.6,6.3C3,5.9,2.9,5,3.4,4.4c0.4-0.5,1-0.7,1.5-0.5l4.9,1.8l0,0l9,3.4l-5,5.4L3.6,6.3z M5.6,23.3l-1.4-1.6
			c-0.1-0.1-0.1-0.1-0.1-0.1l0,0l3.2-0.2L5.6,23.3z M9.5,27.7c-0.1,0-0.1,0-0.2-0.1L7.9,26l2.1-1.6L9.5,27.7z M26.9,23.2
			c0.1-0.1,0.3-0.2,0.5-0.2c0.2,0,0.3,0.1,0.4,0.2c0.2,0.3,0.2,0.7-0.1,0.9l-0.9,0.9l-0.3-1.4L26.9,23.2z M25.6,18.2
			c0.1-0.1,0.3-0.2,0.4-0.2l0,0c0.2,0,0.3,0.1,0.4,0.2c0.2,0.3,0.2,0.7-0.1,0.9l-0.8,0.7l-0.3-1.4L25.6,18.2z M25.3,23.7L25.3,23.7
			l1.2,5.3c0.2,0.8-0.3,1.5-1,1.7C25,30.7,24.4,30.5,24,30l-6.7-11.4l5.8-4.5L25.3,23.7z M29.4,7.8L29.4,7.8l-19,14.9c0,0,0,0,0,0
			l-3.5,2.8c-0.3,0.2-0.8,0.2-1-0.1c-0.2-0.3-0.2-0.7,0.1-0.9L9,21.1c0,0,0,0,0,0L25.6,3.4c1.2-1.1,3-1,4.1,0.2
			C30.7,4.8,30.6,6.7,29.4,7.8z"/>
	</g>
</g>
</svg>
