<svg xmlns="http://www.w3.org/2000/svg" id="Layer_1" viewBox="0 0 32 32"><style>.st0{fill:#009999;}</style><path id="XMLID_17_" d="M9.1 6.9c1.5 0 2.8-1.6 2.8-3.6s-1.3-3.6-3-3.6-2.8 1.7-2.8 3.6 1.4 3.6 3 3.6zm0-6.1c1 0 2 1.1 2 2.5s-1 2.6-2 2.6-2.2-1.1-2.2-2.5 1-2.6 2-2.6h.2z" class="st0"/><ellipse id="XMLID_16_" cx="9" cy="12.9" class="st0" rx=".4" ry=".5"/><ellipse id="XMLID_15_" cx="9" cy="15" class="st0" rx=".4" ry=".5"/><ellipse id="XMLID_14_" cx="9" cy="16.9" class="st0" rx=".4" ry=".5"/><ellipse id="XMLID_13_" cx="9" cy="19" class="st0" rx=".4" ry=".5"/><path id="XMLID_10_" d="M22.1 8.9c1.5 0 2.8-1.6 2.8-3.6s-1.3-3.4-3-3.4c-1.4 0-2.8 1.4-2.8 3.2s1.3 3.6 3 3.6v.2zm0-5.9c1 0 2 1.1 2 2.4s-1 2.5-2 2.5c-1.3 0-2.2-1.1-2.2-2.5s1-2.5 2-2.5l.2.1z" class="st0"/><path id="XMLID_2_" d="M27.8 22.1c-.2-1.3-1-2.2-2-2.9-.8-.5-1.4-1.6-1.4-2.8h1.7c.3 0 .5-.2.5-.5V5.2c0-3-2-5.4-4.6-5.4s-4.7 2.4-4.7 5.4v6.5l-2 2.4v-3.4c0-1.5-1-2.6-2.2-2.6h-2.6l-1.4.7L7.5 8H4.8c-1.2 0-2 1.1-2 2.5v8.9c0 .3 0 .5.3.5h2v9.7c0 1.1 1 2.4 2.2 2.4h3.4c1.2 0 2-1.1 2-2.5v-9.7h2.4c.2 0 .4 0 .4-.4v-.8l3.5-4.3c.2.5.4.9.7 1.1v.4c.2 1.4-.4 2.8-1.5 3.2-1 .6-1.7 1.7-2 3l-1.8 9.4v.4h15.1v-.5l-1.6-9.5-.1.3zm-17.7-13v.9l-.6-.4.7-.3-.1-.2zm-2.4 0l.7.4-.7.5V9.1zm6.7 9.7h-1.7v-7.5h-.8v18.3c0 .8-.6 1.4-1.3 1.4H9.4v-8.6h.4v-.9H8.1v1.1h.4V31H7.3c-.7 0-1.3-.6-1.3-1.5V11.4h-.9V19H3.6v-8.6c0-.8.6-1.4 1.3-1.4h2v2.2l.3.3h.4l1.5-.8 1.4 1.1h.2s.2 0 .2-.2l.2-.4V8.9h2c.8 0 1.4.8 1.4 1.6V19l-.1-.2zm1-3.2l2.7-3.2v-7c0-2.6 2-4.5 4-4.5s3.7 2.2 3.7 4.5v10h-1.3c.5-.4 1-1.1 1-2.2 0-1.3-1-2.4-2.2-2.4-.5 0-1 .2-1.3.5-.5-.3-1-.5-1.4-.5-1 0-2 1.1-2 2.2l-3.5 4.3v-1.7h.3zm5.3-3.7c.4 0 .7.2 1 .5 0 .2.4.2.5 0 .3-.3.7-.5 1-.5.7 0 1.3.6 1.3 1.5s-.6 1.5-1.3 1.5c-.4 0-.7 0-1-.4 0 0 0-.2-.2-.2 0 0-.2 0-.3.2-.2.3-.6.5-1 .5-.6 0-1.2-.5-1.2-1.4 0-.9.6-1.5 1.3-1.5l-.1-.2zM15.4 31l1.7-8.6c.2-1.1.7-1.8 1.4-2.2 1.3-.9 2-2.6 2-4.3h.2c.5 0 1-.2 1.3-.5.3.3.7.5 1.2.5h.3c0 1.7.6 3.4 2 4.3.6.3 1.2 1.1 1.3 2.2l1.7 8.6H15.4z" class="st0"/></svg>