<?xml version="1.0" encoding="utf-8"?>
<!-- Generator: Adobe Illustrator 19.0.0, SVG Export Plug-In . SVG Version: 6.00 Build 0)  -->
<svg version="1.1" id="Layer_1" xmlns="http://www.w3.org/2000/svg" xmlns:xlink="http://www.w3.org/1999/xlink" x="0px" y="0px"
	 viewBox="0 0 32 32" style="enable-background:new 0 0 32 32;" xml:space="preserve">
<style type="text/css">
	.st0{fill:#008080;}
</style>
<path id="XMLID_20_" class="st0" d="M9.4,23H5.9c-0.3,0-0.6,0.2-0.6,0.5v3.2c0,0.3,0.3,0.5,0.6,0.5h3.4c0.3,0,0.6-0.2,0.6-0.5v-3.2
	C9.9,23.2,9.7,23,9.4,23z M8.8,26.2H6.5v-2.2h2.3V26.2z M21.9,21.9h3.4c0.3,0,0.6-0.2,0.6-0.5v-3.2c0-0.3-0.3-0.5-0.6-0.5h-3.4
	c-0.3,0-0.6,0.2-0.6,0.5v3.2C21.4,21.7,21.6,21.9,21.9,21.9z M22.5,18.7h2.3v2.2h-2.3V18.7z M21.9,16.5h3.4c0.3,0,0.6-0.2,0.6-0.5
	v-3.2c0-0.3-0.3-0.5-0.6-0.5h-3.4c-0.3,0-0.6,0.2-0.6,0.5V16C21.4,16.3,21.6,16.5,21.9,16.5z M22.5,13.3h2.3v2.2h-2.3V13.3z
	 M21.9,27.3h3.4c0.3,0,0.6-0.2,0.6-0.5v-3.2c0-0.3-0.3-0.5-0.6-0.5h-3.4c-0.3,0-0.6,0.2-0.6,0.5v3.2C21.4,27.1,21.6,27.3,21.9,27.3z
	 M22.5,24.1h2.3v2.2h-2.3V24.1z"/>
<path id="XMLID_12_" class="st0" d="M28.8,11.1c0.3,0,0.6-0.2,0.6-0.5V8.4c0-0.3-0.3-0.5-0.6-0.5h-2.9V6.2c0-0.3-0.3-0.5-0.6-0.5
	H5.9c-0.3,0-0.6,0.2-0.6,0.5v1.6H2.5c-0.3,0-0.6,0.2-0.6,0.5v2.2c0,0.3,0.3,0.5,0.6,0.5h0.6v17.3H2.5c-0.3,0-0.6,0.2-0.6,0.5v2.2
	c0,0.3,0.3,0.5,0.6,0.5h26.3c0.3,0,0.6-0.2,0.6-0.5v-2.2c0-0.3-0.3-0.5-0.6-0.5h-0.6V11.1H28.8z M6.5,6.8h18.3v1.1H6.5V6.8z
	 M28.2,30.6H3.1v-1.1h25.1V30.6z M17.4,23h-3.4c-0.3,0-0.6,0.2-0.6,0.5v4.9H4.2V11.1h22.9v17.3h-9.1v-4.9C17.9,23.2,17.7,23,17.4,23
	z M16.8,24.1v4.3h-2.3v-4.3H16.8z M3.1,10V8.9h25.1V10H3.1z"/>
<path id="XMLID_3_" class="st0" d="M17.9,18.1c0-0.3-0.3-0.5-0.6-0.5h-3.4c-0.3,0-0.6,0.2-0.6,0.5v3.2c0,0.3,0.3,0.5,0.6,0.5h3.4
	c0.3,0,0.6-0.2,0.6-0.5V18.1z M16.8,20.8h-2.3v-2.2h2.3V20.8z M13.9,16.5h3.4c0.3,0,0.6-0.2,0.6-0.5v-3.2c0-0.3-0.3-0.5-0.6-0.5
	h-3.4c-0.3,0-0.6,0.2-0.6,0.5V16C13.4,16.3,13.6,16.5,13.9,16.5L13.9,16.5z M14.5,13.3h2.3v2.2h-2.3V13.3z M9.4,12.2H5.9
	c-0.3,0-0.6,0.2-0.6,0.5V16c0,0.3,0.3,0.5,0.6,0.5h3.4c0.3,0,0.6-0.2,0.6-0.5v-3.2C9.9,12.4,9.7,12.2,9.4,12.2z M8.8,15.4H6.5v-2.2
	h2.3V15.4z M9.4,17.6H5.9c-0.3,0-0.6,0.2-0.6,0.5v3.2c0,0.3,0.3,0.5,0.6,0.5h3.4c0.3,0,0.6-0.2,0.6-0.5v-3.2
	C9.9,17.8,9.7,17.6,9.4,17.6z M8.8,20.8H6.5v-2.2h2.3V20.8z"/>
<path id="XMLID_18_" class="st0" d="M14.8,0.2l0.5,2h1.8l-1.4,1.3l0.5,2l-1.4-1.2l-1.4,1.2l0.5-2l-1.4-1.2h1.8
	C14.2,2.3,14.8,0.2,14.8,0.2z"/>
</svg>
