<?xml version="1.0" encoding="utf-8"?>
<!-- Generator: Adobe Illustrator 19.0.0, SVG Export Plug-In . SVG Version: 6.00 Build 0)  -->
<svg version="1.1" id="Layer_1" xmlns="http://www.w3.org/2000/svg" xmlns:xlink="http://www.w3.org/1999/xlink" x="0px" y="0px"
	 viewBox="240 -240 512 512" style="enable-background:new 240 -240 512 512;" xml:space="preserve">
<style type="text/css">
	.st0{fill:#008080;}
</style>
<path class="st0" d="M400,128h-52.4c-4.8,0-8.7,3.8-8.7,8.5v51c0,4.7,3.9,8.5,8.7,8.5H400c4.8,0,8.7-3.8,8.7-8.5v-51
	C408.7,131.8,404.8,128,400,128z M391.3,179h-34.9v-34h34.9V179z M592,111h52.4c4.8,0,8.7-3.8,8.7-8.5v-51c0-4.7-3.9-8.5-8.7-8.5
	H592c-4.8,0-8.7,3.8-8.7,8.5v51C583.3,107.2,587.2,111,592,111z M600.8,60h34.9v34h-34.9V60z M592,26h52.4c4.8,0,8.7-3.8,8.7-8.5
	v-51c0-4.7-3.9-8.5-8.7-8.5H592c-4.8,0-8.7,3.8-8.7,8.5v51C583.3,22.2,587.2,26,592,26z M600.8-25h34.9V9h-34.9V-25z M592,196h52.4
	c4.8,0,8.7-3.8,8.7-8.5v-51c0-4.7-3.9-8.5-8.7-8.5H592c-4.8,0-8.7,3.8-8.7,8.5v51C583.3,192.2,587.2,196,592,196z M600.8,145h34.9
	v34h-34.9V145z"/>
<path class="st0" d="M696.8-59c4.8,0,8.7-3.8,8.7-8.5v-34c0-4.7-3.9-8.5-8.7-8.5h-43.6v-25.5c0-4.7-3.9-8.5-8.7-8.5H347.6
	c-4.8,0-8.7,3.8-8.7,8.5v25.5h-43.6c-4.8,0-8.7,3.8-8.7,8.5v34c0,4.7,3.9,8.5,8.7,8.5h8.7v272h-8.7c-4.8,0-8.7,3.8-8.7,8.5v34
	c0,4.7,3.9,8.5,8.7,8.5h401.5c4.8,0,8.7-3.8,8.7-8.5v-34c0-4.7-3.9-8.5-8.7-8.5H688V-59H696.8z M356.3-127h279.3v17H356.3V-127z
	 M688,247H304v-17H688L688,247z M522.2,128h-52.4c-4.8,0-8.7,3.8-8.7,8.5V213H321.4V-59h349.2v272H530.9v-76.5
	C530.9,131.8,527,128,522.2,128z M513.5,145v68h-35v-68H513.5z M304-76v-17H688v17H304z"/>
<path class="st0" d="M530.9,51.5c0-4.7-3.9-8.5-8.7-8.5h-52.4c-4.8,0-8.7,3.8-8.7,8.5v51c0,4.7,3.9,8.5,8.7,8.5h52.4
	c4.8,0,8.7-3.8,8.7-8.5V51.5z M513.5,94h-35V60h35V94z M469.8,26h52.4c4.8,0,8.7-3.8,8.7-8.5v-51c0-4.7-3.9-8.5-8.7-8.5h-52.4
	c-4.8,0-8.7,3.8-8.7,8.5v51C461.1,22.2,465,26,469.8,26L469.8,26z M478.5-25h35V9h-35V-25z M400-42h-52.4c-4.8,0-8.7,3.8-8.7,8.5v51
	c0,4.7,3.9,8.5,8.7,8.5H400c4.8,0,8.7-3.8,8.7-8.5v-51C408.7-38.2,404.8-42,400-42z M391.3,9h-34.9v-34h34.9V9z M400,43h-52.4
	c-4.8,0-8.7,3.8-8.7,8.5v51c0,4.7,3.9,8.5,8.7,8.5H400c4.8,0,8.7-3.8,8.7-8.5v-51C408.7,46.8,404.8,43,400,43z M391.3,94h-34.9V60
	h34.9V94z"/>
<path id="XMLID_18_" class="st0" d="M482.4-234l8.1,31.2h27L495.9-182l8.1,31.2l-21.6-19.1l-21.6,19.1l8.1-31.2l-21.6-19.1h27
	C474.1-201.1,482.4-234,482.4-234z"/>
</svg>
