<svg xmlns="http://www.w3.org/2000/svg" id="Layer_1" viewBox="0 0 32 32"><style>.st0{fill:#008080;}</style><path id="XMLID_17_" d="M21.4 11.6h3.4v4.3h4.6V32H3V15.9h4.6v-4.3H11V6.3h10.3v5.3zm-5.8 15h-2.3v4.3h2.3v-4.3zm3.5 0h-2.3v4.3h2.3v-4.3zm0-18.2h-5.7v5.4H9.9v4.3H5.3v11.8H11v-5.4h10.3v5.4H27V18.1h-4.6v-4.3H19V8.4zm-11.5 15h2.3v2.1H7.6v-2.1zm17.2 0v2.1h-2.3v-2.1h2.3zm-12.6-2.1h2.3v2.1h-2.3v-2.1zm5.7 0h2.3v2.1h-2.3v-2.1zM7.6 20.2h2.3v2.1H7.6v-2.1zm14.9 0h2.3v2.1h-2.3v-2.1zm-10.3-2.1h2.3v2.1h-2.3v-2.1zm5.7 0h2.3v2.1h-2.3v-2.1zm-5.7-3.3h2.3V17h-2.3v-2.2zm5.7 0h2.3V17h-2.3v-2.2zm-2.3-4.2h1.1V9.5h1.1v3.2h-1.1v-1.1h-1.1v1.1h-1.1V9.5h1.1v1.1z" class="st0"/><path id="XMLID_18_" d="M16.1.2l.6 1.8h2l-1.6 1.1.6 1.9-1.6-1.1L14.5 5l.6-1.8-1.6-1.1h2l.6-1.9z" class="st0"/></svg>