<?xml version="1.0" encoding="utf-8"?>
<!-- Generator: Adobe Illustrator 19.0.0, SVG Export Plug-In . SVG Version: 6.00 Build 0)  -->
<svg version="1.1" id="Layer_1" xmlns="http://www.w3.org/2000/svg" xmlns:xlink="http://www.w3.org/1999/xlink" x="0px" y="0px"
	 viewBox="0 0 32 32" style="enable-background:new 0 0 32 32;" xml:space="preserve">
<style type="text/css">
	.st0{fill:#008080;}
</style>
<path id="XMLID_22_" class="st0" d="M9.2,24H5.7c-0.3,0-0.6,0.2-0.6,0.5v3.3c0,0.3,0.3,0.5,0.6,0.5h3.5c0.3,0,0.6-0.2,0.6-0.5v-3.3
	C9.8,24.3,9.5,24,9.2,24z M8.6,27.3H6.3v-2.2h2.3V27.3z M22.1,22.9h3.5c0.3,0,0.6-0.2,0.6-0.5v-3.3c0-0.3-0.3-0.5-0.6-0.5h-3.5
	c-0.3,0-0.6,0.2-0.6,0.5v3.3C21.5,22.7,21.8,22.9,22.1,22.9z M22.7,19.7H25v2.2h-2.3V19.7z M22.1,17.5h3.5c0.3,0,0.6-0.2,0.6-0.5
	v-3.3c0-0.3-0.3-0.5-0.6-0.5h-3.5c-0.3,0-0.6,0.2-0.6,0.5v3.3C21.5,17.2,21.8,17.5,22.1,17.5z M22.7,14.2H25v2.2h-2.3V14.2z
	 M22.1,28.4h3.5c0.3,0,0.6-0.2,0.6-0.5v-3.3c0-0.3-0.3-0.5-0.6-0.5h-3.5c-0.3,0-0.6,0.2-0.6,0.5v3.3C21.5,28.2,21.8,28.4,22.1,28.4z
	 M22.7,25.1H25v2.2h-2.3V25.1z"/>
<path id="XMLID_13_" class="st0" d="M29.1,11.7c0.3,0,0.6-0.2,0.6-0.5v-2c0-0.3-0.3-0.5-0.6-0.5h-2.9V7.1c0-0.3-0.3-0.5-0.6-0.5H5.7
	c-0.3,0-0.6,0.2-0.6,0.5v1.5H2.2c-0.3,0-0.6,0.2-0.6,0.5v2c0,0.3,0.3,0.5,0.6,0.5h0.6v16.4H2.2c-0.3,0-0.6,0.2-0.6,0.5v2
	c0,0.3,0.3,0.5,0.6,0.5h27c0.3,0,0.6-0.2,0.6-0.5v-2c0-0.3-0.3-0.5-0.6-0.5h-0.6V11.7H29.1z M6.3,7.6H25v1H6.3V7.6z M28.5,30.1H2.7
	v-1h25.8L28.5,30.1z M17.4,22.9h-3.5c-0.3,0-0.6,0.2-0.6,0.5v4.6H3.9V11.7h23.4v16.4H18v-4.6C18,23.2,17.7,22.9,17.4,22.9z M16.8,24
	v4.1h-2.4V24H16.8z M2.7,10.6v-1h25.8v1H2.7z"/>
<path id="XMLID_4_" class="st0" d="M18,19.1c0-0.3-0.3-0.5-0.6-0.5h-3.5c-0.3,0-0.6,0.2-0.6,0.5v3.3c0,0.3,0.3,0.5,0.6,0.5h3.5
	c0.3,0,0.6-0.2,0.6-0.5V19.1z M16.8,21.8h-2.4v-2.2h2.4V21.8z M13.9,17.5h3.5c0.3,0,0.6-0.2,0.6-0.5v-3.3c0-0.3-0.3-0.5-0.6-0.5
	h-3.5c-0.3,0-0.6,0.2-0.6,0.5v3.3C13.3,17.2,13.6,17.5,13.9,17.5L13.9,17.5z M14.5,14.2h2.4v2.2h-2.4V14.2z M9.2,13.1H5.7
	c-0.3,0-0.6,0.2-0.6,0.5v3.3c0,0.3,0.3,0.5,0.6,0.5h3.5c0.3,0,0.6-0.2,0.6-0.5v-3.3C9.8,13.3,9.5,13.1,9.2,13.1z M8.6,16.4H6.3v-2.2
	h2.3V16.4z M9.2,18.6H5.7c-0.3,0-0.6,0.2-0.6,0.5v3.3c0,0.3,0.3,0.5,0.6,0.5h3.5c0.3,0,0.6-0.2,0.6-0.5v-3.3
	C9.8,18.8,9.5,18.6,9.2,18.6z M8.6,21.8H6.3v-2.2h2.3V21.8z"/>
<path id="XMLID_18_" class="st0" d="M17.8,0.5l0.5,2h1.8l-1.5,1.3l0.5,2l-1.5-1.2l-1.5,1.2l0.5-2l-1.5-1.2h1.8
	C17.3,2.6,17.8,0.5,17.8,0.5z"/>
<path id="XMLID_19_" class="st0" d="M12.8,0.5l0.5,2h1.8l-1.5,1.3l0.5,2l-1.5-1.2l-1.4,1.2l0.6-2l-1.5-1.3h1.8L12.8,0.5z"/>
</svg>
