<?xml version="1.0" encoding="utf-8"?>
<!-- Generator: Adobe Illustrator 19.0.0, SVG Export Plug-In . SVG Version: 6.00 Build 0)  -->
<svg version="1.1" id="Layer_1" xmlns="http://www.w3.org/2000/svg" xmlns:xlink="http://www.w3.org/1999/xlink" x="0px" y="0px"
	 viewBox="0 0 32 32" style="enable-background:new 0 0 32 32;" xml:space="preserve">
<style type="text/css">
	.st0{fill:#008080;}
</style>
<path id="XMLID_24_" class="st0" d="M9.2,22.9H5.7c-0.3,0-0.6,0.2-0.6,0.5v3.2c0,0.3,0.3,0.5,0.6,0.5h3.4c0.3,0,0.6-0.2,0.6-0.5
	v-3.2C9.7,23.1,9.5,22.9,9.2,22.9z M8.6,26H6.3v-2.1h2.3V26z M21.8,21.8h3.4c0.3,0,0.6-0.2,0.6-0.5v-3.2c0-0.3-0.3-0.5-0.6-0.5h-3.4
	c-0.3,0-0.6,0.2-0.6,0.5v3.2C21.2,21.6,21.5,21.8,21.8,21.8z M22.3,18.7h2.3v2.1h-2.3V18.7z M21.8,16.6h3.4c0.3,0,0.6-0.2,0.6-0.5
	v-3.2c0-0.3-0.3-0.5-0.6-0.5h-3.4c-0.3,0-0.6,0.2-0.6,0.5V16C21.2,16.3,21.5,16.6,21.8,16.6z M22.3,13.4h2.3v2.1h-2.3V13.4z
	 M21.8,27.1h3.4c0.3,0,0.6-0.2,0.6-0.5v-3.2c0-0.3-0.3-0.5-0.6-0.5h-3.4c-0.3,0-0.6,0.2-0.6,0.5v3.2C21.2,26.9,21.5,27.1,21.8,27.1z
	 M22.3,23.9h2.3V26h-2.3V23.9z"/>
<path id="XMLID_14_" class="st0" d="M28.7,11.3c0.3,0,0.6-0.2,0.6-0.5V8.6c0-0.3-0.3-0.5-0.6-0.5h-2.9V6.5c0-0.3-0.3-0.5-0.6-0.5
	H5.7C5.4,6,5.1,6.3,5.1,6.5v1.6H2.3C2,8.1,1.7,8.4,1.7,8.6v2.1c0,0.3,0.3,0.5,0.6,0.5h0.6v16.9H2.3c-0.3,0-0.6,0.2-0.6,0.5v2.1
	c0,0.3,0.3,0.5,0.6,0.5h26.4c0.3,0,0.6-0.2,0.6-0.5v-2.1c0-0.3-0.3-0.5-0.6-0.5h-0.6V11.3H28.7z M6.3,7.1h18.3v1.1H6.3V7.1z
	 M28.1,30.3H2.9v-1.1h25.2L28.1,30.3z M17.2,22.9h-3.4c-0.3,0-0.6,0.2-0.6,0.5v4.7H4V11.3h22.9v16.9h-9.2v-4.7
	C17.8,23.1,17.5,22.9,17.2,22.9z M16.6,23.9v4.2h-2.3v-4.2H16.6z M2.9,10.2V9.2h25.2v1.1H2.9z"/>
<path id="XMLID_5_" class="st0" d="M17.8,18.1c0-0.3-0.3-0.5-0.6-0.5h-3.4c-0.3,0-0.6,0.2-0.6,0.5v3.2c0,0.3,0.3,0.5,0.6,0.5h3.4
	c0.3,0,0.6-0.2,0.6-0.5V18.1z M16.6,20.8h-2.3v-2.1h2.3V20.8z M13.7,16.6h3.4c0.3,0,0.6-0.2,0.6-0.5v-3.2c0-0.3-0.3-0.5-0.6-0.5
	h-3.4c-0.3,0-0.6,0.2-0.6,0.5V16C13.2,16.3,13.4,16.6,13.7,16.6L13.7,16.6z M14.3,13.4h2.3v2.1h-2.3V13.4z M9.2,12.3H5.7
	c-0.3,0-0.6,0.2-0.6,0.5V16c0,0.3,0.3,0.5,0.6,0.5h3.4c0.3,0,0.6-0.2,0.6-0.5v-3.2C9.7,12.6,9.5,12.3,9.2,12.3z M8.6,15.5H6.3v-2.1
	h2.3V15.5z M9.2,17.6H5.7c-0.3,0-0.6,0.2-0.6,0.5v3.2c0,0.3,0.3,0.5,0.6,0.5h3.4c0.3,0,0.6-0.2,0.6-0.5v-3.2
	C9.7,17.8,9.5,17.6,9.2,17.6z M8.6,20.8H6.3v-2.1h2.3V20.8z"/>
<path id="XMLID_18_" class="st0" d="M20.4,0l0.5,1.9h1.8l-1.4,1.3l0.5,1.9L20.4,4l-1.4,1.2l0.5-1.9L18,2h1.8C19.8,2,20.4,0,20.4,0z"
	/>
<path id="XMLID_19_" class="st0" d="M15.5,0L16,1.9h1.8l-1.5,1.3l0.5,1.9L15.4,4L14,5.2l0.5-1.9l-1.4-1.3h1.8L15.5,0z"/>
<path id="XMLID_21_" class="st0" d="M10.4,0l0.5,1.9h1.8l-1.4,1.3l0.5,1.9L10.4,4L9,5.2l0.5-1.9L8.1,1.9h1.8L10.4,0z"/>
</svg>
