<?xml version="1.0" encoding="utf-8"?>
<!-- Generator: Adobe Illustrator 19.0.0, SVG Export Plug-In . SVG Version: 6.00 Build 0)  -->
<svg version="1.1" id="Layer_1" xmlns="http://www.w3.org/2000/svg" xmlns:xlink="http://www.w3.org/1999/xlink" x="0px" y="0px"
	 viewBox="0 0 32 32" style="enable-background:new 0 0 32 32;" xml:space="preserve">
<style type="text/css">
	.st0{fill:#008080;}
</style>
<path id="XMLID_26_" class="st0" d="M8.8,22.9H5.1c-0.3,0-0.6,0.2-0.6,0.5v3.1c0,0.3,0.3,0.5,0.6,0.5h3.7c0.3,0,0.6-0.2,0.6-0.5
	v-3.1C9.4,23.1,9.1,22.9,8.8,22.9z M8.2,26H5.7v-2h2.4V26z M22.3,21.9H26c0.3,0,0.6-0.2,0.6-0.5v-3.1c0-0.3-0.3-0.5-0.6-0.5h-3.7
	c-0.3,0-0.6,0.2-0.6,0.5v3.1C21.7,21.6,21.9,21.9,22.3,21.9z M22.9,18.8h2.4v2h-2.4V18.8z M22.3,16.8H26c0.3,0,0.6-0.2,0.6-0.5v-3.1
	c0-0.3-0.3-0.5-0.6-0.5h-3.7c-0.3,0-0.6,0.2-0.6,0.5v3.1C21.7,16.5,21.9,16.8,22.3,16.8z M22.9,13.7h2.4v2h-2.4V13.7z M22.3,27H26
	c0.3,0,0.6-0.2,0.6-0.5v-3.1c0-0.3-0.3-0.5-0.6-0.5h-3.7c-0.3,0-0.6,0.2-0.6,0.5v3.1C21.7,26.8,21.9,27,22.3,27z M22.9,23.9h2.4v2
	h-2.4V23.9z"/>
<path id="XMLID_15_" class="st0" d="M29.6,11.7c0.3,0,0.6-0.2,0.6-0.5v-2c0-0.3-0.3-0.5-0.6-0.5h-3.1V7.1c0-0.3-0.3-0.5-0.6-0.5H5.1
	c-0.3,0-0.6,0.2-0.6,0.5v1.5H1.5c-0.3,0-0.6,0.2-0.6,0.5v2c0,0.3,0.3,0.5,0.6,0.5h0.6V28H1.5c-0.3,0-0.6,0.2-0.6,0.5v2
	c0,0.3,0.3,0.5,0.6,0.5h28.2c0.3,0,0.6-0.2,0.6-0.5v-2c0-0.3-0.3-0.5-0.6-0.5H29V11.7H29.6z M5.7,7.6h19.6v1H5.7V7.6z M29,30h-27v-1
	h27L29,30z M17.4,22.9h-3.7c-0.3,0-0.6,0.2-0.6,0.5V28H3.3V11.7h24.5V28H18v-4.6C18,23.1,17.7,22.9,17.4,22.9z M16.8,23.9V28h-2.5
	v-4.1H16.8z M2.1,10.6v-1h27v1H2.1z"/>
<path id="XMLID_6_" class="st0" d="M18,18.3c0-0.3-0.3-0.5-0.6-0.5h-3.7c-0.3,0-0.6,0.2-0.6,0.5v3.1c0,0.3,0.3,0.5,0.6,0.5h3.7
	c0.3,0,0.6-0.2,0.6-0.5V18.3z M16.8,20.9h-2.5v-2h2.5V20.9z M13.7,16.8h3.7c0.3,0,0.6-0.2,0.6-0.5v-3.1c0-0.3-0.3-0.5-0.6-0.5h-3.7
	c-0.3,0-0.6,0.2-0.6,0.5v3.1C13.1,16.5,13.4,16.8,13.7,16.8L13.7,16.8z M14.3,13.7h2.5v2h-2.5V13.7z M8.8,12.7H5.1
	c-0.3,0-0.6,0.2-0.6,0.5v3.1c0,0.3,0.3,0.5,0.6,0.5h3.7c0.3,0,0.6-0.2,0.6-0.5v-3.1C9.4,12.9,9.1,12.7,8.8,12.7z M8.2,15.7H5.7v-2
	h2.4V15.7z M8.8,17.8H5.1c-0.3,0-0.6,0.2-0.6,0.5v3.1c0,0.3,0.3,0.5,0.6,0.5h3.7c0.3,0,0.6-0.2,0.6-0.5v-3.1
	C9.4,18,9.1,17.8,8.8,17.8z M8.2,20.9H5.7v-2h2.4V20.9z"/>
<path id="XMLID_18_" class="st0" d="M17.9,0.6l0.6,1.9h1.9l-1.5,1.3l0.6,1.9l-1.5-1.2l-1.5,1.2L17,3.8l-1.5-1.2h1.9L17.9,0.6z"/>
<path id="XMLID_16_" class="st0" d="M23,0.6l0.6,1.9h1.9l-1.5,1.3l0.6,1.9L23,4.5l-1.5,1.2L22,3.8l-1.5-1.2h1.9
	C22.4,2.6,23,0.6,23,0.6L23,0.6z"/>
<path id="XMLID_19_" class="st0" d="M12.8,0.6l0.6,1.9h1.9l-1.6,1.3l0.6,1.9l-1.5-1.2l-1.4,1.2l0.6-1.9l-1.5-1.3h1.9L12.8,0.6z"/>
<path id="XMLID_21_" class="st0" d="M7.5,0.6l0.6,1.9h1.9L8.4,3.8L9,5.7L7.5,4.5L6,5.7l0.6-1.9L5.1,2.5h1.9L7.5,0.6L7.5,0.6z"/>
</svg>
