<?xml version="1.0" encoding="utf-8"?>
<!-- Generator: Adobe Illustrator 19.0.0, SVG Export Plug-In . SVG Version: 6.00 Build 0)  -->
<svg version="1.1" id="Layer_1" xmlns="http://www.w3.org/2000/svg" xmlns:xlink="http://www.w3.org/1999/xlink" x="0px" y="0px"
	 viewBox="240 -240 512 512" style="enable-background:new 240 -240 512 512;" xml:space="preserve">
<style type="text/css">
	.st0{fill:#008080;}
</style>
<g>
	<g>
		<g>
			<path class="st0" d="M403.5,136h-52.4c-4.8,0-8.7,3.8-8.7,8.5v51c0,4.7,3.9,8.5,8.7,8.5h52.4c4.8,0,8.7-3.8,8.7-8.5v-51
				C412.2,139.8,408.3,136,403.5,136z M394.8,187h-34.9v-34h34.9V187z"/>
			<path class="st0" d="M595.5,119h52.4c4.8,0,8.7-3.8,8.7-8.5v-51c0-4.7-3.9-8.5-8.7-8.5h-52.4c-4.8,0-8.7,3.8-8.7,8.5v51
				C586.8,115.2,590.7,119,595.5,119z M604.3,68h34.9v34h-34.9V68z"/>
			<path class="st0" d="M595.5,34h52.4c4.8,0,8.7-3.8,8.7-8.5v-51c0-4.7-3.9-8.5-8.7-8.5h-52.4c-4.8,0-8.7,3.8-8.7,8.5v51
				C586.8,30.2,590.7,34,595.5,34z M604.3-17h34.9v34h-34.9V-17z"/>
			<path class="st0" d="M595.5,204h52.4c4.8,0,8.7-3.8,8.7-8.5v-51c0-4.7-3.9-8.5-8.7-8.5h-52.4c-4.8,0-8.7,3.8-8.7,8.5v51
				C586.8,200.2,590.7,204,595.5,204z M604.3,153h34.9v34h-34.9V153z"/>
			<path class="st0" d="M700.3-51c4.8,0,8.7-3.8,8.7-8.5v-34c0-4.7-3.9-8.5-8.7-8.5h-43.6v-25.5c0-4.7-3.9-8.5-8.7-8.5H351.1
				c-4.8,0-8.7,3.8-8.7,8.5v25.5h-43.6c-4.8,0-8.7,3.8-8.7,8.5v34c0,4.7,3.9,8.5,8.7,8.5h8.7v272h-8.7c-4.8,0-8.7,3.8-8.7,8.5v34
				c0,4.7,3.9,8.5,8.7,8.5h401.5c4.8,0,8.7-3.8,8.7-8.5v-34c0-4.7-3.9-8.5-8.7-8.5h-8.7V-51H700.3z M359.8-119h279.3v17H359.8V-119z
				 M691.5,255H307.5v-17h384.1L691.5,255L691.5,255z M525.7,136h-52.4c-4.8,0-8.7,3.8-8.7,8.5V221H324.9V-51h349.2v272H534.4v-76.5
				C534.4,139.8,530.5,136,525.7,136z M517,153v68H482v-68H517z M307.5-68v-17h384.1v17H307.5z"/>
			<path class="st0" d="M534.4,59.5c0-4.7-3.9-8.5-8.7-8.5h-52.4c-4.8,0-8.7,3.8-8.7,8.5v51c0,4.7,3.9,8.5,8.7,8.5h52.4
				c4.8,0,8.7-3.8,8.7-8.5V59.5z M517,102H482V68H517V102z"/>
			<path class="st0" d="M473.3,34h52.4c4.8,0,8.7-3.8,8.7-8.5v-51c0-4.7-3.9-8.5-8.7-8.5h-52.4c-4.8,0-8.7,3.8-8.7,8.5v51
				C464.6,30.2,468.5,34,473.3,34z M482-17H517v34H482L482-17L482-17z"/>
			<path class="st0" d="M403.5-34h-52.4c-4.8,0-8.7,3.8-8.7,8.5v51c0,4.7,3.9,8.5,8.7,8.5h52.4c4.8,0,8.7-3.8,8.7-8.5v-51
				C412.2-30.2,408.3-34,403.5-34z M394.8,17h-34.9v-34h34.9V17z"/>
			<path class="st0" d="M403.5,51h-52.4c-4.8,0-8.7,3.8-8.7,8.5v51c0,4.7,3.9,8.5,8.7,8.5h52.4c4.8,0,8.7-3.8,8.7-8.5v-51
				C412.2,54.8,408.3,51,403.5,51z M394.8,102h-34.9V68h34.9V102z"/>
		</g>
	</g>
</g>
<path id="XMLID_18_" class="st0" d="M533.5-235.9l8,31.9H568l-21.2,21.3l8,31.9l-21.2-19.5l-21.2,19.5l8-31.9L499-202.3h26.5
	C525.5-202.3,533.5-235.9,533.5-235.9z"/>
<path id="XMLID_16_" class="st0" d="M605.2-235.9l8,31.9h26.5l-21.2,21.3l8,31.9l-21.2-19.5l-21.2,19.5l8-31.9l-21.2-19.5h26.5
	C597.2-202.3,605.2-235.9,605.2-235.9z"/>
<path id="XMLID_19_" class="st0" d="M460.5-235.9l8,31.9H495l-22.6,21.3l8,31.9l-21.2-19.5l-19.9,19.5l8-31.9L426-204h26.5
	L460.5-235.9z"/>
<path id="XMLID_21_" class="st0" d="M384.8-235.9l8,31.9h26.5l-21.2,21.3l8,31.9l-21.2-19.5l-21.2,19.5l8-31.9L350.3-204h26.5
	L384.8-235.9z"/>
</svg>
