<?xml version="1.0" encoding="utf-8"?>
<!-- Generator: Adobe Illustrator 19.0.0, SVG Export Plug-In . SVG Version: 6.00 Build 0)  -->
<svg version="1.1" id="Layer_1" xmlns="http://www.w3.org/2000/svg" xmlns:xlink="http://www.w3.org/1999/xlink" x="0px" y="0px"
	 viewBox="0 0 32 32" style="enable-background:new 0 0 32 32;" xml:space="preserve">
<style type="text/css">
	.st0{fill:#008080;}
</style>
<path id="XMLID_28_" class="st0" d="M9.5,23.1H6.2c-0.3,0-0.5,0.2-0.5,0.5v3.1c0,0.3,0.2,0.5,0.5,0.5h3.3c0.3,0,0.5-0.2,0.5-0.5
	v-3.1C10,23.4,9.8,23.1,9.5,23.1z M8.9,26.2H6.7v-2.1h2.2V26.2z M21.6,22.1h3.3c0.3,0,0.5-0.2,0.5-0.5v-3.1c0-0.3-0.2-0.5-0.5-0.5
	h-3.3c-0.3,0-0.5,0.2-0.5,0.5v3.1C21.1,21.9,21.3,22.1,21.6,22.1z M22.2,19h2.2v2.1h-2.2V19z M21.6,17h3.3c0.3,0,0.5-0.2,0.5-0.5
	v-3.1c0-0.3-0.2-0.5-0.5-0.5h-3.3c-0.3,0-0.5,0.2-0.5,0.5v3.1C21.1,16.7,21.3,17,21.6,17z M22.2,13.9h2.2v2.1h-2.2V13.9z M21.6,27.3
	h3.3c0.3,0,0.5-0.2,0.5-0.5v-3.1c0-0.3-0.2-0.5-0.5-0.5h-3.3c-0.3,0-0.5,0.2-0.5,0.5v3.1C21.1,27,21.3,27.3,21.6,27.3z M22.2,24.2
	h2.2v2.1h-2.2V24.2z"/>
<path id="XMLID_20_" class="st0" d="M28.2,11.8c0.3,0,0.5-0.2,0.5-0.5V9.2c0-0.3-0.2-0.5-0.5-0.5h-2.7V7.2c0-0.3-0.2-0.5-0.5-0.5
	H6.2c-0.3,0-0.5,0.2-0.5,0.5v1.5H2.9C2.6,8.7,2.3,9,2.3,9.2v2.1c0,0.3,0.2,0.5,0.5,0.5h0.5v16.5H2.9c-0.3,0-0.5,0.2-0.5,0.5v2.1
	c0,0.3,0.2,0.5,0.5,0.5h25.3c0.3,0,0.5-0.2,0.5-0.5v-2.1c0-0.3-0.2-0.5-0.5-0.5h-0.5V11.8H28.2z M6.7,7.7h17.6v1H6.7V7.7z
	 M27.7,30.3H3.4v-1h24.2L27.7,30.3z M17.2,23.1h-3.3c-0.3,0-0.5,0.2-0.5,0.5v4.6H4.5V11.8h22v16.5h-8.8v-4.6
	C17.7,23.4,17.5,23.1,17.2,23.1z M16.7,24.2v4.1h-2.2v-4.1H16.7z M3.4,10.8v-1h24.2v1H3.4z"/>
<path id="XMLID_8_" class="st0" d="M17.7,18.5c0-0.3-0.2-0.5-0.5-0.5h-3.3c-0.3,0-0.5,0.2-0.5,0.5v3.1c0,0.3,0.2,0.5,0.5,0.5h3.3
	c0.3,0,0.5-0.2,0.5-0.5V18.5z M16.7,21.1h-2.2V19h2.2V21.1z M13.9,17h3.3c0.3,0,0.5-0.2,0.5-0.5v-3.1c0-0.3-0.2-0.5-0.5-0.5h-3.3
	c-0.3,0-0.5,0.2-0.5,0.5v3.1C13.3,16.7,13.6,17,13.9,17L13.9,17z M14.4,13.9h2.2v2.1h-2.2V13.9z M9.5,12.8H6.2
	c-0.3,0-0.5,0.2-0.5,0.5v3.1c0,0.3,0.2,0.5,0.5,0.5h3.3c0.3,0,0.5-0.2,0.5-0.5v-3.1C10,13.1,9.8,12.8,9.5,12.8z M8.9,15.9H6.7v-2.1
	h2.2V15.9z M9.5,18H6.2c-0.3,0-0.5,0.2-0.5,0.5v3.1c0,0.3,0.2,0.5,0.5,0.5h3.3c0.3,0,0.5-0.2,0.5-0.5v-3.1C10,18.2,9.8,18,9.5,18z
	 M8.9,21.1H6.7V19h2.2V21.1z"/>
<path id="XMLID_18_" class="st0" d="M15.7,0.6l0.5,1.9h1.7l-1.3,1.3L17,5.7l-1.3-1.2l-1.3,1.2l0.5-1.9l-1.3-1.2h1.7L15.7,0.6
	L15.7,0.6z"/>
<path id="XMLID_16_" class="st0" d="M20.2,0.6l0.5,1.9h1.7L21,3.8l0.5,1.9l-1.3-1.2l-1.3,1.2l0.5-1.9L18,2.6h1.7
	C19.7,2.6,20.2,0.6,20.2,0.6L20.2,0.6z"/>
<path id="XMLID_19_" class="st0" d="M11.1,0.6l0.5,1.9h1.7l-1.4,1.3l0.5,1.9L11,4.5L9.7,5.7l0.5-1.9L8.9,2.5h1.7L11.1,0.6z"/>
<path id="XMLID_21_" class="st0" d="M6.3,0.6l0.5,1.9h1.7L7.1,3.8l0.5,1.9L6.3,4.5L5,5.7l0.5-1.9L4.1,2.5h1.7L6.3,0.6L6.3,0.6z"/>
<path id="XMLID_1_" class="st0" d="M25.1,0.5l0.5,1.9h1.7l-1.3,1.3l0.5,1.9l-1.3-1.2l-1.3,1.2l0.5-1.9l-1.3-1.2h1.7
	C24.5,2.5,25.1,0.5,25.1,0.5L25.1,0.5z"/>
</svg>
