<svg xmlns="http://www.w3.org/2000/svg" id="Layer_1" viewBox="0 0 32 32">
  <style>
    .st0{fill:#008080;}
  </style>
  <g id="XMLID_2_">
    <path id="XMLID_9_" d="M29.6.9H2.1C.9.9 0 2.1 0 3.7V18c0 .4.2.7.5.7h30.6c.3 0 .5-.3.5-.7V3.7c.1-1.6-.9-2.8-2-2.8zM2.3 2.4h27.1v.9c0 .4-.3.9-.6.9H2.9c-.3-.2-.6-.5-.6-1v-.8zm27.1 11.3H2.3v-.1c0-.4.3-.9.6-.9h25.8c.4.2.7.5.7 1zm-27.1 1h27.1v.9H2.3v-.9zm0 1.9h27.1v.7H2.3v-.7zm28.3.7h-.5v-3.6c0-1-.6-1.8-1.4-1.8H2.9c-.7 0-1.4.8-1.4 1.8v3.6H1V3.7c0-.6.2-1 .5-1.2v.7c0 1 .6 1.9 1.4 1.9h25.8c.7 0 1.4-.8 1.4-1.8v-.8c.3.2.5.7.5 1.2v13.6z" class="st0"/>
    <path id="XMLID_8_" d="M17.4 10h-3.2c-.2 0-.3.2-.3.4s.1.4.3.4h3.2c.2 0 .3-.2.3-.4.1-.2-.1-.4-.3-.4z" class="st0"/>
    <path id="XMLID_7_" d="M27.9 10c-.1 0-.2 0-.2.1-.1.1-.1.2-.1.3 0 .1 0 .2.1.3s.1.1.2.1.2 0 .2-.1c.1-.1.1-.2.1-.3 0-.1 0-.2-.1-.3 0 0-.1-.1-.2-.1z" class="st0"/>
    <path id="XMLID_6_" d="M26.4 10c-.1 0-.2 0-.2.1-.2.1-.2.2-.2.3 0 .1 0 .2.1.3s.1.1.2.1.2 0 .2-.1c.1-.1.1-.2.1-.3 0-.1 0-.2-.1-.3 0 0 0-.1-.1-.1z" class="st0"/>
    <path id="XMLID_5_" d="M13 21.8c.1-.2 0-.6-.1-.7-.2-.1-.4 0-.5.2-.6 1.5-.6 3.4 0 5 .5 1.2.5 2.8 0 4-.1.2 0 .6.1.7.1 0 .1.1.2.1s.2-.1.3-.2c.6-1.5.6-3.4 0-5-.5-1.3-.5-2.9 0-4.1z" class="st0"/>
    <path id="XMLID_4_" d="M16.1 21.8c.1-.2 0-.6-.1-.7-.2-.1-.4 0-.5.2-.6 1.5-.6 3.4 0 5 .5 1.2.5 2.8 0 4-.1.2 0 .6.1.7.1 0 .1.1.2.1s.2-.1.3-.2c.6-1.5.6-3.4 0-5-.5-1.3-.5-2.9 0-4.1z" class="st0"/>
    <path id="XMLID_3_" d="M19.3 21.8c.1-.2 0-.6-.1-.7-.2-.1-.4 0-.5.2-.6 1.5-.6 3.4 0 5 .5 1.2.5 2.8 0 4-.1.2 0 .6.1.7.1 0 .1.1.2.1s.2-.1.3-.2c.6-1.5.6-3.4 0-5-.5-1.3-.5-2.9 0-4.1z" class="st0"/>
  </g>
</svg>
