<svg xmlns="http://www.w3.org/2000/svg" id="Layer_1" viewBox="0 0 32 32"><style>.st0{fill:#008080;}</style><g id="XMLID_2_"><path id="XMLID_9_" d="M29.2 2.3H2.8c-1.1 0-2 1.1-2 2.5v12.9c0 .4.2.6.5.6h29.4c.3 0 .5-.3.5-.6V4.8c0-1.4-.9-2.5-2-2.5zM3 3.6h26v.8c0 .4-.3.8-.6.8H3.6c-.3-.1-.6-.4-.6-.8v-.8zm26 10.3H3v-.1c0-.4.3-.8.6-.8h24.8c.3.1.6.4.6.9zm-26 .9h26v.8H3v-.8zm0 1.7h26v.6H3v-.6zm27.2.6h-.5v-3.3c0-.9-.6-1.6-1.3-1.6H3.6c-.7 0-1.3.7-1.3 1.6v3.3h-.5V4.8c0-.5.2-.9.5-1.1v.6c0 .9.6 1.7 1.3 1.7h24.8c.7 0 1.3-.7 1.3-1.6v-.7c.3.2.5.6.5 1.1v12.3z" class="st0"/><path id="XMLID_8_" d="M17.5 10.5h-3.1c-.2 0-.3.2-.3.4s.1.4.3.4h3.1c.2 0 .3-.2.3-.4.1-.2-.1-.4-.3-.4z" class="st0"/><path id="XMLID_7_" d="M27.6 10.5c-.1 0-.2 0-.2.1-.1.1-.1.2-.1.3 0 .1 0 .2.1.3.1.1.1.1.2.1s.2 0 .2-.1c.1-.1.1-.2.1-.3 0-.1 0-.2-.1-.3 0 0-.1-.1-.2-.1z" class="st0"/><path id="XMLID_6_" d="M26.1 10.5c-.1 0-.2 0-.2.1-.1.1-.1.2-.1.3 0 .1 0 .2.1.3.1.1.1.1.2.1s.2 0 .2-.1c.1-.1.1-.2.1-.3 0-.1 0-.2-.1-.3-.1 0-.1-.1-.2-.1z" class="st0"/><path id="XMLID_5_" d="M13.3 21.2c.1-.2 0-.5-.1-.6-.2-.1-.4 0-.5.2-.6 1.4-.6 3.1 0 4.5.5 1.1.5 2.5 0 3.6-.1.2 0 .5.1.6.1 0 .1.1.2.1s.2-.1.3-.2c.6-1.4.6-3.1 0-4.5-.5-1.2-.5-2.6 0-3.7z" class="st0"/><path id="XMLID_4_" d="M16.3 21.2c.1-.2 0-.5-.1-.6-.2-.1-.4 0-.5.2-.6 1.4-.6 3.1 0 4.5.5 1.1.5 2.5 0 3.6-.1.2 0 .5.1.6.1 0 .1.1.2.1s.2-.1.3-.2c.6-1.4.6-3.1 0-4.5-.5-1.2-.5-2.6 0-3.7z" class="st0"/><path id="XMLID_3_" d="M19.3 21.2c.1-.2 0-.5-.1-.6-.2-.1-.4 0-.5.2-.6 1.4-.6 3.1 0 4.5.5 1.1.5 2.5 0 3.6-.1.2 0 .5.1.6.1 0 .1.1.2.1s.2-.1.3-.2c.6-1.4.6-3.1 0-4.5-.5-1.2-.5-2.6 0-3.7z" class="st0"/></g></svg>