<svg xmlns="http://www.w3.org/2000/svg" id="Layer_1" viewBox="0 0 32 32">
  <style>
    .st0{fill:#008080;}
  </style>
  <g id="XMLID_2_">
    <path id="XMLID_9_" d="M27.3 11.6l-1.4-9.3c-.1-.5-.4-.9-.8-.9H14.7c-.4 0-.7.3-.8.8l-1.6 8H8.7V2.5c0-.6-.4-1.1-.8-1.1s-.8.5-.8 1.1v7.8H2.4c-.3 0-.5.1-.7.4-.2.2-.2.6-.2.9l1.1 6.6c-1.2 1.3-2 3.2-2 5.3 0 3.8 2.5 6.9 5.5 6.9s5.5-3.1 5.5-6.9v-.4h3.9c1 4.2 4 7.3 7.7 7.3 4.4 0 8-4.5 8-10 .1-3.8-1.5-7-3.9-8.8zm-2-1.3h-3.6V3.6h2.6l1 6.7zm-10-6.7H20v6.7h-6l1.3-6.7zM6.2 28.2c-2.1 0-3.8-2.1-3.8-4.8s1.7-4.8 3.8-4.8 3.8 2.1 3.8 4.8-1.7 4.8-3.8 4.8zm5.1-7.2c-.8-2.6-2.8-4.4-5.1-4.4-.7 0-1.4.2-2 .5l-.8-4.6h14.9c-1.9 1.8-3.1 4.7-3.1 7.9v.6h-3.9zm12 7.2c-3.5 0-6.3-3.6-6.3-7.9s2.8-7.9 6.3-7.9 6.3 3.6 6.3 7.9-2.9 7.9-6.3 7.9z" class="st0"/>
    <path id="XMLID_6_" d="M23.3 14.9c-2.4 0-4.3 2.4-4.3 5.4 0 3 1.9 5.4 4.3 5.4s4.3-2.4 4.3-5.4-2-5.4-4.3-5.4zm0 8.7c-1.4 0-2.6-1.5-2.6-3.3 0-1.8 1.2-3.3 2.6-3.3 1.4 0 2.6 1.5 2.6 3.3-.1 1.8-1.2 3.3-2.6 3.3z" class="st0"/>
    <path id="XMLID_3_" d="M6.2 20.5c-1.3 0-2.3 1.3-2.3 2.9 0 1.6 1 2.9 2.3 2.9s2.3-1.3 2.3-2.9c0-1.6-1-2.9-2.3-2.9zm0 3.8c-.4 0-.6-.4-.6-.8s.3-.8.6-.8c.4 0 .6.4.6.8s-.3.8-.6.8z" class="st0"/>
  </g>
</svg>
