<?xml version="1.0" encoding="utf-8"?>
<!-- Generator: Adobe Illustrator 19.0.0, SVG Export Plug-In . SVG Version: 6.00 Build 0)  -->
<svg version="1.1" id="Layer_1" xmlns="http://www.w3.org/2000/svg" xmlns:xlink="http://www.w3.org/1999/xlink" x="0px" y="0px"
	 viewBox="0 0 32 32" style="enable-background:new 0 0 32 32;" xml:space="preserve">
<style type="text/css">
	.st0{fill:#008080;}
</style>
<path id="XMLID_2_" class="st0" d="M29.7,10.6c0-2.1-1.7-3.8-3.8-3.8s-3.8,1.7-3.8,3.8c0,2,1.4,3.6,3.3,3.8v10c0,3.3-2.7,6-5.9,6h-4
	c-3.3,0-5.9-2.7-5.9-6v-5.7h1.7c2.1,0,3.3-2.2,3.7-3.6c0-0.3,1.2-7.4,1.4-9.9c0.1-0.9-0.3-1.8-0.9-2.5c-0.7-0.8-1.7-1.2-2.8-1.2H12
	c0-0.3-0.2-0.5-0.5-0.5h-1c-0.3,0-0.5,0.2-0.5,0.5v0.9c0,0.3,0.2,0.5,0.5,0.5h1c0.3,0,0.5-0.2,0.5-0.5h0.7c0.8,0,1.5,0.3,2.1,0.9
	c0.5,0.5,0.7,1.2,0.7,1.8c-0.2,2.4-1.4,9.7-1.4,9.7c-0.2,1.1-1.2,2.9-2.7,2.9H6.9c-1.5,0-2.5-1.8-2.7-2.8c0-0.1-1.2-7.3-1.4-9.8
	c0-0.7,0.2-1.3,0.7-1.8C4,2.7,4.8,2.3,5.5,2.3h0.7c0,0.3,0.2,0.5,0.5,0.5h1c0.3,0,0.5-0.2,0.5-0.5V1.4c0-0.3-0.2-0.5-0.5-0.5h-1
	c-0.3,0-0.5,0.2-0.5,0.5H5.5c-1,0-2,0.4-2.8,1.2c-0.7,0.7-1,1.6-0.9,2.5C2,7.6,3.2,14.7,3.3,15c0.3,1.5,1.5,3.6,3.7,3.6h1.7v5.7
	c0,3.8,3.1,7,6.9,7h4c3.8,0,6.9-3.1,6.9-7v-10C28.2,14.1,29.7,12.5,29.7,10.6z M25.9,13.4c-1.6,0-2.8-1.3-2.8-2.9s1.3-2.9,2.8-2.9
	s2.8,1.3,2.8,2.9S27.4,13.4,25.9,13.4z M25.9,8.9c-0.9,0-1.6,0.7-1.6,1.6c0,0.9,0.7,1.6,1.6,1.6s1.6-0.7,1.6-1.6
	C27.5,9.7,26.8,8.9,25.9,8.9z M25.9,11.2c-0.4,0-0.7-0.3-0.7-0.7c0-0.4,0.3-0.7,0.7-0.7c0.4,0,0.7,0.3,0.7,0.7
	C26.5,10.9,26.2,11.2,25.9,11.2z"/>
</svg>
