<svg xmlns="http://www.w3.org/2000/svg" id="Layer_1" viewBox="0 0 32 32"><style>.st0{fill:none;stroke:#008080;stroke-width:0.9;stroke-miterlimit:10;}</style><g id="XMLID_2_"><g id="XMLID_3_"><g id="XMLID_4_"><path id="XMLID_11_" d="M27.5 14.1l-1.7-6.3c-.2-.6-.5-1-1.1-1.3-.5-.3-1.1-.4-1.8-.2-.9.2-1.5.6-1.9 1.4-1 2.3-1.6 3.5-1.7 3.6 0 .1-.1.2-.3.3l-2.5 1c-.5.2-.8.5-.8 1 0 .3.1.6.4.8.3.2.6.3.9.3.1 0 .3 0 .5-.1l3-1.1c.3-.2.6-.4.8-.7.1-.1.3-.5.6-1.1l1.8 6.7v10.4c0 .6.2 1 .6 1.4.4.4.9.5 1.5.5s1.1-.2 1.5-.5c.4-.4.6-.8.6-1.3V16.5c0-.7-.2-1.5-.4-2.4z" class="st0"/><path id="XMLID_10_" d="M20.8 5.9c.8 0 1.4-.2 1.9-.7.5-.4.8-1 .8-1.7s-.3-1.2-.8-1.7-1.2-.7-1.9-.7-1.4.2-1.9.7c-.5.5-.8 1-.8 1.7s.3 1.2.8 1.7 1.2.7 1.9.7z" class="st0"/><path id="XMLID_7_" d="M15.8 16.2l-4.2-7.4c-.3-.6-.9-1-1.7-1H6c-.5 0-1 .2-1.4.5s-.5.8-.5 1.3v21.2H16V17.1c0-.3-.1-.6-.2-.9zm-2.9 10.3c-.5.5-1.3.9-2.4 1.1v1.3H9.4v-1.3c-.9-.1-1.6-.4-2.2-.9s-.9-1.2-1.1-2.1l2-.2c.1.4.3.7.5.9.2.3.5.5.8.6v-2.8c-1-.2-1.7-.6-2.2-1.1s-.7-1.1-.7-1.9.3-1.3.8-1.8 1.3-.8 2.1-.9v-.7h1.1v.7c.8.1 1.5.3 2 .7.5.4.8.9 1 1.6l-2 .2c-.1-.6-.5-.9-1-1.1v2.6c1.3.3 2.1.7 2.6 1.2s.6 1.1.6 1.8c0 .9-.3 1.6-.8 2.1z" class="st0"/><path id="XMLID_6_" d="M10.5 23.4V26c.4-.1.7-.2 1-.5.3-.2.4-.5.4-.9 0-.3-.1-.5-.3-.8-.3-.1-.6-.2-1.1-.4z" class="st0"/><path id="XMLID_5_" d="M8.6 19.3c-.2.2-.3.5-.3.8 0 .2.1.5.3.7.2.2.4.4.8.5V19c-.3 0-.6.1-.8.3z" class="st0"/></g></g></g></svg>