<svg xmlns="http://www.w3.org/2000/svg" id="Layer_1" viewBox="0 0 32 32">
  <style>
    .st0{fill:none;stroke:#008080;stroke-width:1.1;stroke-miterlimit:10;} .st1{fill:#008080;}
  </style>
  <g id="XMLID_2_">
    <g id="XMLID_3_">
      <g id="XMLID_4_">
        <path id="XMLID_11_" d="M27.5 14.1l-1.7-6.3c-.2-.6-.5-1-1.1-1.3-.5-.3-1.1-.4-1.8-.2-.9.2-1.5.6-1.9 1.4-1 2.3-1.6 3.5-1.7 3.6 0 .1-.1.2-.3.3l-2.5 1c-.5.2-.8.5-.8 1 0 .3.1.6.4.8.3.2.6.3.9.3.1 0 .3 0 .5-.1l3-1.1c.3-.2.6-.4.8-.7.1-.1.3-.5.6-1.1l1.8 6.7v10.4c0 .6.2 1 .6 1.4s.9.5 1.5.5 1.1-.2 1.5-.5c.4-.4.6-.8.6-1.3V16.5c0-.7-.2-1.5-.4-2.4z" class="st0"/>
        <path id="XMLID_10_" d="M20.8 5.9c.8 0 1.4-.2 1.9-.7.5-.4.8-1 .8-1.7s-.3-1.2-.8-1.7-1.2-.7-1.9-.7-1.4.2-1.9.7-.8 1-.8 1.7.3 1.2.8 1.7 1.2.7 1.9.7z" class="st0"/>
        <path id="XMLID_7_" d="M15.8 16.2l-4.2-7.4c-.3-.6-.9-1-1.7-1H6c-.5 0-1 .2-1.4.5s-.5.8-.5 1.3v21.2H16V17.1c0-.3-.1-.6-.2-.9z" class="st0"/>
      </g>
    </g>
  </g>
  <path d="M11.7 19.1h1.8l.7-1.3H6.6l-.7 1.3h2.3c1 0 1.7.4 2.1.8H6.6l-.7 1.3h4.8c-.1.9-.9 1.7-2.3 1.7h-2v1.3c1.1 0 .7-.2 3.4 3.8H12l-2.8-3.8c1.2-.2 3-1 3.2-2.9h1.1l.7-1.3h-2c-.1-.3-.3-.6-.5-.9z" class="st1"/>
</svg>
