<svg xmlns="http://www.w3.org/2000/svg" id="Layer_1" viewBox="0 0 32 32">
  <style>
    .st0{fill:none;stroke:#008080;stroke-miterlimit:10;} .st1{fill:#008080;}
  </style>
  <g id="XMLID_2_">
    <g id="XMLID_3_">
      <path id="XMLID_7_" d="M28.7 14.5c-.4-4.4-2.1-7.7-4.2-7.7h-9.7c-2.1 0-3.8 3.2-4.2 7.7-1.5 1.1-2.3 3.3-2.3 5.9 0 1.9.5 3.7 1.3 4.9v4.3h3.8v-2.5H26v2.5h3.8v-4.3c.8-1.2 1.3-2.9 1.3-4.9-.1-2.6-.9-4.8-2.4-5.9zm-13.9-6h9.7c1.4 0 2.6 2.3 3 5.4-.2-.1-.5-.1-.6-.1 0-1.8-1-3.3-2.4-3.3-1.3 0-2.4 1.5-2.4 3.3h-9.3c-.4 0-.6 0-1 .1.4-3.1 1.6-5.4 3-5.4zM26 13.8h-3.1c0-1.2.7-2.2 1.6-2.2.9-.1 1.5.9 1.5 2.2zm-13.8 8.8c-.8 0-1.6-1-1.6-2.2s.6-2.2 1.6-2.2c.8 0 1.6 1 1.6 2.2s-.8 2.2-1.6 2.2zm2.7-.9c0-.3.2-.5.4-.5H24c.2 0 .4.2.4.5m-9.5-1.9c0-.3.2-.5.4-.5H24c.2 0 .4.2.4.5m2.7 2.8c-.8 0-1.6-1-1.6-2.2s.6-2.2 1.6-2.2c.8 0 1.5 1 1.5 2.2 0 1.2-.7 2.2-1.5 2.2z" class="st0"/>
      <path id="XMLID_4_" d="M5.6 2.6L1.4 8.7l4.2 5.9 4.1-.4.1-5.7-4.2-5.9z" class="st0"/>
    </g>
  </g>
  <path id="XMLID_15_" d="M5.3 7.1l.5-.7-.2-.9-2.4 3.1.3.9.7-.9c.3-.5.6-.6 1-.5L4.1 9.6l.3.9 1.5-1.9c.3.4.4 1.1 0 1.7l-.7.7.5.6c.4-.4.1-.4 2.6.4l.6-.9-2.4-.6c.3-.5.6-1.7-.2-2.7l.4-.5-.3-.8-.6.8c-.2-.1-.3-.2-.5-.2z" class="st1"/>
</svg>
