<svg xmlns="http://www.w3.org/2000/svg" id="Layer_1" viewBox="0 0 32 32"><style>.st0{fill:#008080;} .st1{fill:none;stroke:#008080;stroke-miterlimit:10;}</style><g id="XMLID_2_"><g id="XMLID_3_"><g id="XMLID_4_"><path id="XMLID_16_" d="M12.8 14.5L10.2 12c-.6.8-1 1.8-1.2 3h3.7v-.5z" class="st0"/><path id="XMLID_15_" d="M20 10.3c-.8-.6-1.8-1-3-1.2v3.7h.4l2.7-2.4z" class="st0"/><path id="XMLID_14_" d="M16 14.8c-.7 0-1.2.5-1.2 1.2 0 .6.5 1.2 1.2 1.2s1.2-.5 1.2-1.2c0-.6-.5-1.2-1.2-1.2z" class="st1"/><path id="XMLID_13_" d="M19.2 17.5l2.6 2.5c.6-.8 1-1.8 1.2-3h-3.7v.5z" class="st0"/><path id="XMLID_12_" d="M12.6 17.2H9c0 1 .5 2 1 3l2.7-2.6v-.4z" class="st0"/><path id="XMLID_11_" d="M14.8 12.7V9c-1 .3-2 .7-3 1.3l2.6 2.5h.4z" class="st0"/><path id="XMLID_10_" d="M19.2 14.5v.3H23c-.2-1-.6-2-1.2-3l-2.6 2.7z" class="st0"/><path id="XMLID_7_" d="M16 2C8 2 1.7 8.3 1.7 16S8 30 16 30s14.3-6.3 14.3-14S24 2 16 2zm6.8 20.6c-1.8 1.7-4.2 2.8-6.8 2.8-2.6 0-5-1-6.7-2.7-1.7-1.7-2.8-4-2.8-6.6s1-4.8 2.8-6.5c1.7-1.8 4-2.8 6.7-2.8 2.6 0 5 1 6.7 2.7 1.7 1.7 2.8 4 2.8 6.6 0 2.6-1 5-2.7 6.6z" class="st0"/><path id="XMLID_6_" d="M12 21.7c.8.6 1.8 1 3 1.2v-3.7h-.4L12 21.6z" class="st0"/><path id="XMLID_5_" d="M17.2 19.3V23c1-.3 2-.7 3-1.3l-2.6-2.5h-.4z" class="st0"/></g></g></g></svg>