<svg xmlns="http://www.w3.org/2000/svg" id="Layer_1" viewBox="0 0 32 32">
  <style>
    .st0{fill:none;stroke:#008080;stroke-miterlimit:10;}
  </style>
  <path id="XMLID_2_" d="M29.7 10.5c-.1 0-.2 0-.3.1l-1.2.4L27 7.1c-.3-1.1-1.4-2-2.3-2H13.2c-.9 0-1.9.9-2.3 2L10 10v-.6c0-2.3-.9-4.4-2.4-5.5-.1 0-.2-.1-.3-.1-.3 0-.5.3-.5.7v4.2c0 .2-.1.3-.2.3-.5.5-1.1 1.1-1.4 1.3H5c-.1-.1-.8-.7-1.2-1.3 0 0-.1-.1-.1-.4V4.5c0-.5-.3-.7-.5-.7-.1 0-.2 0-.3.1C1.3 5 .4 7.1.4 9.4c0 2.6 1.3 4.9 3 5.8v10.7c0 1.3.8 2.3 1.8 2.3h.1c1 0 1.8-1 1.8-2.3V15.2c.6-.3 1.1-.8 1.6-1.4.1-.1.2-.3.3-.5l-.5 1.6c-.3 1-.6 2.8-.6 3.9v7.7c0 .9.6 1.6 1.2 1.6h1.6c.7 0 1.2-.7 1.2-1.6v-1.9h14v1.9c0 .9.6 1.6 1.2 1.6h1.6c.7 0 1.2-.7 1.2-1.6v-7.7c0-1.1-.3-2.8-.6-3.9l-.2-.6h.2c.7 0 1.2-.7 1.2-1.6v-.9c.2-.8-.2-1.3-.8-1.3zm-19.1 2.9l1.9-5.9c.2-.7.8-1.2 1.4-1.2h10.3c.5 0 1.2.5 1.4 1.2l1.9 5.9c.2.7-.1 1.2-.6 1.2H11.2c-.5 0-.8-.5-.6-1.2zm4.1 7.5c0 .4-.2.6-.5.6h-3.5c-.3 0-.5-.3-.5-.6v-2.2c0-.4.2-.6.5-.6h3.5c.3 0 .5.3.5.6v2.2zm13 0c0 .4-.2.6-.5.6h-3.5c-.3 0-.5-.3-.5-.6v-2.2c0-.4.2-.6.5-.6h3.5c.3 0 .5.3.5.6v2.2z" class="st0"/>
</svg>
