<svg xmlns="http://www.w3.org/2000/svg" id="Layer_1" viewBox="0 0 32 32"><style>.st0{fill:none;stroke:#008080;stroke-miterlimit:10;} .st1{fill:#008080;}</style><g id="XMLID_2_"><g id="XMLID_3_"><path id="XMLID_7_" d="M29.8 15.5c-.4-4.4-2.3-7.7-4.6-7.7H14.6c-2.3 0-4.2 3.2-4.6 7.7-1.6 1.1-2.5 3.3-2.5 5.9 0 1.9.5 3.7 1.4 4.9v4.3h4.2v-2.5h13.7v2.5H31v-4.3c.9-1.2 1.4-2.9 1.4-4.9-.1-2.6-1-4.8-2.6-5.9zm-15.2-6h10.6c1.5 0 2.8 2.3 3.3 5.4-.2-.1-.5-.1-.7-.1 0-1.8-1.1-3.3-2.6-3.3-1.4 0-2.6 1.5-2.6 3.3H12.4c-.4 0-.7 0-1.1.1.5-3.1 1.8-5.4 3.3-5.4zm12.3 5.3h-3.4c0-1.2.8-2.2 1.7-2.2 1-.1 1.7.9 1.7 2.2zm-15.1 8.8c-.9 0-1.7-1-1.7-2.2 0-1.2.7-2.2 1.7-2.2.9 0 1.7 1 1.7 2.2 0 1.2-.8 2.2-1.7 2.2zm2.9-.9c0-.3.2-.5.4-.5h9.6c.2 0 .4.2.4.5m-10.4-1.9c0-.3.2-.5.4-.5h9.6c.2 0 .4.2.4.5M28 23.6c-.9 0-1.7-1-1.7-2.2 0-1.2.7-2.2 1.7-2.2.9 0 1.6 1 1.6 2.2.1 1.2-.7 2.2-1.6 2.2z" class="st0"/><path id="XMLID_4_" d="M4.6 3.6L0 9.7l4.6 5.9 4.5-.4.1-5.7-4.6-5.9z" class="st0"/></g></g><path id="XMLID_15_" d="M4.3 8.1l.6-.7-.3-.9L2 9.6l.3.9.8-.9c.3-.5.7-.6 1.1-.5L3 10.6l.3.9 1.6-1.9c.3.4.4 1.1 0 1.7l-.8.7.6.6c.4-.4.1-.4 2.8.4l.7-.9-2.6-.6c.3-.5.6-1.7-.2-2.7l.4-.5-.3-.8-.7.8c-.2-.1-.3-.2-.5-.2z" class="st1"/></svg>