<svg xmlns="http://www.w3.org/2000/svg" id="Layer_1" viewBox="0 0 32 32">
  <style>
    .st0{fill:#008080;}
  </style>
  <path id="XMLID_2_" d="M22.7 28.8c0 .5-.3.8-.7.8H7.8c-.4 0-.7-.4-.7-.8s.3-.8.7-.8H22c.4-.1.7.3.7.8zM31 6.9c-.3.4-.9.5-1.5.2-.4.5-1.3 1.8-3.7 5h2.1c.4 0 .7.4.7.8 0 .5-.3.8-.7.8H2c-.4 0-.7-.4-.7-.8 0-.5.3-.8.7-.8h16.7c5.7-5.9 7.5-7.7 8.1-8.3-.2-.8-.2-1.4.2-1.8.7-.8 2-.3 3.2 1.1.5.6.9 1.3 1.1 1.9.2 1.1-.1 1.7-.3 1.9zm-.7-1.4c-.2-.5-.5-1-.9-1.5-.9-1.1-1.7-1.3-1.9-1.1-.1.1-.1.4.1 1 .1.2 0 .5-.1.7-.1.1-2.9 3-7.5 7.7h4.5c2.7-3.7 4.4-6 4.4-6.1.1-.2.4-.2.6-.1.5.3.7.2.8.2.1-.2.1-.4 0-.8zm-2 9.3c0 5-2 9.7-5.4 12.7-.1.1-.2.1-.3.1H7.1c-.1 0-.2 0-.3-.1-3.4-3-5.4-7.7-5.4-12.7 0-.3.2-.5.5-.5h25.9c.3-.1.5.2.5.5zm-.9.5H2.5c.1 4.4 1.9 8.5 4.9 11.2h15.2c2.9-2.7 4.6-6.8 4.8-11.2z" class="st0"/>
  <path id="XMLID_8_" d="M18.7 20.1v2.2h-2.6v2.4h-2.4v-2.4h-2.5v-2.2h2.5v-2.4h2.4v2.4h2.6z" class="st0"/>
</svg>
