<?xml version="1.0" encoding="utf-8"?>
<!-- Generator: Adobe Illustrator 19.0.0, SVG Export Plug-In . SVG Version: 6.00 Build 0)  -->
<svg version="1.1" id="Layer_1" xmlns="http://www.w3.org/2000/svg" xmlns:xlink="http://www.w3.org/1999/xlink" x="0px" y="0px"
	 viewBox="0 0 32 32" style="enable-background:new 0 0 32 32;" xml:space="preserve">
<style type="text/css">
	.st0{fill:#008080;}
	.st1{fill:#038181;}
</style>
<path id="XMLID_30_" class="st0" d="M198.4-115.5H85.9v-23c6.7-2.3,12.1-7.4,14.6-14.3c4.4-12.2-2-25.7-14.1-30.1
	c-23-8.3-50.6-12.6-80-12.6s-57,4.4-80,12.6c-12.2,4.4-18.5,17.9-14.1,30.1c2.5,7,8.1,12.1,14.6,14.3v23h-112.5
	c-21.8,0-39.5,17.7-39.5,39.5v264c0,21.8,17.7,39.5,39.5,39.5h384c21.8,0,39.5-17.7,39.5-39.5V-76
	C237.9-97.8,220.2-115.5,198.4-115.5z M-68.5-168.7c21.4-7.7,47.2-11.8,74.9-11.8s53.5,4.1,74.9,11.8c4.4,1.6,6.7,6.5,5.1,10.9
	c-1.2,3.4-4.4,5.6-8,5.6c-1,0-1.9-0.2-2.9-0.5c-19.2-6.9-43.8-10.8-69.1-10.8s-49.9,3.8-69.1,10.8c-4.4,1.6-9.3-0.7-10.9-5.1
	C-75.2-162.3-72.9-167.2-68.5-168.7z M-58.1-138.5c0.2-0.1,0.3-0.1,0.5-0.2c17.7-6.4,40.4-9.9,64-9.9s46.4,3.5,64,9.9
	c0.2,0.1,0.3,0.1,0.5,0.1v23h-129V-138.5z M-210.1-76c0-13.5,11-24.5,24.5-24.5h384c13.5,0,24.5,11,24.5,24.5v72
	c0,48.8-39.7,88.5-88.5,88.5H37.9V76c0-13-10.5-23.5-23.5-23.5h-16c-13,0-23.5,10.5-23.5,23.5v8.5h-96.5
	c-48.8,0-88.5-39.7-88.5-88.5V-76z M22.9,92c0,4.7-3.8,8.5-8.5,8.5h-16c-4.7,0-8.5-3.8-8.5-8.5V76c0-4.7,3.8-8.5,8.5-8.5h16
	c4.7,0,8.5,3.8,8.5,8.5V92z M-10.1,113.9c2.6,1,5.5,1.6,8.5,1.6h16c3,0,5.9-0.6,8.5-1.6V124c0,4.7-3.8,8.5-8.5,8.5h-16
	c-4.7,0-8.5-3.8-8.5-8.5V113.9z M222.9,188c0,13.5-11,24.5-24.5,24.5h-384c-13.5,0-24.5-11-24.5-24.5V49.6
	c18.2,29.9,51,49.9,88.5,49.9h96.5V124c0,13,10.5,23.5,23.5,23.5h16c13,0,23.5-10.5,23.5-23.5V99.5h96.5c37.5,0,70.3-20,88.5-49.9
	V188z"/>
<path id="XMLID_10_" class="st1" d="M26.1,11V5.8c0-0.9-0.8-1.6-1.8-1.6h-2.5c-0.6,0-1.2,0.3-1.5,0.8c-0.1-0.1-0.3-0.1-0.4-0.2
	c0-0.1,0-0.1,0-0.2c0-1.9-1.7-3.5-3.8-3.5c-2.1,0-3.8,1.6-3.8,3.5c0,0.1,0,0.1,0,0.2c-0.1,0-0.3,0.1-0.4,0.2
	c-0.3-0.5-0.9-0.8-1.5-0.8H7.9c-1,0-1.8,0.7-1.8,1.6V11c-0.3,0.9-0.4,1.8-0.4,2.7v0.1c-0.3,0.1-0.5,0.3-0.5,0.6v1.5
	c0,0.3,0.2,0.5,0.4,0.6c0,0-0.5,1.2-0.6,1.6c0,0,0,0.1,0,0.1c0,0.5,0.3,0.9,0.8,1.2v9.4c0,1.1,1,2,2.2,2h16.5c1.2,0,2.2-0.9,2.2-2
	V13.7C26.5,12.7,26.4,11.8,26.1,11z M21.8,5.1h2.5c0.5,0,0.8,0.3,0.8,0.8V9c-0.9-1.5-2.3-2.8-4-3.6C21.3,5.2,21.6,5.1,21.8,5.1z
	 M16.1,2c1.6,0,2.8,1.1,2.9,2.5c-0.2-0.1-0.5-0.1-0.7-0.2c-0.2-1-1.1-1.7-2.2-1.7c-1.1,0-2,0.8-2.2,1.7c-0.2,0-0.5,0.1-0.7,0.2
	C13.3,3.1,14.6,2,16.1,2z M17.3,4.2c-0.4,0-0.8-0.1-1.2-0.1c-0.4,0-0.8,0-1.2,0.1c0.2-0.4,0.7-0.7,1.2-0.7
	C16.6,3.5,17.1,3.8,17.3,4.2z M7,5.8C7,5.4,7.4,5,7.9,5h2.5c0.3,0,0.5,0.1,0.7,0.3C9.4,6.2,8,7.5,7,9L7,5.8L7,5.8z M16.1,5
	c4.8,0,8.8,3.3,9.4,7.5c-0.5-1-1.3-2-2.2-2.8c-2-1.7-4.5-2.7-7.2-2.7c-2.4,0-4.8,0.8-6.6,2.2c-1.2,0.9-2.1,2-2.8,3.3
	C7.3,8.3,11.3,5,16.1,5z M6.4,18.7c-0.3,0-0.6-0.2-0.6-0.4c0-0.4,0.6-1.4,0.6-1.4s0.5,1,0.6,1.4C7,18.5,6.7,18.7,6.4,18.7z
	 M6.1,14.6h0.6v1.1H6.1V14.6z M22.4,26.2c0,0,0.5,1,0.6,1.4c0,0.2-0.3,0.4-0.6,0.4c-0.3,0-0.6-0.2-0.6-0.4
	C21.9,27.2,22.4,26.2,22.4,26.2z M22.1,25v-0.6h0.6V25H22.1z M7.4,23.6c-0.5,0-0.8-0.3-0.8-0.8v-1.1c0-0.6,0.6-1.2,1.3-1.2h16.5
	c0.6,0,1.2,0.4,1.3,1v1.2c0,0.4-0.4,0.8-0.8,0.8L7.4,23.6L7.4,23.6z M25.6,28.8c0,0.6-0.6,1.2-1.3,1.2H7.9c-0.7,0-1.3-0.5-1.3-1.2
	v-4.6c0.2,0.1,0.5,0.2,0.8,0.2h13.7v0.8c0,0.3,0.2,0.5,0.4,0.6c0,0-0.5,1.2-0.6,1.6c0,0,0,0.1,0,0.1c-0.1,0.7,0.7,1.3,1.5,1.3
	c0.8,0,1.6-0.6,1.5-1.3c0,0,0-0.1,0-0.1c-0.1-0.4-0.6-1.6-0.6-1.6c0.2-0.1,0.4-0.3,0.4-0.6v-0.8h1.1c0.3,0,0.6-0.1,0.8-0.2V28.8z
	 M25.6,20.1c-0.4-0.2-0.8-0.4-1.3-0.4H7.9c-0.5,0-0.9,0.1-1.3,0.4v-0.6c0.7-0.1,1.3-0.6,1.3-1.3c0,0,0-0.1,0-0.2
	c-0.1-0.4-0.6-1.6-0.6-1.6c0.2-0.1,0.4-0.3,0.4-0.6v-1.5c0-0.3-0.2-0.5-0.5-0.6c1.3-3.5,4.9-5.9,9-5.9c5.1,0,9.3,3.6,9.5,8.3l0,0
	L25.6,20.1L25.6,20.1z"/>
</svg>
