<svg xmlns="http://www.w3.org/2000/svg" id="Layer_1" viewBox="0 0 32 32"><style>.st0{fill:#008080;}</style><path d="M24 11.4c4.5 1 7.8 5 7.8 9.4 0 5.4-4.7 9.7-10.6 9.7-5 0-9-3-10.2-7.3 1 0 1.8 0 2.6-.3 1 3 4 5 7.6 5 4.4 0 8-3.2 8-7.2 0-3.3-2.5-6-5.7-7 .3-.7.4-1.5.4-2.4zM18.3 22c.7 0 1.3.6 1.3 1.3s-.6 1.2-1.3 1.2c-.7 0-1.3-.5-1.3-1.2s.7-1.2 1.4-1.2zm6.2-1c1 0 2 .7 2 1.7s-1 1.8-2 1.8-2-.8-2-1.8 1-1.8 2-1.8zm-3.3-10c0 5.4-4.7 9.8-10.6 9.8C5 20.8.2 16.6 0 11 4 12 6.8 9.6 5.5 6.3c4 .5 6.2-1.6 5.3-5 6 .3 10.6 4.8 10.6 10zm1.3 6.2c.7 0 1.3.5 1.3 1.2s-.7 1.2-1.4 1.2-1.3-.5-1.3-1.2.6-1.2 1.3-1.2zM8.4 8.6C8 11 6 13 3.4 13.6c1 2.8 4 4.8 7.3 4.8 4.4 0 8-3.3 8-7.3 0-3-2.3-5.8-5.3-6.8-.7 2.6-2.6 4-5 4.4zm1 5.4c.7 0 1.3.5 1.3 1.2s-.6 1.2-1.3 1.2S8 16 8 15.2 8.8 14 9.5 14zm4.8-2.5c1 0 1.8.7 1.8 1.6s-.8 1.7-1.8 1.7-1.8-.7-1.8-1.6 1-1.5 1.8-1.5zm-4-1.6c.6 0 1 .3 1 .7 0 .4-.4.8-1 .8-.4 0-.8-.4-.8-.8s.4-.8 1-.8zm4.5-2.5c.7 0 1.3.5 1.3 1.2s-.6 1.2-1.3 1.2-1.3-.6-1.3-1.3c0-.7.6-1.2 1.3-1.2zM1.5 6.3c.7 0 1.3.5 1.3 1.2s-.6 1.2-1.3 1.2S.2 8.2.2 7.5s.6-1.2 1.3-1.2zm5.3-4c.7 0 1.3.4 1.3 1S7.6 4.8 7 4.8 5.4 4 5.4 3.4 6 2.2 6.8 2.2zm-4.4.3c.5 0 1 .4 1 .8s-.5 1-1 1-1-.5-1-1 .5-.8 1-.8z" class="st0"/></svg>