<svg xmlns="http://www.w3.org/2000/svg" id="Layer_1" viewBox="0 2 30 30"><style>.st0{fill:none;stroke:#009999;stroke-miterlimit:10;} .st1{fill:#009999;} .st2{fill:#FFFFFF;} .st3{fill:none;stroke:#009999;stroke-width:0.7;stroke-miterlimit:10;} .st4{fill:#008080;}</style><path id="XMLID_1_" d="M1.8 13L14 3.7c.3-.2.4-.2.7 0L27.3 13c.3.2.2.8-.2.8H2c-.2 0-.5-.5-.2-.8z" class="st0"/><path id="XMLID_2_" d="M4.7 15.3H7v11.4H4.8V15.3z" class="st1"/><path id="XMLID_3_" d="M3.5 14.7h5.2v.8H3.5v-.8z" class="st1"/><path id="XMLID_5_" d="M13.4 15.3h2.4v11.4h-2.4V15.3z" class="st1"/><path id="XMLID_4_" d="M12 14.7h5v.8h-5.5l.2-.8z" class="st1"/><path id="XMLID_7_" d="M21.8 15.3h2.6v11.4h-2.6V15.3z" class="st1"/><path id="XMLID_6_" d="M20.6 14.7h5v.8h-5v-.8z" class="st1"/><ellipse id="XMLID_8_" cx="14.4" cy="9.3" class="st2" rx="3.1" ry="2.9"/><path id="XMLID_9_" d="M4 28h21v1H4v-1z" class="st3"/><path id="XMLID_10_" d="M2.2 30.6h25.2V32H2l.2-1.4z" class="st3"/><path d="M15.3 8h1l.4-.7h-4l-.2.6h2.2-2l-.2.5H15c0 .3-.5.7-1.3.7h-1v.6c.5 0 .2 0 1.6 2h1L14 10c.6 0 1.6-.4 1.7-1.4h.6l.3-.7h-1.3z" class="st4"/></svg>