<svg xmlns="http://www.w3.org/2000/svg" id="Layer_1" viewBox="0 0 32 32">
  <style>
    .st0{fill:#008080;}
  </style>
  <path id="XMLID_2_" d="M26.2 31.2c-.2 0-.3-.1-.3-.3v-1.7h-9.5v1.7c0 .2-.1.3-.3.3s-.3-.1-.3-.3v-1.7H6.2v1.7c0 .2-.1.3-.3.3s-.4-.2-.4-.4v-9c0-.2.1-.3.3-.3.2 0 .3.1.3.3v6.5h9.5v-6.5c0-.2.1-.3.3-.3s.3.1.3.3v6.5h9.5v-6.5c0-.2.1-.3.3-.3s.3.1.3.3v9c.2.2 0 .4-.1.4zM24.6 27h-7.2c-.5 0-.9-.6-.9-1.2v-.2c0-.5.2-.9.5-1.1v-6.1c0-.9.2-1.8.6-2.6h-3.3c.4.8.6 1.6.6 2.6v6.1c.3.2.5.6.5 1.1v.2c0 .7-.4 1.2-.9 1.2H7.4c-.5 0-.9-.6-.9-1.2v-.2c0-.5.2-.9.5-1.1v-6.1c0-.9.2-1.8.6-2.6H1.2v1.7c0 .2-.1.3-.3.3s-.3-.1-.3-.3v-9C.5 8.1.6 8 .8 8s.3.1.3.3v6.5H8c.6-.8 1.6-1.4 2.6-1.5V8.4c0-.3.1-.4.4-.4.2 0 .3.1.3.3v5.1c1 .1 2 .7 2.6 1.5h4.3c.6-.9 1.6-1.5 2.6-1.5v-5c0-.2.1-.3.3-.3.2 0 .3.1.3.3v5.1c1 .1 1.9.7 2.6 1.5h6.9V8.4c0-.3.1-.4.3-.4s.3.1.3.3v9c0 .2-.1.3-.3.3-.2 0-.3-.1-.3-.3v-1.7h-6.5c.4.8.6 1.6.6 2.6v6.1c.3.2.5.6.5 1.1v.2c0 .8-.4 1.4-.9 1.4zm-7.2-1.9c-.2 0-.3.2-.3.5v.2c0 .2.2.5.3.5h7.2c.2 0 .3-.2.3-.5v-.2c0-.2-.2-.5-.3-.5h-7.2zm-10 0c-.2 0-.3.2-.3.5v.2c0 .2.2.5.3.5h7.2c.2 0 .3-.2.3-.5v-.2c0-.2-.2-.5-.3-.5H7.4zm10.2-.8h6.8v-6c0-2.3-1.5-4.1-3.3-4.1s-3.3 1.8-3.3 4.1v6h-.2zm-10 0h6.8v-6c0-2.3-1.5-4.1-3.3-4.1S7.7 16 7.7 18.3v6h-.1zm22-10.8h-7.2c-.5 0-.9-.6-.9-1.2v-.2c0-.5.2-.9.5-1.1V4.9C22 2.1 23.8 0 26 0s4 2.1 4 4.9V11c.3.2.5.6.5 1.1v.3c0 .6-.4 1.1-.9 1.1zm-7.2-1.8c-.2 0-.3.2-.3.5v.2c0 .2.2.5.3.5h7.2c.2 0 .3-.2.3-.5v-.2c0-.2-.2-.5-.3-.5h-7.2zm.2-.8h6.8v-6c0-2.3-1.5-4.1-3.3-4.1s-3.3 1.8-3.3 4.1V11l-.2-.1zm-3 2.6h-7.2c-.5 0-.9-.6-.9-1.2v-.2c0-.5.2-.9.5-1.1V4.9C12 2.1 13.8 0 16 0s4 2.1 4 4.9V11c.3.2.5.6.5 1.1v.3c0 .6-.4 1.1-.9 1.1zm-7.2-1.8c-.2 0-.3.2-.3.5v.2c0 .2.2.5.3.5h7.2c.2 0 .3-.2.3-.5v-.2c0-.2-.2-.5-.3-.5h-7.2zm.2-.8h6.8v-6c0-2.3-1.5-4.1-3.3-4.1s-3.3 1.8-3.3 4.1V11l-.2-.1zm-3.1 2.6H2.3c-.5 0-.9-.6-.9-1.2v-.2c0-.5.2-.9.5-1.1V4.9c0-2.7 1.8-4.9 4-4.9S10 2.3 10 4.9V11c.3.2.5.6.5 1.1v.3c-.1.6-.5 1.1-1 1.1zm-7.2-1.8c-.2 0-.3.3-.3.5v.2c0 .2.2.5.3.5h7.2c.2 0 .3-.2.3-.5v-.2c0-.2-.2-.5-.3-.5H2.3zm.2-.8h6.8v-6C9.3 2.6 7.8.8 6 .8S2.5 2.6 2.5 4.9v6z" class="st0"/>
</svg>
