<svg xmlns="http://www.w3.org/2000/svg" id="Layer_1" viewBox="0 0 32 32"><style>.st0{fill:#008080;}</style><path id="XMLID_2_" d="M25.6 29.6c-.2 0-.3-.1-.3-.3v-1.5h-9.1v1.5c0 .2-.1.3-.3.3-.2 0-.3-.1-.3-.3v-1.5H6.4v1.5c0 .2-.1.3-.3.3-.2 0-.3-.1-.3-.3v-8c0-.2.1-.3.3-.3.2 0 .3.1.3.3v5.8h9.1v-5.8c0-.2.1-.3.3-.3.2 0 .3.1.3.3v5.8h9.1v-5.8c0-.2.1-.3.3-.3.2 0 .3.1.3.3v8c.1.2-.1.3-.2.3zm-1.5-3.7h-6.9c-.5 0-.9-.5-.9-1.1v-.2c0-.4.2-.8.5-1v-5.4c0-.8.2-1.6.6-2.3h-3.2c.4.7.6 1.4.6 2.3v5.4c.3.2.5.5.5 1v.2c0 .6-.4 1.1-.9 1.1H7.6c-.5 0-.9-.5-.9-1.1v-.2c0-.4.2-.8.5-1v-5.4c0-.8.2-1.6.6-2.3H1.6v1.5c0 .2-.1.3-.3.3s-.3-.1-.3-.3v-8c0-.2.1-.3.3-.3s.3.1.3.3v5.8h6.6c.6-.7 1.5-1.2 2.5-1.3V9.4c0-.2.1-.3.3-.3.2 0 .3.1.3.3v4.5c1 .1 1.9.6 2.5 1.3h4.1c.6-.8 1.5-1.3 2.5-1.3V9.4c0-.2.1-.3.3-.3s.3.1.3.3v4.5c1 .1 1.8.6 2.5 1.3h6.6V9.4c0-.2.1-.3.3-.3.2 0 .3.1.3.3v8c0 .2-.1.3-.3.3-.2 0-.3-.1-.3-.3v-1.5h-6.2c.4.7.6 1.4.6 2.3v5.4c.3.2.5.5.5 1v.2c0 .6-.4 1.1-.9 1.1zm-6.9-1.7c-.2 0-.3.2-.3.4v.2c0 .2.2.4.3.4h6.9c.2 0 .3-.2.3-.4v-.2c0-.2-.2-.4-.3-.4h-6.9zm-9.6 0c-.2 0-.3.2-.3.4v.2c0 .2.2.4.3.4h6.9c.2 0 .3-.2.3-.4v-.2c0-.2-.2-.4-.3-.4H7.6zm9.8-.7h6.5v-5.3c0-2-1.4-3.6-3.2-3.6s-3.2 1.6-3.2 3.6v5.3zm-9.6 0h6.5v-5.3c0-2-1.4-3.6-3.2-3.6s-3.2 1.6-3.2 3.6v5.3zM28.9 14H22c-.5 0-.9-.5-.9-1.1v-.2c0-.4.2-.8.5-1V6.3c0-2.4 1.7-4.3 3.8-4.3s3.8 1.9 3.8 4.3v5.4c.3.2.5.5.5 1v.3c.1.5-.3 1-.8 1zM22 12.4c-.2 0-.3.2-.3.4v.2c0 .2.2.4.3.4h6.9c.2 0 .3-.2.3-.4v-.2c0-.2-.2-.4-.3-.4H22zm.2-.7h6.5V6.3c0-2-1.4-3.6-3.2-3.6s-3.2 1.6-3.2 3.6v5.4zM19.3 14h-6.9c-.5 0-.9-.5-.9-1.1v-.2c0-.4.2-.8.5-1V6.3C12 3.9 13.7 2 15.8 2s3.8 1.9 3.8 4.3v5.4c.3.2.5.5.5 1v.3c.1.5-.3 1-.8 1zm-6.9-1.6c-.2 0-.3.2-.3.4v.2c0 .2.2.4.3.4h6.9c.2 0 .3-.2.3-.4v-.2c0-.2-.2-.4-.3-.4h-6.9zm.2-.7h6.5V6.3c0-2-1.4-3.6-3.2-3.6s-3.2 1.6-3.2 3.6v5.4zm-3 2.3H2.7c-.5 0-.9-.5-.9-1.1v-.2c0-.4.2-.8.5-1V6.3C2.3 3.9 4 2 6.1 2S10 4 10 6.3v5.4c.3.2.5.5.5 1v.3c0 .5-.4 1-.9 1zm-6.9-1.6c-.2 0-.3.2-.3.4v.2c0 .2.2.4.3.4h6.9c.2 0 .3-.2.3-.4v-.2c0-.2-.2-.4-.3-.4H2.7zm.2-.7h6.5V6.3c0-2-1.4-3.6-3.2-3.6S2.9 4.3 2.9 6.3v5.4z" class="st0"/></svg>