<?xml version="1.0" encoding="utf-8"?>
<!-- Generator: Adobe Illustrator 19.0.0, SVG Export Plug-In . SVG Version: 6.00 Build 0)  -->
<svg version="1.1" id="Layer_1" xmlns="http://www.w3.org/2000/svg" xmlns:xlink="http://www.w3.org/1999/xlink" x="0px" y="0px"
	 viewBox="0 0 32 32" style="enable-background:new 0 0 32 32;" xml:space="preserve">
<style type="text/css">
	.st0{fill:#009999;}
</style>
<g id="XMLID_2_">
	<path id="XMLID_8_" class="st0" d="M11.5,15.9h-0.3v-2c0-0.2-0.2-0.4-0.5-0.4h0v-4c0-0.2-0.1-0.3-0.3-0.4L6.7,7.4
		c-0.1-0.1-0.3-0.1-0.5,0C6.1,7.5,6,7.6,6,7.8v5.7h0c-0.3,0-0.5,0.2-0.5,0.4v2H5.2c-0.3,0-0.5,0.2-0.5,0.4v11.1
		c0,0.2,0.2,0.4,0.5,0.4h6.2c0.3,0,0.5-0.2,0.5-0.4V16.3C11.9,16,11.7,15.9,11.5,15.9z M7,8.5l2.7,1.2v3.8H7C7,13.5,7,8.5,7,8.5z
		 M6.4,14.3h3.8v1.6H6.4V14.3z M11,27H5.7V16.7H11V27z"/>
	<path id="XMLID_7_" class="st0" d="M28.2,22.8H12.7c-0.3,0-0.5,0.2-0.5,0.4s0.2,0.4,0.5,0.4h14.8l-0.1,0.2
		c-0.6,1.1-1.9,1.8-3.3,1.8H12.7c-0.3,0-0.5,0.2-0.5,0.4s0.2,0.4,0.5,0.4h11.4c1.7,0,3.4-0.9,4.1-2.3l0.4-0.8c0.1-0.1,0.1-0.3,0-0.4
		C28.5,22.9,28.4,22.8,28.2,22.8z"/>
	<path id="XMLID_6_" class="st0" d="M11.6,8.7c1.8-1.5,4.1-2.3,6.5-2.3c5.3,0,9.6,3.8,9.6,8.5c0,2.5-1.3,4.9-3.5,6.6
		c-0.2,0.2-0.2,0.4-0.1,0.6c0.1,0.1,0.2,0.2,0.4,0.2c0.1,0,0.2,0,0.3-0.1c2.4-1.8,3.8-4.4,3.8-7.2c0-5.2-4.7-9.4-10.6-9.4
		c-2.7,0-5.2,0.9-7.2,2.5c-0.2,0.2-0.2,0.4,0,0.6C11.1,8.9,11.4,8.9,11.6,8.7z"/>
	<path id="XMLID_5_" class="st0" d="M18.1,8.2c4.2,0,7.6,3,7.6,6.8s-3.4,6.8-7.6,6.8c-1.9,0-3.7-0.6-5.1-1.7c-0.2-0.2-0.5-0.1-0.7,0
		c-0.2,0.2-0.2,0.4,0,0.6c1.6,1.3,3.6,2,5.8,2c4.7,0,8.6-3.4,8.6-7.6s-3.9-7.6-8.6-7.6c-2.7,0-5.3,1.2-6.9,3.1
		c-0.2,0.2-0.1,0.5,0.1,0.6c0.2,0.1,0.5,0.1,0.7-0.1C13.4,9.2,15.7,8.2,18.1,8.2z"/>
	<path id="XMLID_4_" class="st0" d="M23.4,11.6l-8.7,7.7c-0.2,0.2-0.2,0.4,0,0.6c0.1,0.1,0.2,0.1,0.3,0.1s0.2,0,0.3-0.1l8.7-7.7
		c0.2-0.2,0.2-0.4,0-0.6C23.9,11.5,23.6,11.5,23.4,11.6z"/>
	<path id="XMLID_3_" class="st0" d="M17.3,19.4c-0.2,0.2-0.2,0.4,0,0.6c0.1,0.1,0.2,0.1,0.3,0.1c0.1,0,0.2,0,0.3-0.1l6.6-5.8
		c0.2-0.2,0.2-0.4,0-0.6c-0.2-0.2-0.5-0.2-0.7,0L17.3,19.4z"/>
</g>
</svg>
