<?xml version="1.0" encoding="utf-8"?>
<!-- Generator: Adobe Illustrator 19.0.0, SVG Export Plug-In . SVG Version: 6.00 Build 0)  -->
<svg version="1.1" id="Layer_1" xmlns="http://www.w3.org/2000/svg" xmlns:xlink="http://www.w3.org/1999/xlink" x="0px" y="0px"
	 viewBox="0 0 32 32" style="enable-background:new 0 0 32 32;" xml:space="preserve">
<style type="text/css">
	.st0{fill:none;stroke:#008080;stroke-width:0.8;stroke-miterlimit:10;}
</style>
<g id="XMLID_2_">
	<path id="XMLID_3_" class="st0" d="M31.4,10.9c-0.3-2.3-6.8-0.9-6.8-0.9l-0.7,2.1L19.2,13c-0.6-1-1.3-1.9-2-2.5
		c-2.9-2-7.8,1.6-7.8,1.6s5.1-5.8,1.4-4c-11.7,6.5-7,7.5-7,7.5h3.3l-0.5,0.9c-0.5-0.2-1.1-0.4-1.7-0.4c-2.3,0-4.2,2.1-4.2,4.6
		c0,2.5,1.9,4.6,4.2,4.6s4.2-2.1,4.2-4.6c0-1.4-0.6-2.7-1.5-3.5L8,16.5l1.8,5.5h2.7h0.4h8.2h1c0.5,2,2.1,3.5,4.1,3.5
		c2.3,0,4.2-2.1,4.2-4.6s-1.9-4.6-4.2-4.6c-2.1,0-3.9,1.7-4.2,3.9h0c0,0-0.4-1.5-1-3.3C23.2,16.1,31.6,12.9,31.4,10.9z M4.8,23.7
		c-1.5,0-2.7-1.3-2.7-2.9c0-1.6,1.2-2.9,2.7-2.9c0.3,0,0.6,0.1,0.9,0.2l-1.4,2.4l1,0.7l1.4-2.4c0.5,0.5,0.8,1.3,0.8,2.1
		C7.5,22.4,6.3,23.7,4.8,23.7z M26.3,17.9c1.5,0,2.7,1.3,2.7,2.9c0,1.6-1.2,2.9-2.7,2.9c-1.1,0-2-0.7-2.5-1.8h3.2v-1.8h-3.4
		C23.9,18.9,25,17.9,26.3,17.9z"/>
</g>
</svg>
