<?xml version="1.0" encoding="utf-8"?>
<!-- Generator: Adobe Illustrator 19.0.0, SVG Export Plug-In . SVG Version: 6.00 Build 0)  -->
<svg version="1.1" id="Layer_1" xmlns="http://www.w3.org/2000/svg" xmlns:xlink="http://www.w3.org/1999/xlink" x="0px" y="0px"
	 viewBox="0 0 32 32" style="enable-background:new 0 0 32 32;" xml:space="preserve">
<style type="text/css">
	.st0{fill:#008080;}
</style>
<g id="XMLID_2_">
	<g id="XMLID_3_">
		<path id="XMLID_4_" class="st0" d="M27.1,15.4c-0.5,0-1,0.1-1.5,0.2l-0.5-1.1c0.5-0.1,0.9-0.2,1.4-0.2h2.1c0.3,0,0.5-0.2,0.5-0.5
			c0-4-3.2-7.6-6.9-7.6c-0.2,0-0.3,0.1-0.4,0.2c-0.1,0.1-0.1,0.3-0.1,0.5l0.2,0.7l-1.2-0.3c-0.3-0.1-0.6,0.1-0.6,0.4
			c-0.1,0.3,0.1,0.6,0.4,0.7l1.9,0.5l0.5,1.3c-2.1-0.8-5.2-1.5-7.4-0.5c-1,0.4-1.6,1.1-2.1,2l-4.4-0.5v-0.6c0-0.3-0.2-0.5-0.4-0.5
			L3.4,8.9c-0.2,0-0.4,0-0.5,0.2C2.8,9.3,2.7,9.5,2.8,9.7l0.8,1.6L1,12.2c-0.2,0.1-0.3,0.2-0.4,0.4l-0.5,3.8c0,0.2,0.1,0.5,0.3,0.6
			c0.2,0.1,0.5,0,0.6-0.2C2.2,15.3,4,14.3,6,14.3c2.7,0,4.9,1.9,5.6,4.4l-1,0.2c-0.6-2-2.4-3.5-4.6-3.5c-2.6,0-4.8,2.2-4.8,4.9
			s2.1,4.9,4.8,4.9s4.8-2.2,4.8-4.9c0-0.1,0-0.2,0-0.3l1-0.2c0,0.2,0,0.3,0,0.5c0,0.3,0.2,0.5,0.5,0.5h7.9c0.3,0,0.5-0.2,0.5-0.5
			c0-2.4,1.4-4.4,3.4-5.4l0.5,1.2c-1.4,0.9-2.3,2.4-2.3,4.2c0,2.7,2.1,4.9,4.8,4.9s4.8-2.2,4.8-4.9S29.7,15.4,27.1,15.4z M6,24.1
			c-2,0-3.7-1.7-3.7-3.8s1.7-3.8,3.7-3.8c1.6,0,3,1.1,3.5,2.6l-3.6,0.7c-0.3,0.1-0.5,0.3-0.4,0.6c0,0.3,0.3,0.4,0.5,0.4
			c0,0,0.1,0,0.1,0l3.6-0.7c0,0,0,0.1,0,0.1C9.7,22.4,8,24.1,6,24.1z M19.7,19.7h-6.9c-0.3-3.6-3.2-6.5-6.9-6.5
			c-1.7,0-3.3,0.6-4.5,1.6l0.2-1.8l2.9-1c0.1,0,0.3-0.2,0.3-0.3c0.1-0.1,0.1-0.3,0-0.4l-0.6-1.2L8.1,11v0.6c0,0.3,0.2,0.5,0.5,0.5
			l5.3,0.5c0.2,0,0.5-0.1,0.5-0.4c0.3-0.8,0.8-1.4,1.7-1.8c2.3-1,6,0.2,7.7,1c0.2,0.1,0.4,0.1,0.6-0.1c0.2-0.1,0.2-0.4,0.1-0.6
			l-1.3-3.5c1.5,0.3,2.9,1.3,3.9,2.6h-0.4c-0.3,0-0.5,0.2-0.5,0.5s0.2,0.5,0.5,0.5h1c0.3,0.7,0.5,1.4,0.5,2.2h-1.6
			C23,13.2,20,16.1,19.7,19.7z M27.1,24.1c-2,0-3.7-1.7-3.7-3.8c0-1.3,0.7-2.5,1.7-3.2l1.5,3.4c0.1,0.2,0.3,0.3,0.5,0.3
			c0.1,0,0.1,0,0.2,0c0.3-0.1,0.4-0.4,0.3-0.7l-1.5-3.4c0.3-0.1,0.7-0.2,1-0.2c2,0,3.7,1.7,3.7,3.8S29.1,24.1,27.1,24.1z"/>
	</g>
</g>
</svg>
