<?xml version="1.0" encoding="utf-8"?>
<!-- Generator: Adobe Illustrator 19.0.0, SVG Export Plug-In . SVG Version: 6.00 Build 0)  -->
<svg version="1.1" id="Layer_1" xmlns="http://www.w3.org/2000/svg" xmlns:xlink="http://www.w3.org/1999/xlink" x="0px" y="0px"
	 viewBox="0 0 32 32" style="enable-background:new 0 0 32 32;" xml:space="preserve">
<style type="text/css">
	.st0{fill:#008080;}
</style>
<g id="XMLID_2_" transform="translate(1 1)">
	<g id="XMLID_3_">
		<g id="XMLID_4_">
			<path id="XMLID_10_" class="st0" d="M5.5,12.8C5.7,12.9,6,13,6.2,13c0.1,0,0.2,0,0.3,0l14.2-2.9c0.5-0.1,1-0.6,1-1.1V4.2
				c0-0.4-0.2-0.7-0.4-0.9c-0.3-0.3-0.6-0.3-1-0.3L6,5.9C5.5,6,5,6.5,5,7v4.8C5,12.2,5.2,12.6,5.5,12.8z M6.1,7
				c0-0.1,0.1-0.1,0.1-0.1l14.2-2.8c0.1,0,0.1,0,0.1,0s0.1,0.1,0.1,0.1v4.9c0,0.1-0.1,0.1-0.1,0.1L6.3,12c-0.1,0-0.1-0.1-0.1-0.1
				s-0.1-0.1-0.1-0.1C6.1,11.8,6.1,7,6.1,7z"/>
			<path id="XMLID_5_" class="st0" d="M23.8,2.8V1.2c0-0.7-0.5-1.5-1.4-1.5L4.1,3.3C3.4,3.4,2.9,4.1,2.9,4.7v22.6v0.5
				c0,1.4,1.2,2.6,2.7,2.6H27v-4.6v-1v-22H23.8z M4.3,4.3l18.1-3.6c0.1,0.1,0.3,0.3,0.2,0.5V22c0,0.2-0.1,0.3-0.3,0.3L5.5,24.8
				c-0.3,0-0.6,0.1-0.8,0.1C4.4,25,4.2,25.1,4,25.3V4.7C4,4.5,4.1,4.4,4.3,4.3z M25.9,29.4H5.6c-0.9,0-1.6-0.7-1.6-1.5v-0.5
				c0-0.9,0.7-1.5,1.6-1.5h20.4L25.9,29.4L25.9,29.4z M12.7,24.8l9.9-1.4c0.7-0.1,1.2-0.7,1.2-1.3V3.8h2.1v21L12.7,24.8L12.7,24.8z"
				/>
		</g>
	</g>
</g>
</svg>
