<?xml version="1.0" encoding="utf-8"?>
<!-- Generator: Adobe Illustrator 19.0.0, SVG Export Plug-In . SVG Version: 6.00 Build 0)  -->
<svg version="1.1" id="Layer_1" xmlns="http://www.w3.org/2000/svg" xmlns:xlink="http://www.w3.org/1999/xlink" x="0px" y="0px"
	 viewBox="0 0 32 32" style="enable-background:new 0 0 32 32;" xml:space="preserve">
<style type="text/css">
	.st0{fill:#008080;}
</style>
<g id="XMLID_2_" transform="translate(1 1)">
	<g id="XMLID_3_">
		<g id="XMLID_4_">
			<path id="XMLID_20_" class="st0" d="M4.8,8l3.5,1.4c0.1,0.1,0.2,0.1,0.2,0.1c0.2,0,0.4-0.2,0.5-0.4C9,8.9,8.9,8.6,8.6,8.5L5.1,7
				C4.9,6.9,4.6,7.1,4.5,7.3C4.4,7.6,4.5,7.9,4.8,8z"/>
			<path id="XMLID_19_" class="st0" d="M4.5,10.2c-0.1,0.3,0.1,0.6,0.3,0.7l7.5,2.8c0.1,0.1,0.1,0.1,0.2,0.1c0.2,0,0.4-0.1,0.5-0.4
				c0.1-0.3-0.1-0.6-0.3-0.7L5.2,9.9C4.9,9.8,4.6,9.9,4.5,10.2z"/>
			<path id="XMLID_18_" class="st0" d="M12.7,15.8l-7.5-2.8c-0.3-0.1-0.6,0.1-0.7,0.3c-0.1,0.3,0.1,0.6,0.3,0.7l7.5,2.8
				c0.1,0.1,0.1,0.1,0.2,0.1c0.2,0,0.4-0.1,0.5-0.4C13.1,16.2,12.9,15.9,12.7,15.8z"/>
			<path id="XMLID_17_" class="st0" d="M12.7,18.9L5.2,16c-0.3-0.1-0.6,0.1-0.7,0.3c-0.1,0.3,0.1,0.6,0.3,0.7l7.5,2.8
				c0.1,0.1,0.1,0.1,0.2,0.1c0.2,0,0.4-0.1,0.5-0.4C13.1,19.3,12.9,19,12.7,18.9z"/>
			<path id="XMLID_16_" class="st0" d="M12.7,21.9l-7.5-2.8c-0.3-0.1-0.6,0.1-0.7,0.3c-0.1,0.3,0.1,0.6,0.3,0.7l7.5,2.8
				c0.1,0.1,0.1,0.1,0.2,0.1c0.2,0,0.4-0.1,0.5-0.4C13.1,22.4,12.9,22.1,12.7,21.9z"/>
			<path id="XMLID_10_" class="st0" d="M29.3,4.7H28V1.1c0-0.2-0.1-0.3-0.2-0.4c-0.2-0.1-0.3-0.1-0.5-0.1L15,4.7L2.6,0.6
				c-0.2,0-0.3,0-0.5,0.1C2.1,0.8,2,1,2,1.1v3.6H0.7C0.3,4.7,0,5.1,0,5.5v23.2c0,0.4,0.4,0.8,0.8,0.8h28.6c0.4,0,0.8-0.4,0.8-0.7
				V5.5C30,5.1,29.7,4.7,29.3,4.7z M27,5.2v19.1l-11.5,3.8V5.6L27,1.8V5.2z M3,1.8l11.5,3.7v22.6L3,24.4V5.2V1.8z M1,28.4V5.7h1v19
				c0,0.2,0.2,0.4,0.4,0.5l9.5,3.1L1,28.4L1,28.4z M29,28.4H18.2l9.4-3.1c0.2-0.1,0.4-0.3,0.4-0.5v-19h1L29,28.4L29,28.4z"/>
			<path id="XMLID_9_" class="st0" d="M17.5,10.6c0.1,0,0.2,0,0.2-0.1l7.5-2.8c0.3-0.1,0.4-0.4,0.3-0.7c-0.1-0.3-0.4-0.4-0.7-0.3
				l-7.5,2.8c-0.3,0.1-0.4,0.4-0.3,0.7C17.1,10.5,17.3,10.6,17.5,10.6z"/>
			<path id="XMLID_8_" class="st0" d="M17.5,13.7c0.1,0,0.2,0,0.2-0.1l7.5-2.8c0.3-0.1,0.4-0.4,0.3-0.7c-0.1-0.3-0.4-0.4-0.7-0.3
				l-7.5,2.8c-0.3,0.1-0.4,0.4-0.3,0.7C17.1,13.6,17.3,13.7,17.5,13.7z"/>
			<path id="XMLID_7_" class="st0" d="M17.5,16.8c0.1,0,0.2,0,0.2-0.1l7.5-2.8c0.3-0.1,0.4-0.4,0.3-0.7c-0.1-0.3-0.4-0.4-0.7-0.3
				l-7.5,2.8c-0.3,0.1-0.4,0.4-0.3,0.7C17.1,16.7,17.3,16.8,17.5,16.8z"/>
			<path id="XMLID_6_" class="st0" d="M17.5,19.9c0.1,0,0.2,0,0.2-0.1l7.5-2.8c0.3-0.1,0.4-0.4,0.3-0.7c-0.1-0.3-0.4-0.4-0.7-0.3
				l-7.5,2.8c-0.3,0.1-0.4,0.4-0.3,0.7C17.1,19.8,17.3,19.9,17.5,19.9z"/>
			<path id="XMLID_5_" class="st0" d="M17.5,23c0.1,0,0.2,0,0.2-0.1l7.5-2.8c0.3-0.1,0.4-0.4,0.3-0.7c-0.1-0.3-0.4-0.4-0.7-0.3
				l-7.5,2.8c-0.3,0.1-0.4,0.4-0.3,0.7C17.1,22.9,17.3,23,17.5,23z"/>
		</g>
	</g>
</g>
</svg>
