<?xml version="1.0" encoding="utf-8"?>
<!-- Generator: Adobe Illustrator 19.0.0, SVG Export Plug-In . SVG Version: 6.00 Build 0)  -->
<svg version="1.1" id="Layer_1" xmlns="http://www.w3.org/2000/svg" xmlns:xlink="http://www.w3.org/1999/xlink" x="0px" y="0px"
	 viewBox="0 0 32 32" style="enable-background:new 0 0 32 32;" xml:space="preserve">
<style type="text/css">
	.st0{fill:#008080;}
</style>
<g id="XMLID_2_">
	<g id="XMLID_3_">
		<g id="XMLID_4_">
			<path id="XMLID_9_" class="st0" d="M29.9,24.2V2c0-0.3-0.3-0.6-0.7-0.6h-24c-1.6,0-2.9,1.1-2.9,2.5v22.3c0,1.4,1.3,2.5,2.9,2.5
				h0.7v1.9c0,0.2,0.1,0.4,0.3,0.5C6.4,31,6.7,31.1,6.9,31l1.9-0.6l1.9,0.6c0.1,0,0.2,0,0.2,0c0.1,0,0.3,0,0.4-0.1
				c0.2-0.1,0.3-0.3,0.3-0.5v-1.9h16h0.7h0.7c0.4,0,0.7-0.3,0.7-0.6c0-0.3-0.3-0.6-0.7-0.6v-2.5C29.6,24.9,29.9,24.6,29.9,24.2z
				 M3.7,21.2c0.4,0,0.7-0.3,0.7-0.6s-0.3-0.6-0.7-0.6v-2.5c0.4,0,0.7-0.3,0.7-0.6s-0.3-0.6-0.7-0.6v-2.5c0.4,0,0.7-0.3,0.7-0.6
				c0-0.3-0.3-0.6-0.7-0.6V10c0.4,0,0.7-0.3,0.7-0.6c0-0.3-0.3-0.6-0.7-0.6V6.3c0.4,0,0.7-0.3,0.7-0.6c0-0.3-0.3-0.6-0.7-0.6V3.8
				c0-0.7,0.7-1.2,1.5-1.2h0.7v21H5.2c-0.5,0-1,0.1-1.5,0.3V21.2z M10.3,29.6L10.3,29.6l-1.2-0.3c-0.1,0-0.3,0-0.5,0l-1.2,0.3v-2.9
				h2.9L10.3,29.6L10.3,29.6z M27.7,25.5h-5.1c-0.4,0-0.7,0.3-0.7,0.6s0.3,0.6,0.7,0.6h5.1v0.6h-16v-0.6c0.4,0,0.7-0.3,0.7-0.6
				s-0.3-0.6-0.7-0.6H5.9c-0.4,0-0.7,0.3-0.7,0.6s0.3,0.6,0.7,0.6v0.6H5.2c-0.8,0-1.5-0.6-1.5-1.2c0-0.7,0.7-1.2,1.5-1.2h22.5V25.5z
				 M28.4,23.6h-0.7H7.4v-21h21V23.6z"/>
			<path id="XMLID_6_" class="st0" d="M9.6,13.7h16.7c0.4,0,0.7-0.3,0.7-0.6V5.7c0-0.3-0.3-0.6-0.7-0.6H9.6c-0.4,0-0.7,0.3-0.7,0.6
				v7.4C8.8,13.5,9.2,13.7,9.6,13.7z M10.3,6.3h15.2v6.2H10.3V6.3z"/>
			<path id="XMLID_5_" class="st0" d="M23.3,8.8H12.5c-0.4,0-0.7,0.3-0.7,0.6c0,0.3,0.3,0.6,0.7,0.6h10.9c0.4,0,0.7-0.3,0.7-0.6
				C24.1,9.1,23.7,8.8,23.3,8.8z"/>
		</g>
	</g>
</g>
</svg>
