<?xml version="1.0" encoding="utf-8"?>
<!-- Generator: Adobe Illustrator 19.0.0, SVG Export Plug-In . SVG Version: 6.00 Build 0)  -->
<svg version="1.1" id="Layer_1" xmlns="http://www.w3.org/2000/svg" xmlns:xlink="http://www.w3.org/1999/xlink" x="0px" y="0px"
	 viewBox="0 0 32 32" style="enable-background:new 0 0 32 32;" xml:space="preserve">
<style type="text/css">
	.st0{fill:#008080;}
</style>
<g id="XMLID_2_" transform="translate(1 1)">
	<g id="XMLID_3_">
		<g id="XMLID_4_">
			<path id="XMLID_18_" class="st0" d="M6.6,26.4H3.8c-0.3,0-0.6,0.2-0.6,0.5s0.2,0.5,0.6,0.5h2.8c0.3,0,0.6-0.2,0.6-0.5
				S6.9,26.4,6.6,26.4z"/>
			<path id="XMLID_17_" class="st0" d="M22.9,26.4h-14c-0.3,0-0.6,0.2-0.6,0.5s0.2,0.5,0.6,0.5h14c0.3,0,0.6-0.2,0.6-0.5
				S23.2,26.4,22.9,26.4z"/>
			<path id="XMLID_10_" class="st0" d="M26.6-0.1H3.1C2-0.1,1,0.9,1,2v24.9C1,28.6,2.5,30,4.3,30h23.4c0.7,0,1.3-0.6,1.3-1.2v-3.9
				v-1V2.2C29,0.9,28-0.1,26.6-0.1z M25.1,1v22.8H5.4V1H25.1z M2.1,2c0-0.5,0.5-1,1.1-1h1.2v22.8c-0.8,0-1.6,0.3-2.2,0.8V2z
				 M2.1,26.9c0-1.1,1-2.1,2.2-2.1h1.1h19.7V29H4.3C3.1,29,2.1,28,2.1,26.9z M27.9,28.7c0,0.1-0.1,0.2-0.2,0.2h-1.5v-4.1h1.7V28.7z
				 M26.2,23.8V1h0.4c0.7,0,1.3,0.5,1.3,1.2v21.6L26.2,23.8L26.2,23.8z"/>
			<path id="XMLID_7_" class="st0" d="M10.7,9.8h8.7c0.7,0,1.3-0.5,1.3-1.2V4.8c0-0.7-0.6-1.2-1.3-1.2h-8.6c-0.7,0-1.3,0.5-1.3,1.2
				v3.8C9.4,9.3,9.9,9.8,10.7,9.8z M10.5,4.8c0-0.1,0.1-0.2,0.2-0.2h8.7c0.1,0,0.2,0.1,0.1,0.2v3.8c0,0.1-0.1,0.2-0.2,0.2h-8.6
				c-0.1,0-0.2-0.1-0.2-0.2L10.5,4.8L10.5,4.8z"/>
			<path id="XMLID_6_" class="st0" d="M11.6,18.1c-0.3,0-0.6,0.2-0.6,0.5s0.2,0.5,0.6,0.5h6.7c0.3,0,0.6-0.2,0.6-0.5
				s-0.2-0.5-0.6-0.5H11.6z"/>
			<path id="XMLID_5_" class="st0" d="M9.4,21.2h11.2c0.3,0,0.6-0.2,0.6-0.5s-0.2-0.5-0.6-0.5H9.4c-0.3,0-0.6,0.2-0.6,0.5
				C8.8,21,9,21.2,9.4,21.2z"/>
		</g>
	</g>
</g>
</svg>
