<svg xmlns="http://www.w3.org/2000/svg" id="Layer_1" viewBox="0 0 32 32"><style>.st0{fill:#008080;}</style><g id="XMLID_2_"><path id="XMLID_3_" d="M31.4 5.9H29v7.4h1v3.4h-1.8V5.5c0-2.3-2.1-4.1-4.6-4.1H8.3c-2.6 0-4.6 1.9-4.6 4.1v11.1H2V13h1V5.5H.6v7.4h1v4h2V25c0 1.6 1 2.9 2.4 3.6v2.1h4.1v-1.6h11.5v1.6h4.1v-2.1c1.5-.7 2.5-2.1 2.5-3.7V17h2.2v-3.8h1.1l-.1-7.3zM10.6 2.2h10.8v2.2H10.6V2.2zm1.1 22.6h-6v-2.4h6v2.4zm14.5 0h-6v-2.4h6v2.4zm0-7.8s-1.2 3.3-10.4 3.3C6.5 20.3 5.6 17 5.6 17V5.6h20.7V17z" class="st0"/></g></svg>