<?xml version="1.0" encoding="utf-8"?>
<!-- Generator: Adobe Illustrator 19.0.0, SVG Export Plug-In . SVG Version: 6.00 Build 0)  -->
<svg version="1.1" id="Layer_1" xmlns="http://www.w3.org/2000/svg" xmlns:xlink="http://www.w3.org/1999/xlink" x="0px" y="0px"
	 viewBox="0 0 32 32" style="enable-background:new 0 0 32 32;" xml:space="preserve">
<style type="text/css">
	.st0{fill:#008080;}
</style>
<g id="XMLID_2_">
	<path id="XMLID_4_" class="st0" d="M30.4,30.2V8.5h-6v21.7h-1.5V12.9h-6v17.2h-1.5V17.4h-6v12.8H7.9v-7.8h-6v7.8H1.4
		c-0.3,0-0.5,0.2-0.5,0.6s0.2,0.6,0.5,0.6h0.5h6h1.5h6h1.5h6h1.5h6c0.3,0,0.5-0.2,0.5-0.6S30.7,30.2,30.4,30.2z M2.9,30.2v-6.7h4
		v6.7H2.9z M10.4,30.2V18.5h4v11.7H10.4z M17.9,30.2V14.1h4v16.1H17.9z M25.4,30.2V9.6h4v20.6H25.4z"/>
	<path id="XMLID_3_" class="st0" d="M4.9,14.8c0.1,0,0.2,0,0.3-0.1L23.3,3.1l-1.1,2.8c-0.1,0.3,0,0.6,0.2,0.7c0.1,0,0.1,0.1,0.2,0.1
		c0.2,0,0.4-0.1,0.5-0.3L24.9,2c0,0,0,0,0,0c0,0,0-0.1,0-0.1c0,0,0,0,0,0c0,0,0,0,0,0c0,0,0,0,0-0.1c0,0,0-0.1,0-0.1c0,0,0,0,0-0.1
		c0,0,0,0,0-0.1c0,0,0,0,0,0c0,0,0,0,0,0c0,0,0,0,0-0.1c0,0,0,0,0,0c0,0,0,0-0.1-0.1c0,0,0,0,0,0c0,0,0,0,0,0c0,0,0,0,0,0
		c0,0-0.1,0-0.1,0c0,0,0,0,0,0l-4.3-0.5c-0.3,0-0.5,0.2-0.5,0.5c0,0.3,0.2,0.6,0.5,0.6l2.7,0.3L4.6,13.8c-0.2,0.2-0.3,0.5-0.2,0.8
		C4.5,14.7,4.7,14.8,4.9,14.8z"/>
</g>
</svg>
