<svg xmlns="http://www.w3.org/2000/svg" id="Layer_1" viewBox="0 0 32 32"><style>.st0{fill:#008080;}</style><g id="XMLID_2_"><path id="XMLID_12_" d="M29.4 8.2H25l-2.2-5.4H9.2l-2 5.4h-.8V5.5H3.2v2.7h-.6C1 8.2 0 9.2 0 10.8v16c0 1.3 1.2 2.5 2.6 2.5h26.8c1.4 0 2.6-1.2 2.6-2.6v-16c0-1.4-1-2.5-2.6-2.5zm-25-1.7h1V8h-1V6.6zm26.5 20c0 1-.8 1.6-1.6 1.6H2.6c-.8 0-1.5-.6-1.5-1.4V10.8c0-.8.8-1.5 1.6-1.5h5.2L10 3.8h12l2 5.4h5.4c.8 0 1.5.7 1.5 1.5v16z" class="st0"/><path id="XMLID_9_" d="M16 7.6c-5.3 0-9.6 4.4-9.6 9.7S10.7 27 16 27s9.6-4.4 9.6-9.7-4.3-9.7-9.6-9.7zM16 26c-4.7 0-8.5-4-8.5-8.7s3.8-8.7 8.5-8.7 8.5 4 8.5 8.7S20.7 26 16 26z" class="st0"/><path id="XMLID_6_" d="M16 11c-3.5 0-6.4 2.8-6.4 6.4s3 6.5 6.4 6.5 6.4-3 6.4-6.6-3-6.5-6.4-6.5zm0 11.8c-3 0-5.3-2.4-5.3-5.4S13 12 16 12s5.3 2.4 5.3 5.4-2.4 5.4-5.3 5.4z" class="st0"/><path id="XMLID_3_" d="M27.7 10.3c-1.2 0-2 1-2 2.2s1 2.2 2 2.2 2-1 2-2.2-.8-2.2-2-2.2zm0 3.3c-.6 0-1-.5-1-1s.4-1.2 1-1.2 1 .5 1 1-.4 1.2-1 1.2z" class="st0"/></g></svg>