<svg id="Layer_1" xmlns="http://www.w3.org/2000/svg" viewBox="0 0 32 32"><style>.st0{fill:#008080;}</style><g id="XMLID_2_"><path id="XMLID_12_" class="st0" d="M29.4 8.7h-4.5l-2.1-5.1H9.2L7.1 8.7h-.7V6.1H3.2v2.5h-.6C1.1 8.7 0 9.8 0 11.1V26c0 1.3 1.2 2.4 2.6 2.4h26.8c1.4 0 2.6-1.1 2.6-2.4V11.1c0-1.3-1.1-2.4-2.6-2.4zM4.3 7.1h1.1v1.5H4.3V7.1zm26.6 18.8c0 .8-.7 1.4-1.5 1.4H2.6c-.8 0-1.5-.6-1.5-1.4V11.1c0-.8.7-1.4 1.5-1.4h5.2L10 4.6h12l2.1 5.1h5.3c.8 0 1.5.6 1.5 1.4v14.8z"/><path id="XMLID_9_" class="st0" d="M16 8.2c-5.3 0-9.6 4.1-9.6 9.1s4.3 9.1 9.6 9.1 9.6-4.1 9.6-9.1-4.3-9.1-9.6-9.1zm0 17.2c-4.7 0-8.5-3.6-8.5-8.1s3.8-8.1 8.5-8.1 8.5 3.6 8.5 8.1-3.8 8.1-8.5 8.1z"/><path id="XMLID_6_" class="st0" d="M16 11.2c-3.5 0-6.4 2.7-6.4 6.1s2.9 6.1 6.4 6.1 6.4-2.7 6.4-6.1-2.9-6.1-6.4-6.1zm0 11.1c-2.9 0-5.3-2.3-5.3-5.1s2.4-5.1 5.3-5.1 5.3 2.3 5.3 5.1-2.4 5.1-5.3 5.1z"/><path id="XMLID_3_" class="st0" d="M27.7 10.7c-1.2 0-2.1.9-2.1 2s1 2 2.1 2 2.1-.9 2.1-2-.9-2-2.1-2zm0 3c-.6 0-1.1-.5-1.1-1 0-.6.5-1 1.1-1s1.1.5 1.1 1c0 .6-.5 1-1.1 1z"/></g></svg>