<?xml version="1.0" encoding="utf-8"?>
<!-- Generator: Adobe Illustrator 19.0.0, SVG Export Plug-In . SVG Version: 6.00 Build 0)  -->
<svg version="1.1" id="Layer_1" xmlns="http://www.w3.org/2000/svg" xmlns:xlink="http://www.w3.org/1999/xlink" x="0px" y="0px"
	 viewBox="0 0 32 32" style="enable-background:new 0 0 32 32;" xml:space="preserve">
<style type="text/css">
	.st0{fill:#008080;}
</style>
<path class="st0" d="M9.4,23.2c0-1-0.9-1.8-2-1.8s-2,0.8-2,1.8c0,1,0.9,1.8,2,1.8S9.4,24.1,9.4,23.2z M21.4,24.3
	c0-0.3-0.3-0.6-0.7-0.6h-9.4c-0.4,0-0.7,0.3-0.7,0.6c0,0.3,0.3,0.6,0.7,0.6h9.4C21.1,24.9,21.4,24.7,21.4,24.3z M26.8,23.2
	c0-1-0.9-1.8-2-1.8s-2,0.8-2,1.8c0,1,0.9,1.8,2,1.8C25.9,24.9,26.8,24.1,26.8,23.2z M3.6,15.6H0.7c-0.4,0-0.7,0.3-0.7,0.6v0.6
	c0,0.9,1.2,1.2,2.2,1.2L3.6,15.6z M29.5,19.3c-1-1.7-2.3-3.7-3.6-5.6c-1.1-1.5-1.8-2.3-3.7-2.6c-1.9-0.3-3.6-0.4-6.1-0.4
	s-4.3,0.1-6.1,0.4c-1.8,0.3-2.6,1-3.7,2.6c-1.3,1.9-2.6,4-3.6,5.6c-0.9,1.5-1.3,2.8-1.3,4.5c0,1.5,0.6,2.8,1.3,4.5v2.6
	C2.7,31.4,3.3,32,4,32h2c0.7,0,1.3-0.5,1.3-1.2v-1.2h17.4v1.2c0,0.6,0.6,1.2,1.3,1.2h2c0.7,0,1.3-0.5,1.3-1.2v-2.6
	c0.8-1.6,1.3-2.9,1.3-4.5C30.8,22.1,30.4,20.8,29.5,19.3z M8.6,14.8c0.9-1.3,1.1-1.3,1.9-1.5c1.7-0.3,3.3-0.4,5.7-0.4s4,0.1,5.7,0.4
	c0.7,0.1,1,0.2,1.9,1.5c0.5,0.8,1.1,1.6,1.6,2.4c-1.9,0.3-5.4,0.6-9.1,0.6c-4.1,0-7.4-0.4-9.1-0.6C7.5,16.4,8,15.6,8.6,14.8z
	 M24.1,27.3h-16c-2.2,0-4.1-1.6-4.1-3.5c0-1.9,0.7-2.8,1.6-4.3c1.4,0.2,5.3,0.8,10.5,0.8c4.7,0,8.8-0.5,10.5-0.8
	c0.9,1.4,1.6,2.4,1.6,4.3C28.1,25.7,26.3,27.3,24.1,27.3z M31.5,15.6c0.4,0,0.7,0.3,0.7,0.6v0.6c0,0.9-1.2,1.2-2.2,1.2l-1.5-2.3
	L31.5,15.6L31.5,15.6z M24.8,2.7h-8.7V1.9c0-1.1-1.1-1.9-2.3-1.8L7.4,0.7c-1.1,0.1-2,0.9-2,1.8v4.4c0,1,0.8,1.8,2,1.8l6.3,0.6
	c1.3,0.1,2.3-0.8,2.3-1.8V6.7h3.4l1.2-1.3l1.2,1.3l1.3-1.3l1.2,1.3L26.7,5C26.7,5,24.8,2.7,24.8,2.7z M8.5,7.4l-1-0.1
	C7.2,7.3,7,7.1,7,6.9V2.5C7,2.2,7.2,2,7.5,2l1-0.1L8.5,7.4L8.5,7.4z"/>
</svg>
