<svg xmlns="http://www.w3.org/2000/svg" id="Layer_1" viewBox="0 0 32 32">
  <style>
    .st0{fill:none;stroke:#008080;stroke-width:0.8;stroke-miterlimit:10;}
  </style>
  <g id="XMLID_2_">
    <g id="XMLID_3_">
      <path id="XMLID_16_" d="M21.48 6.25c-.15.12-.28.25-.31.31-.04.08-.13.06-.29-.04-.83-.55-1.7.43-1.38 1.55.07.24 1.79 2.06 1.96 2.06.07 0 1.2-1.88 1.35-2.27.14-.32.12-.99-.03-1.27-.29-.53-.88-.69-1.3-.34z" class="st0"/>
      <path id="XMLID_15_" d="M26.08 10.43c-.15.12-.28.25-.31.31-.03.06-.15.05-.33-.05-.36-.19-.64-.19-.93.01-.46.31-.64 1.25-.32 1.75.18.29 1.75 1.86 1.86 1.86.08 0 1.2-1.86 1.36-2.27.24-.58.02-1.42-.43-1.66-.37-.2-.6-.19-.9.05z" class="st0"/>
      <path id="XMLID_10_" d="M10.08 10.81c-.99.28-1.79.97-3.68 3.16-.54.64-1.2 1.37-1.44 1.63l-.45.48-1.47.26c-1.7.29-2.02.46-2.36 1.23-.2.44-.2.5-.23 3.1-.02 2.63-.02 2.65.17 3.21.15.4.31.65.55.86l.34.29 1.66.03 1.66.03v-1.03c0-.88.03-1.1.19-1.55.61-1.58 2.03-2.33 3.28-1.72.66.32 1.33 1.18 1.54 1.98.16.61.2 1.4.11 1.96l-.06.35h11.24l-.06-.24c-.03-.13-.06-.53-.06-.91 0-1.3.62-2.52 1.54-3.07.54-.32 1.6-.32 2.13 0 .57.33 1.14 1.12 1.36 1.87.15.51.17.76.15 1.49l-.03.87 1.7-.03 1.7-.03.53-.35c.92-.59 1.24-1.31 1.33-3.05.09-1.68-.36-3.45-1.04-4.09-.31-.29-.86-.49-3.57-1.29l-1.21-.35-1.78-1.27c-2.23-1.6-5.09-3.46-5.77-3.76-.51-.22-.64-.23-4-.22-2.59.01-3.6.05-3.97.16zm5.55 2.82v2.25h8.16v.84H6.74v-.84h8.24v-4.5h.64l.01 2.25zm-1.66 5.76c.31.39.26.68-.25 1.45-.25.38-.48.69-.53.69-.03 0-.3-.26-.59-.59-.46-.5-.53-.63-.53-.93 0-.63.48-.98.85-.64.13.13.17.12.32-.05.21-.27.5-.25.73.07zm5.68-.06c.3.37.23.77-.23 1.51-.23.35-.47.64-.53.64-.18 0-1.08-1.04-1.14-1.3-.11-.58.41-1.13.82-.86.16.12.23.12.38-.03.25-.23.49-.21.7.04z" class="st0"/>
      <path id="XMLID_7_" d="M6.74 21.1c-.94.38-1.61 1.53-1.62 2.79 0 1.22.44 2.2 1.24 2.74.34.23.52.28 1.02.28.72 0 1.18-.24 1.63-.84.99-1.3.89-3.38-.21-4.46-.21-.21-.53-.43-.69-.5-.34-.11-1.06-.12-1.37-.01zm1.28 1.69c.57.46.65 1.53.15 2.18-.62.8-1.64.43-1.83-.66-.09-.53.04-1.03.37-1.4.23-.26.35-.32.66-.32.23-.01.48.07.65.2z" class="st0"/>
      <path id="XMLID_4_" d="M22.6 21.32c-.86.56-1.27 1.42-1.27 2.67 0 .93.23 1.55.78 2.2 1.16 1.35 2.97.84 3.63-1.04.23-.64.2-1.75-.04-2.42-.38-1.07-1.04-1.63-1.99-1.69-.56-.04-.65-.02-1.11.28zm1.7 1.57c.54.62.56 1.58.04 2.13-.59.65-1.37.43-1.74-.48-.15-.38-.15-.75.02-1.2.18-.49.53-.76 1.01-.76.32 0 .45.06.67.31z" class="st0"/>
    </g>
  </g>
</svg>
