<?xml version="1.0" encoding="utf-8"?>
<!-- Generator: Adobe Illustrator 19.0.0, SVG Export Plug-In . SVG Version: 6.00 Build 0)  -->
<svg version="1.1" id="Layer_1" xmlns="http://www.w3.org/2000/svg" xmlns:xlink="http://www.w3.org/1999/xlink" x="0px" y="0px"
	 viewBox="0 0 32 32" style="enable-background:new 0 0 32 32;" xml:space="preserve">
<style type="text/css">
	.st0{fill:#008080;}
</style>
<path id="XMLID_2_" class="st0" d="M28.6,13.4l1.6-0.2c0.8-0.1,1.4-1,1.4-2c0-1.1-0.7-2-1.6-2h-1.1c-0.7,0-1.3,0.5-1.5,1.3l-1.6-4.2
	c-0.6-1.6-1.8-2.7-3.1-3.1c-2.3-0.7-11.5-0.7-13.8,0C7.6,3.5,6.4,4.7,5.8,6.3l-1.6,4.2C4,9.8,3.4,9.2,2.7,9.2H1.6
	c-0.9,0-1.6,0.9-1.6,2c0,1,0.6,1.8,1.4,2L3,13.4l-1.5,1.9c-0.8,0.9-1.1,2.3-1,3.5L1,23.4c0.1,1.2,0.6,2.2,1.3,2.9v2.1
	c0,1.2,0.8,2.2,1.8,2.2h3c1,0,1.8-1,1.8-2.2v-1h13.5v1c0,1.2,0.8,2.2,1.8,2.2h3c1,0,1.8-1,1.8-2.2v-2.1c0.7-0.7,1.2-1.7,1.3-2.9
	l0.5-4.6c0.1-1.3-0.2-2.6-1-3.5L28.6,13.4z M26.8,25.9H4.8c-1.2,0-2.3-1.1-2.5-2.5h27.1C29.1,24.9,28.1,25.9,26.8,25.9z M22.9,19.5
	l0.6,2.4h-0.8l-0.6-2.4H22.9z M20.8,19.5l0.6,2.4H10.2l0.6-2.4H20.8z M8.9,21.9H8.1l0.6-2.4h0.8L8.9,21.9z M6.8,21.9H2.1l-0.3-2.4
	h5.6L6.8,21.9z M24.8,21.9l-0.6-2.4h5.6l-0.3,2.4H24.8z M28.5,11.2c0-0.3,0.2-0.5,0.4-0.5H30c0.2,0,0.4,0.2,0.4,0.5
	c0,0.2-0.1,0.4-0.3,0.5l-1.6,0.2L28.5,11.2L28.5,11.2z M9.2,4.6C11.3,4,20.3,4,22.4,4.6c0.5,0.1,1,0.4,1.4,0.9
	C21,4.8,10.7,4.8,7.8,5.5C8.2,5,8.7,4.7,9.2,4.6z M6.7,7.5C7.1,7.2,7.5,7.1,7.9,7c2.6-0.6,13.2-0.6,15.8,0c0.4,0.1,0.8,0.3,1.2,0.5
	l1.9,5h-22L6.7,7.5z M1.2,11.2c0-0.3,0.2-0.5,0.4-0.5h1.1c0.2,0,0.4,0.2,0.4,0.5v0.7l-1.6-0.2C1.4,11.7,1.2,11.4,1.2,11.2z M4.3,14
	h23.1l1.9,2.4c0.4,0.4,0.6,1,0.6,1.6H1.7c0-0.6,0.3-1.2,0.6-1.6L4.3,14z M7.9,28.5c0,0.4-0.3,0.8-0.6,0.8h-3c-0.3,0-0.6-0.3-0.6-0.8
	v-1.3c0.4,0.2,0.8,0.2,1.2,0.2h3.1V28.5z M28,28.5c0,0.4-0.3,0.8-0.6,0.8h-3c-0.3,0-0.6-0.3-0.6-0.8v-1h3.1c0.4,0,0.8-0.1,1.2-0.2
	L28,28.5L28,28.5z"/>
</svg>
