<svg id="Layer_1" xmlns="http://www.w3.org/2000/svg" viewBox="0 0 32 32"><style>.st0{fill:#008080;}</style><path class="st0" d="M9.4 23.2c0-1-.9-1.8-2-1.8s-2 .8-2 1.8.9 1.8 2 1.8 2-.9 2-1.8zm12 1.1c0-.3-.3-.6-.7-.6h-9.4c-.4 0-.7.3-.7.6s.3.6.7.6h9.4c.4 0 .7-.2.7-.6zm5.4-1.1c0-1-.9-1.8-2-1.8s-2 .8-2 1.8.9 1.8 2 1.8c1.1-.1 2-.9 2-1.8zM3.6 15.6H.7c-.4 0-.7.3-.7.6v.6c0 .9 1.2 1.2 2.2 1.2l1.4-2.4zm25.9 3.7c-1-1.7-2.3-3.7-3.6-5.6-1.1-1.5-1.8-2.3-3.7-2.6-1.9-.3-3.6-.4-6.1-.4s-4.3.1-6.1.4c-1.8.3-2.6 1-3.7 2.6-1.3 1.9-2.6 4-3.6 5.6-.9 1.5-1.3 2.8-1.3 4.5 0 1.5.6 2.8 1.3 4.5v2.6c0 .5.6 1.1 1.3 1.1h2c.7 0 1.3-.5 1.3-1.2v-1.2h17.4v1.2c0 .6.6 1.2 1.3 1.2h2c.7 0 1.3-.5 1.3-1.2v-2.6c.8-1.6 1.3-2.9 1.3-4.5.2-1.6-.2-2.9-1.1-4.4zM8.6 14.8c.9-1.3 1.1-1.3 1.9-1.5 1.7-.3 3.3-.4 5.7-.4s4 .1 5.7.4c.7.1 1 .2 1.9 1.5.5.8 1.1 1.6 1.6 2.4-1.9.3-5.4.6-9.1.6-4.1 0-7.4-.4-9.1-.6.3-.8.8-1.6 1.4-2.4zm15.5 12.5h-16c-2.2 0-4.1-1.6-4.1-3.5s.7-2.8 1.6-4.3c1.4.2 5.3.8 10.5.8 4.7 0 8.8-.5 10.5-.8.9 1.4 1.6 2.4 1.6 4.3-.1 1.9-1.9 3.5-4.1 3.5zm7.4-11.7c.4 0 .7.3.7.6v.6c0 .9-1.2 1.2-2.2 1.2l-1.5-2.3 3-.1zM24.8 2.7h-8.7v-.8C16.1.8 15 0 13.8.1L7.4.7c-1.1.1-2 .9-2 1.8v4.4c0 1 .8 1.8 2 1.8l6.3.6c1.3.1 2.3-.8 2.3-1.8v-.8h3.4l1.2-1.3 1.2 1.3 1.3-1.3 1.2 1.3L26.7 5l-1.9-2.3zM8.5 7.4l-1-.1c-.3 0-.5-.2-.5-.4V2.5c0-.3.2-.5.5-.5l1-.1v5.5z"/></svg>