<svg xmlns="http://www.w3.org/2000/svg" id="Layer_1" viewBox="0 0 32 32"><style>.st0{fill:#008080;}</style><g id="XMLID_5_"><g id="XMLID_6_"><path id="XMLID_7_" d="M21 1.3c-1.7 0-3.3.5-4.6 1.3-1.4-.8-2.9-1.3-4.6-1.3-5.1 0-9.2 4.3-9.2 9.6 0 2.7 1 5.1 2.7 6.8l11.1 11.6 11.1-11.6c1.7-1.7 2.7-4.1 2.7-6.8 0-5.3-4.1-9.6-9.2-9.6zM25.9 16l-9.5 9.9L6.9 16c-1.3-1.4-2-3.2-2-5.1 0-4 3.1-7.2 6.9-7.2 1.2 0 2.4.3 3.5 1l1.2.7 1.2-.7c1-.6 2.2-1 3.5-1 3.8 0 6.9 3.2 6.9 7.2-.2 1.9-.9 3.7-2.2 5.1z" class="st0"/></g></g><g id="XMLID_2_"><g id="XMLID_3_"><path id="XMLID_4_" d="M17.2 13.3v-4h-1.6v4h-3.8v1.6h3.8v4h1.6v-4H21v-1.6z" class="st0"/></g></g></svg>