<svg xmlns="http://www.w3.org/2000/svg" id="Layer_1" viewBox="0 0 32 32"><style>.st0{fill:none;stroke:#008080;stroke-miterlimit:10;} .st1{fill:#008080;}</style><g id="XMLID_2_"><g id="XMLID_3_"><path id="XMLID_10_" d="M15.7 18.4H15c-.5 0-.8-.3-.8-.7 0 0 0-.3.2-.4.5-.4.8-1 1-1.7h.3c.4 0 1-1 1-1.5 0-.6 0-1-.5-1H16c0-2-.5-4-3.2-4-2.8 0-3.2 2-3.2 4-.5 0-.6.4-.6 1 0 .8.5 1.7 1 1.7.4.6.7 1.2 1.2 1.6l.2.4c0 .4-.3.7-.7.7h-1c-1.6 0-3 1.3-3 3v.8c0 .5.5 1 1 1h10c.5 0 1-.4 1-1v-.8c0-1.6-1.4-3-3-3z" class="st0"/><path id="XMLID_9_" d="M24.7 10.2h-8.4l.5 2c.2 0 .3.3.4.5h7.5c.4 0 .7-.3.7-.7v-1c0-.5-.3-.8-.7-.8z" class="st1"/><path id="XMLID_8_" d="M24.7 14.8h-7.3c-.2.8-.7 1.5-1.4 1.7v.8h8.7c.4 0 .7-.3.7-.7v-1c0-.5-.3-.8-.7-.8z" class="st1"/><path id="XMLID_7_" d="M24.7 19.4H19c.4.6.6 1.3.6 2v.6h5c.5 0 .8-.3.8-.7v-1c0-.6-.3-1-.7-1z" class="st1"/><path id="XMLID_4_" d="M27.7 3.2H4.4C2 3.2 0 5.2 0 7.5v17.2C0 27 2 29 4.5 29h23.3c2.4 0 4.3-2 4.3-4.3V7.5c0-2.4-2-4.3-4.3-4.3zM30 24.7c0 1.3-1 2.3-2.3 2.3H4.4C3 27 2 26 2 24.7V7.5c0-1.3 1-2.3 2.4-2.3h23.3c1.3 0 2.3 1 2.3 2.3v17.2z" class="st1"/></g></g></svg>