<svg id="Layer_1" xmlns="http://www.w3.org/2000/svg" viewBox="0 0 32 32"><style>.st0{fill:#008080;}</style><g id="XMLID_2_"><path id="XMLID_11_" class="st0" d="M7.1 11.9L10.2 8c.2-.3.4-.7.4-1.1s-.1-.9-.4-1.2L9.7 5c-.5-.6-1.3-.6-1.8 0L4.7 8.9c-.5.6-.5 1.6 0 2.3l.5.7c.3.3.6.5.9.5.4 0 .7-.2 1-.5zm-1.8-1.4c-.2-.2-.2-.6 0-.8l3.1-3.9c.1-.1.2-.2.3-.2.1 0 .2.1.3.2l.5.7c.1.1.1.3.1.4 0 .2 0 .3-.1.4l-3.1 3.9c-.2.2-.5.2-.7 0l-.4-.7z"/><path id="XMLID_3_" class="st0" d="M32 16.1l-.4-1.5c-.5-1.7-1.3-3.4-2.3-4.7.2-1.3-.2-2.7-.9-3.6-.7-.9-1.8-1.3-2.9-1.1l-1-1.3.4-.5c.2-.2.2-.5 0-.7L23 .3c-.2-.2-.4-.2-.6 0l-3.5 4.4c-.2.2-.2.5 0 .7l1.9 2.4c.1.1.2.1.3.1.1 0 .2-.1.3-.1l.4-.5 1 1.3c-.1.5 0 1.1 0 1.6l-4.2 5.3-6-7.5c.4-.9.4-2-.2-2.8L9 1C8.6.6 8.2.3 7.8.3c-.5 0-.9.3-1.2.7L1.5 7.4c-.3.3-.5.9-.5 1.4 0 .6.2 1.1.5 1.5l3.4 4.3c.3.4.8.6 1.2.6.3 0 .6-.1.9-.3l2.1.5 1.2 2.5c.1.1.2.2.3.2l2.3.5 1.1 2.5-5.7 7.1c-.6.8-.6 2.1 0 3 .3.4.8.6 1.2.6.4 0 .9-.2 1.2-.6l6.4-8 .6 1.3c.1.1.2.2.3.2l2.3.5 1.2 2.5c.1.1.2.2.3.2l2.3.5.9 2.6c.1.1.2.2.3.2l2.4.6h.1c.1 0 .2-.1.3-.1l1.5-1.8c.1-.1.1-.2.1-.4 0-.1 0-.3-.1-.4L21 18.3l4.2-5.2c.5.2 1 .2 1.5.1 1.1 1.3 2.4 2.3 3.8 2.9l1.2.5h.1c.1 0 .2-.1.3-.1-.1 0 0-.2-.1-.4zM21 6.6l-1.4-1.7 3-3.7L24 2.9l-3 3.7zM5.5 13.9L2.1 9.6c-.2-.2-.3-.5-.3-.8s.1-.6.3-.8l5.1-6.4c.2-.2.4-.3.6-.3.2 0 .4.1.6.3L11.8 6c.3.4.3 1.1 0 1.5l-5.1 6.4c-.3.4-.9.4-1.2 0zm7.9 4.1c-.1-.1-.2-.2-.3-.2l-2.3-.5-1.2-2.5c-.1-.1-.2-.2-.3-.2l-1.7-.4L12 8.7l5.9 7.4-3.4 4.3-1.1-2.4zm15.2 11.6l-1 1.2-2.1-.5-1.2-2.5c-.1-.1-.2-.2-.3-.2l-2.1-.6-1.2-2.5c-.1-.1-.2-.2-.3-.2l-2.3-.5-.6-1.3 2.7-3.4 8.4 10.5zm-18.6.9c-.3.4-.9.4-1.2 0-.3-.4-.3-1.1 0-1.5L23 11.2c.1.4.3.7.6 1l.6.6L10 30.5zm20.5-15.3c-1.4-.6-2.6-1.6-3.6-2.9-.1-.1-.2-.1-.3-.1h-.1c-.9.2-1.8-.1-2.4-.8-.6-.7-.8-1.9-.7-3 0-.2 0-.3-.1-.5l-1.2-1.5 1.6-2L25 6c.1.1.2.2.4.1.9-.2 1.8.1 2.4.8.6.7.8 1.9.7 3 0 .2 0 .3.1.5 1 1.3 1.8 2.8 2.3 4.5l.2.5-.6-.2z"/></g></svg>