<svg xmlns="http://www.w3.org/2000/svg" id="Layer_1" viewBox="0 0 32 32"><style>.st0{fill:none;stroke:#008080;stroke-width:0.6;stroke-miterlimit:10;}</style><g id="XMLID_121_"><path id="XMLID_126_" d="M13.4 18.6c.1 0 .2.1.2.1h.1c.1 0 .2-.1.3-.2l1.9-3.5c.1-.1.1-.2 0-.4 0-.1-.1-.2-.2-.3l-2.9-1.9c-.2-.1-.5-.1-.6.2l-.2.4-3.5-.7-1.1-2.4 1.1 1.5v-.1c0-2-1.5-3.6-3.3-3.6C4 7.7 3 8.8 3 10.2v19.6c0 .8.6 1.5 1.4 1.5.8 0 1.4-.7 1.4-1.5v-9h.9v9c0 .4-.1.8-.3 1.2.2.2.5.3.8.3.8 0 1.4-.7 1.4-1.5V15.6l-1.1-.2-.3-.1c-.5-.1-.9-.5-1-1L5.4 11l1.3 3c.2.4.5.6.8.7l3.2.6-.3.7c-.1.2-.1.5.2.7l2.8 1.9zm-2-2.5l.3-.6H12c.5 0 1-.4 1.1-1 .1-.3 0-.6-.2-.9l1.1.7-1.4 2.6-1.2-.8z" class="st0"/><path id="XMLID_125_" d="M30.1 21.7c0-.4-.3-.7-.6-.7h-5.3l.2-.4c.1-.2.1-.5-.2-.7L17 15.1c-.1-.1-.2-.1-.3-.1-.1 0-.2.1-.3.2l-1.8 3.3c-.1.1-.1.3 0 .4 0 .1.1.2.3.3h.1c.1 0 .3 0 .4-.1l.4-.3.1.6.4-.2h.1l.2.4.8-.5.1.8.4-.2.2.4.6-.4.1.4c0 .2.1.3.3.4h-6c-.4 0-.6.3-.6.7v1.6c0 .4.3.7.6.7h4.2L15.8 30c-.2.5.1 1.1.6 1.3.1 0 .2.1.3.1.4 0 .7-.3.9-.7l2.2-6.7h3.8l2.2 6.7c.1.4.5.7.9.7.1 0 .2 0 .3-.1.5-.2.7-.8.6-1.3l-2.3-6h4.2c.4 0 .6-.3.6-.7v-1.6z" class="st0"/><path id="XMLID_122_" d="M5.8 7.1c1.5 0 2.7-1.3 2.7-2.9 0-1.6-1.2-2.9-2.7-2.9-1.5 0-2.7 1.3-2.7 2.9 0 1.6 1.2 2.9 2.7 2.9z" class="st0"/></g></svg>