<svg xmlns="http://www.w3.org/2000/svg" id="Layer_1" viewBox="0 0 32 32"><style>.st0{fill:none;stroke:#008080;stroke-width:0.8;stroke-miterlimit:10;}</style><g id="XMLID_2_"><g id="XMLID_3_"><path id="XMLID_7_" d="M11.2 15.7c0-.4 0-.7.1-1.1.1-.9.3-1.7.4-2.6l.3-1.2c.2-.4.3-.8.5-1.2.3-.7.7-1.4 1.2-2 .1-.2.2-.3.3-.4.1-.1.2-.3.4-.4l.7-.7c.5-.4.9-.8 1.4-1 .4-.3.8-.5 1.1-.6.7-.3 1-.4 1-.4s-.3.3-.9.7c-.3.2-.6.5-.9.8-.4.3-.7.7-1.1 1.2-.2.2-.4.5-.5.7-.1.1-.2.3-.3.4-.1.1-.2.3-.2.4-.4.6-.6 1.2-.9 1.9l-.3 1.1c-.1.4-.2.8-.3 1.1-.1.8-.3 1.6-.4 2.4 0 .3-.1.6-.1.9H30v-.9C30 8.9 26 4 20.8 3.3c.3-.3.6-.8.6-1.3 0-1-.8-1.8-1.7-1.8C18.8.2 18 1 18 2c0 .5.2 1 .5 1.3-5.2.7-9.2 5.6-9.2 11.5v.9h1.9z" class="st0"/><path id="XMLID_6_" d="M7.4 16.4h24.5v2.3H7.4z" class="st0"/><path id="XMLID_5_" d="M21.8 20.3c-1.2.6-5.6 2.3-5.6 2.3l-5.1-.3s2.9-.9 4.1-1.1c1.1-.3.6-1.6 0-1.6s-6.1.2-6.1.2l-3.6 1.4 1 6.5s.8-1.4 1.5-1.4c.8 0 7.3.2 8.1 0 .9-.2 6.3-4.1 6.9-4.6.6-.4.1-2-1.2-1.4z" class="st0"/><path id="XMLID_4_" d="M.5 21.8v8.5l5.6-1.1-1.4-8.1z" class="st0"/></g></g></svg>