<?xml version="1.0" encoding="utf-8"?>
<!-- Generator: Adobe Illustrator 19.0.0, SVG Export Plug-In . SVG Version: 6.00 Build 0)  -->
<svg version="1.1" id="Layer_1" xmlns="http://www.w3.org/2000/svg" xmlns:xlink="http://www.w3.org/1999/xlink" x="0px" y="0px"
	 viewBox="0 0 32 32" style="enable-background:new 0 0 32 32;" xml:space="preserve">
<style type="text/css">
	.st0{fill:#008080;}
</style>
<g id="XMLID_2_">
	<path id="XMLID_6_" class="st0" d="M29.1,17.6h-0.9c-0.8,0-1.5,0.7-1.5,1.6v2h-4.9V18c1.8-0.6,2.9-3.1,2.9-6.5
		c0-3.7-1.3-6.3-3.3-6.6c0,0-0.1,0-0.1,0H1.7c-0.2,0-0.4,0.2-0.5,0.4h0c0,0.1-0.2,1.3,0.6,2.4c0.6,0.7,1.4,1.1,2.6,1.2
		c-0.2,0.8-0.3,1.7-0.3,2.6c0,3.7,1.5,6.6,3.4,6.6h10.3v6.6c0,0.8,0.7,1.5,1.5,1.5h0.9c0.6,0,1.2-0.4,1.4-1h5v1.5
		c0,0.9,0.7,1.6,1.5,1.6h0.9c0.8,0,1.5-0.7,1.5-1.6v-7.5C30.6,18.3,29.9,17.6,29.1,17.6z M21.2,5.9c1.2,0.2,2.3,1.9,2.5,5.1H13.6
		l-1.8-1.9c-0.1-0.1-0.2-0.1-0.3-0.1h-1h-0.2h-2H7.9c0,0,0,0,0,0c0-0.1-0.1-0.2-0.2-0.3c0,0-0.1-0.1-0.1-0.1c0,0,0,0,0-0.1
		c0,0,0,0-0.1-0.1c0,0,0-0.1-0.1-0.1c0,0,0,0,0,0C7.3,8.2,7.3,8.2,7.2,8.1c0,0-0.1-0.1-0.1-0.1C7,7.9,6.9,7.8,6.8,7.7
		C6.7,7.6,6.6,7.6,6.5,7.5c0,0-0.1-0.1-0.1-0.1C5.6,6.8,4.8,6.3,4,5.9H21.2z M8.1,10.8c0,1.1-0.3,1.8-0.5,2.1
		c-0.2-0.3-0.5-1-0.5-2.1c0-0.4,0-0.8,0.1-1c0,0,0,0,0,0c0,0.1,0.1,0.1,0.1,0.1c0,0,0,0,0,0c0.1,0,0.1,0,0.2,0H8
		C8,10.2,8.1,10.5,8.1,10.8z M2.6,7.1C2.3,6.8,2.2,6.4,2.2,6.2C2.9,6.5,3.9,7,4.8,7.5c0,0.1-0.1,0.3-0.1,0.4C3.7,7.9,3,7.6,2.6,7.1z
		 M5.1,11.5c0-1.2,0.2-2.4,0.5-3.4c0,0,0,0,0,0C6,8.3,6.2,8.6,6.4,8.8c-0.2,0.4-0.4,1.1-0.4,2c0,1.7,0.7,3.2,1.5,3.2S9,12.5,9,10.8
		C9,10.5,9,10.2,9,10h0.9c0.1,0.5,0.1,1,0.1,1.5c0,3.1-1.3,5.6-2.5,5.6C6.4,17.1,5.1,14.8,5.1,11.5z M9.4,17.1
		C9.4,17,9.4,17,9.4,17.1c0.1-0.2,0.2-0.3,0.3-0.4c0,0,0,0,0-0.1c0.1-0.2,0.2-0.3,0.3-0.5c0,0,0-0.1,0.1-0.1
		c0.1-0.1,0.1-0.3,0.2-0.4c0-0.1,0.1-0.1,0.1-0.2c0.1-0.2,0.1-0.3,0.2-0.5c0-0.1,0-0.1,0.1-0.2c0.1-0.2,0.1-0.4,0.2-0.7
		c0,0,0-0.1,0-0.1c0-0.2,0.1-0.4,0.1-0.6c0-0.1,0-0.2,0-0.2c0-0.2,0-0.4,0.1-0.5c0-0.1,0-0.2,0-0.2c0-0.3,0-0.5,0-0.8V10h0.3
		l1.8,1.9c0.1,0.1,0.2,0.1,0.3,0.1h10.3c-0.1,3.2-1.3,4.9-2.5,5.1h-3.4H9.4z M20.3,25.2h-0.9c-0.3,0-0.5-0.2-0.5-0.5v-6.6h2v3v3.5
		C20.8,24.9,20.6,25.2,20.3,25.2z M21.8,24.2v-2h4.9v2H21.8z M29.6,26.7c0,0.3-0.2,0.6-0.5,0.6h-0.9c-0.3,0-0.5-0.2-0.5-0.6v-1.5
		v-4.1v-2c0-0.3,0.2-0.6,0.5-0.6h0.9c0.3,0,0.5,0.2,0.5,0.6V26.7z"/>
	<ellipse id="XMLID_5_" class="st0" cx="16.9" cy="15" rx="0.5" ry="0.5"/>
	<ellipse id="XMLID_4_" class="st0" cx="14.9" cy="15" rx="0.5" ry="0.5"/>
	<ellipse id="XMLID_3_" class="st0" cx="13" cy="15" rx="0.5" ry="0.5"/>
</g>
</svg>
