<?xml version="1.0" encoding="utf-8"?>
<!-- Generator: Adobe Illustrator 19.0.0, SVG Export Plug-In . SVG Version: 6.00 Build 0)  -->
<svg version="1.1" id="Layer_1" xmlns="http://www.w3.org/2000/svg" xmlns:xlink="http://www.w3.org/1999/xlink" x="0px" y="0px"
	 viewBox="0 0 32 32" style="enable-background:new 0 0 32 32;" xml:space="preserve">
<style type="text/css">
	.st0{fill:#008080;}
</style>
<g id="XMLID_2_" transform="translate(1 1)">
	<g id="XMLID_3_">
		<path id="XMLID_4_" class="st0" d="M28.3,14.1h-0.9c-0.8,0-1.4,0.8-1.4,1.9v3.2h-6.1c-0.5-0.8-1.2-1.2-2-1.2c-0.1,0-0.2,0-0.3,0
			l-1.6-2.2l5.3-7.2c0.2-0.2,0.2-0.6,0-0.9l-2.4-3.4c0,0,0-0.1-0.1-0.1c0,0-0.1-0.1-0.1-0.1l-2.3-3.3c-0.1-0.1-0.2-0.2-0.3-0.2
			c-0.1,0-0.2,0.1-0.3,0.2L2.8,18c-0.1,0.1-0.1,0.2-0.1,0.4s0,0.3,0.1,0.4l0.3,0.4l-0.9,1.2C2.1,20.7,2,20.8,2,21s0,0.3,0.1,0.4
			l0.3,0.5l-0.9,1.2c-0.2,0.2-0.2,0.6,0,0.9l2.6,3.5c0.1,0.1,0.2,0.2,0.3,0.2c0.1,0,0.2-0.1,0.3-0.2l0.9-1.2L6,26.7
			c0.1,0.1,0.2,0.2,0.3,0.2s0.3-0.1,0.3-0.2l0.9-1.2l0.3,0.4C8,26,8.1,26.1,8.2,26.1s0.2-0.1,0.3-0.2l4.9-6.7l1.7,2.3
			c0,0,0,0.1,0,0.1c0,2,1.2,3.7,2.7,3.7c0.8,0,1.5-0.5,2-1.2H26v3.1c0,1.1,0.6,1.9,1.4,1.9h0.9c0.3,0,0.5-0.2,0.5-0.6V14.7
			C28.7,14.4,28.5,14.1,28.3,14.1z M4.5,26.2l-1.9-2.6l0.6-0.7l1.9,2.6L4.5,26.2z M6.3,25.4l-1.6-2.2l-1.3-1.8c0,0,0,0,0,0L3.2,21
			l0.5-0.8l3.2,4.4L6.3,25.4z M8.2,24.6l-0.3-0.4L4,18.9l-0.3-0.4L16,2.1l1.8,2.5l-1,1.4c-0.2,0.2-0.2,0.6,0,0.9
			C16.9,6.9,17,7,17.1,7c0.1,0,0.2-0.1,0.3-0.2l1-1.3L19,6.3l-1.6,2.2c-0.2,0.2-0.2,0.6,0,0.9c0.1,0.1,0.2,0.2,0.3,0.2
			c0.1,0,0.2-0.1,0.3-0.2l1.6-2.2l0.6,0.9L8.2,24.6z M14.1,18.4l1.3-1.7l1.3,1.7c-0.5,0.4-1,1-1.2,1.8L14.1,18.4z M17.8,24.2
			c-1,0-1.8-1.1-1.8-2.5c0-1,0.4-1.9,1.1-2.3c0.1-0.1,0.3-0.1,0.4-0.2c0,0,0,0,0.1,0c0.1,0,0.2,0,0.3,0c0.6,0,1.2,0.4,1.5,1.1
			c0.1,0.3,0.2,0.6,0.3,1c0,0,0,0,0,0c0,0,0,0,0,0.1c0,0,0,0,0,0.1c0,0,0,0,0,0c0,0,0,0.1,0,0.1c0,0,0,0,0,0c0,0,0,0.1,0,0.1
			c0,0,0,0,0,0c0,0,0,0,0,0c0,0,0,0.1,0,0.1c0,0,0,0,0,0c0,0,0,0.1,0,0.1c0,0,0,0,0,0c0,0,0,0,0,0.1c0,0,0,0,0,0.1c0,0,0,0,0,0
			c0,0.3-0.1,0.7-0.3,1C19,23.7,18.5,24.2,17.8,24.2z M20.4,22.9c0.1-0.4,0.2-0.8,0.2-1.2s-0.1-0.9-0.2-1.2H26v2.5L20.4,22.9
			L20.4,22.9z M27.8,27.9h-0.5c-0.3,0-0.5-0.2-0.5-0.6v-3.7v-3.7V16c0-0.4,0.2-0.6,0.5-0.6h0.5V27.9z"/>
	</g>
</g>
</svg>
