<svg xmlns="http://www.w3.org/2000/svg" id="Layer_1" viewBox="0 0 32 32"><style>.st0{fill:#008080;}</style><path d="M10.7 14.7c0 2 1.8 3.8 4 3.8s4-1.7 4-3.8-1.8-3.8-4-3.8-4 1.7-4 3.7zm6.6 0c0 1.4-1.2 2.5-2.6 2.5s-2.7-1-2.7-2.5 1.2-2.5 2.6-2.5 2.7 1.2 2.7 2.5zm0-7c2.3.7 4 2.5 5 4.7l-1.5.2c-.7-1.6-2-3-3.7-3.5l.3-1.3zM25 12l-1.4.2c-1-2.7-3.2-5-6-5.8V5c3.5 1 6.3 3.7 7.3 7zM10.6 28C4.7 26.3 0 21 0 14.7 0 7.2 6.7 1 14.8 1s14.6 6.2 14.6 13.8c0 1.3-.2 2.6-.6 3.8H26c.3-1.2.6-2.4.6-3.8 0-6.2-5.3-11.3-12-11.3S3 8.5 3 14.7c0 5 3.3 9 8 10.6V28zm1-7.7c-.4.3-.6.7-.7 1-1.8-.8-3.2-2.3-3.8-4l1.3-.3c.6 1.4 1.7 2.6 3 3.3zm-6-3c1 2.4 2.7 4.3 5 5.3V24c-3-1-5.3-3.5-6.2-6.5l1.3-.2zm23 8.8c0 1-.5 1.6-1.3 1.6h-1v-3.2h.8c1 0 1.4.6 1.4 1.7zM19 26c0 1-.4 1.6-1.2 1.6h-1v-3.2h.8c1 0 1.4.6 1.4 1.7zM30 21H15.2c-1 0-2 .8-2 2V29c0 1 1 2 2 2H30c1 0 2-1 2-2V23c0-1.2-1-2-2-2zm-12 7.5h-2v-5h2c1.4 0 2.3 1 2.3 2.5s-.8 2.5-2.2 2.5zm5.3 0H22l-1.5-5h1l1.2 3.5 1-3.5H25l-1.7 5zm4 0h-2v-5h2c1.4 0 2.3 1 2.3 2.5s-.7 2.5-2.2 2.5z" class="st0"/></svg>