<svg id="Layer_1" xmlns="http://www.w3.org/2000/svg" viewBox="0 0 32 32"><style>.st0{fill:#008080;}</style><g id="XMLID_49_"><g id="XMLID_50_"><path id="XMLID_51_" class="st0" d="M30.1 14.5h-1.9c-.9 0-1.6.8-1.6 1.8v.2h-2v-1.6c1.1-1 1.8-2.6 1.8-4.3 0-3.1-2.2-5.6-5-5.6s-5 2.5-5 5.6c0 .6.1 1.2.2 1.7H15c.1-.6.2-1.1.2-1.7 0-4.4-3.2-8-7.2-8S.8 6.2.8 10.6c0 2.8 1.3 5.3 3.3 6.8v11.3c0 .3.2.6.5.6h19.5c.3 0 .5-.3.5-.6V25h2v.2c0 1 .7 1.8 1.6 1.8h1.9c.3 0 .5-.3.5-.6V15.1c0-.3-.3-.6-.5-.6zM1.8 10.6c0-3.8 2.8-6.9 6.2-6.9 3.4 0 6.2 3.1 6.2 6.9 0 3.8-2.8 6.9-6.2 6.9-3.4 0-6.2-3.1-6.2-6.9zm21.8 17.5H5.1V17.9c.9.5 1.9.7 2.9.7 3.1 0 5.7-2.2 6.7-5.2h2.4c.9 1.7 2.5 2.8 4.3 2.8.8 0 1.6-.2 2.3-.6l-.1 12.5zm-2.2-13c-2.2 0-4-2-4-4.5s1.8-4.5 4-4.5 4 2 4 4.5-1.8 4.5-4 4.5zm5.2 8.8h-2v-6.4h2v6.4zm3 1.9h-1.4c-.3 0-.6-.3-.6-.6V16.3c0-.4.3-.6.6-.6h1.4v10.1z"/></g></g><g id="XMLID_44_"><g id="XMLID_45_"><path id="XMLID_46_" class="st0" d="M8.5 7.9C7.1 7.9 6 9.1 6 10.7s1.1 2.8 2.4 2.8c1.3 0 2.4-1.3 2.4-2.8s-1-2.8-2.3-2.8zm0 4.4c-.8 0-1.5-.8-1.5-1.7S7.7 9 8.5 9s1.5.8 1.5 1.7c-.1.9-.7 1.6-1.5 1.6z"/></g></g><g id="XMLID_41_"><g id="XMLID_42_"><path id="XMLID_43_" class="st0" d="M12.4 6.1c-.2-.2-.5-.2-.7 0l-1.1 1.3c-.2.2-.2.6 0 .8.1.1.2.2.3.2.1 0 .2-.1.3-.2l1.1-1.3c.3-.2.3-.5.1-.8z"/></g></g><g id="XMLID_38_"><g id="XMLID_39_"><path id="XMLID_40_" class="st0" d="M6.4 13.1c-.2-.2-.5-.2-.7 0l-1.1 1.3c-.2.2-.2.6 0 .8.1.1.2.2.3.2.1 0 .2-.1.3-.2l1.1-1.3c.2-.2.2-.6.1-.8z"/></g></g><g id="XMLID_35_"><g id="XMLID_36_"><path id="XMLID_37_" class="st0" d="M12.4 14.4l-1.1-1.3c-.2-.2-.5-.2-.7 0-.2.2-.2.6 0 .8l1.1 1.3c.1.1.2.2.3.2.1 0 .2-.1.3-.2.3-.3.3-.6.1-.8z"/></g></g><g id="XMLID_32_"><g id="XMLID_33_"><path id="XMLID_34_" class="st0" d="M6.4 7.4L5.3 6.1c-.2-.2-.5-.2-.7 0-.2.2-.2.6 0 .8l1.1 1.3c.1.1.2.2.3.2s.2-.1.3-.2c.2-.2.2-.6.1-.8z"/></g></g><g id="XMLID_29_"><g id="XMLID_30_"><path id="XMLID_31_" class="st0" d="M23.7 12.3l-.5-.6c-.2-.2-.5-.2-.7 0-.2.2-.2.6 0 .8l.5.6c.1.1.2.2.3.2s.2-.1.3-.2c.3-.2.3-.6.1-.8z"/></g></g><g id="XMLID_26_"><g id="XMLID_27_"><path id="XMLID_28_" class="st0" d="M20.7 8.8l-.5-.6c-.2-.2-.6-.2-.7 0-.2.2-.2.6 0 .8l.5.6c.1.1.2.2.3.2.1 0 .2-.1.3-.2.3-.2.3-.5.1-.8z"/></g></g><g id="XMLID_23_"><g id="XMLID_24_"><path id="XMLID_25_" class="st0" d="M20.7 11.7c-.2-.2-.5-.2-.7 0l-.5.6c-.2.2-.2.6 0 .8.1.1.2.2.3.2.1 0 .2-.1.3-.2l.5-.6c.3-.3.3-.6.1-.8z"/></g></g><g id="XMLID_20_"><g id="XMLID_21_"><path id="XMLID_22_" class="st0" d="M23.7 8.2c-.2-.2-.5-.2-.7 0l-.5.6c-.2.2-.2.6 0 .8.1.1.2.2.3.2s.2-.1.3-.2l.6-.6c.2-.2.2-.6 0-.8z"/></g></g><g id="XMLID_15_"><g id="XMLID_16_"><path id="XMLID_17_" class="st0" d="M20.6 21H8.8c-.3 0-.5.3-.5.6v3.6c0 .3.2.6.5.6h11.8c.3 0 .5-.3.5-.6v-3.6c0-.3-.2-.6-.5-.6zM9.3 24.6v-2.5h10.9v2.5H9.3z"/></g></g><g id="XMLID_10_"><g id="XMLID_11_"><path id="XMLID_12_" class="st0" d="M15.1 16.3c-.8 0-1.5.8-1.5 1.7s.7 1.7 1.5 1.7 1.5-.8 1.5-1.7c0-.9-.7-1.7-1.5-1.7zm0 2.3c-.3 0-.5-.3-.5-.6s.2-.6.5-.6.5.3.5.6-.2.6-.5.6z"/></g></g><g id="XMLID_5_"><g id="XMLID_6_"><path id="XMLID_7_" class="st0" d="M18.6 16.3c-.8 0-1.5.8-1.5 1.7s.7 1.7 1.5 1.7 1.5-.8 1.5-1.7c0-.9-.6-1.7-1.5-1.7zm0 2.3c-.3 0-.5-.3-.5-.6s.2-.6.5-.6.5.3.5.6-.2.6-.5.6z"/></g></g><g id="XMLID_2_"><g id="XMLID_3_"><ellipse id="XMLID_4_" class="st0" cx="21.6" cy="10.7" rx=".5" ry=".6"/></g></g></svg>