<?xml version="1.0" encoding="utf-8"?>
<!-- Generator: Adobe Illustrator 19.0.0, SVG Export Plug-In . SVG Version: 6.00 Build 0)  -->
<svg version="1.1" id="Layer_1" xmlns="http://www.w3.org/2000/svg" xmlns:xlink="http://www.w3.org/1999/xlink" x="0px" y="0px"
	 viewBox="0 0 32 32" style="enable-background:new 0 0 32 32;" xml:space="preserve">
<style type="text/css">
	.st0{fill:#008080;}
</style>
<g id="XMLID_28_">
	<g id="XMLID_29_">
		<path id="XMLID_30_" class="st0" d="M26,26.3c2.7-2.8,4.2-6.6,4.2-10.5S28.8,8.1,26,5.3c-2.7-2.8-6.3-4.4-10.1-4.4
			S8.5,2.5,5.8,5.3c-2.7,2.8-4.2,6.6-4.2,10.5s1.5,7.7,4.2,10.5c2.7,2.8,6.3,4.4,10.1,4.4c0,0,0,0,0,0h14.3v-3.1h-5.6
			C25.1,27.3,25.6,26.8,26,26.3z M17.1,29.8c-0.1,0-0.1,0-0.2,0c-0.1,0-0.2,0-0.2,0c0,0-0.1,0-0.1,0c-0.1,0-0.1,0-0.2,0
			c0,0-0.1,0-0.1,0c-0.1,0-0.2,0-0.3,0c-3.6,0-7-1.5-9.5-4.1c-2.5-2.6-3.9-6.2-3.9-9.9s1.4-7.3,3.9-9.9c2.5-2.6,5.9-4.1,9.5-4.1
			c3.6,0,7,1.5,9.5,4.1s3.9,6.2,3.9,9.9s-1.4,7.3-3.9,9.9c-0.7,0.7-1.5,1.4-2.3,1.9h0L23,27.7C21.2,28.9,19.2,29.6,17.1,29.8
			C17.1,29.8,17.1,29.8,17.1,29.8z M29.4,28.5v1.3h-8.6c0.9-0.3,1.8-0.8,2.6-1.3H29.4z"/>
	</g>
</g>
<g id="XMLID_25_">
	<g id="XMLID_26_">
		<path id="XMLID_27_" class="st0" d="M5,20.3l-0.8,0.3c0.4,1,0.9,2,1.6,2.9l0.7-0.5C5.8,22.2,5.3,21.3,5,20.3z"/>
	</g>
</g>
<g id="XMLID_22_">
	<g id="XMLID_23_">
		<path id="XMLID_24_" class="st0" d="M7.6,24.5c-0.2-0.2-0.3-0.3-0.5-0.5l-0.6,0.6c0.2,0.2,0.3,0.4,0.5,0.6
			c2.4,2.5,5.6,3.8,8.9,3.8v-0.9C12.8,28.1,9.8,26.8,7.6,24.5z"/>
	</g>
</g>
<g id="XMLID_17_">
	<g id="XMLID_18_">
		<path id="XMLID_19_" class="st0" d="M15.9,6.2c-1.7,0-3.2,1.5-3.2,3.3s1.4,3.3,3.2,3.3s3.2-1.5,3.2-3.3S17.7,6.2,15.9,6.2z
			 M15.9,11.9c-1.3,0-2.3-1.1-2.3-2.4s1-2.4,2.3-2.4s2.3,1.1,2.3,2.4S17.2,11.9,15.9,11.9z"/>
	</g>
</g>
<g id="XMLID_12_">
	<g id="XMLID_13_">
		<path id="XMLID_14_" class="st0" d="M15.9,18.8c-1.7,0-3.2,1.5-3.2,3.3s1.4,3.3,3.2,3.3s3.2-1.5,3.2-3.3S17.7,18.8,15.9,18.8z
			 M15.9,24.5c-1.3,0-2.3-1.1-2.3-2.4c0-1.3,1-2.4,2.3-2.4s2.3,1.1,2.3,2.4C18.2,23.4,17.2,24.5,15.9,24.5z"/>
	</g>
</g>
<g id="XMLID_7_">
	<g id="XMLID_8_">
		<path id="XMLID_9_" class="st0" d="M22,12.5c-1.7,0-3.2,1.5-3.2,3.3s1.4,3.3,3.2,3.3s3.2-1.5,3.2-3.3S23.7,12.5,22,12.5z M22,18.2
			c-1.3,0-2.3-1.1-2.3-2.4c0-1.3,1-2.4,2.3-2.4c1.3,0,2.3,1.1,2.3,2.4C24.3,17.1,23.2,18.2,22,18.2z"/>
	</g>
</g>
<g id="XMLID_2_">
	<g id="XMLID_3_">
		<path id="XMLID_4_" class="st0" d="M9.9,12.5c-1.7,0-3.2,1.5-3.2,3.3s1.4,3.3,3.2,3.3s3.2-1.5,3.2-3.3S11.6,12.5,9.9,12.5z
			 M9.9,18.2c-1.3,0-2.3-1.1-2.3-2.4c0-1.3,1-2.4,2.3-2.4s2.3,1.1,2.3,2.4C12.2,17.1,11.1,18.2,9.9,18.2z"/>
	</g>
</g>
</svg>
