<?xml version="1.0" encoding="utf-8"?>
<!-- Generator: Adobe Illustrator 19.0.0, SVG Export Plug-In . SVG Version: 6.00 Build 0)  -->
<svg version="1.1" id="Layer_1" xmlns="http://www.w3.org/2000/svg" xmlns:xlink="http://www.w3.org/1999/xlink" x="0px" y="0px"
	 viewBox="0 0 32 32" style="enable-background:new 0 0 32 32;" xml:space="preserve">
<style type="text/css">
	.st0{fill:#008080;}
</style>
<path id="XMLID_10_" class="st0" d="M28.6,0.4H3.4c-1.5,0-2.7,1.2-2.7,2.8v25.6c0,1.5,1.2,2.8,2.7,2.8h25.2c1.5,0,2.7-1.2,2.7-2.8
	V3.2C31.3,1.7,30.1,0.4,28.6,0.4z M14.9,14.9V1.6h2.2V15c0,0.1,0.1,0.3,0.2,0.4l1.1,1.1c0.1,0.1,0.2,0.2,0.4,0.2h0.5v1.6h-0.9
	l-2-2.1c-0.2-0.2-0.6-0.2-0.8,0l-2,2.1h-0.9v-1.6h0.5c0.1,0,0.3-0.1,0.4-0.2l1.1-1.1C14.8,15.2,14.9,15.1,14.9,14.9z M1.8,3.2
	c0-0.9,0.7-1.6,1.6-1.6h7.7v0.2c0,1.2-0.8,2.4-2,2.7L1.8,6.4V3.2z M30.2,28.9c0,0.9-0.7,1.6-1.6,1.6H3.4c-0.9,0-1.6-0.7-1.6-1.6V7.5
	l7.5-2.1c1.7-0.4,2.9-2.1,2.9-3.8V1.6h1.6v13.1L13,15.5h-0.3v-5c0-0.3-0.2-0.5-0.5-0.5c-4.8,0-8.8,4-8.8,8.9v6.2
	c0,0.3,0.2,0.5,0.5,0.5h8.2c0.3,0,0.5-0.2,0.5-0.5v-5.5h1.1c0.1,0,0.3-0.1,0.4-0.2l1.8-1.8l1.8,1.8c0.1,0.1,0.2,0.2,0.4,0.2h1.1v5.5
	c0,0.3,0.2,0.5,0.5,0.5H28c0.3,0,0.5-0.2,0.5-0.5v-6.2c0-4.9-3.9-8.9-8.8-8.9c-0.3,0-0.5,0.2-0.5,0.5v5H19l-0.8-0.8V1.6h1.6v0.2
	c0,1.7,1.2,3.3,2.9,3.8l7.5,2.1C30.2,7.6,30.2,28.9,30.2,28.9z M30.2,6.4L23,4.4c-1.2-0.3-2-1.4-2-2.7V1.6h7.7
	c0.9,0,1.6,0.7,1.6,1.6v3.2L30.2,6.4z"/>
<g id="XMLID_5_">
	<g id="XMLID_6_">
		<path id="XMLID_7_" class="st0" d="M14.5,25.4L13,26.9H4V28h9.3c0.1,0,0.3-0.1,0.4-0.2l1.6-1.6L14.5,25.4z"/>
	</g>
</g>
<g id="XMLID_2_">
	<g id="XMLID_3_">
		<path id="XMLID_4_" class="st0" d="M18.4,26.9l-1.5-1.5l-0.8,0.8l1.6,1.6c0.1,0.1,0.2,0.2,0.4,0.2H28v-1.1H18.4z"/>
	</g>
</g>
</svg>
