<svg xmlns="http://www.w3.org/2000/svg" id="Layer_1" viewBox="0 0 32 32">
  <style>
    .st0{fill:#008080;}
  </style>
  <g id="XMLID_8_">
    <g id="XMLID_9_">
      <path id="XMLID_10_" d="M28.6.8H3.4C1.9.8.7 2 .7 3.5v25c0 1.5 1.2 2.7 2.7 2.7h25.2c1.5 0 2.7-1.2 2.7-2.7v-25C31.3 2 30.1.8 28.6.8zM14.9 14.9v-13h2.2V15c0 .1.1.3.2.4l1.1 1.1c.1.1.2.2.4.2h.5v1.6h-.9l-2-2c-.2-.2-.6-.2-.8 0l-2 2h-.9v-1.6h.5c.1 0 .3-.1.4-.2l1.1-1.1c.1-.2.2-.3.2-.5zM1.8 3.5c0-.9.7-1.6 1.6-1.6h7.7v.2c0 1.2-.8 2.3-2 2.6L1.8 6.6V3.5zm28.4 25c0 .9-.7 1.6-1.6 1.6H3.4c-.9 0-1.6-.7-1.6-1.6V7.7l7.5-2c1.7-.4 2.9-2 2.9-3.7v-.1h1.6v12.8l-.8.8h-.3v-4.9c0-.3-.2-.5-.5-.5-4.8 0-8.8 3.9-8.8 8.7v6c0 .3.2.5.5.5h8.2c.3 0 .5-.2.5-.5v-5.4h1.1c.1 0 .3-.1.4-.2l1.8-1.8 1.8 1.8c.1.1.2.2.4.2h1.1v5.4c0 .3.2.5.5.5H28c.3 0 .5-.2.5-.5v-6c0-4.8-3.9-8.7-8.8-8.7-.3 0-.5.2-.5.5v4.9H19l-.8-.8V1.9h1.6v.2c0 1.7 1.2 3.2 2.9 3.7l7.5 2v20.7zM11.6 11.1v13H4.5v-5.4c0-4 3.2-7.3 7.1-7.6zm8.8 13.1v-13c4 .3 7.1 3.6 7.1 7.6v5.4h-7.1zm9.8-17.6L23 4.7c-1.2-.3-2-1.4-2-2.6v-.2h7.7c.9 0 1.6.7 1.6 1.6v3.1z" class="st0"/>
    </g>
  </g>
  <g id="XMLID_5_">
    <g id="XMLID_6_">
      <path id="XMLID_7_" d="M14.5 25.4L13 26.9H4V28h9.3c.1 0 .3-.1.4-.2l1.6-1.6-.8-.8z" class="st0"/>
    </g>
  </g>
  <g id="XMLID_2_">
    <g id="XMLID_3_">
      <path id="XMLID_4_" d="M18.4 26.9l-1.5-1.5-.8.8 1.6 1.6c.1.1.2.2.4.2H28v-1.1h-9.6z" class="st0"/>
    </g>
  </g>
</svg>
