<svg xmlns="http://www.w3.org/2000/svg" id="Layer_1" viewBox="0 0 32 32">
  <style>
    .st0{fill:none;stroke:#008080;stroke-width:0.9;stroke-miterlimit:10;}
  </style>
  <g id="XMLID_2_">
    <g id="XMLID_3_">
      <path id="XMLID_6_" d="M15.8 30.8c.7.1 1.7 0 1.7 0s-1-5.2-1.2-7.3-1.7-7.7-2.3-8.6c-.2-.3-.3-.6-.4-1-2.6.3-5.3.4-8-.1-.1.3-.2.7-.5 1-.6 1-2 6.6-2.3 8.6-.2 2.1-1.2 7.3-1.2 7.3s1 .1 1.7 0 .2.6.2.6c.9.5 2.3-.4 2.6.2s2.4.3 2.2.1c-.2-.2.7-.6.6-.1-.1.5.6.3.6.3s.7.2.6-.3c-.1-.5.8-.1.6.1s1.9.5 2.2-.1 1.8.3 2.6-.2c.2.2-.3-.6.3-.5z" class="st0"/>
      <path id="XMLID_5_" d="M14.2 3c-.8 2.5-1.8 3.8-2.9 3.8-.8 0-1.4-.7-1.7-1-.3.4-.9 1-1.7 1C6.8 6.8 5.8 5.5 5 3l-.5.2s.4 1.6.2 3c-.3 1.4.2 4.5.8 5.7.2.5.3.9.3 1.3 2.6.4 5.2.4 7.8.1 0-.4.1-.8.3-1.4.5-1.2 1-4.3.8-5.7-.3-1.4.2-3 .2-3l-.7-.2z" class="st0"/>
      <path id="XMLID_4_" d="M13.3 2.6c-.4-.1-.7-.3-1.1-.3-.1 0-.3 0-.4.1 0 0 1.7 1.7-2.2 3.1-3.9-1.4-2.2-3.1-2.2-3.1-.2-.1-.3-.1-.4-.1-.4 0-.7.2-1.1.3-.6.1-.8.3-.8.3V3c1 2.9 2 3.7 2.8 3.7.9 0 1.6-1 1.7-1.1.1.2.8 1.1 1.7 1.1.8 0 1.8-.8 2.8-3.7v-.1s-.2-.2-.8-.3z" class="st0"/>
    </g>
  </g>
  <path id="XMLID_7_" d="M25.6 2.6l.8.7s.9.1 1.5.1 1.6.3 1.8 1c.2.7 1 4.6 1 4.9 0 .2-1 .8-2.1.7l-.3-.1s-.1.5-.3.8c-.2.3-.7 1.2-.6 1.9s.1 2.9.4 3.8c.3.8.8 4.7.7 5.3 0 .2-.3.6-1 .8-.6.1-4.4.4-6.1.3-1.6-.1-3.6-.8-3.6-.8s.2-2.4.3-3.1c.1-.6.4-1.7.6-2.2.2-.6.5-2.2.5-2.6s-.6-2.1-.7-2.6c-.1-.4-.3-1.5-.3-2v-.8l-.3.8s-1.8.2-2.4-.4c.2-1.3.9-3.7 1-4.1s.4-.7 1-1.1c.5-.3 1-.5 1.5-.6.4 0 .8 0 1-.2s.6-.8.6-.8 1 1.4 1.3 1.7 1.1.7 1.9.5 1.4-.6 1.6-1c.2-.3.2-.9.2-.9z" class="st0"/>
</svg>
