<?xml version="1.0" encoding="utf-8"?>
<!-- Generator: Adobe Illustrator 19.0.0, SVG Export Plug-In . SVG Version: 6.00 Build 0)  -->
<svg version="1.1" id="Layer_1" xmlns="http://www.w3.org/2000/svg" xmlns:xlink="http://www.w3.org/1999/xlink" x="0px" y="0px"
	 viewBox="0 0 32 32" style="enable-background:new 0 0 32 32;" xml:space="preserve">
<style type="text/css">
	.st0{fill:#008080;}
</style>
<g id="XMLID_2_">
	<g id="XMLID_3_">
		<path id="XMLID_4_" class="st0" d="M18.2,30.1c0,0-0.3-2.8-1-6.3c-1.3-5.9-3-9.5-4.2-11.5v-1.8l1.4-6.4c0-0.1,0-0.1,0-0.2l0,0
			l-0.5-2.5c0-0.2-0.2-0.4-0.4-0.4H12c-0.2,0-0.4,0.2-0.4,0.5v2.4c-0.7,0.3-1.4,0.8-1.9,1.6c0,0,0,0,0,0c0,0,0,0,0,0
			C9,4.7,8.3,4.2,7.6,3.9V1.6c0-0.3-0.2-0.5-0.4-0.5H5.8c-0.2,0-0.4,0.2-0.4,0.4L4.8,4l0,0c0,0.1,0,0.1,0,0.2l1.4,6.4l0,1.8
			c-1.2,2-3,5.6-4.2,11.5c-0.8,3.6-1,6.3-1,6.3c0,0.1,0,0.3,0.1,0.4c0.1,0.1,0.2,0.2,0.3,0.2h16.3c0.1,0,0.2-0.1,0.3-0.2
			C18.2,30.4,18.2,30.2,18.2,30.1z M12.4,2.1h0.6l0.3,1.5c-0.3,0-0.6,0-0.9,0.1L12.4,2.1L12.4,2.1z M6.1,2.1h0.6v1.6
			C6.4,3.6,6.1,3.6,5.8,3.6L6.1,2.1z M5.8,4.5c0.7,0,2.1,0.2,3,1.6C9,6.4,9.3,6.5,9.6,6.5c0.3,0,0.6-0.1,0.8-0.4
			c1-1.4,2.3-1.6,3-1.6L12.1,10h-5L5.8,4.5z M12,10.9v1H7.2v-1H12z M1.9,29.7c0.2-2.2,1.4-10.9,5-16.8h0.7l-0.9,5.9
			c0,0.3,0.1,0.5,0.4,0.5c0,0,0,0,0.1,0c0.2,0,0.4-0.2,0.4-0.4l0.9-6h0.6v9.4c0,0.3,0.2,0.5,0.4,0.5c0.2,0,0.4-0.2,0.4-0.5v-9.4h0.6
			l0.9,6c0,0.2,0.2,0.4,0.4,0.4c0,0,0,0,0.1,0c0.2,0,0.4-0.3,0.4-0.5l-0.9-5.9h0.7c3.6,5.9,4.8,14.6,5,16.8L1.9,29.7L1.9,29.7z"/>
	</g>
</g>
<path id="XMLID_11_" class="st0" d="M30.9,10.9c-0.2-0.5-1.6-4.6-2.3-5.3c-0.7-0.7-2.5-1.8-2.5-1.8L26,3.7l-0.1,0
	c0,0-1.5,0.4-2.2,0.4c-0.7,0-2.2-0.4-2.2-0.4l-0.1,0l-0.1,0.1c-0.1,0-1.8,1.1-2.5,1.8c-0.7,0.7-2.2,4.8-2.3,5.3L16.3,11l0,0.2
	c0,0.1,0.5,1.8,2.6,2.2l0.2,0l0.6-1.3c0.3,2.4-0.1,8-0.6,10.7L19,23.3l0.3,0.1c0,0,1.1,0.6,4.3,0.6c3.2,0,4.3-0.6,4.3-0.6l0.3-0.1
	l-0.1-0.4c-0.5-2.7-0.9-8.3-0.6-10.7l0.6,1.3l0.2,0c2.1-0.4,2.6-2.2,2.6-2.2l0-0.2L30.9,10.9z M25.3,4.7c-0.3,0.5-0.8,1.1-1.7,1.1
	c-0.9,0-1.4-0.6-1.7-1.1C22.5,4.8,23.2,5,23.6,5C24.1,5,24.8,4.8,25.3,4.7z M30,11.6c-0.3,0.3-0.7,0.8-1.6,1l-1.1-2.2L27.2,11
	c-0.2,0.6-0.4,2.1-0.3,5.7c0.1,2.1,0.3,4.4,0.6,6c-0.5,0.2-1.6,0.4-3.9,0.4c-2,0-3.3-0.2-3.9-0.4c0.3-1.6,0.5-3.9,0.6-6
	c0.2-3.6,0-5.1-0.3-5.7l-0.2-0.6l-1.1,2.2c-1.2-0.3-1.7-1.1-1.9-1.5c0.6-1.7,1.6-4.3,2.1-4.8c0.5-0.5,1.7-1.3,2.2-1.6
	c0.1,0.2,0.2,0.5,0.4,0.8c0.4,0.5,1,1.2,2,1.2s1.7-0.7,2-1.2c0.2-0.3,0.3-0.6,0.4-0.8c0.5,0.3,1.7,1.1,2.2,1.6
	c0.4,0.4,1.5,3.1,2.1,4.8C30.3,11.2,30.2,11.4,30,11.6z"/>
</svg>
