<svg xmlns="http://www.w3.org/2000/svg" id="Layer_1" viewBox="0 0 32 32"><style>.st0{fill:#008080;} .st1{font-family:&apos;BookAntiqua-Bold&apos;;} .st2{font-size:5.6212px;}</style><path id="XMLID_6_" d="M18.7 3.3H9c-.3 0-.6.3-.6.7v8.7c0 .4.2.7.5.7h9.8c.3 0 .5-.3.5-.7V4c0-.4-.2-.7-.5-.7zm-.5 8.7H9.5V4.6h8.7V12zM23 30.7H4.6c-.3 0-.5.3-.5.7s.2.6.5.6H23c.3 0 .6-.3.6-.7s-.3-.6-.6-.6z" class="st0"/><path id="XMLID_2_" d="M27.1 7.8l-1.7-2.4c-.1-.1-.2-.2-.3-.1-.6 0-.8.7-.5 1.1l1.6 2.2c.4.5.6.8.6 1.3h-1.5c-.4 0-.6.4-.6.8V14c0 .7.5 1.3 1.1 1.3h1.1v10c0 .4-.2.7-.5.7h-1.2c-.3 0-.4-.4-.4-.7v-8.7c0-1.2-.9-2-1.7-2h-1V3.3c0-1.8-1.2-3.3-2.7-3.3h-11C6.9 0 5.7 1.5 5.7 3.3v26c0 .7.5.7 1.2.7h13.9c.7 0 1.2 0 1.2-.7V16h1c.3 0 .7.3.7.6v8.7c0 1.1.6 2 1.5 2h1.2c.9 0 1.6-.9 1.6-2V10c-.1-1-.6-1.6-.9-2.2zm-6.2 20.9H6.8V3.3c0-1.1.7-2 1.6-2h10.8c.9 0 1.6.9 1.6 2l.1 25.4zM26.8 14h-1.1v-2.7h1.1V14z" class="st0"/><text transform="matrix(.9544 0 0 1 7.56 22.072)" class="st0 st1 st2">CNG</text></svg>