<svg xmlns="http://www.w3.org/2000/svg" id="Layer_1" viewBox="0 0 32 32"><style>.st0{fill:none;stroke:#008080;stroke-miterlimit:10;} .st1{fill:#008080;}</style><g id="XMLID_2_"><g id="XMLID_3_"><path id="XMLID_7_" d="M23.7 16.4h5.1v1.9h-5.1z" class="st0"/><path id="XMLID_6_" d="M2.9 1.6v3l1.3-.4V2.9H30v16.5H9.5l-.1 1.2h21.9v-19z" class="st1"/><circle id="XMLID_5_" cx="5" cy="8.7" r="3.8" class="st0"/><path id="XMLID_4_" d="M8.2 30.3v-8.4h.3l.3-6.9 6.6-3.4-.5-1 .1.2 7.1-4-.3-.6-7.1 4.1-.2-.4-6 3.2H6.4l-1.5 1.7-1.4-1.7-3.1.5-.2 6.9h1.3l.1 1.4h.2v8.4h-.3l-1.5.3V32h1.3l1.5-.2v.2h1.7v-8.5h1V32h1.7v-.2l1.5.2H10v-1.4l-1.5-.3z" class="st0"/></g></g></svg>