<svg xmlns="http://www.w3.org/2000/svg" id="Layer_1" viewBox="0 0 32 32"><style>.st0{fill:none;stroke:#008080;stroke-width:0.8;stroke-miterlimit:10;} .st1{fill:#008080;stroke:#008080;stroke-miterlimit:10;}</style><g id="XMLID_2_"><g id="XMLID_3_"><path id="XMLID_5_" d="M29.2 9.8H2.7c-.4 0-.7.2-.7.6v3.1c0 .4.3.6.7.6h.7l2 10.5c-1.2.7-2.1 2-2.1 3.5 0 2.2 1.9 4.1 4.2 4.1s4.2-1.8 4.2-4.1v-.3h8.2v.3c0 2.2 1.9 4.1 4.2 4.1s4.2-1.8 4.2-4.1c0-1.5-.8-2.8-2.1-3.5l2-10.5h.7c.4 0 .7-.3.7-.6v-3.1c.3-.4 0-.6-.4-.6zM7.6 29.6c-.9 0-1.6-.7-1.6-1.5s.7-1.5 1.6-1.5c.9 0 1.6.7 1.6 1.5s-.7 1.5-1.6 1.5zm16.7 0c-.9 0-1.6-.7-1.6-1.5s.7-1.5 1.6-1.5c.9 0 1.6.7 1.6 1.5s-.7 1.5-1.6 1.5z" class="st0"/><path id="XMLID_4_" d="M25.8 5.2c-.1 0-.1 0 0 0l-1.7-1h-.2l-.4.4-.4-1.1s0-.1-.1-.1l-2-1.5h-.2l-1.9.8L17 3l-1.8-.9-1.5-.5h-.2l-1.3.9-1.7-.1h-.1l-2 1.4-.1.1v.6l-1.2 1L4.6 8h22.7l-1.5-2.8z" class="st1"/></g></g></svg>