<?xml version="1.0" encoding="utf-8"?>
<!-- Generator: Adobe Illustrator 19.0.0, SVG Export Plug-In . SVG Version: 6.00 Build 0)  -->
<svg version="1.1" id="Layer_1" xmlns="http://www.w3.org/2000/svg" xmlns:xlink="http://www.w3.org/1999/xlink" x="0px" y="0px"
	 viewBox="0 0 32 32" style="enable-background:new 0 0 32 32;" xml:space="preserve">
<style type="text/css">
	.st0{fill:#008080;}
</style>
<path id="XMLID_2_" class="st0" d="M16,31.4C15.9,31.4,15.9,31.4,16,31.4c-0.2,0-0.2,0-0.3,0c-0.7-0.1-1.3-0.4-1.7-0.6
	c-0.1,0-0.3,0.1-0.4,0.1c-0.9,0.3-2.3,0.4-3.3-0.2l0,0C9.6,30.3,9,30,9,28.9c0,0,0,0,0-0.1V17.1c0-0.5,0.4-0.9,0.9-1.5
	c0.6-0.7,1.3-1.5,1.3-2.4c0-1.1-0.5-1.6-1-2.1C10,11,9.8,10.7,9.6,10.5c-0.1-0.1-0.2-0.2-0.2-0.3C9,9.6,8.9,9.4,8.9,8.4
	c0-1,1.5-1.8,2.6-2.4c0.4-0.2,0.9-0.5,1.1-0.7c0.2-0.3,0.3-0.8,0.2-1.2h-0.2c-0.4,0-0.6-0.2-0.6-0.4V2c0-0.6,0.8-1.1,1.7-1.1H18
	c1,0,1.7,0.5,1.7,1.1v1.7c0,0.2-0.3,0.4-0.6,0.4h-0.2c0,0.4,0,1,0.2,1.2c0.1,0.1,0.6,0.4,1.1,0.7c1.2,0.6,2.6,1.4,2.6,2.4
	c0,1-0.1,1.2-0.5,1.8c-0.1,0.1-0.1,0.2-0.2,0.3c-0.2,0.3-0.4,0.5-0.6,0.7c-0.5,0.5-1,1-1,2.1c0,0.9,0.7,1.7,1.3,2.4
	c0.5,0.5,0.9,1,0.9,1.5v11.7c0,0,0,0,0,0.1c0,1-0.5,1.4-1.2,1.8c-1,0.6-2.4,0.5-3.3,0.2c-0.2,0-0.3-0.1-0.4-0.1
	c-0.4,0.2-1,0.5-1.7,0.6C16.1,31.4,16,31.4,16,31.4z M15.9,30.6C15.9,30.6,15.9,30.6,15.9,30.6C15.9,30.6,15.9,30.6,15.9,30.6
	c0.6,0,1.2-0.4,1.3-0.5c0.2-0.2,0.6-0.2,0.8-0.1c0,0,0.2,0.1,0.8,0.2c0.1,0,1.2,0.3,1.8-0.1c0.4-0.2,0.7-0.5,0.8-1.2c0,0,0,0,0,0
	v-1.6H10.3v1.6c0,0,0,0,0,0.1c0,0.7,0.3,0.9,0.8,1.2l0.1,0c0.5,0.3,1.5,0.2,1.9,0.1c0.6-0.2,0.8-0.2,0.8-0.2
	c0.3-0.1,0.7-0.1,0.8,0.1C14.8,30.2,15.3,30.5,15.9,30.6C15.9,30.6,15.9,30.6,15.9,30.6C15.9,30.6,15.9,30.6,15.9,30.6z M10.3,26.4
	h11.1v-7H10.3V26.4z M10.3,18.6h11.1v-1.5c0-0.2-0.3-0.7-0.7-1.1c-0.6-0.7-1.4-1.6-1.4-2.7c0-1.3,0.6-2,1.2-2.5
	c0.2-0.2,0.4-0.4,0.5-0.6c0.1-0.1,0.2-0.2,0.2-0.3c0.3-0.4,0.4-0.5,0.4-1H10.2c0,0.5,0.1,0.6,0.4,1c0.1,0.1,0.1,0.2,0.2,0.3
	c0.1,0.2,0.3,0.4,0.5,0.6c0.5,0.5,1.2,1.2,1.2,2.5c0,1.1-0.8,2-1.4,2.7c-0.4,0.4-0.7,0.8-0.7,1.1L10.3,18.6L10.3,18.6z M10.3,8h11.2
	c-0.3-0.5-1.3-1-2.1-1.5C18.7,6.2,18.2,6,18,5.7c-0.4-0.5-0.4-1.1-0.4-1.6h-3.6c0,0.4,0,1.1-0.4,1.6C13.5,6,13,6.2,12.3,6.6
	C11.6,7,10.6,7.5,10.3,8z M13.3,3.2h5.2V2c0-0.2-0.2-0.3-0.5-0.3h-4.2c-0.3,0-0.5,0.1-0.5,0.3L13.3,3.2L13.3,3.2z"/>
</svg>
