<?xml version="1.0" encoding="utf-8"?>
<!-- Generator: Adobe Illustrator 19.0.0, SVG Export Plug-In . SVG Version: 6.00 Build 0)  -->
<svg version="1.1" id="Layer_1" xmlns="http://www.w3.org/2000/svg" xmlns:xlink="http://www.w3.org/1999/xlink" x="0px" y="0px"
	 viewBox="0 0 32 32" style="enable-background:new 0 0 32 32;" xml:space="preserve">
<style type="text/css">
	.st0{fill:#008080;}
</style>
<g id="XMLID_2_">
	<g id="XMLID_3_">
		<g id="XMLID_4_">
			<path id="XMLID_15_" class="st0" d="M5.2,4l10.6,1.5c0,0,0,0,0.1,0s0,0,0.1,0l10.1-1.4v1.7C25.8,6.2,25.2,7,25.2,8
				c0,1.1,0.8,1.5,1.4,1.5s1.4-0.4,1.4-1.5c0-0.9-0.6-1.8-0.9-2.2V3.5c0-0.1,0-0.1,0-0.2c0,0,0,0,0-0.1c0,0,0-0.1-0.1-0.1
				c0,0,0,0-0.1,0c0,0-0.1,0-0.1-0.1c0,0,0,0-0.1,0c0,0,0,0-0.1,0L16,1.6c0,0-0.1,0-0.1,0L5.2,3.1C5,3.1,4.8,3.3,4.8,3.5
				C4.8,3.8,5,4,5.2,4z M27,8c0,0.4-0.2,0.5-0.5,0.5c-0.2,0-0.5-0.1-0.5-0.5c0-0.4,0.2-0.9,0.5-1.2C26.8,7.1,27,7.6,27,8z M15.9,2.6
				l7.1,1l-7.1,1l-7.1-1L15.9,2.6z"/>
			<path id="XMLID_11_" class="st0" d="M18.7,16.3c0.9,0,1.7-0.7,1.8-1.7l1.7-1.3c0.2-0.2,0.2-0.5,0.1-0.7c-0.2-0.2-0.4-0.3-0.6-0.1
				l-1.2,0.9c-0.2-0.6-0.7-1-1.3-1h-1.8c-0.8,0-1.4,0.7-1.4,1.5c0-0.8-0.6-1.5-1.4-1.5h-1.8c-0.6,0-1.1,0.4-1.3,1l-1.2-0.9
				c-0.2-0.2-0.5-0.1-0.6,0.1c-0.2,0.2-0.1,0.5,0.1,0.7l1.7,1.3c0.1,1,0.9,1.7,1.8,1.7h0.9c1,0,1.8-0.9,1.8-2c0,1.1,0.8,2,1.8,2
				H18.7z M15,14.4c0,0.5-0.4,1-0.9,1h-0.9c-0.5,0-0.9-0.4-0.9-1v-0.5c0-0.3,0.2-0.5,0.5-0.5h1.8c0.3,0,0.5,0.2,0.5,0.5L15,14.4
				L15,14.4z M16.9,14.4v-0.5c0-0.3,0.2-0.5,0.5-0.5h1.8c0.3,0,0.5,0.2,0.5,0.5v0.5c0,0.5-0.4,1-0.9,1h-0.9
				C17.3,15.4,16.9,14.9,16.9,14.4z"/>
			<path id="XMLID_10_" class="st0" d="M23.3,26.6C23.3,26.5,23.3,26.5,23.3,26.6c0-0.1,0-0.1-0.1-0.2c0,0,0,0,0,0c0,0,0,0-0.1-0.1
				c0,0,0,0-0.1-0.1c0,0,0,0,0,0l-1.8-1c-0.1-0.1-0.3-0.1-0.5,0l-2.8,2c-0.1,0.1-0.2,0.2-0.2,0.4v1.7c-0.3,0.2-0.9,0.7-1.8,0.7
				c-0.9,0-1.6-0.5-1.8-0.7v-1.7c0-0.2-0.1-0.3-0.2-0.4l-2.8-2c-0.1-0.1-0.3-0.1-0.5,0l-1.8,1c0,0,0,0,0,0c0,0-0.1,0-0.1,0.1
				c0,0,0,0-0.1,0.1c0,0,0,0,0,0c0,0,0,0,0,0.1c0,0,0,0.1,0,0.1c0,0,0,0.1,0,0.1c0,0,0,0.1,0,0.1c0,0,0,0.1,0,0.1c0,0,0,0,0,0.1
				c0,0,0,0,0,0c0,0,0,0.1,0.1,0.1c0,0,0,0,0.1,0.1c0,0,0,0,0,0l2.8,2c0.1,0.1,0.2,0.1,0.3,0.1c0.1,0,0.3-0.1,0.4-0.2
				c0.1-0.2,0.1-0.5-0.1-0.7l-2.1-1.5l0.9-0.5l2.3,1.7v1.7c0,0.1,0,0.3,0.1,0.3c0,0,1.1,1.1,2.6,1.1s2.6-1.1,2.6-1.1
				c0.1-0.1,0.1-0.2,0.1-0.3v-1.7l2.3-1.7l0.9,0.5l-2.1,1.5c-0.2,0.2-0.3,0.5-0.1,0.7c0.1,0.1,0.2,0.2,0.4,0.2c0.1,0,0.2,0,0.3-0.1
				l2.8-2c0,0,0,0,0,0c0,0,0,0,0.1-0.1c0,0,0,0,0.1-0.1c0,0,0,0,0,0c0,0,0,0,0-0.1c0,0,0-0.1,0-0.1C23.3,26.7,23.3,26.7,23.3,26.6
				C23.3,26.6,23.3,26.6,23.3,26.6z"/>
			<path id="XMLID_9_" class="st0" d="M25.2,24.9c0.1,0.2,0.2,0.3,0.4,0.3c0.1,0,0.1,0,0.2,0c0.2-0.1,0.4-0.4,0.3-0.6
				c0,0-0.9-2.4-0.9-4.7v-3.9c0-4.2-2-5.3-2.1-5.4c-0.1-0.1-0.3-0.1-0.4,0c-0.1,0.1-0.2,0.2-0.2,0.4v2c0,1.9-1.3,5.7-1.8,6.7
				c-0.4,0.9-2.6,3.7-4.7,3.7s-4.3-2.8-4.7-3.7c-0.5-1-1.8-4.8-1.8-6.7v-2c0-0.2-0.1-0.3-0.2-0.4c-0.1-0.1-0.3-0.1-0.4,0
				c-0.1,0-2.1,1.2-2.1,5.4v3.9c0,2.3-0.9,4.7-0.9,4.7c-0.1,0.3,0,0.5,0.3,0.6c0.2,0.1,0.5,0,0.6-0.3c0-0.1,1-2.6,1-5.1v-3.9
				c0-2,0.5-3.2,0.9-3.8v0.8c0,2.1,1.5,6.2,1.9,7.1c0.6,1.2,3,4.2,5.5,4.2s4.9-3,5.5-4.2c0.4-0.9,1.9-5,1.9-7.1v-0.8
				c0.4,0.6,0.9,1.8,0.9,3.8v3.9C24.2,22.3,25.2,24.8,25.2,24.9z"/>
			<path id="XMLID_8_" class="st0" d="M17,19.4c0,0-0.4,0.4-1.1,0.4c-0.7,0-1-0.3-1.1-0.4c-0.2-0.2-0.5-0.2-0.6,0
				c-0.2,0.2-0.2,0.5,0,0.7c0.1,0.1,0.6,0.6,1.7,0.6s1.7-0.6,1.7-0.6c0.2-0.2,0.2-0.5,0-0.7C17.5,19.3,17.2,19.3,17,19.4z"/>
			<path id="XMLID_7_" class="st0" d="M29.8,30.5c0-0.1-1-3.2-4.9-4.3c-0.2-0.1-0.5,0.1-0.6,0.4c-0.1,0.3,0.1,0.5,0.3,0.6
				c3.4,0.9,4.3,3.5,4.3,3.6c0.1,0.2,0.2,0.3,0.4,0.3c0,0,0.1,0,0.1,0C29.7,31,29.8,30.7,29.8,30.5z"/>
			<path id="XMLID_6_" class="st0" d="M23.3,9V5.5c0-0.3-0.2-0.5-0.5-0.5s-0.5,0.2-0.5,0.5v3.1c-0.8,0.3-3.2,1.3-6.5,1.3
				s-5.7-1-6.5-1.3V5.5C9.5,5.2,9.3,5,9,5S8.5,5.2,8.5,5.5V9c0,0.2,0.1,0.4,0.3,0.4c0.1,0.1,2.9,1.5,7.1,1.5s7-1.5,7.1-1.5
				C23.2,9.3,23.3,9.1,23.3,9z"/>
			<path id="XMLID_5_" class="st0" d="M7,26.2c-3.9,1-4.9,4.1-4.9,4.3c-0.1,0.3,0,0.5,0.3,0.6c0,0,0.1,0,0.1,0
				c0.2,0,0.4-0.1,0.4-0.3c0,0,0.9-2.7,4.3-3.6c0.2-0.1,0.4-0.3,0.3-0.6C7.5,26.3,7.3,26.1,7,26.2z"/>
		</g>
	</g>
</g>
</svg>
