<svg xmlns="http://www.w3.org/2000/svg" id="Layer_1" viewBox="0 0 32 32"><style>.st0{fill:none;stroke:#008080;stroke-width:0.6;stroke-miterlimit:10;}</style><path id="XMLID_9_" d="M17.4 29.1c0 .3-.3.5-.7.5H6.8c-.4 0-.7-.2-.7-.5V25c0-.3.3-.5.7-.5h9.9c.4 0 .7.2.7.5v4.1z" class="st0"/><path id="XMLID_8_" d="M31.5 25c0-.3-.3-.5-.7-.5h-9.9c-.4 0-.7.2-.7.5v4.1c0 .3.3.5.7.5h9.9c.4 0 .7-.2.7-.5V25z" class="st0"/><path id="XMLID_7_" d="M24.5 17.3c0-.3-.3-.5-.7-.5h-9.9c-.4 0-.7.2-.7.5v4.1c0 .3.3.5.7.5h9.9c.4 0 .7-.2.7-.5v-4.1z" class="st0"/><path id="XMLID_6_" d="M17.7 12.1c.3.3.7.3 1 .1l2.9-2.3c.3-.2.3-.6 0-.9l-.6-.7-3.9 3.2.6.6z" class="st0"/><path id="XMLID_5_" d="M.5 16c.3 1.1 1.3 2 2.4 2.4l9.1-7.5-2.4-2.4L.5 16z" class="st0"/><path id="XMLID_4_" d="M16.7 10.3c0 .1.1.1.1.2v.4l3.4-2.8s-2.1-.2-2.6-2.6l-.6-.6c-2.6-2.6-5.4-3.7-8.1-3.6h-.7c-.5.1-.5.7 0 .7.2 0 .5 0 .6.1.5.1 1 .2 1.4.4 2 .8 3.2 2.9 1.5 4.3l-1.4 1.1 2.6 2.6c-.1.1.3-.2.4-.3.6-.4 1.7-1 2.8-.5.2.1.3.2.4.3 0 0 .1.1.2.3 0-.1 0-.1 0 0z" class="st0"/></svg>