<svg xmlns="http://www.w3.org/2000/svg" id="Layer_1" viewBox="0 0 32 32">
  <style>
    .st0{fill:#008080;} .st1{fill:none;stroke:#008080;stroke-width:0.9;stroke-miterlimit:10;}
  </style>
  <path id="XMLID_13_" d="M11.9 18c.4 0 1.8-.7 2.6-1.5.1.1.2.2.2.4-.6.9-.9 2.7-.9 3.2 0 .7.9 1.3 2.1 1.3s2.1-.6 2.1-1.3c0-.5-.6-2-1.3-2.9l.3-.3c.8.7 2.4 1 2.9 1 .7 0 1.2-1 1.2-2.3s-.5-2.3-1.2-2.3c-.4 0-1.8.7-2.6 1.5-.1-.1-.2-.2-.2-.4.6-.9.9-2.7.9-3.2 0-.7-.9-1.3-2.1-1.3s-2.1.6-2.1 1.3c0 .5.6 2 1.3 2.9l-.3.3c-.8-.7-2.4-1-2.9-1-.7 0-1.2 1-1.2 2.3s.6 2.3 1.2 2.3z" class="st0"/>
  <path id="XMLID_9_" d="M2.4 1.1v3.5h27.2V1.1H2.4zm18.8 2.7h-1.3c-.3 0-.5-.3-.5-.6s.2-.6.5-.6h1.3c.3 0 .5.3.5.6s-.2.6-.5.6zm4.8 0h-1.3c-.3 0-.5-.3-.5-.6s.2-.6.5-.6H26c.3 0 .5.3.5.6s-.2.6-.5.6z" class="st1"/>
  <path id="XMLID_5_" d="M2.4 5.9v25.3c0 .3.2.6.5.6s.5-.3.5-.6v-1.4h25v1.4c0 .3.2.6.5.6s.5-.3.5-.6V5.9h-27zM16 7.7c3.9 0 7.1 3.5 7.1 7.9s-3.2 7.9-7.1 7.9-7.2-3.5-7.2-7.8 3.2-8 7.2-8zm12.5 20.9h-25V26h25v2.6z" class="st1"/>
</svg>
