<svg xmlns="http://www.w3.org/2000/svg" id="Layer_1" viewBox="0 0 32 32"><style>.st0{fill:none;stroke:#008080;stroke-miterlimit:10;}</style><g id="XMLID_2_"><g id="XMLID_3_"><g id="XMLID_4_"><path id="XMLID_10_" d="M30.9 1.5c-.2-.2-.4-.3-.6-.3H18.9c-.2 0-.4.1-.6.3-.2.2-.2.4-.2.6l.1 1.1H31l.1-1.1c.1-.2 0-.4-.2-.6z" class="st0"/><path id="XMLID_9_" d="M20 24.2h9.3l1.6-19.4H18.4z" class="st0"/><path id="XMLID_8_" d="M20.1 28.5c0 1.1.9 2 2 2h5.2c1.1 0 2-.9 2-2v-2.6h-9.2v2.6z" class="st0"/><path id="XMLID_7_" d="M17 23.1H6.9l-4 1.9v1.9c0 2 1.6 3.6 3.5 3.6h7.8c1.9 0 3.5-1.6 3.5-3.6v-3.1c-.1-.4-.4-.7-.7-.7z" class="st0"/><path id="XMLID_6_" d="M14 19.8l-4.1 1.9h5.3c.2 0 .3-.1.4-.2.1-.1.1-.3 0-.5-.3-.5-.7-.9-1.3-1.1l-.3-.1z" class="st0"/><path id="XMLID_5_" d="M14.6 17c.1-.2.1-.4 0-.5l-.2-.4c-.3-.6-.8-.9-1.4-.9-.2 0-.4 0-.6.1l-10.7 5c-.8.4-1.1 1.3-.8 2.1l.2.4c.1.2.2.3.4.4h.2c.1 0 .2 0 .3-.1l12.3-5.7c.1-.1.3-.2.3-.4z" class="st0"/></g></g></g></svg>