<svg xmlns="http://www.w3.org/2000/svg" id="Layer_1" viewBox="0 0 32 32">
  <style>
    .st0{fill:none;stroke:#008080;stroke-width:1.5;stroke-miterlimit:10;}
  </style>
  <g id="XMLID_2_">
    <g id="XMLID_3_">
      <g id="XMLID_4_">
        <path id="XMLID_10_" d="M30.9 1.8c-.2-.2-.4-.3-.6-.3H19.1c-.2 0-.4.1-.6.3-.2.2-.2.4-.2.6l.1 1.1H31l.1-1.1c.1-.2 0-.4-.2-.6z" class="st0"/>
        <path id="XMLID_9_" d="M20.1 24.3h9.2l1.6-19.2H18.6l1.5 19.2z" class="st0"/>
        <path id="XMLID_8_" d="M20.2 28.5c0 1.1.9 2 2 2h5.1c1.1 0 2-.9 2-2v-2.6h-9.1v2.6z" class="st0"/>
        <path id="XMLID_7_" d="M17.2 23.2h-10l-3.9 1.9V27c0 2 1.6 3.6 3.5 3.6h7.7c1.9 0 3.5-1.6 3.5-3.6v-3.1c-.2-.4-.5-.7-.8-.7z" class="st0"/>
        <path id="XMLID_6_" d="M14.2 19.9l-4 1.9h5.2c.2 0 .3-.1.4-.2s.1-.3 0-.5c-.3-.5-.7-.9-1.3-1.1l-.3-.1z" class="st0"/>
        <path id="XMLID_5_" d="M14.8 17.1c.1-.2.1-.4 0-.5l-.2-.4c-.3-.6-.8-.9-1.4-.9-.2 0-.4 0-.6.1l-10.5 5c-.8.4-1.1 1.3-.8 2.1l.2.4c.1.2.2.3.4.4h.2c.1 0 .2 0 .3-.1l12.1-5.6c.1-.2.3-.3.3-.5z" class="st0"/>
      </g>
    </g>
  </g>
</svg>
