<svg id="Layer_1" xmlns="http://www.w3.org/2000/svg" viewBox="0 0 32 32"><style>.st0{fill:#008080;}</style><path id="XMLID_2_" class="st0" d="M30.7 5.2c-.1-.1-.1-.1 0 0-.1-.2-.2-.3-.3-.4l-.1-.1c-.1-.1-.2-.2-.3-.2h-.1c-.1 0-.1-.1-.2-.1-2.1-.9-7.1.4-9.6 1.1-.2-.1-.3-.1-.5-.2C14 3 5.3.6 4 3.1v.1c-1.7 3.4-1.8 7.2-.3 10.6-.4.4-.6.7-.8 1C1.2 15.4.3 16.1.3 17v.1c0 7.5 6.9 13.6 15.3 13.6s15.3-6.1 15.3-13.6V17c0-.2-.1-.4-.2-.6 1.7-3.5 1.8-7.6 0-11.2zM19.4 19.5c-1.2.1-2.5.1-3.8.1h-4.1c-.3 0-.6 0-.9-.1h-.4c-.3 0-.5 0-.8-.1H9c-.2 0-.5-.1-.7-.1-.1 0-.3 0-.4-.1-.2 0-.4-.1-.6-.1-.1 0-.3 0-.4-.1-.2 0-.4-.1-.6-.1-.1 0-.2 0-.3-.1-.2-.2-.4-.5-.6-.7-.1-.1-.1-.2-.2-.3-.1-.2-.2-.3-.4-.5.6.1 1.3 0 2 0H7c2.7-.3 6.4-1.3 10.2-2.7.4-.2.8-.3 1.2-.5.3-.1.6-.3 1-.4l.6-.3.3-.1c.1 0 .2-.1.3-.1.1-.1.3-.1.4-.2.2-.1.5-.2.7-.3.1 0 .2-.1.3-.1.4-.2.7-.3 1-.5h.1c.3-.2.6-.3.9-.5.1 0 .2-.1.3-.1.2-.1.5-.2.7-.4.1-.1.2-.1.3-.2.2-.1.4-.2.6-.4.1-.1.2-.1.3-.2.3-.2.5-.3.8-.5l.7-.5c1-.7 1.8-1.4 2.4-2.1v.1c.1.2.1.4.2.6 0 .1 0 .2.1.3 0 .2.1.3.1.5V9c0 .2 0 .3.1.5V12.1c0 .3-.1.5-.1.8v.1c0 .2-.1.4-.1.7 0 .1 0 .2-.1.2 0 .2-.1.3-.1.5 0 .1-.1.2-.1.3-.1 0-.1.1-.2.3 0 .1-.1.2-.1.3-.1.1-.1.3-.2.4 0 .1-.1.2-.1.3 0 .1-.1.2-.1.3-.1.3-.3.5-.5.8 0 0 0 .1-.1.1-.2.3-.4.6-.6.8-1.9.7-5.1 1.3-8.8 1.5zM4.5 5.1c1.9 2.4 7.4 5.2 11.7 6.9.7.3 1.4.5 2.1.8-.2.1-.3.1-.5.2-1 .4-2 .8-3 1.1-.5.2-.9.3-1.3.4-.2.1-.5.1-.7.2-.2.1-.4.1-.6.2-.4.1-.7.2-1 .3h-.1c-1.6.4-2.9.7-4 .8-.2-.1-.4-.1-.5-.2-.3-.3-.5-.7-.7-1l-.1-.1c-.4-.3-.6-.7-.8-1-1.2-2.7-1.4-5.8-.5-8.6zm14.6 1.2c.4.2.8.3 1.1.5.3.1.6.3.9.4l.6.3c.3.1.6.3.9.4.2.1.5.2.7.3.3.1.5.2.7.4.5.2.9.5 1.3.7-.3.2-.7.4-1.1.7-.1 0-.1.1-.2.1s-.2.1-.2.1c-.3.2-.6.3-.9.5-.1.1-.2.1-.3.2-.3.2-.7.4-1.1.5-.1.1-.2.1-.3.2-.4.2-.8.4-1.1.5-.1 0-.1.1-.2.1-1.1-.4-2.1-.8-3.2-1.2C8.5 7.7 4.8 4.4 5.2 3.6c.4-.8 5.7-.6 13.9 2.7zM3.9 15.6v-.1c.1-.1.2-.3.3-.6.2.3.3.5.5.8l.1.1c.2.2.2.3.3.4-.7 0-1.1-.2-1.2-.4v-.2c0 .1 0 .1 0 0zM29.2 5.4c.1.1.1.1 0 0l.1.1.1.1c.2.4-.7 1.5-2.9 3-.2-.1-.4-.2-.7-.4-.1 0-.2-.1-.2-.1l-2.4-1.2c-.4-.2-.9-.4-1.4-.6 4.5-1.3 6.7-1.2 7.4-.9zM2.7 16.1c0 .1 0 .1.1.2v.1c.2.3.3.6.5.9.1.1.1.2.2.3.1.2.3.4.4.6 0 0 0 .1.1.1-1.3-.4-2-.8-2.3-1l-.1-.1v-.1-.1c-.1-.1.2-.5 1.1-.9zm26.8 2.2c-.7 6.3-6.7 11.2-13.9 11.2-7.1 0-13-4.7-13.9-10.8 0 0 .1 0 .1.1.1.1.3.1.4.2.1 0 .2.1.3.1.2.1.4.1.6.2.1 0 .1 0 .2.1.3.1.5.2.8.2h.1l1.1.3h.2c.3.1.7.1 1 .2h.2c.3 0 .6.1.9.1h.3c.3 0 .5.1.8.1H9c.3 0 .6.1.9.1h.3c.3 0 .6 0 .9.1h4.2c5.6 0 10.7-.7 13.3-1.8l.2-.1.1-.1c.3.1.5 0 .6-.2z"/></svg>