<svg xmlns="http://www.w3.org/2000/svg" id="Layer_1" viewBox="0 0 32 32"><style>.st0{fill:none;stroke:#008080;stroke-width:0.5;stroke-miterlimit:10;}</style><path d="M27 14.4v-.3c-.5 0-1.1-.3-1.6-.6l-.3-.3-3.1 2.3c-.1.1-.2.1-.2.1-.2.1-.4.2-.6.2-.8 0-1.5-.7-1.5-.8l-.7-.6 3.8-2.9h-23C-.2 21.2 6.5 29 14.7 29c6.5 0 12-4.9 14.1-11.8-1.1-.3-1.8-1.4-1.8-2.8zM3.4 21.1c-.5 0-.8-.4-.8-1 0-.5.4-1 .8-1 .5 0 .8.4.8 1 0 .5-.3 1-.8 1zm0-5.3c-.5 0-.8-.4-.8-1 0-.5.4-1 .8-1 .5 0 .8.4.8 1 0 .5-.3 1-.8 1zm4.5 10.6c-.5 0-.8-.4-.8-1 0-.5.4-1 .8-1 .5 0 .8.4.8 1 .1.5-.3 1-.8 1zm0-5.3c-.5 0-.8-.4-.8-1 0-.5.4-1 .8-1 .5 0 .8.4.8 1 .1.5-.3 1-.8 1zm0-5.3c-.5 0-.8-.4-.8-1 0-.5.4-1 .8-1 .5 0 .8.4.8 1s-.3 1-.8 1zm4.5 10.6c-.5 0-.8-.4-.8-1 0-.5.4-1 .8-1 .5 0 .8.4.8 1 .1.5-.3 1-.8 1zm0-5.3c-.5 0-.8-.4-.8-1 0-.5.4-1 .8-1 .5 0 .8.4.8 1 .1.5-.3 1-.8 1zm0-5.3c-.5 0-.8-.4-.8-1 0-.5.4-1 .8-1 .5 0 .8.4.8 1 .1.5-.3 1-.8 1zM17 26.4c-.5 0-.8-.4-.8-1 0-.5.4-1 .8-1 .5 0 .8.4.8 1 0 .5-.4 1-.8 1zm0-5.3c-.5 0-.8-.4-.8-1 0-.5.4-1 .8-1 .5 0 .8.4.8 1 0 .5-.4 1-.8 1zm0-5.3c-.5 0-.8-.4-.8-1 0-.5.4-1 .8-1 .5 0 .8.4.8 1s-.4 1-.8 1zm4.5 10.6c-.5 0-.8-.4-.8-1 0-.5.4-1 .8-1 .5 0 .8.4.8 1 0 .5-.4 1-.8 1zm0-5.3c-.5 0-.8-.4-.8-1 0-.5.4-1 .8-1 .5 0 .8.4.8 1 0 .5-.4 1-.8 1zm4.5 0c-.5 0-.8-.4-.8-1 0-.5.4-1 .8-1 .5 0 .8.4.8 1 0 .5-.4 1-.8 1z" class="st0"/><path id="XMLID_5_" d="M24.8 10.5l-3.2-2.4c-.8-.5-1.6.5-1.6.5l3.7 2.8 1.1-.9z" class="st0"/><path d="M31.4 15.7c.2-.4.3-.8.3-1.3 0-1.3-.9-2.4-2.1-2.4h-2.5c-.2 0-.6-.1-.8-.3l-.2-.1.2-.1c.2-.1.6-.3.8-.3h2.5c1.1 0 2.1-1.1 2.1-2.4 0-.5-.1-.9-.3-1.3l.6-.7c.1-.1.1-.2.1-.4 0-.1 0-.3-.1-.4-.2-.2-.5-.2-.6 0l-.6.7c-.3-.2-.7-.4-1.1-.4-1.1 0-2.1 1.1-2.1 2.4 0 .4.1.7.2 1h-.6c-.4 0-1 .2-1.4.5L20 14.6s.9 1 1.6.5l3.5-2.6.7.5c.4.3 1 .5 1.4.5h.6c-.1.3-.2.7-.2 1 0 1.3.9 2.4 2.1 2.4.4 0 .8-.1 1.1-.4l.6.7c.2.2.5.2.6 0 .1-.1.1-.2.1-.4s0-.3-.1-.4l-.6-.7zm-1.8-8c.5 0 .9.5.9 1s-.4 1-.9 1-.9-.5-.9-1 .4-1 .9-1zm-4.5 4.2c-.1 0-.2-.1-.2-.3 0-.2.1-.3.2-.3s.2.1.2.3c0 .1-.1.3-.2.3zm4.5 3.5c-.5 0-.9-.5-.9-1 0-.6.4-1 .9-1s.9.5.9 1c0 .6-.4 1-.9 1z" class="st0"/></svg>