<svg xmlns="http://www.w3.org/2000/svg" id="Layer_1" viewBox="0 0 32 32"><style>.st0{fill:#008080;}</style><path d="M12.8 216.1h-40.2v-23c0-4.1-3.4-7.5-7.5-7.5s-7.5 3.4-7.5 7.5v23h-53.2v-23c0-4.1-3.4-7.5-7.5-7.5s-7.5 3.4-7.5 7.5v23h-40.2c-4.1 0-7.5 3.4-7.5 7.5s3.4 7.5 7.5 7.5H12.8c4.1 0 7.5-3.4 7.5-7.5s-3.3-7.5-7.5-7.5zM36.5 115.6h-213c-4.1 0-7.5 3.4-7.5 7.5s3.4 7.5 7.5 7.5h213c4.1 0 7.5-3.4 7.5-7.5s-3.4-7.5-7.5-7.5z" class="st0"/><path d="M46.5-18.4h-231c-15.2 0-27.5 12.3-27.5 27.5v134c0 15.2 12.3 27.5 27.5 27.5h231c15.2 0 27.5-12.3 27.5-27.5V9.1c0-15.2-12.3-27.5-27.5-27.5zM59 143.1c0 6.9-5.6 12.5-12.5 12.5h-231c-6.9 0-12.5-5.6-12.5-12.5V9.1c0-6.9 5.6-12.5 12.5-12.5h231C53.4-3.4 59 2.2 59 9.1v134zM171 152.1c-12.4 0-22.5 10.1-22.5 22.5s10.1 22.5 22.5 22.5 22.5-10.1 22.5-22.5-10.1-22.5-22.5-22.5zm0 30c-4.1 0-7.5-3.4-7.5-7.5s3.4-7.5 7.5-7.5 7.5 3.4 7.5 7.5-3.4 7.5-7.5 7.5zM205 91.8c-4.4 0-8 3.6-8 8s3.6 8 8 8 8-3.6 8-8-3.6-8-8-8z" class="st0"/><path d="M235.5-18.2H223v-32.5c0-4.1-3.4-7.5-7.5-7.5h-89c-4.1 0-7.5 3.4-7.5 7.5v7.5h-5v-47.5c0-4.1-3.4-7.5-7.5-7.5S99-94.8 99-90.7v55c0 4.1 3.4 7.5 7.5 7.5H119v10h-12.5c-4.1 0-7.5 3.4-7.5 7.5v234.3c0 4.1 3.4 7.5 7.5 7.5h129c4.1 0 7.5-3.4 7.5-7.5V-10.7c0-4.1-3.4-7.5-7.5-7.5zM134-43.2h74v25h-74v-25zm94 259.3H114V-3.2h114v219.3z" class="st0"/><path d="M205.5 21.8h-69c-4.1 0-7.5 3.4-7.5 7.5s3.4 7.5 7.5 7.5h69c4.1 0 7.5-3.4 7.5-7.5s-3.4-7.5-7.5-7.5zM205.5 61.8h-69c-4.1 0-7.5 3.4-7.5 7.5s3.4 7.5 7.5 7.5h69c4.1 0 7.5-3.4 7.5-7.5s-3.4-7.5-7.5-7.5zM58.8-138.4c-2.9 2.9-2.9 7.7 0 10.6 1.5 1.5 3.4 2.2 5.3 2.2s3.8-.7 5.3-2.2c9.9-9.9 23.1-15.3 37.1-15.3s27.2 5.5 37.1 15.3c2.9 2.9 7.7 2.9 10.6 0 2.9-2.9 2.9-7.7 0-10.6-12.7-12.7-29.7-19.7-47.7-19.7-18 0-35 7-47.7 19.7z" class="st0"/><path d="M48.2-149c32.2-32.2 84.5-32.2 116.7 0 1.5 1.5 3.4 2.2 5.3 2.2s3.8-.7 5.3-2.2c2.9-2.9 2.9-7.7 0-10.6-38-38-99.9-38-137.9 0-2.9 2.9-2.9 7.7 0 10.6 2.9 2.9 7.6 2.9 10.6 0zM122.4-106.6c1.5 1.5 3.4 2.2 5.3 2.2s3.8-.7 5.3-2.2c2.9-2.9 2.9-7.7 0-10.6-14.6-14.6-38.4-14.6-53 0-2.9 2.9-2.9 7.7 0 10.6s7.7 2.9 10.6 0c4.3-4.3 9.9-6.6 15.9-6.6s11.7 2.4 15.9 6.6z" class="st0"/><g id="XMLID_2_"><path id="XMLID_20_" d="M16 29.2h-2.5v-1.6c0-.3-.2-.5-.5-.5s-.5.2-.5.5v1.6H9.2v-1.6c0-.3-.2-.5-.5-.5s-.5.2-.5.5v1.6H5.7c-.3 0-.5.2-.5.5s.2.5.5.5H16c.3 0 .5-.2.5-.5s-.2-.5-.5-.5z" class="st0"/><path id="XMLID_19_" d="M17.5 22.3H4.1c-.3 0-.5.2-.5.5s.2.5.5.5h13.4c.3 0 .5-.2.5-.5s-.3-.5-.5-.5z" class="st0"/><path id="XMLID_16_" d="M18.1 13.1H3.6c-1 0-1.7.8-1.7 1.9v9.2c0 1 .8 1.9 1.7 1.9h14.5c1 0 1.7-.8 1.7-1.9V15c0-1-.7-1.9-1.7-1.9zm.8 11.1c0 .5-.4.9-.8.9H3.6c-.4 0-.8-.4-.8-.9V15c0-.5.4-.9.8-.9h14.5c.4 0 .8.4.8.9v9.2z" class="st0"/><path id="XMLID_13_" d="M25.9 24.8c-.8 0-1.4.7-1.4 1.5s.6 1.5 1.4 1.5c.8 0 1.4-.7 1.4-1.5.1-.8-.6-1.5-1.4-1.5zm0 2.1c-.3 0-.5-.2-.5-.5s.2-.5.5-.5.5.2.5.5c0 .2-.2.5-.5.5z" class="st0"/><path id="XMLID_12_" d="M28.1 20.7c-.3 0-.5.2-.5.5s.2.5.5.5.5-.2.5-.5-.2-.5-.5-.5z" class="st0"/><path id="XMLID_8_" d="M30 13.2h-.8V11c0-.3-.2-.5-.5-.5h-5.6c-.3 0-.5.2-.5.5v.5h-.3V8.2c0-.3-.2-.5-.5-.5s-.5.2-.5.5V12c0 .3.2.5.5.5h.8v.7h-.8c-.3 0-.5.2-.5.5v16c0 .3.2.5.5.5H30c.3 0 .5-.2.5-.5v-16c0-.3-.2-.5-.5-.5zm-6.4-1.7h4.7v1.7h-4.7v-1.7zm5.9 17.7h-7.2v-15H29.5v15z" class="st0"/><path id="XMLID_7_" d="M28.1 15.9h-4.3c-.3 0-.5.2-.5.5s.2.5.5.5h4.3c.3 0 .5-.2.5-.5s-.2-.5-.5-.5z" class="st0"/><path id="XMLID_6_" d="M28.1 18.6h-4.3c-.3 0-.5.2-.5.5s.2.5.5.5h4.3c.3 0 .5-.2.5-.5s-.2-.5-.5-.5z" class="st0"/><path id="XMLID_5_" d="M18.9 4.9c-.2.2-.2.5 0 .7.1.1.2.2.3.2.1 0 .2-.1.3-.2.6-.7 1.5-1 2.3-1 .9 0 1.7.4 2.3 1 .2.2.5.2.7 0 .2-.2.2-.5 0-.7-.8-.9-1.9-1.4-3-1.4-1 .1-2.1.6-2.9 1.4z" class="st0"/><path id="XMLID_4_" d="M18.2 4.2c2-2.2 5.3-2.2 7.3 0 .1.1.2.2.3.2.1 0 .2-.1.3-.2.2-.2.2-.5 0-.7-2.4-2.6-6.3-2.6-8.7 0-.2.2-.2.5 0 .7.3.2.6.2.8 0z" class="st0"/><path id="XMLID_3_" d="M22.9 7.1c.1.1.2.2.3.2.1 0 .2-.1.3-.2.2-.2.2-.5 0-.7-.9-1-2.4-1-3.3 0-.2.2-.2.5 0 .7.2.2.5.2.7 0 .3-.3.6-.5 1-.5s.7.2 1 .5z" class="st0"/></g></svg>