<svg xmlns="http://www.w3.org/2000/svg" id="Layer_1" viewBox="0 0 32 32"><style>.st0{fill:#008080;}</style><g id="XMLID_2_"><g id="XMLID_3_"><path id="XMLID_4_" d="M25.3 13.1c-.6 0-1.2.1-1.8.2l-1.7-4.4.6-.6c.3-.3.3-.7 0-.9l-1.3-1.3c-.1-.1-.3-.2-.5-.2h-3.3c-.4 0-.7.3-.7.7 0 .4.3.7.7.7h3.1l.7.7-.5.5c-.2.2-.2.5-.1.7l.6 1.6-9.1.9v-1.2h2c.4 0 .7-.3.7-.7s-.3-.7-.7-.7h-4c-.4 0-.7.3-.7.7 0 .4.3.7.7.7h.7v1.8l-.9 1.6c-.9-.5-2-.7-3.1-.7C3 13.1 0 16 0 19.6c0 3.6 3 6.5 6.7 6.5 3.2 0 5.9-2.3 6.5-5.2h.9c.3.8 1 1.3 1.9 1.3 1.1 0 2-.9 2-2 0-.5-.2-.9-.4-1.2l4.3-6.5.5 1.2c-2.2 1.1-3.7 3.3-3.7 5.8 0 3.6 3 6.5 6.7 6.5s6.7-2.9 6.7-6.5c-.1-3.5-3.1-6.4-6.8-6.4zM6.7 24.8c-2.9 0-5.3-2.3-5.3-5.2 0-2.9 2.4-5.2 5.3-5.2.9 0 1.7.2 2.4.6l-3 5c-.2.3-.1.7.2.9.1.1.2.1.3.1h5.2c-.6 2.2-2.7 3.8-5.1 3.8zm1.1-5.2l2.3-3.9c1.1 1 1.8 2.4 1.8 3.9H7.8zm6.3 0h-.8c0-2.1-1-3.9-2.5-5.1l.5-.8 3.1 5.3-.3.6zm1.9 1.3c-.4 0-.7-.3-.7-.7 0-.4.3-.7.7-.7.4 0 .7.3.7.7 0 .4-.3.7-.7.7zm.5-2.6c-.1 0-.3-.1-.5-.1h-.4l-3.2-5.4 8.2-1-4.1 6.5zm8.8 6.5c-2.9 0-5.3-2.3-5.3-5.2 0-2 1.1-3.7 2.8-4.6l1.9 4.8c.1.3.4.4.6.4h.2c.3-.1.5-.5.4-.8L24 14.5c.4-.1.8-.2 1.3-.2 2.9 0 5.3 2.3 5.3 5.2.1 3-2.3 5.3-5.3 5.3z" class="st0"/></g></g></svg>