<svg xmlns="http://www.w3.org/2000/svg" id="Layer_1" viewBox="0 0 32 32"><style>.st0{fill:none;stroke:#008080;stroke-width:0.8;stroke-miterlimit:10;}</style><g id="XMLID_2_"><path id="XMLID_3_" d="M20.2 31h-1.4c-.3 0-.2-.2 0-.3 0-.2.3-.5.3-.5v-1h-1l.8.5s-1 1.2-2 1.4c-1 .3-2 0-2 0s.2.5 0 .7c-.3.2-1 0-1.2 0-.2 0-.3-.3-.3-.3h-.5s0-1-.3-1.4c-.2-.3-1-.2-1.2 0-.3.3.2.4-.3.7-.5.3-3.2 0-4-1-1-.8-3-1.7-3-3 0-.5 1.3-1.2 3-2.7 1.8-1.6 4-4 4.2-4.3.4-.7 2-7.3 2-7.3s.3-3.2.2-4c0-.2-.6-.8-1-1.5l-1-2.5v-3-.8s.3-.3.6-.3c.5 0 .6.2 1 .4.6 0 1 0 1 .2h-.7.3l.4.2c0 .2-.6 0-.6 0l.2.2.4.2h-.7s.2.2 0 .2c-.3 0-.7-.3-.8-.3 0 .3 0 1 .2 1.6 0 .7 0 1.3.2 1.5l.8 1.7 1 1c.3.4.4.8.7 1 .3 0 1-.5 1-1h-.6l-.4-.5c-.3-.2-.5-.4-.3-1 .4-1 1-.4 1.2-.7.4-.4 1-.6 1.6-.5 1 0 1.4 1 1.5 1.7 0 .6-.2.7-.5 1.2V8h-.3l-.4.7h-.6s.2.4.8.8c.6.4 1 .5 1.6.7.7.2 3.3 1.7 3.4 2 .2 0 0 2.5-.2 3 0 .3-.4.8-.6.8H22c-.2.2-.6.4-.8.2-.2 0 .6-.4.6-.4h-.5s-.5-.2-.6 0h-.5c-.2 0 0-.2 0-.2H20c-.2-.2.5-.4 1-.5.8 0 1.5.3 1.6 0 0-.2 0-2-.2-2.3l-1.6-.7c-.7-.3-1.2-.6-1.6-.4-1 .3-1.8 2.2-1.7 3 0 .3 1 1.6 2 2.8.7.8 1 1.6 1.8 2 1 .6 2.8 1.7 4.2 3 1 1 1.8 2.2 2 2.4.3.4-.2.6-.2.6s.4.8 0 1.7c0 1-.8 1-.8 1l.3.7-2 .8-2 1c-.6 0-1.3-1.3-1.3-1.3s0 .5-.3.5c-.2 0-.3-.6-.5-.3-.4.2 0 1.3-.5 1.5z" class="st0"/></g></svg>