<svg xmlns="http://www.w3.org/2000/svg" id="Layer_1" viewBox="224 -224 480 480">
  <style>
    .st0{fill:#008080;}
  </style>
  <path id="XMLID_1376_" d="M694 236h-10V46h10c5.5 0 10-4.5 10-10s-4.5-10-10-10h-10V6.2-94c0-60.7-49.3-110-110-110h-42.6c-8.1-12.1-21.8-20-37.4-20-11.1 0-21.8 4.2-30 11.5-8.2-7.3-18.9-11.5-30-11.5-15.6 0-29.3 7.9-37.4 20H354c-60.7 0-110 49.3-110 110V26h-10c-5.5 0-10 4.5-10 10s4.5 10 10 10h10v190h-10c-5.5 0-10 4.5-10 10s4.5 10 10 10h190c5.5 0 10-4.5 10-10s-4.5-10-10-10h-33.2L319.6 54c-2.3-5.8-5.6-11.1-9.7-15.6 28-7.7 54.2-21.2 76.9-39.8 33-27 57.1-63.5 68.9-104.1 5.3 2 11.3 2 16.6 0 11.8 40.6 35.9 77.1 68.9 104.1 22.7 18.5 48.9 32 76.9 39.8-4.1 4.5-7.4 9.8-9.7 15.6l-71.2 182H504c-5.5 0-10 4.5-10 10s4.5 10 10 10h190c5.5 0 10-4.5 10-10s-4.5-10-10-10zm-324.7 0H264V45.8c6.8-.3 13.6-1 20.3-2 .5.4 1.1.8 1.8 1.2 6.8 3.4 12.1 9.2 14.9 16.3L369.3 236zM264 25.7V12.6c27.7-12.5 52.7-32 72.4-56.7 21.3-26.7 36.2-58.9 42.9-93.3 1.1-5.4-2.5-10.7-7.9-11.7-5.4-1.1-10.7 2.5-11.7 7.9C348.4-83.9 312.3-34.7 264-9.6V-94c0-49.6 40.4-90 90-90h35.3c-.2 1.6-.3 3.3-.3 5 0 12.5 5.5 24.3 15.1 32.3l34.3 28.6C418.4-37.5 346.8 21.3 264 25.7zm208.2-155.4c-.1.1-.2.2-.3.2l-5.5 4.6c-1.4 1.1-3.5 1.1-4.9 0l-5.5-4.6c-.1-.1-.2-.2-.3-.2l-38.9-32.4c-5-4.2-7.9-10.4-7.9-16.9 0-13.8 11.2-25 25-25 8.8 0 16.9 4.5 21.4 12.1 1.8 3 5.1 4.8 8.6 4.8s6.8-1.8 8.6-4.8c4.6-7.6 12.6-12.1 21.4-12.1 13.8 0 25 11.2 25 25 0 6.6-2.9 12.7-7.9 16.9l-38.8 32.4zM664 236H558.7L627 61.3c2.8-7.1 8.1-12.9 14.9-16.3.7-.3 1.3-.7 1.8-1.2 6.7 1 13.5 1.6 20.3 2V236zm0-245.6c-48.3-25.1-84.4-74.2-95.7-131.6-1.1-5.4-6.3-8.9-11.7-7.9-5.4 1.1-8.9 6.3-7.9 11.7 6.8 34.3 21.6 66.6 42.9 93.3C611.4-19.4 636.3.1 664 12.6v13.1c-82.8-4.4-154.4-63.2-174.4-143.9l34.3-28.6c9.6-8 15.1-19.8 15.1-32.3 0-1.7-.1-3.4-.3-5H574c49.6 0 90 40.4 90 90v84.5z" class="st0"/>
</svg>
