<?xml version="1.0" encoding="utf-8"?>
<!-- Generator: Adobe Illustrator 19.0.0, SVG Export Plug-In . SVG Version: 6.00 Build 0)  -->
<svg version="1.1" id="Layer_1" xmlns="http://www.w3.org/2000/svg" xmlns:xlink="http://www.w3.org/1999/xlink" x="0px" y="0px"
	 viewBox="0 0 32 32" style="enable-background:new 0 0 32 32;" xml:space="preserve">
<style type="text/css">
	.st0{fill:#008080;}
</style>
<g id="XMLID_2_">
	<g id="XMLID_3_">
		<path id="XMLID_4_" class="st0" d="M29.8,6.4c0-2.7-2.5-5.8-6.1-5.8c-1.7,0-2.9,0.2-4,0.3c-1.1,0.2-2.2,0.3-3.7,0.3
			S13.5,1.1,12.3,1c-1.1-0.2-2.3-0.3-4-0.3c-3.6,0-6.1,3-6.1,5.8c0,1.8,1.7,5.9,3.3,8.6c-0.6,3.1,0.3,13.7,2.4,15.8
			c0.4,0.4,0.9,0.5,1.2,0.5c2.6,0,2.9-2.7,3.1-5.6c0.3-3.9,0.8-6.6,3.8-6.6s3.5,2.7,3.8,6.6c0.2,2.9,0.5,5.6,3.1,5.6
			c0.3,0,0.8-0.1,1.2-0.5c2.1-2.2,3-12.7,2.4-15.8C28.1,12.3,29.8,8.2,29.8,6.4z M22.9,30.1c-1.2,0-1.4-2.2-1.6-4.4
			c-0.3-3.5-0.7-7.8-5.3-7.8s-5.1,4.3-5.3,7.8c-0.2,2.2-0.4,4.4-1.5,4.4C8,29.5,6.6,21.3,6.8,16.9C6.9,16.9,6.9,17,7,17.1
			c0.3,0.3,0.8,0.3,1.1,0.1c0.3-0.2,0.4-0.6,0.1-0.9c-1.5-1.4-4.4-7.7-4.4-9.8c0-2.1,1.9-4.5,4.6-4.5c1.5,0,2.6,0.2,3.7,0.3
			c1.1,0.2,2.3,0.3,3.9,0.3s2.8-0.2,3.9-0.3c1.1-0.2,2.2-0.3,3.7-0.3c2.7,0,4.6,2.4,4.6,4.5c0,2.2-2.9,8.4-4.4,9.8
			c-0.3,0.3-0.2,0.7,0.1,0.9c0.1,0.1,0.3,0.2,0.5,0.2c0.2,0,0.4-0.1,0.6-0.2c0.1-0.1,0.1-0.1,0.2-0.2C25.4,21.3,24.1,29.5,22.9,30.1
			z"/>
	</g>
</g>
</svg>
