<svg xmlns="http://www.w3.org/2000/svg" id="Layer_1" viewBox="0 0 32 32">
  <style>
    .st0{fill:#008080;}
  </style>
  <g id="XMLID_35_">
    <g id="XMLID_36_">
      <path id="XMLID_37_" d="M22.4 2.2C20.6 1.3 18.6.8 16.5.8c-6.4 0-12.7 4.5-11 12l-1.1 1.4-2 3.7 1.9 1.6-.1 2.6.8 1.1s-.9 3.5.5 4c1.3.5 2.8.6 3.9.6s1.9-.1 1.9-.1l.2 3.2h13.1s-1.3-6.6.7-9.5c1.9-2.8 8.3-13.4-2.9-19.2zm.5 25.1c0 .9.1 1.7.2 2.4H12.6l-.1-2-.1-1.4-1.3.2s-.7.1-1.7.1c-.9 0-2.2-.1-3.4-.5v-1.3c.1-.7.2-1.2.2-1.2l.2-.6-.3-.5-.5-.8.1-2.2v-.6l-.5-.4-1.2-.9 1.4-2.7 1.1-1.3.4-.5-.1-.6c-.3-1.3-.3-2.6-.1-3.8.2-1.1.7-2.1 1.4-3 .9-1.1 2.1-2 3.6-2.7 1.5-.6 3.2-1 4.8-1 1.9 0 3.7.4 5.3 1.2 1.6.9 2.9 1.9 3.9 3 .8 1 1.4 2.1 1.6 3.2.5 1.9.2 4.1-.7 6.6-.8 2.1-1.9 3.8-2.5 4.6-.8 1.5-1.3 3.7-1.2 6.7z" class="st0"/>
    </g>
  </g>
  <g id="XMLID_32_">
    <g id="XMLID_33_">
      <path id="XMLID_34_" d="M13.4 18.4c-.3 0-.6.3-.6.6s.3.6.6.6.6-.3.6-.6-.3-.6-.6-.6z" class="st0"/>
    </g>
  </g>
  <g id="XMLID_29_">
    <g id="XMLID_30_">
      <path id="XMLID_31_" d="M10.9 20.9c-.3 0-.6.3-.6.6s.3.6.6.6.6-.3.6-.6-.3-.6-.6-.6z" class="st0"/>
    </g>
  </g>
  <g id="XMLID_26_">
    <g id="XMLID_27_">
      <path id="XMLID_28_" d="M8.4 13.3c-.3 0-.6.3-.6.6s.3.6.6.6.6-.2.6-.5c0-.4-.2-.7-.6-.7z" class="st0"/>
    </g>
  </g>
  <g id="XMLID_23_">
    <g id="XMLID_24_">
      <path id="XMLID_25_" d="M5.9 15.9c-.3 0-.6.3-.6.6s.3.6.6.6.6-.3.6-.6c.1-.4-.2-.6-.6-.6z" class="st0"/>
    </g>
  </g>
  <g id="XMLID_20_">
    <g id="XMLID_21_">
      <path id="XMLID_22_" d="M8.1 19.6c-.3 0-.6.3-.6.6s.3.6.6.6.6-.3.6-.6-.2-.6-.6-.6z" class="st0"/>
    </g>
  </g>
  <g id="XMLID_17_">
    <g id="XMLID_18_">
      <path id="XMLID_19_" d="M10.3 16.5c-.3 0-.6.3-.6.6s.3.6.6.6.6-.3.6-.6-.3-.6-.6-.6z" class="st0"/>
    </g>
  </g>
  <g id="XMLID_11_">
    <g id="XMLID_12_">
      <path id="XMLID_13_" d="M13.4 23.4c-.3 0-.6.3-.6.6s.3.6.6.6.6-.3.6-.6-.3-.6-.6-.6z" class="st0"/>
    </g>
  </g>
  <g id="XMLID_8_">
    <g id="XMLID_9_">
      <path id="XMLID_10_" d="M8.4 23.4c-.3 0-.6.3-.6.6s.3.6.6.6.6-.3.6-.6-.2-.6-.6-.6z" class="st0"/>
    </g>
  </g>
  <g id="XMLID_5_">
    <g id="XMLID_6_">
      <path id="XMLID_7_" d="M16.3 20.2c-.3 0-.6.3-.6.6s.3.6.6.6.6-.3.6-.6-.3-.6-.6-.6z" class="st0"/>
    </g>
  </g>
  <g id="XMLID_2_">
    <g id="XMLID_3_">
      <path id="XMLID_4_" d="M15.9 15.9c-.3 0-.6.3-.6.6s.3.6.6.6.6-.3.6-.6c0-.4-.3-.6-.6-.6z" class="st0"/>
    </g>
  </g>
  <g id="XMLID_1_">
    <g id="XMLID_14_">
      <path id="XMLID_15_" d="M11.5 11.5c-.3 0-.6.3-.6.6s.3.6.6.6.6-.3.6-.6-.2-.6-.6-.6z" class="st0"/>
    </g>
  </g>
  <g id="XMLID_16_">
    <g id="XMLID_40_">
      <path id="XMLID_41_" d="M14 14c-.3 0-.6.3-.6.6s.3.6.6.6.6-.3.6-.6c0-.4-.3-.6-.6-.6z" class="st0"/>
    </g>
  </g>
</svg>
