<?xml version="1.0" encoding="utf-8"?>
<!-- Generator: Adobe Illustrator 19.0.0, SVG Export Plug-In . SVG Version: 6.00 Build 0)  -->
<svg version="1.1" id="Layer_1" xmlns="http://www.w3.org/2000/svg" xmlns:xlink="http://www.w3.org/1999/xlink" x="0px" y="0px"
	 viewBox="0 0 32 32" style="enable-background:new 0 0 32 32;" xml:space="preserve">
<style type="text/css">
	.st0{fill:#008080;}
</style>
<g id="XMLID_2_">
	<path id="XMLID_17_" class="st0" d="M25.5,30.5H2.1c-0.4,0-0.7-0.3-0.7-0.6V2.2c0-0.3,0.3-0.6,0.7-0.6h23.4c0.4,0,0.7,0.3,0.7,0.6
		V9c0,0.3-0.3,0.6-0.7,0.6S24.8,9.3,24.8,9V2.8H2.9v26.4h22.7c0.4,0,0.7,0.3,0.7,0.6S25.9,30.5,25.5,30.5z"/>
	<path id="XMLID_14_" class="st0" d="M30.6,18.8c-0.2-1-0.8-1.9-1.7-2.5c-1.8-1-4.4-0.2-6.1,0.7c0,0,0,0,0,0c0,0,0,0-0.1,0
		c0,0,0,0,0,0c0,0-0.1,0.1-0.1,0.1c0,3-0.1,6.1-0.1,9.1c0,0.3,0,0.6,0,0.9c0,0.1,0.1,0.2,0.3,0.2c1.1,0,2.1,0,3.2-0.1
		c0.8-0.1,1.4-0.3,2-0.7c1.2-0.8,2-2,2.4-3.2C31,22,31,20.3,30.6,18.8z M28.7,25.4c-0.5,0.6-1.1,1.2-1.9,1.4C26.2,27,25.6,27,25,27
		c-0.6,0-1.2,0-1.8,0c0-3,0.1-5.9,0.1-8.9c0-0.3,0-0.5,0-0.8c0.9-0.5,2-0.9,3.1-1c0.9-0.1,1.7,0,2.4,0.5c1,0.7,1.3,2,1.4,3.1
		C30.4,21.8,30,23.8,28.7,25.4z"/>
	<path id="XMLID_11_" class="st0" d="M28.7,12.1c-1-0.6-2.1-0.4-3.1,0.1c-1.2,0.7-2.2,1.7-3,2.8c-0.1,0.1-0.1,0.1,0,0.2
		c0,0.1,0.1,0.1,0.2,0.2c0.9,0.1,1.9-0.1,2.7-0.4c1.1-0.3,2.2-0.6,3-1.2C29.2,13.3,29.4,12.6,28.7,12.1z M28.3,13.2
		c-0.7,0.6-1.9,1-2.9,1.2c-0.6,0.2-1.4,0.4-2,0.4c0.3-0.4,0.7-0.8,1-1.1c0.7-0.7,1.7-1.5,2.9-1.6c0.4,0,1,0.2,1.2,0.5
		C28.7,12.8,28.5,13.1,28.3,13.2z"/>
	<path id="XMLID_10_" class="st0" d="M7.3,6.5c0,0,7.1,0,10.7,0c0.9,0,1.7,0,2.4,0c0.7,0,0.7-0.6,0-0.6c-3.7,0-6.9,0-10.6,0
		c-0.9,0-1.8,0-2.6,0S6.5,6.5,7.3,6.5C7.3,6.5,6.5,6.5,7.3,6.5z"/>
	<path id="XMLID_9_" class="st0" d="M7.3,8.4c0,0,7.1,0,10.7,0c0.9,0,1.7,0,2.4,0c0.7,0,0.7-0.6,0-0.6c-3.7,0-6.9,0-10.6,0
		c-0.9,0-1.8,0-2.6,0S6.5,8.4,7.3,8.4C7.3,8.4,6.5,8.4,7.3,8.4z"/>
	<path id="XMLID_8_" class="st0" d="M7.3,10.2c0,0,7.1,0,10.7,0c0.9,0,1.7,0,2.4,0c0.7,0,0.7-0.6,0-0.6c-3.7,0-6.9,0-10.6,0
		c-0.9,0-1.8,0-2.6,0S6.5,10.2,7.3,10.2C7.3,10.2,6.5,10.2,7.3,10.2z"/>
	<path id="XMLID_7_" class="st0" d="M7.3,12c0,0,7.1,0,10.7,0c0.9,0,1.7,0,2.4,0c0.7,0,0.7-0.6,0-0.6c-3.7,0-6.9,0-10.6,0
		c-0.9,0-1.8,0-2.6,0S6.5,12,7.3,12C7.3,12,6.5,12,7.3,12z"/>
	<path id="XMLID_3_" class="st0" d="M22,24.8c-1.1-1.3-2.3-2.6-3.4-3.9c-0.1-0.1-0.3-0.2-0.5-0.1c-0.6,0.4-0.8,1.2-0.8,1.8
		c0,0.1,0,0.2,0,0.4c-0.3-0.1-0.6-0.3-1-0.4c-0.2-0.1-0.4,0-0.4,0.1c-0.3,0.6,0,1.4,0.3,1.9c0.6,0.8,1.6,1.3,2.7,1.4
		c0.9,0.1,2.2,0,2.6-0.8c0.1-0.1,0.2-0.2,0.3-0.3c0,0,0,0,0,0C22,25,22.1,24.9,22,24.8z M18.3,21.4c0.9,1,1.8,2,2.7,3.1
		c-1-0.4-1.9-0.8-2.9-1.1c-0.1-0.2-0.1-0.4-0.2-0.6C17.9,22.4,18,21.8,18.3,21.4z M20.5,25.6c-0.4,0.1-0.8,0.2-1.2,0.1
		c-1-0.1-1.9-0.5-2.4-1.2c-0.3-0.4-0.5-0.9-0.4-1.3c0.4,0.2,0.8,0.3,1.2,0.4c0.3,0.1,0.6,0.2,0.9,0.4c0.8,0.3,1.7,0.7,2.5,1
		c0,0,0,0,0.1,0C21,25.3,20.8,25.5,20.5,25.6z"/>
</g>
</svg>
