<?xml version="1.0" encoding="utf-8"?>
<!-- Generator: Adobe Illustrator 19.0.0, SVG Export Plug-In . SVG Version: 6.00 Build 0)  -->
<svg version="1.1" id="Layer_1" xmlns="http://www.w3.org/2000/svg" xmlns:xlink="http://www.w3.org/1999/xlink" x="0px" y="0px"
	 viewBox="0 0 32 32" style="enable-background:new 0 0 32 32;" xml:space="preserve">
<style type="text/css">
	.st0{fill:#008080;}
</style>
<g id="XMLID_2_">
	<path id="XMLID_7_" class="st0" d="M17.2,31.1l-4.1-3.9c0,0,0,0,0,0l-2.9-2.8v-4.5c0-0.3-0.2-0.5-0.5-0.5s-0.5,0.2-0.5,0.5v4.5
		l-7,6.7c-0.2,0.2-0.2,0.5-0.1,0.7c0.2,0.2,0.5,0.2,0.7,0.1l3.8-3.7l2.5,1.5v1.8c0,0.3,0.2,0.5,0.5,0.5c0.3,0,0.5-0.2,0.5-0.5v-1.8
		l2.5-1.5l3.8,3.7c0.1,0.1,0.2,0.1,0.3,0.1c0.1,0,0.3-0.1,0.4-0.2C17.4,31.6,17.4,31.3,17.2,31.1z M7.5,27.4l1.8-1.7v2.7L7.5,27.4z
		 M10.2,28.5v-2.7l1.8,1.7L10.2,28.5z"/>
	<path id="XMLID_4_" class="st0" d="M25.2,16.9C25.2,16.9,25.2,16.9,25.2,16.9c-0.3,0-0.5,0.2-0.5,0.5c0,1.2-0.3,2.1-0.9,2.7
		c0,0,0,0,0,0l0,0c-1,1.1-2.8,1.3-5,0.4c-2.3-0.9-4.8-2.7-7-5.2S8,10.2,7.2,7.6C6.5,5.1,6.6,3.1,7.6,2c1-1.1,2.8-1.3,5-0.4
		c2.3,0.9,4.8,2.7,7,5.2c1.7,1.9,3.1,4.1,4,6.2c0.1,0.3,0.4,0.4,0.6,0.2c0.2-0.1,0.3-0.4,0.2-0.7C23.6,10.3,22.1,8,20.3,6
		c-2.3-2.6-4.9-4.5-7.4-5.4c-2.6-1-4.7-0.7-5.9,0.7c0,0,0,0,0,0L6.5,1.8C4.9,3.6,4.4,6.3,4.9,9.4c0.6,3.1,2.2,6.2,4.5,8.8
		c3.4,3.8,6.6,4.8,8.8,5c0.3,0,0.6,0,0.9,0c2,0,3.9-0.7,5-1.8l0.4-0.5c0,0,0,0,0,0c0.7-0.8,1.1-2,1.1-3.5
		C25.7,17.1,25.5,16.9,25.2,16.9z M18.3,22.1c-2-0.2-5-1.2-8.2-4.7c-3.4-3.8-5-8.7-4.2-12.2c0,0.8,0.2,1.7,0.5,2.7
		c0.8,2.8,2.5,5.7,4.9,8.3c2.3,2.6,4.9,4.5,7.4,5.4c0.6,0.2,1.2,0.4,1.8,0.5C19.7,22.2,19,22.2,18.3,22.1z"/>
	<path id="XMLID_3_" class="st0" d="M29.2,9.9l-2.1-2.4c-0.2-0.2-0.5-0.2-0.7,0c-0.2,0.2-0.2,0.5,0,0.7l0.1,0.1l-1,1.1
		c-0.2,0.2-0.2,0.5,0,0.7c0.1,0.1,0.2,0.2,0.3,0.2c0.1,0,0.2-0.1,0.3-0.2l1-1.1l1,1.1l-6.6,7.4c-0.2,0.2-0.2,0.5,0,0.7
		c0.1,0.1,0.2,0.2,0.3,0.2c0.1,0,0.2-0.1,0.3-0.2l6.9-7.7c0.1-0.1,0.1-0.2,0.1-0.4S29.3,10,29.2,9.9z"/>
</g>
</svg>
