<svg xmlns="http://www.w3.org/2000/svg" id="Layer_1" viewBox="0 0 32 32"><style>.st0{fill:none;stroke:#008080;stroke-width:0.6;stroke-miterlimit:10;} .st1{fill:#008080;stroke:#008080;stroke-width:0.6;stroke-miterlimit:10;}</style><g id="XMLID_2_"><g id="XMLID_3_"><path id="XMLID_10_" d="M11.8 15.8l.9-.9c0 2.5.2 5 .2 5.1h5c-.1-.9-.3-5.3-.2-7.4l.2-.2c1.7-2.3 2.9-4.9 3.6-7.7.5-1.8-2-2.8-2.5-1-.6 2.1-1.4 4-2.4 5.8-.2-.3-.6-.4-1.1-.5-1.1-.1-2.2.6-2.6 1.7l-.2.2-.1.1c0-1.5-2.2-2-2.6-.3-.3 1.2-.4 2.5-.5 3.7-.1 1.4 1.2 2.4 2.3 1.4z" class="st0"/><path id="XMLID_7_" d="M10.6 7.6c0 .4.3.6.6.6s.6-.3.6-.6c.3.7 1 1.2 1.8 1.4 1 .2 2-.4 2.4-1.4 0 .3.3.6.6.6.2.1.4-.2.4-.5.2 0 .4-.2.4-.4V5.6c0-.2-.2-.4-.4-.4 0-.2-.1-.4-.3-.5-.4-1.3-1.6-2.3-2.9-2.3-1.4 0-2.5 1-2.9 2.3-.2.1-.3.3-.3.5-.2 0-.4.2-.4.4v1.6c0 .3.2.4.4.4zM13.8 3c1.1 0 2 .7 2.3 1.7-.1.1-.2.3-.2.5v.2c-.3-.7-1-1.2-1.7-1.4-1-.2-2 .4-2.4 1.4v-.2c0-.2-.1-.4-.2-.5.2-1 1.1-1.7 2.2-1.7z" class="st0"/><path id="XMLID_6_" d="M1.2 21h30.1v9.8H1.2z" class="st0"/><path id="XMLID_5_" d="M3.7 19.1h7v1.4h-7z" class="st1"/><path id="XMLID_4_" d="M21.2 19.1h7v1.4h-7z" class="st1"/></g></g></svg>