<svg xmlns="http://www.w3.org/2000/svg" id="Layer_1" viewBox="0 0 32 32"><style>.st0{fill:#008080;}</style><g id="XMLID_2_"><g id="XMLID_3_"><path id="XMLID_11_" d="M30 6.4H18.9c-.5 0-.9.2-.9.6v3.9c0 .5.6.8 1.2.6l11.1-3.9c.9-.4.6-1.2-.3-1.2z" class="st0"/><path id="XMLID_10_" d="M14 10.9V7c0-.3-.4-.6-.8-.6H2c-.9 0-1.2.9-.4 1.2l11.1 4c.6.1 1.3-.2 1.3-.7z" class="st0"/><path id="XMLID_4_" d="M18.1 12.5c-.4 0-.8.2-.9.5-.1.3.3.6.7.7 2.7.3 3.9 1 3.9 1.4 0 .5-2 1.3-5 1.5V5.1C18.1 4.8 19 4 19 3c0-1.2-1.4-2.2-3-2.2s-2.9 1-2.9 2.2c0 1 .9 1.9 2.1 2.1v11.4c-3-.1-5-.9-5-1.5 0-.4 1.2-1.1 3.9-1.4.4 0 .7-.3.7-.7-.1-.3-.4-.6-.9-.5-3.3.3-5.3 1.3-5.3 2.6 0 1 1.3 1.8 3.1 2.2-1.2.5-1.9 1.2-1.9 2 0 1 1.2 1.9 3 2.3-.7.5-1.2 1.1-1.2 1.8 0 .8.6 1.6 1.6 2.1-1 .5-1.6 1.3-1.6 2.1 0 .9.7 1.8 2 2.3.4.2.9 0 1.1-.2s.1-.7-.3-.8c-.7-.3-1.1-.7-1.1-1.2 0-.7.8-1.2 2-1.4v4.5c0 .3.4.6.8.6s.8-.3.8-.6v-4.5c1.1.2 2 .7 2 1.4 0 .5-.4.9-1.1 1.2-.4.2-.5.5-.3.8.2.2.5.4 1.1.2 1.2-.5 2-1.3 2-2.3 0-.8-.6-1.6-1.6-2.1 1-.5 1.6-1.3 1.6-2.1 0-.7-.4-1.4-1.2-1.8 1.8-.5 3-1.3 3-2.3 0-.8-.7-1.5-1.9-2 1.8-.4 3.1-1.2 3.1-2.2-.1-1.2-2.2-2.2-5.5-2.5zm-2.9 12.4c-1.1-.2-2-.7-2-1.4s.8-1.2 2-1.4v2.8zm0-4.2c-2.2-.1-3.7-.8-3.7-1.5 0-.6 1.6-1.3 3.7-1.5v3zm1.6 4.2V22c1.1.2 2 .7 2 1.4s-.8 1.3-2 1.5zm3.8-5.6c0 .6-1.6 1.3-3.7 1.5v-2.9c2.1 0 3.7.7 3.7 1.4z" class="st0"/></g></g></svg>