<svg xmlns="http://www.w3.org/2000/svg" id="Layer_1" viewBox="0 0 32 32"><style>.st0{fill:none;stroke:#008080;stroke-miterlimit:10;}</style><g id="XMLID_2_"><g id="XMLID_3_"><path id="XMLID_4_" d="M11.4.9c3.1 0 6.2 3 7.9 7.8-1.6.9-3 2-4.2 3.3-4.3 4.7-5.4 11.3-2.6 15.7-.4.1-.8.1-1.2.1-5 0-9.1-5.6-9.1-12.5C2.2 8.6 6.2.9 11.4.9zm1.7 27.4c-2.6-4.1-1.7-10.6 2-15.3 1.1-1.3 2.4-2.5 3.8-3.4h.1v-.1c1.9-1.1 3.9-1.8 5.7-1.8 1.9 0 3.4.7 4.5 2 1.5 1.8 2 4.7 1.4 8.2-.5 3.3-2 6.7-4 9.1-2.2 2.8-5.1 4.4-7.9 4.4-2 0-3.8-.8-5.1-2.4-.1-.2-.3-.4-.4-.5l-.1-.2z" class="st0"/></g></g></svg>