<?xml version="1.0" encoding="utf-8"?>
<!-- Generator: Adobe Illustrator 19.0.0, SVG Export Plug-In . SVG Version: 6.00 Build 0)  -->
<svg version="1.1" id="Layer_1" xmlns="http://www.w3.org/2000/svg" xmlns:xlink="http://www.w3.org/1999/xlink" x="0px" y="0px"
	 viewBox="0 0 32 32" style="enable-background:new 0 0 32 32;" xml:space="preserve">
<style type="text/css">
	.st0{fill:#008080;}
</style>
<path id="XMLID_2_" class="st0" d="M31.5,13.5c-0.5-3.1-1.9-5.3-3.9-6.2c-1.6-0.7-3.4-0.6-5.4,0.4c-1.7-2.3-3.7-3.5-5.8-3.5
	c-2.4,0-4.7,1.6-6.5,4.5c0,0.1-0.1,0.1-0.1,0.2C8,7.8,6.2,7.6,4.6,8.2c-1.9,0.8-3.3,2.8-4,5.7c-0.5,2.6-0.4,5.5,0.5,8
	C2,24.3,3.5,26.1,5.4,27c0.9,0.4,1.9,0.7,2.9,0.7c1,0,1.9-0.2,2.9-0.6c0.3-0.1,0.6-0.2,0.8-0.4c1.3,0.7,2.8,1.1,4.4,1.1
	c1.2,0,2.4-0.2,3.5-0.7c1.1,0.4,2.1,0.7,3.2,0.7c1,0,1.9-0.2,2.8-0.6c2.1-0.9,3.7-2.7,4.7-5.3C31.7,19.4,32,16.3,31.5,13.5z
	 M6.1,25.4c-1.5-0.7-2.6-2.1-3.3-4.1c-0.7-2.1-0.9-4.8-0.4-7c0.5-2.2,1.5-3.8,2.9-4.4C6.3,9.4,7.6,9.6,9,10.5
	c-1,2.3-1.6,4.8-1.6,7.3c0,3.1,0.9,5.7,2.6,7.5c0.1,0.1,0.2,0.2,0.3,0.3C8.9,26.1,7.4,26,6.1,25.4z M11.3,24
	c-1.4-1.5-2.1-3.6-2.1-6.2c0-2.8,0.8-5.8,2.3-8.1c1.4-2.4,3.3-3.7,5.1-3.7s3.6,1.3,5.1,3.7c1.4,2.3,2.3,5.4,2.3,8.1
	c0,2.6-0.7,4.7-2.1,6.2c-1.3,1.4-3.1,2.1-5.2,2.1S12.6,25.3,11.3,24z M29.1,21.3c-0.8,2.1-2.1,3.6-3.8,4.3c-1,0.4-2.1,0.5-3.3,0.3
	c0.3-0.2,0.5-0.4,0.8-0.7c1.7-1.8,2.6-4.4,2.6-7.5c0-2.9-0.8-6-2.2-8.6c1.4-0.6,2.7-0.7,3.7-0.2c1.4,0.7,2.5,2.4,2.9,4.9
	C30.3,16.3,30,19.1,29.1,21.3L29.1,21.3z"/>
</svg>
