<svg xmlns="http://www.w3.org/2000/svg" id="Layer_1" viewBox="0 0 32 32"><style>.st0{fill:#008080;} .st1{fill:#FFFFFF;} .st2{font-family:&apos;CenturySchoolbook-Bold&apos;;} .st3{font-size:4.2653px;}</style><g id="XMLID_2_"><path id="XMLID_5_" d="M21.6 14c.5 0 1 0 1.4-.2 1.7-.5 3.3-2 5-4.3.8-1 1-2.4.6-3.5-.4-1-1.4-2-2.8-2.4-1.4-.4-3-.4-4.5 0S18.5 5 17.7 6c-1.7 2.4-2.3 4-2 5.3l.7 1-.7 1-4-1.2h-.4l-.3.3-5.8 8.2v.5l4.4 1.4-4.6 7c-.6.8-.2 1.8.8 2 .5.3 1 .2 1.7 0 .5 0 1-.4 1.3-.8l5-6.8 4.4 1.4h.4s.2 0 .3-.2l5.7-8.2c0-.2 0-.4-.2-.5l-3-1-1-.3 1-1zm-4.8-3c-.3-1 .2-2.6 1.8-4.7.7-1 1.7-1.7 3-2 1.3-.5 2.6-.5 3.7 0 1 .3 2 1 2.3 2s.2 2-.5 2.8c-1.4 2.3-3 3.6-4.3 4-1.2.4-2.4 0-3.4-.3-.7-.2-1.4-.5-1.8-.8l-.7-1zm.4 1.8l1.6.7 1.7.4-.6.7-3.4-1 .6-1zm-9 17.6c-.3.4-1 .7-1.6.5-.5-.3-.7-.8-.4-1.2l4.6-7 2.6.8-5.2 6.8z" class="st0"/><path id="XMLID_4_" d="M19 10h.2c0-.3 0-.6-.2-.6h-.4s-.3 0-.3.2 0 .5.2.5h.4z" class="st0"/><path id="XMLID_3_" d="M19 10.6c0 .2-.2.4 0 .6 0 0 .4.2.6 0h.2c.2-.2.3-.4 0-.6 0 0-.3-.2-.5 0H19z" class="st0"/></g><text id="XMLID_1_" transform="matrix(.906 .2912 -.3443 .939 8.468 17.71)" class="st1 st2 st3">NEWS</text></svg>