<svg xmlns="http://www.w3.org/2000/svg" id="Layer_1" viewBox="0 0 32 32"><style>.st0{fill:#008080;}</style><path d="M26 8.6c0 5.3-5.3 9-5.3 13h-3c0-2.6 1.5-4.8 3-7 1.2-2 2.5-4 2.5-6 0-4-3.6-6.2-7.2-6.2s-7.2 2-7.2 6c0 2.2 1.2 4.2 2.6 6.2 1.4 2.2 2.8 4.4 2.8 7h-3c0-4-5.3-7.7-5.3-13C6 3 11 0 16 0s10 3 10 8.6zm-5.7 15c0 .5-.3.7-.7.7h-7.2c-.4 0-.7-.3-.7-.6 0-.4.3-.6.7-.6h7.2c.4 0 .7.3.7.7zm0 2.6c0 .4-.3.6-.7.6h-7.2c-.4 0-.7-.3-.7-.6 0-.4.3-.6.7-.6h7.2c.4 0 .7.3.7.6zm-2.4 4c-.4.4-.8.5-1.2.5h-1.6c-.4 0-.8-.2-1-.4l-2.2-2h8l-2 2zm-1.5-18.7h-1v-1.3h1v1.3zm1.4 0h-.7v-1.3h1.2l-.6 1.3zm-3.8 0l-.6-1.3h1.2v1.3h-.6zm6-1.3C18 15 17 16.7 17 21.7h-2c0-5-1-6.8-3.3-11.5h1c1.8 3.6 3 5 3.3 9 .3-4 1.5-5.3 3.2-9h1z" class="st0"/></svg>