<svg xmlns="http://www.w3.org/2000/svg" id="Layer_1" viewBox="0 0 32 32"><style>.st0{fill:#008080;}</style><g id="XMLID_2_"><g id="XMLID_3_"><g id="XMLID_4_"><path id="XMLID_28_" d="M6.7 1.4L4 4v2.1H1.2v6.6H4v7.6H1.2V24H4v6.6h26.8V1.4H6.7zM2.1 11.8V7h5.7v4.7H2.1zm0 11.3v-1.9h5.7v1.9H2.1zm27.8 6.6H5V24h3.8v-1.4h1v-.9h-1v-1.4H5v-7.6h3.8v-.9h1v-.9h-1V8h1V7h-1v-.9H5V4.4l2.1-2.1h22.8v27.4z" class="st0"/><path id="XMLID_25_" d="M19.4 27.8h6.7v-.9h1V26h-1v-1h1v-1h-1v-.9h1v-.9h-1v-.9h1v-.9h-1v-.9h1v-.9h-1v-.9h1v-.9h-1v-.9h1V15h-1v-.9h1v-.9h-1v-.9h1v-.9h-1V9.9h1v-1h-1V8h1V7h-1v-.9h1v-1h-1v-.9h-6.7v.9h-1V6h1v1h-1v1h1v.9h-1v.9h1v.9h-1v.9h1v.9h-1v.9h1v.9h-1v.9h1v.9h-1v.9h1v.9h-1v.9h1v.9h-1v.9h1v.9h-1v.9h1V24h-1v1h1v.9h-1v.9h1v1zm.9-22.7h4.8v21.7h-4.8V5.1z" class="st0"/><ellipse id="XMLID_24_" cx="22.7" cy="6.6" class="st0" rx=".5" ry=".5"/><path id="XMLID_21_" d="M16.5 5.1h-3.8V8h3.8V5.1zm-1 1.9h-1.9v-.9h1.9V7z" class="st0"/><path id="XMLID_18_" d="M16.5 9.9h-3.8v2.8h3.8V9.9zm-1 1.9h-1.9v-.9h1.9v.9z" class="st0"/><path id="XMLID_15_" d="M9.8 14.1v.9h-1v-.9h-1v.9h-1v2.8h1v.9h1v-.9h1v.9h1v-.9h1v.9h1v-.9h1V15h-1v-.9h-1v.9h-1v-.9h-1zm2.8 1.9v.9H7.9V16h4.7z" class="st0"/><path id="XMLID_12_" d="M7.9 25c-1.1 0-1.9.8-1.9 1.9s.9 1.9 1.9 1.9 1.9-.8 1.9-1.9S8.9 25 7.9 25zm0 2.8c-.5 0-1-.4-1-.9s.4-.9 1-.9c.5 0 1 .4 1 .9-.1.5-.5.9-1 .9z" class="st0"/><path id="XMLID_9_" d="M12.6 25c-1.1 0-1.9.8-1.9 1.9s.9 1.9 1.9 1.9 1.9-.8 1.9-1.9-.8-1.9-1.9-1.9zm0 2.8c-.5 0-1-.4-1-.9s.4-.9 1-.9c.5 0 1 .4 1 .9s-.4.9-1 .9z" class="st0"/><path id="XMLID_8_" d="M11.7 21.2h1v1.9h-1z" class="st0"/><path id="XMLID_7_" d="M13.6 21.2h1v1.9h-1z" class="st0"/><path id="XMLID_6_" d="M15.5 21.2h1v1.9h-1z" class="st0"/><ellipse id="XMLID_5_" cx="6.9" cy="4.2" class="st0" rx=".5" ry=".5"/></g></g></g></svg>