<svg xmlns="http://www.w3.org/2000/svg" id="Layer_1" viewBox="0 0 32 32">
  <style>
    .st0{fill:#008080;}
  </style>
  <g id="XMLID_2_">
    <path id="XMLID_3_" d="M10 9.8c-.3-1-1.6-1.5-2.6-1.6-.2-.1-.4.1-.4.2 0 .2.1.3.3.3.5.1 1.6.3 2 1.1.2.5 0 .7-.4.9-.3-.1-.5-.2-.8-.2-.8 0-1.3.5-1.5.8-.6 0-1.2 0-1.7-.1s-1.2-.3-1.6-.9c-.4-.3-.5-.9-.3-1.6.4-1.1 1.1-2.1 1.9-3.1.3-.4.6-.7.8-1.1.5-.8 1.1-1.7 1.3-2.7 0-.1 0-.2-.1-.2 0-.1-.1-.1-.2-.1-.2 0-.4.1-.4.3-.1.7-.5 1.4-.9 2-.3.5-.7 1-1.1 1.5-.1.2-.3.4-.4.6l-.1.1C3 7.1 2 8.5 2.2 9.9c.2 1.3 1.6 2.1 3.7 2.1 1.2 0 2.4-.3 3.3-.7.8-.3 1-.8.8-1.5z" class="st0"/>
  </g>
  <g id="XMLID_4_">
    <path id="XMLID_10_" d="M22 19.7l-6.7-.4c.1.7.1 1.3.2 1.9.2 1.9 1.5 3.3 3 3.4l3.5.2.3 2.1c.1.4.4.7.7.7l1.2.1-1-6.8c-.1-.7-.6-1.2-1.2-1.2zm-5.5.8l5.5.3c.1 0 .2.1.2.2l.4 2.7c-.1-.1-.3-.1-.4-.1l-3.5-.2c-1.1-.1-1.9-1.1-2-2.4-.2-.1-.2-.3-.2-.5z" class="st0"/>
    <path id="XMLID_7_" d="M13.5 17.1c.1.3.4.5.7.6l1 .1 7 .4c1.3.1 2.3 1.1 2.5 2.5l1 7.2 3.3.2c.2 0 .4-.1.6-.2s.2-.4.2-.6l-1.2-8.5c1.4-1.3 2.4-3.2 2.5-5.3.3-4.3-.8-8.5-8-8.9-4.3-.3-7.2 3.6-7.8 8.7l-1.6 3c-.3.1-.4.4-.2.8zm1.8-.6h-.7l1.5-2.8c.1-.1.1-.3.1-.5.3-2.3 1.1-4.3 2.2-5.7 1.2-1.4 2.7-2.1 4.4-2 1.6.1 2.9.4 3.9.9.9.4 1.5 1 2 1.7.8 1.2 1.1 2.9 1 5.1-.1 1.7-.9 3.3-2.1 4.5-.3.3-.4.7-.4 1.1l1.2 7.9-1.9-.1-.9-6.2c-.3-1.9-1.7-3.4-3.5-3.5l-6.8-.4z" class="st0"/>
    <path id="XMLID_6_" d="M27 7.8c-.2.2-.2.5 0 .7.1.1 1.3 1.2 1.1 3.1 0 .3.2.6.4.6.3 0 .5-.2.5-.5.2-2.5-1.4-4-1.5-4-.1-.1-.2-.1-.3-.1 0 0-.1 0-.2.2z" class="st0"/>
    <ellipse id="XMLID_5_" cx="26.1" cy="7.3" transform="rotate(3.442 26.136 7.305)" class="st0" rx=".5" ry=".5"/>
  </g>
  <g id="XMLID_16_">
    <g id="XMLID_17_">
      <path id="XMLID_18_" d="M6.6 14.5c-3 0-5.4 2.6-5.4 5.9 0 .4.3.6.6.6s.6-.3.6-.6c0-2.5 1.9-4.6 4.2-4.6s4.2 2.1 4.2 4.6c0 1.7-.7 2.4-1.4 3.2-.8.9-1.8 1.8-1.8 4 0 1.2-.9 2.1-2 2.1s-2-.9-2-2.1c0-.4-.3-.6-.6-.6s-.6.3-.6.6C2.6 29.5 4 31 5.8 31s3.1-1.5 3.1-3.4c0-1.6.6-2.3 1.4-3.1.8-.9 1.8-1.9 1.8-4.1 0-3.2-2.5-5.9-5.5-5.9z" class="st0"/>
    </g>
  </g>
  <g id="XMLID_13_">
    <g id="XMLID_14_">
      <path id="XMLID_15_" d="M6.6 17.7c-1.5 0-2.8 1.3-2.8 2.8v.8h-.1c-.2 0-.4.2-.3.4 0 .2.2.4.4.3.3 0 .6 0 .8.2.6.4.9 1.2.5 1.9s-1.2.9-1.8.5c-.2-.1-.4 0-.5.1-.1.2 0 .4.1.5.3.2.7.3 1.1.3.7 0 1.4-.4 1.8-1.1.3-.4.3-.9.2-1.5-.1-.6-.5-1-1-1.3-.1-.1-.3-.2-.5-.2v-.9c0-1.1.9-2.1 2-2.1s2 .9 2 2.1c0 .2.2.4.4.4s.4-.2.4-.4c.1-1.6-1.2-2.8-2.7-2.8z" class="st0"/>
    </g>
  </g>
</svg>
