<svg xmlns="http://www.w3.org/2000/svg" id="Layer_1" viewBox="0 0 32 32"><style>.st0{fill:#008080;}</style><g id="XMLID_2_"><path id="XMLID_17_" d="M31.8 29.5l-3.3-3c1-1 1.6-2.3 1.6-3.7 0-3-2.6-5.4-6-5.4s-6 2.4-6 5.4 2.8 5.4 6 5.4c1.5 0 2.7-.4 3.7-1l3.3 3 .4.2h.4c.3-.3.3-.7 0-1zm-12.6-6.7c0-2.4 2.2-4.4 5-4.4s4.8 2 4.8 4.4-2.2 4.4-5 4.4-4.8-2-4.8-4.4z" class="st0"/><path id="XMLID_13_" d="M30.3 3.5c0-.3-.2-.5-.6-.5H27V1.5c0-.3-.3-.5-.6-.5h-4c-.2 0-.4.2-.4.5V3H9.7V1.5c0-.3-.3-.5-.6-.5H5.3c-.3 0-.5.2-.5.5V3H2c-.4 0-.7.2-.7.5V8h29V3.5zm-21.7 0V5H5.8V2h2.8v1.5zm17.3 0V5h-3V2h3v1.5z" class="st0"/><path id="XMLID_3_" d="M16.4 22.8c0-3.8 3.5-7 7.7-7 2.7 0 5 1.2 6.4 3V9.5c0-.3-.2-.5-.6-.5h-28c-.2 0-.5.2-.5.5V29c0 .2.2.4.6.4h19.8c-3-1-5.4-3.5-5.4-6.6zM22 12h4.5v4H22v-4zm-5.6 0H21v4h-4.6v-4zM9.7 26H5.2v-4h4.5v4zm0-5H5.2v-4h4.5v4zm0-5H5.2v-4h4.5v4zm5.6 10h-4.5v-4h4.5v4zm0-5h-4.5v-4h4.5v4zm0-5h-4.5v-4h4.6v4z" class="st0"/></g></svg>