<svg xmlns="http://www.w3.org/2000/svg" id="Layer_1" viewBox="0 0 32 32"><style>.st0{fill:#008080;}</style><g id="XMLID_2_"><path id="XMLID_3_" d="M31 15.3c-.3-.3-6.9-7.1-15.3-7.1S.7 15.1.4 15.3c-.5.6-.5 1.4 0 2 .3.3 6.9 7.1 15.3 7.1s15-6.9 15.3-7.1c.5-.6.5-1.5 0-2zm-12.8-3.1c.6-.3 1.4 0 1.8.7.4.7.3 1.4-.3 1.7-.6.3-1.4 0-1.8-.7-.4-.6-.2-1.4.3-1.7zm-2.5 9.7c-5.9 0-10.8-4.1-12.5-5.7 1.2-1.1 3.8-3.3 7.2-4.6-.7.9-1.1 2-1.1 3.2 0 3.2 2.9 5.8 6.4 5.8s6.4-2.6 6.4-5.8c0-1.2-.4-2.3-1.1-3.2 3.4 1.3 6 3.5 7.2 4.6-1.7 1.6-6.6 5.7-12.5 5.7z" class="st0"/></g></svg>