<svg xmlns="http://www.w3.org/2000/svg" id="Layer_1" viewBox="0 0 32 32"><style>.st0{fill:#008080;}</style><g id="XMLID_2_"><g id="XMLID_3_"><g id="XMLID_4_"><path id="XMLID_9_" d="M31.9.2c-.2-.3-.7-.3-1-.1l-3.4 2.6c-.2.1-.3.3-.3.5v3.3h-.7c-.4 0-.7.3-.7.7v9.2c0 .8.6 1.6 1.3 1.9-.1 1-.6 1.6-1.7 2.1s-2.9.7-5.8.7v-6.6c0-2-1.5-3.6-3.4-3.9V9.2h.8c.4 0 .7-.3.7-.7 0-.4-.3-.7-.7-.7h-2.7c-.4 0-.7.3-.7.7 0 .4.3.7.7.7h.7v1.4c-1.9.3-3.4 1.9-3.4 3.9v6.6h-1.4v-6.6c0-2-1.5-3.6-3.4-3.9V9.2h.7c.4 0 .7-.3.7-.7 0-.4-.3-.7-.7-.7H4.7c-.3.1-.7.4-.7.8s.3.7.7.7h.7v1.4c-1.9.2-3.4 1.8-3.4 3.8V31c0 .4.3.7.7.7h6.8c.4 0 .7-.3.7-.7v-8.6h1.4V31c0 .4.3.7.7.7H19c.4 0 .7-.3.7-.7v-8.6c3.1 0 5-.3 6.3-.8 1.5-.6 2.4-1.7 2.5-3.3.8-.3 1.4-1 1.4-1.9v-5.9c.4 0 .7-.3.7-.7V8.6c0-.4-.3-.7-.7-.7v-.7c0-.4-.3-.7-.7-.7h-.7v-3l3.2-2.4c.3-.2.4-.6.2-.9zM8.8 30.3H3.4V14.5c0-1.5 1.2-2.6 2.7-2.6 1.5 0 2.7 1.2 2.7 2.6v15.8zm9.6 0h-5.5V14.5c0-1.5 1.2-2.6 2.7-2.6 1.5 0 2.7 1.2 2.7 2.6v15.8zm9.5-13.2c-.4 0-.7-.3-.7-.7h1.4c0 .4-.3.7-.7.7zm.7-2h-1.4V7.9h1.4v7.2z" class="st0"/><path id="XMLID_8_" d="M6.1 12.5c-.8 0-2.1.5-2.1 2V29c0 .4.3.7.7.7.4 0 .7-.3.7-.7V14.5c0-.4.1-.5.3-.5.2-.1.3-.1.4-.1.4 0 .7-.3.7-.7 0-.4-.3-.7-.7-.7z" class="st0"/><path id="XMLID_5_" d="M15.6 12.5c-.8 0-2.1.5-2.1 2V29c0 .4.3.7.7.7.4 0 .7-.3.7-.7V14.5c0-.4.1-.5.3-.5.2-.1.3-.1.4-.1.4 0 .7-.3.7-.7 0-.4-.3-.7-.7-.7zm0 1.3z" class="st0"/></g></g></g></svg>