<svg xmlns="http://www.w3.org/2000/svg" id="Layer_1" viewBox="0 0 32 32">
  <style>
    .st0{fill:#008080;}
  </style>
  <path id="XMLID_9_" d="M31.9.2c-.2-.3-.7-.3-1-.1l-3.6 2.6c-.2.1-.3.3-.3.5v3.3h-.7c-.4 0-.7.3-.7.7v9.2c0 .8.6 1.6 1.4 1.9-.1 1-.6 1.6-1.8 2.1s-3 .7-6.1.7v-6.6c0-2-1.6-3.6-3.6-3.9V9.2h.8c.4 0 .7-.3.7-.7s-.3-.7-.7-.7h-2.8c-.4 0-.7.3-.7.7s.3.7.7.7h.7v1.4c-2 .3-3.6 1.9-3.6 3.9v6.6H9.2v-6.6c0-2-1.6-3.6-3.6-3.9V9.2h.7c.4 0 .7-.3.7-.7s-.2-.7-.7-.7H3.4c-.3.1-.7.4-.7.8s.3.7.7.7h.7v1.4c-2 .2-3.6 1.8-3.6 3.8V31c0 .4.3.7.7.7h7.1c.4 0 .7-.3.7-.7v-8.6h1.5V31c0 .4.3.7.7.7h7c.4 0 .7-.3.7-.7v-8.6c3.2 0 5.2-.3 6.6-.8 1.6-.6 2.5-1.7 2.6-3.3.8-.3 1.5-1 1.5-1.9v-5.9c.4 0 .7-.3.7-.7V8.6c0-.4-.3-.7-.7-.7v-.7c0-.4-.3-.7-.7-.7h-.7v-3l3.4-2.4c.4-.2.5-.6.3-.9zM7.7 30.3H2V14.5c0-1.5 1.3-2.6 2.8-2.6s2.8 1.2 2.8 2.6v15.8zm10.1 0H12V14.5c0-1.5 1.3-2.6 2.8-2.6s2.8 1.2 2.8 2.6v15.8h.2zm9.9-13.2c-.4 0-.7-.3-.7-.7h1.5c-.1.4-.4.7-.8.7zm.7-2H27V7.9h1.5c-.1 0-.1 7.2-.1 7.2z" class="st0"/>
</svg>
