<svg xmlns="http://www.w3.org/2000/svg" id="Layer_1" viewBox="0 0 32 32"><style>.st0{fill:none;stroke:#008080;stroke-width:0.7;stroke-miterlimit:10;}</style><g id="XMLID_2_"><g id="XMLID_3_"><path id="XMLID_7_" d="M18.8 15.6c1.4 1.8 2.2 4 2.2 6.5v.5h-.8c.1.3.2.6.2.9 0 .3-.1.7-.2.9h.8v.5c0 1.8-.4 3-1.2 3.9v.5H29l1.5-20.7h.8V6.9h-6.2c0-3.3-2.3-5.9-5.5-6-.7 0-.7 1.1 0 1.1 2.7 0 4.5 2.2 4.4 4.8h-6.7v1.8h.8l.7 7z" class="st0"/><path id="XMLID_6_" d="M19.3 22.6H2c-.2.2-.3.6-.3.9 0 .4.1.7.4.9h17.4c.2-.3.4-.6.4-.9 0-.3-.1-.7-.3-.9h-.3z" class="st0"/><path id="XMLID_5_" d="M10.8 30.8c4.1 0 7.6-.2 9-2.7.5-.8.7-1.8.7-3.1H1.1c0 5.4 4.3 5.8 9.7 5.8z" class="st0"/><path id="XMLID_4_" d="M2.2 22.1h18.2c0-2-.6-3.9-1.6-5.5-1.7-2.7-4.7-4.5-8.1-4.5C5.3 12.1 1 16.6 1 22h1.2z" class="st0"/></g></g></svg>