<?xml version="1.0" encoding="utf-8"?>
<!-- Generator: Adobe Illustrator 19.0.0, SVG Export Plug-In . SVG Version: 6.00 Build 0)  -->
<svg version="1.1" id="Layer_1" xmlns="http://www.w3.org/2000/svg" xmlns:xlink="http://www.w3.org/1999/xlink" x="0px" y="0px"
	 viewBox="0 0 32 32" style="enable-background:new 0 0 32 32;" xml:space="preserve">
<style type="text/css">
	.st0{fill:#008082;}
</style>
<g id="XMLID_2_">
	<g id="XMLID_3_">
		<g id="XMLID_4_">
			<path id="XMLID_18_" class="st0" d="M29.3,10h-6.8l-0.9-6.7l-4.7-2.1l-0.3,0.9L20.8,4l0.8,6h-6.7v3.4H5c-2,0-3.6,1.7-3.6,3.9v1.9
				h14.4l0,0.5h-12c-1.4,0-2.5,1.2-2.5,2.7s1.1,2.7,2.5,2.7h12.4l0,0.5H1.4v1.9c0,2.1,1.6,3.9,3.6,3.9h11.7h0.4h10.3l1.3-17.5h0.5
				L29.3,10L29.3,10z M2.3,18.2v-1c0-1.6,1.2-2.9,2.7-2.9h10.4l0.3,3.9H2.3z M3.8,24.1L3.8,24.1c-0.9,0-1.6-0.8-1.6-1.7
				s0.7-1.7,1.6-1.7h12l0.1,1.9h0c-0.3,0-0.5-0.1-0.7-0.4L15.2,22c-0.3-0.5-0.9-0.8-1.4-0.8c-0.6,0-1.1,0.3-1.4,0.8l-0.2,0.2
				c-0.2,0.2-0.4,0.4-0.7,0.4c-0.3,0-0.5-0.1-0.7-0.4L10.7,22c-0.3-0.5-0.9-0.8-1.4-0.8c-0.6,0-1.1,0.3-1.4,0.8l-0.2,0.2
				c-0.2,0.2-0.4,0.4-0.7,0.4c-0.3,0-0.5-0.1-0.7-0.4L6.2,22c-0.3-0.5-0.9-0.8-1.4-0.8H4.1v1h0.7c0.3,0,0.5,0.1,0.7,0.4l0.2,0.2
				c0.3,0.5,0.9,0.8,1.4,0.8s1.1-0.3,1.4-0.8l0.2-0.2c0.2-0.2,0.4-0.4,0.7-0.4c0.3,0,0.5,0.1,0.7,0.4l0.2,0.2
				c0.3,0.5,0.9,0.8,1.4,0.8c0.6,0,1.1-0.3,1.4-0.8l0.2-0.2c0.2-0.2,0.4-0.4,0.7-0.4c0.3,0,0.5,0.1,0.7,0.4l0.2,0.2
				c0.3,0.5,0.9,0.8,1.4,0.8h0.1l0,0.5L3.8,24.1L3.8,24.1z M5,30.4c-1.5,0-2.7-1.3-2.7-2.9v-1h14.1l0.3,3.9H5z M26.6,30.4h-9.1
				L17,24.1h10L26.6,30.4z M27.2,23.1H17l-0.5-6.3h11.2L27.2,23.1z M27.7,15.8H16.4l-0.1-1.9h11.6L27.7,15.8z M28.4,12.9H15.8v-1.9
				h12.6V12.9z"/>
			<ellipse id="XMLID_17_" class="st0" cx="5" cy="16.8" rx="0.4" ry="0.5"/>
			<ellipse id="XMLID_16_" class="st0" cx="7.7" cy="15.8" rx="0.4" ry="0.5"/>
			<ellipse id="XMLID_15_" class="st0" cx="9" cy="17.3" rx="0.4" ry="0.5"/>
			<ellipse id="XMLID_14_" class="st0" cx="11.7" cy="16.8" rx="0.4" ry="0.5"/>
			<ellipse id="XMLID_13_" class="st0" cx="13.1" cy="15.3" rx="0.4" ry="0.5"/>
			<ellipse id="XMLID_12_" class="st0" cx="14.4" cy="16.3" rx="0.4" ry="0.5"/>
			<ellipse id="XMLID_11_" class="st0" cx="4.5" cy="28" rx="0.4" ry="0.5"/>
			<ellipse id="XMLID_10_" class="st0" cx="5.9" cy="29" rx="0.4" ry="0.5"/>
			<ellipse id="XMLID_9_" class="st0" cx="7.2" cy="27.5" rx="0.4" ry="0.5"/>
			<ellipse id="XMLID_8_" class="st0" cx="9.5" cy="29.4" rx="0.4" ry="0.5"/>
			<ellipse id="XMLID_7_" class="st0" cx="11.3" cy="28" rx="0.4" ry="0.5"/>
			<ellipse id="XMLID_6_" class="st0" cx="13.5" cy="29" rx="0.4" ry="0.5"/>
			<ellipse id="XMLID_5_" class="st0" cx="14.9" cy="28" rx="0.4" ry="0.5"/>
		</g>
	</g>
</g>
</svg>
