<?xml version="1.0" encoding="utf-8"?>
<!-- Generator: Adobe Illustrator 19.0.0, SVG Export Plug-In . SVG Version: 6.00 Build 0)  -->
<svg version="1.1" id="Layer_1" xmlns="http://www.w3.org/2000/svg" xmlns:xlink="http://www.w3.org/1999/xlink" x="0px" y="0px"
	 viewBox="0 0 32 32" style="enable-background:new 0 0 32 32;" xml:space="preserve">
<style type="text/css">
	.st0{fill:none;stroke:#008080;stroke-miterlimit:10;}
</style>
<g id="XMLID_2_">
	<path id="XMLID_7_" class="st0" d="M2.1,22.2h15.2c0.1,0,0.2-0.1,0.3-0.2c0.1-0.1,0.1-0.2,0.1-0.4c-0.3-3.8-3.7-6.8-8-6.8
		s-7.7,3-8,6.8c0,0.1,0,0.3,0.1,0.4C1.9,22.1,2,22.2,2.1,22.2z"/>
	<path id="XMLID_6_" class="st0" d="M17.3,26.8H2.1c-0.1,0-0.2,0.1-0.3,0.2c-0.1,0.1-0.1,0.2-0.1,0.4c0.1,1,0.4,2,0.9,2.9
		c0.3,0.6,0.8,0.9,1.4,0.9h11.4c0.5,0,1.1-0.3,1.4-0.9c0.5-0.9,0.8-1.9,0.9-2.9c0-0.1,0-0.3-0.1-0.4S17.4,26.8,17.3,26.8z"/>
	<path id="XMLID_5_" class="st0" d="M17.1,23.3H2.3c-0.5,0-1,0.5-1,1.2c0,0.7,0.4,1.2,1,1.2h14.8c0.5,0,1-0.5,1-1.2
		C18,23.8,17.6,23.3,17.1,23.3z"/>
	<path id="XMLID_4_" class="st0" d="M29.7,11.4c-0.1,0-0.2-0.2-0.1-0.3c0.1-0.2,0.1-0.4,0.1-0.6c0-0.7-0.5-1.2-1-1.2h-4L25,3.6
		l3.4,1.8c0.5,0.3,1.1,0,1.3-0.7c0.2-0.6-0.1-1.3-0.5-1.5l-4.6-2.5c-0.3-0.2-0.6-0.1-0.9,0.1c-0.3,0.2-0.4,0.6-0.5,0.9l-0.4,7.4
		h-4.1c-0.5,0-1,0.5-1,1.2c0,0.2,0.1,0.4,0.1,0.6c0.1,0.1,0,0.3-0.1,0.3c-0.5,0-1,0.5-1,1.2c0,0.6,0.3,1.2,0.7,1.2
		c3.6,0,8.9,0,12.4,0c0.4,0,0.7-0.6,0.7-1.2C30.6,11.9,30.2,11.4,29.7,11.4z"/>
	<path id="XMLID_3_" class="st0" d="M19.6,30.1c0.1,0.6,0.4,1,0.9,1h6.4c0.4,0,0.8-0.4,0.9-1l1.4-15.3H18.1L19.6,30.1z"/>
</g>
</svg>
