<?xml version="1.0" encoding="utf-8"?>
<!-- Generator: Adobe Illustrator 19.0.0, SVG Export Plug-In . SVG Version: 6.00 Build 0)  -->
<svg version="1.1" id="Layer_1" xmlns="http://www.w3.org/2000/svg" xmlns:xlink="http://www.w3.org/1999/xlink" x="0px" y="0px"
	 viewBox="0 0 32 32" style="enable-background:new 0 0 32 32;" xml:space="preserve">
<style type="text/css">
	.st0{fill:#008080;}
</style>
<g id="XMLID_5_">
	<g id="XMLID_6_">
		<path id="XMLID_7_" class="st0" d="M19.5,16.3h-0.1V16c3.3,0,4.9-1.4,4.9-1.4c0.1-0.1,0.1-0.2,0.1-0.3c0-0.1-0.1-0.2-0.3-0.3
			c-1.4-0.5-2.1-2.6-2.1-2.8c0.2-0.6,0.3-1.2,0.3-1.8c0-1.3-0.5-2.5-1.4-3.5V1.2c0-0.2-0.2-0.4-0.4-0.4h-9.5c-0.3,0-0.4,0.2-0.4,0.4
			v4.5C9.8,6.8,9.3,8,9.3,9.3c0,0.7,0.1,1.3,0.4,1.9c-0.2,0.7-0.9,2.3-2.1,2.7c-0.1,0-0.2,0.2-0.3,0.3s0,0.3,0.1,0.3
			c0.1,0.1,1.7,1.4,4.9,1.4v0.3h-0.1c-4.4,0-8.1,3.8-8.1,8.3v6.1c0,0.2,0.2,0.4,0.4,0.4h22.4c0.3,0,0.4-0.2,0.4-0.4v-6.2
			C27.5,20.1,23.8,16.3,19.5,16.3z M23.1,14.3c-0.6,0.3-1.9,0.9-3.8,0.9v-1c0.9-0.5,1.7-1.2,2.2-2C21.8,12.8,22.3,13.8,23.1,14.3z
			 M21.4,8.9c-1.7-0.2-3.2-1.3-3.8-1.9c0.4-0.2,0.7-0.5,1.1-0.8h1.5C20.9,6.9,21.3,7.8,21.4,8.9z M11.5,1.6h8.6v3.8h-8.6V1.6z
			 M11.4,6.2h5.9c-2.4,1.6-5.9,2.3-7.1,2.5C10.4,7.8,10.7,6.9,11.4,6.2z M12.4,15.2c-1.9,0-3.2-0.5-3.8-0.9c0.8-0.5,1.3-1.4,1.7-2.1
			c0.5,0.8,1.3,1.5,2.2,2V15.2z M10.2,9.5c0.9-0.2,4-0.8,6.6-2.1c0.6,0.6,2.4,2.1,4.6,2.2c-0.2,2-1.7,3.8-3.8,4.4
			c-1.9,0.4-3.5,0-3.5,0C11.8,13.4,10.3,11.6,10.2,9.5z M18.4,14.5v1.9l0,0.1c-1.5,0.8-3.4,0.8-4.9,0l-0.1,0v-1.9
			c0.2,0.1,0.3,0.1,0.5,0.2c0,0,0.9,0.2,2,0.2c0.6,0,1.3,0,2-0.2c0,0,0,0,0,0C18.1,14.7,18.2,14.6,18.4,14.5z M5.1,30.3v-5.8
			c0-3.6,2.7-6.7,6-7.4v3.4c-1.9,0.2-3.5,1.7-3.5,3.4v2c0,0.2,0.2,0.4,0.4,0.4c0.3,0,0.4-0.2,0.4-0.4v-2c0-1.5,1.4-2.7,3-2.7
			c1.7,0,3,1.2,3,2.7v2c0,0.2,0.2,0.4,0.4,0.4s0.4-0.2,0.4-0.4v-2c0-1.8-1.5-3.2-3.5-3.4v-3.6c0.1,0,0.2,0,0.3,0h0.4l0.2,0.1
			c0.9,0.5,1.9,0.7,2.9,0.7c1,0,2-0.2,2.9-0.7L19,17h0.4c0,0,0.1,0,0.2,0v3.6c-0.7,0.2-1.1,0.7-1.1,1.3c0,0.8,0.7,1.4,1.6,1.4
			c0.9,0,1.6-0.6,1.6-1.4c0-0.6-0.5-1.2-1.1-1.3v-3.5c3.4,0.6,6.2,3.8,6.2,7.4v5.8H5.1z M20.1,21.4c0.4,0,0.7,0.3,0.7,0.6
			s-0.3,0.6-0.7,0.6c-0.4,0-0.7-0.3-0.7-0.6C19.4,21.7,19.7,21.4,20.1,21.4z"/>
	</g>
</g>
<g id="XMLID_2_">
	<g id="XMLID_3_">
		<path id="XMLID_4_" class="st0" d="M16.9,3.1h-0.5V2.6c0-0.2-0.2-0.4-0.4-0.4c-0.3,0-0.4,0.2-0.4,0.4v0.5h-0.5
			c-0.3,0-0.4,0.2-0.4,0.4c0,0.2,0.2,0.4,0.4,0.4h0.5v0.5c0,0.2,0.2,0.4,0.4,0.4s0.4-0.2,0.4-0.4V3.9h0.5c0.3,0,0.4-0.2,0.4-0.4
			C17.3,3.2,17.1,3.1,16.9,3.1z"/>
	</g>
</g>
</svg>
