<svg xmlns="http://www.w3.org/2000/svg" id="Layer_1" viewBox="0 0 32 32"><style>.st0{fill:#008080;}</style><path id="XMLID_2_" d="M17.8 32.3h-3.3c-.2 0-.4-.2-.4-.5V19H3c-.3 0-.5-.2-.5-.5v-14c0-.2.2-.4.4-.4h5L7 2v.6c0 .3-.3.4-.5.4H5c-.2 0-.3 0-.4-.2v-.4l.7-2c0-.3.2-.4.4-.4H7v.2l2 4h14.2l2-4s0-.2.2-.2h1.2c.2 0 .4 0 .4.3l.7 2V3c0 .2-.2.2-.3.2H26c-.3 0-.5-.2-.5-.4l-.2-.6-1 2.2h5c.3 0 .5.2.5.5v14c0 .2-.2.4-.4.4H18.2v13s-.2.3-.4.3zm-2.8-1h2.4V19H15v12.4zm2.8-13.2H29V5H3.3v13h14.4zm8.4-16h.5l-.4-1H26l.2 1zM5.6 2H6l.3-1H6l-.4 1zm22.6 15.3h-24c-.2 0-.4-.2-.4-.5V6.3c0-.3.2-.5.4-.5h24c.2 0 .4.2.4.5v10.5c0 .3-.2.5-.4.5zm-23.6-1h23V7h-23v9.6z" class="st0"/></svg>