<svg xmlns="http://www.w3.org/2000/svg" id="Layer_1" viewBox="0 0 32 32"><style>.st0{fill:none;stroke:#008080;stroke-width:0.5;stroke-miterlimit:10;}</style><g id="XMLID_2_"><g id="XMLID_3_"><path id="XMLID_9_" d="M13.7 3.5l.3-.2 1-.7c-1.3-1-3-1-3-1l.6 1.4 1 .5z" class="st0"/><path id="XMLID_8_" d="M15.2 4l.5.4c1-.7 2-1 3-1.5 0-.5.3-1 .6-1.5-1.2 0-3.4.7-5 2l1 .6z" class="st0"/><path id="XMLID_4_" d="M18 23c-.2 0-.6.3-1 .6l-1 1v-8.2c1.2 1 4.2.6 4.2.6-.5-.5-1-1-1.5-1.2 1.7-.8 2.8-2.7 2.8-5 0-3-2-5-.2-8-2.6 0-9.3 2.7-9.3 8 0 2 .8 3.5 2 4.4-.3 0-.6 0-1 .3-1-1-1.8-2.8-1.8-4.6 0-3.2 2-5.3 3.7-6.5-2-1-4-1.6-5.2-1.6 1.7 2.8-.2 5-.2 8 0 2 1.2 4 2.8 4.8L11 17s2.8.3 4-.6v9.2c-.3-.5-.6-1-1-1.2l-1-.6-.8-.2c-.7 0-1.4.3-2 .6.2.4.5.8.8 1 .5.7 1.2 1.2 2 1.4.6.2 1.3.3 2 0v3.8h1.2V26c.7 0 1.4 0 2-.2.8-.2 1.5-.7 2-1.3.3-.4.6-.8 1-1-.8-.4-1.5-.7-2.2-.7-.3 0-.6 0-1 .2zm-3.5 3.2c-.2 0-.4-.3-.6-.4-.3 0-.5-.2-.7-.3l-1-.4.4.2c.7 0 1.8.6 2.2.8v.6c-.2 0-.3-.2-.5-.4zm3.3-1.5l-.6.3c-.2 0-.4.2-.6.4-.2 0-.3.2-.5.4v-.6c.6-.2 1.7-.7 2.3-.8h.5c-.3 0-.6 0-1 .3z" class="st0"/></g></g></svg>