<svg xmlns="http://www.w3.org/2000/svg" id="Layer_1" viewBox="0 0 32 32">
  <style>
    .st0{fill:#008080;}
  </style>
  <g id="XMLID_2_">
    <path id="XMLID_3_" d="M31.5 20.7c0-.2-.1-.3-.2-.4 0 0-.1-.1-.2-.1-.2-3.1-2.4-3.3-5-3.6-.8-.1-1.7-.2-2.6-.4-3.3-.6-4.4-2-4.7-2.4 0-.3.1-.5.1-.6 0-.2 0-.4-.1-.5-.1-.2-3.2-3.9-4.8-4.6-1-.4-1.8.5-2.8 1.7-.8.9-1.7 2-3 2.9-2.8 1.7-6-1.9-6-1.9-.1-.1-.2-.1-.3-.1-.1 0-.2.1-.2.3C0 15.4.5 18.5 1 20c-.1 0-.1.1-.2.1-.1.1-.1.2-.1.4v3.8c0 .3.2.5.4.5h7.8c.2 0 .4-.2.4-.5v-.5c.5.1 1.5.3 2.5.6 1.4.5 3 .9 4 1.1.2.1.4.1.5.1.6.2 2 .3 3.7.3 2.4 0 6-.3 9.3-1.9.1 0 2.3-.8 2.2-3.3zm-6.2-2.4c.1-.3.1-.6.1-.8.2 0 .5.1.7.1 2.9.3 4.3.6 4.4 2.9-1.4.7-5.5 2.7-10.4 2.7-1.7 0-3.3-.2-4.9-.7-.2-.1-.4-.1-.6-.2.9-2 3.3-2 5.6-2h1.2c2.6 0 3.6-.5 3.9-2zm-1.9-1.1c.4.1.9.1 1.3.2 0 .2 0 .4-.1.6-.1.7-.5 1.3-3.4 1.3H20c-2.5 0-5.3 0-6.3 2.8-2.2-.6-3.7-1-5.1-1.2.4-1.2 1-2 1.8-2.5 2.6-1.7 6.6.5 6.7.5.1.1.3 0 .4-.2.4-.8.8-2.4 1.1-3.7.7.6 2 1.7 4.8 2.2zm-9.6-8s.1 0 .1.1l-.2.4c-.1.2-.1.5 0 .7.1.1.1.1.2.1s.2-.1.3-.2l.4-.6c.2.1.4.3.6.5l-.3.6c-.1.2-.1.5.1.7.1.1.1.1.2.1s.2-.1.3-.2l.4-.6.5.5-.4.5c-.1.2-.1.5.1.7.1.1.1.1.2.1s.2-.1.3-.2l.3-.6c.2.2.3.4.5.6l-.3.6c-.1.2-.1.5.1.7.1.1.1.1.2.1s.2-.1.3-.2l.3-.6.3.3c-.2 1.1-.6 3.4-1.1 4.4-.1-.1-.3-.1-.5-.2.7-2.3-.2-4-.8-4.6l-3.1-3.3c.3-.4.6-.6 1-.4zM2.1 12c.7.7 2.5 2.2 4.5 2.2.6 0 1.3-.2 1.9-.5 1.4-.9 2.4-2.1 3.2-3 .1-.2.3-.3.4-.5l3.3 3.5c.1.1 1.3 1.3.5 3.5-1.5-.5-3.9-1-5.7.2-1 .7-1.8 1.8-2.2 3.3-.4-.1-.8-.1-1.3-.1-1.5-.1-3.8-.4-4.9-.5-.3-.8-1.2-3.7.3-8.1zM29 23.1s-.1 0 0 0c-3.4 1.6-7.1 1.8-9.1 1.8-1.6 0-3-.2-3.5-.3-.1 0-.3-.1-.5-.1-1-.2-2.6-.7-4-1.1-1.4-.4-2.9-.7-2.9-.7s-.2 0-.3.1c-.1.1-.1.2-.1.4v.6H1.4V21c1 .1 3.5.4 5.2.6 2.4.2 4.2.7 8.4 1.9 1.6.5 3.3.7 5 .7 4.9 0 9.1-1.9 10.6-2.7-.3 1.1-1.6 1.6-1.6 1.6z" class="st0"/>
  </g>
</svg>
