<svg xmlns="http://www.w3.org/2000/svg" id="Layer_1" viewBox="0 0 32 32"><style>.st0{fill:#008080;}</style><g id="XMLID_2_"><path id="XMLID_6_" d="M23.4 18.9V.8c0-.3-.3-.5-.6-.5h-14c-.3 0-.6.2-.6.5v18.1c0 .3.2.5.5.5v.4c-.3 0-.5.2-.5.5v10.6c0 .3.3.5.6.5h.5c.1.2.3.4.6.4s.5-.2.6-.4h10.7c.1.2.3.4.6.4s.5-.2.6-.4h.5c.3 0 .6-.2.6-.5V20.2c0-.3-.2-.5-.5-.5v-.4c.2 0 .4-.2.4-.4zm-1.1 11.4H9.5v-5.5h.1c.8 0 1.5-.6 1.5-1.3v-2.8h11.3v9.6zm-12-9.6v2.8c0 .4-.3.6-.7.6h-.1v-3.5h.8zm-.3-1v-.3h11.8v.3H10zm.3-1.3h-.8v-3.7h.1c.4 0 .7.3.7.6v3.1zm12-17.1v17.1H11v-3.1c0-.7-.7-1.3-1.5-1.3V1.3h12.8z" class="st0"/><path id="XMLID_3_" d="M15.9 4.8c.7 0 1.3-.5 1.3-1.1s-.6-1.1-1.3-1.1c-.7 0-1.3.5-1.3 1.1s.6 1.1 1.3 1.1zm0-1.5c.3 0 .5.2.5.4s-.2.4-.5.4-.5-.1-.5-.4.2-.4.5-.4z" class="st0"/></g><path id="XMLID_1_" d="M17.6 12.6l-2.9-2.8c.2-.7.1-1.4-.5-2-.5-.5-1.3-.7-2-.5l1.2 1.2.1.6-.8.9-.6-.1-1.2-1.2c-.2.6 0 1.3.5 1.8.6.5 1.4.7 2.1.5l2.9 2.7c-.2.7-.1 1.4.5 2 .5.5 1.3.7 2 .5L17.7 15l-.1-.6.9-.8.7.1 1.2 1.2c.2-.6 0-1.3-.5-1.8-.8-.6-1.6-.8-2.3-.5z" class="st0"/></svg>