<?xml version="1.0" encoding="utf-8"?>
<!-- Generator: Adobe Illustrator 19.0.0, SVG Export Plug-In . SVG Version: 6.00 Build 0)  -->
<svg version="1.1" id="Layer_1" xmlns="http://www.w3.org/2000/svg" xmlns:xlink="http://www.w3.org/1999/xlink" x="0px" y="0px"
	 viewBox="0 0 32 32" style="enable-background:new 0 0 32 32;" xml:space="preserve">
<style type="text/css">
	.st0{fill:#008080;}
</style>
<g id="XMLID_2_">
	<g id="XMLID_3_">
		<path id="XMLID_4_" class="st0" d="M31.5,1c-0.2-0.2-0.6-0.3-0.9-0.2l-6.5,2.2c-0.2,0.1-0.4,0.2-0.4,0.4l-0.5,3.8H10.7
			c-0.2,0-0.4,0.1-0.5,0.2C10.1,7.4,10,7.5,10,7.6l0.8,8.5c-0.6,0.7-0.8,1.5-0.4,2.3c0.1,0.2,0.3,0.3,0.5,0.3c0,0,0.1,0,0.1,0l0,0.4
			c-0.3,0-0.7-0.1-1.1-0.1C9.4,16.7,6.7,16,6.6,16c-0.4-0.1-0.8,0.1-0.9,0.3c-0.1,0.3,0.1,0.5,0.4,0.6c0,0,1.9,0.4,2.5,2.2
			c-1.5,0.1-3,0.5-4.2,1.1c-0.3,0.2-0.4,0.5-0.2,0.7c0.2,0.2,0.7,0.3,1,0.1c1.3-0.6,2.7-0.9,4.3-0.9c0,0,0,0,0,0c0,0,0,0,0,0
			c4.2,0,7.7,2.4,7.7,5.4s-3.4,5.4-7.7,5.4s-7.7-2.4-7.7-5.4c0-1.2,0.6-2.3,1.6-3.3c0.2-0.2,0.2-0.5-0.1-0.7c-0.3-0.2-0.7-0.1-1,0.1
			C1,22.6,0.4,24,0.4,25.4c0,3.5,4.1,6.3,9.1,6.3c1,0,1.9-0.1,2.8-0.3c0.1,0.2,0.4,0.3,0.7,0.3h12.7c0.4,0,0.7-0.2,0.7-0.5l2.2-23.7
			c0-0.1-0.1-0.3-0.2-0.4c-0.1-0.1-0.3-0.2-0.5-0.2h-3.2l0.4-3.4l6.1-2.1C31.6,1.5,31.7,1.2,31.5,1z M23.2,8.1l-0.4,3.7H11.8
			l-0.4-3.7H23.2z M12.1,16.5c0.4-0.4,1.1-0.6,1.7-0.6c0.1,0.5-0.1,0.9-0.5,1.3c-0.4,0.4-1.1,0.6-1.7,0.6
			C11.5,17.4,11.7,16.9,12.1,16.5z M25.1,28.8h-1.3c-0.4,0-0.7,0.2-0.7,0.5s0.3,0.5,0.7,0.5H25l-0.1,1H14.3c0.6-0.3,1.2-0.6,1.7-1
			c0.1,0,0.1,0,0.2,0h5.2c0.4,0,0.7-0.2,0.7-0.5s-0.3-0.5-0.7-0.5h-4.4c0.9-1,1.4-2.1,1.4-3.4c0-2.7-2.5-5.1-6-6l-0.1-0.7
			c0.8-0.1,1.5-0.4,2-0.9c0.8-0.7,1.1-1.7,0.6-2.6C15,15.2,14.8,15,14.6,15c-0.2,0-0.4,0-0.6,0c-0.6,0-1.2,0.1-1.8,0.3l-0.2-2.5
			h14.8L25.1,28.8z M27.1,8.1l-0.4,3.7h-2.6l0.4-3.7H27.1z"/>
	</g>
</g>
</svg>
