<svg xmlns="http://www.w3.org/2000/svg" id="Layer_1" viewBox="0 0 32 32"><style>.st0{fill:#008080;}</style><g id="XMLID_39_"><g id="XMLID_40_"><path id="XMLID_41_" d="M8.1 18.3c-.2 0-.3.1-.3.3v13H6.6v-13c0-.1-.1-.3-.3-.3-.2 0-.3.1-.3.3v13.3s.2.1.3.1h1.8c.2 0 .3-.1.3-.3V18.5c0-.1-.2-.2-.3-.2z" class="st0"/></g></g><g id="XMLID_36_"><g id="XMLID_37_"><path id="XMLID_38_" d="M26.3 18.5c-.2 0-.3.1-.3.3v12.8h-1.2V18.8c0-.1-.1-.3-.3-.3-.2 0-.3.1-.3.3v13c0 .1.1.3.3.3h1.8c.2 0 .3-.1.3-.3v-13c0-.2-.2-.3-.3-.3z" class="st0"/></g></g><g id="XMLID_33_"><g id="XMLID_34_"><path id="XMLID_35_" d="M8.7 7.5c-.2 0-.3.1-.3.3V16c0 .1.1.3.3.3.1 0 .3-.2.3-.3V7.8c0-.2-.2-.3-.3-.3z" class="st0"/></g></g><g id="XMLID_30_"><g id="XMLID_31_"><path id="XMLID_32_" d="M23.9 7.5c-.2 0-.3.1-.3.3V16c0 .1.1.3.3.3s.3-.1.3-.3V7.8c0-.2-.1-.3-.3-.3z" class="st0"/></g></g><g id="XMLID_25_"><g id="XMLID_26_"><path id="XMLID_27_" d="M26.6 15.8H6c-.5 0-.9.3-.9.8V18c0 .4.4.8.9.8h20.5c.5 0 .9-.3.9-.8v-1.5c0-.4-.4-.7-.8-.7zm.2 2.2c0 .1-.1.3-.3.3H6c-.2 0-.3-.1-.3-.3v-1.5c0-.1.1-.3.3-.3h20.5c.2 0 .3.1.3.3V18z" class="st0"/></g></g><g id="XMLID_20_"><g id="XMLID_21_"><path id="XMLID_22_" d="M23.3 0h-14C7.8 0 6.6 1 6.6 2.3v3.5C6.6 7 7.8 8 9.3 8h14.1C24.8 8 26 7 26 5.8V2.3C26 1 24.8 0 23.3 0zm2.1 5.8c0 1-.9 1.8-2.1 1.8h-14c-1.1 0-2.1-.8-2.1-1.8V2.3c0-1 .9-1.8 2.1-1.8h14.1c1.1 0 2.1.8 2.1 1.8v3.5z" class="st0"/></g></g><g id="XMLID_17_"><g id="XMLID_18_"><path id="XMLID_19_" d="M9.8 7.5c-.2 0-.3.1-.3.3V16c0 .1.1.3.3.3s.3-.1.3-.3V7.8c0-.2-.1-.3-.3-.3z" class="st0"/></g></g><g id="XMLID_14_"><g id="XMLID_15_"><path id="XMLID_16_" d="M22.7 7.5c-.2 0-.3.1-.3.3V16c0 .1.1.3.3.3.2 0 .3-.1.3-.3V7.8c0-.2-.1-.3-.3-.3z" class="st0"/></g></g><g id="XMLID_11_"><g id="XMLID_12_"><path id="XMLID_13_" d="M24.5 21.3H8.1c-.2 0-.3.1-.3.3s.1.3.3.3h16.4c.2 0 .3-.1.3-.3s-.1-.3-.3-.3z" class="st0"/></g></g><g id="XMLID_8_"><g id="XMLID_9_"><path id="XMLID_10_" d="M24.5 22.3H8.1c-.2 0-.3.1-.3.3s.1.3.3.3h16.4c.2 0 .3-.1.3-.3s-.1-.3-.3-.3z" class="st0"/></g></g><g id="XMLID_2_"><g id="XMLID_3_"><g id="XMLID_4_"><path id="XMLID_7_" d="M8.5 1.5c-.3.2-.4.5-.4.8v1.5c0 .1.1.2.3.2s.3-.1.3-.3V2.3c0-.1.1-.3.2-.4.1-.1.1-.3 0-.4-.1-.1-.3-.1-.4 0z" class="st0"/><path id="XMLID_6_" d="M23.3 1.3h-.9c-.2 0-.3.1-.3.3s.1.3.3.3h.9c.3 0 .6.2.6.5v.5s.1.1.3.1c.2 0 .3-.1.3-.3v-.4c0-.6-.5-1-1.2-1z" class="st0"/><path id="XMLID_5_" d="M21.3 1.3h-.9c-.2 0-.3.1-.3.3s.1.3.3.3h.9c.2 0 .3-.1.3-.3s-.2-.3-.3-.3z" class="st0"/></g></g></g></svg>