<svg xmlns="http://www.w3.org/2000/svg" id="Layer_1" viewBox="0 0 32 32">
  <style>
    .st0{fill:#008080;}
  </style>
  <g id="XMLID_39_">
    <g id="XMLID_40_">
      <path id="XMLID_41_" d="M8.1 18.3c-.2 0-.3.1-.3.3v12.6H6.6V18.6c0-.1-.1-.3-.3-.3-.2 0-.3.1-.3.3v12.9s.2.1.3.1h1.8c.2 0 .3-.1.3-.3V18.5c0-.1-.2-.2-.3-.2z" class="st0"/>
    </g>
  </g>
  <g id="XMLID_36_">
    <g id="XMLID_37_">
      <path id="XMLID_38_" d="M26.3 18.5c-.2 0-.3.1-.3.3v12.4h-1.2V18.8c0-.1-.1-.3-.3-.3-.2 0-.3.1-.3.3v12.6c0 .1.1.3.3.3h1.8c.2 0 .3-.1.3-.3V18.8c0-.2-.2-.3-.3-.3z" class="st0"/>
    </g>
  </g>
  <g id="XMLID_33_">
    <g id="XMLID_34_">
      <path id="XMLID_35_" d="M8.7 7.8c-.2 0-.3.1-.3.3v8c0 .1.1.3.3.3.1-.1.3-.3.3-.4V8c0-.1-.2-.2-.3-.2z" class="st0"/>
    </g>
  </g>
  <g id="XMLID_30_">
    <g id="XMLID_31_">
      <path id="XMLID_32_" d="M23.9 7.8c-.2 0-.3.1-.3.3v8c0 .1.1.3.3.3s.3-.1.3-.3v-8c0-.2-.1-.3-.3-.3z" class="st0"/>
    </g>
  </g>
  <g id="XMLID_25_">
    <g id="XMLID_26_">
      <path id="XMLID_27_" d="M26.6 15.9H6c-.5 0-.9.3-.9.8V18c0 .4.4.8.9.8h20.5c.5 0 .9-.3.9-.8v-1.5c0-.4-.4-.6-.8-.6zm.2 2.1c0 .1-.1.3-.3.3H6c-.2 0-.3-.1-.3-.3v-1.5c0-.1.1-.3.3-.3h20.5c.2 0 .3.1.3.3V18z" class="st0"/>
    </g>
  </g>
  <g id="XMLID_20_">
    <g id="XMLID_21_">
      <path id="XMLID_22_" d="M23.3.5h-14c-1.5 0-2.7 1-2.7 2.2v3.4c0 1.2 1.2 2.1 2.7 2.1h14.1c1.4 0 2.6-1 2.6-2.1V2.7C26 1.5 24.8.5 23.3.5zm2.1 5.6c0 1-.9 1.7-2.1 1.7h-14c-1.1 0-2.1-.8-2.1-1.7V2.7c0-1 .9-1.7 2.1-1.7h14.1c1.1 0 2.1.8 2.1 1.7v3.4h-.1z" class="st0"/>
    </g>
  </g>
  <g id="XMLID_17_">
    <g id="XMLID_18_">
      <path id="XMLID_19_" d="M9.8 7.8c-.2 0-.3.1-.3.3v8c0 .1.1.3.3.3s.3-.1.3-.3v-8c0-.2-.1-.3-.3-.3z" class="st0"/>
    </g>
  </g>
  <g id="XMLID_14_">
    <g id="XMLID_15_">
      <path id="XMLID_16_" d="M22.7 7.8c-.2 0-.3.1-.3.3v8c0 .1.1.3.3.3.2 0 .3-.1.3-.3v-8c0-.2-.1-.3-.3-.3z" class="st0"/>
    </g>
  </g>
  <g id="XMLID_11_">
    <g id="XMLID_12_">
      <path id="XMLID_13_" d="M24.5 21.2H8.1c-.2 0-.3.1-.3.3s.1.3.3.3h16.4c.2 0 .3-.1.3-.3s-.1-.3-.3-.3z" class="st0"/>
    </g>
  </g>
  <g id="XMLID_8_">
    <g id="XMLID_9_">
      <path id="XMLID_10_" d="M24.5 22.2H8.1c-.2 0-.3.1-.3.3s.1.3.3.3h16.4c.2 0 .3-.1.3-.3s-.1-.3-.3-.3z" class="st0"/>
    </g>
  </g>
  <g id="XMLID_2_">
    <g id="XMLID_3_">
      <g id="XMLID_4_">
        <path id="XMLID_7_" d="M8.5 2c-.3.2-.4.4-.4.7v1.5c0 .1.1.2.3.2s.3-.1.3-.3V2.7c0-.1.1-.3.2-.4.1-.1.1-.2 0-.3-.1-.1-.3-.1-.4 0z" class="st0"/>
        <path id="XMLID_6_" d="M23.3 1.8h-.9c-.2 0-.3.1-.3.3 0 .2.1.3.3.3h.9c.3 0 .6.2.6.5v.5s.1.1.3.1c.2 0 .3-.1.3-.3v-.5c0-.5-.5-.9-1.2-.9z" class="st0"/>
        <path id="XMLID_5_" d="M21.3 1.8h-.9c-.2 0-.3.1-.3.3 0 .2.1.3.3.3h.9c.2 0 .3-.1.3-.3 0-.2-.2-.3-.3-.3z" class="st0"/>
      </g>
    </g>
  </g>
</svg>
