<svg xmlns="http://www.w3.org/2000/svg" id="Layer_1" viewBox="0 0 32 32"><style>.st0{fill:none;stroke:#008080;stroke-width:0.7;stroke-miterlimit:10;}</style><path id="XMLID_9_" d="M30.8 19.8l-3.4-7v-1.3c1.9 0 3.4-2 3.4-4.5V5.9c0-2.5-1.5-4.5-3.4-4.5H5.2c-1.9 0-3.4 2-3.4 4.5v1.2c0 2.5 1.5 4.5 3.4 4.5v1.3l-3.4 7c-.1.2-.1.4-.1.6V27c0 1.3.8 2.4 1.8 2.4h1.7v1.4h1.2v-1.4h19.7v1.4h1.2v-1.4H29c1 0 1.8-1.1 1.8-2.4v-6.5c.1-.3.1-.5 0-.7z" class="st0"/><path id="XMLID_8_" d="M8.2 12.4V8.5c0-.6.4-1.2.9-1.2h4.5c.6 0 1.1.6 1.1 1.4v3.6c0 .8-.5 1.4-1.1 1.4H9.3c-.6.1-1.1-.6-1.1-1.3z" class="st0"/><path id="XMLID_7_" d="M15.9 12.4v-.8h.8v.9l-.8-.1z" class="st0"/><path id="XMLID_6_" d="M17.9 12.4V8.5c0-.6.4-1.2.9-1.2h4.5c.6 0 1.1.6 1.1 1.4v3.6c0 .8-.5 1.4-1.1 1.4H19c-.6.1-1.1-.6-1.1-1.3z" class="st0"/><path id="XMLID_5_" d="M25.6 12.4v-.8h.5v.9l-.5-.1z" class="st0"/><path id="XMLID_4_" d="M6.4 11.6H7v.9h-.6v-.9z" class="st0"/><path id="XMLID_3_" d="M3.5 19.4L6.1 14h1.3c.4.8 1.1 1.3 1.9 1.3h4.3c.8 0 1.5-.5 1.9-1.3h1.6c.4.8 1.1 1.3 1.9 1.3h4.3c.8 0 1.5-.5 1.9-1.3h1.3l2.6 5.4H3.5z" class="st0"/></svg>