<?xml version="1.0" encoding="utf-8"?>
<!-- Generator: Adobe Illustrator 19.0.0, SVG Export Plug-In . SVG Version: 6.00 Build 0)  -->
<svg version="1.1" id="Layer_1" xmlns="http://www.w3.org/2000/svg" xmlns:xlink="http://www.w3.org/1999/xlink" x="0px" y="0px"
	 viewBox="0 0 32 32" style="enable-background:new 0 0 32 32;" xml:space="preserve">
<style type="text/css">
	.st0{fill:#008080;}
</style>
<path id="XMLID_6_" class="st0" d="M28.1,15V8.2c0-4.2-2.5-7.5-5.5-7.5H9.4c-3,0-5.5,3.4-5.5,7.5V15c-1.6,0.8-2.8,2.9-2.8,5.4v1.3
	c0,2.3,0.9,4.2,2.3,5.2v4.4h0.9v-4c0.3,0.1,0.6,0.1,0.9,0.1h21.4c0.3,0,0.6,0,0.9-0.1v4h0.9v-4.4c1.4-0.9,2.3-2.9,2.3-5.2v-1.3
	C30.9,18,29.7,15.8,28.1,15z M4.8,8.2c0-3.5,2-6.3,4.5-6.3h13.3c2.5,0,4.5,2.8,4.5,6.3v5.1c-0.5-0.8-1.1-1.3-1.9-1.6V9.8
	c0-1.5-0.9-2.7-2-2.7h-4.4c-1.1,0-2,1.2-2,2.7v1.8h-1.9V9.8c0-1.5-0.9-2.7-2-2.7H8.7c-1.1,0-2,1.2-2,2.7v1.9
	c-0.7,0.3-1.4,0.8-1.9,1.6C4.8,13.2,4.8,8.2,4.8,8.2z M24.4,12.8c1,0,1.9,0.7,2.4,1.9c0,0-0.1,0-0.1,0H5.3c0,0-0.1,0-0.1,0
	c0.5-1.2,1.4-1.9,2.4-1.9H24.4z M7.6,11.5V9.8c0-0.8,0.5-1.4,1.1-1.4h4.4c0.6,0,1.1,0.6,1.1,1.4v1.8L7.6,11.5L7.6,11.5z M24.4,11.5
	h-6.5V9.8c0-0.8,0.5-1.4,1.1-1.4h4.4c0.6,0,1.1,0.6,1.1,1.4L24.4,11.5L24.4,11.5z M26.7,26.3H5.3c-1.8,0-3.2-2-3.2-4.5v-1.3
	C2,18,3.5,16,5.3,16h21.4c1.8,0,3.2,2,3.2,4.5v1.3h0C30,24.2,28.5,26.3,26.7,26.3z"/>
<rect id="XMLID_5_" x="4.4" y="23" class="st0" width="23.3" height="1.3"/>
</svg>
