<svg xmlns="http://www.w3.org/2000/svg" id="Layer_1" viewBox="0 0 32 32"><style>.st0{fill:#008080;}</style><g id="XMLID_2_"><path id="XMLID_3_" d="M29.4 8.7c-4.3-7.2-10.7-2.2-10.7-2.2-.4.3-1.2.6-1.7.6h-1.7c-.5 0-1.3-.3-1.7-.6 0 0-6.4-5-10.7 2.2-4.3 7.2-2.5 15-2.5 15 .3 1.9 1.3 3.2 3.2 3 1.9-.2 5.9-5.2 5.9-5.2.3-.4 1-.7 1.6-.7h10.3c.5 0 1.2.3 1.6.7 0 0 4 5 5.9 5.2 1.9.2 2.9-1.1 3.2-3-.2 0 1.5-7.8-2.7-15zm-17.2 5.9H10v2.2s-.5.4-1.2.4-1-.4-1-.4v-2.1H5.7s-.3-.3-.3-1c-.1-.7.3-1.3.3-1.3h2.2V10s.5-.2 1.1-.2c.7 0 1.1.3 1.1.3v2.2h2.1s.4.5.4 1.1c0 .5-.4 1.2-.4 1.2zm10.2 2.5c-1 0-1.7-.8-1.7-1.8s.8-1.8 1.7-1.8c1 0 1.7.8 1.7 1.8s-.8 1.8-1.7 1.8zm0-5c-1 0-1.7-.8-1.7-1.8s.8-1.8 1.7-1.8c1 0 1.7.8 1.7 1.8s-.8 1.8-1.7 1.8zm4.3 2.7c-1 0-1.7-.8-1.7-1.8s.8-1.8 1.7-1.8c1 0 1.7.8 1.7 1.8.1 1-.7 1.8-1.7 1.8z" class="st0"/></g></svg>