<?xml version="1.0" encoding="utf-8"?>
<!-- Generator: Adobe Illustrator 19.0.0, SVG Export Plug-In . SVG Version: 6.00 Build 0)  -->
<svg version="1.1" id="Layer_1" xmlns="http://www.w3.org/2000/svg" xmlns:xlink="http://www.w3.org/1999/xlink" x="0px" y="0px"
	 viewBox="0 0 32 32" style="enable-background:new 0 0 32 32;" xml:space="preserve">
<style type="text/css">
	.st0{fill:#008080;}
</style>
<g id="XMLID_2_">
	<g id="XMLID_3_">
		<g id="XMLID_4_">
			<path id="XMLID_18_" class="st0" d="M9,24.5c0.8,0,1.4-0.7,1.4-1.6v-1.6h1.4c0.8,0,1.4-0.7,1.4-1.6c0-0.9-0.6-1.6-1.4-1.6h-1.4
				v-1.6c0-0.9-0.6-1.6-1.4-1.6s-1.4,0.7-1.4,1.6v1.6H6.2c-0.8,0-1.4,0.7-1.4,1.6c0,0.9,0.6,1.6,1.4,1.6h1.4v1.6
				C7.6,23.8,8.2,24.5,9,24.5z M6.2,20.3c-0.3,0-0.5-0.2-0.5-0.5s0.2-0.5,0.5-0.5H8c0.3,0,0.5-0.2,0.5-0.5v-2.1
				C8.5,16.2,8.7,16,9,16c0.3,0,0.5,0.2,0.5,0.5v2.1c0,0.3,0.2,0.5,0.5,0.5h1.9c0.3,0,0.5,0.2,0.5,0.5s-0.2,0.5-0.5,0.5H9.9
				c-0.3,0-0.5,0.2-0.5,0.5v2.1c0,0.3-0.2,0.5-0.5,0.5s-0.5-0.2-0.5-0.5v-2.1c0-0.3-0.2-0.5-0.5-0.5H6.2z"/>
			<path id="XMLID_17_" class="st0" d="M23,11.7h-3.3V6.9c0-1.5-1.1-2.7-2.3-2.7c-1.3,0-2.3,1.2-2.3,2.7c0,0.9-0.6,1.6-1.4,1.6
				c-0.8,0-1.4-0.7-1.4-1.6V0.5C12.2,0.2,12,0,11.8,0s-0.5,0.2-0.5,0.5v6.4c0,1.5,1.1,2.7,2.3,2.7c1.3,0,2.3-1.2,2.3-2.7
				c0-0.9,0.6-1.6,1.4-1.6s1.4,0.7,1.4,1.6v5.3c0,0.3,0.2,0.5,0.5,0.5H23c3.3,0,6.1,3.2,6.1,6.9v8.6c0,1.7-1.4,2.6-2.3,2.6
				c-1.4,0-2.2-1-3.2-2.3c-1.5-1.8-3.3-4.1-7.6-4.1c-4.3,0-6.1,2.3-7.6,4.1C7.4,30,6.6,31,5.2,31c-1,0-2.3-1-2.3-2.7v-8.5
				c0-3.8,2.8-6.9,6.1-6.9h8.4c0.3,0,0.5-0.2,0.5-0.5c0-0.3-0.2-0.5-0.5-0.5H9c-3.8,0-7,3.7-7,8v8.5c0,2.2,1.7,3.7,3.3,3.7
				C7,32,8,30.7,9.1,29.4c1.4-1.8,3-3.8,6.9-3.8c3.9,0,5.5,2,6.9,3.8C24,30.8,25,32,26.8,32c1.6,0,3.3-1.5,3.3-3.7v-8.6
				C30.1,15.4,26.8,11.7,23,11.7z"/>
			<path id="XMLID_14_" class="st0" d="M25.8,21.3c0.8,0,1.4-0.7,1.4-1.6c0-0.9-0.6-1.6-1.4-1.6s-1.4,0.7-1.4,1.6
				C24.4,20.6,25.1,21.3,25.8,21.3z M25.8,19.2c0.3,0,0.5,0.2,0.5,0.5s-0.2,0.5-0.5,0.5c-0.3,0-0.5-0.2-0.5-0.5S25.6,19.2,25.8,19.2
				z"/>
			<path id="XMLID_11_" class="st0" d="M23,14.9c-0.8,0-1.4,0.7-1.4,1.6c0,0.9,0.6,1.6,1.4,1.6s1.4-0.7,1.4-1.6
				C24.4,15.7,23.8,14.9,23,14.9z M23,17.1c-0.3,0-0.5-0.2-0.5-0.5S22.8,16,23,16c0.3,0,0.5,0.2,0.5,0.5
				C23.5,16.8,23.3,17.1,23,17.1z"/>
			<path id="XMLID_8_" class="st0" d="M20.2,18.1c-0.8,0-1.4,0.7-1.4,1.6c0,0.9,0.6,1.6,1.4,1.6s1.4-0.7,1.4-1.6
				C21.6,18.9,21,18.1,20.2,18.1z M20.2,20.3c-0.3,0-0.5-0.2-0.5-0.5s0.2-0.5,0.5-0.5s0.5,0.2,0.5,0.5S20.5,20.3,20.2,20.3z"/>
			<path id="XMLID_5_" class="st0" d="M23,24.5c0.8,0,1.4-0.7,1.4-1.6c0-0.9-0.6-1.6-1.4-1.6s-1.4,0.7-1.4,1.6
				C21.6,23.8,22.3,24.5,23,24.5z M23,22.4c0.3,0,0.5,0.2,0.5,0.5s-0.2,0.5-0.5,0.5c-0.3,0-0.5-0.2-0.5-0.5S22.8,22.4,23,22.4z"/>
		</g>
	</g>
</g>
</svg>
