<svg xmlns="http://www.w3.org/2000/svg" id="Layer_1" viewBox="0 0 32 32">
  <style>
    .st0{fill:none;stroke:#008080;stroke-width:1.1;stroke-miterlimit:10;}
  </style>
  <g id="Layer_1_1_">
    <g id="XMLID_1_">
      <path id="XMLID_2_" d="M13.5 12.3v-1.4l1.3-6.1h2.4l1.3 6.1v1.4c0 1.3-1.2 2.5-2.5 2.5s-2.5-1.2-2.5-2.5zm6.3 0c0 1.3 1.2 2.5 2.5 2.5s2.5-1 2.5-2.3V11l-3.7-6.3h-2.5l1.2 6.1v1.5zm-12.6 0c0 1.3 1.2 2.4 2.5 2.4s2.5-1.1 2.5-2.4v-1.4l1.2-6.2h-2.5l-3.8 6.2.1 1.4zM2.1 16h27.8v15H2.1V16zm2.5 10h22.8v-7.5H4.6V26zm1.3-13.7v-1.4l3.6-6.2H7L.8 10.9v1.4c0 1.3 1.2 2.4 2.5 2.4s2.6-1 2.6-2.4zM25 4.8h-2.5l3.6 6.1v1.4c0 1.3 1.2 2.5 2.5 2.5s2.5-1.1 2.5-2.4V11c.1-.1-6.1-6.2-6.1-6.2zM24.8 1H7.2v2.5h17.7V1h-.1z" class="st0"/>
    </g>
  </g>
</svg>
