<svg xmlns="http://www.w3.org/2000/svg" id="Layer_1" viewBox="0 0 32 32">
  <style>
    .st0{fill:#008080;}
  </style>
  <g id="XMLID_2_">
    <g id="XMLID_3_">
      <path id="XMLID_4_" d="M25.2 20.4l-4.7-.9v-1.2c1.8-1.1 3-2.9 3-4.9v-.2c1.5-.7 2.4-2.1 2.4-3.6V5c0-2.6-2.5-4.7-5.7-4.7h-7.6C11.2.3 10 .9 9.5 2l-.1.3c-.2.4-.6.7-1 .9-1.2.5-1.9 1.4-1.9 2.5v3.9c0 1.5.9 2.8 2.4 3.6v.2c0 2 1.2 3.8 3 4.9v1.2l-4.7.9c-3.6.7-6.2 3.3-6.2 6.4v4.7h30.3v-4.7c0-3.1-2.5-5.7-6.1-6.4zM9 8.3v3.6c-.8-.6-1.2-1.4-1.2-2.3V5.7c0-.7.4-1.3 1.2-1.6.7-.3 1.3-.8 1.6-1.4l.1-.3c.3-.7 1.1-1.1 2-1.1h7.6c2.5 0 4.5 1.7 4.5 3.7v4.6c0 .9-.4 1.7-1.2 2.3V8.3c0-1.7-1.6-3-3.6-3-1.7 0-3.2 1-3.5 2.4v.1h-.2v-.1c-.3-1.4-1.8-2.4-3.5-2.4-2.2 0-3.8 1.3-3.8 3zm1.2 5.1V8.3c0-1.1 1.1-2 2.4-2 1.1 0 2.1.7 2.3 1.6l.2.9h2.2l.2-.9c.2-.9 1.2-1.6 2.3-1.6 1.3 0 2.4.9 2.4 2v5.1c0 2.8-2.7 5-6.1 5s-5.9-2.2-5.9-5zm3 6.4v-.9c.9.4 1.9.6 3 .6s2.1-.2 3-.6v.9l-3 4.2-3-4.2zm2.4 5.3L12 23.2l.4-2.5 3.2 4.4zm4.4-4.4l.4 2.5-3.5 1.8 3.1-4.3zm4.1 9.8H8.4v-2H7.1v2H2.3v-3.7c0-2.6 2.1-4.9 5.2-5.4l1.5-.3V25H7.1c-1.3 0-2.4.9-2.4 2v2.5h1.8v-1h-.6V27c0-.6.5-1 1.2-1H12c.7 0 1.2.5 1.2 1v1.5h-.6v1h1.8V27c0-1.1-1.1-2-2.4-2h-1.8v-4.1l1.1-.2-.5 3 5.5 2.9 5.5-2.9-.5-3 1.1.2v4.2c-1 .2-1.8 1-1.8 1.9 0 1.1 1.1 2 2.4 2 .4 0 .9-.1 1.2-.3v1.8zM22.9 26c.7 0 1.2.5 1.2 1 0 .6-.5 1-1.2 1s-1.2-.5-1.2-1c0-.6.5-1 1.2-1zm7.2 4.5h-4.8v-2h-.8c.5-.4.8-.9.8-1.5 0-.9-.8-1.7-1.8-1.9v-3.9l1.4.3c3.1.6 5.2 2.8 5.2 5.4v3.6z" class="st0"/>
    </g>
  </g>
</svg>
