<svg xmlns="http://www.w3.org/2000/svg" id="Layer_1" viewBox="0 0 32 32"><style>.st0{fill:none;stroke:#008080;stroke-width:0.8;stroke-miterlimit:10;}</style><g id="XMLID_2_"><g id="XMLID_3_"><path id="XMLID_12_" d="M15.5 5.6h.6v-.7h.7v-.6h-.7v-.7h-.6v.7h-.8v.6h.8z" class="st0"/><path id="XMLID_9_" d="M22 9.1V3.2s-6.2-4.5-12.4 0v5.9s2-1.8 6.1-1.9c4.2 0 6.3 1.9 6.3 1.9zm-8.5-5.2c0-.7.6-1.2 1.3-1.2.4 0 .7.2 1 .4.2-.3.6-.4 1-.4.7 0 1.3.5 1.3 1.2 0 .4-.2.7-.5.9l-1.8 1.6L14 4.8c-.3-.2-.5-.5-.5-.9z" class="st0"/><path id="XMLID_8_" d="M9.1 11.4c0 3.4 3 7.7 6.7 7.7s6.7-4.3 6.7-7.7v-.5l-1-1c-.1-.1-1.9-1.6-5.4-1.6h-.2c-3.7.1-5.4 1.6-5.5 1.6L9.1 11v.4z" class="st0"/><path id="XMLID_4_" d="M22.7 17.2L15.9 28 9.8 17.2s-5.6.5-7.2 7.7c-.3 1.3.4 3.3 1.6 3.9 1.9 1 5.4 2 12.1 1.9 6.6.1 10.2-1 12.1-1.9 1.3-.6 1.9-2.6 1.6-3.9-1.6-7.2-7.3-7.7-7.3-7.7zM10.9 29.4c-2.4 0-4.6-.8-4.7-.9l.5-1.1s3.1 1.2 5.7.7l.3 1.2c-.7 0-1.3.1-1.8.1zm10.1.2c-.6 0-1.2 0-1.7-.2l.3-1.2c2.6.5 5.6-.6 5.7-.7l.5 1.1c-.2.1-2.4 1-4.8 1z" class="st0"/></g></g></svg>