<?xml version="1.0" encoding="utf-8"?>
<!-- Generator: Adobe Illustrator 19.0.0, SVG Export Plug-In . SVG Version: 6.00 Build 0)  -->
<svg version="1.1" id="Layer_1" xmlns="http://www.w3.org/2000/svg" xmlns:xlink="http://www.w3.org/1999/xlink" x="0px" y="0px"
	 viewBox="0 0 32 32" style="enable-background:new 0 0 32 32;" xml:space="preserve">
<style type="text/css">
	.st0{fill:#038181;}
</style>
<g id="XMLID_2_">
	<path id="XMLID_21_" class="st0" d="M28.6,21.9v-21c0-0.3-0.3-0.5-0.6-0.5H4c-0.3,0-0.6,0.2-0.6,0.5v21c-1.5,0.2-2.6,1.4-2.6,2.7
		v3.5c0,2,1.9,3.6,4.2,3.6c1.6,0,2.9-0.7,3.7-1.8c0.7,1.1,2.1,1.8,3.7,1.8s2.9-0.7,3.7-1.8c0.7,1.1,2.1,1.8,3.7,1.8s2.9-0.7,3.7-1.8
		c0.7,1.1,2.1,1.8,3.7,1.8c2.3,0,4.2-1.6,4.2-3.6v-3.5C31.2,23.2,30.1,22.1,28.6,21.9z M30,28.1c0,1.4-1.4,2.6-3.1,2.6
		c-1.7,0-3.1-1.2-3.1-2.6c0-0.3-0.3-0.5-0.6-0.5s-0.6,0.2-0.6,0.5c0,1.4-1.4,2.6-3.1,2.6s-3.1-1.2-3.1-2.6c0-0.3-0.3-0.5-0.6-0.5
		c-0.3,0-0.6,0.2-0.6,0.5c0,1.4-1.4,2.6-3.1,2.6s-3.1-1.2-3.1-2.6c0-0.3-0.3-0.5-0.6-0.5c-0.3,0-0.6,0.2-0.6,0.5
		c0,1.4-1.4,2.6-3.1,2.6S2,29.5,2,28.1v-3.5c0-1,0.9-1.7,2-1.7h24c1.1,0,2,0.8,2,1.7L30,28.1L30,28.1z M27.4,21.8H4.6V1.3h22.8
		L27.4,21.8L27.4,21.8z"/>
	<path id="XMLID_18_" class="st0" d="M17.2,11h8.5c0.3,0,0.6-0.2,0.6-0.5V2.8c0-0.3-0.3-0.5-0.6-0.5h-8.5c-0.3,0-0.6,0.2-0.6,0.5
		v7.6C16.6,10.7,16.8,11,17.2,11z M17.8,3.3h7.3V10h-7.3V3.3z"/>
	<path id="XMLID_17_" class="st0" d="M12.1,4.6L8.2,8C8,8.2,8,8.6,8.3,8.7c0.1,0.1,0.3,0.1,0.4,0.1c0.2,0,0.3-0.1,0.4-0.2l3.8-3.5
		c0.2-0.2,0.2-0.5,0-0.7C12.7,4.4,12.3,4.4,12.1,4.6z"/>
	<path id="XMLID_14_" class="st0" d="M6.4,11h8.5c0.3,0,0.6-0.2,0.6-0.5V2.8c0-0.3-0.3-0.5-0.6-0.5H6.4C6,2.3,5.8,2.6,5.8,2.8v7.6
		C5.8,10.7,6,11,6.4,11z M6.9,3.3h7.3V10H6.9V3.3z"/>
	<path id="XMLID_13_" class="st0" d="M12.1,14.3l-3.8,3.5C8,18,8,18.3,8.3,18.5c0.1,0.1,0.3,0.1,0.4,0.1c0.2,0,0.3-0.1,0.4-0.2
		l3.8-3.5c0.2-0.2,0.2-0.5,0-0.7C12.7,14.1,12.3,14.1,12.1,14.3z"/>
	<path id="XMLID_10_" class="st0" d="M6.4,20.8h8.5c0.3,0,0.6-0.2,0.6-0.5v-7.9c0-0.3-0.3-0.5-0.6-0.5H6.4c-0.3,0-0.6,0.2-0.6,0.5
		v7.9C5.8,20.6,6,20.8,6.4,20.8z M6.9,13h7.3v6.9H6.9V13z"/>
	<path id="XMLID_9_" class="st0" d="M22.9,14.3l-0.6,0.5c-0.2,0.2-0.2,0.5,0,0.7c0.1,0.1,0.3,0.1,0.4,0.1c0.2,0,0.3-0.1,0.4-0.2
		l0.6-0.5c0.2-0.2,0.2-0.5,0-0.7C23.5,14.1,23.1,14.1,22.9,14.3z"/>
	<path id="XMLID_8_" class="st0" d="M20.7,16.3l-1.6,1.5c-0.2,0.2-0.2,0.5,0,0.7c0.1,0.1,0.3,0.1,0.4,0.1c0.2,0,0.3-0.1,0.4-0.2
		l1.6-1.5c0.2-0.2,0.2-0.5,0-0.7C21.3,16.1,20.9,16.1,20.7,16.3z"/>
	<path id="XMLID_5_" class="st0" d="M17.2,20.8h8.5c0.3,0,0.6-0.2,0.6-0.5v-7.9c0-0.3-0.3-0.5-0.6-0.5h-8.5c-0.3,0-0.6,0.2-0.6,0.5
		v7.9C16.6,20.6,16.8,20.8,17.2,20.8z M17.8,13h7.3v6.9h-7.3V13z"/>
	<path id="XMLID_4_" class="st0" d="M12.3,26.8c-0.3,0-0.6,0.2-0.6,0.5s0.3,0.5,0.6,0.5s0.6-0.2,0.6-0.5S12.7,26.8,12.3,26.8z"/>
	<path id="XMLID_3_" class="st0" d="M26.8,24.6c-0.3,0-0.6,0.2-0.6,0.5s0.3,0.5,0.6,0.5s0.6-0.2,0.6-0.5S27.1,24.6,26.8,24.6z"/>
</g>
</svg>
