<svg xmlns="http://www.w3.org/2000/svg" id="Layer_1" viewBox="0 0 32 32"><style>.st0{fill:#008080;}</style><g id="XMLID_2_"><path id="XMLID_3_" d="M29.9 19.1L25.6 4.7c-.1-.2-.9-2.4-2.5-2.4-1.8 0-2.9 2.8-3.3 3.8-.3.8-.1 1.7.5 2.1.6.4 1.3.1 1.6-.7.4-1 .7-1.5.9-1.8.2-.2.5-.2.7.4l2.3 7.7c-.6-.2-1.2-.4-1.8-.4-2.6 0-4.8 2.1-5.8 5-.7-.7-1.4-1.1-2.2-1.1-.8 0-1.5.5-2 1.1-1-3-3.2-5-5.8-5-.6 0-1.2.1-1.8.4L8.7 6c.2-.6.5-.6.7-.4.2.3.5.8.9 1.8.3.8 1 1.1 1.6.7.6-.4.8-1.3.5-2.1-.3-.9-1.4-3.7-3.3-3.7-1.6 0-2.4 2.2-2.5 2.4L2.4 18.5c0 .1-.5 1.3-.5 3.2-.1 4.6 2.8 8.4 6.3 8.4 3.3 0 6-3.4 6.3-7.8.3-.7 1-1.8 1.6-1.8.5 0 1 .7 1.6 1.9.2 4.3 3 7.8 6.3 7.8 3.5 0 6.3-3.7 6.3-8.4-.1-.8-.2-2.3-.4-2.7zM8.2 27c-2.2 0-3.9-2.3-3.9-5.2 0-.7.1-1.4.3-2v-.1c.6-1.9 2-3.2 3.6-3.2 2.2 0 3.9 2.3 3.9 5.2 0 2.9-1.7 5.3-3.9 5.3zM24 27c-2.2 0-3.9-2.3-3.9-5.2s1.8-5.2 3.9-5.2 3.9 2.3 3.9 5.2c0 2.8-1.8 5.2-3.9 5.2z" class="st0"/></g></svg>