<svg id="Layer_1" xmlns="http://www.w3.org/2000/svg" viewBox="0 0 32 32"><style>.st0{fill:#008080;}</style><g id="XMLID_2_"><path id="XMLID_6_" class="st0" d="M32.1 6.7h-1.3V6h-1.7v.7H5.7V6h-.9v.7c-.5 0-.9.2-1.4.4-.3-.3-.8-.5-1.2-.5-1.1 0-2 1-2 2.3 0 .6.2 1.2.6 1.7 0 .2-.1.5-.1.7l-.2 2 .5.1c.8.1 1.5.6 2 1.4.5.7.7 1.6.5 2.5l-1.3 8.1c-.1.7.1 1.5.5 2s1 .9 1.7.9H8c.7 0 1.3-.6 1.5-1.4l1-5.8c.2-1.4 1.4-2.5 2.7-2.5h2.6c1.5 0 2.8-1.1 3.3-2.7l.3-1.1c.2-.7.8-1.2 1.4-1.2H25v-.7h7.3l-.2-6.2zm-.9 3.2h-4.8c-.9 0-1.7.5-2.1 1.4H1.6C1.8 9.7 2.7 8.4 4 7.9v2.3h.9V7.7h.6v2.5h.9V7.7H7v2.5h.9V7.7h.6v2.5h.9V7.7h.6v2.5h.9V7.7h20.5l-.2 2.2zm-30.1-1c0-.7.5-1.3 1.1-1.3h.3c-.5.5-1 1.1-1.3 1.7-.1 0-.1-.2-.1-.4zm12.7 8.8h-.3c-.9 0-1.6-.7-1.6-1.6 0-1.2.9-2.2 2-2.3-.6 1.1-.6 2.7-.1 3.9zm4.2-2c-.3 1.2-1.3 2-2.4 2h-.8c-.7-1.1-.7-3 .1-4h2.4c.3 0 .7.1.9.3.2.2.1.6.1.6l-.3 1.1zm-3.8-3c-1.8 0-3.2 1.5-3.2 3.4 0 .8.3 1.4.8 1.9-1.1.5-2 1.6-2.2 3l-1 5.8c-.1.3-.3.6-.6.6H4.3c-.4 0-.8-.2-1-.5-.2-.4-.3-.9-.3-1.3l1.3-8.1c.2-1.2 0-2.4-.7-3.3-.5-.8-1.3-1.4-2.2-1.7v-.2H24v.3l-9.8.1zm17-.8H25c.2-.6.8-1 1.4-1h4.9l-.1 1z"/><path id="XMLID_3_" class="st0" d="M8.2 13h-1c-1.1 0-2 1-2.2 2.3L3.7 24c-.1.7.1 1.4.4 2 .3.5.8.7 1.3.7H7c.6 0 1.1-.5 1.2-1.3l1.5-9.9c.1-.7-.1-1.3-.4-1.8-.2-.4-.7-.7-1.1-.7zm.7 2.4l-1.5 9.9c0 .3-.2.4-.4.4H5.4c-.2 0-.5-.1-.6-.3-.2-.3-.3-.7-.3-1.1l1.3-8.7c.1-.8.7-1.5 1.3-1.5h1c.2 0 .4.1.5.3.3.2.4.6.3 1z"/></g></svg>