<svg xmlns="http://www.w3.org/2000/svg" id="Layer_1" viewBox="0 0 32 32">
  <style>
    .st0{fill:none;stroke:#008080;stroke-width:0.8;stroke-miterlimit:10;}
  </style>
  <g id="XMLID_2_">
    <g id="XMLID_3_">
      <path id="XMLID_5_" d="M26.2 13.1c-1.5.2-4.2-.2-3.2-2 .5-.3 1-.6 1.2-.6.4 0 .8-.4.8-.9s-.3-.9-.8-.9c-.6 0-1.4.5-2 .9-.5-.3-.8-1.1-.8-1.1H3.2L1.8 7.1v1.3H.5v4.8h9.3c1.4 0 3.6.9 3.8 3.4v.5c0 2.4 2 4.4 4.5 4.4 1.4 0 2.7-.6 3.5-1.6 0-.1.1-.1.1-.2 1.5-5.6 4.5-6.6 4.5-6.6zm-10-3h3.7c.3 0 .5.3.5.6s-.2.6-.5.6h-3.7c-.3 0-.5-.3-.5-.6 0-.4.2-.6.5-.6zm0 1.9h3.7c.3 0 .5.3.5.6s-.2.6-.5.6h-3.7c-.3 0-.5-.3-.5-.6s.2-.6.5-.6zm2 7.5c-1.5 0-2.8-1.1-2.8-2.4 0-1.3 1.3-2.4 2.8-2.4.4 0 .7.1 1.1.2-.3.9-1 2.1-1.6 2.2-.3 0-.5.4-.5.7 0 .3.3.6.6.6h.1c1.2-.2 2.1-1.8 2.5-2.9.4.4.7 1 .7 1.5-.1 1.4-1.4 2.5-2.9 2.5z" class="st0"/>
      <path id="XMLID_4_" d="M26.6 13.8c-3.3 1.2-3.9 6.1-3.9 6.1 1.3.2 1.5 5.7 1.5 5.7-.4 2.8 3.7 6.5 5.7 1.3 2.7-7.1-2.3-12.9-3.3-13.1z" class="st0"/>
    </g>
  </g>
</svg>
