<?xml version="1.0" encoding="utf-8"?>
<!-- Generator: Adobe Illustrator 19.0.0, SVG Export Plug-In . SVG Version: 6.00 Build 0)  -->
<svg version="1.1" id="Layer_1" xmlns="http://www.w3.org/2000/svg" xmlns:xlink="http://www.w3.org/1999/xlink" x="0px" y="0px"
	 viewBox="0 0 32 32" style="enable-background:new 0 0 32 32;" xml:space="preserve">
<style type="text/css">
	.st0{fill:#008080;}
</style>
<g id="XMLID_2_">
	<g id="XMLID_3_">
		<g id="XMLID_4_">
			<path id="XMLID_22_" class="st0" d="M31.6,24l-2.3-4c-0.1-0.2-0.3-0.3-0.6-0.3h-4.6c-0.2,0-0.5,0.1-0.6,0.3l-2.3,4
				c-0.1,0.2-0.1,0.5,0,0.7l2.3,4c0.1,0.2,0.3,0.3,0.6,0.3h4.6c0.2,0,0.5-0.1,0.6-0.3l2.3-4C31.7,24.5,31.7,24.2,31.6,24z
				 M28.3,27.7h-3.9l-1.9-3.3l1.9-3.3h3.9l1.9,3.3L28.3,27.7z"/>
			<path id="XMLID_19_" class="st0" d="M26.4,21.6c-1.5,0-2.6,1.2-2.6,2.7s1.2,2.7,2.6,2.7c1.5,0,2.6-1.2,2.6-2.7
				S27.9,21.6,26.4,21.6z M26.4,25.6c-0.7,0-1.3-0.6-1.3-1.3s0.6-1.3,1.3-1.3c0.7,0,1.3,0.6,1.3,1.3S27.1,25.6,26.4,25.6z"/>
			<path id="XMLID_16_" class="st0" d="M9,12.6C9.1,12.8,9.3,13,9.6,13h4.6c0.2,0,0.5-0.1,0.6-0.3l2.3-4c0.1-0.2,0.1-0.5,0-0.7
				l-2.3-4c-0.1-0.2-0.3-0.3-0.6-0.3H9.6C9.3,3.6,9.1,3.7,9,3.9l-2.3,4c-0.1,0.2-0.1,0.5,0,0.7L9,12.6z M10,4.9h3.9l1.9,3.3
				l-1.9,3.3H10L8,8.3L10,4.9z"/>
			<path id="XMLID_13_" class="st0" d="M11.9,10.9c1.5,0,2.6-1.2,2.6-2.7c0-1.5-1.2-2.7-2.6-2.7c-1.5,0-2.6,1.2-2.6,2.7
				C9.2,9.7,10.4,10.9,11.9,10.9z M11.9,6.9c0.7,0,1.3,0.6,1.3,1.3s-0.6,1.3-1.3,1.3c-0.7,0-1.3-0.6-1.3-1.3S11.2,6.9,11.9,6.9z"/>
			<path id="XMLID_9_" class="st0" d="M22,18.2l2-3.5v0l2-3.5l1.6-2.9L28.7,9c0.1,0.1,0.2,0.1,0.3,0.1c0.2,0,0.5-0.1,0.6-0.3l2-3.5
				c0.1-0.2,0.1-0.3,0.1-0.5c0-0.2-0.2-0.3-0.3-0.4l-6.9-4c-0.3-0.2-0.7-0.1-0.9,0.2l-2,3.5c-0.1,0.2-0.1,0.3-0.1,0.5
				c0,0.2,0.2,0.3,0.3,0.4L23,5.7l-0.7,1.2L19.4,12c0,0,0,0,0,0l-2.9,5.2v0l-1,1.7c-0.2,0.3-0.1,0.7,0.2,0.9l3.4,2
				c0.1,0.1,0.2,0.1,0.3,0.1c0.2,0,0.5-0.1,0.6-0.3l1-1.7c0,0,0,0,0,0c0,0,0,0,0,0L22,18.2C22,18.2,22,18.2,22,18.2z M24.4,1.8
				l2.3,1.3l-0.3,0.6c-0.2,0.3-0.1,0.7,0.2,0.9c0.1,0.1,0.2,0.1,0.3,0.1c0.2,0,0.5-0.1,0.6-0.3l0.3-0.6l2.3,1.3l-1.3,2.3l-5.7-3.3
				L24.4,1.8z M21.5,16.4l-0.3,0.6c-0.3-0.2-0.7-0.1-0.9,0.2c-0.2,0.3-0.1,0.7,0.2,0.9l-0.3,0.6c-0.3-0.2-0.7-0.1-0.9,0.2
				c-0.2,0.3-0.1,0.7,0.2,0.9l-0.3,0.6L17,19.1l0.3-0.6c0.1,0.1,0.2,0.1,0.3,0.1c0.2,0,0.5-0.1,0.6-0.3c0.2-0.3,0.1-0.7-0.2-0.9
				l0.3-0.6c0.1,0.1,0.2,0.1,0.3,0.1c0.2,0,0.5-0.1,0.6-0.3c0.2-0.3,0.1-0.7-0.2-0.9l0.3-0.6c0.1,0.1,0.2,0.1,0.3,0.1
				c0.2,0,0.5-0.1,0.6-0.3c0.2-0.3,0.1-0.7-0.2-0.9l0.3-0.6c0.1,0.1,0.2,0.1,0.3,0.1c0.2,0,0.5-0.1,0.6-0.3c0.2-0.3,0.1-0.7-0.2-0.9
				l0.3-0.6c0.1,0.1,0.2,0.1,0.3,0.1c0.2,0,0.5-0.1,0.6-0.3c0.2-0.3,0.1-0.7-0.2-0.9l0.3-0.6c0.1,0.1,0.2,0.1,0.3,0.1
				c0.2,0,0.5-0.1,0.6-0.3c0.2-0.3,0.1-0.7-0.2-0.9l0.3-0.6c0.1,0.1,0.2,0.1,0.3,0.1c0.2,0,0.5-0.1,0.6-0.3c0.2-0.3,0.1-0.7-0.2-0.9
				l0.3-0.6l2.3,1.3l-0.3,0.6c-0.3-0.2-0.7-0.1-0.9,0.2c-0.2,0.3-0.1,0.7,0.2,0.9L25.1,10v0c-0.3-0.2-0.7-0.1-0.9,0.2
				s-0.1,0.7,0.2,0.9l-0.3,0.6c-0.3-0.2-0.7-0.1-0.9,0.2c-0.2,0.3-0.1,0.7,0.2,0.9l-0.3,0.6c-0.3-0.2-0.7-0.1-0.9,0.2
				c-0.2,0.3-0.1,0.7,0.2,0.9l-0.3,0.6c-0.3-0.2-0.7-0.1-0.9,0.2C21.1,15.8,21.2,16.2,21.5,16.4z"/>
			<path id="XMLID_5_" class="st0" d="M20.5,27.6L15.7,24l-1.6-1.2l0,0l-5.8-4.4l0.8-1.1c0.2-0.3,0.2-0.7-0.1-0.9L5.8,14
				c-0.1-0.1-0.3-0.2-0.5-0.1c-0.2,0-0.3,0.1-0.4,0.3l-4.7,6.4C0,20.7,0,20.9,0,21.1c0,0.2,0.1,0.3,0.3,0.4l3.2,2.4
				c0.1,0.1,0.3,0.1,0.4,0.1c0,0,0.1,0,0.1,0c0.2,0,0.3-0.1,0.4-0.3l0.8-1.1l4.2,3.2l1.6,1.2l3.2,2.4c0,0,0,0,0,0l3.2,2.4
				c0.1,0.1,0.3,0.1,0.4,0.1c0,0,0.1,0,0.1,0c0.2,0,0.3-0.1,0.4-0.3l2.4-3.2C20.8,28.3,20.8,27.8,20.5,27.6z M4.5,21.4l-0.8,1.1
				l-2.1-1.6l1.6-2.1l0.5,0.4c0.1,0.1,0.3,0.1,0.4,0.1c0.2,0,0.4-0.1,0.5-0.3c0.2-0.3,0.2-0.7-0.1-0.9L4,17.6l1.6-2.1l2.1,1.6
				l-2.3,3.2L4.5,21.4z M17.6,30.4L17.1,30c0.2-0.3,0.2-0.7-0.1-0.9c-0.3-0.2-0.7-0.2-0.9,0.1l-0.5-0.4c0.2-0.3,0.2-0.7-0.1-0.9
				c-0.3-0.2-0.7-0.2-0.9,0.1l-0.5-0.4c0.2-0.3,0.2-0.7-0.1-0.9c-0.3-0.2-0.7-0.2-0.9,0.1l-0.5-0.4c0.2-0.3,0.2-0.7-0.1-0.9
				c-0.3-0.2-0.7-0.2-0.9,0.1l-0.5-0.4c0.2-0.3,0.2-0.7-0.1-0.9c-0.3-0.2-0.7-0.2-0.9,0.1L9.1,24c0.2-0.3,0.2-0.7-0.1-0.9
				c-0.3-0.2-0.7-0.2-0.9,0.1l-0.5-0.4c0.2-0.3,0.2-0.7-0.1-0.9c-0.3-0.2-0.7-0.2-0.9,0.1l-0.5-0.4l1.6-2.1l0.5,0.4
				c-0.2,0.3-0.2,0.7,0.1,0.9C8.3,20.9,8.4,21,8.6,21c0.2,0,0.4-0.1,0.5-0.3l0.5,0.4c-0.2,0.3-0.2,0.7,0.1,0.9
				c0.1,0.1,0.3,0.1,0.4,0.1c0.2,0,0.4-0.1,0.5-0.3l0.5,0.4c-0.2,0.3-0.2,0.7,0.1,0.9c0.1,0.1,0.3,0.1,0.4,0.1
				c0.2,0,0.4-0.1,0.5-0.3v0l0.5,0.4c-0.2,0.3-0.2,0.7,0.1,0.9c0.1,0.1,0.3,0.1,0.4,0.1c0.2,0,0.4-0.1,0.5-0.3l0.5,0.4
				c-0.2,0.3-0.2,0.7,0.1,0.9c0.1,0.1,0.3,0.1,0.4,0.1c0.2,0,0.4-0.1,0.5-0.3l0.5,0.4c-0.2,0.3-0.2,0.7,0.1,0.9
				c0.1,0.1,0.3,0.1,0.4,0.1c0.2,0,0.4-0.1,0.5-0.3l0.5,0.4c-0.2,0.3-0.2,0.7,0.1,0.9c0.1,0.1,0.3,0.1,0.4,0.1
				c0.2,0,0.4-0.1,0.5-0.3l0.5,0.4L17.6,30.4z"/>
		</g>
	</g>
</g>
</svg>
