<svg xmlns="http://www.w3.org/2000/svg" id="Layer_1" viewBox="0 0 32 32"><style>.st0{fill:#008080;}</style><g id="XMLID_2_"><path id="XMLID_4_" d="M23.2 10.7l-2.4-2v-.9c.6-.2 1.1-.7 1.1-1.3V2.8c0-.8-.7-1.4-1.6-1.4h-9.7c-.8 0-1.5.6-1.5 1.4v3.7c0 .6.5 1.1 1.1 1.3v.9l-2.4 2c-.9.8-1.4 1.8-1.4 2.9v15.2c0 1.3 1.2 2.3 2.7 2.3H22c1.5 0 2.7-1 2.7-2.3V13.6c-.1-1.1-.6-2.2-1.5-2.9zM15 18.5h8.7v1H21c-.3 0-.5.2-.5.4s.2.4.5.4h2.7v1h-4.3c-.3 0-.5.2-.5.4s.2.4.5.4h4.3v1.5H12.8c-.3 0-.6-.2-.6-.5v-6.5c0-.3.3-.5.6-.5h10.8v1.5H15c-.3 0-.5.2-.5.4s.2.5.5.5zM18.2 7V2.3h1.1V7h-1.1zM16 7V2.3h1.1V7H16zm-2.2 0V2.3H15V7h-1.2zm-2.1 0V2.3h1.1V7h-1.1zm9.2-4.2v3.7c0 .3-.3.5-.6.5V2.3c.4 0 .6.2.6.5zm-10.8 0c0-.3.3-.5.6-.5V7c-.3 0-.6-.2-.6-.5V2.8zM22 30.2H9c-.9 0-1.7-.6-1.7-1.4V13.6c0-.9.4-1.7 1.1-2.3l2.4-2h5.7c.3 0 .5-.2.5-.4s-.2-.4-.5-.4h-5.4v-.7h8.7v.5h-1.1c-.3 0-.5.2-.5.4s.2.4.5.4h1.4l2.4 2c.7.6 1.1 1.4 1.1 2.3v1.7H12.8c-.9 0-1.6.6-1.6 1.4V23c0 .8.7 1.4 1.6 1.4h10.8v4.2c0 1-.7 1.6-1.6 1.6z" class="st0"/><path id="XMLID_3_" d="M17.7 20.4h1.1c.3 0 .5-.2.5-.4s-.2-.4-.5-.4h-1.1c-.3 0-.5.2-.5.4s.2.4.5.4z" class="st0"/></g></svg>