<svg xmlns="http://www.w3.org/2000/svg" id="Layer_1" viewBox="0 0 32 32"><style>.st0{fill:#008080;}</style><path d="M25.3 28.9H28V13.5c-1.5-1-3.4-1.9-5.1-2.6.4-.7.8-1.5.9-2.4 2.4 1 4.7 2.3 6.8 3.7V29H32v2.6H0V29h1.3V12.1c2.2-1.4 4.4-2.7 6.8-3.7.2.9.5 1.7 1 2.4-1.8.7-3.5 1.6-5.1 2.6v15.4h2.7v-6.5h18.7v6.6zm-16 1.3h4V25h-4v5.2zm5.4 0h2.7V25h-2.7v5.2zm4 0h4V25h-4v5.2zm-12-9h2.7v-2.6H6.7v2.6zm5.3 0h2.7v-2.6H12v2.6zm5.3 0H20v-2.6h-2.7v2.6zm5.4 0h2.7v-2.6h-2.7v2.6zm-16-3.9h2.7v-2.6H6.7v2.6zm5.3 0h2.7v-2.6H12v2.6zm5.3 0H20v-2.6h-2.7v2.6zm5.4 0h2.7v-2.6h-2.7v2.6zM16 .5c3.7 0 6.7 2.9 6.7 6.5s-3 6.5-6.7 6.5-6.7-3-6.7-6.5S12.3.5 16 .5m1.3 5.2V3.1h-2.7v2.6H12v2.6h2.7v2.6h2.7V8.3H20V5.7h-2.7z" class="st0"/></svg>