<?xml version="1.0" encoding="utf-8"?>
<!-- Generator: Adobe Illustrator 19.0.0, SVG Export Plug-In . SVG Version: 6.00 Build 0)  -->
<svg version="1.1" id="Layer_1" xmlns="http://www.w3.org/2000/svg" xmlns:xlink="http://www.w3.org/1999/xlink" x="0px" y="0px"
	 viewBox="0 0 32 32" style="enable-background:new 0 0 32 32;" xml:space="preserve">
<style type="text/css">
	.st0{fill:none;stroke:#008080;stroke-width:2;stroke-miterlimit:10;}
	.st1{fill:none;stroke:#008080;stroke-miterlimit:10;}
	.st2{fill:#F7F9F9;}
	.st3{font-family:'Calibri-Bold';}
	.st4{font-size:6.3661px;}
</style>
<line id="XMLID_1_" class="st0" x1="1" y1="0" x2="1" y2="32"/>
<line id="XMLID_2_" class="st0" x1="2" y1="5" x2="32" y2="5"/>
<rect id="XMLID_3_" x="5.5" y="8.5" class="st0" width="24.1" height="12.9"/>
<line id="XMLID_4_" class="st1" x1="10.5" y1="5" x2="10.5" y2="9"/>
<line id="XMLID_5_" class="st1" x1="23.5" y1="5" x2="23.5" y2="9"/>
<text id="XMLID_6_" transform="matrix(1.0323 0 0 1 7.5693 14.8335)" class="st2 st3 st4">HOTEL</text>
<path id="XMLID_18_" class="st2" d="M19.2,15.9l0.5,1.4h1.6l-1.3,1l0.5,1.4l-1.3-0.9l-1.3,0.9l0.5-1.4L17,17.4h1.6
	C18.7,17.4,19.2,15.9,19.2,15.9z"/>
<path id="XMLID_16_" class="st2" d="M23.6,15.9l0.5,1.4h1.6l-1.3,1l0.5,1.4l-1.3-0.9l-1.3,0.9l0.5-1.4l-1.3-0.9h1.6
	C23.1,17.4,23.6,15.9,23.6,15.9z"/>
<path id="XMLID_19_" class="st2" d="M14.7,15.9l0.5,1.4h1.6l-1.4,1l0.5,1.4l-1.3-0.9l-1.2,0.9l0.5-1.4l-1.3-1h1.6L14.7,15.9z"/>
<path id="XMLID_21_" class="st2" d="M10,15.9l0.5,1.4h1.6l-1.3,1l0.5,1.4L10,18.9l-1.3,0.9l0.5-1.4l-1.3-1h1.6L10,15.9z"/>
</svg>
