<svg xmlns="http://www.w3.org/2000/svg" id="Layer_1" viewBox="240 -240 512 512">
  <style>
    .st0{fill:#008080;}
  </style>
  <path d="M664-166.5h-20.2c.3-1 .5-2.2.5-3.4 0-3-1.6-7-4.8-7h-24v-58c0-3-4.2-5-8.4-5s-8 2-8 5v69h-8c1-1 1-2 1-3 0-4-2-7-5-7h-28v-18h16c4 0 5-3 5-6s-2-6-5-6h-16v-18h28c3 0 5-3 5-7 0-3-1-7-5-7h-38c-3 0-7 2-7 5v69h-26l1-1.2v-58h14c3 0 5-3.4 5-7.4 0-3.4-1-7.2-5-7.2h-46c-3 0-5 3.7-5 7 0 4 2 7.7 5 7.7h15v57c0 .4 0 1 .5 1.2h-34c5.5-4 9-10.6 9-20.7v-28c0-18.3-11.4-25-26-25s-26 6.7-26 25v28c0 10 3.6 16.6 9.2 20.4h-20c.2 0 .3-.6.3-1v-67c0-3.4-4-5-8.4-5-4 0-8.3 1.6-8.3 5v26h-21v-26c0-3.4-4-5-9-5-4 0-9 1.6-9 5v68.4h-30c-12 0-21 9.2-21 20.7v27.4c0 8 4 14.6 10 18v362c0 5.8 4.8 10 10.4 10h336c5 0 10-4.2 10-10V-99c6-3.6 10-10.3 10-18v-27c0-11.6-9-21-20.8-21zM439.5-215c0-7.3 3.5-10.6 9.4-10.6s9 3.3 9 10.6v28c0 7.3-4 10.6-10 10.6s-10-3.3-10-10.6v-28zM375-167.7v-28.7h21v28.7c0 .5 0 1 .2 1.3h-21.5l.3-1.3zm159.7 419.3h-28.5v-24.3c0-5.6-4.6-10.2-10.2-10.2s-10.2 5-10.2 11v24h-28.5v-79h77.5v79zm119 0h-98.5V163c0-5.7-4.6-10.3-10.2-10.3h-98c-5.6 0-10.2 4.6-10.2 10.2v88h-98.6V-98h315.6v349zm10.5-369.8c0 .2-.2.4-.4.4H328s-.3-.2-.3-.4v-27.4c0-.2.2-.4.4-.4h336c1 0 1 .2 1 .4v27.4z" class="st0"/>
  <path d="M467.7-75h-84.4c-5.6 0-10.2 4.6-10.2 10.2V6.8c0 5.6 5 10.2 11 10.2h84c6 0 10-4.6 10-10.2v-71.5c0-5.7-4-10.3-10-10.3zM457.5-3.4h-64v-51h64v51zm151-71.6h-84.3c-5.6 0-10.2 4.6-10.2 10.2V6.8c0 5.6 4.6 10.2 10.2 10.2h84.4c5.6 0 10.2-4.6 10.2-10.2v-71.5c0-5.7-4.5-10.3-10.2-10.3zm-10 71.6h-64v-51h64v51zm-130.8 39h-84.4c-5.6 0-10.2 4.6-10.2 10.2v71.5c0 5.6 5 10.2 11 10.2h84c6 0 10-4.6 10-10.2V46c0-5.8-4-10.4-10-10.4zM457.5 107h-64V56h64v51zm151-71.4h-84.3c-5.6 0-10.2 4.6-10.2 10.2v71.5c0 5.6 4.6 10.2 10.2 10.2h84.4c5.6 0 10.2-4.6 10.2-10.2V46c0-5.8-4.5-10.4-10.2-10.4zm-10 71.4h-64V56h64v51zM496 183.8c-5.6 0-10.2 4.6-10.2 10.2v3c0 5.7 4.6 10.3 10.2 10.3s10.2-4.6 10.2-10.2v-3c0-5-4.6-10-10.2-10z" class="st0"/>
</svg>
