<?xml version="1.0" encoding="utf-8"?>
<!-- Generator: Adobe Illustrator 19.0.0, SVG Export Plug-In . SVG Version: 6.00 Build 0)  -->
<svg version="1.1" id="Layer_1" xmlns="http://www.w3.org/2000/svg" xmlns:xlink="http://www.w3.org/1999/xlink" x="0px" y="0px"
	 viewBox="0 0 32 32" style="enable-background:new 0 0 32 32;" xml:space="preserve">
<style type="text/css">
	.st0{fill:#008080;}
</style>
<g id="XMLID_25_">
	<g id="XMLID_26_">
		<path id="XMLID_27_" class="st0" d="M27.6,4.6h-1.4c0-0.1,0-0.1,0-0.2c0-0.2-0.1-0.4-0.3-0.4h-1.7V0.3c0-0.2-0.3-0.3-0.6-0.3
			s-0.6,0.1-0.6,0.3v4.2c0,0,0,0.1,0,0.1h-0.5c0-0.1,0-0.1,0-0.2c0-0.2-0.1-0.5-0.3-0.5h-2V2.8h1.1c0.2,0,0.3-0.2,0.3-0.4
			c0-0.2-0.1-0.4-0.3-0.4h-1.1V0.9h2c0.2,0,0.3-0.2,0.3-0.5c0-0.2-0.1-0.4-0.3-0.4h-2.6c-0.2,0-0.5,0.1-0.5,0.3v4.2c0,0,0,0.1,0,0.1
			h-1.8c0,0,0-0.1,0-0.1V0.9h1c0.2,0,0.3-0.2,0.3-0.5c0-0.2-0.1-0.5-0.3-0.5h-3.1c-0.2,0-0.3,0.2-0.3,0.5c0,0.3,0.1,0.5,0.3,0.5h1
			v3.6c0,0,0,0.1,0,0.1h-2.3c0.4-0.2,0.6-0.7,0.6-1.3V1.6c0-1.1-0.8-1.6-1.8-1.6c-1,0-1.8,0.4-1.8,1.6v1.8c0,0.6,0.2,1,0.6,1.3h-1.4
			c0,0,0-0.1,0-0.1V0.3C10.3,0.1,10,0,9.7,0C9.4,0,9.1,0.1,9.1,0.3v1.6H7.7V0.3C7.7,0.1,7.4,0,7.1,0C6.8,0,6.5,0.1,6.5,0.3v4.2
			c0,0,0,0.1,0,0.1H4.4C3.7,4.6,3,5.2,3,5.9v1.7c0,0.5,0.3,0.9,0.7,1.1v22.6C3.7,31.7,4,32,4.4,32h23.1c0.4,0,0.7-0.3,0.7-0.6V8.7
			C28.7,8.5,29,8.1,29,7.6V5.9C29,5.2,28.3,4.6,27.6,4.6z M12.1,1.6c0-0.5,0.2-0.7,0.6-0.7c0.4,0,0.7,0.2,0.7,0.7v1.8
			c0,0.5-0.2,0.7-0.7,0.7c-0.4,0-0.6-0.2-0.6-0.7V1.6z M7.7,4.5V2.7h1.4v1.8c0,0,0,0.1,0,0.1L7.7,4.5C7.7,4.6,7.7,4.5,7.7,4.5z
			 M18.7,30.7h-2v-1.5c0-0.4-0.3-0.6-0.7-0.6c-0.4,0-0.7,0.3-0.7,0.6v1.5h-2v-4.9h5.3L18.7,30.7L18.7,30.7z M26.9,30.7h-6.8v-5.5
			c0-0.4-0.3-0.6-0.7-0.6h-6.7c-0.4,0-0.7,0.3-0.7,0.6v5.5H5.1V8.9h21.7V30.7z M27.6,7.6C27.6,7.6,27.6,7.6,27.6,7.6l-23.1,0
			c0,0,0,0,0,0V5.9c0,0,0,0,0,0h23.1c0,0,0,0,0,0V7.6z"/>
	</g>
</g>
<g id="XMLID_20_">
	<g id="XMLID_21_">
		<path id="XMLID_22_" class="st0" d="M14.1,10.3H8.2c-0.4,0-0.7,0.3-0.7,0.6v4.5c0,0.4,0.3,0.6,0.7,0.6h5.8c0.4,0,0.7-0.3,0.7-0.6
			V11C14.8,10.6,14.4,10.3,14.1,10.3z M13.4,14.8H9v-3.2h4.4V14.8z"/>
	</g>
</g>
<g id="XMLID_15_">
	<g id="XMLID_16_">
		<path id="XMLID_17_" class="st0" d="M23.8,10.3h-5.8c-0.4,0-0.7,0.3-0.7,0.6v4.5c0,0.4,0.3,0.6,0.7,0.6h5.8c0.4,0,0.7-0.3,0.7-0.6
			V11C24.5,10.6,24.1,10.3,23.8,10.3z M23,14.8h-4.4v-3.2H23V14.8z"/>
	</g>
</g>
<g id="XMLID_10_">
	<g id="XMLID_11_">
		<path id="XMLID_12_" class="st0" d="M14.1,17.2H8.2c-0.4,0-0.7,0.3-0.7,0.6v4.5c0,0.4,0.3,0.6,0.7,0.6h5.8c0.4,0,0.7-0.3,0.7-0.6
			v-4.5C14.8,17.5,14.4,17.2,14.1,17.2z M13.4,21.7H9v-3.2h4.4V21.7z"/>
	</g>
</g>
<g id="XMLID_5_">
	<g id="XMLID_6_">
		<path id="XMLID_7_" class="st0" d="M23.8,17.2h-5.8c-0.4,0-0.7,0.3-0.7,0.6v4.5c0,0.4,0.3,0.6,0.7,0.6h5.8c0.4,0,0.7-0.3,0.7-0.6
			v-4.5C24.5,17.5,24.1,17.2,23.8,17.2z M23,21.7h-4.4v-3.2H23V21.7z"/>
	</g>
</g>
<g id="XMLID_2_">
	<g id="XMLID_3_">
		<path id="XMLID_4_" class="st0" d="M16,26.5c-0.4,0-0.7,0.3-0.7,0.6v0.2c0,0.4,0.3,0.6,0.7,0.6c0.4,0,0.7-0.3,0.7-0.6v-0.2
			C16.7,26.8,16.4,26.5,16,26.5z"/>
	</g>
</g>
</svg>
