<?xml version="1.0" encoding="utf-8"?>
<!-- Generator: Adobe Illustrator 19.0.0, SVG Export Plug-In . SVG Version: 6.00 Build 0)  -->
<svg version="1.1" id="Layer_1" xmlns="http://www.w3.org/2000/svg" xmlns:xlink="http://www.w3.org/1999/xlink" x="0px" y="0px"
	 viewBox="240 -240 512 512" style="enable-background:new 240 -240 512 512;" xml:space="preserve">
<style type="text/css">
	.st0{fill:#008080;}
</style>
<g>
	<g>
		<g>
			<path class="st0" d="M391.4,129.7h-56.5c-5.2,0-9.4,4-9.4,8.9v53.4c0,4.9,4.2,8.9,9.4,8.9h56.5c5.2,0,9.4-4,9.4-8.9v-53.4
				C400.8,133.7,396.6,129.7,391.4,129.7z M382,183h-37.7v-35.6H382V183z"/>
			<path class="st0" d="M598.6,111.9h56.5c5.2,0,9.4-4,9.4-8.9V49.6c0-4.9-4.2-8.9-9.4-8.9h-56.5c-5.2,0-9.4,4-9.4,8.9V103
				C589.2,107.9,593.4,111.9,598.6,111.9z M608,58.5h37.7v35.6H608V58.5z"/>
			<path class="st0" d="M598.6,22.9h56.5c5.2,0,9.4-4,9.4-8.9v-53.4c0-4.9-4.2-8.9-9.4-8.9h-56.5c-5.2,0-9.4,4-9.4,8.9V14
				C589.2,18.9,593.4,22.9,598.6,22.9z M608-30.5h37.7V5.1H608V-30.5z"/>
			<path class="st0" d="M598.6,200.8h56.5c5.2,0,9.4-4,9.4-8.9v-53.4c0-4.9-4.2-8.9-9.4-8.9h-56.5c-5.2,0-9.4,4-9.4,8.9v53.4
				C589.2,196.8,593.4,200.8,598.6,200.8z M608,147.5h37.7V183H608V147.5z"/>
			<path class="st0" d="M711.6-66c5.2,0,9.4-4,9.4-8.9v-35.6c0-4.9-4.2-8.9-9.4-8.9h-47.1v-26.7c0-4.9-4.2-8.9-9.4-8.9H334.9
				c-5.2,0-9.4,4-9.4,8.9v26.7h-47.1c-5.2,0-9.4,4-9.4,8.9v35.6c0,4.9,4.2,8.9,9.4,8.9h9.4v284.7h-9.4c-5.2,0-9.4,4-9.4,8.9v35.6
				c0,4.9,4.2,8.9,9.4,8.9h433.2c5.2,0,9.4-4,9.4-8.9v-35.6c0-4.9-4.2-8.9-9.4-8.9h-9.4V-66H711.6z M344.3-137.2h301.3v17.8H344.3
				V-137.2z M702.2,254.2H287.8v-17.8h414.3L702.2,254.2L702.2,254.2z M523.3,129.7h-56.5c-5.2,0-9.4,4-9.4,8.9v80.1H306.7V-66
				h376.7v284.7H532.7v-80.1C532.7,133.7,528.4,129.7,523.3,129.7z M513.8,147.5v71.2h-37.7v-71.2H513.8z M287.8-83.8v-17.8h414.3
				v17.8H287.8z"/>
			<path class="st0" d="M532.7,49.6c0-4.9-4.2-8.9-9.4-8.9h-56.5c-5.2,0-9.4,4-9.4,8.9V103c0,4.9,4.2,8.9,9.4,8.9h56.5
				c5.2,0,9.4-4,9.4-8.9V49.6z M513.8,94.1h-37.7V58.5h37.7V94.1z"/>
			<path class="st0" d="M466.8,22.9h56.5c5.2,0,9.4-4,9.4-8.9v-53.4c0-4.9-4.2-8.9-9.4-8.9h-56.5c-5.2,0-9.4,4-9.4,8.9V14
				C457.3,18.9,461.6,22.9,466.8,22.9z M476.2-30.5h37.7V5.1h-37.7V-30.5L476.2-30.5z"/>
			<path class="st0" d="M391.4-48.3h-56.5c-5.2,0-9.4,4-9.4,8.9V14c0,4.9,4.2,8.9,9.4,8.9h56.5c5.2,0,9.4-4,9.4-8.9v-53.4
				C400.8-44.3,396.6-48.3,391.4-48.3z M382,5.1h-37.7v-35.6H382V5.1z"/>
			<path class="st0" d="M391.4,40.7h-56.5c-5.2,0-9.4,4-9.4,8.9V103c0,4.9,4.2,8.9,9.4,8.9h56.5c5.2,0,9.4-4,9.4-8.9V49.6
				C400.8,44.7,396.6,40.7,391.4,40.7z M382,94.1h-37.7V58.5H382V94.1z"/>
		</g>
	</g>
</g>
<path id="XMLID_18_" class="st0" d="M524.4-235.9l6.7,23.7h22.3l-17.9,15.8l6.7,23.7l-17.9-14.5l-17.9,14.5l6.7-23.7L495.3-211h22.3
	C517.7-211,524.4-235.9,524.4-235.9z"/>
<path id="XMLID_16_" class="st0" d="M584.7-235.9l6.7,23.7h22.3l-17.9,15.8l6.7,23.7l-17.9-14.5l-17.9,14.5l6.7-23.7L555.6-211H578
	C578-211,584.7-235.9,584.7-235.9z"/>
<path id="XMLID_19_" class="st0" d="M463-235.9l6.7,23.7H492l-19,15.8l6.7,23.7l-17.9-14.5l-16.7,14.5l6.7-23.7L434-212.3h22.3
	L463-235.9z"/>
<path id="XMLID_21_" class="st0" d="M399.3-235.9l6.7,23.7h22.3l-17.9,15.8l6.7,23.7l-17.9-14.5l-17.9,14.5l6.7-23.7l-17.9-15.8
	h22.3L399.3-235.9z"/>
</svg>
