<?xml version="1.0" encoding="utf-8"?>
<!-- Generator: Adobe Illustrator 19.0.0, SVG Export Plug-In . SVG Version: 6.00 Build 0)  -->
<svg version="1.1" id="Layer_1" xmlns="http://www.w3.org/2000/svg" xmlns:xlink="http://www.w3.org/1999/xlink" x="0px" y="0px"
	 viewBox="0 0 32 32" style="enable-background:new 0 0 32 32;" xml:space="preserve">
<style type="text/css">
	.st0{fill:#008080;}
</style>
<g id="XMLID_2_" transform="translate(1 1)">
	<g id="XMLID_3_">
		<g id="XMLID_4_">
			<path id="XMLID_12_" class="st0" d="M28.9,18.7c-0.9-1.2-1.7-1.2-3.8-0.1L24.6,19v-9h1.9c0.2,0,0.4-0.1,0.4-0.3s0-0.4-0.1-0.6
				l-8.6-8.4c-1.5-1.4-3.6-1.4-5,0L4.6,9.1C4.5,9.3,4.4,9.5,4.5,9.7c0,0.2,0.2,0.3,0.4,0.3h1.9v6.9c-1.1,0.3-2.2,1-2.9,1.4v-1.1H0.6
				v13.4H4v-1.5h6.2c1,0,1.9-0.1,2.9-0.2l6.2-1c0.2,0,0.5-0.1,0.7-0.1c0.6-0.1,1.1-0.4,1.6-0.9l7.2-6.1
				C29.2,20.2,29.3,19.3,28.9,18.7z M6.1,9l7.6-7.5c1.1-1,2.7-1,3.8,0L25.1,9H24c-0.3,0-0.5,0.2-0.5,0.5v10.2L21,21.4
				c-0.6,0.4-1.8,0.5-3,0.5c0.2-0.5,0.1-1-0.3-1.7c-0.8-1.2-2-1.9-3.4-1.9h0h-1.8c-1,0-1.9-0.3-2.7-0.9c-0.5-0.4-1.1-0.6-1.9-0.6
				V9.5C7.8,9.2,7.6,9,7.3,9L6.1,9L6.1,9z M3,29.6H1.6V18.3H3v0.8v10.1V29.6z M28.1,20.1l-7.2,6.1l0,0.1c-0.3,0.3-0.7,0.5-1,0.6h0
				c-0.2,0.1-0.3,0.1-0.5,0.1l-6.3,1C12,28,11,28.1,10.1,28.1H4v-8.5C4.7,19,6,18.2,7.2,17.9c0.1,0,0.1,0,0.2,0
				c0.4-0.1,0.8-0.1,1.1,0C8.8,18,8.9,18,9.1,18.2c0.9,0.7,2,1.1,3.3,1.1h0h1.8c1.1,0,2,0.5,2.7,1.5c0.1,0.2,0.2,0.4,0.2,0.6
				c0,0,0,0,0,0.1c-0.1,0.2-0.6,0.4-1.4,0.4c-0.1,0-0.2,0-0.3,0.1c-0.1,0-0.1,0-0.2,0h-4.1c-1.5,0-2.4,0.8-2.4,2.1
				c0,0.3,0.2,0.5,0.5,0.5s0.5-0.2,0.5-0.5c0-0.3,0-1,1.4-1h4c0.1,0,0.3,0,0.6,0c0,0,0,0,0,0c0,0,0.1,0,0.2,0c2.2,0.1,4.3,0,5.4-0.6
				l4.1-2.7c2-1.1,2.2-0.8,2.6-0.2C28.3,19.6,28.3,19.9,28.1,20.1z"/>
			<path id="XMLID_9_" class="st0" d="M13,10.5c1,0,1.9-0.9,1.9-2.1S14,6.4,13,6.4s-1.9,0.9-1.9,2.1S11.9,10.5,13,10.5z M13,7.4
				c0.5,0,1,0.5,1,1s-0.4,1-1,1s-1-0.5-1-1C12,7.9,12.5,7.4,13,7.4z"/>
			<path id="XMLID_6_" class="st0" d="M18.7,12.6c-1,0-1.9,0.9-1.9,2.1s0.9,2.1,1.9,2.1s1.9-0.9,1.9-2.1S19.7,12.6,18.7,12.6z
				 M18.7,15.7c-0.5,0-1-0.5-1-1c0-0.6,0.4-1,1-1s1,0.5,1,1C19.7,15.2,19.2,15.7,18.7,15.7z"/>
			<path id="XMLID_5_" class="st0" d="M11.6,16.7c0.1,0,0.2-0.1,0.3-0.2l8.6-9.3c0.2-0.2,0.2-0.5,0-0.7s-0.5-0.2-0.7,0l-8.6,9.3
				c-0.2,0.2-0.2,0.5,0,0.7C11.3,16.7,11.4,16.7,11.6,16.7z"/>
		</g>
	</g>
</g>
</svg>
