<svg xmlns="http://www.w3.org/2000/svg" id="Capa_1" viewBox="213 -212.4 457.4 457.4">
  <style>
    .st0{fill:#008080;}
  </style>
  <path d="M665.3 78.6c-9.1-14.2-27.7-18.9-42.5-10.8l-16.2 9V-56.8l28 26.5c1.5 1.4 3.3 2.1 5.2 2.1 2 0 4-.8 5.4-2.3 2.8-3 2.7-7.8-.3-10.6L491.1-187c-2.9-2.7-7.4-2.7-10.3 0L326.9-41.1c-3 2.9-3.1 7.6-.3 10.6 2.9 3 7.6 3.1 10.6.3l28-26.5V15c-12 1-23.8 4.6-34.5 10.5L216.9 88.4c-3.6 2-4.9 6.5-3 10.1l64.2 119.3c1 1.9 2.7 3.2 4.8 3.7.6.2 1.2.2 1.8.2 1.5 0 2.9-.4 4.1-1.2l54-35.5 148.6 22.5c15.7 2.4 31.8-1 45.3-9.5l118.7-75c7.2-4.6 12.3-11.7 14.1-20.1 1.9-8.5.4-17.1-4.2-24.3zM485.9-171.2L591.6-71V85.1l-69.4 38.3-80-13.5c-14.4-2.4-25.4-14-27.6-28l89.9 14.6c14.3 2.3 28.2-6.9 31.7-20.9 1.9-7.5.6-15.2-3.5-21.8-1.5-2.4-3.3-4.5-5.4-6.3v-72.2c0-4.1-3.4-7.5-7.5-7.5H452c-4.1 0-7.5 3.4-7.5 7.5v51.9l-54.6-11c-3.2-.6-6.4-1.1-9.6-1.4v-86l105.6-100zm26.5 212.1l-52.9-10.6v-47.5h52.9v58.1zm142.5 58.6c-1 4.4-3.7 8.2-7.5 10.7l-118.7 75c-10.4 6.6-22.8 9.2-35 7.3l-151.4-22.9c-1.8-.3-3.7.1-5.2 1.1l-49.6 32.6-56.9-105.4L338 38.6c14.9-8.2 32.2-10.9 48.9-7.6l124.8 25c3.5.7 6.5 2.8 8.4 5.8s2.5 6.6 1.6 10.1c-1.6 6.5-8.1 10.8-14.7 9.7l-98.8-16.1c-2.1-.3-4.2.2-5.8 1.5-1.6 1.3-2.7 3.2-2.9 5.3-2.3 25.1 15.4 48.1 40.3 52.3l82.5 14c1.7.3 3.4 0 4.9-.8l102.9-56.9c7.8-4.3 17.7-1.8 22.6 5.7 2.4 3.9 3.2 8.5 2.2 12.9z" class="st0"/>
</svg>
