<svg xmlns="http://www.w3.org/2000/svg" id="Layer_1" viewBox="0 0 32 32"><style>.st0{fill:#008080;}</style><path d="M7.7 18.6c-1-1.1-1.7-2.7-1.7-4.3 0-1.8.8-3.4 1.8-4.4-1.2-4.1 3.3-8.2 5.5-9.7-.3 2 0 3.6 1.8 5 3.5 2.7 10.4 3.4 10.5 9.5 0 1.6-.7 3-1.8 4.1l-.8 6.5h-2l-1 6.6h-8.2l-1-6.6H8.7l-1-6.7zM21.2 20H10.4l.4 2.6h2l1 6.6h4.1l1-6.6h2l.3-2.6zm-12-8c-.4.5-.6 1.1-.7 1.8-.2 1.7.9 3.5 2.4 3.5h10.6c.9-.8 1.7-1.9 1.6-3.2-.3-4.6-8.5-4-11.5-9.2-5.1 6.5 4 8.3 9 9.7h.1c-2 .1-8.7-.1-11.5-2.6z" class="st0"/></svg>