<?xml version="1.0" encoding="utf-8"?>
<!-- Generator: Adobe Illustrator 19.0.0, SVG Export Plug-In . SVG Version: 6.00 Build 0)  -->
<svg version="1.1" id="Layer_1" xmlns="http://www.w3.org/2000/svg" xmlns:xlink="http://www.w3.org/1999/xlink" x="0px" y="0px"
	 viewBox="0 0 32 32" style="enable-background:new 0 0 32 32;" xml:space="preserve">
<style type="text/css">
	.st0{fill:#008080;}
</style>
<g id="XMLID_70_">
	<g id="XMLID_71_">
		<path id="XMLID_72_" class="st0" d="M31.3,28.3h-1.1V12.9c0-0.3-0.2-0.5-0.5-0.5h-5.8v-1c0-0.2-0.1-0.3-0.2-0.4l-7.1-4.5V4.7h5.8
			c0.3,0,0.5-0.2,0.5-0.5V1.1c0-0.3-0.2-0.5-0.5-0.5H16c-0.3,0-0.5,0.2-0.5,0.5v3.1v2.3L8.3,11c-0.2,0.1-0.2,0.3-0.2,0.4v1H2.3
			c-0.3,0-0.5,0.2-0.5,0.5v15.4H0.7c-0.3,0-0.5,0.2-0.5,0.5v2c0,0.3,0.2,0.5,0.5,0.5h30.5c0.3,0,0.5-0.2,0.5-0.5v-2
			C31.8,28.5,31.5,28.3,31.3,28.3z M16.5,1.7h5.3v2h-5.3V1.7z M23.9,13.4h5.3v14.9h-5.3V13.4z M9.2,12.9v-1.3L16,7.4l6.8,4.3v1.3
			v15.4h-4.2v-4.6c0-1.4-1.2-2.6-2.6-2.6s-2.6,1.1-2.6,2.6v4.6H9.2V12.9z M17.6,23.7v4.6h-3.2v-4.6c0-0.8,0.7-1.5,1.6-1.5
			S17.6,22.8,17.6,23.7z M2.8,13.4h5.3v14.9H2.8V13.4z M30.7,30.3H1.3v-1h1.1h6.3h5.3h4.2h5.3h6.3h1.1V30.3z"/>
	</g>
</g>
<g id="XMLID_67_">
	<g id="XMLID_68_">
		<rect id="XMLID_69_" x="24.9" y="14.5" class="st0" width="1.1" height="1"/>
	</g>
</g>
<g id="XMLID_64_">
	<g id="XMLID_65_">
		<rect id="XMLID_66_" x="27" y="14.5" class="st0" width="1.1" height="1"/>
	</g>
</g>
<g id="XMLID_61_">
	<g id="XMLID_62_">
		<rect id="XMLID_63_" x="24.9" y="16.5" class="st0" width="1.1" height="1"/>
	</g>
</g>
<g id="XMLID_58_">
	<g id="XMLID_59_">
		<rect id="XMLID_60_" x="27" y="16.5" class="st0" width="1.1" height="1"/>
	</g>
</g>
<g id="XMLID_55_">
	<g id="XMLID_56_">
		<rect id="XMLID_57_" x="24.9" y="18.6" class="st0" width="1.1" height="1"/>
	</g>
</g>
<g id="XMLID_52_">
	<g id="XMLID_53_">
		<rect id="XMLID_54_" x="27" y="18.6" class="st0" width="1.1" height="1"/>
	</g>
</g>
<g id="XMLID_49_">
	<g id="XMLID_50_">
		<rect id="XMLID_51_" x="24.9" y="20.6" class="st0" width="1.1" height="1"/>
	</g>
</g>
<g id="XMLID_46_">
	<g id="XMLID_47_">
		<rect id="XMLID_48_" x="27" y="20.6" class="st0" width="1.1" height="1"/>
	</g>
</g>
<g id="XMLID_43_">
	<g id="XMLID_44_">
		<rect id="XMLID_45_" x="24.9" y="22.7" class="st0" width="1.1" height="1"/>
	</g>
</g>
<g id="XMLID_40_">
	<g id="XMLID_41_">
		<rect id="XMLID_42_" x="27" y="22.7" class="st0" width="1.1" height="1"/>
	</g>
</g>
<g id="XMLID_37_">
	<g id="XMLID_38_">
		<rect id="XMLID_39_" x="3.9" y="14.5" class="st0" width="1.1" height="1"/>
	</g>
</g>
<g id="XMLID_34_">
	<g id="XMLID_35_">
		<rect id="XMLID_36_" x="6" y="14.5" class="st0" width="1.1" height="1"/>
	</g>
</g>
<g id="XMLID_31_">
	<g id="XMLID_32_">
		<rect id="XMLID_33_" x="3.9" y="16.5" class="st0" width="1.1" height="1"/>
	</g>
</g>
<g id="XMLID_28_">
	<g id="XMLID_29_">
		<rect id="XMLID_30_" x="6" y="16.5" class="st0" width="1.1" height="1"/>
	</g>
</g>
<g id="XMLID_25_">
	<g id="XMLID_26_">
		<rect id="XMLID_27_" x="3.9" y="18.6" class="st0" width="1.1" height="1"/>
	</g>
</g>
<g id="XMLID_22_">
	<g id="XMLID_23_">
		<rect id="XMLID_24_" x="6" y="18.6" class="st0" width="1.1" height="1"/>
	</g>
</g>
<g id="XMLID_19_">
	<g id="XMLID_20_">
		<rect id="XMLID_21_" x="3.9" y="20.6" class="st0" width="1.1" height="1"/>
	</g>
</g>
<g id="XMLID_16_">
	<g id="XMLID_17_">
		<rect id="XMLID_18_" x="6" y="20.6" class="st0" width="1.1" height="1"/>
	</g>
</g>
<g id="XMLID_13_">
	<g id="XMLID_14_">
		<rect id="XMLID_15_" x="3.9" y="22.7" class="st0" width="1.1" height="1"/>
	</g>
</g>
<g id="XMLID_10_">
	<g id="XMLID_11_">
		<rect id="XMLID_12_" x="6" y="22.7" class="st0" width="1.1" height="1"/>
	</g>
</g>
<g id="XMLID_5_">
	<g id="XMLID_6_">
		<path id="XMLID_7_" class="st0" d="M16,9.9c-2,0-3.7,1.6-3.7,3.6S14,17,16,17s3.7-1.6,3.7-3.6S18,9.9,16,9.9z M16,16
			c-1.5,0-2.6-1.1-2.6-2.6s1.2-2.6,2.6-2.6s2.6,1.1,2.6,2.6S17.5,16,16,16z"/>
	</g>
</g>
<g id="XMLID_2_">
	<g id="XMLID_3_">
		<path id="XMLID_4_" class="st0" d="M15.5,11.4v1.5h-1.1v1H16c0.3,0,0.5-0.2,0.5-0.5v-2H15.5z"/>
	</g>
</g>
</svg>
