<?xml version="1.0" encoding="utf-8"?>
<!-- Generator: Adobe Illustrator 19.0.0, SVG Export Plug-In . SVG Version: 6.00 Build 0)  -->
<svg version="1.1" id="Layer_1" xmlns="http://www.w3.org/2000/svg" xmlns:xlink="http://www.w3.org/1999/xlink" x="0px" y="0px"
	 viewBox="0 0 32 32" style="enable-background:new 0 0 32 32;" xml:space="preserve">
<style type="text/css">
	.st0{fill:none;stroke:#008080;stroke-miterlimit:10;}
</style>
<g id="XMLID_2_">
	<g id="icons_1_">
		<g id="XMLID_3_">
			<path id="XMLID_6_" class="st0" d="M10.1,19.8c-1.2-1.4-1.4-3.7-2.2-4.8c-0.7-0.9-1.8-0.5-1.9,0.3c-0.2,1.2,1.1,4.8,1.7,6
				c0.2,0.3-0.1,0.8-0.6,0.4c-0.5-0.5-2.5-5.1-1.7-8.2c0.4-1.5-0.6-3.1-1.8-2.3c-1.2,0.8-2,7.5-0.1,11.3C5,25.9,8.2,28,8.8,28.4
				c0.4,0.3,0.5,1.7,0.6,2.6c0,0.4,0.1,0.7,0.6,0.7c0.5,0,1.5,0,3,0c0.7,0,0.8-0.5,0.8-0.7C13.7,25.3,14,24.5,10.1,19.8z"/>
			<path id="XMLID_5_" class="st0" d="M21.5,19.8c1.2-1.4,1.4-3.7,2.2-4.8c0.7-0.9,1.8-0.5,1.9,0.3c0.2,1.2-1.1,4.8-1.7,6
				c-0.2,0.3,0.1,0.8,0.6,0.4c0.5-0.5,2.5-5.1,1.7-8.2c-0.4-1.5,0.6-3.1,1.8-2.3c1.2,0.8,2,7.5,0.1,11.3c-1.6,3.3-4.8,5.5-5.4,5.8
				c-0.4,0.3-0.5,1.7-0.6,2.6c0,0.4-0.1,0.7-0.6,0.7c-0.5,0-1.5,0-3,0c-0.7,0-0.8-0.5-0.8-0.7C17.8,25.3,17.5,24.5,21.5,19.8z"/>
			<path id="XMLID_4_" class="st0" d="M19.6,1.5c-1.5,0-2.9,0.6-3.9,1.7c-1-1-2.4-1.7-3.9-1.7c-3.1,0-5.6,2.6-5.6,5.8
				c0,1.2,0.4,2.4,1,3.3c0.3,0.4,0.6,0.8,0.9,1.1l5.8,6c0.6,0.6,1.2,1.2,1.7,1.2c0,0,0,0,0,0c0,0,0,0,0,0c0.6,0,1.2-0.6,1.7-1.2
				l5.8-6c0.4-0.3,0.7-0.7,0.9-1.1c0.6-0.9,1-2.1,1-3.3C25.2,4.1,22.7,1.5,19.6,1.5z"/>
		</g>
	</g>
</g>
</svg>
