<svg xmlns="http://www.w3.org/2000/svg" id="Layer_1" viewBox="0 0 32 32">
  <style>
    .st0{fill:#008080;}
  </style>
  <g id="XMLID_2_">
    <g id="XMLID_3_">
      <g id="XMLID_4_">
        <path id="XMLID_14_" d="M26.3 8l.5.7.2-.9c.6-1.8.7-2.4.4-3.2-.3-.7-.8-1.3-1.5-1.7-1.1-.6-1.9-.5-4 .5l-1 .5 1 .5c2.4 1.2 2.7 1.4 4.4 3.6zm-.6-4.1c.5.3.9.7 1.1 1.2.1.3.1.5-.2 1.5-1.2-1.4-1.8-1.9-3.1-2.6 1.2-.5 1.6-.3 2.2-.1z" class="st0"/>
        <path id="XMLID_11_" d="M23.2 14.5c-.1-1.6-.7-3.1-1.8-4.2-1-1.1-2.3-1.6-3.9-1.6s-2.9.5-3.9 1.6c-1.2 1.3-1.9 2.7-2 4.2v.6h11.8l-.2-.6zM12.6 14c.2-1 .7-2 1.6-2.9.9-.9 1.9-1.3 3.3-1.3s2.4.4 3.3 1.3c.8.8 1.3 1.7 1.4 2.9h-9.6z" class="st0"/>
        <path id="XMLID_8_" d="M22.4 20.4l-.1.3c-.5.9-1.2 1.7-1.9 2.2-.8.5-1.7.7-2.6.7-.9 0-1.8-.2-2.6-.7-.8-.5-1.4-1.2-1.9-2.1-.3-.7-.6-1.3-.7-2H30v-.5-1.1-.6c0-2.4-.1-4.8-1.1-6.9 1.2-3.5 1-6.1-.6-7.9C27.5 1 26.1.6 24.2.7c-1.8.1-3.8.7-5.9 1.7-.3-.1-.5-.1-.8-.1-2.9 0-5.1 1-8.1 3C7.2 7 4.9 9 3.3 13.3l.8.6c1.5-1.4 3.1-2.7 4.6-3.8-1.9 2.1-2.5 3.3-3.3 4.6l-.2.3c-1.2 2.2-2.1 4.2-2.6 6-.5 1.8-.8 3.5-.8 5 0 1.6.3 2.7 1 3.5.9 1 2.1 1.5 3.6 1.5s3.3-.5 5.5-1.6c1.8.9 3.7 1.4 5.7 1.4 2.8 0 5.4-.9 7.6-2.6 2.2-1.7 3.8-4.1 4.7-7l.2-.7-7.7-.1zm2.2 6.8c-2 1.6-4.4 2.5-7 2.5-1.9 0-3.8-.5-5.5-1.4l-.2-.2-.2.1c-3.8 2-6.5 2.2-8.1.4-.5-.5-.8-1.4-.8-2.7 0-1.4.2-3 .8-4.7.5-1.7 1.4-3.6 2.5-5.7l.1-.3c.9-1.5 1.6-2.8 4-5.4l.6-.6c.5-.6.8-1 1-1.2l-.5-.9c-1.9.9-4.1 2.5-6.2 4.3C6.6 9 8.3 7.5 10 6.4c2.8-1.8 4.9-2.8 7.6-2.8.3 0 .6 0 .9.1h.1l.1-.1c2-1 3.9-1.6 5.7-1.7 1.6-.2 2.7.1 3.3.7 1.3 1.4 1.4 3.8.3 7l-.1.2.1.2c1 2 1.1 4.2 1.1 6.6v1.1H11.6v.5c0 1.1.4 2.1.9 3.1s1.3 1.8 2.2 2.4c.9.6 2 .9 3.1.9s2.2-.3 3.1-.9c.8-.5 1.5-1.3 2-2.3h5.8c-.9 2.4-2.3 4.3-4.1 5.8z" class="st0"/>
        <path id="XMLID_5_" d="M6.1 21l-.4-1.2-.5 1.1c-1.6 3.4-2.4 5.5-.8 7.2.6.6 1.2.9 2 .9 1 0 2.3-.5 3.9-1.3l.8-.4-.8-.5c-2.4-1.6-3.2-2.9-4.2-5.8zm-1 6.3c-.9-.9-.8-2 .5-4.9.8 2.1 1.6 3.3 3.5 4.6-2.3 1.1-3.2 1.2-4 .3z" class="st0"/>
      </g>
    </g>
  </g>
</svg>
