<?xml version="1.0" encoding="utf-8"?>
<!-- Generator: Adobe Illustrator 19.0.0, SVG Export Plug-In . SVG Version: 6.00 Build 0)  -->
<svg version="1.1" id="Layer_1" xmlns="http://www.w3.org/2000/svg" xmlns:xlink="http://www.w3.org/1999/xlink" x="0px" y="0px"
	 viewBox="0 0 32 32" style="enable-background:new 0 0 32 32;" xml:space="preserve">
<style type="text/css">
	.st0{fill:#008080;}
</style>
<g id="XMLID_2_">
	<g id="XMLID_3_">
		<g id="XMLID_4_">
			<path id="XMLID_27_" class="st0" d="M11.9,15.1l2-2.4l-2.4-3.3H5.9l-2.4,3.3l2,2.4c-3.2,1.2-5.4,4-5.4,7.4c0,4.4,3.9,8,8.7,8
				s8.7-3.6,8.7-8C17.4,19.2,15.1,16.3,11.9,15.1z M10.9,14.8c-0.2,0-0.3-0.1-0.5-0.1l0.7-1.6h1.2L10.9,14.8z M11,10.4l1.4,1.9H11
				l-1-1.9H11z M8.5,10.4h0.4l1,1.9H7.5L8.5,10.4z M10,13.2l-0.6,1.4c-0.2,0-0.4,0-0.7,0c-0.2,0-0.4,0-0.7,0l-0.6-1.4H10z M6.4,10.4
				h0.9l-1,1.9H5L6.4,10.4z M5.1,13.2h1.2L7,14.7c-0.2,0-0.3,0.1-0.5,0.1L5.1,13.2z M8.7,29.6c-4.2,0-7.7-3.2-7.7-7s3.4-7,7.7-7
				s7.7,3.2,7.7,7S12.9,29.6,8.7,29.6z"/>
			<path id="XMLID_24_" class="st0" d="M8.7,16.4C5,16.4,2,19.2,2,22.5s3,6.1,6.6,6.1s6.6-2.7,6.6-6.1S12.3,16.4,8.7,16.4z
				 M8.7,27.7c-3.1,0-5.6-2.3-5.6-5.2s2.5-5.2,5.6-5.2s5.6,2.3,5.6,5.2S11.8,27.7,8.7,27.7z"/>
			<path id="XMLID_5_" class="st0" d="M31.6,15c0-0.7-0.4-1.3-1.1-1.6c0.6-0.3,1.1-0.9,1.1-1.6c0-0.9-0.8-1.7-1.8-1.8
				c0.4-0.3,0.7-0.9,0.7-1.4c0-0.9-0.8-1.7-1.8-1.8c0.4-0.3,0.7-0.9,0.7-1.4c0-1-0.9-1.9-2-1.9c-0.4,0-0.7,0.1-1.1,0.3
				c0-0.1,0-0.2,0-0.3c0-1-0.9-1.9-2-1.9s-2,0.8-2,1.9c0,0.1,0,0.2,0,0.3c-0.3-0.2-0.7-0.3-1.1-0.3c-1.1,0-2,0.8-2,1.9
				c0,0.6,0.3,1.1,0.7,1.4c-1,0.1-1.8,0.9-1.8,1.8c0,0.6,0.3,1.1,0.7,1.4c-1,0.1-1.8,0.9-1.8,1.8c0,0.7,0.4,1.3,1.1,1.6
				c-0.6,0.3-1.1,0.9-1.1,1.6c0,0.7,0.4,1.3,1.1,1.6c-0.6,0.3-1.1,0.9-1.1,1.6c0,0.9,0.8,1.7,1.8,1.8c-0.4,0.3-0.7,0.9-0.7,1.4
				c0,0.9,0.8,1.7,1.8,1.8c-0.4,0.3-0.7,0.9-0.7,1.4c0,1,0.9,1.9,2,1.9c0.4,0,0.7-0.1,1.1-0.3c0,0.1,0,0.2,0,0.3c0,1,0.9,1.9,2,1.9
				s2-0.8,2-1.9c0-0.1,0-0.2,0-0.3c0.3,0.2,0.7,0.3,1.1,0.3c1.1,0,2-0.8,2-1.9c0-0.6-0.3-1.1-0.7-1.4c1-0.1,1.8-0.9,1.8-1.8
				c0-0.6-0.3-1.1-0.7-1.4c1-0.1,1.8-0.9,1.8-1.8c0-0.7-0.4-1.3-1.1-1.6C31.2,16.4,31.6,15.8,31.6,15z M30.6,11.8
				c0,0.5-0.5,0.9-1,0.9c-0.6,0-1-0.4-1-0.9s0.5-0.9,1-0.9C30.2,10.8,30.6,11.2,30.6,11.8z M29.6,8.5c0,0.5-0.5,0.9-1,0.9
				c-0.6,0-1-0.4-1-0.9s0.5-0.9,1-0.9C29.1,7.5,29.6,8,29.6,8.5z M27.6,4.3c0.6,0,1,0.4,1,0.9s-0.5,0.9-1,0.9c-0.6,0-1-0.4-1-0.9
				S27,4.3,27.6,4.3z M24.5,2.4c0.6,0,1,0.4,1,0.9s-0.5,0.9-1,0.9c-0.6,0-1-0.4-1-0.9S23.9,2.4,24.5,2.4z M21.4,4.3
				c0.6,0,1,0.4,1,0.9s-0.5,0.9-1,0.9c-0.6,0-1-0.4-1-0.9S20.9,4.3,21.4,4.3z M20.4,7.5c0.6,0,1,0.4,1,0.9s-0.5,0.9-1,0.9
				c-0.6,0-1-0.4-1-0.9S19.9,7.5,20.4,7.5z M18.4,11.8c0-0.5,0.5-0.9,1-0.9c0.6,0,1,0.4,1,0.9s-0.5,0.9-1,0.9
				C18.8,12.7,18.4,12.3,18.4,11.8z M18.4,15c0-0.5,0.5-0.9,1-0.9c0.6,0,1,0.4,1,0.9S20,16,19.4,16C18.8,16,18.4,15.6,18.4,15z
				 M18.4,18.3c0-0.5,0.5-0.9,1-0.9c0.6,0,1,0.4,1,0.9c0,0.5-0.5,0.9-1,0.9C18.8,19.3,18.4,18.8,18.4,18.3z M19.4,21.6
				c0-0.5,0.5-0.9,1-0.9c0.6,0,1,0.4,1,0.9c0,0.5-0.5,0.9-1,0.9C19.9,22.5,19.4,22.1,19.4,21.6z M21.4,25.8c-0.6,0-1-0.4-1-0.9
				c0-0.5,0.5-0.9,1-0.9c0.6,0,1,0.4,1,0.9C22.5,25.4,22,25.8,21.4,25.8z M24.5,27.7c-0.6,0-1-0.4-1-0.9c0-0.5,0.5-0.9,1-0.9
				c0.6,0,1,0.4,1,0.9C25.5,27.3,25.1,27.7,24.5,27.7z M25.5,24.9c0,0.1,0,0.2,0,0.3c-0.3-0.2-0.7-0.3-1.1-0.3s-0.7,0.1-1.1,0.3
				c0-0.1,0-0.2,0-0.3c0-0.9-0.8-1.7-1.8-1.8c0.4-0.3,0.7-0.9,0.7-1.4c0-0.9-0.8-1.7-1.8-1.8c0.4-0.3,0.7-0.9,0.7-1.4
				c0-0.7-0.4-1.3-1.1-1.6c0.6-0.3,1.1-0.9,1.1-1.6c0-0.7-0.4-1.3-1.1-1.6c0.6-0.3,1.1-0.9,1.1-1.6c0-0.6-0.3-1.1-0.7-1.4
				c1-0.1,1.8-0.9,1.8-1.8c0-0.6-0.3-1.1-0.7-1.4c1-0.1,1.8-0.9,1.8-1.8c0-0.1,0-0.2,0-0.3c0.3,0.2,0.7,0.3,1.1,0.3s0.7-0.1,1.1-0.3
				c0,0.1,0,0.2,0,0.3c0,0.9,0.8,1.7,1.8,1.8c-0.4,0.3-0.7,0.9-0.7,1.4c0,0.9,0.8,1.7,1.8,1.8c-0.4,0.3-0.7,0.9-0.7,1.4
				c0,0.7,0.4,1.3,1.1,1.6c-0.6,0.3-1.1,0.9-1.1,1.6c0,0.7,0.4,1.3,1.1,1.6c-0.6,0.3-1.1,0.9-1.1,1.6c0,0.6,0.3,1.1,0.7,1.4
				c-1,0.1-1.8,0.9-1.8,1.8c0,0.6,0.3,1.1,0.7,1.4C26.3,23.2,25.5,23.9,25.5,24.9z M27.6,25.8c-0.6,0-1-0.4-1-0.9
				c0-0.5,0.5-0.9,1-0.9c0.6,0,1,0.4,1,0.9C28.6,25.4,28.1,25.8,27.6,25.8z M28.6,22.5c-0.6,0-1-0.4-1-0.9c0-0.5,0.5-0.9,1-0.9
				c0.6,0,1,0.4,1,0.9C29.6,22.1,29.1,22.5,28.6,22.5z M30.6,18.3c0,0.5-0.5,0.9-1,0.9c-0.6,0-1-0.4-1-0.9c0-0.5,0.5-0.9,1-0.9
				C30.2,17.4,30.6,17.8,30.6,18.3z M29.6,16c-0.6,0-1-0.4-1-0.9s0.5-0.9,1-0.9c0.6,0,1,0.4,1,0.9S30.2,16,29.6,16z"/>
		</g>
	</g>
</g>
</svg>
