<svg xmlns="http://www.w3.org/2000/svg" id="Capa_1" viewBox="228 -227.9 487.9 487.9">
  <style>
    .st0{fill:#008080;}
  </style>
  <path d="M608.8-129.9c.8 0 1.6 0 2.4-.1 27-1.3 47.9-24.3 46.6-51.3-1.3-26.9-24.1-47.9-51.3-46.6-27 1.3-47.9 24.3-46.6 51.3 1.2 26.2 22.7 46.7 48.9 46.7zm-2-89.5h2c21.6 0 39.4 16.9 40.4 38.5 1.1 22.3-16.2 41.3-38.5 42.4-22.5 1.1-41.3-16.2-42.4-38.5-1-22.3 16.2-41.3 38.5-42.4zM668.4 44.5l-6.2-126.6c-1.3-26.6-24-47.1-50.5-45.9-26.6 1.3-47.2 24-45.9 50.5l-66.5 45.3c-5.4 3.7-9.1 9.3-10.3 15.7-1.2 6.4.1 13 3.8 18.4 4.6 6.7 12.2 10.8 20.3 10.8 4.9 0 9.7-1.5 13.8-4.3L568.6-20l3.4 69.1c.7 13.4 6.8 25.8 17 34.5v143.9c0 17.9 14.5 32.4 32.4 32.4s32.4-14.5 32.4-32.4V81.4c10-9.7 15.3-23 14.6-36.9zM522.1 1.4c-2.7 1.8-5.8 2.8-9 2.8-5.3 0-10.3-2.6-13.3-7-2.4-3.5-3.3-7.8-2.5-12s3.2-7.9 6.7-10.3L600.9-91c2.7-1.8 5.8-2.8 9-2.8 5.3 0 10.3 2.6 13.3 7 5 7.3 3.1 17.3-4.2 22.3L522.1 1.4zm123.3 226.2c0 13.2-10.7 23.9-23.9 23.9H620V194c0-2.3-1.9-4.3-4.3-4.3s-4.3 1.9-4.3 4.3v55.3c-8.2-3.8-14-12.1-14-21.7V65.1c0-13.2 10.7-23.9 23.9-23.9s23.9 10.7 23.9 23.9v162.5h.2zm-24-195C603.5 32.6 589 47.1 589 65v6.4c-5.1-6.4-8.1-14.3-8.5-22.7l-3.6-74.3 46.9-31.9c11.2-7.6 14.1-22.9 6.5-34.1-4.6-6.7-12.2-10.8-20.3-10.8-4.9 0-9.7 1.5-13.8 4.3l-21.7 14.8c1.7-19.5 17.6-35.3 37.7-36.2 21.9-1.1 40.6 15.9 41.6 37.8L660 44.9c.4 8.2-1.7 16.3-6 23.1v-2.9c-.1-17.9-14.7-32.5-32.6-32.5z" class="st0"/>
  <path d="M615.7 101.3c-2.3 0-4.3 1.9-4.3 4.3v60c0 2.3 1.9 4.3 4.3 4.3 2.3 0 4.3-1.9 4.3-4.3v-60c0-2.4-1.9-4.3-4.3-4.3zM475 195l15.2-242.5h10.5c2.3 0 4.3-1.9 4.3-4.3 0-.4-.1-.8-.2-1.1l-5.6-32.6c-.4-2-2.1-3.5-4.2-3.5H285.4c-2.1 0-3.8 1.5-4.2 3.5l-5.7 33c-.2 1.2.1 2.5.9 3.5s2 1.5 3.3 1.5h10.5l16.8 267c.1 2.2 2 4 4.2 4h129.3c.7 14.9 13 26.8 28 26.8 15.5 0 28-12.6 28-28 .1-13.2-9.1-24.4-21.5-27.3zM300.8-15.5h178.9L478.5 4H302l-1.2-19.5zm-11.8-65h202.5l4.2 24.5H284.8l4.2-24.5zm192.7 33L480.2-24h-180l-1.5-23.5h183zm-168 238H401c2.3 0 4.3-1.9 4.3-4.3s-1.9-4.3-4.3-4.3h-87.8l-1.9-30.5H346c2.3 0 4.3-1.9 4.3-4.3s-1.9-4.3-4.3-4.3h-35.3l-8.2-130.5H478L473.1 90h-105c-2.3 0-4.3 1.9-4.3 4.3s1.9 4.3 4.3 4.3h104.4l-6 95.8c-12.1.9-22 9.4-25.1 20.7H315.2l-1.5-24.6zm154.8 51.3c-10.8 0-19.5-8.8-19.5-19.5 0-10.8 8.8-19.5 19.5-19.5s19.5 8.8 19.5 19.5c.1 10.8-8.7 19.5-19.5 19.5z" class="st0"/>
</svg>
