<svg xmlns="http://www.w3.org/2000/svg" id="Layer_1" viewBox="0 0 32 32">
  <style>
    .st0{fill:#008080;}
  </style>
  <path d="M21 3.4c4 0 7.3 3.4 7.3 7.6S25 18.6 21 18.6s-7.5-3.4-7.5-7.6 3.3-7.6 7.4-7.6zM21 1c-5.5 0-10 4.4-10 10s4.5 10 10 10 9.7-4.5 9.7-10S26.3 1 21 1zm-6.7 20.6l-1.8 2h-4V26H6.3v2.6H3.7V26l7.2-7.6c-.6-.7-1-1.5-1.4-2.3l-8.4 9V31h7.4v-2.5H11v-2.5h2.6l3-3.4c-1-.4-1.6-.8-2.3-1.2zm9-14.4c.8 0 1.3.6 1.3 1.3 0 .7-.6 1.3-1.2 1.3-.7 0-1.2-.6-1.2-1.3 0-.8.5-1.3 1.2-1.3zm0-1.3C22 6 21 7 21 8.3s1 2.6 2.4 2.6S26 10 26 8.5 24.6 6 23.3 6z" class="st0"/>
</svg>
