<?xml version="1.0" encoding="utf-8"?>
<!-- Generator: Adobe Illustrator 19.0.0, SVG Export Plug-In . SVG Version: 6.00 Build 0)  -->
<svg version="1.1" id="Layer_1" xmlns="http://www.w3.org/2000/svg" xmlns:xlink="http://www.w3.org/1999/xlink" x="0px" y="0px"
	 viewBox="0 0 32 32" style="enable-background:new 0 0 32 32;" xml:space="preserve">
<style type="text/css">
	.st0{fill:#008080;}
</style>
<path class="st0" d="M20.9,3.4c4.1,0,7.4,3.4,7.4,7.6s-3.3,7.6-7.4,7.6s-7.4-3.4-7.4-7.6S16.8,3.4,20.9,3.4z M20.9,0.9
	c-5.4,0-9.8,4.5-9.8,10.1S15.5,21,20.9,21s9.8-4.5,9.8-10.1S26.3,0.9,20.9,0.9z M14.3,21.6l-1.8,2H8.6v2.5H6.2v2.5H3.7v-2.7l7.2-7.5
	c-0.5-0.7-0.9-1.5-1.3-2.3l-8.4,8.8v6.3h7.4v-2.5h2.5v-2.5h2.5l3-3.4C15.7,22.4,15,22,14.3,21.6z M23.4,7.2c0.7,0,1.2,0.6,1.2,1.3
	c0,0.7-0.6,1.3-1.2,1.3c-0.7,0-1.2-0.6-1.2-1.3C22.1,7.7,22.7,7.2,23.4,7.2z M23.4,5.9c-1.4,0-2.5,1.1-2.5,2.5S22,11,23.4,11
	c1.4,0,2.5-1.1,2.5-2.5S24.7,5.9,23.4,5.9z"/>
</svg>
