<svg xmlns="http://www.w3.org/2000/svg" id="Layer_1" viewBox="0 0 32 32">
  <style>
    .st0{fill:#008080;}
  </style>
  <g id="XMLID_2_">
    <g id="XMLID_3_">
      <path id="XMLID_13_" d="M21.8 17.4h-4c-1 0-1.8 1-1.8 2.3v3.6c0 1.3 1 2.3 2 2.3h3.8c1 0 2-1 2-2.3v-3.6c0-1.3-1-2.3-2-2.3zm.5 6c0 .3-.2.5-.5.5h-4c-.2 0-.4-.4-.4-.7v-3.6c0-.4.2-.6.5-.6h3.8c.3 0 .5.4.5.7v3.6z" class="st0"/>
      <path id="XMLID_4_" d="M30 10.8v-.4l-4.3-9c0-.4-.4-.5-.6-.5H6.4c-.3-.2-.5 0-.6.3l-4.3 9v.5c0 2 1 3.8 2.4 4.6v15c0 .5.3 1 .7 1H27c.3 0 .6-.5.6-1v-15c1.5-.8 2.5-2.6 2.5-4.6zM6.8 2.5h18l3.4 7H3.4l3.4-7zm15 8.8c0 1.5-1.2 2.7-2.6 2.7-1.2 0-2.4-1.2-2.6-2.7h5.4zm-6.7 0c-.2 1.5-1.3 2.7-2.7 2.7s-2.5-1.2-2.7-2.7H15zm-12.3 0H8C8 13 7 14 5.5 14 4 14 3 13 2.7 11.3zm10.5 18.2h-4v-9.2c0-.7.3-1.2 1-1.2h2c.6 0 1 .6 1 1.3v9.2zm13 0H14.6v-9.2c0-1.6-1-3-2.4-3h-2c-1.4 0-2.5 1.4-2.5 3v9.2H5.2V15.7h.2c1.4 0 2.7-1 3.4-2.2.7 1.3 2 2.2 3.4 2.2s2.7-1 3.4-2.2c.7 1.3 2 2.2 3.4 2.2s2.7-1 3.4-2.2c.7 1.3 2 2.2 3.4 2.2h.2l.2 13.8zM26 14c-1.3 0-2.5-1-2.7-2.6h5.4C28.4 13 27.3 14 26 14z" class="st0"/>
    </g>
  </g>
</svg>
