<svg xmlns="http://www.w3.org/2000/svg" id="Layer_1" viewBox="0 0 32 32">
  <style>
    .st0{fill:#008080;}
  </style>
  <path id="XMLID_2_" d="M19.2 24.6l-1.1-9.1c0-.3-.2-.4-.3-.4h-3.3v-.9c0-1-.5-2.6-1.1-2.6h-2.2c-.2 0-.3.3-.3.6V14c0 .3.1.6.3.6h1.3c.1 0 .2.1.2.2v.3h-2V13c0-.7-.3-1.4-.7-1.4h-.2c-.4 0-.7.6-.7 1.4v2.1h-2v-.3c0-.1.1-.2.2-.2h1.3c.2 0 .4-.3.4-.6v-1.8c0-.3-.1-.6-.3-.6H6.4c-.6 0-1.1 1.6-1.1 2.6v.9H2c-.1 0-.3.2-.3.4L.6 24.6c0 .2 0 .4.1.5.1.1.1.2.2.2h.7v1.2c0 .3.1.6.3.6h1.4c.2 0 .3-.3.3-.6v-1.2h12.7v1.2c0 .3.1.6.3.6H18c.2 0 .3-.3.3-.6v-1.2h.7c.1 0 .2-.1.2-.2v-.5zm-6.7-11.2h-1v-.6h2c.2 0 .5 1 .5 1.5v.9h-.6v-.3c-.2-.9-.5-1.5-.9-1.5zm-2.7-.5c0-.1 0-.2.1-.2h.1s.1.1.1.2V15h-.3v-2.1zm-3.9 1.3c0-.5.3-1.5.5-1.5h2v.6h-1c-.4 0-.8.6-.8 1.4v.3h-.7v-.8zm-3 11.7h-.7v-.6H3v.6zm14.7 0h-.8v-.6h.8v.6zm.3-1.7H1.2l1-7.9H17.6l1 7.9h-.7zm-8-7.4c-.9 0-1.7 1.5-1.7 3.4s.8 3.4 1.7 3.4c.9 0 1.7-1.5 1.7-3.4s-.8-3.4-1.7-3.4zm0 5.7c-.6 0-1.1-1-1.1-2.2 0-1.3.5-2.3 1.1-2.3.6 0 1.1 1 1.1 2.2 0 1.3-.5 2.3-1.1 2.3zm.6-1.8c.1.2.1.6 0 .8-.1.1-.1.2-.2.2s-.2-.1-.2-.2l-.9-1.9c-.1-.2-.1-.6 0-.8.1-.2.3-.2.4 0l.9 1.9zm-2.8.9c-.2 0-.3-.2-.3-.5v-.9c0-1.2.2-2.3.6-3.1.1-.2.3-.3.4 0 .1.2.1.6 0 .8-.3.6-.4 1.4-.4 2.3v.7c0 .3-.1.7-.3.7zm.7 1c.1.2.1.6 0 .8-.1.1-.1.2-.2.2s-.1-.1-.2-.2c-.1-.2-.2-.4-.3-.7-.1-.3-.1-.6.1-.8.1-.2.3-.1.4.2.1.3.1.4.2.5z" class="st0"/>
  <g id="XMLID_15_">
    <path id="XMLID_24_" d="M25.5 23.4c-.9 0-1.6 1.2-1.6 2.6 0 1.4.7 2.6 1.6 2.6.9 0 1.6-1.2 1.6-2.6 0-1.5-.7-2.6-1.6-2.6zm0 3.9c-.4 0-.8-.6-.8-1.3 0-.5.2-.9.4-1.1v.6c0 .4.2.6.4.6s.4-.3.4-.6v-.6c.2.2.4.6.4 1.1 0 .7-.3 1.3-.8 1.3z" class="st0"/>
    <path id="XMLID_16_" d="M31.7 9.8c0-1.1-.5-2-1.1-2.3V6c0-.6-.1-1.5-.9-2.1-.6-.5-1.5-.8-2.9-.9-.2-1-.7-1.7-1.4-1.7-.6 0-1.2.7-1.4 1.7-1.3.1-2.3.4-2.9.9-.8.6-.9 1.5-.9 2.1v1.5c-.6.3-1.1 1.2-1.1 2.3 0 1.2.6 2.2 1.3 2.3.4 5 1.2 7.9 1.6 9.2-.3.2-.6.6-.7 1.1L20 29c-.1.4-.1.8.1 1.1.1.3.4.5.6.5h9.6c.3 0 .5-.2.6-.5.1-.3.2-.7.1-1.1l-1.5-6.6c-.1-.5-.4-.9-.7-1.1.4-1.3 1.2-4.2 1.6-9.2.7-.1 1.3-1.1 1.3-2.3zm-.8 0c0 .4-.2.8-.4 1 0-.6.1-1.2.1-1.9.2.2.3.5.3.9zm-7.7 11.4c-.2-.6-1.9-4.9-2-14.6h8.6c-.1 9.6-1.7 14-2 14.6h-4.6zm2.3-18.6c.2 0 .3.1.5.3h-1c.2-.2.3-.3.5-.3zM21.6 5c.7-.5 2-.8 3.9-.8s3.2.3 3.9.8l.3.3h-8.3c0-.1.1-.2.2-.3zm-1.4 4.8c0-.4.1-.7.3-.9 0 .6.1 1.3.1 1.9-.3-.2-.4-.6-.4-1zm10 19.5h-9.4l1.5-6.5c0-.1.2-.3.3-.3h5.8c.1 0 .2.2.3.3l1.5 6.5z" class="st0"/>
  </g>
</svg>
