<?xml version="1.0" encoding="utf-8"?>
<!-- Generator: Adobe Illustrator 19.0.0, SVG Export Plug-In . SVG Version: 6.00 Build 0)  -->
<svg version="1.1" id="Layer_1" xmlns="http://www.w3.org/2000/svg" xmlns:xlink="http://www.w3.org/1999/xlink" x="0px" y="0px"
	 viewBox="0 0 32 32" style="enable-background:new 0 0 32 32;" xml:space="preserve">
<style type="text/css">
	.st0{fill:#008080;}
</style>
<g id="XMLID_2_" transform="translate(0 -540.36)">
	<g id="XMLID_3_">
		<g id="XMLID_4_">
			<path id="XMLID_14_" class="st0" d="M29.1,542.3L29.1,542.3H16.6v-1.3c0-0.4-0.3-0.7-0.6-0.7c-0.3,0-0.6,0.3-0.6,0.7v1.3H3
				c-0.3,0-0.6,0.3-0.6,0.7v17.4c0,0.4,0.3,0.7,0.6,0.7H9l-0.9,3.1v0l-2,7.3c-0.1,0.3,0.1,0.7,0.4,0.8c0.1,0,0.1,0,0.2,0
				c0.2,0,0.5-0.2,0.6-0.5L9,565h13.4l1.9,6.8c0.1,0.3,0.3,0.5,0.6,0.5c0.1,0,0.1,0,0.2,0c0.3-0.1,0.5-0.5,0.4-0.8L22.5,561H29
				c0.3,0,0.6-0.3,0.6-0.7V543C29.6,542.6,29.4,542.3,29.1,542.3z M9.4,563.7l0.8-2.7h11.2l0.8,2.7H9.4z M28.5,559.7h-6.7h0h-12h0
				H3.6v-16.1h24.9L28.5,559.7L28.5,559.7z"/>
			<path id="XMLID_11_" class="st0" d="M6.9,552.9c0.3,0.2,0.6,0,0.8-0.3l0.7-1.6h2.2l0.7,1.6c0.1,0.2,0.3,0.4,0.5,0.4
				c0.1,0,0.2,0,0.3-0.1c0.3-0.2,0.4-0.6,0.3-0.9l-2.3-5.4c-0.1-0.2-0.3-0.4-0.5-0.4c-0.2,0-0.4,0.1-0.5,0.4l-2.3,5.4
				C6.5,552.4,6.7,552.8,6.9,552.9z M9.5,548.5l0.5,1.2H9L9.5,548.5z"/>
			<path id="XMLID_7_" class="st0" d="M15.4,556.4h1.2c0.6,0,1.2-0.3,1.5-1c0,0,0,0,0,0c0.3-0.6,0.3-1.4,0-2l0,0
				c-0.1-0.1-0.1-0.3-0.2-0.4c0.1-0.1,0.1-0.2,0.2-0.3c0.3-0.6,0.3-1.3,0-2c-0.3-0.6-0.9-1-1.5-1h-1.2c-0.3,0-0.6,0.3-0.6,0.7v5.4
				C14.9,556.1,15.1,556.4,15.4,556.4z M16,551h0.7l0,0c0.2,0,0.4,0.1,0.5,0.3c0,0,0,0,0,0c0.1,0.2,0.1,0.5,0,0.7
				c-0.1,0.2-0.3,0.3-0.5,0.3H16V551L16,551z M16,553.7h0.6c0,0,0,0,0,0c0,0,0,0,0,0c0.2,0,0.4,0.1,0.4,0.3c0,0,0,0.1,0,0.1
				c0.1,0.2,0.1,0.4,0,0.7l0,0c-0.1,0.2-0.3,0.3-0.5,0.3H16V553.7z"/>
			<path id="XMLID_6_" class="st0" d="M22.6,558.4c0,0.4,0.3,0.7,0.6,0.7h2.9c0.3,0,0.6-0.3,0.6-0.7s-0.3-0.7-0.6-0.7h-2.9
				C22.8,557.7,22.6,558,22.6,558.4z"/>
			<path id="XMLID_5_" class="st0" d="M23.7,553h0.6c0.3,0,0.6-0.3,0.6-0.7s-0.3-0.7-0.6-0.7h-0.6c-0.6,0-1.3-0.3-1.5-0.9l0,0
				c-0.3-0.5-0.3-1.1,0-1.6l0,0c0.3-0.5,0.9-0.9,1.5-0.9h0.6c0.3,0,0.6-0.3,0.6-0.7c0-0.4-0.3-0.7-0.6-0.7h-0.6c-1,0-2,0.6-2.5,1.4
				c-0.6,1-0.6,2.2,0,3.1C21.7,552.4,22.7,553,23.7,553z"/>
		</g>
	</g>
</g>
</svg>
