<svg xmlns="http://www.w3.org/2000/svg" id="Layer_1" viewBox="0 0 32 32"><style>.st0{fill:none;stroke:#008080;stroke-miterlimit:10;} .st1{fill:#008080;}</style><g id="XMLID_2_"><g id="XMLID_3_"><path id="XMLID_5_" d="M28.7 21.4V6.9c0-.6-.5-1.1-1.2-1.1H4.1c-.6 0-1.2.5-1.2 1.1v14.5L0 24.7c0 .9.8 1.7 1.8 1.7h28.1c1 0 1.8-.7 1.8-1.7l-3-3.3zm-10.6 4.4h-4.7c-.2 0-.3-.1-.3-.3 0-.2.1-.3.3-.3h4.7c.2 0 .3.1.3.3 0 .2-.1.3-.3.3zM11 24.7l.9-1h7.9l.9 1H11zm16-5.2c0 .5-.5 1-1 1H5.6c-.6 0-1-.4-1-1V7.9c0-.5.5-1 1-1H26c.6 0 1 .4 1 1v11.6z" class="st0"/><path id="XMLID_4_" d="M17.9 14.4L15 11.6c.2-.7.1-1.4-.5-2-.5-.5-1.3-.7-2-.5l1.2 1.2.1.6-.8.9-.6-.1-1.2-1.2c-.2.6 0 1.3.5 1.8.6.5 1.4.7 2.1.5l2.9 2.7c-.2.7-.1 1.4.5 2 .5.5 1.3.7 2 .5L18 16.8l-.1-.6.9-.8.7.1 1.2 1.2c.2-.6 0-1.3-.5-1.8-.8-.6-1.6-.8-2.3-.5z" class="st1"/></g></g><path id="XMLID_1_" d="M3 21.5h26" class="st0"/></svg>