<?xml version="1.0" encoding="utf-8"?>
<!-- Generator: Adobe Illustrator 19.0.0, SVG Export Plug-In . SVG Version: 6.00 Build 0)  -->
<svg version="1.1" id="Layer_1" xmlns="http://www.w3.org/2000/svg" xmlns:xlink="http://www.w3.org/1999/xlink" x="0px" y="0px"
	 viewBox="0 0 32 32" style="enable-background:new 0 0 32 32;" xml:space="preserve">
<style type="text/css">
	.st0{fill:#008080;}
</style>
<g id="XMLID_2_">
	<g id="XMLID_3_">
		<g id="XMLID_4_">
			<path id="XMLID_15_" class="st0" d="M13.9,15c-0.1-0.1-2.9-1.5-4.3-2C9.3,12.9,9,13,8.9,13.3c-0.1,0.3,0.1,0.5,0.3,0.6
				c1.4,0.5,4.2,1.9,4.2,2c0.1,0,0.1,0.1,0.2,0.1c0.2,0,0.3-0.1,0.4-0.3C14.2,15.4,14.1,15.1,13.9,15z"/>
			<path id="XMLID_14_" class="st0" d="M14.1,9.7c0.1-0.2,0-0.5-0.2-0.7C13.8,8.9,11,7.4,9.5,7C9.3,6.9,9,7,8.9,7.3
				C8.9,7.6,9,7.8,9.2,7.9c1.4,0.5,4.2,1.9,4.2,2c0.1,0,0.1,0.1,0.2,0.1C13.8,9.9,14,9.8,14.1,9.7z"/>
			<path id="XMLID_13_" class="st0" d="M1.8,9.4l0,19.4c0,1.4,1.1,2.5,2.4,2.5l23.7,0c1.3,0,2.4-1.1,2.4-2.5l0-19.4
				c0-0.3-0.2-0.5-0.5-0.5s-0.5,0.2-0.5,0.5l0,19.4c0,0.8-0.6,1.5-1.4,1.5l-11.4,0l0-1.2c0.6-0.3,2.1-0.8,3.8-0.8c4.1,0,7.4,1,7.5,1
				c0,0,0.1,0,0.1,0c0.1,0,0.2,0,0.3-0.1c0.1-0.1,0.2-0.2,0.2-0.4l0-21.9c0-0.2-0.1-0.4-0.3-0.5c-0.1,0-3.4-1-7.7-1
				c-2.5,0-4.4,1-4.5,1.1c-0.2,0.1-0.3,0.3-0.3,0.4l0,19c-1.4-0.9-4.8-2.8-8.1-4l0-19.3c3.5,1.5,6.8,3.6,6.9,3.7
				c0.2,0.1,0.5,0.1,0.7-0.2c0.1-0.2,0.1-0.5-0.2-0.7c0,0-3.9-2.5-7.7-4C7,1.4,6.9,1.5,6.7,1.6C6.6,1.7,6.5,1.8,6.5,2l0,20.4
				c0,0.2,0.1,0.4,0.3,0.5c4.2,1.5,8.9,4.4,8.9,4.4c0.1,0.1,0.3,0.1,0.5,0c0.1-0.1,0.2-0.3,0.2-0.4l0-19.6c0.6-0.3,2.1-0.8,3.8-0.8
				c3.4,0,6.2,0.6,7.1,0.9l0,20.9c-1.2-0.3-3.8-0.8-7.1-0.8c-2,0-3.7,0.7-4.3,1c-0.6-0.2-2.7-1-4.7-0.9c-3.2,0-5.6,0.5-6.6,0.8
				l0-20.8c0.2,0,0.4-0.1,0.6-0.1c0.3,0,0.4-0.3,0.4-0.6c0-0.3-0.3-0.4-0.6-0.4c-0.6,0.1-1,0.2-1,0.2C3.9,6.5,3.7,6.7,3.7,6.9
				l0,21.9c0,0.2,0.1,0.3,0.2,0.4c0.1,0.1,0.3,0.1,0.4,0.1c0,0,2.8-1,7-1c1.8,0,3.6,0.6,4.3,0.8l0,1.1l-11.4,0
				c-0.8,0-1.4-0.7-1.4-1.5l0-19.4c0-0.3-0.2-0.5-0.5-0.5C2,8.9,1.8,9.2,1.8,9.4z"/>
			<path id="XMLID_12_" class="st0" d="M13.9,12c-0.1-0.1-2.9-1.5-4.3-2C9.3,9.9,9,10,8.9,10.3c-0.1,0.3,0.1,0.5,0.3,0.6
				c1.4,0.5,4.2,1.9,4.2,2c0.1,0,0.1,0.1,0.2,0.1c0.2,0,0.3-0.1,0.4-0.3C14.2,12.4,14.1,12.1,13.9,12z"/>
			<path id="XMLID_11_" class="st0" d="M13.9,17.9c-0.1-0.1-2.9-1.5-4.3-2C9.3,15.8,9,16,8.9,16.2c-0.1,0.3,0.1,0.5,0.3,0.6
				c1.4,0.5,4.2,1.9,4.2,2c0.1,0,0.1,0.1,0.2,0.1c0.2,0,0.3-0.1,0.4-0.3C14.2,18.4,14.1,18.1,13.9,17.9z"/>
			<path id="XMLID_10_" class="st0" d="M18.4,11.3c0.1,0.3,0.3,0.4,0.6,0.4c2.7-0.7,5.9,0.2,5.9,0.2c0,0,0.1,0,0.1,0
				c0.2,0,0.4-0.1,0.5-0.4c0.1-0.3-0.1-0.5-0.3-0.6c-0.1,0-3.5-1-6.4-0.2C18.5,10.8,18.4,11,18.4,11.3z"/>
			<path id="XMLID_9_" class="st0" d="M18.4,14.3c0.1,0.3,0.3,0.4,0.6,0.4c2.7-0.7,5.9,0.2,5.9,0.2c0,0,0.1,0,0.1,0
				c0.2,0,0.4-0.1,0.5-0.4c0.1-0.3-0.1-0.5-0.3-0.6c-0.1,0-3.5-1-6.4-0.2C18.5,13.7,18.4,14,18.4,14.3z"/>
			<path id="XMLID_8_" class="st0" d="M13.9,20.9c-0.1-0.1-2.9-1.5-4.3-2C9.3,18.8,9,19,8.9,19.2c-0.1,0.3,0.1,0.5,0.3,0.6
				c1.4,0.5,4.2,1.9,4.2,2c0.1,0,0.1,0.1,0.2,0.1c0.2,0,0.3-0.1,0.4-0.3C14.2,21.3,14.1,21.1,13.9,20.9z"/>
			<path id="XMLID_7_" class="st0" d="M18.4,17.3c0.1,0.3,0.3,0.4,0.6,0.4c2.7-0.7,5.9,0.2,5.9,0.2c0,0,0.1,0,0.1,0
				c0.2,0,0.4-0.1,0.5-0.4c0.1-0.3-0.1-0.5-0.3-0.6c-0.1,0-3.5-1-6.4-0.2C18.5,16.7,18.4,17,18.4,17.3z"/>
			<path id="XMLID_6_" class="st0" d="M18.4,23.2c0.1,0.3,0.3,0.4,0.6,0.4c2.7-0.7,5.9,0.2,5.9,0.2c0,0,0.1,0,0.1,0
				c0.2,0,0.4-0.1,0.5-0.4c0.1-0.3-0.1-0.5-0.3-0.6c-0.1,0-3.5-1-6.4-0.2C18.5,22.7,18.4,23,18.4,23.2z"/>
			<path id="XMLID_5_" class="st0" d="M18.4,20.3c0.1,0.3,0.3,0.4,0.6,0.4c2.7-0.7,5.9,0.2,5.9,0.2c0,0,0.1,0,0.1,0
				c0.2,0,0.4-0.1,0.5-0.4c0.1-0.3-0.1-0.5-0.3-0.6c-0.1,0-3.5-1-6.4-0.2C18.5,19.7,18.4,20,18.4,20.3z"/>
		</g>
	</g>
</g>
</svg>
