<svg xmlns="http://www.w3.org/2000/svg" id="Layer_1" viewBox="0 0 32 32"><style>.st0{fill:none;stroke:#008080;stroke-miterlimit:10;} .st1{fill:#008080;} .st2{fill:none;stroke:#008080;stroke-width:0.7;stroke-miterlimit:10;}</style><g id="XMLID_2_"><path id="XMLID_17_" d="M28.5 27.6v-1.9h-1l-.8-2.1V11.8l.8-1.9h1.2V8l-13-6.9L2.8 8v1.9H4l.8 1.9v11.9l-.8 2H3v1.9H1v3.2h29.5v-3.2h-2zm-5.3-3.7c0 .7-.3 1.4-.8 1.8 0 0-.1 0-.1.1-.3.2-.6.3-1 .3h-4.7c-.3 0-.6-.1-.9-.3-.3.2-.6.3-.9.3h-4.7c-.4 0-.7-.1-1-.3 0 0-.1 0-.1-.1-.5-.4-.8-1-.8-1.8V11.8L9 9.9h4.2l.8 2V14h.9c.3 0 .5.1.8.2.2-.1.5-.2.8-.2h.9v-2.1l.8-1.9h4.2l.8 1.9v12z" class="st0"/><path id="XMLID_13_" d="M21.3 16c-.2-.4-.5-.6-.9-.6h-3.9c-.3 0-.5.1-.7.3-.2-.2-.4-.3-.7-.3h-3.9c-.4 0-.7.2-.9.6-.4.2-.7.7-.7 1.2v6.1c0 .7.5 1.3 1.2 1.3h4.3c.3 0 .6-.1.8-.4.2.2.5.4.8.4H21c.6 0 1.2-.6 1.2-1.3v-6.1c-.2-.6-.5-1-.9-1.2zm-5.9 6.5c0 .3-.2.5-.4.5h-3.9c-.2 0-.4-.2-.4-.5v-5.9c0-.3.2-.5.4-.5H15c.2 0 .4.2.4.5v5.9zm5.3 0c0 .3-.2.5-.4.5h-3.9c-.2 0-.4-.2-.4-.5v-5.9c0-.3.2-.5.4-.5h3.9c.2 0 .4.2.4.5v5.9z" class="st1"/><path id="XMLID_12_" d="M11 16.3h3.5v.4H11z" class="st1"/><path id="XMLID_11_" d="M17 16.3h3.5v.4H17z" class="st1"/><path id="XMLID_10_" d="M11 17.7h3.5v.4H11z" class="st1"/><path id="XMLID_9_" d="M17 17.7h3.5v.4H17z" class="st1"/><path id="XMLID_8_" d="M11 19.2h3.5v.4H11z" class="st1"/><path id="XMLID_7_" d="M17 19.2h3.5v.4H17z" class="st1"/><path id="XMLID_6_" d="M11 20.7h3.5v.4H11z" class="st1"/><path id="XMLID_5_" d="M17 20.7h3.5v.4H17z" class="st1"/><path id="XMLID_4_" d="M11 22.1h3.5v.4H11z" class="st1"/><path id="XMLID_3_" d="M17 22.1h3.5v.4H17z" class="st1"/></g><ellipse id="XMLID_1_" cx="16.1" cy="6.3" class="st2" rx="1.8" ry="1.7"/></svg>