<svg xmlns="http://www.w3.org/2000/svg" id="Layer_1" viewBox="0 0 32 32"><style>.st0{fill:none;stroke:#008080;stroke-width:0.7;stroke-miterlimit:10;} .st1{fill:none;stroke:#008080;stroke-miterlimit:10;}</style><g id="XMLID_2_"><g id="XMLID_3_"><path id="XMLID_4_" d="M21.9 6.5V3.6c.5-.2.9-.7.9-1.3 0-.7-.6-1.3-1.4-1.3h-12C8.7 1 8 1.6 8 2.4c0 .5.4 1 1 1.2v2.9c-2.7.6-4.6 2.9-4.6 5.6v10.6c0 2.5 1.7 4.6 4 5.4-.3.3-.4.5-.4.8 0 .7.6 1.3 1.4 1.3h12.1c.8 0 1.4-.6 1.4-1.3 0-.3-.1-.6-.3-.8 2.3-.8 4-2.9 4-5.4V12.1c0-2.7-2-5-4.7-5.6zM11.7 3.7h7.4v2.7h-2.4c-.2-.5-.7-.9-1.3-.9-.6 0-1.1.4-1.3.9h-2.4V3.7z" class="st0"/></g></g><path id="XMLID_1_" d="M8 28.5h15" class="st1"/></svg>