<svg xmlns="http://www.w3.org/2000/svg" id="Layer_1" viewBox="0 0 32 32">
  <style>
    .st0{fill:none;stroke:#008080;stroke-width:1.5;stroke-miterlimit:10;}
  </style>
  <g id="XMLID_2_">
    <g id="XMLID_3_">
      <path id="XMLID_4_" d="M21.9 6.7v-3c.5-.2.9-.7.9-1.3 0-.7-.6-1.3-1.4-1.3h-12C8.7 1 8 1.6 8 2.5c0 .5.4 1 1 1.2v3c-2.7.6-4.6 3-4.6 5.8v11c0 2.6 1.7 4.8 4 5.6-.3.3-.4.6-.4.9 0 .7.6 1.3 1.4 1.3h12.1c.8 0 1.4-.6 1.4-1.3 0-.3-.1-.6-.3-.8 2.3-.8 4-3 4-5.6v-11c0-2.9-2-5.3-4.7-5.9zM11.7 3.8h7.4v2.8h-2.4c-.2-.5-.7-.9-1.3-.9-.6 0-1.1.4-1.3.9h-2.4V3.8z" class="st0"/>
    </g>
  </g>
  <path id="XMLID_1_" d="M8 28.5h15" class="st0"/>
</svg>
