<?xml version="1.0" encoding="utf-8"?>
<!-- Generator: Adobe Illustrator 19.0.0, SVG Export Plug-In . SVG Version: 6.00 Build 0)  -->
<svg version="1.1" id="Layer_1" xmlns="http://www.w3.org/2000/svg" xmlns:xlink="http://www.w3.org/1999/xlink" x="0px" y="0px"
	 viewBox="0 0 32 32" style="enable-background:new 0 0 32 32;" xml:space="preserve">
<style type="text/css">
	.st0{fill:none;stroke:#008080;stroke-miterlimit:10;}
</style>
<g id="XMLID_2_">
	<g id="XMLID_3_">
		<g id="XMLID_4_">
			<path id="XMLID_7_" class="st0" d="M9.5,22.4c1.8,0,3.4-0.6,4.9-1.7c1.1-1,2.1-2.1,2.7-3.5h1.1v1.4h12.2v-1.9
				c0-1.6-0.4-3.2-1.3-4.4c-0.4-2.3-2-3.9-3.9-3.9h-8.1c-1.2-2.8-3.6-4.8-6.3-5.3V2.4c0-0.8-0.6-1.4-1.2-1.4C8.8,1,8.3,1.6,8.3,2.4
				V3c-4.1,0.6-7.2,4.7-7.2,9.6C1.1,18.1,4.8,22.4,9.5,22.4z M24.3,12c0.3,0,0.7,0.3,0.7,0.8s-0.3,0.8-0.7,0.8s-0.7-0.3-0.7-0.8
				S23.9,12,24.3,12z M10.3,12c0.3,0,0.7,0.3,0.7,0.8s-0.3,0.8-0.7,0.8c-0.3,0-0.7-0.3-0.7-0.8C9.7,12.3,10,12,10.3,12z M4.2,14.1
				c1,4.8,6.2,6.4,9.2,3h0.8c-3.2,4.5-9.5,2.7-10.6-3H4.2z"/>
			<path id="XMLID_6_" class="st0" d="M18.2,21.2h12.2v3.4H18.2V21.2z"/>
			<path id="XMLID_5_" class="st0" d="M31.2,29.5l-0.4-2h-13l-0.2,1h-13c-0.7,0-1.2,0.6-1.2,1.4s0.6,1.4,1.2,1.4H30
				C30.9,31.2,31.4,30.3,31.2,29.5z"/>
		</g>
	</g>
</g>
</svg>
