<svg xmlns="http://www.w3.org/2000/svg" id="Layer_1" viewBox="0 0 32 32"><style>.st0{fill:none;stroke:#008080;stroke-width:0.7;stroke-miterlimit:10;}</style><g id="XMLID_2_"><g id="XMLID_3_"><g id="XMLID_4_"><path id="XMLID_7_" d="M9.7 22.1c1.6 0 3.1-.6 4.4-1.6 1-.9 1.9-2 2.4-3.3h1v1.3h11v-1.8c0-1.5-.4-3-1.2-4.1-.4-2.1-1.8-3.6-3.5-3.6h-7.3c-1.1-2.6-3.2-4.5-5.7-4.9v-.6c0-.7-.5-1.3-1.1-1.3-.6 0-1.1.6-1.1 1.3v.6c-3.7.6-6.5 4.4-6.5 8.9 0 5.1 3.4 9.1 7.6 9.1zM23 12.4c.3 0 .6.3.6.7 0 .4-.3.7-.6.7s-.6-.3-.6-.7.2-.7.6-.7zm-12.6 0c.3 0 .6.3.6.7 0 .4-.3.7-.6.7s-.6-.3-.6-.7c.1-.4.3-.7.6-.7zm-5.5 2c.9 4.5 5.6 6 8.3 2.8h.7c-2.9 4.2-8.5 2.5-9.5-2.8h.5z" class="st0"/><path id="XMLID_6_" d="M17.5 21h11v3.2h-11z" class="st0"/><path id="XMLID_5_" d="M29.2 28.7l-.4-1.9H17.1l-.2.9H5.2c-.6 0-1.1.6-1.1 1.3 0 .7.5 1.3 1.1 1.3H28c.9 0 1.4-.8 1.2-1.6z" class="st0"/></g></g></g></svg>