<svg xmlns="http://www.w3.org/2000/svg" id="Layer_1" viewBox="0 0 32 32"><style>.st0{fill:none;stroke:#000000;stroke-miterlimit:10;} .st1{fill:none;stroke:#008080;stroke-miterlimit:10;}</style><g id="XMLID_2_"><path id="XMLID_3_" d="M91.8 119.6C80.3 117.7 80 85.9 80 85.9s33.9-33.7 41.3-79.1c19.9 0 32.2-48.2 12.3-65.2.8-17.9 25.6-140.1-99.6-140.1-125.2 0-100.5 122.3-99.7 140.1-19.9 17-7.6 65.2 12.3 65.2 7.4 45.3 41.3 79.1 41.3 79.1s-.3 31.9-11.8 33.7c-37.2 5.9-176 67.4-176 134.9h467.7c.1-67.5-138.8-129-176-134.9z" class="st0"/></g><g id="XMLID_4_"><path id="XMLID_5_" d="M19.7 21.8c-.7-.1-.8-2.1-.8-2.1s2.2-2.1 2.6-5c1.3 0 2-3.1.8-4.1.1-1.2 1.7-9-6.3-9s-6.4 7.8-6.3 8.9c-1.3 1.1-.5 4.1.8 4.1.5 2.9 2.6 5 2.6 5s0 2-.8 2.1c-2.4.4-11.2 4.3-11.2 8.6h29.8c0-4.2-8.8-8.1-11.2-8.5z" class="st1"/></g></svg>