<svg xmlns="http://www.w3.org/2000/svg" id="Layer_1" viewBox="0 0 32 32"><style>.st0{fill:#008080;}</style><g id="XMLID_2_"><g id="XMLID_3_"><path id="XMLID_4_" d="M24.7 13.4l.7-.8c2.6-2.7 2.6-7 0-9.8-1.3-1.3-3-2-4.8-2-1.8 0-3.5.7-4.8 2L2.4 16.5c-1.3 1.3-2 3-2 5 0 1.7.7 3.5 2 4.8 1.3 1.3 3 2 4.8 2 1.8 0 3.5-.7 4.8-2l2.2-2.2c1 4 4.4 7.3 8.6 7.3 5 0 8.8-4 8.8-9 0-4.3-3-8-7-8.8zm-8-9.6c1-1 2.5-1.6 4-1.6 1.3 0 2.7.6 3.7 1.6 2 2.2 2 5.7 0 7.8L23 13.2h-.2c-2.7 0-5 1.2-6.7 3.2l-5.6-6L16.8 4zM14 22.2v.2l-3 3c-1 1-2.3 1.6-3.7 1.6-1.4 0-2.8-.6-3.8-1.6S2 23 2 21.4c0-1.4.5-2.8 1.5-3.8l6-6 5.8 6c-1 1.3-1.3 3-1.3 4.6zm8.8 7.6c-4 0-7.5-3.4-7.5-7.6 0-1.8.7-3.5 1.7-5L27.5 28c-1.2 1-3 1.8-4.7 1.8zm5.7-2.8L18 16.3c1.3-1 3-1.8 4.8-1.8 4 0 7.5 3.4 7.5 7.6 0 2-.7 3.8-1.8 5z" class="st0"/></g></g></svg>