<?xml version="1.0" encoding="utf-8"?>
<!-- Generator: Adobe Illustrator 19.0.0, SVG Export Plug-In . SVG Version: 6.00 Build 0)  -->
<svg version="1.1" id="Layer_1" xmlns="http://www.w3.org/2000/svg" xmlns:xlink="http://www.w3.org/1999/xlink" x="0px" y="0px"
	 viewBox="0 0 32 32" style="enable-background:new 0 0 32 32;" xml:space="preserve">
<style type="text/css">
	.st0{fill:#008080;}
</style>
<g id="XMLID_2_">
	<g id="XMLID_3_">
		<g id="XMLID_4_">
			<path id="XMLID_9_" class="st0" d="M9.5,16h3.6v3c0,0.3,0.3,0.6,0.7,0.6h4.3c0.4,0,0.7-0.3,0.7-0.6v-3h3.6c0.4,0,0.7-0.3,0.7-0.6
				v-3.5c0-0.3-0.3-0.6-0.7-0.6h-3.6v-3c0-0.3-0.3-0.6-0.7-0.6h-4.3c-0.4,0-0.7,0.3-0.7,0.6v3H9.5c-0.4,0-0.7,0.3-0.7,0.6v3.5
				C8.8,15.7,9.1,16,9.5,16z M10.2,12.5h3.6c0.4,0,0.7-0.3,0.7-0.6v-3h2.9v3c0,0.3,0.3,0.6,0.7,0.6h3.6v2.4h-3.6
				c-0.4,0-0.7,0.3-0.7,0.6v3h-2.9v-3c0-0.3-0.3-0.6-0.7-0.6h-3.6V12.5z"/>
			<path id="XMLID_5_" class="st0" d="M29,26.1V2.4c0-0.3-0.3-0.6-0.7-0.6H5.9C4.3,1.8,3,2.9,3,4.2v23.7c0,1.3,1.3,2.4,2.9,2.4h22.5
				c0.3,0,0.5-0.1,0.6-0.3c0.1-0.2,0.1-0.4,0-0.6c-0.7-0.9-0.7-2,0-2.9C29,26.3,29,26.2,29,26.1z M27.2,29H5.9
				c-0.8,0-1.4-0.5-1.4-1.2c0-0.7,0.6-1.2,1.4-1.2h21.3C26.9,27.4,26.9,28.2,27.2,29z M27.6,25.5H5.9c-0.5,0-1,0.1-1.4,0.3V4.2
				C4.4,3.5,5.1,3,5.9,3h21.7V25.5z"/>
		</g>
	</g>
</g>
</svg>
