<svg xmlns="http://www.w3.org/2000/svg" id="Layer_1" viewBox="0 0 32 32"><style>.st0{fill:none;stroke:#008080;stroke-miterlimit:10;} .st1{fill:#008080;} .st2{font-family:&apos;CenturySchoolbook-Bold&apos;;} .st3{font-size:3.7189px;}</style><g id="XMLID_2_"><path id="XMLID_10_" d="M14.2 5.5h-9L2.9 9.9h13.7z" class="st0"/><path id="XMLID_9_" d="M6.4 1.1H13c.5 0 .9.4.9.9v1.6H5.5V2.1c0-.5.4-1 .9-1z" class="st0"/><path id="XMLID_3_" d="M2.8 11.8v19.1h13.9V11.8H2.8z" class="st0"/></g><g id="XMLID_11_"><path id="XMLID_17_" d="M31.7 18.5l-4-3.4c-.1-.1-.3-.2-.5-.1L18 18.4c-.2.1-.3.3-.3.5v1.9c0 .3.2.5.5.5.9 0 1.6.7 1.6 1.6 0 .9-.7 1.6-1.6 1.6-.3 0-.5.2-.5.5v1.5c0 .3.2.5.5.5h13.2c.3 0 .5-.2.5-.5V19c0-.3 0-.4-.2-.5zm-4.4-2.6l2.9 2.5h-9.4l6.5-2.5zm3.7 10H18.7v-.6c1.2-.2 2.1-1.2 2.1-2.4s-.9-2.2-2.1-2.4v-1.1H31v6.5z" class="st1"/><ellipse id="XMLID_16_" cx="29" cy="21.5" class="st1" rx=".6" ry=".6"/><ellipse id="XMLID_15_" cx="22.7" cy="22.1" class="st1" rx=".7" ry=".6"/><ellipse id="XMLID_14_" cx="27.5" cy="23.6" class="st1" rx=".9" ry=".9"/><ellipse id="XMLID_13_" cx="24.1" cy="24.4" class="st1" rx=".8" ry=".7"/><ellipse id="XMLID_12_" cx="25.7" cy="20.9" class="st1" rx=".8" ry=".7"/></g><text id="XMLID_1_" transform="matrix(.9655 0 0 1 4.172 22.78)" class="st1 st2 st3">MILK</text></svg>