<svg xmlns="http://www.w3.org/2000/svg" id="Layer_1" viewBox="0 0 32 32"><style>.st0{fill:#008080;}</style><g id="XMLID_2_"><path id="XMLID_3_" d="M22.7 0H9C6.6 0 4.7 1.5 4.7 3.4v25.1c0 1.9 2 3.4 4.4 3.4h13.7c2.4 0 4.4-1.5 4.4-3.4V3.4c-.1-1.9-2-3.4-4.5-3.4zm3 28.6c0 1.3-1.3 2.3-2.9 2.3H9c-1.6 0-2.9-1-2.9-2.3V3.4c0-1.3 1.3-2.3 2.9-2.3h13.7c1.6 0 2.9 1 2.9 2.3.1 0 .1 25.2.1 25.2zM24.2 3.4H7.6c-.2 0-.4.1-.4.3V26c0 .2.2.3.4.3h16.6c.2 0 .4-.1.4-.3V3.7c-.1-.2-.2-.3-.4-.3zm-.4 22.2H8V3.9h15.9c-.1 0-.1 21.7-.1 21.7zm-7.9 1.1c-1.2 0-2.2.8-2.2 1.8s1 1.8 2.2 1.8 2.2-.8 2.2-1.8-1-1.8-2.2-1.8zm0 2.9c-.8 0-1.5-.5-1.5-1.2s.7-1.2 1.5-1.2 1.5.5 1.5 1.2-.7 1.2-1.5 1.2zM13.5 2.2c0-.1.1-.2.3-.2H18c.2 0 .3.1.3.2s-.2.3-.3.3h-4.1c-.3 0-.4-.1-.4-.3z" class="st0"/></g></svg>