<svg xmlns="http://www.w3.org/2000/svg" id="Layer_1" viewBox="0 0 32 32"><style>.st0{fill:#008080;}</style><g id="XMLID_2_"><path id="XMLID_3_" d="M21.8.8H8.3c-1.1 0-2 .9-2 2.1v26.4c0 1.1.9 2.1 2 2.1h13.4c1.1 0 2-.9 2-2.1V2.9c.1-1.1-.8-2.1-1.9-2.1zm-8.9 1.5h4.3c.1 0 .2.1.2.2s-.1.2-.2.2h-4.3c-.1 0-.2-.1-.2-.2s.1-.2.2-.2zM7.7 27.5V4.1h14.7v21.3l-3.3-5.8c1-1.5 1.1-3.5.2-5.2-1-1.7-2.8-2.6-4.6-2.5l1.8 3.2c.6 1.1.2 2.4-.8 3.1-1.1.6-2.4.2-3-.8l-1.8-3.2c-1 1.5-1.1 3.6-.2 5.2 1 1.7 2.8 2.6 4.6 2.5l3.2 5.7c0-.1-10.8-.1-10.8-.1zm7.4 2.8c-.6 0-1-.5-1-1s.5-1 1-1 1 .5 1 1-.5 1-1 1z" class="st0"/></g></svg>