<?xml version="1.0" encoding="utf-8"?>
<!-- Generator: Adobe Illustrator 19.0.0, SVG Export Plug-In . SVG Version: 6.00 Build 0)  -->
<svg version="1.1" id="Layer_1" xmlns="http://www.w3.org/2000/svg" xmlns:xlink="http://www.w3.org/1999/xlink" x="0px" y="0px"
	 viewBox="0 0 32 32" style="enable-background:new 0 0 32 32;" xml:space="preserve">
<style type="text/css">
	.st0{fill:#008080;}
</style>
<g id="XMLID_34_">
	<g id="XMLID_35_">
		<path id="XMLID_36_" class="st0" d="M24.1,10c-1,0-1.8-0.9-1.8-1.9c0-0.3-0.2-0.5-0.5-0.5H7.1C6.9,7.5,6.7,7.7,6.7,8
			c0,1.1-0.8,1.9-1.8,1.9c-0.3,0-0.5,0.2-0.5,0.5v3.9c0,0.3,0.2,0.5,0.5,0.5c1,0,1.8,0.9,1.8,1.9c0,0.3,0.2,0.5,0.5,0.5h14.7
			c0.3,0,0.5-0.2,0.5-0.5c0-1.1,0.8-1.9,1.8-1.9c0.3,0,0.5-0.2,0.5-0.5v-3.9C24.5,10.2,24.3,10,24.1,10z M23.6,13.9
			c-1.2,0.2-2.1,1.2-2.3,2.4H7.5c-0.2-1.2-1.1-2.2-2.3-2.4v-3c1.2-0.2,2.1-1.2,2.3-2.4h13.8c0.2,1.2,1.1,2.2,2.3,2.4V13.9z"/>
	</g>
</g>
<g id="XMLID_29_">
	<g id="XMLID_30_">
		<path id="XMLID_31_" class="st0" d="M14.5,10c-1.3,0-2.3,1.1-2.3,2.4s1,2.4,2.3,2.4s2.3-1.1,2.3-2.4S15.7,10,14.5,10z M14.5,13.8
			c-0.8,0-1.4-0.7-1.4-1.5c0-0.8,0.6-1.5,1.4-1.5c0.8,0,1.4,0.7,1.4,1.5C15.8,13.2,15.2,13.8,14.5,13.8z"/>
	</g>
</g>
<g id="XMLID_22_">
	<g id="XMLID_23_">
		<path id="XMLID_24_" class="st0" d="M29.6,1.7H6.7c-0.3,0-0.5,0.2-0.5,0.5v1.5H4.8c-0.3,0-0.5,0.2-0.5,0.5v1.5H3
			c-0.3,0-0.5,0.2-0.5,0.5v12.7c0,0.3,0.2,0.5,0.5,0.5h22.9c0.3,0,0.5-0.2,0.5-0.5v-1.5h1.4c0.3,0,0.5-0.2,0.5-0.5v-1.5h1.4
			c0.3,0,0.5-0.2,0.5-0.5V2.2C30,1.9,29.8,1.7,29.6,1.7z M25.5,16.8v1.5h-22V6.5h1.4h20.6V16.8z M27.3,16.3h-0.9V6.1
			c0-0.3-0.2-0.5-0.5-0.5H5.3v-1h22V16.3z M29.1,14.3h-0.9V4.1c0-0.3-0.2-0.5-0.5-0.5H7.1v-1h22V14.3z"/>
	</g>
</g>
<g id="XMLID_17_">
	<g id="XMLID_18_">
		<path id="XMLID_19_" class="st0" d="M29.9,25.1l-5.5-4.4c-0.1-0.1-0.3-0.1-0.5,0c-0.2,0.1-0.3,0.3-0.3,0.4v1.9h-7.3
			c-0.3,0-0.5,0.2-0.5,0.5v3.9c0,0.3,0.2,0.5,0.5,0.5h7.3v2.4c0,0.2,0.1,0.4,0.3,0.4c0.1,0,0.1,0,0.2,0c0.1,0,0.2,0,0.3-0.1l5.5-4.9
			c0.1-0.1,0.2-0.2,0.2-0.4C30,25.4,30,25.2,29.9,25.1z M24.5,29.4v-1.9c0-0.3-0.2-0.5-0.5-0.5h-7.3v-2.9h7.3c0.3,0,0.5-0.2,0.5-0.5
			v-1.5l4.3,3.4L24.5,29.4z"/>
	</g>
</g>
<g id="XMLID_12_">
	<g id="XMLID_13_">
		<path id="XMLID_14_" class="st0" d="M14.5,23.1h-1.8c-0.3,0-0.5,0.2-0.5,0.5v3.9c0,0.3,0.2,0.5,0.5,0.5h1.8c0.3,0,0.5-0.2,0.5-0.5
			v-3.9C14.9,23.3,14.7,23.1,14.5,23.1z M14,27h-0.9v-2.9H14V27z"/>
	</g>
</g>
<g id="XMLID_7_">
	<g id="XMLID_8_">
		<path id="XMLID_9_" class="st0" d="M9.9,23.1H8c-0.3,0-0.5,0.2-0.5,0.5v3.9C7.6,27.7,7.8,28,8,28h1.8c0.3,0,0.5-0.2,0.5-0.5v-3.9
			C10.3,23.3,10.1,23.1,9.9,23.1z M9.4,27H8.5v-2.9h0.9V27z"/>
	</g>
</g>
<g id="XMLID_2_">
	<g id="XMLID_3_">
		<path id="XMLID_4_" class="st0" d="M4.8,23.1H3c-0.3,0-0.5,0.2-0.5,0.5v3.9C2.5,27.7,2.7,28,3,28h1.8c0.3,0,0.5-0.2,0.5-0.5v-3.9
			C5.3,23.3,5.1,23.1,4.8,23.1z M4.4,27H3.4v-2.9h0.9V27z"/>
	</g>
</g>
</svg>
