<svg id="Layer_1" xmlns="http://www.w3.org/2000/svg" viewBox="0 0 32 32"><style>.st0{fill:#008080;}</style><g id="XMLID_2_"><g id="XMLID_3_"><g id="XMLID_4_"><path id="XMLID_26_" class="st0" d="M15.7 15c2.4 0 4.4-2.1 4.4-4.7s-2-4.7-4.4-4.7-4.4 2.1-4.4 4.7 1.9 4.7 4.4 4.7zm0-8.4c1.9 0 3.4 1.7 3.4 3.6 0 2-1.6 3.6-3.4 3.6-1.9 0-3.4-1.6-3.4-3.6 0-1.9 1.5-3.6 3.4-3.6z"/><path id="XMLID_23_" class="st0" d="M14.5 12.3s.1.1.2.1.1 0 .2-.1l2.9-1.6c.2-.1.3-.3.3-.5s-.1-.3-.2-.4L15 8.2c-.1-.1-.3-.1-.5 0-.1.1-.2.3-.2.5v3.1c-.1.2 0 .4.2.5zm.7-2.8l1.4.7-1.4.8V9.5z"/><path id="XMLID_12_" class="st0" d="M29.8 28.5h-1v-3.6c0-.7-.4-1.3-1-1.5v-.1c0-1.1-.9-2.1-2-2.1s-2 .9-2 2.1v.1c-.6.2-1 .8-1 1.5v3.6h-1v-3.6c0-.7-.4-1.3-1-1.5v-.1c0-1.1-.9-2.1-2-2.1s-2 .9-2 2.1v.1c-.6.2-1 .8-1 1.5v3.6h-1v-3.6c0-.7-.4-1.3-1-1.5v-.1c0-1.1-.9-2.1-2-2.1s-2 .9-2 2.1v.1c-.6.2-1 .8-1 1.5v3.6h-1v-3.6c0-.7-.4-1.3-1-1.5v-.1c0-1.1-.9-2.1-2-2.1s-2 .9-2 2.1v.1c-.6.2-1 .8-1 1.5v3.6h-1c.4 0 .2.2.2.5v2.1c0 .3.2.5.5.5h28.3c.3 0 .5-.2.5-.5V29c0-.3-.2-.5-.5-.5zm-3.9-6.3c.5 0 1 .5 1 1h-2c0-.5.5-1 1-1zM24 24.9c0-.3.2-.5.5-.5h2.9c.3 0 .5.2.5.5v3.6H24v-3.6zm-4.9-2.7c.5 0 1 .5 1 1h-2c0-.5.4-1 1-1zm-2 2.7c0-.3.2-.5.5-.5h2.9c.3 0 .5.2.5.5v3.6h-3.9v-3.6zm-4.8-2.7c.5 0 1 .5 1 1h-2c0-.5.4-1 1-1zm-2 2.7c0-.3.2-.5.5-.5h2.9c.3 0 .5.2.5.5v3.6h-3.9v-3.6zm-4.9-2.7c.5 0 1 .5 1 1h-2c.1-.5.5-1 1-1zm-1.9 2.7c0-.3.2-.5.5-.5h2.9c.3 0 .5.2.5.5v3.6H3.5v-3.6zm25.8 5.7H2v-1h27.6l-.3 1z"/><path id="XMLID_5_" class="st0" d="M29.8.4H1.5c-.3 0-.5.2-.5.5v18.7c0 .3.2.5.5.5H29.7c.3 0 .5-.2.5-.5V.9c.1-.3-.1-.5-.4-.5zm-4.4 1c0 5.5 1.1 9.2 2.9 10.5l-.2.2c-1.5 1.6-1.7 5.6-1.8 7.1H4.9c0-1.4-.3-5.4-1.8-7 0-.2 0-.2-.1-.3 1.8-1.2 2.9-5 2.9-10.5h19.5zm3.9 0v9.8c-1.8-.6-2.9-4.3-2.9-9.8h2.9zM2 1.4h2.9c0 5.5-1.2 9.3-2.9 9.8V1.4zm0 17.7v-6.7c.1.1.3.2.4.4C3.6 14 3.9 17.4 4 19.1H2zm27.3 0h-2c0-1.7.3-5.1 1.5-6.3.1-.2.3-.3.4-.4l.1 6.7z"/></g></g></g></svg>