<?xml version="1.0" encoding="utf-8"?>
<!-- Generator: Adobe Illustrator 19.0.0, SVG Export Plug-In . SVG Version: 6.00 Build 0)  -->
<svg version="1.1" id="Layer_1" xmlns="http://www.w3.org/2000/svg" xmlns:xlink="http://www.w3.org/1999/xlink" x="0px" y="0px"
	 viewBox="0 0 32 32" style="enable-background:new 0 0 32 32;" xml:space="preserve">
<style type="text/css">
	.st0{fill:#008080;}
</style>
<g id="XMLID_59_">
	<g id="XMLID_60_">
		<polygon id="XMLID_61_" class="st0" points="6.1,22.4 6.7,21.8 10.5,25.5 9.9,26.2 		"/>
	</g>
</g>
<g id="XMLID_54_">
	<g id="XMLID_55_">
		<path id="XMLID_56_" class="st0" d="M12.1,17.4c-1.6,0-2.8,1.3-2.8,2.8s1.3,2.8,2.8,2.8s2.8-1.3,2.8-2.8S13.6,17.4,12.1,17.4z
			 M12.1,22.1c-1,0-1.9-0.8-1.9-1.9s0.8-1.9,1.9-1.9s1.9,0.8,1.9,1.9S13.1,22.1,12.1,22.1z"/>
	</g>
</g>
<g id="XMLID_51_">
	<g id="XMLID_52_">
		<rect id="XMLID_53_" x="21.5" y="24" class="st0" width="0.9" height="0.9"/>
	</g>
</g>
<g id="XMLID_48_">
	<g id="XMLID_49_">
		<rect id="XMLID_50_" x="23.4" y="24" class="st0" width="0.9" height="0.9"/>
	</g>
</g>
<g id="XMLID_45_">
	<g id="XMLID_46_">
		<rect id="XMLID_47_" x="25.3" y="24" class="st0" width="0.9" height="0.9"/>
	</g>
</g>
<g id="XMLID_42_">
	<g id="XMLID_43_">
		<rect id="XMLID_44_" x="27.2" y="24" class="st0" width="0.9" height="0.9"/>
	</g>
</g>
<g id="XMLID_39_">
	<g id="XMLID_40_">
		<rect id="XMLID_41_" x="21.5" y="25.9" class="st0" width="0.9" height="0.9"/>
	</g>
</g>
<g id="XMLID_36_">
	<g id="XMLID_37_">
		<rect id="XMLID_38_" x="23.4" y="25.9" class="st0" width="0.9" height="0.9"/>
	</g>
</g>
<g id="XMLID_33_">
	<g id="XMLID_34_">
		<rect id="XMLID_35_" x="25.3" y="25.9" class="st0" width="0.9" height="0.9"/>
	</g>
</g>
<g id="XMLID_30_">
	<g id="XMLID_31_">
		<rect id="XMLID_32_" x="27.2" y="25.9" class="st0" width="0.9" height="0.9"/>
	</g>
</g>
<g id="XMLID_27_">
	<g id="XMLID_28_">
		<rect id="XMLID_29_" x="21.5" y="27.7" class="st0" width="0.9" height="0.9"/>
	</g>
</g>
<g id="XMLID_24_">
	<g id="XMLID_25_">
		<rect id="XMLID_26_" x="23.4" y="27.7" class="st0" width="0.9" height="0.9"/>
	</g>
</g>
<g id="XMLID_21_">
	<g id="XMLID_22_">
		<rect id="XMLID_23_" x="25.3" y="27.7" class="st0" width="0.9" height="0.9"/>
	</g>
</g>
<g id="XMLID_18_">
	<g id="XMLID_19_">
		<rect id="XMLID_20_" x="27.2" y="27.7" class="st0" width="0.9" height="0.9"/>
	</g>
</g>
<g id="XMLID_9_">
	<g id="XMLID_10_">
		<path id="XMLID_11_" class="st0" d="M29.5,18.8h-8.8c0.3-0.7,0.4-1.5,0.3-2.3c0-0.6-0.2-1.2-0.4-1.7l5.2-5.1l0.1,0.1
			c0.1,0.1,0.2,0.1,0.3,0.1c0,0,0,0,0,0c0.1,0,0.3-0.1,0.3-0.2L27.1,9l0.7,0.7l0.7-0.7l-0.8-0.8l0.8-1.2l0.8,0.8l0.7-0.7L29,6.3
			L29.9,5C30,4.8,30,4.5,29.9,4.4L28,2.5c-0.2-0.2-0.4-0.2-0.6-0.1L26,3.4l-0.9-0.9l-0.7,0.7l0.8,0.8l-1.2,0.8l-0.8-0.8l-0.7,0.7
			l0.7,0.7l-0.6,0.5c-0.1,0.1-0.2,0.2-0.2,0.3c0,0.1,0,0.3,0.1,0.4l0.1,0.1l-5.2,5.1c-0.5-0.2-1.1-0.4-1.8-0.4
			c-2.5-0.2-4.9,1.3-5.7,3.7c-0.1,0.3-0.4,0.5-0.8,0.5c0,0,0,0,0,0c-2.1,0-4,0.8-5.5,2.3c-1.4,1.5-2.2,3.5-2.1,5.5
			c0.2,3.8,3.3,7,7.2,7.2c0.1,0,0.2,0,0.4,0c2,0,3.8-0.7,5.2-2.1c1.5-1.4,2.3-3.4,2.3-5.5c0-0.4,0.2-0.7,0.5-0.8
			c0.9-0.3,1.7-0.9,2.3-1.6v1.9v7.5c0,0.3,0.2,0.5,0.5,0.5h9.4c0.3,0,0.5-0.2,0.5-0.5v-7.5v-3.3C30,19,29.8,18.8,29.5,18.8z
			 M27.6,3.4l1.3,1.3l-2.8,3.9l-2.5-2.5L27.6,3.4z M17,21.3c-0.7,0.3-1.2,0.9-1.2,1.7c0,1.8-0.7,3.5-2,4.8c-1.3,1.3-3,1.9-4.9,1.8
			c-3.4-0.2-6.1-2.9-6.3-6.3c-0.1-1.8,0.6-3.5,1.8-4.9c1.3-1.3,3-2,4.8-2c0,0,0,0,0,0c0.8,0,1.4-0.5,1.7-1.2c0.7-2,2.7-3.2,4.8-3.1
			c2.3,0.2,4.2,2,4.3,4.3C20.2,18.7,19,20.6,17,21.3z M18.4,12.2l5-4.9l1.7,1.7l-5,4.9C19.7,13.2,19.1,12.6,18.4,12.2z M29.1,29.6
			h-8.5V23h8.5V29.6z M29.1,22.1h-8.5v-2.4h8.5V22.1z"/>
	</g>
</g>
<g id="XMLID_2_">
	<g id="XMLID_3_">
		<path id="XMLID_4_" class="st0" d="M12.9,2.5c-0.1-0.1-0.2-0.1-0.4-0.1L4.9,3.3c-0.2,0-0.4,0.2-0.4,0.5v6.3
			C4.2,9.9,3.9,9.9,3.6,9.9c-1.1,0-1.9,0.6-1.9,1.4c0,0.8,0.8,1.4,1.9,1.4s1.9-0.6,1.9-1.4V6.5l6.6-0.8v2.5C11.8,8.1,11.5,8,11.1,8
			c-1.1,0-1.9,0.6-1.9,1.4s0.8,1.4,1.9,1.4S13,10.2,13,9.4V2.8C13,2.7,13,2.6,12.9,2.5z M3.6,11.8c-0.6,0-0.9-0.3-0.9-0.5
			c0-0.2,0.4-0.5,0.9-0.5s0.9,0.3,0.9,0.5C4.5,11.5,4.2,11.8,3.6,11.8z M11.1,9.9c-0.6,0-0.9-0.3-0.9-0.5c0-0.2,0.4-0.5,0.9-0.5
			s0.9,0.3,0.9,0.5C12.1,9.6,11.7,9.9,11.1,9.9z M12.1,4.8L5.5,5.6V4.2l6.6-0.8V4.8z"/>
	</g>
</g>
</svg>
