<svg xmlns="http://www.w3.org/2000/svg" id="Capa_1" viewBox="1 -.1 33.1 33.1"><style>.st0{fill:none;stroke:#008080;stroke-width:0.8;stroke-miterlimit:10;}</style><path d="M29.5 9.4c-.2-.1-1.1-.2-1.1-.2l-3.4.5-1.2.3s-.9-2.1-1.9-2.6c-2.9-1.5-2.8-1.8-2.8-1.8s.8-3.5.8-3.9c.1-.4-.4-1.9-2.3-1.8-1.9.1-2.2 1.5-2.2 1.5v1.3s-.4.2-.2.7c.2.5.7 1.1.7 1.1l-.1.7-5.5 2.6S9 8.8 7.6 9.1c-1.4.3-2.2 1.2-2.1 2.2.2 1 1.7 1.7 1.7 1.7s0 1.8.1 3.2c.1 1.4 1.3 2.3 1.4 2.4.2.2 1.6.6 1.6.6s1.5.1 2.3-.7c.4 1 1.1 1.1 1.2 1.7.1.6-.4 1 0 1.4.4.4 1.6 2.2 1.6 2.6s-.4 6.7-.4 6.7h.7l.6-2 .1-.2.2 1.3s.3 1.1 1.5 1.2 1.4 0 1.8 0c.3 0-1.2-2.9-1.2-3.2 0-.3.6.3.5-.3 0-.2-.1-.5-.2-1.1h1.1l.4 3h.6l-.7-3h.1l.7 2.3v-1.8l-.1-.5h.5v-.4H21l-1-5.1s.7-.1 1.3.4c.7.5.1 8 .1 8s-.5 2.4-.1 2.6c.4.1 1 .2 1 .2s.3.2 1 .5 2.7.3 2.6-.2c-.1-.4-.7-.9-.7-.9L24 30.6l-.3-1.3s1.3.4 1.3-.3c0-.6.1-2 .2-3.3s.7-4.6.7-6-.5-1.9-.5-1.9l-1.5-1.2h.6s.4-.1.6-.8c0 0 .1-.3.1-.6 0-1-.7-3.5-.8-3.7.2-.1.3-.2.5-.3l.5.3 3.2-.4.3-.5.6-.1s.2-.9 0-1.1zm-19 .7c.9 0 2.1.8 2.5.7.5 0 .8-.6 1.6-.9.8-.3 1.5-.1 1.9.3.5.4.5 1.5.5 1.5l-1.9.4s-.4-.5-1.2-.4-1.2.8-1.2.8-.5-.6-.8-.8c-.4-.2-1.8-.9-2.3-.9-.5 0-.7-.1-.7-.3.2-.2.7-.4 1.6-.4zm5.3 6.1c-1.4.5-1.8-.1-2.4.1s-1.3 1.8-3 2.2c-1.6.4-2.5-1.3-2.7-2.1-.2-.7-.2-3.4-.2-3.4s1.7-.3 1.9-.2c.2 0 .6 1 .6 1l.1 2.8.7-.1.1-1.7s1.2.3 1.5.2c.3-.1.6-.5.6-.5s.3.7 1.2.6c.9-.1 1.3-1 1.3-1l2-.5c-.2-.2-.2 2.1-1.7 2.6zm3.1 10c-.3-1.5-.8-3.6-.9-4.1-.1-.6-.6-1.5.4-1.6.9 0 .9.3.9.3l.8 5.3c0 .1-1.2.1-1.2.1zm1.6 0l-.5-1.7.5 1.7zm-3.1-14.7l6-1.4m-5.7 3.2l6.6-1.7" class="st0"/><path d="M24 14.3c-.4-.5-.6-.9-.8-1.1-.4-.7-.7-1.2-.9-1.9-.4-1.2-.1-1.6-.6-1.9-.4-.3-1.2-.3-1.6.1-.2.2-.4.6.9 3.6 1.2 2.7 1.7 3.1 2.1 3.3.9.4 2.1.2 2.2-.3.1-.3-.4-.5-1.3-1.8z" class="st0"/></svg>