<?xml version="1.0" encoding="utf-8"?>
<!-- Generator: Adobe Illustrator 19.0.0, SVG Export Plug-In . SVG Version: 6.00 Build 0)  -->
<svg version="1.1" id="Layer_1" xmlns="http://www.w3.org/2000/svg" xmlns:xlink="http://www.w3.org/1999/xlink" x="0px" y="0px"
	 viewBox="0 0 32 32" style="enable-background:new 0 0 32 32;" xml:space="preserve">
<style type="text/css">
	.st0{fill:#008080;}
</style>
<g id="XMLID_2_">
	<g id="XMLID_3_">
		<path id="XMLID_4_" class="st0" d="M30.3,3.6L27.9,1c-0.6-0.7-1.7-0.7-2.3,0l-2.4,2.6c-0.6,0.7-0.6,1.8,0,2.4l0.1,0.1l-0.6,0.6
			c0-0.5-0.1-1-0.5-1.4c-0.6-0.7-1.7-0.7-2.3,0c-0.4,0.5-0.6,1.2-0.4,1.8C19,6.9,18.4,7.1,18,7.5c-0.6,0.7-0.6,1.8,0,2.4
			c0.3,0.3,0.7,0.5,1.1,0.5l-0.9,0.9l-0.3-0.3c-1.1-1.2-2.6-1.9-4.1-1.9c-1.4,0-2.7,0.6-3.6,1.6c-0.2,0.2-0.3,0.3-0.4,0.5L4.3,1.4
			C4.1,1,3.8,0.7,3.5,0.6C3.1,0.4,2.7,0.5,2.4,0.7s-0.6,0.6-0.6,1c-0.1,0.4,0,0.8,0.2,1.2l6.5,11.9C7.9,15.7,7,16.3,6,16.4l-1.2,0.1
			l-0.9,1c-2.9,3.2-2.9,8,0,11.1l0.2,0.2l0.6,0.7c0.1,0.1,0.2,0.2,0.4,0.3c1.3,1.1,2.8,1.7,4.4,1.7c1.9,0,3.8-0.9,5.2-2.4l0.9-1
			l0-0.3l2.1,3.2c0.2,0.3,0.5,0.5,0.9,0.5c0.2,0,0.3,0,0.5-0.1h0c0.4-0.3,0.6-0.9,0.4-1.4l-2.1-4.7l-0.4-0.8
			c0.4-0.3,0.8-0.5,1.3-0.6c1.1-0.2,2-0.7,2.8-1.5c2-2.2,1.9-5.9-0.2-8.2l0.9-1c0,0.4,0.2,0.9,0.5,1.2c0.3,0.3,0.7,0.5,1.1,0.5
			c0.4,0,0.8-0.2,1.1-0.5c0.4-0.5,0.6-1.2,0.4-1.8c0.2,0.1,0.3,0.1,0.5,0.1c0.4,0,0.8-0.2,1.1-0.5c0,0,0,0,0,0
			c0.6-0.7,0.6-1.8,0-2.4c-0.3-0.4-0.8-0.5-1.3-0.5l0.6-0.6l0.1,0.1c0.3,0.3,0.7,0.5,1.1,0.5s0.8-0.2,1.1-0.5L30.3,6
			C30.9,5.4,30.9,4.3,30.3,3.6z M20.6,6c0.1-0.1,0.3-0.2,0.5-0.2c0.2,0,0.3,0.1,0.5,0.2c0.3,0.3,0.3,0.8,0,1c-0.3,0.3-0.7,0.3-0.9,0
			C20.4,6.8,20.4,6.3,20.6,6z M21.2,8.3l-0.5,0.5c0-0.2,0-0.4-0.1-0.6C20.8,8.3,20.9,8.3,21.2,8.3C21.1,8.3,21.2,8.3,21.2,8.3z
			 M18.6,9.2c-0.3-0.3-0.3-0.8,0-1C18.8,8.1,18.9,8,19.1,8c0.2,0,0.3,0.1,0.5,0.2c0.3,0.3,0.3,0.7,0,1C19.3,9.5,18.9,9.5,18.6,9.2z
			 M23.9,6.8L24.1,7l-5,5.4l-0.3-0.3L23.9,6.8z M19.4,14.1l-5,5.7L14,19.2l5.1-5.5L19.4,14.1z M18.2,12.8l0.3,0.3l-4.9,5.3l-0.3-0.5
			L18.2,12.8z M10.8,11.4c0.8-0.8,1.8-1.3,2.9-1.3c1.3,0,2.5,0.6,3.5,1.6l0.3,0.3L12.8,17l-2.6-4.7C10.4,12,10.6,11.7,10.8,11.4z
			 M3.5,26.6c-1.5-2.7-1.2-6,1-8.4l0.7-0.7l0.9-0.1c1.1-0.1,2.2-0.7,2.8-1.6l1.8,3.4l0,0L3.5,26.6z M4.6,28L4.6,28
			c-0.3-0.3-0.3-0.6-0.4-0.8l7-7.2l0.3,0.6L4.6,28z M5.5,28.9c-0.1-0.1-0.2-0.1-0.2-0.2l6.7-7.2l0.3,0.6l-6,6.8
			C6.1,29,5.8,29.1,5.5,28.9z M14.7,26.7l-0.1,0.9l-0.7,0.7c-1.3,1.4-2.9,2.1-4.5,2.1c-1,0-1.9-0.3-2.7-0.7c0.1-0.1,0.2-0.1,0.3-0.2
			l5.8-6.6l1.9,3.5C14.7,26.5,14.7,26.6,14.7,26.7z M18.5,30.3c0,0.1,0,0.1,0,0.1C18.5,30.5,18.5,30.5,18.5,30.3l-2.9-4.2L2.7,2.4
			C2.6,2.2,2.6,2,2.6,1.9c0-0.1,0.1-0.2,0.2-0.3c0.1,0,0.1-0.1,0.2-0.1c0.1,0,0.1,0,0.2,0c0.1,0.1,0.3,0.2,0.4,0.3l12.9,23.8
			L18.5,30.3z M20.2,21.6c-0.6,0.7-1.4,1.1-2.2,1.2c-0.6,0.1-1.1,0.3-1.6,0.7l-1.5-2.9l5.2-5.9C21.8,16.8,21.9,19.8,20.2,21.6z
			 M23.6,13.6c-0.3,0.3-0.7,0.3-0.9,0c-0.3-0.3-0.3-0.8,0-1c0.1-0.1,0.3-0.2,0.5-0.2c0.2,0,0.3,0.1,0.5,0.2
			C23.9,12.8,23.9,13.3,23.6,13.6z M23.6,11.5c-0.2-0.1-0.4-0.1-0.6-0.1l0.5-0.5C23.5,11,23.6,11.3,23.6,11.5z M20,13.4l-0.3-0.3
			l5-5.4l0.2,0.2L20,13.4z M25.1,10.2c0.2,0,0.3,0.1,0.5,0.2c0.3,0.3,0.3,0.8,0,1v0c-0.3,0.3-0.7,0.3-0.9,0c-0.3-0.3-0.3-0.7,0-1
			C24.8,10.2,25,10.2,25.1,10.2z M29.6,5.3l-2.4,2.6c-0.3,0.3-0.7,0.3-0.9,0l-0.1-0.1l-2.3-2.4l-0.1-0.1c-0.3-0.3-0.3-0.8,0-1
			l2.4-2.6c0.1-0.1,0.3-0.2,0.5-0.2s0.3,0.1,0.5,0.2l2.4,2.6C29.9,4.6,29.9,5.1,29.6,5.3z"/>
	</g>
</g>
</svg>
