<?xml version="1.0" encoding="utf-8"?>
<!-- Generator: Adobe Illustrator 19.0.0, SVG Export Plug-In . SVG Version: 6.00 Build 0)  -->
<svg version="1.1" id="Layer_1" xmlns="http://www.w3.org/2000/svg" xmlns:xlink="http://www.w3.org/1999/xlink" x="0px" y="0px"
	 viewBox="0 0 32 32" style="enable-background:new 0 0 32 32;" xml:space="preserve">
<style type="text/css">
	.st0{fill:none;stroke:#038181;stroke-width:0.7;stroke-miterlimit:10;}
</style>
<path id="XMLID_2_" class="st0" d="M26.3,12c-0.3-3.7-2.3-7.2-5-9.2C19.7,1.6,18,1,16.2,0.7C11.2,0,5.9,2.4,4.1,7.9
	c-1.6,4.7,0,9.3,2.9,12.9c1,1.3,1.2,3.7,1.2,5.3v3.3c0,0.5,0.4,0.9,0.8,0.9h10.7c0.4,0,0.8-0.4,0.8-0.9c0-0.6,0.1-1.2,0.1-1.2
	c0.2-1.1,1-1.9,2.8-1.6c1.8,0.3,3-0.3,3.1-1.6c0-0.4,0.1-4.3,0.1-4.3c0.1-0.1,0.7-0.2,1.5-0.4c0.6-0.2,0.9-1.1,0.4-1.6
	c-1.9-2.1-2.1-3.1-2.2-3.3C25.9,14.4,26.4,13.1,26.3,12z M22.8,10.8c-0.3,0.4-0.6,0.4-0.7,0.5c-0.1,0-0.1,0.1-0.1,0.1
	c0.1,0.3,0.2,1.2-1.2,1.5c-1.3,0.3-2.1,1.5-2.6,2.1c-0.4,0.4-0.9,0.7-1.5,0.8C16,15.9,15.5,16,15,16.4c-0.5,0.5-1.1,3-1.2,3.5
	c0,0,0,0.1-0.1,0.1h-0.7c0,0-0.1,0-0.1-0.1l-0.3-1.7c0-0.1-3.2,0.2-3.5-1.4c0-0.1-0.1-0.1-0.1-0.1c-0.3,0.1-1.3,0.4-1.8-0.5
	c-0.4-0.7-0.3-1.3-0.2-1.5c0,0,0-0.1,0-0.1c-0.3-0.1-1.2-0.7-1.1-2.8C6,10.2,7,9.5,6.8,9.3C6.4,8.5,6.8,7.3,7.6,7.1
	c0,0,0.1,0,0.1-0.1l0-0.4c0.1-1.5,1.9-2.4,3.1-1.8c0,0,0.1,0,0.1-0.1C11,4.2,11.3,4,11.4,4c0.4-0.2,0.9-0.2,1.2,0c0,0,0.1,0,0.1,0
	c0.1-0.1,0.6-0.5,1.3-0.5c0.8,0,1.1,0.4,1.3,0.5c0,0,0.1,0,0.1,0c0.2-0.1,0.8-0.4,1.4-0.2c0.5,0.2,0.7,0.7,0.8,0.8
	c0,0,0.1,0.1,0.1,0c0.2-0.1,1-0.2,1.6,0.1c0.7,0.3,0.9,0.8,1,1c0,0,0,0.1,0.1,0.1c0.1,0,0.6,0,0.8,0.3c0.4,0.4,0.4,0.8,0.4,0.9
	c0,0,0,0.1,0,0.1c0.2,0.1,0.8,0.5,1.1,1.3C23.2,9.4,23,10.4,22.8,10.8z"/>
</svg>
