<svg xmlns="http://www.w3.org/2000/svg" id="Layer_1" viewBox="0 0 32 32"><style>.st0{fill:none;stroke:#008080;stroke-width:0.7;stroke-miterlimit:10;}</style><path id="XMLID_3_" d="M27 11.8c-.3-3.8-2.5-7.3-5.5-9.4C19.9 1.2 18 .5 16 .3 10.6-.5 4.9 2 2.9 7.6c-1.8 4.8 0 9.6 3.1 13.2 1.1 1.3 1.3 3.8 1.3 5.4v3.4c0 .5.4.9.9.9h11.6c.5 0 .9-.4.9-.9 0-.7.1-1.2.1-1.2.2-1.1 1.1-2 3-1.7 2 .3 3.2-.3 3.3-1.7 0-.5.1-4.4.1-4.4.1-.1.7-.2 1.6-.4.7-.2.9-1.1.4-1.6-2.1-2.1-2.3-3.1-2.4-3.3-.2-1 .3-2.4.2-3.5z" class="st0"/><path id="XMLID_2_" d="M23.2 10.6c-.3.4-.6.5-.8.5-.1 0-.1.1-.1.1.1.3.2 1.2-1.4 1.6-1.4.3-2.3 1.5-2.9 2.1-.4.5-1 .7-1.6.8-.6.1-1.2.3-1.7.7-.5.5-1.2 3.1-1.3 3.5 0 0 0 .1-.1.1h-.7s-.1 0-.1-.1l-.4-1.8c0-.1-3.5.2-3.7-1.4 0-.1-.1-.1-.1-.1-.3.1-1.4.4-2-.5-.4-.7-.3-1.3-.2-1.5v-.1c-.3-.1-1.4-.8-1.2-2.8C5 10 6.1 9.3 5.9 9c-.4-.7-.1-2 .8-2.2 0 0 .1 0 .1-.1v-.4c.1-1.5 2-2.5 3.3-1.9 0 0 .1 0 .1-.1.2-.5.5-.7.6-.7.4-.2.9-.2 1.3 0h.1c.2-.2.7-.6 1.5-.6s1.2.4 1.4.5h.1c.2-.1.9-.4 1.5-.2.5.2.8.7.9.9 0 0 .1.1.1 0 .2-.1 1.1-.2 1.8.1.7.4 1 .9 1 1 0 0 0 .1.1.1.2 0 .6 0 .9.3.5.4.4.8.4.9v.1c.2.1.8.5 1.2 1.3.6 1.2.4 2.2.1 2.6z" class="st0"/></svg>