<?xml version="1.0" encoding="utf-8"?>
<!-- Generator: Adobe Illustrator 19.0.0, SVG Export Plug-In . SVG Version: 6.00 Build 0)  -->
<svg version="1.1" id="Layer_1" xmlns="http://www.w3.org/2000/svg" xmlns:xlink="http://www.w3.org/1999/xlink" x="0px" y="0px"
	 viewBox="0 0 32 32" style="enable-background:new 0 0 32 32;" xml:space="preserve">
<style type="text/css">
	.st0{fill:#008080;stroke:#008080;stroke-width:0.6;stroke-miterlimit:10;}
</style>
<g id="XMLID_2_">
	<path id="XMLID_9_" class="st0" d="M7,16.8c-1,0-1.8,0.8-1.8,1.7c0,1,0.8,1.7,1.7,1.7s1.6-0.8,1.6-1.7c0-1-0.8-1.7-1.7-1.7H7z
		 M7,19c-0.4,0-0.7-0.2-0.7-0.5s0.3-0.6,0.6-0.6c0.2,0,0.5,0.2,0.5,0.5c0,0.4-0.3,0.6-0.6,0.6H7z"/>
	<path id="XMLID_5_" class="st0" d="M30.8,4c-0.3-0.4-0.8-0.8-1.4-1c0,0-0.2,0-0.2-0.2c-0.2-0.6-0.6-1-1-1.5c-1-0.7-2.4-0.6-3.4,0.2
		c-0.7,0.6-1,1.5-1,2.4c0,0.6-0.2,1.2-0.6,1.6L19.7,9H19c-1,0-1.7,0.4-2.4,1c-2.2,2.3-5,3.7-8.3,4c-2,0.3-3.8,1.2-5,2.7
		C0,20-0.2,25.7,2.8,29c1.5,1.8,3.7,3,6,3H9c2.3,0,4.4-1,6-2.7c1.3-1.3,2.2-3,2.5-4.7c0.5-3.2,2-6.2,4.5-8.6l0.4-0.6l0.6-1h-1.7
		c0.2,0,0.3,0,0.5-0.3l4.7-4.8c0.4-0.4,1-0.6,1.6-0.6c1,0,1.7-0.4,2.3-1c0.8-1,1-2.5,0.2-3.5L30.8,4z M16.6,24.5c-0.3,1.6-1,3-2,4
		C13,30,11,31,9,31s-4-1-5.2-2.5c-2.6-3-2.5-7.8,0.2-10.7c1.2-1.3,2.8-2,4.5-2.2c3.5-0.4,6.6-2,9-4.3l0.8-0.5l-1,4l2-0.8v2h1.6
		c-2.3,2.5-3.8,5.5-4.4,8.7L16.6,24.5z M29.8,6.8c-0.3,0.4-0.8,0.7-1.4,0.7c-1,0-2,0.3-2.5,1L21,13.2c-0.2,0.3-0.6,0.4-1,0.4V12
		l-1.3,0.4l0.3-1.2l4.7-5c0.6-0.5,1-1.5,1-2.5c0-0.6,0-1,0.5-1.4c0.5-0.5,1.4-0.5,2,0c0.3,0,0.5,0.4,0.6,0.7c-0.5,0-1,0.5-1.4,1
		c-0.2,0-0.2,0.5,0,0.7h0.8C27.5,4.2,28,4,28.5,4h0.2c0.4,0,0.6,0.4,1,0.7c0.3,0.6,0.3,1.5-0.2,2L29.8,6.8z"/>
	<path id="XMLID_4_" class="st0" d="M15.6,22.2c-0.3,0-0.6,0.2-0.6,0.5c0,0.6-0.3,1.2-0.5,1.8c0,0.3,0,0.6,0.3,0.8H15
		c0.2,0,0.4,0,0.5-0.2c0.3-0.6,0.5-1.3,0.6-2c0-0.5,0-0.8-0.4-0.8L15.6,22.2z"/>
	<path id="XMLID_3_" class="st0" d="M13.4,26c-1.2,1.5-3,2.5-4.8,3c-0.3,0-0.5,0.3-0.5,0.6s0.4,0.5,0.7,0.5c2.2-0.3,4.2-1.5,5.6-3.2
		c0.2-0.2,0.2-0.6,0-0.8c-0.3-0.3-0.7-0.3-1,0V26z"/>
</g>
</svg>
