<svg xmlns="http://www.w3.org/2000/svg" id="Layer_1" viewBox="0 0 32 32"><style>.st0{fill:#008080;}</style><g id="XMLID_2_"><path id="XMLID_9_" d="M7 16.8c-1 0-1.8.8-1.8 1.7 0 1 .8 1.7 1.7 1.7s1.6-.8 1.6-1.7c0-1-.8-1.7-1.7-1.7zM7 19c-.4 0-.7-.2-.7-.5s.3-.6.6-.6c.2 0 .5.2.5.5 0 .4-.3.6-.6.6z" class="st0"/><path id="XMLID_5_" d="M30.8 4c-.3-.4-.8-.8-1.4-1 0 0-.2 0-.2-.2-.2-.6-.6-1-1-1.5-1-.7-2.4-.6-3.4.2-.7.6-1 1.5-1 2.4 0 .6-.2 1.2-.6 1.6L19.7 9H19c-1 0-1.7.4-2.4 1-2.2 2.3-5 3.7-8.3 4-2 .3-3.8 1.2-5 2.7C0 20-.2 25.7 2.8 29c1.5 1.8 3.7 3 6 3h.2c2.3 0 4.4-1 6-2.7 1.3-1.3 2.2-3 2.5-4.7.5-3.2 2-6.2 4.5-8.6l.4-.6.6-1h-1.7c.2 0 .3 0 .5-.3l4.7-4.8c.4-.4 1-.6 1.6-.6 1 0 1.7-.4 2.3-1 .8-1 1-2.5.2-3.5zM16.6 24.5c-.3 1.6-1 3-2 4C13 30 11 31 9 31s-4-1-5.2-2.5c-2.6-3-2.5-7.8.2-10.7 1.2-1.3 2.8-2 4.5-2.2 3.5-.4 6.6-2 9-4.3l.8-.5-1 4 2-.8v2h1.6c-2.3 2.5-3.8 5.5-4.4 8.7zM29.8 6.8c-.3.4-.8.7-1.4.7-1 0-2 .3-2.5 1L21 13.2c-.2.3-.6.4-1 .4V12l-1.3.4.3-1.2 4.7-5c.6-.5 1-1.5 1-2.5 0-.6 0-1 .5-1.4.5-.5 1.4-.5 2 0 .3 0 .5.4.6.7-.5 0-1 .5-1.4 1-.2 0-.2.5 0 .7h.8c.3-.5.8-.7 1.3-.7h.2c.4 0 .6.4 1 .7.3.6.3 1.5-.2 2z" class="st0"/><path id="XMLID_4_" d="M15.6 22.2c-.3 0-.6.2-.6.5 0 .6-.3 1.2-.5 1.8 0 .3 0 .6.3.8h.2c.2 0 .4 0 .5-.2.3-.6.5-1.3.6-2 0-.5 0-.8-.4-.8z" class="st0"/><path id="XMLID_3_" d="M13.4 26c-1.2 1.5-3 2.5-4.8 3-.3 0-.5.3-.5.6s.4.5.7.5c2.2-.3 4.2-1.5 5.6-3.2.2-.2.2-.6 0-.8-.3-.3-.7-.3-1 0z" class="st0"/></g></svg>