<svg xmlns="http://www.w3.org/2000/svg" id="Layer_1" viewBox="0 0 32 32">
  <style>
    .st0{fill:#008080;}
  </style>
  <g id="XMLID_2_">
    <g id="XMLID_3_">
      <g id="XMLID_4_">
        <path id="XMLID_7_" d="M26.3 23.3c1.4-1.5 1.5-3.7 1.5-3.8V6.6c0-.2.1-1.6-1.1-2.6-.7-.6-1.7-1-3-1.1l.2-1.5H8.3l.2 1.5C7 3 5.9 3.7 5.1 4.7c-.6.9-.7 1.7-.7 1.7v13c0 .1.1 2.3 1.5 3.8C.6 25.1.4 27.8.4 27.9v1.9h31.3V28c0-.2-.1-2.8-5.4-4.7zM22.6 2.2l-.5 4.4h-12l-.5-4.4h13zm-17 17.2V6.5c0-.2.4-2.4 3-2.8l.3 2.9H7.8v.9h16.6v-.9h-1.1l.3-2.9c.9.1 1.7.3 2.2.8 1 .8.8 1.9.8 2v13c0 .1-.2 2.2-1.4 3.5l-1.3-.3c-.7-.3-2.4-1-3.2-1.5v-1.4c1.4-.6 2.6-1.5 3.4-2.6.9-1.2 1.3-2.6 1.3-4v-5l-1 .6s-3.3 1.9-5.7.8C15.5 8 7.7 8.4 7.3 8.4h-.6V13c0 1.5.5 2.8 1.3 4 .8 1.1 2 2 3.4 2.6V21c-.8.5-2.5 1.3-3.2 1.5-.4.1-.9.2-1.3.4-1.2-1.3-1.3-3.3-1.3-3.5zm9.8 4.5c-.2.6-.8 1.5-2.9 1.5-2.4 0-3.1-1.6-3.3-2.3.6-.3 1.9-.8 2.8-1.3.6.8 1.8 1.9 3.4 2.1zM8 13V9.3c.8 0 2.2-.1 3.8 0 3 .1 5.2.4 6.4.9.7.3 1.5.4 2.2.4 1.5 0 2.9-.5 3.8-.9V13c0 2.6-1.7 4.9-4.4 6-1.1.4-2.3.6-3.7.6-1.3 0-2.6-.2-3.7-.6C9.7 17.9 8 15.6 8 13zm4.7 8.1V20c1 .3 2.2.5 3.4.5 1.2 0 2.3-.2 3.4-.5v1.1c-.3.4-1.7 2-3.4 2s-3.1-1.6-3.4-2zm7.5.8c.9.5 2.1 1 2.8 1.3-.1.3-.2.6-.5 1-.6.8-1.6 1.2-2.8 1.2-1.2 0-2.1-.3-2.6-.9-.2-.2-.3-.4-.3-.6 1.6-.2 2.8-1.3 3.4-2zM30.5 29H1.6v-1c0-.1.2-2.5 5.4-4.1.4-.1.7-.2 1-.3.1.3.3.7.6 1.1.8 1.1 2.2 1.7 3.8 1.7 1.4 0 2.4-.3 3-.8v2.7h1.2v-2.7c.6.4 1.6.8 3 .8 1.7 0 3-.6 3.8-1.7.3-.4.5-.8.6-1.1.4.1.7.2 1 .3 1.5.5 3.6 1.3 4.7 2.7.7.8.7 1.4.7 1.4l.1 1z" class="st0"/>
        <path id="XMLID_6_" d="M17.7 14.9h-1V13h-1.2v2.8h2.2z" class="st0"/>
        <path id="XMLID_5_" d="M15.5 5.9h1.2v-1h1.4V4h-1.4V3h-1.2v1h-1.4v.9h1.4z" class="st0"/>
      </g>
    </g>
  </g>
</svg>
