<svg xmlns="http://www.w3.org/2000/svg" id="Layer_1" viewBox="0 0 32 32">
  <style>
    .st0{fill:none;stroke:#008080;stroke-width:1.2;stroke-miterlimit:10;}
  </style>
  <path id="XMLID_3_" d="M25 4.5c-.1.2-.3.4-.4.7-.2.6-.2 1.2.1 1.7.6.9 1.5 2.7.8 4.3-.4 1-1.4 1.7-2.9 2.1-.2.1-.5.1-.7.2-.2.1-.3.3-.4.5 0 .2.1.4.3.5.5.3 1 .5 1.5.9.6 0 1.2.1 1.7.5 1.4.8 1.9 2.6 1.7 5.2-.1.7-.6 1.2-1.3 1.2h-.1c-.7-.1-1.3-.7-1.2-1.4v-.6c0-.1-.1-.3-.2-.3-.1-.1-.3 0-.4.1-1.8 1.9-4 3.5-8.6 3.2-4.7-.3-7.7-3.9-6.8-6.8.1-.2 0-.5-.3-.6-1.4-.8-2.3-2.3-2.3-4 0-2.4 2.1-4.4 4.5-4.3 2.5 0 3.6 2.8 3.5 5.2 0 .3 0 .5-.1.8 0 .2.1.4.2.5.2.1.4.1.6 0 .1 0 .2-.1.2-.1.1 0 .2-.1.3-.1.3-.8.4-1.6.2-2.1-.3-.6-.1-1.4.5-1.8.6-.3 1.5-.1 1.8.5.4.7.5 1.4.4 2.2 0 .5.3.9.8.9.2 0 .5.1.7.1.2 0 .4 0 .6-.2.4-.6 1.2-1.1 2.4-1.4 1-.2 1.7-.7 2-1.3.3-.8.1-1.9-.7-3.1-.5-.8-.6-1.9-.2-2.9.1-.3.3-.6.5-1-2.2-1.5-4.9-2.3-7.7-2.4C8.1 1.2 1.4 7.6 1.3 15.6c-.1 8 6.3 14.6 14.3 14.8 8.1.1 14.7-6.2 14.9-14.3.1-4.6-2.1-8.9-5.5-11.6z" class="st0"/>
</svg>
