<?xml version="1.0" encoding="utf-8"?>
<!-- Generator: Adobe Illustrator 19.0.0, SVG Export Plug-In . SVG Version: 6.00 Build 0)  -->
<svg version="1.1" id="Layer_1" xmlns="http://www.w3.org/2000/svg" xmlns:xlink="http://www.w3.org/1999/xlink" x="0px" y="0px"
	 viewBox="0 0 32 32" style="enable-background:new 0 0 32 32;" xml:space="preserve">
<style type="text/css">
	.st0{fill:#008080;}
</style>
<g id="XMLID_2_">
	<g id="XMLID_3_">
		<path id="XMLID_4_" class="st0" d="M16.1,0.5C7.5,0.5,0.6,7.5,0.6,16c0,8.5,6.9,15.5,15.5,15.5S31.6,24.5,31.6,16
			C31.6,7.5,24.6,0.5,16.1,0.5z M26.1,26c-1.3,1.3-2.8,2.3-4.5,3c-1.8,0.7-3.6,1.1-5.5,1.1s-3.8-0.4-5.5-1.1c-1.7-0.7-3.2-1.7-4.5-3
			s-2.3-2.8-3-4.5c-0.7-1.7-1.1-3.6-1.1-5.5s0.4-3.8,1.1-5.5C3.7,8.8,4.7,7.3,6,6c0.2-0.2,0.3-0.3,0.5-0.5C7,5.7,7.8,6.3,8.6,7
			c1,0.9,2.2,2.4,2.2,3.8c0,1.2-0.5,1.5-1.3,1.9c-0.9,0.5-2.2,1.2-2,3.6c0.1,1.1,0.6,2,1.7,2.8c0.8,0.6,1.8,1,3,1.4
			c0.2,0.1,0.4,0.1,0.6,0.2c0,0.1-0.1,0.2-0.1,0.3c0,0.1,0,0.1,0,0.2c-0.1,0-0.1,0-0.1,0c0,0-0.1,0-0.1-0.1
			c-0.2-0.1-0.5-0.3-1.1-0.3c-0.1,0-0.1,0-0.2,0c-0.7,0-1.4,0.4-2.1,1.1c-0.5,0.5-0.8,1-0.8,1l-0.3,0.4l2.1,2.3l1.3-0.5
			c1.1,1.2,2.5,1.8,4.1,1.8c0,0,0,0,0,0c1.4,0,2.8-0.5,4.2-1.4c1.2-0.9,2.3-2,3-3.3c1-1.9,1.2-3.8,0.5-5.3c2-1,3.5-3.1,3.5-5.5
			c0-3.4-2.7-6.1-6.1-6.1c-3.4,0-6.1,2.7-6.1,6.1c0,1.7,0.7,3.2,1.8,4.3c-0.1,0-0.1,0-0.2,0c0,0-0.1,0-0.1,0L13,14.5l-1.3,2.2l2.1,2
			c-0.2,0.3-0.5,0.5-0.6,0.8c-0.3-0.1-0.5-0.1-0.8-0.2c-1.6-0.5-3.6-1.4-3.7-3c-0.1-1.6,0.5-1.9,1.3-2.4c0.8-0.4,2-1.1,2-3
			C12.1,8,9,5.6,7.6,4.6c0.9-0.7,1.9-1.2,2.9-1.7c1.8-0.7,3.6-1.1,5.5-1.1s3.8,0.4,5.5,1.1c1.7,0.7,3.2,1.7,4.5,3
			c1.3,1.3,2.3,2.8,3,4.5c0.7,1.7,1.1,3.6,1.1,5.5s-0.4,3.8-1.1,5.5C28.4,23.2,27.4,24.7,26.1,26z M13.4,16.5l0.2-0.3l1.9,0.7l0.1,0
			c0.1,0,0.2,0,0.3,0c0.5,0,0.9-0.1,1.4-0.4c0.9,0.5,2,0.8,3.1,0.8c0.5,0,1-0.1,1.4-0.2c0.6,1.2,0.5,2.7-0.4,4.3
			c-1.3,2.4-3.9,4.1-6.1,4.1c-1.3,0-2.5-0.6-3.4-1.7l-0.3-0.4L10.3,24l-0.8-0.9c0.4-0.6,1.1-1.1,1.5-1.1c0,0,0,0,0,0
			c0.4,0,0.6,0.1,0.7,0.2c0.2,0.1,0.4,0.2,0.7,0.2c0.2,0,0.5-0.1,0.8-0.2c0.3-0.1,0.4-0.5,0.6-0.9c0.2-0.6,0.5-1.5,1.3-2.1l0.7-0.4
			L13.4,16.5z M15.6,11.3c0-2.6,2.2-4.8,4.8-4.8c2.6,0,4.8,2.1,4.8,4.8c0,2.6-2.2,4.8-4.8,4.8C17.7,16.1,15.6,14,15.6,11.3z"/>
	</g>
</g>
</svg>
