<?xml version="1.0" encoding="utf-8"?>
<!-- Generator: Adobe Illustrator 19.0.0, SVG Export Plug-In . SVG Version: 6.00 Build 0)  -->
<svg version="1.1" id="Layer_1" xmlns="http://www.w3.org/2000/svg" xmlns:xlink="http://www.w3.org/1999/xlink" x="0px" y="0px"
	 viewBox="0 0 32 32" style="enable-background:new 0 0 32 32;" xml:space="preserve">
<style type="text/css">
	.st0{fill:#008080;}
</style>
<g id="XMLID_2_">
	<g id="XMLID_3_">
		<path id="XMLID_4_" class="st0" d="M28.2,7.4L28.2,7.4c0.2-0.3,0.2-0.6,0.1-0.8c-0.2-0.2-0.5-0.2-0.7,0l-6.8,7
			c-0.3,0.3-0.3,0.7-0.1,1c0.5,0.9,0.4,2-0.4,2.7c-0.1,0.1-0.2,0.2-0.3,0.3c0,0,0,0,0,0c-0.7,0.4-1.7,0.3-2.4-0.2
			c-0.4-0.3-0.6-0.7-0.7-1.2c0,0,0,0,0,0c0,0,0,0,0,0l-0.2-0.9c-0.1-0.3-0.3-0.4-0.6-0.4c-0.2,0-0.4,0.3-0.4,0.5
			c-0.3-0.1-0.5-0.3-0.7-0.5c-0.6-0.8-0.6-2.1,0-2.8c0.7-0.8,1.8-0.9,2.7-0.4c0.3,0.2,0.7,0.2,1-0.1l6.9-7.1c0.2-0.2,0.2-0.5,0-0.7
			c-0.2-0.2-0.5-0.2-0.7,0l0,0c-2.5-2-5.7-3.1-8.9-3.1c-3.9,0-7.6,1.6-10.4,4.4C2.8,8,1.3,11.8,1.3,15.8c0,3.7,1.3,7.2,3.7,9.9
			c2.2,2.6,5.3,4.3,8.6,4.9v0.1c0,0.3,0.2,0.5,0.5,0.5s0.5-0.2,0.5-0.5v-0.4c0,0,0,0,0,0c0-0.1,0-0.1,0-0.2v-8.8
			c0-0.4-0.3-0.7-0.6-0.8c-1-0.2-1.7-1.2-1.6-2.2c0.1-1.1,0.9-1.9,1.9-2c0.5,0,0.9,0.1,1.3,0.4c0.1,0.1,0.3,0.1,0.4,0.1
			c0.2,0.6,0.5,1.1,0.9,1.4c0.6,0.5,1.3,0.7,2,0.7c0.3,0,0.5,0,0.8-0.1c-0.1,0.8-0.8,1.5-1.6,1.7c-0.4,0.1-0.6,0.4-0.6,0.8v9.4
			c0,0.3,0.2,0.5,0.5,0.5c0.3,0,0.5-0.2,0.5-0.5v-0.1c3.3-0.6,6.4-2.3,8.6-4.9c2.4-2.7,3.7-6.3,3.7-9.9C30.7,12.8,29.8,9.9,28.2,7.4
			z M14.4,11.4c-0.9,1-1,2.8-0.2,3.9c-1.5,0.1-2.7,1.4-2.8,2.9c-0.1,1.5,0.8,2.8,2.2,3.2v8.2c-6.5-1.2-11.3-7-11.3-13.8
			c0-7.7,6.2-14,13.7-14c3,0,5.9,1,8.2,2.8l-6.1,6.2C16.9,10.1,15.3,10.3,14.4,11.4z M18.4,29.6v-8.2c1.4-0.4,2.3-1.6,2.2-3.1
			c0.1-0.1,0.2-0.1,0.3-0.2c1.1-1,1.3-2.6,0.6-3.9l6-6.1c1.5,2.3,2.2,4.9,2.2,7.7C29.7,22.6,24.9,28.4,18.4,29.6z"/>
	</g>
</g>
</svg>
