<?xml version="1.0" encoding="utf-8"?>
<!-- Generator: Adobe Illustrator 19.0.0, SVG Export Plug-In . SVG Version: 6.00 Build 0)  -->
<svg version="1.1" id="Layer_1" xmlns="http://www.w3.org/2000/svg" xmlns:xlink="http://www.w3.org/1999/xlink" x="0px" y="0px"
	 viewBox="0 0 32 32" style="enable-background:new 0 0 32 32;" xml:space="preserve">
<style type="text/css">
	.st0{fill:#008080;}
	.st1{font-family:'CalisMTBol';}
	.st2{font-size:12.8611px;}
</style>
<g id="XMLID_1_">
	<path id="XMLID_12_" class="st0" d="M32,16c0,0,0,0.4-0.1,1.2c0,0.4-0.1,0.8-0.2,1.3c-0.2,0.5-0.3,1.2-0.6,1.7
		c-0.5,1.2-1.3,2.6-2.6,3.8c-1.2,1.3-2.7,2.4-4.5,3.3c-1.8,0.9-3.8,1.6-6,1.8c-0.5,0-1.1,0.1-1.7,0.1h-1.7c-1.1-0.1-2.4-0.3-3.6-0.5
		c-1.2-0.3-2.4-0.8-3.6-1.3C6.3,26.8,5.1,26,4,25C3,24,2,22.8,1.2,21.2C0.5,19.7,0,17.9,0,16l0.1-1.3c0.1-0.4,0.2-0.9,0.2-1.4
		c0.2-0.9,0.5-1.7,0.9-2.5C2,9.1,3,7.9,4,6.9c1-1.1,2.3-1.8,3.4-2.4C8.7,4,9.8,3.5,11,3.2c2.4-0.7,4.7-0.8,6.9-0.5
		c2.3,0.3,4.2,0.9,6.1,1.8c1.8,0.9,3.3,2,4.5,3.3c1.2,1.3,2.1,2.6,2.6,3.8c0.3,0.7,0.4,1.2,0.6,1.7c0.1,0.5,0.2,0.9,0.2,1.3
		C31.9,15.6,32,16,32,16z M32,16c0,0,0-0.4-0.1-1.2c0-0.4-0.1-0.8-0.2-1.3c-0.2-0.5-0.3-1.1-0.6-1.7c-0.5-1.2-1.3-2.6-2.6-3.7
		c-1.2-1.2-2.8-2.2-4.5-2.9S20.1,4,18.1,4c-2.2,0-4.3,0.3-6.6,1.1C9.3,5.8,7.1,7.2,5.3,9c-1.8,1.8-3.1,4.3-3.1,7.1
		c0,1.3,0.3,2.8,0.8,3.9c0.5,1.1,1.3,2.1,2.2,3c1.9,1.8,3.9,3.2,6.2,3.9c1.1,0.4,2.3,0.7,3.3,0.8c0.5,0.1,1.1,0.1,1.7,0.1H18
		c2.2,0,4.1-0.5,5.9-1.2c1.8-0.7,3.3-1.7,4.5-2.9c1.2-1.2,2.1-2.5,2.6-3.7c0.3-0.5,0.4-1.2,0.6-1.7c0.1-0.5,0.2-0.9,0.2-1.3
		C31.9,16.4,32,16,32,16z"/>
</g>
<text id="XMLID_2_" transform="matrix(0.5707 0 0 1 3.4858 20.6894)" class="st0 st1 st2">OTHER</text>
</svg>
