<svg xmlns="http://www.w3.org/2000/svg" id="Layer_1" viewBox="0 0 32 32"><style>.st0{fill:#008080;}</style><g id="XMLID_2_"><path id="XMLID_18_" d="M30.5 6.6H1.6C.7 6.6 0 7.3 0 8.2v16.4c0 .9.7 1.6 1.6 1.6h28.9c.9 0 1.6-.7 1.6-1.6V8.2c.1-.9-.7-1.6-1.6-1.6zM1 24.7V8.2c0-.3.3-.6.6-.6h22.8v17.6H1.6c-.3 0-.6-.2-.6-.5zm30.1 0c0 .3-.3.6-.6.6h-5V7.6h5c.3 0 .6.3.6.6v16.5z" class="st0"/><path id="XMLID_17_" d="M22.7 9.4c-.3 0-.5.2-.5.5V23c0 .3.2.5.5.5s.5-.2.5-.5V9.9c.1-.3-.2-.5-.5-.5z" class="st0"/><path id="XMLID_14_" d="M20.5 9.4H3.3c-.3 0-.5.2-.5.5V23c0 .3.2.5.5.5h17.2c.3 0 .5-.2.5-.5V9.9c0-.3-.2-.5-.5-.5zM20 22.5H3.8V10.4H20v12.1z" class="st0"/><path id="XMLID_10_" d="M28.3 19.8c-1.2 0-2.2 1-2.2 2.2 0 1.2 1 2.2 2.2 2.2 1.2 0 2.2-1 2.2-2.2 0-1.3-1-2.2-2.2-2.2zm1.1 2.1c0 .1 0 .2-.1.3l-1.4-1.4c.1 0 .2-.1.4-.1.6.1 1.1.6 1.1 1.2zm-2.2 0c0-.1 0-.2.1-.3l1.4 1.4c-.1 0-.2.1-.4.1-.6 0-1.1-.6-1.1-1.2z" class="st0"/><path id="XMLID_6_" d="M28.3 14.8c-1.2 0-2.2 1-2.2 2.2 0 1.2 1 2.2 2.2 2.2 1.2 0 2.2-1 2.2-2.2s-1-2.2-2.2-2.2zm1.1 2.2c0 .1 0 .2-.1.3l-1.4-1.4c.1 0 .2-.1.4-.1.6.1 1.1.6 1.1 1.2zm-2.2 0c0-.1 0-.2.1-.3l1.4 1.4c-.1 0-.2.1-.4.1-.6-.1-1.1-.6-1.1-1.2z" class="st0"/><path id="XMLID_5_" d="M27.2 13.7h2.2c.3 0 .5-.2.5-.5s-.2-.5-.5-.5h-2.2c-.3 0-.5.2-.5.5 0 .2.2.5.5.5z" class="st0"/><path id="XMLID_4_" d="M27.2 12h2.2c.3 0 .5-.2.5-.5s-.2-.5-.5-.5h-2.2c-.3 0-.5.2-.5.5s.2.5.5.5z" class="st0"/><path id="XMLID_3_" d="M27.2 10.4h2.2c.3 0 .5-.2.5-.5s-.2-.5-.5-.5h-2.2c-.3 0-.5.2-.5.5s.2.5.5.5z" class="st0"/></g></svg>