<?xml version="1.0" encoding="utf-8"?>
<!-- Generator: Adobe Illustrator 19.0.0, SVG Export Plug-In . SVG Version: 6.00 Build 0)  -->
<svg version="1.1" id="Layer_1" xmlns="http://www.w3.org/2000/svg" xmlns:xlink="http://www.w3.org/1999/xlink" x="0px" y="0px"
	 viewBox="0 0 32 32" style="enable-background:new 0 0 32 32;" xml:space="preserve">
<style type="text/css">
	.st0{fill:#008080;}
</style>
<g id="XMLID_2_">
	<g id="XMLID_3_">
		<path id="XMLID_4_" class="st0" d="M32,8.7c0-4-2.6-7.3-5.9-7.3s-5.9,3.3-5.9,7.3c0,0.5,0,1,0.1,1.5c-0.6-0.4-1.4-0.7-2.1-0.7H9.5
			C6,9.5,3.1,13,3.1,17.4c0,1.4,0.3,2.7,0.8,3.9l1.3,2.8H3.1c-1.4,0-2.6,1.5-2.6,3.2c0,1.8,1.2,3.2,2.6,3.2h4.6
			c1.8,0,3.3-1.8,3.3-4.1v-4.1h8.1l1.9,5.9c0.4,1.4,1.5,2.3,2.7,2.3c1.3,0,2.5-1.1,2.8-2.7l0.1-0.3c0.1-0.7,0.1-1.5-0.1-2.2L23,14.9
			c0.9,0.7,1.9,1.1,3.1,1.1C29.4,16,32,12.7,32,8.7z M9.7,26.5c0,1.3-0.9,2.4-2,2.4H3.1c-0.7,0-1.3-0.7-1.3-1.6s0.6-1.6,1.3-1.6h3.3
			c0.2,0,0.4-0.2,0.6-0.4c0.1-0.3,0.1-0.6,0-0.8l-0.9-2h3.7L9.7,26.5L9.7,26.5z M9.7,20.9H5.3l-0.2-0.4c-0.4-0.9-0.7-2-0.7-3.1
			c0-3.4,2.3-6.2,5-6.2h0.2L9.7,20.9L9.7,20.9z M25.2,26c0.1,0.4,0.1,0.8,0.1,1.2l-0.1,0.3C25,28.4,24.4,29,23.7,29
			c-0.7,0-1.2-0.5-1.5-1.2l-2.1-6.4c-0.1-0.3-0.3-0.5-0.6-0.5H11v-9.7h7.2c1.3,0,2.5,1,3,2.5L25.2,26z M21.5,8.7
			c0-3.1,2.1-5.7,4.6-5.7s4.6,2.5,4.6,5.7s-2.1,5.7-4.6,5.7C23.6,14.4,21.5,11.8,21.5,8.7z"/>
	</g>
</g>
</svg>
