<svg xmlns="http://www.w3.org/2000/svg" id="Layer_1" viewBox="0 0 32 32">
  <style>
    .st0{fill:none;stroke:#008080;stroke-width:1.3;stroke-miterlimit:10;}
  </style>
  <g id="XMLID_2_">
    <g id="XMLID_3_">
      <path id="XMLID_5_" d="M6.3 23.3H2.7s-1.8 0-1.8 3.5c.1 2.3 1.5 2.6 1.7 2.6h7.3s1.8 0 1.9-2.8v-.1V24c0-.3.2-.6.4-.6H18c.1 0 .2.1.2.2l1.3 3.8c.5 1.6 1.5 2.7 3.1 2 1.5-.7 1.6-2.2 1.4-3.3l-3.4-12.8c-.5-1.5-1.8-2.4-3.4-2.4H9.4c-4.3 0-7.8 6.3-3 12.3 0 .1 0 .1-.1.1z" class="st0"/>
      <ellipse id="XMLID_4_" cx="26.1" cy="8.5" class="st0" rx="5.3" ry="6.7"/>
    </g>
  </g>
</svg>
