<svg xmlns="http://www.w3.org/2000/svg" id="Layer_1" viewBox="0 0 32 32">
  <style>
    .st0{fill:#008080;}
  </style>
  <g id="XMLID_2_">
    <g id="XMLID_3_">
      <path id="XMLID_14_" d="M29.7 6.7H2.3v17.7h27.3V6.7zm-1.9 15.9H4.2V8.4h23.7v14.2z" class="st0"/>
      <path id="XMLID_13_" d="M17.7 11.7h1.8v6.9h-1.8z" class="st0"/>
      <path id="XMLID_10_" d="M13.8 16H15v2.7h1.8v-6.9H12v6.9h1.8V16zm0-2.6H15v.8h-1.2v-.8z" class="st0"/>
      <path id="XMLID_7_" d="M8.2 16h3.1v-4.2H6.4v6.9h1.8V16zm0-2.6h1.2v.8H8.2v-.8z" class="st0"/>
      <path id="XMLID_4_" d="M25.6 17.2v-4.1l-1.8-1.4h-3.3v6.9h3.3l1.8-1.4zm-1.8-.8l-.6.5h-.8v-3.5h.8l.6.5v2.5z" class="st0"/>
    </g>
  </g>
</svg>
