<svg xmlns="http://www.w3.org/2000/svg" id="Layer_1" viewBox="0 0 32 32"><style>.st0{fill:#008080;}</style><path d="M32 2.2C32 1 31 0 29.8 0c-.5 0-.9.1-1.3.4-.9.7-1.4 2.1-2.2 3-1 1.1-3.2.6-5-1.3C19.3 4 16.5 6 14 6.7L15.6 9c.7.1 1.8-.2 2.4-.7-.3.8-.9 1.4-1.7 1.7l.7.9c1.6 2.1-1.6 2.3-3.8 2.3-2.4 0-7.7-.5-7.7-1.9 0-1.6 5.9-2.1 7.7-2.1l-1.7-2.4c-4.4.3-7.2 1.6-8.3 2.7-.4.4-.6.8-.6 1v2.8C.9 14.8 0 16.4 0 18.1c0 3 2.8 4.6 6.1 4.6 1.9 0 4-.5 6.7-1.8.3.3.8.4 1.2.4 1.1 0 2-.9 2-2s-.9-2-2-2c-1.3 0-2.2 1.2-2 2.4-2.8 1.3-5 1.7-6.8 1.5v-6.8c2 1.4 7.5 1.9 11.9 1.4.8-.1 1.5.6 1.5 1.3v4.1c0 .7.6 1.3 1.3 1.3.7 0 1.3-.6 1.3-1.3V17c0-1.2.6-1.8 1.4-2.5V27c-.1.4-3 2.3-9.3 2.3-6.4 0-8-2-8.1-2.3v-3c-.8 0-2-.3-2.6-.6V27c0 .8.3 1.6 1 2.4 1.5 1.5 4.7 2.6 9.6 2.6 5.2 0 9.3-1.3 11-3 .6-.6.9-1.3.9-2V11.7c.8-.6 1.6-1.1 2.3-1.5-1.4-2.3-1.2-4.3.3-5 1-.5 2.4-.6 3.3-1.3.7-.4 1-1.1 1-1.7zM1.3 18.1c0-1 .5-2 1.3-2.9v5.3c-.8-.6-1.3-1.4-1.3-2.4zm22-7.5l-3.6-4.7 1.7-1.3 3.7 4.8-1.8 1.2zm7-7.9c-.3.2-.8.2-1-.1-.2-.3-.2-.8.1-1 .3-.2.8-.2 1 .1.3.3.2.8-.1 1z" class="st0"/></svg>