<?xml version="1.0" encoding="utf-8"?>
<!-- Generator: Adobe Illustrator 19.0.0, SVG Export Plug-In . SVG Version: 6.00 Build 0)  -->
<svg version="1.1" id="Layer_1" xmlns="http://www.w3.org/2000/svg" xmlns:xlink="http://www.w3.org/1999/xlink" x="0px" y="0px"
	 viewBox="0 0 32 32" style="enable-background:new 0 0 32 32;" xml:space="preserve">
<style type="text/css">
	.st0{fill:#008080;}
</style>
<g id="XMLID_2_">
	<g id="XMLID_3_">
		<path id="XMLID_4_" class="st0" d="M31,2.1c0-0.5-0.4-0.9-0.9-0.9c-0.2,0-3.8-0.2-8.3,0.4C15.7,2.5,11.2,4.2,8.5,7
			C4,11.3,4,18.2,7.8,22.7l-6.6,6.5c-0.4,0.4-0.4,1,0,1.4c0.2,0.2,0.4,0.3,0.7,0.3s0.5-0.1,0.7-0.3L9.2,24c4.6,3.8,11.5,3.7,16-0.7
			c2.8-2.7,4.6-7.1,5.4-13.1C31.2,5.9,31,2.3,31,2.1z M23.8,22c-3.7,3.6-9.4,3.7-13.2,0.7l1.8-1.8h6.5c0.5,0,1-0.4,1-0.9s-0.4-1-1-1
			h-4.6l4.3-4.2h6.5c0.5,0,1-0.4,1-1s-0.4-1-1-1h-4.6l4.6-4.5c0.4-0.4,0.4-1,0-1.4c-0.4-0.4-1-0.4-1.4,0l-4.6,4.5V7c0-0.5-0.5-1-1-1
			s-1,0.4-1,1v6.4l-4.3,4.2v-4.5c0-0.5-0.4-1-1-1s-1,0.4-1,1v6.4l-1.8,1.7c-3.1-3.7-3-9.4,0.7-13C14.1,4.1,23,3.1,29.1,3.1
			C29.1,6.3,28.8,17.1,23.8,22z"/>
	</g>
</g>
</svg>
