<?xml version="1.0" encoding="utf-8"?>
<!-- Generator: Adobe Illustrator 19.0.0, SVG Export Plug-In . SVG Version: 6.00 Build 0)  -->
<svg version="1.1" id="Layer_1" xmlns="http://www.w3.org/2000/svg" xmlns:xlink="http://www.w3.org/1999/xlink" x="0px" y="0px"
	 viewBox="0 0 32 32" style="enable-background:new 0 0 32 32;" xml:space="preserve">
<style type="text/css">
	.st0{fill:#008080;}
</style>
<g id="XMLID_2_">
	<path id="XMLID_3_" class="st0" d="M26.5,27.3h-1.9l-0.5-13.2c0-2.6-1.4-3.4-1.9-3.7c0,0-2.1-1.2-2.1-1.2l0.4-0.6
		c0.2-0.3,0.1-0.6-0.2-0.8l-0.4-0.2l1-1.5l0.6,0.3c0.1,0.1,0.2,0.1,0.3,0.1c0.1,0,0.1,0,0.2,0c0.2,0,0.3-0.1,0.4-0.3l1-1.4
		c0.2-0.3,0.1-0.6-0.2-0.8l-4.5-2.3c-0.2-0.1-0.3-0.1-0.5-0.1c-0.2,0-0.3,0.1-0.4,0.3l-1,1.4C16.6,3.6,16.7,4,17,4.1l0.6,0.3l-1,1.5
		l-0.4-0.2c-0.2-0.1-0.3-0.1-0.5-0.1c-0.2,0-0.3,0.1-0.4,0.3l-6.4,9.3c-0.2,0.3-0.1,0.6,0.2,0.8l0.7,0.4l-1.2,1.8
		c-0.1,0.1-0.1,0.3-0.1,0.4c0,0.1,0.2,0.3,0.3,0.3l1.6,0.8c0.1,0.1,0.2,0.1,0.3,0.1c0.2,0,0.4-0.1,0.6-0.3l1.2-1.8l0.7,0.4
		c0.1,0.1,0.2,0.1,0.3,0.1c0.1,0,0.1,0,0.2,0c0.2,0,0.3-0.1,0.4-0.3l1-1.4l1.6,0.8c0.4,0.2,0.7,0.5,0.8,0.9c0.1,0.4,0.1,0.8-0.2,1.2
		l-2.9,4.2L13.4,23l0.2-0.2c0.2-0.3,0.1-0.6-0.2-0.8l-8.2-4.1c-0.2-0.1-0.3-0.1-0.5-0.1c-0.2,0-0.3,0.1-0.4,0.3l-1,1.5
		c-0.2,0.3-0.1,0.6,0.2,0.8l1.2,0.6l-0.6,0.9c-0.2,0.3-0.1,0.6,0.2,0.8l4.6,2.3C9,24.9,9.1,25,9.2,25c0.1,0,0.1,0,0.2,0
		c0.2,0,0.3-0.1,0.4-0.3l0.6-0.9l0.7,0.3l-2.2,3.2H5.6c-1.3,0-2.3,0.9-2.3,2V30c0,0.3,0.3,0.6,0.7,0.6h24.1c0.4,0,0.7-0.3,0.7-0.6
		v-0.8C28.8,28.2,27.8,27.3,26.5,27.3z M18.5,3l3.4,1.7l-0.3,0.4l-3.4-1.7L18.5,3z M18.7,5l1.1,0.5l-1,1.5l0,0l-1-0.5L18.7,5z
		 M10.5,18.5l-0.4-0.2l0.9-1.3l0.4,0.2L10.5,18.5z M15,14.4l-1.7,2.5l-3-1.5L16.1,7l3,1.5l-1.3,1.8c-0.3-0.1-0.5-0.1-0.8-0.1
		c-1,0-1.9,0.5-2.4,1.2C13.9,12.4,14.1,13.6,15,14.4z M15.7,12c0.3-0.4,0.8-0.6,1.3-0.6c0.3,0,0.5,0.1,0.8,0.2
		c0.7,0.4,0.9,1.1,0.5,1.8c-0.3,0.4-0.8,0.6-1.3,0.6c-0.3,0-0.5-0.1-0.8-0.2C15.5,13.4,15.3,12.6,15.7,12z M9,23.6l-3.4-1.7l0.3-0.4
		l3.4,1.7L9,23.6z M4.7,19.6L5,19.1l7.1,3.6l-0.3,0.5L4.7,19.6z M12.7,24l1.7,0.9c0.1,0.1,0.2,0.1,0.3,0.1c0.1,0,0.1,0,0.2,0
		c0.2,0,0.3-0.1,0.4-0.3l3.2-4.6c0.4-0.6,0.5-1.3,0.3-2c-0.2-0.7-0.7-1.3-1.4-1.6l-1.6-0.8l0.4-0.5c0.3,0.1,0.6,0.1,0.8,0.1
		c1,0,1.9-0.5,2.4-1.2c0.7-1,0.4-2.2-0.5-3l0.5-0.7c0,0,2,1.1,2,1.2c0.4,0.2,1.4,0.8,1.4,2.8c0,0,0,0,0,0l0.5,13.1H10.5L12.7,24z
		 M27.5,29.5H4.7v-0.2c0-0.5,0.4-0.8,1-0.8h20.9c0.5,0,1,0.4,1,0.8V29.5z"/>
</g>
</svg>
