<?xml version="1.0" encoding="utf-8"?>
<!-- Generator: Adobe Illustrator 19.0.0, SVG Export Plug-In . SVG Version: 6.00 Build 0)  -->
<svg version="1.1" id="Layer_1" xmlns="http://www.w3.org/2000/svg" xmlns:xlink="http://www.w3.org/1999/xlink" x="0px" y="0px"
	 viewBox="0 0 32 32" style="enable-background:new 0 0 32 32;" xml:space="preserve">
<style type="text/css">
	.st0{fill:#008080;}
</style>
<g id="XMLID_2_">
	<path id="XMLID_3_" class="st0" d="M26.5,27.8h-1.9l-0.5-14.3c0-2.8-1.4-3.7-1.9-4l-2.1-1.3l0.4-0.6c0.2-0.3,0.1-0.6-0.2-0.9
		l-0.4-0.2l1-1.6l0.6,0.3c0.1,0.1,0.2,0.1,0.3,0.1c0.1,0,0.1,0,0.2,0c0.2,0,0.3-0.1,0.4-0.3l1-1.5c0.2-0.3,0.1-0.6-0.2-0.9l-4.5-2.5
		C18.5,0,18.4,0,18.2,0s-0.3,0.1-0.4,0.3l-1,1.5c-0.2,0.3-0.1,0.8,0.2,0.9L17.6,3l-1,1.6l-0.4-0.2c-0.2-0.1-0.3-0.1-0.5-0.1
		s-0.3,0.1-0.4,0.3l-6.4,10c-0.2,0.3-0.1,0.6,0.2,0.9L9.8,16l-1.2,1.9c-0.1,0.1-0.1,0.3-0.1,0.4c0,0.1,0.2,0.3,0.3,0.3l1.6,0.9
		c0.1,0.1,0.2,0.1,0.3,0.1c0.2,0,0.4-0.1,0.6-0.3l1.2-1.9l0.7,0.4c0.1,0.1,0.2,0.1,0.3,0.1s0.1,0,0.2,0c0.2,0,0.3-0.1,0.4-0.3l1-1.5
		l1.6,0.9c0.4,0.2,0.7,0.5,0.8,1c0.1,0.4,0.1,0.9-0.2,1.3l-2.9,4.5l-1-0.6l0.2-0.2c0.2-0.3,0.1-0.6-0.2-0.9l-8.2-4.4
		c-0.2-0.1-0.3-0.1-0.5-0.1s-0.3,0.1-0.4,0.3l-1,1.6c-0.2,0.3-0.1,0.6,0.2,0.9L4.7,21l-0.6,1c-0.2,0.3-0.1,0.6,0.2,0.9l4.6,2.5
		c0.1-0.1,0.2,0,0.3,0c0.1,0,0.1,0,0.2,0c0.2,0,0.3-0.1,0.4-0.3l0.6-1l0.7,0.3l-2.2,3.5H5.6c-1.3,0-2.3,1-2.3,2.2v0.8
		c0,0.3,0.3,0.6,0.7,0.6h24.1c0.4,0,0.7-0.3,0.7-0.6v-0.9C28.8,28.7,27.8,27.8,26.5,27.8z M18.5,1.5l3.4,1.8l-0.3,0.4l-3.4-1.8
		L18.5,1.5z M18.7,3.7l1.1,0.5l-1,1.6l0,0l-1-0.5L18.7,3.7z M10.5,18.3L10.1,18l0.9-1.4l0.4,0.2L10.5,18.3z M15,13.8l-1.7,2.7
		l-3-1.6l5.8-9.1l3,1.6l-1.3,1.9c-0.3-0.1-0.5-0.1-0.8-0.1c-1,0-1.9,0.5-2.4,1.3C13.9,11.7,14.1,13,15,13.8z M15.7,11.2
		c0.3-0.4,0.8-0.6,1.3-0.6c0.3,0,0.5,0.1,0.8,0.2c0.7,0.4,0.9,1.2,0.5,1.9c-0.3,0.4-0.8,0.6-1.3,0.6c-0.3,0-0.5-0.1-0.8-0.2
		C15.5,12.7,15.3,11.9,15.7,11.2z M9,23.8l-3.4-1.8l0.3-0.4l3.4,1.8L9,23.8z M4.7,19.4L5,18.9l7.1,3.9l-0.3,0.5L4.7,19.4z
		 M12.7,24.2l1.7,1c0.1,0.1,0.2,0.1,0.3,0.1s0.1,0,0.2,0c0.2,0,0.3-0.1,0.4-0.3l3.2-5c0.4-0.6,0.5-1.4,0.3-2.2s-0.7-1.4-1.4-1.7
		l-1.6-0.9l0.4-0.5c0.3,0.1,0.6,0.1,0.8,0.1c1,0,1.9-0.5,2.4-1.3c0.7-1.1,0.4-2.4-0.5-3.2l0.5-0.8c0,0,2,1.2,2,1.3
		c0.4,0.2,1.4,0.9,1.4,3l0,0L23.3,28H10.5L12.7,24.2z M27.5,30.1H4.7v-0.2c0-0.5,0.4-0.9,1-0.9h20.9c0.5,0,1,0.4,1,0.9L27.5,30.1
		L27.5,30.1z"/>
</g>
</svg>
