<?xml version="1.0" encoding="utf-8"?>
<!-- Generator: Adobe Illustrator 19.0.0, SVG Export Plug-In . SVG Version: 6.00 Build 0)  -->
<svg version="1.1" id="Layer_1" xmlns="http://www.w3.org/2000/svg" xmlns:xlink="http://www.w3.org/1999/xlink" x="0px" y="0px"
	 viewBox="0 0 32 32" style="enable-background:new 0 0 32 32;" xml:space="preserve">
<style type="text/css">
	.st0{fill:#008080;}
</style>
<g id="XMLID_10_">
	<g id="XMLID_11_">
		<path id="XMLID_12_" class="st0" d="M14.1,0.5c-2.3,0-4.2,1.8-4.2,4s1.9,4,4.2,4s4.2-1.8,4.2-4C18.3,2.3,16.4,0.5,14.1,0.5z
			 M14.1,6.5c-1.1,0-2.1-0.9-2.1-2s0.9-2,2.1-2s2.1,0.9,2.1,2C16.2,5.6,15.3,6.5,14.1,6.5z"/>
	</g>
</g>
<g id="XMLID_2_">
	<g id="XMLID_3_">
		<path id="XMLID_4_" class="st0" d="M24.2,19.2H21v-3c0-0.8-0.3-1.5-0.8-2c0,0,0,0,0.1-0.1c0.7,0.7,1.7,1.1,2.8,1.1
			c2.3,0,4.2-1.8,4.2-4s-1.9-4-4.2-4c-1.7,0-3.1,1-3.8,2.3c-0.4-0.2-0.9-0.3-1.4-0.3h-3.4L11,7.5C9.9,7,8.6,7.1,7.6,7.8
			c-3.3,2.4-5.3,6.2-5.3,10.3v10c0,1.7,1.4,3,3.1,3s3.1-1.3,3.1-3v-10c0-1.6,0.6-3.1,1.6-4.4l2.2,1.1c0.4,0.2,0.9,0.3,1.4,0.3H15
			c-0.1,0.3-0.2,0.7-0.2,1v4c0,1.1,0.4,2.2,1,3h0c-0.6,0-1,0.4-1,1v6c0,0.6,0.5,1,1,1h8.3c0.3,0,0.5-0.1,0.7-0.3
			c0.4,0.2,0.9,0.3,1.3,0.3c1.7,0,3.1-1.3,3.1-3v-4C29.4,21.4,27.1,19.2,24.2,19.2z M23.1,9.2c1.1,0,2.1,0.9,2.1,2s-0.9,2-2.1,2
			s-2.1-0.9-2.1-2C21.1,10.1,22,9.2,23.1,9.2z M13.8,13.2c-0.2,0-0.3,0-0.5-0.1l-2.9-1.4c-0.4-0.2-0.9-0.1-1.2,0.2
			c-1.7,1.7-2.7,4-2.7,6.3v10c0,0.6-0.5,1-1,1s-1-0.4-1-1v-10c0-3.4,1.7-6.7,4.5-8.8c0,0,0,0,0,0c0.3-0.3,0.8-0.3,1.1-0.1l3.7,1.8
			c0.1,0.1,0.3,0.1,0.5,0.1h3.7c0.6,0,1,0.4,1,1c0,0.6-0.5,1-1,1L13.8,13.2L13.8,13.2z M23.1,29.2h-6.3v-4c0.7,0,5.6,0,6.3,0
			C23.1,25.7,23.1,28.8,23.1,29.2z M27.3,28.2c0,0.6-0.5,1-1,1c-0.6,0-1-0.4-1-1v-4c0-0.6-0.5-1-1-1H20c-1.7,0-3.1-1.4-3.1-3v-4
			c0-0.6,0.5-1,1-1s1,0.4,1,1v4c0,0.6,0.5,1,1,1h4.2c1.7,0,3.1,1.3,3.1,3L27.3,28.2L27.3,28.2z"/>
	</g>
</g>
</svg>
