<svg xmlns="http://www.w3.org/2000/svg" id="Layer_1" viewBox="0 0 32 32">
  <style>
    .st0{fill:none;stroke:#008080;stroke-miterlimit:10;}
  </style>
  <path id="XMLID_4_" d="M31.2 10.9c-.2-.8-.7-1.2-1.3-1l-28 10.8c-.6.2-.9 1-.7 1.8.1.6.6 1.1 1 1.1.1 0 .2 0 .3-.1l10.8-4.2-.8 5.9h6.7l-1-7.8 12.4-4.8c.5-.1.8-.9.6-1.7z" class="st0"/>
  <path id="XMLID_3_" d="M2 18.3c.1.1.3.1.4.1h.2l3-1.2c.4-.2.7-.8.5-1.3-.1-.6-.5-.9-1-.8l-2.2.9-.7-3.7c-.1-.6-.5-.9-1-.8-.4.2-.7.8-.5 1.3l1 4.7c0 .4.1.6.3.8z" class="st0"/>
  <path id="XMLID_2_" d="M25.2 9.6h.2l3-1.2c.2-.1.4-.3.5-.5.1-.3.2-.6.1-.8l-1-4.7c-.1-.6-.6-.9-1-.8-.4.2-.7.8-.5 1.3l.7 3.7-2.2.9c-.4.2-.7.8-.5 1.3 0 .5.4.8.7.8z" class="st0"/>
  <path id="XMLID_1_" d="M25 26.7H6.6c-.6 0-1.1.7-1.1 1.5s.5 1.5 1.1 1.5H25c.6 0 1.1-.7 1.1-1.5s-.5-1.5-1.1-1.5z" class="st0"/>
</svg>
