<?xml version="1.0" encoding="utf-8"?>
<!-- Generator: Adobe Illustrator 19.0.0, SVG Export Plug-In . SVG Version: 6.00 Build 0)  -->
<svg version="1.1" id="Layer_1" xmlns="http://www.w3.org/2000/svg" xmlns:xlink="http://www.w3.org/1999/xlink" x="0px" y="0px"
	 viewBox="0 0 32 32" style="enable-background:new 0 0 32 32;" xml:space="preserve">
<style type="text/css">
	.st0{fill:#008080;}
</style>
<path id="XMLID_2_" class="st0" d="M30.6,30.5H1.9c-0.3,0-0.5-0.2-0.5-0.5v-28c0-0.3,0.2-0.5,0.5-0.5h28.7c0.3,0,0.5,0.2,0.5,0.5v28
	C31.1,30.3,30.9,30.5,30.6,30.5z M23.6,29.4h6.4v-6.3l-6,5.8c0,0,0,0,0,0c0,0,0,0,0,0L23.6,29.4z M15.4,29.4h6.7l0.8-0.8l-3.4-3.3
	L15.4,29.4z M7.7,29.4h6.2l9.2-9l-3.1-3L10.2,27l0,0L7.7,29.4z M2.5,29.4h3.8l2.9-2.8l-3.2-3.2l-3.4,3.3V29.4z M20.3,24.6l3.4,3.3
	l6.4-6.2v-6.6l-5.9,5.7l0,0L20.3,24.6z M6.6,22.7l3.2,3.2L26.1,10l-3.2-3.2l-6.4,6.2c0,0,0,0,0,0L6.6,22.7z M2.5,18.4v6.9l3-3
	c0,0,0,0,0,0c0,0,0,0,0,0l9.8-9.6l-3.5-3.4L2.5,18.4z M20.7,16.7l3.1,3l6.2-6.1c0,0,0,0,0,0V7.6L20.7,16.7z M2.5,9.9v7l4.2-4
	L3.1,9.4L2.5,9.9z M3.8,8.7l3.6,3.5l10.1-9.7h-6.9L3.8,8.7z M12.6,8.6l3.5,3.4l9.7-9.5H19L12.6,8.6z M23.6,6.1l3.2,3.2l3.2-3.2V2.4
	h-2.7L23.6,6.1z M2.5,2.4v6.1l0.2-0.2c0,0,0,0,0,0c0,0,0,0,0.1-0.1L9,2.4H2.5z"/>
</svg>
