<svg xmlns="http://www.w3.org/2000/svg" id="Layer_1" viewBox="0 0 32 32">
  <style>
    .st0{fill:#008080;stroke:#008080;stroke-width:0.4;stroke-miterlimit:10;}
  </style>
  <path id="XMLID_2_" d="M.8 31.3c-.2 0-.3-.2-.3-.4s.1-.4.3-.4c3.7 0 6.8-3.3 6.8-7.4 0-4.1-3-7.4-6.8-7.4-.2 0-.3-.2-.3-.4s.1-.3.3-.3c4.1 0 7.4 3.6 7.4 8.1v.4h3.4c.2 0 .3.2.3.4v.5H15l.6-.9h-2.9c-1.2 0-2.3-.8-2.7-2-.4-1.2-1.1-2.6-2.1-4.2C5.6 13.4.8 13.4.8 13.4c-.2 0-.3-.2-.3-.3 0-.2.1-.4.3-.4.2.1 5.2 0 7.7 4.3.9 1.6 1.6 3 2.1 4.3.3.9 1.2 1.5 2.1 1.5H17c1.7 0 3.1-1.5 3.1-3.4v-.7c0-.9-.7-1.7-1.6-1.7h-8.3c-.2 0-.3-.2-.3-.4s.1-.4.3-.4h6.6V7.7c0-2-1.3-3.7-3.2-4.1L.8 1.5c-.2 0-.3-.2-.3-.4S.7.8.9.8L13.7 3c2.2.4 3.7 2.4 3.7 4.8v8.6h1.1c1.2 0 2.2 1.1 2.2 2.4v.7c0 2.3-1.7 4.1-3.8 4.1h-.6l-.6.9H19c.2 0 .3.2.3.4v1.3c0 .2-.1.4-.3.4h-7v.5c0 .2-.1.4-.3.4H7.2c-1.3 2.2-3.7 3.8-6.4 3.8zm6.8-4.7h3.8v-2.3H8.2c-.1.8-.3 1.6-.6 2.3zm4.4-.9h6.7v-.6H12v.6zm-11.2 2c-.2 0-.3-.2-.3-.4s.1-.3.3-.3c1.9 0 3.5-1.7 3.5-3.8S2.7 19.4.8 19.4c-.2 0-.3-.2-.3-.4s.1-.4.3-.4c2.3 0 4.1 2 4.1 4.5S3.1 27.7.8 27.7zm21.6-1.1c-1 0-1.9-.9-1.9-2s.9-2.1 1.9-2c.1-1 .6-1.8 1.4-2.3-.4-.6-.6-1.3-.6-2 0-1.9 1.4-3.5 3.2-3.5.3-1 1.1-1.6 2-1.6 1.1 0 2.1 1 2.1 2.3 0 .8-.4 1.5-.9 1.9.1.3.1.6.1 1 0 .2 0 .4-.1.7 1 .4 1.7 1.4 1.7 2.7 0 1.6-1.2 2.8-2.6 2.8-.4 0-.7-.1-1.1-.3-.4 1.1-1.4 1.8-2.5 1.8-.4 0-.8-.1-1.2-.3-.2.5-.8.8-1.5.8zm0-3.3c-.7 0-1.2.6-1.2 1.3 0 .7.5 1.3 1.2 1.3.5 0 1-.4 1.1-.9 0-.1.1-.2.2-.2h.3c.3.3.8.4 1.2.4.9 0 1.8-.7 2-1.7 0-.1.1-.2.2-.2h.3c.3.2.7.4 1.1.4 1.1 0 1.9-.9 1.9-2.1 0-1-.6-1.8-1.5-2.1-.1 0-.2-.1-.2-.2s-.1-.2 0-.3c.1-.3.1-.5.1-.8 0-.3-.1-.7-.2-1-.1-.2 0-.4.2-.4.5-.3.8-.8.8-1.4 0-.9-.6-1.6-1.4-1.6-.7 0-1.3.6-1.4 1.3 0 .2-.2.3-.3.3h-.2c-1.4 0-2.6 1.3-2.6 2.8 0 .7.2 1.4.7 1.9.1.1.1.2.1.3 0 .1-.1.2-.2.3-.8.3-1.4 1.2-1.4 2.2 0 .1 0 .2-.1.3-.1.1-.2.1-.3.1h-.4z" class="st0"/>
</svg>
