<svg xmlns="http://www.w3.org/2000/svg" id="Layer_1" viewBox="0 0 32 32"><style>.st0{fill:#008080;}</style><path id="XMLID_2_" d="M14.7 20.7V17h1.6c1.2 0 1.6.5 2.4 1.2l2.5 2.5h-6.5zM13.4 17h-3c-.8 0-1.3.4-1.7.8l-2 2c2.3.8 5.3 1 6.7 1V17zm18.4 6.3c0-3.4-2.7-4-3.7-4.4-1.4-.5-2-.7-4-1-.6-.8-2.6-2.6-3-3-1-.8-2-1.5-4.3-1.5h-10c-.7 0-1 .6-.3 1-.7.7-2.6 2.2-3 2.7-2 1.7-3 3-3 5.6 0 3 1.7 5.2 4 5.3.6 1.5 2 2.5 3.8 2.5 1.7 0 3.2-1 3.7-2.4h8.3c.5 1.5 2 2.5 3.7 2.5 1.7 0 3.2-1 3.7-2.4 2.4 0 4-1.8 4-4.7zM8 28.3c-.8 0-1.5-.7-1.5-1.5s.7-1.5 1.6-1.5c1 0 1.7.7 1.7 1.5S9 28.3 8 28.3zm16 0c-1 0-1.7-.7-1.7-1.5s.7-1.5 1.6-1.5 1.5.7 1.5 1.5-.7 1.5-1.6 1.5zm3.6-2.7c-.5-1.4-2-2.5-3.7-2.5-1.8 0-3.3 1.2-3.8 2.6H12C11.3 24 10 23 8 23c-1.7 0-3.2 1-3.7 2.6-.8 0-1.5-1.3-1.5-3 0-1.5.6-2.3 2.3-3.8 1-1 1.7-1.5 3-2.5.4-.4 1-.5 1.6-.5h6.7c1.6 0 2 .5 2.8 1l3.5 3.3 4.6 1.2c1 .3 1.8.6 1.8 2-.3 1.6-.8 2.4-1.8 2.4zM13 7c0 .6-.2 1-.7 1-.5 0-.8-.4-.8-1s.3-1 .8-1 .8.4.8 1zm3.5 3.2c-.4 2.5-4 2.4-5 .7-1 1.8-4.4 1.3-4.7-1-1.5 0-2.6-1.3-2.6-2.8s1-2.7 2.6-3c0-1.7 1.4-3 3.2-3 1.3 0 2.4.7 3 1.7 1.4-1.4 4-.6 4 1.2 1.5.3 2.7 1.5 2.7 3 0 1.7-1.4 3-3.2 3zM8.8 7c0-.7.4-1 1-1h.6v-.4h-.7C8.7 5.3 8 6 8 7c0 1 .7 1.5 1.8 1.5h.8v-.6h-.7C9 8 8.7 7.6 8.7 7zm5 0c0-.8-.4-1.5-1.4-1.5-1 0-1.6.7-1.6 1.6 0 1 .6 1.6 1.5 1.6 1 0 1.6-.7 1.6-1.6zm2 1.7H15s.8-.5.8-1c0-.4-.3-.7-.8-.7-.3 0-.6 0-.7.2v.3l.6-.2c.2 0 .3 0 .3.3s-.4.6-1 1V9h1.5v-.3zM4.2 11c-.7 0-1.3.5-1.3 1.2s.5 1.2 1.2 1.2 1.3-.5 1.3-1.2S5 11 4.2 11zM2 14.2c-.6 0-1 .4-1 1s.3.8 1 .8 1-.4 1-1-.5-.8-1-.8zm-1 3c-.5 0-.8.2-.8.5s.3.6.7.6.6-.3.6-.6-.4-.6-.7-.6z" class="st0"/></svg>