<svg xmlns="http://www.w3.org/2000/svg" id="Layer_1" viewBox="0 0 32 32"><style>.st0{fill:#008080;}</style><g id="XMLID_2_"><path id="XMLID_12_" d="M4.7 11.1c-2 0-3.7 2-3.7 4.4v9.6c0 1.2.8 2.2 1.8 2.3v1.1c0 .3.2.6.5.6h2.8c.3 0 .5-.3.5-.6v-1.1H9v2.5c0 .8.6 1.5 1.2 1.5h11.5c.7 0 1.2-.7 1.2-1.5v-2.5h2.3v1.1c0 .3.2.6.5.6h2.8c.3 0 .5-.3.5-.6v-1.1c1-.1 1.8-1.1 1.8-2.3v-9.6c0-2.4-1.7-4.4-3.7-4.4h-1.5l-.9-4.7c-.1-.7-.6-1.2-1.2-1.2h-.8v-4c0-.2-.2-.4-.3-.4h-13c-.2 0-.3.2-.3.4v4h-.8c-.6 0-1.1.5-1.2 1.2l-.9 4.7H4.7zm3.6-4.6h.8v4.6H7.3l.8-4.4c0-.1.1-.2.2-.2zm13.8-4.8v9.4H9.8V1.7h12.3zm2.5 9.4h-1.8V6.5h.8c.1 0 .2.1.2.2l.8 4.4zm2.6 1.3c1.5 0 2.7 1.4 2.7 3.2v1.8h-8.4v-1c0-1.1-.7-2-1.6-2h-7.6c-.9 0-1.6.9-1.6 2v1H2.1v-1.8c0-1.8 1.2-3.2 2.7-3.2h22.4zm-16 4.9v-1c0-.6.4-1.1 1-1.1h7.6c.5 0 1 .5 1 1.1v1h-9.6zm15.1 10.2h1.8v.4h-1.8v-.4zM6.6 24.8v-5h18.7v5H6.6zm3.6 5.4c-.1 0-.2-.1-.2-.3v-4.4h12v4.4c0 .1-.1.3-.2.3H10.2zm-6.3-2.7h1.8v.4H3.9v-.4zm-1.8-2.3v-7h27.7v7c0 .6-.4 1-.9 1h-6v-.6h2.7c.2 0 .3-.2.3-.4v-5.9c0-.2-.2-.4-.3-.4H6.3c-.2 0-.3.2-.3.4v5.9c0 .2.2.4.3.4H9v.6H3c-.5 0-.9-.5-.9-1z" class="st0"/><path id="XMLID_9_" d="M7.4 21v2.5c0 .2.2.4.3.4h16.4c.2 0 .3-.2.3-.4V21c0-.2-.2-.4-.3-.4H7.8c-.2-.1-.4.1-.4.4zm.7.4h15.7v1.7H8.1v-1.7z" class="st0"/><path id="XMLID_8_" d="M19.2 15.8c-.1.1-.2.3-.2.4 0 .2.1.3.2.4.1.1.2.2.4.2.1 0 .3-.1.4-.2.1-.1.2-.3.2-.4 0-.2-.1-.3-.2-.4-.1-.1-.2-.2-.4-.2s-.3.1-.4.2z" class="st0"/><path id="XMLID_7_" d="M17.6 16c-.1.1-.1.2-.1.3 0 .1 0 .2.1.3.1.1.2.1.2.1.1 0 .2 0 .2-.1.1-.1.1-.2.1-.3 0-.1 0-.2-.1-.3-.1-.1-.2-.1-.2-.1 0-.1-.1 0-.2.1z" class="st0"/><path id="XMLID_6_" d="M12.2 16c-.1.1-.1.2-.1.3 0 .1 0 .2.1.3.1.1.2.1.2.1.1 0 .2 0 .2-.1.1-.1.1-.2.1-.3 0-.1 0-.2-.1-.3-.1-.1-.2-.1-.2-.1 0-.1-.1 0-.2.1z" class="st0"/><path id="XMLID_5_" d="M10.8 28.9c0 .2.2.4.3.4h9.7c.2 0 .3-.2.3-.4s-.2-.4-.3-.4h-9.7c-.2 0-.3.2-.3.4z" class="st0"/><path id="XMLID_4_" d="M10.8 27.1c0 .2.2.4.3.4h9.7c.2 0 .3-.2.3-.4s-.2-.4-.3-.4h-9.7c-.2 0-.3.1-.3.4z" class="st0"/><path id="XMLID_3_" d="M23.1 22.2c0-.2-.2-.4-.3-.4H9.2c-.2 0-.3.2-.3.4s.2.4.3.4h13.5c.2 0 .4-.1.4-.4z" class="st0"/></g></svg>