<svg xmlns="http://www.w3.org/2000/svg" id="Layer_1" viewBox="0 0 32 32"><style>.st0{fill:#008080;}</style><g id="XMLID_2_"><path id="XMLID_12_" d="M4.7 11c-2 0-3.7 2-3.7 4.5V25c0 1.3.8 2.3 1.8 2.4v1c0 .4.2.7.5.7H6c.4 0 .6-.2.6-.5v-1H9v2.4c0 .7.6 1.4 1.2 1.4h11.5c.7 0 1.2-.7 1.2-1.5v-2.6H25v1c0 .4.2.7.5.7h2.8c.3 0 .5-.2.5-.5v-1c1-.2 1.8-1.2 1.8-2.4v-9.5C30.8 13 29 11 27 11h-1.4l-1-4.6c0-.7-.5-1.2-1-1.2h-1v-4c0-.2 0-.4-.2-.4h-13c-.2 0-.3.2-.3.4v4h-.7c-.6 0-1 .5-1.2 1.2L6.3 11H4.7zm3.6-4.5H9V11H7.4L8 6.8l.3-.2zM22 1.7V11H10V1.8H22zm2.6 9.4h-1.8V6.6h.8s.2 0 .2.2l.8 4.4zm2.6 1.4c1.5 0 2.7 1.4 2.7 3.2v1.8h-8.5v-1c0-1-.7-2-1.6-2h-7.7c-1 0-1.6 1-1.6 2v1H2v-1.8c0-1.8 1.3-3.2 2.8-3.2h22.4zm-16 5v-1c0-.7.4-1.2 1-1.2h7.6c.5 0 1 .5 1 1v1h-9.6zm15 10h2v.5h-2v-.5zM6.7 25v-5h18.7v5H6.6zm3.6 5.4s-.2 0-.2-.3v-4.5h12V30s0 .2-.2.2H10.2zM4 27.5h1.7v.4H4v-.5zm-2-2.3v-7H30v7c0 .6-.4 1-1 1h-6v-.6h2.8c.2 0 .3-.2.3-.4v-6l-.4-.3H6.3c-.2 0-.3 0-.3.3v6l.3.3H9v.6H3c-.5 0-1-.5-1-1z" class="st0"/><path id="XMLID_9_" d="M7.4 21v2.5c0 .2.2.4.3.4H24c.3 0 .4-.3.4-.5V21c0-.2-.2-.4-.3-.4H8c-.2 0-.4 0-.4.4zm.7.4H24V23H8v-1.6z" class="st0"/><path id="XMLID_8_" d="M19.2 15.8l-.2.4c0 .2 0 .3.2.4l.4.2s.3 0 .4-.2l.2-.4c0-.2 0-.3-.2-.4l-.4-.2c-.2 0-.3 0-.4.2z" class="st0"/><path id="XMLID_7_" d="M17.6 16v.6h.4v-.3-.3h-.2c0-.2 0 0-.2 0z" class="st0"/><path id="XMLID_6_" d="M12.2 16v.6h.4v-.3-.3h-.2c0-.2 0 0-.2 0z" class="st0"/><path id="XMLID_5_" d="M10.8 29l.3.3H21c.2 0 .3-.2.3-.4 0-.3 0-.5-.2-.5H11l-.2.4z" class="st0"/><path id="XMLID_4_" d="M10.8 27c0 .3.2.5.3.5H21c.2 0 .3-.2.3-.4s0-.3-.2-.3H11s-.2 0-.2.4z" class="st0"/><path id="XMLID_3_" d="M23 22.2c0-.2 0-.4-.2-.4H9.2c-.2 0-.3.2-.3.4s0 .4.2.4h13.5c.2 0 .4 0 .4-.4z" class="st0"/></g></svg>