<svg xmlns="http://www.w3.org/2000/svg" id="Layer_1" viewBox="0 0 32 32">
  <style>
    .st0{fill:#008080;}
  </style>
  <g id="XMLID_2_">
    <g id="XMLID_3_">
      <g id="XMLID_4_">
        <path id="XMLID_11_" d="M30.1 12l-12-9.9c-1.3-1.1-3.2-1.1-4.5 0l-4 3.4V4.1h.5c.3 0 .5-.2.5-.5V1.7c0-.3-.2-.5-.5-.5H3.8c-.3 0-.5.2-.5.5v1.9c0 .3.2.5.5.5h.5v5.6L1.5 12c-.4.3-.5.8-.3 1.2.2.4.6.7 1.1.7h2v13.6h-.5c-.3 0-.5.2-.5.5v1.9c0 .3.2.5.5.5h24.1c.3 0 .5-.2.5-.5V28c0-.3-.2-.5-.5-.5h-.5V13.8h2c.5 0 .9-.2 1.1-.7.1-.4 0-.9-.4-1.1zm-.7.8h-2.6c-.3 0-.5.2-.5.5v14.6c0 .3.2.5.5.5h.5v1h-23v-1h.5c.3 0 .5-.2.5-.5V13.4c0-.3-.2-.5-.5-.5H2.2s0-.1.1-.1l2.9-2.3c.1-.2.2-.4.2-.5V3.7c0-.3-.2-.5-.5-.5h-.6v-1h5.2v1H9c-.3 0-.5.2-.5.5v2.9c0 .2.1.4.3.5.2 0 .4 0 .6-.1l4.9-4.2c.8-.8 2.1-.8 3 0l12.1 10c0-.1.1 0 0 0z" class="st0"/>
        <path id="XMLID_8_" d="M14.3 12.4c-2.3 0-4.2 1.7-4.2 3.9s1.9 3.9 4.2 3.9 4.2-1.7 4.2-3.9c-.1-2.2-1.9-3.9-4.2-3.9zm0 6.8c-1.7 0-3.1-1.3-3.1-2.9s1.4-2.9 3.1-2.9 3.1 1.3 3.1 2.9c0 1.6-1.4 2.9-3.1 2.9z" class="st0"/>
        <path id="XMLID_5_" d="M19.4 19.5c.7-1 1.1-2.1 1.1-3.3 0-3.2-2.8-5.8-6.3-5.8S8 13.1 8 16.3s2.8 5.8 6.3 5.8c1 0 2-.2 2.8-.6l5.5 5c.1.1.2.1.4.1.1 0 .3 0 .4-.1l1.5-1.4c.2-.2.2-.5 0-.7l-5.5-4.9zm3.5 6l-5.4-5c-.1-.1-.2-.1-.4-.1-.1 0-.2 0-.3.1-.8.4-1.7.7-2.7.7-2.9 0-5.2-2.2-5.2-4.9s2.4-4.9 5.2-4.9 5.2 2.2 5.2 4.9c0 1.1-.4 2.1-1.2 3-.2.2-.2.4.1.6l5.3 4.9-.6.7z" class="st0"/>
      </g>
    </g>
  </g>
</svg>
