<svg xmlns="http://www.w3.org/2000/svg" id="Layer_1" viewBox="0 0 32 32"><style>.st0{fill:none;stroke:#008080;stroke-miterlimit:10;}</style><g id="XMLID_8_"><path id="XMLID_9_" d="M14.8 16.5c0-1.3-.4-2.5-1.1-3.6l-.2-.3H3.2l-.2.3c-.6 1.1-1 2.3-1 3.6 0 3.3 2.4 6 5.5 6.5v7.7c-1.8.1-3.1.3-3.1.6s1.8.6 4 .6 4.1-.3 4.1-.6-1.3-.5-3.1-.6V23c3-.5 5.4-3.2 5.4-6.5zM8.4 22c-2.9 0-5.2-2.5-5.2-5.5 0-1 .3-2 .8-2.9h9c.5.9.8 1.8.8 2.9-.2 3.1-2.5 5.5-5.4 5.5zM25.7 4.2h-4.5V.8h4.5v3.4zm0 4.3V5.3h-4.5v3.2c-1.9.8-3.3 2.4-3.3 4.4V32h11V12.8c0-1.9-1.3-3.6-3.2-4.3zM28 27.1h-9v-9.5h9v9.5z" class="st0"/></g></svg>