<svg xmlns="http://www.w3.org/2000/svg" id="Layer_1" viewBox="0 0 32 32">
  <style>
    .st0{fill:#008080;}
  </style>
  <g id="XMLID_2_">
    <g id="XMLID_3_">
      <g id="XMLID_4_">
        <path id="XMLID_10_" d="M30.9 19.1c-.9-1.2-1.8-1.2-4 0l-4.4 2.6c-.6.3-2 .4-3.2.4.3-.4.2-1-.3-1.6-.8-1.1-2.2-1.8-3.6-1.8h-2c-1.1 0-2.1-.3-2.9-.9-1.8-1.3-4.7.1-6.1 1v-1H.9v13h3.5v-1.5H11c1 0 2.1-.1 3.1-.1l6.6-1c.3 0 .5 0 .7-.1.6-.1 1.2-.4 1.7-.8l7.6-6c.5-.7.6-1.6.2-2.2zM3.3 29.7H1.8v-11h1.5V29.7zM30 20.4l-7.7 5.9h-.1c-.4.3-.7.5-1.1.5h-.7l-6.7 1c-1 .1-2 .2-2.9.2H4.3v-8.2c1.2-.8 4-2.4 5.5-1.3 1 .7 2.2 1.1 3.5 1.1h2c1.2 0 2.2.5 2.9 1.5.2.3.3.6.2.7-.2.2-.8.3-1.4.4H11.8c-1.6 0-2.5.7-2.5 2 0 .3.2.5.5.5s.5-.2.5-.5c0-.2 0-1 1.5-1h5.5c2.4 0 4.6 0 5.8-.6l4.4-2.6c2.1-1 2.3-.8 2.7-.2 0 .2 0 .5-.2.6z" class="st0"/>
        <path id="XMLID_6_" d="M4.7 16.5c.1.1.3.2.4.2h21.7c.2 0 .4-.1.4-.2L29 14c.1-.1.2-.3.1-.5-.1-.1-.3-.2-.5-.2h-1c-.3-5.9-5.1-10.7-11.1-11v-.6h1c.3 0 .5-.2.5-.5s-.2-.5-.5-.5h-3c-.3 0-.5.2-.5.5s.2.5.5.5h1v.5c-6 .3-10.9 5-11.1 11h-1c-.2 0-.4.1-.5.3-.1.1-.1.3.1.5l1.7 2.5zM16 3.2c5.7 0 10.4 4.4 10.6 10H5.4c.3-5.5 4.9-10 10.6-10zm-11.2 11h22.8l-1.1 1.5H5.4l-1.1-1.5h.5z" class="st0"/>
        <path id="XMLID_5_" d="M16 4.2C12.6 4.2 9.4 6 7.6 9c-.1.2 0 .5.2.7h.3c.2 0 .4-.1.5-.2C10.1 6.9 13 5.3 16 5.3c.3 0 .5-.2.5-.5s-.2-.6-.5-.6z" class="st0"/>
      </g>
    </g>
  </g>
</svg>
