<?xml version="1.0" encoding="utf-8"?>
<!-- Generator: Adobe Illustrator 19.0.0, SVG Export Plug-In . SVG Version: 6.00 Build 0)  -->
<svg version="1.1" id="Layer_1" xmlns="http://www.w3.org/2000/svg" xmlns:xlink="http://www.w3.org/1999/xlink" x="0px" y="0px"
	 viewBox="0 0 32 32" style="enable-background:new 0 0 32 32;" xml:space="preserve">
<style type="text/css">
	.st0{fill:#008080;}
</style>
<g id="XMLID_2_" transform="translate(1 1)">
	<g id="XMLID_3_">
		<g id="XMLID_4_">
			<path id="XMLID_10_" class="st0" d="M29.9,18.1c-0.9-1.2-1.8-1.2-4,0l-4.4,2.6c-0.6,0.3-2,0.4-3.2,0.4c0.3-0.4,0.2-1-0.3-1.6
				c-0.8-1.1-2.2-1.8-3.6-1.8h-2c-1.1,0-2.1-0.3-2.9-0.9c-1.8-1.3-4.7,0.1-6.1,1v-1h-3.5v13h3.5v-1.5h6.6c1,0,2.1-0.1,3.1-0.1l6.6-1
				c0.3,0,0.5,0,0.7-0.1c0.6-0.1,1.2-0.4,1.7-0.8l7.6-6C30.2,19.6,30.3,18.7,29.9,18.1z M2.3,28.7H0.8v-11h1.5v0.7v9.7V28.7z
				 M29,19.4l-7.7,5.9l-0.1,0c-0.4,0.3-0.7,0.5-1.1,0.5h-0.1c-0.2,0-0.4,0-0.6,0l-6.7,1c-1,0.1-2,0.2-2.9,0.2H3.3v-8.2
				c1.2-0.8,4-2.4,5.5-1.3c1,0.7,2.2,1.1,3.5,1.1h2c1.2,0,2.2,0.5,2.9,1.5c0.2,0.3,0.3,0.6,0.2,0.7c-0.2,0.2-0.8,0.3-1.4,0.4
				c-0.1,0-0.1,0-0.2,0c-0.1,0-0.3,0-0.4,0h-4.6c-1.6,0-2.5,0.7-2.5,2c0,0.3,0.2,0.5,0.5,0.5c0.3,0,0.5-0.2,0.5-0.5c0-0.2,0-1,1.5-1
				h4.5c0.1,0,0.2,0,0.4,0c0.1,0,0.2,0,0.3,0c0.1,0,0.2,0,0.3,0c2.4,0,4.6,0,5.8-0.6l4.4-2.6c2.1-1,2.3-0.8,2.7-0.2
				C29.2,19,29.2,19.3,29,19.4z"/>
			<path id="XMLID_6_" class="st0" d="M3.7,15.5c0.1,0.1,0.3,0.2,0.4,0.2h21.7c0.2,0,0.4-0.1,0.4-0.2L28,13c0.1-0.1,0.2-0.3,0.1-0.5
				c-0.1-0.1-0.3-0.2-0.5-0.2h-1c-0.3-5.9-5.1-10.7-11.1-11V0.7h1c0.3,0,0.5-0.2,0.5-0.5s-0.2-0.5-0.5-0.5h-3
				c-0.3,0-0.5,0.2-0.5,0.5s0.2,0.5,0.5,0.5h1v0.5c-6,0.3-10.9,5-11.1,11h-1c-0.2,0-0.4,0.1-0.5,0.3c-0.1,0.1-0.1,0.3,0.1,0.5
				L3.7,15.5z M15,2.2c5.7,0,10.4,4.4,10.6,10H4.4C4.7,6.7,9.3,2.2,15,2.2z M3.8,13.2h22.3h0.5l-1.1,1.5H4.4l-1.1-1.5H3.8z"/>
			<path id="XMLID_5_" class="st0" d="M15,3.2C11.6,3.2,8.4,5,6.6,8C6.5,8.2,6.6,8.5,6.8,8.7c0.1,0,0.2,0,0.3,0
				c0.2,0,0.4-0.1,0.5-0.2c1.5-2.6,4.4-4.2,7.4-4.2c0.3,0,0.5-0.2,0.5-0.5S15.3,3.2,15,3.2z"/>
		</g>
	</g>
</g>
</svg>
