<svg xmlns="http://www.w3.org/2000/svg" id="Layer_1" viewBox="0 0 32 32"><style>.st0{fill:none;stroke:#008080;stroke-width:0.8;stroke-miterlimit:10;} .st1{fill:#008080;}</style><g id="XMLID_2_"><g id="XMLID_3_"><g id="XMLID_16_"><path id="XMLID_17_" d="M29.2 21h-4.8l-.3-12.7c0-.3-.2-.6-.4-.6s-.4.3-.4.6L22.9 21H2.2c-.3 0-.6.3-.6.9v6.8c0 .4.3.9.6.9h1.7v1.3h3.3v-1.3h16.9v1.3h3.3v-1.3h1.7c.3 0 .6-.3.6-.9v-6.8c.1-.5-.2-.9-.5-.9zm-8.9 5.3c-.4 0-.8-.5-.8-1.1s.4-1.2.8-1.2.8.5.8 1.2c0 .6-.4 1.1-.8 1.1zm2.1 0c-.4 0-.8-.5-.8-1.1s.4-1.2.8-1.2.8.5.8 1.2c0 .6-.4 1.1-.8 1.1zm2 0c-.4 0-.8-.5-.8-1.1s.4-1.2.8-1.2.8.5.8 1.2c0 .6-.3 1.1-.8 1.1zm2.1 0c-.4 0-.8-.5-.8-1.1s.4-1.2.8-1.2.8.5.8 1.2c0 .6-.3 1.1-.8 1.1z" class="st0"/></g><g id="XMLID_14_"><path id="XMLID_15_" d="M21.1 11.9c-.7-1-1.1-2.3-1.1-3.7s.4-2.8 1.1-3.7l-.4-.5c-.8 1-1.3 2.6-1.3 4.3s.5 3.1 1.3 4.3l.4-.7z" class="st1"/></g><g id="XMLID_12_"><path id="XMLID_13_" d="M21.4 11.4l.4-.6c-.5-.7-.8-1.6-.8-2.6s.3-1.9.8-2.6l-.4-.6c-.6.8-1 2-1 3.1.1 1.4.4 2.5 1 3.3z" class="st1"/></g><g id="XMLID_10_"><path id="XMLID_11_" d="M22.1 10.2l.4-.6c-.6-.7-.6-2.2 0-2.9l-.4-.5c-.4.5-.6 1.2-.6 2s.2 1.5.6 2z" class="st1"/></g><g id="XMLID_8_"><path id="XMLID_9_" d="M26 11.9l.4.6c.8-1 1.3-2.6 1.3-4.3s-.5-3.1-1.3-4.2l-.4.6c.7 1 1.1 2.3 1.1 3.7 0 1.3-.4 2.6-1.1 3.6z" class="st1"/></g><g id="XMLID_6_"><path id="XMLID_7_" d="M25.4 10.9l.4.6c.6-.8 1-2 1-3.1s-.3-2.3-1-3.1l-.4.6c.5.7.8 1.7.8 2.6 0 .7-.3 1.7-.8 2.4z" class="st1"/></g><g id="XMLID_4_"><path id="XMLID_5_" d="M25 10.2c.4-.5.6-1.2.6-2s-.2-1.5-.6-2l-.4.6c.6.7.6 2.2 0 2.9l.4.5z" class="st1"/></g></g></g></svg>