<svg xmlns="http://www.w3.org/2000/svg" id="Layer_1" viewBox="0 0 32 32"><style>.st0{fill:#008080;}</style><g id="XMLID_2_"><g id="XMLID_3_"><path id="XMLID_4_" d="M29.8 14.4c-.2-.6-.7-1.1-1.3-1.1H12.1c-.3 0-.5.2-.5.5v1.6h-.9V8h.5c.8 0 1.4-.7 1.4-1.6s-.6-1.6-1.4-1.6h-.5V3.2h.5c.3 0 .5-.2.5-.5V.5c0-.3-.2-.5-.5-.5H2.3c-.3 0-.5.2-.5.5v2.1c0 .4.2.6.5.6h.5V16c0 .3.2.5.5.5h.5c.1 3.4 1.7 4.9 3.1 6.1 1.8 1.6 3.4 3.1 2.5 8.7-.2.4 0 .7.2.7h15.1c.3 0 .5-.2.5-.5 0-.1 0-.2-.1-.3-1.3-2.5-1.3-4.6-1.3-7.7 2.9-1.1 4.9-3.8 5.1-7 .8-.3 1.1-1.2.9-2.1zM11.2 5.9c.3 0 .5.2.5.5s-.2.5-.5.5h-.5v-1h.5zM2.7 2.1v-1h7.9v1.1H2.7zm1 1.1h6.1v12.3H3.7V3.2zM10.3 31c.8-5.7-1.1-7.5-2.9-9.1-1.4-1.2-2.7-2.4-2.8-5.3h6.5c.2 3.2 2.3 5.9 5.1 6.9 0 3 0 5-1.2 7.5h-4.7zm13.6 0h-7.8c1-2.4 1.1-4.5 1.1-7.2.6.2 1.2.2 1.9.2H21c.6 0 1.3-.1 1.9-.2-.1 2.7 0 4.8 1 7.2zM21 23h-1.9c-3.7 0-6.7-2.8-7-6.4H28c-.3 3.5-3.3 6.4-7 6.4zm7.5-7.5H12.6v-1.1h15.9c.3 0 .5.2.5.5-.1.3-.3.6-.5.6z" class="st0"/></g></g></svg>