<svg id="Layer_1" xmlns="http://www.w3.org/2000/svg" viewBox="0 0 32 32"><style>.st0{fill:#008080;}</style><g id="XMLID_2_"><path id="XMLID_39_" class="st0" d="M30.9 30.3h-1V16.7h1c.2 0 .3-.1.4-.3.1-.2.1-.3 0-.5l-3.4-5.7c-.1-.1-.2-.2-.4-.2h-9l-2.2-2.3v-2h4.4c.2 0 .3-.1.4-.3.1-.2.1-.4 0-.5l-.8-1.3.8-1.3c.1-.1.1-.3 0-.5s-.2-.3-.4-.3h-4.4v-.4c0-.3-.2-.5-.5-.5s-.5.2-.5.5v6.6l-2 2.3h-9c-.2 0-.3.1-.4.2L.5 15.9c-.1.2-.1.3 0 .5s.2.3.4.3h1v13.6h-1c-.3 0-.5.2-.5.5s.2.5.5.5h30c.3 0 .5-.2.5-.5s-.3-.5-.5-.5zM27.2 11l2.8 4.8h-6.2L19.4 11h7.8zm-7.3-8.4l-.5.8c-.1.2-.1.4 0 .5l.5.8h-3.5V2.6h3.5zM4.5 11h7.8l-4.4 4.8H1.7L4.5 11zm-1.7 5.7h5.3l7.4-8 7.4 8H29v13.6h-9.7v-6.8c0-.8-.6-1.5-1.4-1.5H14c-.8 0-1.4.7-1.4 1.5v6.8H2.8V16.7zm15.5 7.4h-4.9v-.6c0-.3.2-.6.5-.6h3.9c.3 0 .5.2.5.6v.6zm-4.9.9h2v5.3h-2V25zm2.9 0h2v5.3h-2V25z"/><path id="XMLID_36_" class="st0" d="M15.9 20.3c1.8 0 3.4-1.6 3.4-3.6s-1.5-3.6-3.4-3.6c-1.8 0-3.4 1.6-3.4 3.6s1.5 3.6 3.4 3.6zm0-6.2c1.3 0 2.4 1.2 2.4 2.6 0 1.5-1.1 2.6-2.4 2.6s-2.4-1.2-2.4-2.6c-.1-1.4 1-2.6 2.4-2.6z"/><path id="XMLID_35_" class="st0" d="M15.9 17.2c.3 0 .5-.2.5-.5v-1.6c0-.3-.2-.5-.5-.5s-.5.2-.5.5v1.1h-1c-.3 0-.5.2-.5.5s.2.5.5.5h1.5z"/><path id="XMLID_31_" class="st0" d="M11 24.6H8.6c-.3 0-.5.2-.5.5v3.1c0 .3.2.5.5.5H11c.3 0 .5-.2.5-.5v-3.1c0-.3-.2-.5-.5-.5zm-.4 1v.6H9.1v-.6h1.5zm-1.5 2.1v-.6h1.5v.6H9.1z"/><path id="XMLID_27_" class="st0" d="M6.7 24.6H4.3c-.3 0-.5.2-.5.5v3.1c0 .3.2.5.5.5h2.4c.3 0 .5-.2.5-.5v-3.1c-.1-.3-.3-.5-.5-.5zm-.5 1v.6H4.7v-.6h1.5zm-1.5 2.1v-.6h1.5v.6H4.7z"/><path id="XMLID_23_" class="st0" d="M10.9 18.3H8.8c-.3 0-.6.3-.6.7v3.5c0 .3.2.5.5.5H11c.3 0 .5-.2.5-.5V19c0-.4-.3-.7-.6-.7zm-.3 1v1.1H9.1v-1.1h1.5zM9.1 22v-.6h1.5v.6H9.1z"/><path id="XMLID_19_" class="st0" d="M6.5 18.3H4.4c-.3 0-.6.3-.6.7v3.5c0 .3.2.5.5.5h2.4c.3 0 .5-.2.5-.5V19c-.1-.4-.3-.7-.7-.7zm-.3 1v1.1H4.7v-1.1h1.5zM4.7 22v-.6h1.5v.6H4.7z"/><path id="XMLID_15_" class="st0" d="M25.1 28.7h2.4c.3 0 .5-.2.5-.5v-3.1c0-.3-.2-.5-.5-.5h-2.4c-.3 0-.5.2-.5.5v3.1c0 .3.2.5.5.5zm.4-1v-.6H27v.6h-1.5zm1.5-2.1v.6h-1.5v-.6H27z"/><path id="XMLID_11_" class="st0" d="M20.7 28.7h2.4c.3 0 .5-.2.5-.5v-3.1c0-.3-.2-.5-.5-.5h-2.4c-.3 0-.5.2-.5.5v3.1c.1.3.3.5.5.5zm.5-1v-.6h1.5v.6h-1.5zm1.5-2.1v.6h-1.5v-.6h1.5z"/><path id="XMLID_7_" class="st0" d="M25.1 22.9h2.4c.3 0 .5-.2.5-.5V19c0-.4-.3-.7-.6-.7h-2.1c-.3 0-.6.3-.6.7v3.5c-.1.2.1.4.4.4zm.4-.9v-.6H27v.6h-1.5zm1.5-2.7v1.1h-1.5v-1.1H27z"/><path id="XMLID_3_" class="st0" d="M20.7 22.9h2.4c.3 0 .5-.2.5-.5V19c0-.4-.3-.7-.6-.7h-2.1c-.3 0-.6.3-.6.7v3.5c0 .2.2.4.4.4zm.5-.9v-.6h1.5v.6h-1.5zm1.5-2.7v1.1h-1.5v-1.1h1.5z"/></g></svg>