<svg xmlns="http://www.w3.org/2000/svg" id="Layer_1" viewBox="0 0 32 32"><style>.st0{fill:#008080;}</style><path id="XMLID_2_" d="M14.9 4V0h4.5v2.7H16V4h6.8v4H25v2.7h3.4v18.7h1.1V32h-27v-2.7h1.1V10.7H7V8h2.3V4h5.6zm3.4 26.7V24L16 22.7 13.7 24v6.7h4.6zm2.2-24h-9v4H9.2v2.7H5.9v16h5.6v-6.7l4.5-3.1 4.5 3.1v6.7h5.6v-16h-3.4v-2.7h-2.3v-4zM22.8 24H25v2.7h-2.3V24zM7 24h2.3v2.7H7V24zm15.8-4H25v2.7h-2.3V20zM7 20h2.3v2.7H7V20zm15.8-4H25v2.7h-2.3V16zM7 16h2.3v2.7H7V16zm9-6.7c1.9 0 3.4 1.8 3.4 4s-1.5 4-3.4 4-3.4-1.8-3.4-4 1.5-4 3.4-4zm0 1.4h-1.1v4h3.4v-1.3H16v-2.7z" class="st0"/></svg>