<svg id="Layer_1" xmlns="http://www.w3.org/2000/svg" viewBox="0 0 32 32"><style>.st0{fill:#008080;}</style><g id="XMLID_2_"><g id="XMLID_3_"><g id="XMLID_4_"><path id="XMLID_34_" class="st0" d="M11.8 19.5c0 .3.2.5.5.5h2.1c.3 0 .5-.2.5-.5v-3c0-.3-.2-.5-.5-.5h-2.1c-.3 0-.5.2-.5.5v3zm1.1-2.5h1v2h-1v-2z"/><path id="XMLID_31_" class="st0" d="M12.3 14h2.1c.3 0 .5-.2.5-.5v-3c0-.3-.2-.5-.5-.5h-2.1c-.3 0-.5.2-.5.5v3c0 .2.2.5.5.5zm.6-3.1h1v2h-1v-2z"/><path id="XMLID_30_" class="st0" d="M8.5 10.4L16 6l7.5 4.4c.1 0 .2.1.3.1.2 0 .3-.1.4-.2.1-.2.1-.6-.2-.7l-7.5-4.4V1.8h2.6v1h-1.6c-.3 0-.5.2-.5.5s.2.5.5.5h2.1c.3 0 .5-.2.5-.5v-2c0-.3-.2-.5-.5-.5H16c-.3 0-.5.2-.5.5v3.8L7.9 9.5c-.2.1-.3.5-.2.7.2.2.5.3.8.2z"/><path id="XMLID_29_" class="st0" d="M6.1 20.1c.3 0 .5-.2.5-.5v-3c0-.3-.2-.5-.5-.5H4c-.3 0-.5.2-.5.5v1c0 .2.3.4.5.4s.5-.2.5-.5V17h1v2.5c.1.3.3.6.6.6z"/><path id="XMLID_28_" class="st0" d="M9.7 26.6V11.9c0-.3-.2-.5-.5-.5s-.5.2-.5.5v14.7c0 .3.2.5.5.5s.5-.2.5-.5z"/><path id="XMLID_24_" class="st0" d="M7.2 29.2h17.6c.3 0 .5-.2.5-.5s-.2-.5-.5-.5h-4.7v-5.1h.5c.3 0 .5-.2.5-.5s-.2-.5-.5-.5h-9.3c-.3 0-.5.2-.5.5s.2.5.5.5h.5v5.1H7.2c-.3 0-.5.2-.5.5-.1.2.2.5.5.5zm9.3-3.1c.3 0 .5-.2.5-.5s-.2-.5-.5-.5v-2h2.6v5.1h-2.6v-2.1zm-3.6-3h2.6v2c-.3 0-.5.2-.5.5s.2.5.5.5v2h-2.6v-5z"/><path id="XMLID_21_" class="st0" d="M27.9 22.6h-2.1c-.3 0-.5.2-.5.5v3c0 .3.2.5.5.5h2.1c.3 0 .5-.2.5-.5v-3c0-.3-.2-.5-.5-.5zm-.5 3h-1v-2h1v2z"/><path id="XMLID_18_" class="st0" d="M27.9 16.5h-2.1c-.3 0-.5.2-.5.5v3c0 .3.2.5.5.5h2.1c.3 0 .5-.2.5-.5v-3c0-.3-.2-.5-.5-.5zm-.5 3h-1v-2h1v2z"/><path id="XMLID_17_" class="st0" d="M26.8 30.2H5.1c-.3 0-.5.2-.5.5s.2.5.5.5h21.8c.3 0 .5-.2.5-.5s-.3-.5-.6-.5z"/><path id="XMLID_16_" class="st0" d="M31 11.9c-.3 0-.5.2-.5.5v.6h-5.7c-.3 0-.5.2-.5.5s.2.5.5.5h5.7v16.7c0 .3.2.5.5.5s.5-.2.5-.5V12.5c0-.3-.2-.6-.5-.6z"/><path id="XMLID_13_" class="st0" d="M17 19.5c0 .3.2.5.5.5h2.1c.3 0 .5-.2.5-.5v-3c0-.3-.2-.5-.5-.5h-2.1c-.3 0-.5.2-.5.5v3zm1-2.5h1v2h-1v-2z"/><path id="XMLID_10_" class="st0" d="M5.6 25.6c0-.1 0-6.6-2.6-6.6S.4 25.5.4 25.6c0 1.2.9 2.2 2.1 2.5v2.6c0 .3.2.5.5.5s.5-.2.5-.5v-2.6c1.2-.2 2.1-1.3 2.1-2.5zM3 27.1c-.9 0-1.6-.7-1.6-1.5 0-2.5.7-5.6 1.6-5.6s1.6 3 1.6 5.6c0 .9-.7 1.5-1.6 1.5z"/><path id="XMLID_9_" class="st0" d="M23.2 26.6V11.4c0-.3-.2-.5-.5-.5s-.5.2-.5.5v15.2c0 .3.2.5.5.5s.5-.2.5-.5z"/><path id="XMLID_6_" class="st0" d="M17.5 14h2.1c.3 0 .5-.2.5-.5v-3c0-.3-.2-.5-.5-.5h-2.1c-.3 0-.5.2-.5.5v3c0 .2.2.5.5.5zm.5-3.1h1v2h-1v-2z"/><path id="XMLID_5_" class="st0" d="M.9 18.5c.3 0 .5-.2.5-.5v-4h5.7c.3 0 .5-.2.5-.5s-.2-.5-.4-.5H1.5v-.5c0-.3-.2-.5-.5-.5s-.5.2-.5.5V18c-.1.3.2.5.4.5z"/></g></g></g></svg>