<svg xmlns="http://www.w3.org/2000/svg" id="Layer_1" viewBox="0 0 32 32"><style>.st0{fill:#008080;}</style><path id="XMLID_2_" d="M30.6 22.2l-.7-.8c-2.6-2.9-5.9-4.7-9.5-5-.1-3.9-1.7-7.5-4.4-10.1-2.9-2.7-6.8-4.1-10.9-3.8L4 2.6c-1.5 0-2.7 1.2-2.8 2.8l-.1 1c-.3 6.1 2.8 11.6 8 14.1l-.9.9-.7.8c-1 1.2-1 2.8 0 4l.7.8c2.9 3.3 6.7 5.1 10.8 5.1 4.1 0 8-1.8 10.8-5.1l.7-.8c1.1-1.2 1.1-2.9.1-4zm-1.6 0l.7.8c.2.3.4.6.4.9-3 2.8-7.7 2.8-10.6-.2-2.8-2.8-6.9-3.4-10.3-1.7.4-.4.8-.9 1.2-1.2l.1-.1c2.3-2 5.1-3.1 7.9-3.2h1.2c3.7.2 6.9 1.9 9.4 4.7zM6 3.7c3.5 0 6.7 1.2 9.1 3.5 2.5 2.3 3.9 5.6 4 9.1H19h-.1c-.4 0-.8 0-1.1.1h-.1c-1.5.1-2.9.5-4.3 1.1-1.3-1.4-1.6-3.1-1.8-4.9-.2-1.2-.4-2.4-.9-3.6-1-2.5-3.1-4.4-5.5-5.2.3-.1.6-.1.8-.1zM2.4 6.5l.1-1c0-.4.2-.7.4-1 3 .1 5.7 2.1 6.9 4.9.4 1.1.6 2.2.8 3.4.3 1.8.6 3.7 1.9 5.3-.8.4-1.6 1-2.3 1.6C5 17.4 2 12.3 2.4 6.5zm16.7 24.3c-3.8 0-7.3-1.7-9.9-4.7l-.7-.8c-.3-.3-.4-.6-.4-1 3-2.8 7.8-2.7 10.7.2 1.7 1.7 4 2.6 6.2 2.6 1.4 0 2.7-.3 4-1-2.7 3.1-6.2 4.7-9.9 4.7z" class="st0"/></svg>