<?xml version="1.0" encoding="utf-8"?>
<!-- Generator: Adobe Illustrator 19.0.0, SVG Export Plug-In . SVG Version: 6.00 Build 0)  -->
<svg version="1.1" id="Layer_1" xmlns="http://www.w3.org/2000/svg" xmlns:xlink="http://www.w3.org/1999/xlink" x="0px" y="0px"
	 viewBox="0 0 32 32" style="enable-background:new 0 0 32 32;" xml:space="preserve">
<style type="text/css">
	.st0{fill:#008080;}
</style>
<g id="XMLID_34_">
	<g id="XMLID_35_">
		<path id="XMLID_36_" class="st0" d="M14.2,3.5c-0.9-0.8-2.2-0.9-3.2-0.1c-0.4,0.4-0.7,0.9-0.7,1.5c0,0.5,0.2,1.1,0.6,1.5
			c0.5,0.4,1,0.7,1.6,0.7c0,0,0,0,0.1,0c0.6,0,1.1-0.2,1.5-0.5C14.9,5.7,15,4.4,14.2,3.5z M12.5,6.3c-0.4,0-0.7-0.2-1-0.4
			c-0.3-0.3-0.4-0.6-0.4-1c0-0.2,0.1-0.4,0.2-0.7l1.9,1.9C13,6.3,12.8,6.3,12.5,6.3z M13.8,5.6l-1.9-1.9c0.2-0.1,0.4-0.1,0.7-0.1h0
			c0.4,0,0.7,0.2,1,0.4C13.9,4.3,14,4.6,14,5C14,5.2,13.9,5.5,13.8,5.6z"/>
	</g>
</g>
<g id="XMLID_28_">
	<g id="XMLID_29_">
		<path id="XMLID_30_" class="st0" d="M5.6,13c-0.6-1-2-1.4-3.1-0.8c-0.5,0.3-0.9,0.7-1,1.3s-0.1,1.1,0.2,1.6
			c0.4,0.7,1.2,1.1,1.9,1.1c0.4,0,0.8-0.1,1.1-0.3c0.5-0.3,0.9-0.7,1-1.3C6,14,6,13.5,5.6,13z M2.3,13.7C2.4,13.3,2.6,13,3,12.9
			c0.2-0.1,0.5-0.2,0.7-0.2c0.4,0,0.8,0.1,1,0.4l-2.4,1.3C2.2,14.2,2.2,13.9,2.3,13.7z M5.1,14.4C5,14.8,4.7,15,4.4,15.2
			c-0.6,0.3-1.3,0.2-1.7-0.2l2.4-1.3C5.2,13.9,5.2,14.2,5.1,14.4z"/>
	</g>
</g>
<g id="XMLID_22_">
	<g id="XMLID_23_">
		<path id="XMLID_24_" class="st0" d="M25.4,27.2l-2.5-3.4c-0.5-0.7-1.5-0.8-2.2-0.3c-0.7,0.5-0.9,1.4-0.3,2.1l2.5,3.4
			c0.3,0.4,0.8,0.6,1.3,0.6c0.3,0,0.6-0.1,0.9-0.3C25.8,28.8,25.9,27.9,25.4,27.2z M21,25.1c-0.3-0.3-0.2-0.8,0.2-1.1
			c0.2-0.1,0.3-0.1,0.5-0.1c0.2,0,0.5,0.1,0.7,0.3l1,1.4L22,26.5L21,25.1z M24.6,28.7c-0.3,0.3-0.9,0.1-1.1-0.2l-1-1.4l1.3-0.9
			l1,1.4C25.1,27.9,25,28.4,24.6,28.7z"/>
	</g>
</g>
<g id="XMLID_16_">
	<g id="XMLID_17_">
		<path id="XMLID_18_" class="st0" d="M30.3,20.1c-0.1-0.4-0.3-0.7-0.6-1c-0.3-0.2-0.7-0.3-1.2-0.3l-4.3,0.6c-0.4,0.1-0.8,0.3-1,0.6
			c-0.2,0.3-0.3,0.7-0.3,1.1c0.1,0.4,0.3,0.7,0.6,1c0.3,0.2,0.6,0.3,0.9,0.3c0.1,0,0.2,0,0.2,0l4.3-0.6c0.4-0.1,0.8-0.3,1-0.6
			C30.2,20.9,30.3,20.5,30.3,20.1z M24.5,21.7c-0.2,0-0.4,0-0.6-0.1c-0.2-0.1-0.3-0.3-0.3-0.5c0-0.2,0-0.4,0.2-0.5s0.3-0.3,0.5-0.3
			l1.8-0.3l0.2,1.5L24.5,21.7z M29.3,20.8c-0.1,0.1-0.3,0.3-0.5,0.3L27,21.3l-0.2-1.5l1.8-0.3c0,0,0.1,0,0.1,0c0.2,0,0.3,0,0.5,0.1
			c0.2,0.1,0.3,0.3,0.3,0.5C29.5,20.5,29.5,20.6,29.3,20.8z"/>
	</g>
</g>
<g id="XMLID_10_">
	<g id="XMLID_11_">
		<path id="XMLID_12_" class="st0" d="M9.2,9l-2.9-3C5.6,5.4,4.6,5.3,4,5.9c-0.3,0.3-0.5,0.7-0.5,1c0,0.4,0.1,0.8,0.4,1.1l2.9,3
			c0.3,0.3,0.7,0.5,1.2,0.5c0.4,0,0.8-0.1,1.1-0.4C9.7,10.5,9.8,9.6,9.2,9z M4.5,7.5C4.3,7.3,4.2,7.1,4.3,6.9c0-0.2,0.1-0.4,0.2-0.5
			c0.2-0.1,0.3-0.2,0.5-0.2h0c0.2,0,0.4,0.1,0.5,0.3l1.2,1.2l-1.2,1L4.5,7.5z M8.5,10.5c-0.3,0.3-0.8,0.3-1.1,0L6.2,9.3l1.2-1
			l1.2,1.2C8.9,9.8,8.9,10.3,8.5,10.5z"/>
	</g>
</g>
<g id="XMLID_2_">
	<g id="XMLID_3_">
		<path id="XMLID_4_" class="st0" d="M31.1,2.2c-0.2-0.1-0.4-0.1-0.5,0l-4.3,4C26,6.1,25.7,6,25.4,6c-0.5,0-0.9,0.2-1.2,0.5
			l-0.7,0.6L23,6.6C22.5,6.2,22,6,21.3,6c-0.6,0-1.2,0.2-1.6,0.6L5.5,20.1l-0.7-0.7c-0.2-0.1-0.4-0.1-0.5,0c-0.2,0.1-0.2,0.4,0,0.5
			l2.6,2.4l-4,3.8l-0.7-0.6c-0.2-0.1-0.4-0.1-0.5,0s-0.2,0.4,0,0.5l4.1,3.9C5.8,30,6,30,6,30c0.1,0,0.2,0,0.3-0.1
			c0.2-0.1,0.2-0.4,0-0.5l-0.6-0.6l4-3.8l2.6,2.5c0.1,0.1,0.2,0.1,0.3,0.1s0.2,0,0.3-0.1c0.2-0.1,0.2-0.4,0-0.5L12,26.2l14.2-13.4
			c0.9-0.8,0.9-2.2,0-3l-0.4-0.4l0.7-0.6c0.6-0.5,0.7-1.4,0.2-2l4.3-4C31.2,2.6,31.2,2.4,31.1,2.2z M5.1,28.3l-1.8-1.7l4-3.8
			l1.8,1.7L5.1,28.3z M11.5,25.7l-5.4-5.1l4.1-3.8l3.7,3.5l-2.2,2.1c-0.2,0.1-0.2,0.4,0,0.5c0.1,0.1,0.2,0.1,0.3,0.1
			c0.1,0,0.2,0,0.3-0.1l2.2-2.1l1.2,1.1L11.5,25.7z M25.7,12.3l-9.6,9.1l-1.2-1.1l7.8-7.4c0.2-0.1,0.2-0.4,0-0.5
			c-0.2-0.1-0.4-0.1-0.5,0l-7.8,7.4l-3.7-3.5l9.6-9.1c0.6-0.5,1.6-0.5,2.1,0l3.3,3.1C26.3,10.8,26.3,11.7,25.7,12.3z M26,8.3
			l-0.7,0.6l-1.3-1.2L24.7,7c0.3-0.3,1-0.3,1.3,0C26.4,7.4,26.4,7.9,26,8.3z"/>
	</g>
</g>
</svg>
