<svg xmlns="http://www.w3.org/2000/svg" id="Layer_1" viewBox="0 0 32 32"><style>.st0{fill:#008080;}</style><g id="XMLID_2_"><path id="XMLID_9_" d="M31.8 8.2c-.2-.2-.4-.3-.7-.3H7.4l-1-3.7c-.1-.5-.5-.8-.9-.8H.6c-.5 0-.9.4-.9.9s.4.9.9.9h4.1l1 3.7L9.4 22c.1.4.5.7.9.7h17.1c.4 0 .8-.3.9-.7L32 8.9c0-.2 0-.5-.2-.7zM14.3 20.9H11l-.7-2.6h4v2.6zm0-4.3H9.8L9.1 14h5.2v2.6zm0-4.4H8.6l-.7-2.6h6.4v2.6zm7.3 8.7h-5.4v-2.6h5.4v2.6zm0-4.3h-5.4V14h5.4v2.6zm0-4.4h-5.4V9.6h5.4v2.6zm5.1 8.7h-3.3v-2.6h4l-.7 2.6zm1.2-4.3h-4.5V14h5.2l-.7 2.6zm1.2-4.4h-5.7V9.6h6.4l-.7 2.6z" class="st0"/><path id="XMLID_6_" d="M12.8 23.4c-1.9 0-3.4 1.4-3.4 3.2 0 1.8 1.5 3.2 3.4 3.2s3.4-1.4 3.4-3.2c0-1.8-1.5-3.2-3.4-3.2zm0 4.6c-.8 0-1.5-.6-1.5-1.4 0-.8.7-1.4 1.5-1.4s1.5.6 1.5 1.4c0 .8-.7 1.4-1.5 1.4z" class="st0"/><path id="XMLID_3_" d="M25 23.4c-1.9 0-3.4 1.4-3.4 3.2 0 1.8 1.5 3.2 3.4 3.2s3.4-1.4 3.4-3.2c0-1.8-1.6-3.2-3.4-3.2zm0 4.6c-.8 0-1.5-.6-1.5-1.4 0-.8.7-1.4 1.5-1.4s1.5.6 1.5 1.4c0 .8-.7 1.4-1.5 1.4z" class="st0"/></g></svg>