<svg xmlns="http://www.w3.org/2000/svg" id="Layer_1" viewBox="0 0 32 32"><style>.st0{fill:#008080;} .st1{fill:none;stroke:#008080;stroke-miterlimit:10;}</style><g id="XMLID_47_"><g id="XMLID_48_"><path id="XMLID_49_" d="M24.6 1.2H7.4C6 1.2 4.8 2.3 4.8 3.8v24.5c0 1.4 1.2 2.5 2.6 2.5h17.2c1.5 0 2.6-1.1 2.6-2.5V3.8c.1-1.5-1.1-2.6-2.6-2.6zm2.2 27.1c0 1.2-1 2.1-2.2 2.1H7.4c-1.2 0-2.2-.9-2.2-2.1V3.8c0-1.2 1-2.1 2.2-2.1h17.2c1.2 0 2.2.9 2.2 2.1v24.5z" class="st0"/></g></g><g id="XMLID_42_"><g id="XMLID_43_"><path id="XMLID_44_" d="M16 13c-3.9 0-7.2 3.1-7.2 6.9s3.2 6.9 7.2 6.9 7.2-3.1 7.2-6.9S20 13 16 13zm0 13.5c-3.7 0-6.7-2.9-6.7-6.5s3-6.5 6.7-6.5 6.7 2.9 6.7 6.5-3 6.5-6.7 6.5z" class="st0"/></g></g><g id="XMLID_37_"><g id="XMLID_38_"><path id="XMLID_39_" d="M16 4.2c-1.8 0-3.3 1.5-3.3 3.2s1.5 3.2 3.3 3.2c1.8 0 3.3-1.5 3.3-3.2.1-1.7-1.4-3.2-3.3-3.2zm0 6c-1.6 0-2.9-1.3-2.9-2.8s1.3-2.8 2.9-2.8 2.9 1.3 2.9 2.8-1.3 2.8-2.9 2.8z" class="st0"/></g></g><g id="XMLID_32_"><g id="XMLID_33_"><path id="XMLID_34_" d="M16 14.2c-3.3 0-6 2.6-6 5.8s2.7 5.8 6 5.8 6-2.6 6-5.8-2.7-5.8-6-5.8zm0 11.1c-3 0-5.5-2.4-5.5-5.3s2.5-5.3 5.5-5.3 5.5 2.4 5.5 5.3-2.4 5.3-5.5 5.3z" class="st1"/></g></g><g id="XMLID_27_"><g id="XMLID_28_"><path id="XMLID_29_" d="M16 16.7c-1.8 0-3.3 1.5-3.3 3.2 0 1.8 1.5 3.2 3.3 3.2 1.8 0 3.3-1.5 3.3-3.2.1-1.7-1.4-3.2-3.3-3.2zm0 6c-1.6 0-2.9-1.3-2.9-2.8s1.3-2.8 2.9-2.8 2.9 1.3 2.9 2.8-1.3 2.8-2.9 2.8z" class="st0"/></g></g><g id="XMLID_22_"><g id="XMLID_23_"><path id="XMLID_24_" d="M16 5.4c-1.2 0-2.2.9-2.2 2.1s1 2.1 2.2 2.1 2.2-.9 2.2-2.1-1-2.1-2.2-2.1zm0 3.7c-.9 0-1.7-.7-1.7-1.6S15 5.9 16 5.9c.9 0 1.7.7 1.7 1.6 0 .9-.7 1.6-1.7 1.6z" class="st1"/></g></g><g id="XMLID_17_"><g id="XMLID_18_"><path id="XMLID_19_" d="M7.4 3.1c-.4 0-.7.3-.7.7s.3.6.7.6c.4 0 .7-.3.7-.7 0-.3-.3-.6-.7-.6zm0 .9c-.1 0-.2-.1-.2-.2s.1-.2.2-.2.2.1.2.2 0 .2-.2.2z" class="st0"/></g></g><g id="XMLID_12_"><g id="XMLID_13_"><path id="XMLID_14_" d="M24.6 3.1c-.4 0-.7.3-.7.7s.3.7.7.7c.4 0 .7-.3.7-.7 0-.4-.3-.7-.7-.7zm0 .9c-.1 0-.2-.1-.2-.2s.1-.2.2-.2.2.1.2.2 0 .2-.2.2z" class="st0"/></g></g><g id="XMLID_7_"><g id="XMLID_8_"><path id="XMLID_9_" d="M7.4 27.6c-.4 0-.7.3-.7.7 0 .4.3.7.7.7.4 0 .7-.3.7-.7 0-.4-.3-.7-.7-.7zm0 .9c-.1 0-.2-.1-.2-.2s.1-.2.2-.2.2.1.2.2c.1.1 0 .2-.2.2z" class="st0"/></g></g><g id="XMLID_2_"><g id="XMLID_3_"><path id="XMLID_4_" d="M24.6 27.6c-.4 0-.7.3-.7.7 0 .4.3.7.7.7.4 0 .7-.3.7-.7 0-.4-.3-.7-.7-.7zm0 .9c-.1 0-.2-.1-.2-.2s.1-.2.2-.2.2.1.2.2c.1.1 0 .2-.2.2z" class="st0"/></g></g></svg>