<svg xmlns="http://www.w3.org/2000/svg" id="Layer_1" viewBox="0 0 32 32"><style>.st0{fill:none;stroke:#008080;stroke-width:0.8;stroke-miterlimit:10;} .st1{fill:#FFFFFF;stroke:#008080;stroke-width:0.8;stroke-miterlimit:10;}</style><g id="XMLID_2_"><g id="XMLID_3_"><path id="XMLID_7_" d="M12.2 21.7l-2.8-.3c-.6-.1-1.1-.2-1.5-.5V30c0 .9 1 1.6 2.2 1.6 1.2 0 2.2-.7 2.2-1.6v-8.3z" class="st0"/><path id="XMLID_6_" d="M4.3 10.3l-3.1 5.2c-.4.8 0 1.6 1.1 2 .3.1.5.1.8.1.8 0 1.5-.3 1.9-.9l2.7-4.6 1.6-.3L8 17.7l-.1.7v.7c.2.6.9 1.1 1.8 1.2l2.6.3 7.2.9V26c0 .9 1 1.6 2.2 1.6 1.2 0 2.2-.7 2.2-1.6v-5.8c0-.8-.8-1.4-1.8-1.6l-6.7-.8S17 9.6 17 9.5v-.6c-.2-.7-1.1-1.1-2-1.1h-.5L5.7 9.4c-.7.1-1.2.4-1.4.9z" class="st0"/><path id="XMLID_5_" d="M14.3 6.8c.5.2 1.1.3 1.7.3h.3c2.4-.1 4.2-1.6 4.2-3.3 0-1.8-2-3.3-4.6-3.3-.3 0-.7 0-1 .1l-1.1.3c-1.5.6-2.5 1.7-2.5 3 .2 1.2 1.3 2.4 3 2.9z" class="st0"/><ellipse id="XMLID_4_" cx="24" cy="12.6" class="st1" rx="4.3" ry="3.2"/></g></g></svg>