<svg id="Layer_1" xmlns="http://www.w3.org/2000/svg" viewBox="0 0 32 32"><style>.st0{fill:#008080;}</style><path id="XMLID_5_" class="st0" d="M25.3 2.4l4.1 4.2L28 7.9l-1.9-2-.8.8 1.9 2-.9.9-1.2-1.3-.8.8 1.2 1.2-1.1 1.2-2-2-.8.8 2 2-.9.9-1.3-1.3-.8.8L23 15l8.6-8.4L25.3.2l-8.7 8.5 1.1 1.1z"/><path id="XMLID_4_" class="st0" d="M13.1 19.6l1.5 1.5-1.1 1.1-2.2-2.2-.8.8 2.2 2.2-.9.9-1.4-1.5-.8.7 1.4 1.5-1.2 1.2-2.1-2.2-.8.8L9 26.6l-.8.9L6.7 26l-.8.7 1.5 1.5-1.1 1.1-4.1-4.2 9.1-9-1.1-1.1L0 25.1l6.3 6.4 10.2-10-2.6-2.7z"/><path class="st0" d="M12.7 6.3L8.5 2.1 3.6 7l4.2 4.2 13 13.1 8 3.5-3-8.4L12.7 6.3zM7 8.6L5.4 7l3.1-3.1 1.6 1.6L7 8.6zm18.7 17.2l-4.5-2-.6-.6 2.7.2-.4-1.9 1.9.3v-2.5l.4.4 1.7 4.8-1.2 1.3z"/></svg>