<?xml version="1.0" encoding="utf-8"?>
<!-- Generator: Adobe Illustrator 19.0.0, SVG Export Plug-In . SVG Version: 6.00 Build 0)  -->
<svg version="1.1" id="Layer_1" xmlns="http://www.w3.org/2000/svg" xmlns:xlink="http://www.w3.org/1999/xlink" x="0px" y="0px"
	 viewBox="0 0 32 32" style="enable-background:new 0 0 32 32;" xml:space="preserve">
<style type="text/css">
	.st0{fill:#008080;}
</style>
<g id="XMLID_2_">
	<g id="XMLID_3_">
		<path id="XMLID_4_" class="st0" d="M30.7,12.3L30.7,12.3c-0.7-2.6-2-5-3.9-6.9v0c-2.8-2.8-6.6-4.4-10.6-4.4c-4,0-7.8,1.6-10.6,4.4
			C2.8,8.3,1.2,12,1.2,16s1.6,7.8,4.4,10.6c1.9,1.9,4.3,3.3,6.9,3.9v0c0,0,0.1,0,0.1,0c0.2,0,0.3-0.1,0.4-0.2l17.4-17.5
			C30.7,12.8,30.7,12.5,30.7,12.3z M11.6,26.4L11.6,26.4C10.3,25.8,9.2,25,8.2,24c-4.4-4.4-4.4-11.6,0-16c2.2-2.2,5.1-3.3,8-3.3
			c2.9,0,5.8,1.1,8,3.3c1,1,1.8,2.1,2.3,3.4l0,0c-3.9,0-7.7,1.6-10.5,4.4C13.1,18.6,11.6,22.4,11.6,26.4z M13,28.7
			c-0.1-0.5-0.1-1-0.2-1.5c-0.2-3.9,1.2-7.8,4-10.5c2.6-2.6,6.1-4,9.7-4c0.3,0,0.6,0,0.8,0c0.5,0,1,0.1,1.5,0.2L13,28.7z M27.8,11.5
			c-0.6-1.6-1.6-3.1-2.8-4.3c-4.9-4.9-12.8-4.9-17.7,0c-4.9,4.9-4.9,12.8,0,17.7c1.2,1.2,2.7,2.2,4.3,2.8c0,0.5,0.1,0.9,0.2,1.4
			c-2-0.7-3.8-1.8-5.4-3.3c-2.6-2.6-4-6-4-9.7s1.4-7.1,4-9.7c2.6-2.6,6-4,9.7-4c3.7,0,7.1,1.4,9.7,4c1.5,1.5,2.6,3.3,3.3,5.4
			C28.7,11.6,28.3,11.5,27.8,11.5z"/>
	</g>
</g>
</svg>
