<svg xmlns="http://www.w3.org/2000/svg" id="Capa_1" viewBox="138 -137.1 307.1 307.1">
  <style>
    .st0{fill:#008080;}
  </style>
  <path d="M391.6 135c18-48.3 18-189 0-237.2L397-130c.2-1.8-.2-3.6-1.4-5-1-1.3-2.8-2-4.6-2H192c-1.7 0-3.4.7-4.5 2s-1.6 3.3-1.3 5l5.3 27.8c-18 48.3-18 189 0 237.2l-5.3 27.8c-.3 1.8 0 3.6 1.3 5 1 1.3 2.8 2 4.6 2h199c3.3 0 6-2.6 6-6 0-.5 0-1-.2-1.5l-5.2-27.3zm-7.8-260l-3.3 17.4h-178l-3.2-17.5h184.5zm-182 29.4h179.5c15.8 47 15.8 177.2 0 224H202c-16-46.8-16-177 0-224zM199.4 158l3.3-17.5h177.8l3.3 17.5H199.3z" class="st0"/>
  <path d="M269.3 2.5c11.2 0 20-12.2 20-27.8 0-15.6-8.8-27.8-20-27.8s-20 12-20 27.7c0 15.6 8.8 27.8 20 27.8zm0-43.5c3.7 0 8 7 8 15.8 0 9-4.3 15.8-8 15.8s-8-7-8-15.8c0-9 4.3-15.8 8-15.8zM225 18.8c4.3 9.4 12.2 15.5 20 15.5 2 0 4-.4 5.7-1.2 8.8-4 11.4-16.6 5.8-28.6-4.3-9.4-12.2-15.5-20-15.5-2 0-4 .3-5.6 1-9 4-11.5 16.7-6 28.8zm11-18h.6c2 0 6.3 2.6 9 8.5 3 6.6 1.7 12 0 12.8 0 .2-.3.2-.6.2-2 0-6.3-2.6-9-8.5-3-6.5-1.8-12 0-12.8zM313.8 2.5c11.2 0 20-12.2 20-27.8 0-15.6-8.8-27.8-20-27.8s-20 12-20 27.7c0 15.6 8.8 27.8 20 27.8zm0-43.5c3.7 0 8 7 8 15.8 0 9-4.3 15.8-8 15.8s-8-7-8-15.8c0-9 4.3-15.8 8-15.8zM326.6 4.2c-5.6 12-3 24.7 5.8 28.8 1.8.8 3.7 1.2 5.7 1.2 8 0 15.7-6 20-15.5 5.6-12 3-24.7-5.8-28.8-1.8-1-3.7-1.4-5.8-1.4-7.6.2-15.5 6.2-19.8 15.6zm11 5c2.6-5.8 6.8-8.4 9-8.4h.6c1.7 1 3 6.4 0 13-3 6.5-8 9-9.7 8.3-1.8-.7-3-6.2 0-12.7zM247 47c-5.8 9.4-9.4 15.5-9.4 22.5 0 12.8 9.3 21 23.6 21h.3c5.3 0 9-.3 17-4.4h.2s6.5-3.6 12.6-3.2h.8c6.2-.4 12.6 3 12.6 3.2h.2c8 4.2 11.7 4.5 17 4.5h.4c14.4 0 23.6-8.2 23.6-21 0-7-3.6-13-9.5-22.4-.8-1.3-11.8-19.3-21.8-28.3C306 11 293.3 11 291.8 11c-1.4 0-14.3 0-22.7 7.7-10 9-21 27-22 28.4zm30-19.4c4-3.8 12-4.7 14.5-4.7 2.6 0 10.4.8 14.6 4.6 9 8 19.6 25.6 19.7 25.7 5.5 8.7 7.8 12.8 7.8 16.2 0 6-4 9-11.6 9h-.4c-3.7 0-5.5 0-11.4-3-1.2-.7-9-4.7-17.4-4.7h-2.6c-8.6 0-16.2 4-17.4 4.7-5.8 3-7.7 3-11.4 3h-.3c-7.6 0-11.5-3-11.5-9 0-3.4 2.3-7.5 7.7-16v-.2c.2 0 11-17.7 19.7-25.7z" class="st0"/>
</svg>
