<?xml version="1.0" encoding="utf-8"?>
<!-- Generator: Adobe Illustrator 19.0.0, SVG Export Plug-In . SVG Version: 6.00 Build 0)  -->
<svg version="1.1" id="Layer_1" xmlns="http://www.w3.org/2000/svg" xmlns:xlink="http://www.w3.org/1999/xlink" x="0px" y="0px"
	 viewBox="0 0 32 32" style="enable-background:new 0 0 32 32;" xml:space="preserve">
<style type="text/css">
	.st0{fill:#008080;}
</style>
<g id="XMLID_2_">
	<g id="XMLID_3_">
		<g id="XMLID_4_">
			<path id="XMLID_16_" class="st0" d="M7.1,11.2h17.7c0.3,0,0.5-0.2,0.5-0.5v-5c0-2.7-1.6-4.5-4.2-4.5h-9.9c-2.7,0-4.7,1.9-4.7,4.5
				v5C6.6,10.9,6.9,11.2,7.1,11.2z M7.7,5.7c0-2,1.5-3.5,3.6-3.5h9.9c2.3,0,3.1,1.8,3.1,3.5v4.5H7.7V5.7z"/>
			<path id="XMLID_13_" class="st0" d="M22.8,6.2h-4.2c0,0,0,0-0.1,0c-0.2-1.1-1.3-2-2.6-2c-1.3,0-2.3,0.9-2.6,2c0,0,0,0-0.1,0H9.2
				c-0.3,0-0.5,0.2-0.5,0.5s0.2,0.5,0.5,0.5h4.2c0,0,0,0,0.1,0c0.2,1.1,1.3,2,2.6,2c1.3,0,2.3-0.9,2.6-2c0,0,0,0,0.1,0h4.2
				c0.3,0,0.5-0.2,0.5-0.5C23.3,6.4,23.1,6.2,22.8,6.2z M16,8.2c-0.9,0-1.6-0.7-1.6-1.5s0.7-1.5,1.6-1.5c0.9,0,1.6,0.7,1.6,1.5
				S16.9,8.2,16,8.2z"/>
			<path id="XMLID_10_" class="st0" d="M7.8,16.1c0.3,1.1,1.2,4.5,2.1,5.8c0.7,1,2.2,3.2,6.2,3.2s5.5-2.2,6.2-3.2
				c0.9-1.3,1.8-4.7,2.1-5.8c0.7-0.2,1.1-0.8,1.1-1.4v-2c0-0.3-0.2-0.5-0.5-0.5s-0.5,0.2-0.5,0.5v2c0,0.3-0.2,0.5-0.5,0.5
				c-0.2,0-0.5,0.2-0.5,0.4c0,0-0.3,1.2-0.7,2.6c0,0,0,0,0,0c0,0-3.9,0-6.4-1c-0.1,0-0.3,0-0.4,0c-2.5,0.9-6.3,1-6.4,1c0,0,0,0,0,0
				c-0.4-1.4-0.7-2.6-0.7-2.6c-0.1-0.2-0.3-0.4-0.5-0.4c-0.3,0-0.5-0.2-0.5-0.5v-2c0-0.3-0.2-0.5-0.5-0.5s-0.5,0.2-0.5,0.5v2
				C6.6,15.3,7.1,15.9,7.8,16.1z M16,18.1c2.3,0.8,5.3,0.9,6.3,1c-0.3,0.9-0.6,1.7-1,2.2c-0.6,0.9-1.9,2.8-5.3,2.8s-4.7-1.9-5.3-2.8
				c-0.3-0.5-0.7-1.3-1-2.2C10.7,19.1,13.7,19,16,18.1z"/>
			<path id="XMLID_7_" class="st0" d="M31.6,30.3l-0.5-1.5C30.5,27,28.8,26,21.9,26c-0.4-0.2-2-0.9-2-0.9c-0.2-0.1-0.4-0.1-0.6,0.1
				L16,27.9l-3.3-2.7c-0.2-0.1-0.4-0.2-0.6-0.1l-2,0.9c-0.5,0-0.9,0-1.4,0c0,0-0.1,0-0.1,0c0,0-0.1,0-0.1,0
				c-5.6,0.2-7.1,1.1-7.7,2.8l-0.5,1.5c-0.1,0.3,0.1,0.5,0.3,0.6c0.3,0.1,0.6-0.1,0.7-0.3l0.5-1.5c0.3-0.8,0.7-1.9,6.3-2.1v0
				c-0.9,0.2-1.6,1-1.6,1.9c0,1.1,0.9,2,2.1,2s2.1-0.9,2.1-2c0-0.9-0.7-1.7-1.6-1.9V27c0.3,0,0.7,0,1,0h0c0.1,0,0.2,0,0.2-0.1
				l1.8-0.8l3.2,2.6v1.8c0,0.3,0.2,0.5,0.5,0.5c0.3,0,0.5-0.2,0.5-0.5v-1.8l3.2-2.6c1.3,0.6,1.8,0.8,2,0.9v0c7.6,0,8,1.2,8.4,2.1
				l0.5,1.5c0.1,0.2,0.3,0.3,0.5,0.3c0.1,0,0.1,0,0.2,0C31.6,30.9,31.7,30.6,31.6,30.3z M9.8,29c0,0.5-0.5,1-1,1c-0.6,0-1-0.4-1-1
				c0-0.5,0.5-1,1-1C9.3,28,9.8,28.5,9.8,29z"/>
			<path id="XMLID_6_" class="st0" d="M17.6,14.1c-0.3,0-0.5,0.2-0.5,0.5s0.2,0.5,0.5,0.5h0.5c0,0.3,0.2,0.5,0.5,0.5
				s0.5-0.2,0.5-0.5h0.5c0.3,0,0.5-0.2,0.5-0.5s-0.2-0.5-0.5-0.5H17.6z"/>
			<path id="XMLID_5_" class="st0" d="M12.4,14.1c-0.3,0-0.5,0.2-0.5,0.5s0.2,0.5,0.5,0.5h0.5c0,0.3,0.2,0.5,0.5,0.5
				s0.5-0.2,0.5-0.5h0.5c0.3,0,0.5-0.2,0.5-0.5s-0.2-0.5-0.5-0.5H12.4z"/>
		</g>
	</g>
</g>
</svg>
