<?xml version="1.0" encoding="utf-8"?>
<!-- Generator: Adobe Illustrator 19.0.0, SVG Export Plug-In . SVG Version: 6.00 Build 0)  -->
<svg version="1.1" id="Layer_1" xmlns="http://www.w3.org/2000/svg" xmlns:xlink="http://www.w3.org/1999/xlink" x="0px" y="0px"
	 viewBox="0 0 32 32" style="enable-background:new 0 0 32 32;" xml:space="preserve">
<style type="text/css">
	.st0{fill:#008080;}
</style>
<g id="XMLID_20_">
	<g id="XMLID_21_">
		<path id="XMLID_22_" class="st0" d="M31.7,24c-2.3-3.4-5.9-5.8-10.2-7h0h0c-0.1,0-0.2,0-0.2,0.1c-2,1.7-4.5,3-5.1,3.4
			c-0.7-0.4-3.5-2-5.1-3.4c0,0,0,0,0,0c0,0,0,0-0.1,0h0c0,0-0.1,0-0.1,0c0,0,0,0,0,0s0,0-0.1,0c-4.3,1.1-7.9,3.6-10.2,7
			c-0.1,0.1-0.1,0.2,0,0.3c0.5,0.8,1.1,1.5,1.8,2.2c0,0,0,0,0,0C5.6,29.9,10.6,32,16,32c6.4,0,12.4-3,15.7-7.7
			C31.7,24.2,31.7,24.1,31.7,24z M1,24.2c1.7-2.5,4.2-4.5,7.2-5.8c-1.9,1.3-3.6,3.2-4.9,5.5c-0.3,0.6-0.7,1.2-1,1.9
			C1.8,25.3,1.3,24.8,1,24.2z M16.3,31.5v-7.9c0-0.2-0.1-0.3-0.3-0.3c-0.2,0-0.3,0.1-0.3,0.3v7.9c-5.1-0.1-9.8-2-13-5.3
			c0.3-0.7,0.7-1.4,1.1-2.1c1.8-3.1,4.2-5.4,6.9-6.6c1.7,1.5,4.5,3,5.1,3.3c0,0,0,0,0,0.1v0.7c0,0.2,0.1,0.3,0.3,0.3
			c0.2,0,0.3-0.1,0.3-0.3v-0.7v0c0.6-0.3,3.1-1.6,5.1-3.3c2.7,1.2,5.1,3.5,6.9,6.6c0.4,0.7,0.8,1.4,1.1,2.1
			C26.1,29.5,21.4,31.4,16.3,31.5z M29.8,25.8c-0.3-0.6-0.6-1.3-1-1.9c-1.4-2.3-3-4.2-4.9-5.5c3,1.3,5.5,3.3,7.2,5.7
			C30.7,24.7,30.2,25.3,29.8,25.8z"/>
	</g>
</g>
<g id="XMLID_15_">
	<g id="XMLID_16_">
		<path id="XMLID_17_" class="st0" d="M25.9,23.8c-0.1-0.1-0.3-0.2-0.6-0.2h-1.7v-1.5c0-0.4-0.4-0.7-0.8-0.7h-1.7
			c-0.5,0-0.9,0.3-0.9,0.7v1.5h-1.7c-0.5,0-0.9,0.3-0.9,0.8v1.5c0,0.4,0.4,0.7,0.9,0.7h1.7v1.5c0,0.4,0.4,0.7,0.9,0.7h1.7
			c0.5,0,0.8-0.3,0.8-0.7v-1.5h1.7c0.5,0,0.9-0.3,0.9-0.7v-1.5C26.2,24.2,26.1,24,25.9,23.8z M25.7,25.9L25.7,25.9
			c0,0.1-0.2,0.2-0.3,0.2h-2c-0.2,0-0.3,0.1-0.3,0.3v1.7c0,0.1-0.1,0.2-0.2,0.2h-1.7c-0.1,0-0.3-0.1-0.3-0.2v-1.7
			c0-0.2-0.1-0.3-0.3-0.3h-2c-0.1,0-0.3-0.1-0.3-0.2v-1.5c0-0.1,0.1-0.3,0.3-0.3h2c0.2,0,0.3-0.1,0.3-0.3v-1.7
			c0-0.1,0.1-0.2,0.3-0.2h1.7c0.1,0,0.3,0.1,0.3,0.2v1.7c0,0.2,0.1,0.3,0.3,0.3h2c0.1,0,0.1,0,0.2,0.1c0,0,0.1,0.1,0.1,0.2V25.9z"/>
	</g>
</g>
<g id="XMLID_12_">
	<g id="XMLID_13_">
		<path id="XMLID_14_" class="st0" d="M24.5,24.9h-2.3v-2c0-0.2-0.1-0.3-0.3-0.3s-0.3,0.1-0.3,0.3v2h-2.3c-0.2,0-0.3,0.1-0.3,0.3
			s0.1,0.3,0.3,0.3h2.3v2c0,0.2,0.1,0.3,0.3,0.3s0.3-0.1,0.3-0.3v-2h2.3c0.2,0,0.3-0.1,0.3-0.3S24.7,24.9,24.5,24.9z"/>
	</g>
</g>
<g id="XMLID_5_">
	<g id="XMLID_6_">
		<path id="XMLID_7_" class="st0" d="M16,0.5c-1.6,0-3.1,0.5-4.4,1.3c-0.2-0.1-0.5-0.1-0.8-0.1C9,1.7,7.5,3,7.5,4.7
			c0,1,0.6,1.9,1.4,2.4v2.8c0,3.4,3.2,6.1,7.1,6.1s7.1-2.8,7.1-6.1V6.7C23.1,3.3,19.9,0.5,16,0.5z M16,1c3,0,5.5,1.8,6.3,4.2h-0.6
			c-0.2,0-0.3,0.1-0.3,0.3s0.1,0.3,0.3,0.3h0.8c0,0.2,0.1,0.3,0.1,0.5h-8.7C14,6,14,5.8,14.1,5.7h5.3c0.2,0,0.3-0.1,0.3-0.3
			s-0.1-0.3-0.3-0.3h-5.1c0-0.2,0.1-0.3,0.1-0.5c0-1.2-0.8-2.2-2-2.7C13.4,1.3,14.7,1,16,1z M8.1,4.7c0-1.3,1.3-2.4,2.8-2.4
			c1.6,0,2.8,1.1,2.8,2.4c0,1.4-1.3,2.4-2.8,2.4C9.3,7.1,8.1,6,8.1,4.7z M22.6,9.9L22.6,9.9c0,3.1-2.9,5.6-6.5,5.6S9.5,13,9.5,9.9
			V7.4c0.4,0.2,0.9,0.3,1.4,0.3c1,0,1.9-0.4,2.5-1h0h9.1V9.9z"/>
	</g>
</g>
<g id="XMLID_2_">
	<g id="XMLID_3_">
		<path id="XMLID_4_" class="st0" d="M11.7,4.4c-0.2,0-0.3,0.1-0.3,0.3c0,0.3-0.3,0.5-0.6,0.5s-0.6-0.2-0.6-0.5
			c0-0.3,0.3-0.5,0.6-0.5c0.2,0,0.3-0.1,0.3-0.3c0-0.2-0.1-0.3-0.3-0.3c-0.6,0-1.1,0.5-1.1,1s0.5,1,1.1,1c0.6,0,1.1-0.5,1.1-1
			C12,4.5,11.9,4.4,11.7,4.4z"/>
	</g>
</g>
</svg>
