<svg xmlns="http://www.w3.org/2000/svg" id="Layer_1" viewBox="0 0 32 32">
  <style>
    .st0{fill:#008080;}
  </style>
  <g id="XMLID_2_">
    <path id="XMLID_18_" d="M30.4 22.3V10.4c.6-.7 1-1.7 1-2.8v-1-.2-.2h-.1.1C30.6 3 27.9.7 24.8.3H8.3C4.7.3 1.6 2.8.7 6.3v.2c0 .1-.1.2-.1.2v1c0 1.1.4 2 1 2.8v11.9l-1 5.9 1.2 3.6h28.4l1.2-3.6-1-6zm-2.1 4.8c-.3 0-.5.2-.5.5h-2c0-.3-.2-.5-.5-.5s-.5.2-.5.5h-2c0-.3-.2-.5-.5-.5s-.5.2-.5.5h-.1l-.8-4.2c.2-.1.3-.3.3-.5h2c0 .3.2.5.5.5s.5-.2.5-.5h2c0 .3.2.5.5.5s.5-.2.5-.5h2c0 .1.1.3.2.4l.4 2.3c-.3 0-.5.2-.5.5s.2.5.5.5c.1 0 .1 0 .2-.1l.2 1.1h-1.4c0-.3-.2-.5-.5-.5zm-9.2 0c-.3 0-.5.2-.5.5h-2c0-.3-.2-.5-.5-.5s-.5.2-.5.5h-2c0-.3-.2-.5-.5-.5s-.5.2-.5.5h-.9l.2-1.2c.1-.1.2-.2.2-.4 0-.1 0-.2-.1-.3l.5-2.9H14c0 .3.2.5.5.5s.5-.2.5-.5h2c0 .3.2.5.5.5s.5-.2.5-.5h1.6l.5 2.9c0 .1-.1.2-.1.3 0 .2.1.3.2.4l.2 1.2h-.9c.1-.3-.1-.5-.4-.5zm-9.2 0c-.3 0-.5.2-.5.5h-2c0-.3-.2-.5-.5-.5s-.5.2-.5.5h-2c0-.3-.2-.5-.5-.5s-.5.2-.5.5H1.8l.2-1.1c.1 0 .1.1.2.1.3 0 .5-.2.5-.5s-.2-.5-.5-.5l.4-2.3c.1-.1.2-.2.2-.4h2c0 .3.2.5.5.5s.5-.2.5-.5h2c0 .3.2.5.5.5s.5-.2.5-.5h2c0 .2.1.4.3.5l-.8 4.2h-.1c.2-.3 0-.5-.3-.5zm-8.2-20H8.4v.5c0 1.7-1.4 3.2-3.1 3.2h-.9c-.3 0-.6-.1-.9-.3-.1-.1-.3-.1-.4-.2l-.1-.1-.4-.4c-.6-.5-.9-1.3-.9-2.2v-.5zm27.6 4.2v10.5h-1V11.7c.4-.1.7-.2 1-.4zm-2 10.5H26c.2-.3.3-.7.3-1.1 0-1.1-.8-2-1.8-2.1.2-.3.3-.7.3-1.1 0-1.2-.9-2.1-2-2.1s-2 .9-2 2.1c0 .4.1.8.3 1.1-1 .1-1.8 1-1.8 2.1 0 .4.1.7.3 1.1H11.7v-.5h2c.3 0 .5-.2.5-.5s-.2-.5-.5-.5h-2.3l3.6-3.7-.9-1c-1-1.1-2.4-1.7-3.9-1.7S7 14.5 6 15.6l-.9 1 3.6 3.7H6.3c-.3 0-.5.2-.5.5s.2.5.5.5h2v.5H4.8v-10h.5c1.5 0 2.9-.9 3.6-2.2.7 1.3 2 2.2 3.6 2.2s2.9-.9 3.6-2.2c.7 1.3 2 2.2 3.6 2.2s2.9-.9 3.6-2.2c.7 1.3 2 2.2 3.6 2.2h.5v10zm-7.2-1c0-.6.5-1.1 1-1.1s1 .5 1 1.1c0 .6-.5 1.1-1 1.1s-1-.6-1-1.1zm2.6-2.1c-.6 0-1-.5-1-1.1 0-.6.5-1.1 1-1.1s1 .5 1 1.1c0 .6-.4 1.1-1 1.1zm.5 2.1c0-.6.5-1.1 1-1.1s1 .5 1 1.1c0 .6-.5 1.1-1 1.1s-1-.6-1-1.1zm-13.8.5h.3l.2.2.2-.2h.3v.5h-1v-.5zm.5-5.3c-.3 0-.5.2-.5.5v2.9l-2.9-2.9.2-.2c.8-.9 2-1.3 3.2-1.3s2.3.5 3.2 1.3l.2.2-2.9 2.9v-2.9c0-.2-.2-.5-.5-.5zm12.8-8.4c0 1.7-1.4 3.2-3.1 3.2-1.7 0-3.1-1.4-3.1-3.2v-.5h6.1v.5zM16.5 6V1.3c2.8 0 5.3 2 6 4.7h-6zm-1 0h-6c.8-2.7 3.2-4.7 6-4.7V6zm0 1.1v.5c0 1.7-1.4 3.2-3.1 3.2s-3-1.4-3-3.2v-.5h6.1zM2.7 11.3c.3.2.7.3 1 .4v10.1h-1V11.3zm27.7-3.7c0 .9-.3 1.6-.9 2.2l-.3.3-.1.1c-.1.1-.2.2-.4.2l-.9.3h-.9c-1.7 0-3.1-1.4-3.1-3.2v-.4H30.5v.5zm-6.2-6.3c2.7.2 5.1 2.1 6 4.7h-6.6c-.5-2-1.7-3.7-3.4-4.7h4zm-15.8 0h3.5c-1.7 1-3 2.7-3.5 4.7H1.9c.9-2.8 3.5-4.7 6.5-4.7zM2.6 30.7l-.7-2.1h8.7l.7 2.1H2.6zm9.7 0l-.7-2.1h8.8l-.7 2.1h-7.4zm8.5 0l.7-2.1h8.7l-.7 2.1h-8.7z" class="st0"/>
    <ellipse id="XMLID_17_" cx="13" cy="24.4" class="st0" rx=".5" ry=".5"/>
    <ellipse id="XMLID_16_" cx="16" cy="24.4" class="st0" rx=".5" ry=".5"/>
    <ellipse id="XMLID_15_" cx="9.9" cy="24.4" class="st0" rx=".5" ry=".5"/>
    <ellipse id="XMLID_14_" cx="3.7" cy="24.4" class="st0" rx=".5" ry=".5"/>
    <ellipse id="XMLID_13_" cx="6.8" cy="24.4" class="st0" rx=".5" ry=".5"/>
    <ellipse id="XMLID_12_" cx="28.3" cy="24.4" class="st0" rx=".5" ry=".5"/>
    <ellipse id="XMLID_11_" cx="25.3" cy="24.4" class="st0" rx=".5" ry=".5"/>
    <ellipse id="XMLID_10_" cx="19.1" cy="24.4" class="st0" rx=".5" ry=".5"/>
    <ellipse id="XMLID_9_" cx="22.2" cy="24.4" class="st0" rx=".5" ry=".5"/>
    <ellipse id="XMLID_8_" cx="14.5" cy="26" class="st0" rx=".5" ry=".5"/>
    <ellipse id="XMLID_7_" cx="5.3" cy="26" class="st0" rx=".5" ry=".5"/>
    <ellipse id="XMLID_6_" cx="8.3" cy="26" class="st0" rx=".5" ry=".5"/>
    <ellipse id="XMLID_5_" cx="26.8" cy="26" class="st0" rx=".5" ry=".5"/>
    <ellipse id="XMLID_4_" cx="17.6" cy="26" class="st0" rx=".5" ry=".5"/>
    <ellipse id="XMLID_3_" cx="23.7" cy="26" class="st0" rx=".5" ry=".5"/>
  </g>
</svg>
