<svg xmlns="http://www.w3.org/2000/svg" id="Layer_1" viewBox="0 0 32 32"><style>.st0{fill:#008080;}</style><g id="XMLID_2_"><path id="XMLID_18_" d="M27.4 5.2h-2.5V1.9c0-.3-.2-.5-.5-.5s-.5.2-.5.5v3.2h-1.3V3.8c0-.3-.2-.5-.5-.5s-.5.2-.5.5v1.4H7.9v-2c0-.3-.2-.5-.5-.5-.2 0-.4.2-.4.5v1.9H4.9c-1.8 0-3.3 1.7-3.3 3.7v4.9c0 2.1 1.5 3.7 3.3 3.7h1.4v2.2c0 .2.1.4.3.4h.5v1.4c0 .2.1.4.3.4s.3-.2.3-.4V20h.5c.2 0 .3-.2.3-.4v-2.2h2.8c.2 0 .3-.1.4-.3l1.1-2.1H18v8.4H2.1c-.3 0-.5.2-.5.5v5.2c0 .3.2.5.5.5h28.2c.3 0 .5-.2.5-.5V8.9c-.1-2.1-1.5-3.7-3.4-3.7zm-20.7 8h1.5v.7H6.7v-.7zm1.5-.7H6.7V8h1.5v4.5zm0-5.3H6.7v-1h1.5v1zM8 19.3H7v-1.8h1v1.8zm10.6 5.3c.3 0 .5-.2.5-.5v-9.5c0-.3-.2-.5-.5-.5h-6c-.2 0-.3.1-.4.3l-1.1 2.1H4.9c-1.3 0-2.3-1.2-2.3-2.6v-5c0-1.4 1-2.6 2.3-2.6h1.2v8c0 .2.1.4.3.4h2.1c.2 0 .3-.2.3-.4v-8h18.6c1.3 0 2.3 1.2 2.3 2.6v16.4H2.5v-.6l16.1-.1zM2.5 28.8V26h27.2v2.8H2.5z" class="st0"/><path id="XMLID_15_" d="M19.7 14.5V17c0 2.9 2.1 5.3 4.7 5.3s4.7-2.4 4.7-5.3V8.9c0-1.1-.8-2-1.7-2h-9.2c-1.6 0-2.9 1.4-2.9 3.2 0 1.8 1.3 3.2 2.9 3.2h.5c.6.1 1 .6 1 1.2zm-1.5-1.8c-1.2 0-2.2-1.1-2.2-2.5s1-2.5 2.2-2.5h9.2c.6 0 1.1.5 1.1 1.2V17c0 2.5-1.8 4.6-4.1 4.6s-4.1-2.1-4.1-4.6v-2.5c0-1-.8-1.9-1.7-1.9l-.4.1z" class="st0"/><path id="XMLID_12_" d="M24.4 20.2c.7 0 1.4-.3 1.9-.9 1-1.2 1-3 0-4.2-1-1.2-2.7-1.2-3.7 0s-1 3 0 4.2c.5.6 1.2.9 1.8.9zM23 15.6c.4-.4.9-.7 1.4-.7.5 0 1 .2 1.4.7.8.9.8 2.3 0 3.2-.8.9-2 .9-2.8 0-.7-.9-.7-2.3 0-3.2z" class="st0"/><path id="XMLID_9_" d="M18.4 8.4c-.8 0-1.5.7-1.5 1.7 0 .9.7 1.7 1.5 1.7s1.5-.7 1.5-1.7c0-.9-.7-1.7-1.5-1.7zm0 2.6c-.5 0-.8-.4-.8-.9s.4-.9.8-.9c.5 0 .8.4.8.9s-.3.9-.8.9z" class="st0"/><path id="XMLID_6_" d="M12.8 7.7h-2.4c-.2 0-.3.2-.3.4v3.8c0 .2.1.4.3.4h2.4c.2 0 .3-.2.3-.4V8.1c.1-.2-.1-.4-.3-.4zm-.3 3.8h-1.8v-3h1.8v3z" class="st0"/><path id="XMLID_5_" d="M23.5 16.7c.1 0 .3-.1.3-.2.1-.1.1-.2.1-.4 0-.1-.1-.3-.1-.4-.1-.1-.2-.2-.3-.2-.1 0-.3.1-.3.2-.1.2-.2.3-.2.5 0 .1.1.3.1.4.2.1.3.1.4.1z" class="st0"/><path id="XMLID_4_" d="M22.8 9.8H26c.2 0 .3-.2.3-.4S26.2 9 26 9h-3.2c-.2 0-.3.2-.3.4s.2.4.3.4z" class="st0"/><path id="XMLID_3_" d="M22.8 11.2H26c.2 0 .3-.2.3-.4s-.1-.4-.3-.4h-3.2c-.2 0-.3.2-.3.4s.2.4.3.4z" class="st0"/></g></svg>