<svg xmlns="http://www.w3.org/2000/svg" id="Layer_1" viewBox="0 0 32 32"><style>.st0{fill:none;stroke:#008080;stroke-width:0.9;stroke-miterlimit:10;}</style><path id="XMLID_5_" d="M4.7 29.9h4.1c.1.4.3.7.7.7h9.2c.4 0 .7-.3.7-.7h4.1c.7 0 1.2-.6 1.2-1.3H3.5c0 .8.5 1.3 1.2 1.3z" class="st0"/><path d="M29.6 16.7c-1-.9-2.5-.9-3.5-.8v-2.1H.9c0 7.1 1 12.2 7.6 14.1h10.1c2.6-.8 4.3-2 5.5-3.7 2.5 0 6.5-1.1 6.6-4.6.1-1.6-.5-2.4-1.1-2.9zm-4.5 5.5c.5-1.3.8-2.7.9-4.3.7-.1 1.8-.2 2.4.3.1.1.4.4.4 1.3 0 1.8-2.2 2.5-3.7 2.7z" class="st0"/><path id="XMLID_2_" d="M11.2 12.8s4.8-.4 2.6-4.6c-1.8-3.4-1.4-5.4.9-7.2 0 0-7.4 2-3.1 8 1.6 2.7-.4 3.8-.4 3.8z" class="st0"/><path id="XMLID_1_" d="M14.5 12.5s3.9-.8 1.8-4.1c-.8-1.4.3-1.9.3-1.9s-2.6.1-1.5 2.3c.8 1.8.6 2.8-.6 3.7z" class="st0"/></svg>