<svg xmlns="http://www.w3.org/2000/svg" id="Layer_1" viewBox="0 0 32 32"><style>.st0{fill:#008080;stroke:#008080;stroke-miterlimit:10;} .st1{fill:#008080;}</style><g id="XMLID_2_"><g id="XMLID_3_"><g id="XMLID_4_"><path id="XMLID_19_" d="M16.4 1.2h2.8l-.3 1 .3 1h-2.3v1h3.6l-.6-2 .6-1.9h-5v4.9h.9z" class="st0"/><path id="XMLID_5_" d="M31.6 31h-2.4V17.4L16.4 7V5.7h-1V7L2.8 17.4v13.5H.3V32h31.3v-1zM15.8 8.6l4.2 8.5h-8.2l4-8.5zm4.5 12.5h-8.8v-3h8.8v3zm1.5.9v1h-2v-1h2zm-2.9 0v1H13v-1h5.9zM5.2 30.9H3.7V18.1h1.5v12.8zm-.6-13.8l4.6-3.8-3.7 3.8h-.9zm6 13.8H6.2V18.1h2v-1H6.9l7.5-7.6-3.6 7.6H9.1v1h1.5v3H9.1v3h1.5v6.8zm-.5-7.9v-1h2v1h-2zm10.2 7.9h-8.8V24h8.8v6.9zm5.4 0h-4.4V24h1.5v-3h-1.5v-3h1.5v-1h-1.7l-3.9-7.9L25 17h-1.3v1h2v12.9zm-3-17.6l4.6 3.8h-.9l-3.7-3.8zm5.4 17.6h-1.5V18.1h1.5v12.8z" class="st1"/></g></g></g><path d="M263.8 15.7H309l-5.4 16.1 5.4 16.1h-37v15.6h58.7l-10.6-31.7L330.7 0h-82.5v79.6h15.6z" class="st0"/><path d="M511.3 494.7l-40.1-.1V275.3L263.8 107.8V87.6h-15.7v20.2L40.7 275.3v218.4l-40.4.5V512h511.3l-.3-17.3zM254.2 133.5l68.9 137.8H188.6l65.6-137.8zM328 335.1H184v-48.2h144v48.2zm23.9 15.6V367h-32.2v-16.3h32.2zm-47.9 0V367h-96v-16.3h96zM80.6 493.8H56.4V286.9h24.2v206.9zm-9.9-222.5l75.4-60.9-60.9 60.9H70.7zM168.4 494l-72.1-.1v-207h32.1v-15.7h-21l122-122-58.1 122h-27v15.7h24.1v48.2h-23.9v47.6h23.9V494zm-8.3-127v-16.3h32.2V367h-32.2zM328 494.3l-144-.3V382.7h144v111.6zm87.7.2l-72.1-.1V382.7h23.9v-47.6h-23.9v-48.2h24.1v-15.7h-27.1l-64-128.1 128.1 128.1h-21v15.7h32.1v207.6zm-49.8-284.2l75.4 60.9h-14.5l-60.9-60.9zm89.7 284.2h-24.2V286.9h24.2v207.6z" class="st1"/><path d="M263.8 15.7H309l-5.4 16.1 5.4 16.1h-37v15.6h58.7l-10.6-31.7L330.7 0h-82.5v79.6h15.6z" class="st0"/><path d="M511.3 494.7l-40.1-.1V275.3L263.8 107.8V87.6h-15.7v20.2L40.7 275.3v218.4l-40.4.5V512h511.3l-.3-17.3zM254.2 133.5l68.9 137.8H188.6l65.6-137.8zM328 335.1H184v-48.2h144v48.2zm23.9 15.6V367h-32.2v-16.3h32.2zm-47.9 0V367h-96v-16.3h96zM80.6 493.8H56.4V286.9h24.2v206.9zm-9.9-222.5l75.4-60.9-60.9 60.9H70.7zM168.4 494l-72.1-.1v-207h32.1v-15.7h-21l122-122-58.1 122h-27v15.7h24.1v48.2h-23.9v47.6h23.9V494zm-8.3-127v-16.3h32.2V367h-32.2zM328 494.3l-144-.3V382.7h144v111.6zm87.7.2l-72.1-.1V382.7h23.9v-47.6h-23.9v-48.2h24.1v-15.7h-27.1l-64-128.1 128.1 128.1h-21v15.7h32.1v207.6zm-49.8-284.2l75.4 60.9h-14.5l-60.9-60.9zm89.7 284.2h-24.2V286.9h24.2v207.6z" class="st1"/></svg>