<?xml version="1.0" encoding="utf-8"?>
<!-- Generator: Adobe Illustrator 19.0.0, SVG Export Plug-In . SVG Version: 6.00 Build 0)  -->
<svg version="1.1" id="Layer_1" xmlns="http://www.w3.org/2000/svg" xmlns:xlink="http://www.w3.org/1999/xlink" x="0px" y="0px"
	 viewBox="0 0 32 32" style="enable-background:new 0 0 32 32;" xml:space="preserve">
<style type="text/css">
	.st0{fill:#008080;}
</style>
<g id="XMLID_2_">
	<path id="XMLID_7_" class="st0" d="M32.3,28.1c-0.1,0-6.6-2.2-9.1-4.8c-2-2-1.3-8-1.1-9.7c0.4-0.7,0.6-1.2,0.7-1.5
		C23.6,10.3,25,4,25,3.8c0-0.2,0-0.4-0.2-0.4c-0.1-0.1-0.3,0.1-0.3,0.2c0,0-0.8,3.6-1.5,6.1h-2.5c-0.2,0-0.3,0.2-0.3,0.4
		c0,0.2,0.1,0.4,0.3,0.4h2.3c-0.2,0.6-0.3,1.1-0.5,1.4c-0.9,2.1-3.2,5.7-6.1,6c-2.9-0.3-5.2-3.9-6.1-6c-0.1-0.3-0.3-0.7-0.4-1.2h4.9
		c0.2,0,0.3-0.2,0.3-0.4c0-0.2-0.1-0.4-0.3-0.4H9.6c-0.1-0.5-0.3-1-0.4-1.5H12c0.2,0,0.3-0.2,0.3-0.4c0-0.2-0.1-0.4-0.3-0.4H9
		C8.5,5.6,8,3.6,8,3.6c0-0.2-0.2-0.3-0.3-0.2C7.5,3.4,7.5,3.6,7.5,3.8c0.1,0.3,1.4,6.6,2.2,8.4c0.1,0.2,0.3,0.7,0.7,1.4
		c0.2,1.5,1,7.8-1,9.9c-2.6,2.5-9.1,4.7-9.1,4.8c-0.1,0-0.2,0.2-0.2,0.4c0,0.2,0.1,0.3,0.3,0.3c0,0,0,0,0.1,0
		c0.3-0.1,6.7-2.3,9.3-4.9c2-2,1.7-7.1,1.4-9.4c0.3,0.4,0.6,0.9,1,1.3c1.4,1.6,2.8,2.5,4.2,2.6c0,0,0,0,0,0c0,0,0,0,0,0
		c1.5-0.1,2.9-1,4.2-2.6c0.3-0.4,0.6-0.8,0.9-1.2c-0.3,2.4-0.6,7.3,1.4,9.3c1.4,1.4,3.9,2.7,6,3.6h-4.4c-0.2,0-0.3,0.2-0.3,0.4
		s0.1,0.4,0.3,0.4h6.2c0.9,0.3,1.5,0.6,1.6,0.6c0,0,0,0,0.1,0c0.1,0,0.2-0.1,0.3-0.3C32.5,28.4,32.4,28.2,32.3,28.1z"/>
	<path id="XMLID_6_" class="st0" d="M20.1,16.8c-0.2,0-0.3,0.1-0.3,0.3c-0.1,2-0.1,4.7,0.7,6.5c0.1,0.1,0.1,0.2,0.2,0.2
		c0,0,0.1,0,0.1-0.1c0.1-0.1,0.2-0.3,0.1-0.5c-0.8-1.7-0.8-4.2-0.6-6.1C20.4,17,20.2,16.9,20.1,16.8z"/>
	<path id="XMLID_5_" class="st0" d="M11.6,23.8c0,0,0.1,0.1,0.1,0.1c0.1,0,0.2-0.1,0.2-0.2c0.8-1.8,0.8-4.5,0.7-6.5
		c0-0.2-0.1-0.3-0.3-0.3c-0.1,0-0.3,0.2-0.2,0.4c0.1,1.8,0.1,4.4-0.6,6.1C11.5,23.5,11.5,23.7,11.6,23.8z"/>
	<path id="XMLID_4_" class="st0" d="M23.5,25.9c-0.4,0.1-4.3,0.7-5.2,1.8c-0.1,0.1-0.1,0.4,0,0.5c0.1,0.1,0.1,0.1,0.2,0.1
		c0.1,0,0.1,0,0.2-0.1c0.6-0.7,3.2-1.3,4.9-1.6c0.1,0,0.3-0.2,0.2-0.4C23.8,26,23.7,25.9,23.5,25.9z"/>
	<path id="XMLID_3_" class="st0" d="M8.9,25.9c-0.1,0-0.3,0.1-0.3,0.3c0,0.2,0.1,0.4,0.2,0.4c1.2,0.2,4.3,0.8,4.9,1.6
		c0.1,0.1,0.1,0.1,0.2,0.1c0.1,0,0.1,0,0.2-0.1c0.1-0.1,0.1-0.4,0-0.5C13.3,26.7,9.4,26,8.9,25.9z"/>
</g>
</svg>
