<svg xmlns="http://www.w3.org/2000/svg" id="Layer_1" viewBox="0 0 32 32"><style>.st0{fill:#008080;} .st1{fill:none;stroke:#008080;stroke-miterlimit:10;}</style><g id="XMLID_2_"><g id="XMLID_3_"><path id="XMLID_9_" d="M11.2 25.3l-3 3.1h15.2l-3-3.1z" class="st0"/><path id="XMLID_4_" d="M.5 3.2v20.3H31V3.2H.5z" class="st1"/></g></g><path id="XMLID_5_" d="M19.2 14.5l-5.3-3.8c.2-1.2-.3-2.4-1.4-3.1-1-.7-2.2-.8-3.1-.3l2.3 1.6.3 1-1.1 1.6h-1L7.6 9.9c0 1.1.5 2.2 1.4 2.9 1 .7 2.3.8 3.3.2l5.3 3.8c-.2 1.2.3 2.4 1.4 3.1 1 .7 2.2.8 3.1.3l-2.3-1.6-.3-1 1.1-1.6h1l2.3 1.6c.1-1.1-.4-2.2-1.4-2.9-1-.7-2.3-.8-3.3-.2z" class="st0"/></svg>