<svg xmlns="http://www.w3.org/2000/svg" id="Layer_1" viewBox="0 0 32 32">
  <style>
    .st0{fill:#008080;} .st1{fill:none;stroke:#008080;stroke-width:1.5;stroke-miterlimit:10;}
  </style>
  <path id="XMLID_9_" d="M12 25.3l-2.9 3.1h14.6l-2.9-3.1H12z" class="st0"/>
  <path id="XMLID_4_" d="M1.8 3.2v20.3H31V3.2H1.8z" class="st1"/>
  <path id="XMLID_5_" d="M19.7 14.5l-5.1-3.8c.2-1.2-.3-2.4-1.3-3.1-1-.7-2.1-.8-3-.3l2.2 1.6.3 1-1.1 1.6h-1L8.6 9.9c0 1.1.5 2.2 1.3 2.9 1 .7 2.2.8 3.2.2l5.1 3.8c-.2 1.2.3 2.4 1.3 3.1 1 .7 2.1.8 3 .3l-2.2-1.6-.3-1 1-1.6h1l2.2 1.6c.1-1.1-.4-2.2-1.3-2.9s-2.3-.8-3.2-.2z" class="st0"/>
</svg>
