<?xml version="1.0" encoding="utf-8"?>
<!-- Generator: Adobe Illustrator 19.0.0, SVG Export Plug-In . SVG Version: 6.00 Build 0)  -->
<svg version="1.1" id="Layer_1" xmlns="http://www.w3.org/2000/svg" xmlns:xlink="http://www.w3.org/1999/xlink" x="0px" y="0px"
	 viewBox="0 0 32 32" style="enable-background:new 0 0 32 32;" xml:space="preserve">
<style type="text/css">
	.st0{fill:#008080;}
</style>
<g id="XMLID_38_">
	<g id="XMLID_39_">
		<path id="XMLID_40_" class="st0" d="M19.2,10c-1.6,0-2.8,1.6-3.1,3.7c-1.7,0.2-2.4,1.7-2.7,2.7c-0.2-0.3-0.4-0.8-0.6-1.4
			c-0.2-0.8-0.8-1.3-1.4-1.3c-0.4,0-0.9,0.3-1.1,0.8c-0.3,0.5-0.4,1.1-0.3,1.7c0.2,1.4,0.7,2.7,1.3,3.7c0.1,0.1,0.2,0.2,0.3,0.2
			c0.1,0,0.2,0,0.3-0.1c0.2-0.2,0.2-0.6,0-0.9c-0.6-0.9-1-2-1.1-3.2c0-0.2,0-0.5,0.1-0.7c0.1-0.2,0.3-0.3,0.4-0.3
			c0.2,0,0.4,0.2,0.5,0.5c0.3,1,0.8,2.2,1.6,2.6c0.1,0.1,0.3,0,0.4-0.1c0.1-0.1,0.2-0.3,0.2-0.5c0,0,0-0.7,0.3-1.3
			c0.3-0.7,0.9-1.1,1.6-1.2c0.1,1.2,0.6,2.2,1.3,2.9c0.2,0.2,0.5,0.1,0.6-0.2c0.1-0.3,0.1-0.7-0.1-0.9c-0.6-0.6-1-1.5-1-2.5
			c0-1.7,1-3,2.2-3c1.2,0,2.2,1.4,2.2,3c0,4-2.4,7.3-5.3,7.3c-1.1,0-2.1-0.4-2.9-1.2c-0.2-0.2-0.5-0.1-0.6,0.2
			c-0.1,0.3-0.1,0.7,0.1,0.9c1,0.9,2.2,1.5,3.4,1.5c3.4,0,6.1-3.8,6.1-8.5C22.3,11.9,20.9,10,19.2,10z"/>
	</g>
</g>
<g id="XMLID_35_">
	<g id="XMLID_36_">
		<path id="XMLID_37_" class="st0" d="M26.9,21.1l-4.4-11.1c-0.1-0.3-0.4-0.4-0.6-0.2c-0.2,0.2-0.3,0.5-0.2,0.8l4.2,10.5
			c-2.9,2.1-6.1,3.2-9.4,3.2s-6.5-1.1-9.4-3.2l5.4-13.6c1.3,0.8,2.6,1.3,4,1.3s2.8-0.4,4-1.3l0.6,1.4c0.1,0.3,0.4,0.4,0.6,0.2
			c0.2-0.2,0.3-0.5,0.2-0.8l-0.8-2c-0.1-0.3-0.4-0.4-0.6-0.2c-2.5,1.9-5.5,1.9-8,0c-0.2-0.2-0.5-0.1-0.6,0.2L6.1,21.1
			C6,21.4,6,21.8,6.3,22c3.1,2.4,6.7,3.6,10.2,3.6c3.6,0,7.1-1.3,10.2-3.6C26.9,21.8,27,21.4,26.9,21.1z"/>
	</g>
</g>
<g id="XMLID_32_">
	<g id="XMLID_33_">
		<path id="XMLID_34_" class="st0" d="M28.8,1.2H6.1c-0.2,0-0.4,0.3-0.4,0.6s0.2,0.6,0.4,0.6h22.3v26.9H3.5V2.5h1.1
			C4.8,2.5,5,2.2,5,1.9S4.8,1.2,4.6,1.2H3c-0.2,0-0.4,0.3-0.4,0.6v28.1c0,0.3,0.2,0.6,0.4,0.6h25.7c0.2,0,0.4-0.3,0.4-0.6V1.9
			C29.2,1.5,29,1.2,28.8,1.2z"/>
	</g>
</g>
<g id="XMLID_29_">
	<g id="XMLID_30_">
		<path id="XMLID_31_" class="st0" d="M27.1,3.7h-0.5c-0.2,0-0.4,0.3-0.4,0.6s0.2,0.6,0.4,0.6h0.5c0.2,0,0.4-0.3,0.4-0.6
			S27.3,3.7,27.1,3.7z"/>
	</g>
</g>
<g id="XMLID_26_">
	<g id="XMLID_27_">
		<path id="XMLID_28_" class="st0" d="M25.1,3.7h-1.5c-0.2,0-0.4,0.3-0.4,0.6s0.2,0.6,0.4,0.6h1.5c0.2,0,0.4-0.3,0.4-0.6
			S25.3,3.7,25.1,3.7z"/>
	</g>
</g>
<g id="XMLID_23_">
	<g id="XMLID_24_">
		<path id="XMLID_25_" class="st0" d="M27.1,5.9h-3.5c-0.2,0-0.4,0.3-0.4,0.6c0,0.3,0.2,0.6,0.4,0.6h3.5c0.2,0,0.4-0.3,0.4-0.6
			C27.5,6.1,27.3,5.9,27.1,5.9z"/>
	</g>
</g>
<g id="XMLID_20_">
	<g id="XMLID_21_">
		<path id="XMLID_22_" class="st0" d="M27.1,8h-1.7C25.2,8,25,8.3,25,8.6s0.2,0.6,0.4,0.6h1.7c0.2,0,0.4-0.3,0.4-0.6
			C27.5,8.3,27.3,8,27.1,8z"/>
	</g>
</g>
<g id="XMLID_17_">
	<g id="XMLID_18_">
		<path id="XMLID_19_" class="st0" d="M24,8h-0.4c-0.2,0-0.4,0.3-0.4,0.6s0.2,0.6,0.4,0.6H24c0.2,0,0.4-0.3,0.4-0.6S24.2,8,24,8z"/>
	</g>
</g>
<g id="XMLID_14_">
	<g id="XMLID_15_">
		<path id="XMLID_16_" class="st0" d="M5.8,14.1c0.2,0,0.4-0.3,0.4-0.6S6,12.9,5.8,12.9H5V9.1h0.7v0c0.2,0,0.4-0.3,0.4-0.6
			S6,7.9,5.8,7.9H5V5.3C5,5,4.8,4.7,4.6,4.7C4.3,4.7,4.1,5,4.1,5.3v21.2c0,0.3,0.2,0.6,0.4,0.6c0.2,0,0.4-0.3,0.4-0.6v-2.4h0.7
			c0.2,0,0.4-0.3,0.4-0.6S6,22.9,5.8,22.9H5v-3.8h0.7c0.2,0,0.4-0.3,0.4-0.6S6,17.9,5.8,17.9H5v-3.8L5.8,14.1L5.8,14.1z"/>
	</g>
</g>
<g id="XMLID_11_">
	<g id="XMLID_12_">
		<path id="XMLID_13_" class="st0" d="M23.8,18.4h-0.9c-0.2,0-0.4,0.3-0.4,0.6s0.2,0.6,0.4,0.6h0.9c0.2,0,0.4-0.3,0.4-0.6
			C24.3,18.7,24.1,18.4,23.8,18.4z"/>
	</g>
</g>
<g id="XMLID_8_">
	<g id="XMLID_9_">
		<path id="XMLID_10_" class="st0" d="M13.5,9.5h-0.9c-0.2,0-0.4,0.3-0.4,0.6s0.2,0.6,0.4,0.6h0.9c0.2,0,0.4-0.3,0.4-0.6
			C14,9.7,13.8,9.5,13.5,9.5z"/>
	</g>
</g>
<g id="XMLID_5_">
	<g id="XMLID_6_">
		<path id="XMLID_7_" class="st0" d="M22.9,20.3h-0.9c-0.2,0-0.4,0.3-0.4,0.6c0,0.3,0.2,0.6,0.4,0.6h0.9c0.2,0,0.4-0.3,0.4-0.6
			C23.3,20.6,23.1,20.3,22.9,20.3z"/>
	</g>
</g>
<g id="XMLID_2_">
	<g id="XMLID_3_">
		<ellipse id="XMLID_4_" class="st0" cx="18.3" cy="14.3" rx="0.4" ry="0.6"/>
	</g>
</g>
</svg>
