<?xml version="1.0" encoding="utf-8"?>
<!-- Generator: Adobe Illustrator 19.0.0, SVG Export Plug-In . SVG Version: 6.00 Build 0)  -->
<svg version="1.1" id="Layer_1" xmlns="http://www.w3.org/2000/svg" xmlns:xlink="http://www.w3.org/1999/xlink" x="0px" y="0px"
	 viewBox="0 0 32 32" style="enable-background:new 0 0 32 32;" xml:space="preserve">
<style type="text/css">
	.st0{fill:#008080;}
</style>
<g id="XMLID_32_">
	<g id="XMLID_33_">
		<path id="XMLID_34_" class="st0" d="M21.2,0.8c-0.8,0-1.6,0.4-2.1,1c-0.5,0.6-0.8,1.5-0.8,2.3c0.1,1,0.4,1.9,0.9,2.7
			c-0.5,0.9-0.8,1.8-0.9,2.8c-0.4,0.3-0.8,0.7-1,1.1c-0.9,1.6-1,3.9-1,4.5c0,1.6,0.6,3,1.1,4.2c0.5,1.1,1.2,2,2.2,3
			c0.1,0.1,0.3,0.3,0.4,0.4c0.5,0.4,0.9,0.8,1.1,1.4c0.1,0.2,0.1,0.4,0,0.6c-0.4-0.6-1.1-1.1-1.9-1.1h-7c-0.7,0-1.4,0.4-1.8,1
			c0-0.2,0-0.3,0.1-0.5c0.2-0.5,0.6-0.9,1.1-1.4c0.1-0.1,0.3-0.3,0.4-0.4c1-1,1.7-2,2.2-3c0.5-1.1,1.1-2.5,1.1-4.2
			c0-0.7,0-2.9-1-4.5c-0.3-0.5-0.7-0.9-1.1-1.2c-0.1-1-0.4-1.9-0.9-2.7c0.5-0.7,0.9-1.7,0.9-2.7c0-0.9-0.2-1.7-0.8-2.3
			c-0.6-0.6-1.3-1-2.2-1c-4.5,0-8.2,4.1-8.2,9.1V11c0,5,3.7,9.1,8.2,9.1c0.8,0,1.6-0.4,2.1-1c0.5-0.6,0.8-1.5,0.8-2.3
			c-0.1-1-0.4-1.9-0.9-2.7c0.5-0.9,0.8-2,0.9-3.1c0.1,0.1,0.2,0.2,0.3,0.3c0.6,1.1,0.8,2.7,0.8,3.9c0,1.4-0.5,2.6-1,3.7
			c-0.4,0.9-1.1,1.8-2,2.7c-0.1,0.1-0.3,0.3-0.4,0.4c-0.5,0.5-1.1,1-1.4,1.8c-0.3,0.7-0.2,1.5,0.4,2.2c0,0.1,0,0.2,0,0.3
			c0,0.9,0.5,1.8,1.2,2.2l4.4,2.6c0.1,0,0.2,0.1,0.2,0.1c0.1,0,0.2,0,0.2-0.1l4.4-2.6c0.7-0.4,1.2-1.3,1.2-2.2c0-0.1,0-0.1,0-0.2
			c0.6-0.7,0.7-1.6,0.4-2.3c-0.3-0.8-0.9-1.3-1.4-1.8c-0.1-0.1-0.3-0.3-0.4-0.4c-0.9-0.9-1.5-1.8-2-2.7c-0.5-1.1-1-2.3-1-3.7
			c0-1.2,0.2-2.8,0.8-3.9c0.1-0.1,0.1-0.2,0.2-0.3c0.1,1.1,0.4,2.1,0.9,3c-0.5,0.7-0.9,1.7-0.9,2.7c0,0.9,0.2,1.7,0.8,2.3
			c0.6,0.6,1.3,1,2.2,1c4.5,0,8.2-4.1,8.2-9.1V9.9C29.4,4.9,25.8,0.8,21.2,0.8z M12.5,10.4c0,1.7-0.6,3.2-1.8,4.4l0.7,0.8
			c0.2-0.2,0.4-0.4,0.6-0.7c0.3,0.5,0.5,1.1,0.6,1.8c0,0.6-0.1,1.1-0.5,1.5c-0.4,0.4-0.9,0.7-1.5,0.7c-4,0-7.2-3.6-7.2-8V9.9
			c0-4.4,3.2-8,7.3-8c0.5,0,1.1,0.2,1.4,0.7c0.4,0.4,0.5,1,0.5,1.5c0,0.7-0.2,1.3-0.6,1.8c-0.2-0.2-0.4-0.5-0.6-0.7L10.8,6
			C11.9,7.2,12.5,8.8,12.5,10.4z M20.1,27.6l-4.1,2.5l-4.1-2.5c-0.4-0.3-0.7-0.8-0.7-1.3c0-0.8,0.6-1.5,1.3-1.5h7
			c0.7,0,1.3,0.7,1.3,1.5C20.7,26.8,20.5,27.3,20.1,27.6z M28.5,11c0,4.4-3.2,8-7.3,8c-0.5,0-1.1-0.2-1.4-0.7
			c-0.4-0.4-0.5-1-0.5-1.5c0-0.7,0.2-1.3,0.6-1.8c0.2,0.2,0.4,0.5,0.6,0.7l0.7-0.8c-1.1-1.2-1.8-2.7-1.8-4.4s0.6-3.2,1.8-4.4
			l-0.7-0.8c-0.2,0.2-0.4,0.4-0.6,0.7c-0.3-0.5-0.5-1.1-0.6-1.8c0-0.6,0.1-1.1,0.5-1.5c0.4-0.4,0.9-0.7,1.5-0.7c4,0,7.2,3.6,7.2,8
			V11z"/>
	</g>
</g>
<g id="XMLID_29_">
	<g id="XMLID_30_">
		<rect id="XMLID_31_" x="8.7" y="4.6" class="st0" width="1" height="1.1"/>
	</g>
</g>
<g id="XMLID_26_">
	<g id="XMLID_27_">
		<rect id="XMLID_28_" x="5.3" y="7.2" class="st0" width="1" height="1.1"/>
	</g>
</g>
<g id="XMLID_23_">
	<g id="XMLID_24_">
		<rect id="XMLID_25_" x="5.3" y="12.6" class="st0" width="1" height="1.1"/>
	</g>
</g>
<g id="XMLID_20_">
	<g id="XMLID_21_">
		<rect id="XMLID_22_" x="7.7" y="9.9" class="st0" width="1" height="1.1"/>
	</g>
</g>
<g id="XMLID_17_">
	<g id="XMLID_18_">
		<rect id="XMLID_19_" x="8.7" y="15.2" class="st0" width="1" height="1.1"/>
	</g>
</g>
<g id="XMLID_14_">
	<g id="XMLID_15_">
		<rect id="XMLID_16_" x="22.2" y="15.2" class="st0" width="1" height="1.1"/>
	</g>
</g>
<g id="XMLID_11_">
	<g id="XMLID_12_">
		<rect id="XMLID_13_" x="25.6" y="12.6" class="st0" width="1" height="1.1"/>
	</g>
</g>
<g id="XMLID_8_">
	<g id="XMLID_9_">
		<rect id="XMLID_10_" x="25.6" y="7.2" class="st0" width="1" height="1.1"/>
	</g>
</g>
<g id="XMLID_5_">
	<g id="XMLID_6_">
		<rect id="XMLID_7_" x="23.2" y="9.9" class="st0" width="1" height="1.1"/>
	</g>
</g>
<g id="XMLID_2_">
	<g id="XMLID_3_">
		<rect id="XMLID_4_" x="22.2" y="4.6" class="st0" width="1" height="1.1"/>
	</g>
</g>
</svg>
