<svg xmlns="http://www.w3.org/2000/svg" id="Layer_1" viewBox="0 0 32 32">
  <style>
    .st0{fill:#008080;}
  </style>
  <g id="XMLID_2_">
    <g id="XMLID_3_">
      <path id="XMLID_4_" d="M31.7 10.9c-.1-.8-.7-1.3-1.3-1.2l-2.6.3L30 7.4c.5-.5.5-1.4 0-2s-1.3-.5-1.6 0L26.1 8l.3-3.1c.1-.8-.4-1.4-1.1-1.5S24 3.8 24 4.6L23.7 9c-.8-.4-1.5-.7-2.4-.7h-.5c-1.4-2.7-4.1-4.1-7.5-4.3l.6-1.7c.2-.8-.1-1.5-.7-1.7-.6-.3-1.3 0-1.5.8l-1 2.8h-.8C4 4.1.7 8 .7 15c0 3.3 1.1 6.4 3 8.8 1.5 1.9 3.4 3.1 5.5 3.6l-.9 1.9c-.3.5-.2 1.2.2 1.6.2.2.5.4.9.4.2 0 .4-.1.6-.2l15.1-10.6c1.4-1 2.3-2.5 2.4-4.1.1-1.2-.1-2.4-.7-3.5l3.8-.5c.7-.1 1.2-.7 1.1-1.5zM3.1 14.8C3.1 10.3 4.8 7.6 8 7l-.5.4c-.4.5-.5 1.3-.1 2 .2.3.6.5 1 .5.3 0 .5-.1.7-.3l1.3-1.2v1.5c0 .8.5 1.4 1.2 1.4s1.2-.7 1.2-1.4V8.4l1.3 1.2c.2.2.5.3.7.3.4 0 .7-.2 1-.5.4-.7.3-1.5-.2-2l-.7-.4c1.5.3 2.8 1.1 3.6 2.3-.5.4-1 1.1-1.4 1.9l-6.7 13.5c-4.1-.6-7.3-4.7-7.3-9.9zM25.2 16c-.1.5-.3 1.1-.7 1.5l-2.5-3c-.5-.5-1.3-.5-1.6 0-.5.5-.5 1.4 0 2l2.2 2.6-9.8 6.8 3.3-6.7.4.5c.2.2.6.4.9.4.3 0 .6-.1.9-.4.5-.5.5-1.4 0-2l-.9-1 2-4.1c.5-1 1.3-1.5 2-1.5s1.3.3 1.8 1l1.4 1.5c.4.7.7 1.6.6 2.4z" class="st0"/>
    </g>
  </g>
</svg>
