<svg xmlns="http://www.w3.org/2000/svg" id="Layer_1" viewBox="0 0 32 32"><style>.st0{fill:#008080;}</style><g id="XMLID_2_"><g id="XMLID_3_"><path id="XMLID_4_" d="M32.8 11.2c-.1-.7-.7-1.2-1.3-1.1l-2.7.3L31.1 8c.5-.5.5-1.3 0-1.8s-1.3-.5-1.7 0L27 8.5l.3-2.8c.1-.7-.4-1.3-1.1-1.4-.7-.1-1.3.4-1.3 1.1l-.4 4c-.8-.4-1.6-.6-2.5-.6h-.5C20 6.3 17.3 5 13.7 4.9l.6-1.6c.2-.7-.1-1.4-.7-1.6-.6-.3-1.3 0-1.6.7L11 5h-.8C4.1 5 .7 8.5.7 14.9c0 3 1.1 5.9 3.1 8.1 1.6 1.7 3.5 2.8 5.7 3.3L8.6 28c-.3.5-.2 1.1.2 1.5.2.2.5.4.9.4.2 0 .4-.1.6-.2L26 20c1.4-.9 2.4-2.3 2.5-3.8.1-1.1-.1-2.2-.7-3.2l3.9-.5c.7 0 1.2-.6 1.1-1.3zM3.2 14.8c0-4.2 1.7-6.6 5.1-7.2l-.5.4c-.5.4-.6 1.2-.2 1.8.2.3.6.5 1 .5.3 0 .5-.1.7-.3l1.3-1.1v1.4c0 .7.5 1.3 1.2 1.3S13 11 13 10.3V8.9l1.3 1.1c.2.2.5.3.7.3.4 0 .7-.2 1-.5.4-.6.3-1.4-.2-1.8l-.4-.4c1.6.3 2.9 1 3.7 2.1-.5.4-1 1-1.4 1.7l-6.9 12.4c-4.3-.5-7.6-4.3-7.6-9zm22.9 1.1c-.1.5-.3 1-.7 1.4l-2.6-2.8c-.5-.5-1.3-.5-1.7 0-.5.5-.5 1.3 0 1.8l2.3 2.4-10.2 6.2 3.4-6.1.4.5c.2.2.6.4.9.4.3 0 .6-.1.9-.4.5-.5.5-1.3 0-1.8l-.9-.9 2.1-3.8c.5-.9 1.3-1.4 2.1-1.4.7 0 1.3.3 1.9.9l1.4 1.4c.5.6.8 1.4.7 2.2z" class="st0"/></g></g></svg>