<svg xmlns="http://www.w3.org/2000/svg" id="Capa_1" viewBox="-3 4 25 25"><style>.st0{fill:#008080;stroke:#008080;stroke-width:0.7;stroke-miterlimit:10;} .st1{fill:none;stroke:#008080;stroke-width:0.7;stroke-miterlimit:10;}</style><ellipse cx="13" cy="17.2" class="st0" rx=".5" ry=".5"/><path d="M20.1 11.5h-4.5v2.4c0 .2-.1.4-.3.6l-2 1.3c-.2.1-.4.1-.6 0l-2-1.3c-.2-.1-.3-.4-.3-.6v-3.1c0-.2.1-.2.3-.1l.7.7c.1.1.4.2.6.2h2c.2 0 .4-.1.5-.2-.3-.1-.5-.4-.5-.8v-5c0-.5-.4-.8-.9-.8H5.7c-.5 0-.9.4-.9.8V10.8l1.6-.3c.2 0 .3.1.3.3v.1c0 .2-.2.4-.4.5l-1.3.7c-.2.1-.2.3-.1.4l.1.2c.1.2.4.2.6.2l1.1-.3c.2-.1.5-.1.7-.1l2.6.2V14c0 .2.1.4.3.6l2.3 1.6c.2.1.4.1.6 0l.4-.2v.3l-1 4.9c0 .2-.2.3-.4.3h-.1c-.2 0-.4-.2-.4-.4l-.4-2.6c0-.2-.2-.4-.4-.4h-.4c-.2 0-.4.2-.4.4l-.3 2.6c0 .2-.2.4-.4.4s-.4-.2-.4-.4l-.3-3.6c0-.2-.2-.4-.4-.4h-.7c-.2 0-.4.2-.4.4l-.5 3.6c0 .2-.2.4-.4.4H6c-.2 0-.4-.2-.4-.4l-.8-5.7c0-.2-.1-.5-.3-.6l-1.1-1.4c-.1-.2-.2-.4-.1-.6l.3-1.3h-4.8c-.5 0-.9.4-.9.8v7.3c0 .5.4.8.9.8H4c.5 0 .9.4.9.8v5.1c0 .5.4.8.9.8h7.5c.5 0 .9-.4.9-.8v-5.1c0-.5.4-.8.9-.8h5.2c.5 0 .9-.4.9-.8v-7.3c-.2-.4-.6-.8-1.1-.8z" class="st1"/></svg>