<svg xmlns="http://www.w3.org/2000/svg" id="Layer_1" viewBox="0 0 32 32"><style>.st0{fill:#008080;}</style><path d="M29.6 8v13.3l-7.4-4V12l7.4-4zm-7.4-3.3c0 2.6-1.9 4.7-4.3 4.7s-4.3-2.1-4.3-4.7S15.5 0 17.9 0s4.3 2.1 4.3 4.7zM6.7 0C4.3 0 2.4 2.1 2.4 4.7s1.9 4.7 4.3 4.7S11 7.2 11 4.7 9.1 0 6.7 0zm11.2 12c-2.3 0-4.3-1.2-5.6-3.1C11.1 10.8 9 12 6.7 12c-.6 0-1.3-.1-1.9-.3V18c0 1.1.8 2 1.9 2h11.1c1 0 1.9-.9 1.9-2v-6.3c-.6.2-1.2.3-1.8.3zM14 22.7h-3.4l-6.9 7.4L5.4 32l5.6-6.1V32h2.5v-6.1l5.6 6.1 1.7-1.9c.1 0-6.8-7.4-6.8-7.4z" class="st0"/></svg>