<svg xmlns="http://www.w3.org/2000/svg" id="Layer_1" viewBox="0 0 32 32"><style>.st0{fill:#008080;} .st1{fill:none;stroke:#008080;stroke-width:0.6;stroke-miterlimit:10;}</style><g id="XMLID_2_"><path id="XMLID_13_" d="M8.6 8.9c.2.1.5.1.5.1.3 0 .7-.2.9-.6-.8-.1-1.5-.3-2.2-.5.2.4.5.8.8 1z" class="st0"/><path id="XMLID_12_" d="M18.6 8.9c-1.8.2-3.5.2-5.1 0l.3.9c.7 0 1.5.1 2.2.1s1.6 0 2.3-.1l.3-.9z" class="st0"/><path id="XMLID_11_" d="M4.3 6.5C1.7 5.3.2 4.2.2 4.2l-.2.7c.1 0 1.5 1.1 4 2.3l.3-.7z" class="st0"/><path id="XMLID_10_" d="M27.7 6.4l.4.7c1.3-.6 2.5-1.3 3.9-2.1l-.2-.8c-1.4.9-2.7 1.6-4.1 2.2z" class="st0"/><path id="XMLID_9_" d="M23.9 8.7c.3-.2.5-.6.6-1-.8.3-1.5.5-2.2.6.2.3.5.6.8.6.3.1.6 0 .8-.2z" class="st0"/><path id="XMLID_8_" d="M12.8 8.4h-.3v.5c0 .3-.1.6-.3.8-.1.2-.3.3-.5.3h-.1c-.2 0-.4-.2-.5-.4-.1-.4-.1-.7-.1-1V8h-.3c0 .2-.1.4-.2.6-.1.3-.3.6-.4.7-.2.4-.6.6-1 .6h-.3c-.5-.1-1-.6-1.3-1.3-.1-.3-.2-.6-.2-.9v-.5l-.4-.1v.1c0 .1 0 .2-.1.3-.1.4-.2.6-.4.7H6c-.1 0-.6-.3-.6-1.2v-.2l-.6-.1-2.2 4.4 1.7 2.5-1 12.9 7.9 1.7 1-12.9 2-1.7-1.4-5.2z" class="st1"/><path id="XMLID_7_" d="M27.2 6.6l-.5.1v.2c0 .3 0 1.1-.6 1.3h-.2c-.1 0-.2 0-.3-.1-.2-.1-.3-.4-.4-.7l-.1-.3H25v.4c0 .3-.1.6-.2 1-.3.7-.8 1.2-1.3 1.3h-.3c-.4 0-.8-.2-1.1-.6-.2-.2-.3-.5-.4-.7-.1-.2-.1-.3-.1-.5l-.5.1s.1.5.1.6c0 .3-.1.6-.2.9-.1.3-.3.4-.5.5h-.1c-.2 0-.4-.1-.5-.3-.1-.2-.2-.4-.3-.7v-.4l-.4.1-1.5 5.2 2.1 1.6 1.1 12.9 7.9-1.9-1.1-13.1 1.7-2.5-2.2-4.4z" class="st1"/><path id="XMLID_6_" d="M11.9 5.8c-.2 0-.3.2-.3.4l-.1 1.1v1.4c0 .1 0 .2.1.3l.2.2c.1 0 .2-.1.2-.3V7.6l.1-1.1c0-.1 0-.2-.1-.3 0-.4 0-.4-.1-.4z" class="st0"/><path id="XMLID_5_" d="M20.2 5.8c-.2 0-.2.3-.2.5v1.9l.1.6c0 .1.1.2.1.2.1.1.1.1.2.1s.2-.2.2-.4l-.1-.5v-.8l-.1-1.1c0-.1-.1-.2-.1-.3 0-.2-.1-.3-.1-.2z" class="st0"/><path id="XMLID_4_" d="M6.5 4.2c-.2 0-.3.1-.3.3l-.1 1-.1.4v.4l-.1.6v.3c.1.1.1.2.2.2s.2-.1.3-.3l.1-.5.1-.4.1-.4.2-1.1v-.3c-.3-.2-.3-.2-.4-.2z" class="st0"/><path id="XMLID_3_" d="M26.1 6.1l-.2-1.6c0-.2-.1-.3-.2-.3h-.1c-.1 0-.1.1-.2.2 0 .1-.1.2 0 .3l.2 1.5.1.4.1.4v.1s0 .1.1.2.2.2.2.1c.1 0 .1-.1.2-.2v-.3l-.1-.4-.1-.4z" class="st0"/></g></svg>