<?xml version="1.0" encoding="utf-8"?>
<!-- Generator: Adobe Illustrator 19.0.0, SVG Export Plug-In . SVG Version: 6.00 Build 0)  -->
<svg version="1.1" id="Layer_1" xmlns="http://www.w3.org/2000/svg" xmlns:xlink="http://www.w3.org/1999/xlink" x="0px" y="0px"
	 viewBox="0 0 32 32" style="enable-background:new 0 0 32 32;" xml:space="preserve">
<style type="text/css">
	.st0{fill:#008080;}
</style>
<g id="XMLID_2_">
	<path id="XMLID_25_" class="st0" d="M28.7,1.5H3.4C3.1,1.5,2.8,1.8,2.8,2v28.5c0,0.3,0.3,0.5,0.6,0.5h25.3c0.3,0,0.6-0.2,0.6-0.5V2
		C29.3,1.8,29,1.5,28.7,1.5z M28.1,7H4V6.4h8c0.8,0,1.5-0.6,1.5-1.3V2.5h14.7L28.1,7L28.1,7z M4,2.5h8.7v2.6c0,0.3-0.3,0.6-0.7,0.6
		H4V2.5z M4,30V7.7h24.1V30L4,30L4,30z"/>
	<path id="XMLID_22_" class="st0" d="M26.5,25.5h-4.7c-0.6,0-1,0.4-1,0.8v2.3c0,0.5,0.4,0.8,1,0.8h4.7c0.6,0,1-0.4,1-0.8v-2.3
		C27.5,25.9,27.1,25.5,26.5,25.5z M26.8,28.7c0,0.1-0.1,0.2-0.2,0.2h-4.7c-0.1,0-0.2-0.1-0.2-0.2v-2.3c0-0.1,0.1-0.2,0.2-0.2h4.7
		c0.1,0,0.2,0.1,0.2,0.2V28.7z"/>
	<path id="XMLID_19_" class="st0" d="M25.3,17.1c0-4.3-4.2-7.9-9.3-7.9s-9.3,3.5-9.3,7.9S10.9,25,16,25S25.3,21.5,25.3,17.1
		L25.3,17.1z M16,24.3c-4.7,0-8.5-3.2-8.5-7.2S11.3,10,16,10s8.5,3.2,8.5,7.2S20.7,24.3,16,24.3L16,24.3z"/>
	<path id="XMLID_15_" class="st0" d="M21.1,14c-1.2-1.4-3.1-2.2-5-2.2c-3.4,0-6.2,2.4-6.2,5.3s2.8,5.3,6.2,5.3c2,0,3.9-0.8,5-2.2
		c0.1-0.1,0.1-0.3,0-0.4c-0.7-0.8-1.2-1.7-1.2-2.7s0.4-1.9,1.2-2.7C21.2,14.3,21.2,14.2,21.1,14L21.1,14z M19.5,18.8
		c-0.7,1-2,1.7-3.4,1.7c-2.2,0-4-1.5-4-3.3s1.8-3.3,4-3.3c1.4,0,2.7,0.6,3.4,1.7c-0.2,0.5-0.3,1.1-0.3,1.7
		C19.1,17.7,19.2,18.3,19.5,18.8z M19.9,14.8c-0.9-1-2.3-1.6-3.8-1.6c-2.6,0-4.7,1.8-4.7,4s2.1,4,4.7,4c1.5,0,2.9-0.6,3.8-1.6
		c0.1,0.2,0.3,0.4,0.4,0.5c-1,1.1-2.6,1.7-4.2,1.7c-3,0-5.5-2.1-5.5-4.6s2.5-4.6,5.5-4.6c1.6,0,3.2,0.6,4.2,1.7
		C20.1,14.4,20,14.6,19.9,14.8L19.9,14.8z"/>
	<path id="XMLID_12_" class="st0" d="M24.5,6.5c1.1,0,2-0.7,2-1.7s-0.9-1.7-2-1.7s-2,0.7-2,1.7S23.5,6.5,24.5,6.5z M24.5,3.8
		c0.7,0,1.2,0.4,1.2,1s-0.5,1-1.2,1s-1.2-0.4-1.2-1S23.9,3.8,24.5,3.8z"/>
	<path id="XMLID_9_" class="st0" d="M10,3.4H6.4C6.2,3.4,6,3.5,6,3.7v0.2c0,0.7,0.7,1.2,1.5,1.2h1.4c0.8,0,1.5-0.6,1.5-1.2V3.7
		C10.4,3.5,10.2,3.4,10,3.4L10,3.4z M8.9,4.5H7.5C7.1,4.5,6.9,4.3,6.8,4h2.8C9.6,4.3,9.3,4.5,8.9,4.5z"/>
	<path id="XMLID_8_" class="st0" d="M14.7,4.1h2.4c0.2,0,0.4-0.1,0.4-0.3s-0.2-0.3-0.4-0.3h-2.4c-0.2,0-0.4,0.1-0.4,0.3
		C14.3,4,14.5,4.1,14.7,4.1z"/>
	<path id="XMLID_7_" class="st0" d="M18.9,4.1h2.4c0.2,0,0.4-0.1,0.4-0.3s-0.2-0.3-0.4-0.3h-2.4c-0.2,0-0.4,0.1-0.4,0.3
		C18.5,4,18.7,4.1,18.9,4.1z"/>
	<path id="XMLID_6_" class="st0" d="M14.7,5.2h2.4c0.2,0,0.4-0.1,0.4-0.3c0-0.2-0.2-0.3-0.4-0.3h-2.4c-0.2,0-0.4,0.1-0.4,0.3
		C14.3,5,14.5,5.2,14.7,5.2z"/>
	<path id="XMLID_5_" class="st0" d="M18.9,5.2h2.4c0.2,0,0.4-0.1,0.4-0.3c0-0.2-0.2-0.3-0.4-0.3h-2.4c-0.2,0-0.4,0.1-0.4,0.3
		C18.5,5,18.7,5.2,18.9,5.2z"/>
	<path id="XMLID_4_" class="st0" d="M17.1,5.5h-2.4c-0.2,0-0.4,0.1-0.4,0.3s0.2,0.3,0.4,0.3h2.4c0.2,0,0.4-0.1,0.4-0.3
		S17.3,5.5,17.1,5.5z"/>
	<path id="XMLID_3_" class="st0" d="M18.9,6.2h2.4c0.2,0,0.4-0.1,0.4-0.3s-0.2-0.3-0.4-0.3h-2.4c-0.2,0-0.4,0.1-0.4,0.3
		S18.7,6.2,18.9,6.2z"/>
</g>
</svg>
