<svg xmlns="http://www.w3.org/2000/svg" id="Layer_1" viewBox="0 0 32 32">
  <style>
    .st0{fill:#008080;}
  </style>
  <g id="XMLID_2_">
    <path id="XMLID_10_" d="M26.4 11.8c-1-2.1-2.4-4.1-4.2-6.1-3-3.3-5.9-5.2-6.1-5.3-.2-.1-.4-.1-.6 0-.1.1-3.1 2-6.1 5.3-1.8 2-3.2 4-4.2 6.1-1.3 2.6-1.9 5.3-1.9 7.9 0 6.5 5.6 11.8 12.5 11.8s12.5-5.3 12.5-11.8c0-2.6-.7-5.3-1.9-7.9zM15.8 30.6c-6.3 0-11.4-4.9-11.4-10.8 0-2.5.6-5 1.8-7.5 1-2 2.3-3.9 4-5.8 2.4-2.6 4.8-4.4 5.6-4.9.8.6 3.2 2.3 5.6 4.9 1.7 1.9 3.1 3.8 4 5.8 1.2 2.5 1.8 5 1.8 7.5 0 5.9-5.1 10.8-11.4 10.8z" class="st0"/>
    <path id="XMLID_9_" d="M25.3 21.4c-.3-.1-.6.1-.6.4-.6 2.4-2.3 4.4-4.6 5.6-.3.1-.4.4-.2.7.1.2.3.3.5.3.1 0 .2 0 .3-.1 2.6-1.3 4.4-3.6 5.1-6.3 0-.2-.2-.5-.5-.6z" class="st0"/>
    <path id="XMLID_8_" d="M26 18.6c0-.3-.3-.5-.6-.5s-.5.3-.5.5v1c0 .3.2.5.5.5s.5-.2.5-.5c.1-.2.1-.6.1-1z" class="st0"/>
    <path id="XMLID_7_" d="M13.5 14.9c-.3 0-.5.2-.5.5v2.7H9.5v-2.7c0-.3-.2-.5-.5-.5s-.5.2-.5.5v6.5c0 .3.2.5.5.5s.5-.2.5-.5v-2.7H13v2.7c0 .3.2.5.5.5s.5-.2.5-.5v-6.5c.1-.2-.2-.5-.5-.5z" class="st0"/>
    <path id="XMLID_4_" d="M23.2 19.8v-2.2c0-1.5-1.3-2.7-2.8-2.7-1.5 0-2.8 1.2-2.8 2.7v2.2c0 1.5 1.3 2.7 2.8 2.7 1.5-.1 2.8-1.3 2.8-2.7zm-4.6 0v-2.2c0-.9.8-1.7 1.7-1.7 1 0 1.7.7 1.7 1.7v2.2c0 .9-.8 1.7-1.7 1.7-.9-.1-1.7-.8-1.7-1.7z" class="st0"/>
    <path id="XMLID_3_" d="M16.1 24h.3c.8 0 1.4-.6 1.4-1.3s-.6-1.3-1.4-1.3h-.6c-.6 0-1.1.5-1.1 1 0 .3.2.5.5.5s.5-.2.5-.5h.6c.2 0 .3.1.3.3 0 .2-.1.3-.3.3H16c-.8 0-1.4.6-1.4 1.3v.8c0 .3.2.5.5.5h2c.3 0 .5-.2.5-.5s-.2-.5-.5-.5h-1.5v-.3c.2-.1.3-.3.5-.3z" class="st0"/>
  </g>
</svg>
