<svg xmlns="http://www.w3.org/2000/svg" id="Layer_1" viewBox="0 0 32 32"><style>.st0{fill:#008080;}</style><g id="XMLID_29_"><g id="XMLID_30_"><path id="XMLID_31_" d="M10.8 13l-.9 2.9-.4-1.5-1.1.1-.5 1.4-.8-2.9-1.1.4 1.4 4.8h1.1l.4-1.6.5 1.6h1.1l1.4-4.8z" class="st0"/></g></g><g id="XMLID_26_"><g id="XMLID_27_"><path id="XMLID_28_" d="M17.8 13l-.8 2.9-.5-1.5h-1.1l-.4 1.5-.9-2.9-1.1.4 1.4 4.8h1.1l.5-1.6.4 1.6h1.1l1.4-4.8z" class="st0"/></g></g><g id="XMLID_23_"><g id="XMLID_24_"><path id="XMLID_25_" d="M24.8 13l-.8 2.9-.5-1.4-1.1-.1-.4 1.5-.8-2.9-1.1.4 1.3 4.8h1.1l.5-1.6.4 1.6h1.2l1.3-4.8z" class="st0"/></g></g><g id="XMLID_2_"><g id="XMLID_3_"><path id="XMLID_4_" d="M29.2 11.4c-.6-2.2-1.8-4.2-3.4-5.9-2.6-2.8-6.1-4.3-9.9-4.3S8.7 2.7 6.1 5.5c-1.6 1.6-2.7 3.7-3.4 5.9h-.6v8.4h.6c.7 2.2 1.8 4.2 3.4 5.9C8.7 28.4 12.2 30 16 30s7.2-1.5 9.9-4.3c1.6-1.6 2.7-3.7 3.4-5.9h.6v-8.4h-.7zm-1.2 0h-4.7c-.1-.9-.3-1.7-.6-2.6 1-.6 1.9-1.2 2.7-2 1.1 1.3 2 2.9 2.6 4.6zm-3.4-5.5c-.7.7-1.4 1.2-2.2 1.7-.7-2-1.6-3.6-2.7-4.7 1.8.6 3.4 1.6 4.9 3zm-8.1-3.4c2 .4 3.7 2.5 4.8 5.8-1.5.7-3.1 1.1-4.8 1.2v-7zm0 8.2c1.8-.1 3.5-.5 5.1-1.3.2.6.3 1.3.4 2h-5.6v-.7zm-1.1-8.2v7c-1.7-.1-3.3-.5-4.8-1.2 1.1-3.3 2.8-5.5 4.8-5.8zm0 8.2v.7H9.8c.1-.7.3-1.4.4-2 1.7.7 3.4 1.2 5.2 1.3zM12.3 3c-1.1 1.1-2 2.7-2.7 4.7-.8-.5-1.6-1.1-2.2-1.8 1.4-1.4 3.1-2.4 4.9-2.9zM6.5 6.8c.8.8 1.7 1.5 2.7 2-.2.8-.4 1.7-.5 2.6H4c.5-1.7 1.4-3.3 2.5-4.6zM4 19.8h4.7c.1.9.3 1.7.6 2.6-1 .6-1.9 1.2-2.7 2C5.4 23 4.5 21.5 4 19.8zm3.4 5.4c.6-.6 1.4-1.2 2.2-1.7.7 2 1.6 3.6 2.7 4.7-1.8-.6-3.5-1.6-4.9-3zm8 3.5c-2-.4-3.7-2.5-4.8-5.8 1.5-.7 3.1-1.1 4.8-1.2v7zm0-8.2c-1.8.1-3.5.5-5.1 1.3-.2-.6-.3-1.3-.4-2h5.6v.7zm1.1 8.2v-7c1.7.1 3.3.5 4.8 1.2-1.1 3.3-2.8 5.5-4.8 5.8zm0-8.2v-.7h5.6c-.1.7-.3 1.4-.4 2-1.6-.8-3.4-1.2-5.2-1.3zm3.1 7.7c1.1-1.1 2-2.7 2.7-4.7.8.5 1.5 1.1 2.2 1.7-1.4 1.4-3 2.4-4.9 3zm5.8-3.8c-.8-.8-1.7-1.5-2.7-2 .2-.8.4-1.7.6-2.6H28c-.6 1.7-1.5 3.2-2.6 4.6zm3.2-5.8H3.3v-6h25.3v6z" class="st0"/></g></g></svg>