<svg xmlns="http://www.w3.org/2000/svg" id="Layer_1" viewBox="0 0 32 32"><style>.st0{fill:#008080;}</style><g id="XMLID_2_"><g id="XMLID_3_"><g id="XMLID_4_"><path id="XMLID_8_" d="M27.7 9.8V3.7H4.3v6.1L.5 12.1v16.1h31V12.1l-3.8-2.3zm0 2l1.2.7-1.2.8v-1.5zM6.3 5.3h19.3v9.5L16 21.6l-9.7-6.8V5.3zm-2 6.5v1.6l-1.2-.8 1.2-.8zm-1.8 2.5l8.6 6-8.6 5.5V14.3zm1.9 12.4l8.2-5.3 3.4 2.4 3.4-2.4 8.2 5.3H4.4zm25.1-.9l-8.6-5.5 8.6-6v11.5z" class="st0"/><path id="XMLID_5_" d="M16.5 16.6s.9-.5 1.5-.9c1.5-.9 3.1-2.1 3.1-3.6s-1.5-2.7-3.4-2.7c-.6 0-1.3.1-1.8.4-.5-.3-1.2-.4-1.8-.4-1.9 0-3.4 1.2-3.4 2.7 0 1.4 1.7 2.7 3.1 3.6.6.4 1.5.8 1.5.9l.5.3.7-.3zm-1.4-2.1c-1.6-1-2.4-1.7-2.4-2.3 0-.6.6-1.1 1.4-1.1.4 0 .8.1 1 .4l.8.7.8-.7c.3-.2.6-.4 1-.4.8 0 1.4.5 1.4 1.1 0 .6-.8 1.3-2.4 2.3-.3.2-.6.3-.9.5-.1-.2-.4-.4-.7-.5z" class="st0"/></g></g></g></svg>