<svg xmlns="http://www.w3.org/2000/svg" id="Layer_1" viewBox="0 0 32 32"><style>.st0{fill:none;stroke:#008080;stroke-miterlimit:10;}</style><g id="XMLID_2_"><g id="XMLID_3_"><path id="XMLID_4_" d="M26.3 20.4c.1-.1.1-.3.2-.5 0-.2.1-.3.1-.5.3-1.5.5-3.7.5-7.2 0-5.4-4.6-9.7-10.4-9.7-2.1 0-4 .6-5.6 1.6-.3.1-.5.3-.7.5-2.4 1.8-4 4.5-4 7.7 0 3.7.2 6 .5 7.4 0 .2.1.3.1.5.1.2.1.4.2.5-2.7 1.3-4.7 3.4-4.7 5.2v4.9H31v-4.9c-.1-1.9-2-4.1-4.7-5.5zM9.8 12.1h-.4c-.5-.1-1.2-.5-1.4-1.3-.2-.5-.1-1 .2-1.3.1-.1.3-.3.5-.3h.8l.1-.5c.1-.3.3-.7.4-1.1.8 1.8 2.8 1.6 5.9 1.9.9.1 2.1.1 2.7.1.1-1.4-2.1-3-2.1-3h.3c.3 0 1 .2 1.2.3 2.4 1 2.9 2.5 2.9 2.5 1.2-.3 2.2-.7 2.5-1.6.1.3.2.6.2.8l.1.5h.8c.3 0 .4.2.5.3.3.3.3.8.2 1.3-.2.7-.9 1.2-1.4 1.2h-.4l-.1.3c-.7 1.8-2.1 3.7-3.8 4.7-.9.5-1.9.9-2.9.9s-2-.3-2.9-.9c-1.7-1.1-3.1-2.9-3.8-4.7l-.1-.1zm11.3 10.1c-2.5 1-4.1 1.8-4.3 1.8-.8-.1-4.6-1.7-4.6-1.7-.9-.4-1.5-.6-2.6-1.3l.8-.8.4-.4c.6-.6 1.3-1.3 2-1.9 1.1.7 2.4 1.1 3.8 1.1s2.7-.4 3.8-1.1c.9.7 1.7 1.6 2.4 2.3l.4.4.4.4c-.4.4-1.7.9-2.5 1.2z" class="st0"/></g></g></svg>