<svg xmlns="http://www.w3.org/2000/svg" id="Layer_1" viewBox="0 0 32 32"><style>.st0{fill:none;stroke:#008080;stroke-width:0.8;stroke-miterlimit:10;}</style><g id="XMLID_2_"><g id="XMLID_3_"><path id="XMLID_4_" d="M20.6 31.3c-1.5 0-2.8-1.1-2.8-2.4v-.3h-3.3v.3c0 1.3-1.2 2.4-2.8 2.4s-2.8-1.1-2.8-2.4 1.2-2.4 2.8-2.4h8.7c1.5 0 2.8 1.1 2.8 2.4s-1.1 2.4-2.6 2.4zm-5.9-7.5v-3.6h3v3.6h-3zm3.1-17.1c5.6.4 9.5 2.6 9.5 5.4 0 .4-.3.7-.7.7-.4 0-.7-.3-.7-.7 0-1.6-3.2-3.6-8.2-4V11h.1c5.6.4 9.5 2.6 9.5 5.4 0 .4-.3.7-.7.7-.4 0-.7-.3-.7-.7 0-1.6-3.2-3.6-8.2-4v2.9h.1c5.6.4 9.5 2.6 9.5 5.4 0 .4-.3.7-.7.7-.4 0-.7-.3-.7-.7 0-1.6-3.2-3.6-8.3-4-.1.8-.7 1.4-1.5 1.4s-1.4-.6-1.5-1.4c-5.1.3-8.3 2.3-8.3 4 0 .4-.3.7-.7.7-.4 0-.7-.3-.7-.7 0-2.8 3.9-5.1 9.5-5.4h.1v-2.9c-5.1.3-8.2 2.3-8.2 4 0 .4-.3.7-.7.7-.4 0-.7-.3-.7-.7 0-2.8 3.9-5.1 9.5-5.4h.1V8.2c-5.1.3-8.2 2.3-8.2 4 0 .4-.3.7-.7.7-.4 0-.7-.3-.7-.7 0-2.8 3.9-5.1 9.5-5.4h.1V3.9c-5.1.3-8.2 2.3-8.2 4 0 .4-.3.7-.7.7-.4 0-.7-.3-.7-.7C5.1 5 9 2.8 14.6 2.4h.1c.1-.7.8-1.3 1.5-1.3s1.3.6 1.5 1.3h.1c5.6.4 9.5 2.6 9.5 5.4 0 .4-.3.7-.7.7-.4 0-.7-.3-.7-.7 0-1.6-3.2-3.6-8.2-4l.1 2.9c-.1 0 0 0 0 0z" class="st0"/></g></g></svg>